<?xml version="1.0" encoding="UTF-8"?>
<svg width="160px" height="12px" viewBox="0 0 160 12" version="1.1" xmlns="http://www.w3.org/2000/svg" xmlns:xlink="http://www.w3.org/1999/xlink">
    <title>logos/Defender</title>
    <g id="Symbols-" stroke="none" stroke-width="1" fill="none" fill-rule="evenodd">
        <g id="DEFENDER_Slate_Blue_RGB" fill="#FFFFFF">
            <path d="M20.4348506,12 L36.4398561,12 L36.4398561,9.20959333 L23.8636008,9.20959333 L23.8636008,7.29509906 L34.7379947,7.29509906 L34.7379947,4.72992701 L23.8510871,4.72992701 L23.8510871,2.79040667 L36.4273424,2.79040667 L36.4273424,0 L20.4348506,0 L20.4348506,12 L20.4348506,12 Z M59.4024715,12 L75.4074769,12 L75.4074769,9.20959333 L62.8312216,9.20959333 L62.8312216,7.29509906 L73.7056155,7.29509906 L73.7056155,4.72992701 L62.818708,4.72992701 L62.818708,2.79040667 L75.3949632,2.79040667 L75.3949632,0 L59.4024715,0 L59.4024715,12 L59.4024715,12 Z M121.695605,12 L137.70061,12 L137.70061,9.20959333 L125.136868,9.20959333 L125.136868,7.29509906 L136.011262,7.29509906 L136.011262,4.72992701 L125.124355,4.72992701 L125.124355,2.79040667 L137.70061,2.79040667 L137.70061,0 L121.708118,0 L121.695605,12 L121.695605,12 Z M39.918661,12 L43.3474112,12 L43.3474112,7.29509906 L54.2218051,7.29509906 L54.2218051,4.72992701 L43.3348975,4.72992701 L43.3348975,2.79040667 L55.9111528,2.79040667 L55.9111528,0 L39.918661,0 L39.918661,12 L39.918661,12 Z M141.179415,12 L144.620679,12 L144.620679,7.79562044 L151.916158,7.79562044 L151.916158,7.82064651 L155.432504,12 L160,12 L156.33349,7.63295099 C157.947755,7.14494265 159.124042,5.65589155 159.124042,3.8915537 C159.124042,1.73931178 157.372126,0 155.207258,0 C150.527139,0 145.84702,0 141.166901,0 L141.166901,12 L141.179415,12 Z M154.306272,2.81543274 C154.3313,2.81543274 154.368841,2.81543274 154.393868,2.81543274 C154.982012,2.81543274 155.457532,3.30344108 155.457532,3.90406674 C155.457532,4.50469239 154.982012,4.99270073 154.393868,4.99270073 C154.381355,4.99270073 154.356327,4.99270073 154.343814,4.99270073 C154.3313,4.99270073 154.318786,4.99270073 154.306272,4.99270073 L144.633193,4.99270073 L144.633193,2.80291971 L154.293759,2.80291971 C154.293759,2.81543274 154.293759,2.81543274 154.306272,2.81543274 L154.306272,2.81543274 Z M3.46629126,5.99374348 L3.46629126,6.01876955 L3.46629126,9.19708029 C5.85640544,9.19708029 8.25903332,9.19708029 10.6491475,9.19708029 C11.550133,9.19708029 12.2133584,9.03441084 12.62631,8.69655892 C13.0392617,8.37122002 13.2519944,7.84567258 13.2519944,7.13242961 C13.2645081,6.75703858 13.2645081,6.38164755 13.2645081,6.00625652 C13.2645081,6.00625652 13.2645081,6.00625652 13.2645081,6.00625652 C13.2645081,6.00625652 13.2645081,5.99374348 13.2645081,5.99374348 C13.2645081,5.99374348 13.2645081,5.99374348 13.2645081,5.99374348 C13.2645081,5.61835245 13.2519944,5.24296142 13.2519944,4.86757039 C13.2519944,4.15432742 13.0392617,3.64129301 12.62631,3.30344108 C12.2133584,2.96558916 11.550133,2.80291971 10.6491475,2.80291971 C8.25903332,2.80291971 5.85640544,2.80291971 3.46629126,2.80291971 L3.46629126,5.99374348 L3.46629126,5.99374348 Z M16.8934772,8.1459854 C16.8183951,9.48488008 16.5305803,10.4608968 15.8298139,11.0740355 C15.1165337,11.6871741 13.9777882,12 12.426091,12 L0,12 L0,6.01876955 L0,5.99374348 L0,0 L12.426091,0 C13.9777882,0 15.1165337,0.31282586 15.8298139,0.925964546 C16.543094,1.53910323 16.8309088,2.51511992 16.8934772,3.8540146 C16.9685594,5.29301356 16.9685594,6.66944734 16.8934772,8.1459854 L16.8934772,8.1459854 Z M104.739559,5.99374348 L104.739559,6.01876955 L104.739559,9.19708029 C107.129673,9.19708029 109.532301,9.19708029 111.922415,9.19708029 C112.823401,9.19708029 113.486626,9.03441084 113.899578,8.69655892 C114.312529,8.37122002 114.525262,7.84567258 114.525262,7.13242961 C114.537776,6.75703858 114.537776,6.38164755 114.537776,6.00625652 C114.537776,6.00625652 114.537776,6.00625652 114.537776,6.00625652 C114.537776,6.00625652 114.537776,5.99374348 114.537776,5.99374348 C114.537776,5.99374348 114.537776,5.99374348 114.537776,5.99374348 C114.537776,5.61835245 114.525262,5.24296142 114.525262,4.86757039 C114.525262,4.15432742 114.312529,3.64129301 113.899578,3.30344108 C113.486626,2.96558916 112.823401,2.80291971 111.922415,2.80291971 C109.532301,2.80291971 107.129673,2.80291971 104.739559,2.80291971 L104.739559,5.99374348 L104.739559,5.99374348 Z M118.166745,8.1459854 C118.091663,9.48488008 117.803848,10.4608968 117.103081,11.0740355 C116.389801,11.6871741 115.251056,12 113.699359,12 L101.273268,12 L101.273268,6.01876955 L101.273268,5.99374348 L101.273268,0 L113.699359,0 C115.251056,0 116.377288,0.31282586 117.090568,0.925964546 C117.803848,1.53910323 118.079149,2.51511992 118.154231,3.8540146 C118.241827,5.29301356 118.241827,6.66944734 118.166745,8.1459854 L118.166745,8.1459854 Z M93.4897544,12 L82.3901142,3.0531804 L82.3901142,12 L78.8737682,12 L78.8737682,0 L84.2671672,0 L94.265603,8.04588113 L94.265603,0 L97.781949,0 L97.781949,12 L93.4897544,12 Z" id="Shape"></path>
        </g>
    </g>
</svg>