<?xml version="1.0" encoding="UTF-8"?>
<svg width="18px" height="18px" viewBox="0 0 18 18" version="1.1" xmlns="http://www.w3.org/2000/svg" xmlns:xlink="http://www.w3.org/1999/xlink">
    <title>instagram</title>
    <g id="Symbols-" stroke="none" stroke-width="1" fill="none" fill-rule="evenodd">
        <g id="1366/Nav+footer/Footer" transform="translate(-716, -197)" fill="#FFFFFF" fill-rule="nonzero">
            <g id="social-links" transform="translate(632, 196)">
                <g id="Instagram_Glyph_White" transform="translate(84, 0.9998)">
                    <path d="M5.27259282,0.0629440683 C4.31498951,0.108124224 3.66104725,0.260944753 3.08936527,0.485585529 C2.49770323,0.716166326 1.99622149,1.0255874 1.49725977,1.52634913 C0.998298044,2.02711086 0.691036982,2.52895259 0.462076191,3.12151464 C0.240495425,3.69445662 0.0903749061,4.34893888 0.0480747599,5.30708219 C0.00577461365,6.26522551 -0.00358541871,6.57320657 0.00109459747,9.01725502 C0.00577461365,11.4613035 0.016574651,11.7676645 0.0630148115,12.7277878 C0.10873497,13.6852112 0.261015496,14.3389734 0.485656272,14.9108354 C0.716597071,15.5024974 1.02565814,16.0037992 1.52659987,16.5029409 C2.0275416,17.0020826 2.52902334,17.3086237 3.12302539,17.5379445 C3.69542737,17.7591652 4.35008963,17.9100058 5.30805294,17.9519459 C6.26601625,17.993886 6.57435732,18.0036061 9.01768576,17.9989261 C11.4610142,17.994246 11.7686353,17.983446 12.7285786,17.9379059 C13.6885219,17.8923657 14.3388642,17.7390052 14.9109061,17.5154444 C15.5025682,17.2839636 16.0042299,16.9754425 16.5030116,16.4743208 C17.0017934,15.9731991 17.3088744,15.4709973 17.5376552,14.8780753 C17.759416,14.3056733 17.9100765,13.651011 17.9516566,12.6937677 C17.9935968,11.7331044 18.0034968,11.4263833 17.9988168,8.9826949 C17.9941368,6.53900645 17.9831568,6.23264539 17.9376166,5.27288208 C17.8920764,4.31311876 17.7396159,3.66133651 17.5151551,3.08911453 C17.2838543,2.49745248 16.9751533,1.99651075 16.4743915,1.49700903 C15.9736298,0.997507299 15.4710681,0.690606238 14.878326,0.462365449 C14.305564,0.240784683 13.6512618,0.089764161 12.6932985,0.0483640179 C11.7353352,0.00696387478 11.4269941,-0.00365616193 8.98276564,0.00102385425 C6.53853719,0.00570387042 6.23253614,0.0161439065 5.27259282,0.0629440683 M5.37771318,16.3328403 C4.50021015,16.2946802 4.0237485,16.1488797 3.7062274,16.0268392 C3.28574595,15.8648387 2.98622492,15.668998 2.66978382,15.3556169 C2.35334273,15.0422358 2.15894206,14.7416348 1.99478149,14.3220534 C1.87148106,14.0045323 1.72298055,13.5286106 1.68194041,12.6511076 C1.63730025,11.7026843 1.62794022,11.4179233 1.6227202,9.01509501 C1.61750018,6.61226671 1.62668022,6.32786572 1.66826036,5.37908244 C1.70570049,4.50229941 1.852401,4.02529776 1.97426142,3.70795667 C2.13626198,3.28693521 2.33138265,2.98795418 2.64548374,2.67169309 C2.95958482,2.35543199 3.25928586,2.16067132 3.67922731,1.99651075 C3.99638841,1.87267032 4.47231005,1.72542981 5.34945308,1.68366967 C6.29859637,1.63866951 6.58299735,1.62966948 8.98546565,1.62444947 C11.387934,1.61922945 11.6730549,1.62822948 12.6225582,1.66998962 C13.4993413,1.70814976 13.9765229,1.85341026 14.293504,1.97599068 C14.7141655,2.13799124 15.0135065,2.33257191 15.3297676,2.647213 C15.6460287,2.96185409 15.8409693,3.26047512 16.0051299,3.68131658 C16.1291503,3.99757767 16.2763909,4.47331931 16.317791,5.35100235 C16.3629712,6.30014563 16.3732312,6.58472661 16.3775512,8.98701491 C16.3818712,11.3893032 16.3734112,11.6746042 16.331831,12.6230275 C16.2934909,13.5005305 16.1480504,13.9771722 16.02583,14.2950533 C15.8638294,14.7153547 15.6685288,15.0150558 15.3542477,15.3311368 C15.0399666,15.6472179 14.7406255,15.8419786 14.3205041,16.0061392 C14.003703,16.1297996 13.5272414,16.2774001 12.6508183,16.3191603 C11.701675,16.3638004 11.4172741,16.3731604 9.01390575,16.3783805 C6.61053744,16.3836005 6.32703646,16.3738804 5.37789318,16.3328403 M12.714717,4.18981833 C12.7154475,4.62667089 12.9792773,5.02006229 13.3831692,5.18653173 C13.787061,5.35300118 14.2514629,5.25976027 14.5597978,4.95029254 C14.8681327,4.64082481 14.9596699,4.17608412 14.7917204,3.7728055 C14.6237708,3.36952688 14.2294146,3.1071415 13.7925623,3.10801242 C13.196233,3.10920642 12.7137235,3.59348873 12.714717,4.18981833 M4.37888117,9.00897499 C4.38392975,11.5613838 6.45681691,13.6258109 9.00868573,13.6209595 C11.5605546,13.6160909 13.6264217,11.5433838 13.6215702,8.99097493 C13.6167017,6.43856611 11.5432745,4.37359897 8.99104567,4.37862978 C6.43881685,4.383679 4.37402971,6.45692617 4.37888117,9.00897499 M5.99996934,9.00573498 C5.99669801,7.34884664 7.33721345,6.00301585 8.99410179,5.99973035 C10.6509901,5.99645687 11.9968227,7.33697055 12.0001103,8.99385888 C12.003386,10.6507472 10.6628741,11.9965815 9.00598572,11.999872 C8.21028803,12.0015378 7.44652624,11.6870021 6.88276885,11.1254727 C6.31901147,10.5639433 6.00145372,9.80143306 5.99996934,9.00573498" id="Shape"></path>
                </g>
            </g>
        </g>
    </g>
</svg>