<svg width="170" height="127" viewBox="0 0 170 127" fill="none" xmlns="http://www.w3.org/2000/svg">
<g clip-path="url(#clip0_427_2094)">
<path d="M39.4524 83.6194C39.1436 83.6194 38.8711 83.5109 38.6531 83.276C38.4352 83.041 38.3262 82.77 38.3262 82.4446V73.8602C38.3262 73.5349 38.4352 73.2458 38.6531 73.0289C38.8711 72.8121 39.1436 72.6855 39.4524 72.6855H42.5221C43.7391 72.6855 44.6655 72.9386 45.2649 73.4627C45.8644 73.9868 46.1732 74.6735 46.1732 75.5229C46.1732 76.0832 46.046 76.5711 45.7735 76.9868C45.5011 77.4024 45.1378 77.6735 44.6655 77.8362V77.9988C45.2468 78.1615 45.7009 78.4687 46.0278 78.9025C46.3548 79.3362 46.5365 79.8784 46.5365 80.4928C46.5365 81.4326 46.2095 82.1916 45.5556 82.77C44.9017 83.3483 43.9389 83.6194 42.6674 83.6194H39.4705H39.4524ZM42.5403 77.0049C42.9581 77.0049 43.285 76.9145 43.5212 76.7157C43.7573 76.5169 43.8845 76.2458 43.8845 75.9205C43.8845 75.5952 43.7573 75.306 43.5212 75.1073C43.285 74.9085 42.9399 74.8181 42.5403 74.8181H40.5967V77.0229H42.5403V77.0049ZM42.7401 81.523C43.1942 81.523 43.5575 81.4145 43.83 81.1796C44.1024 80.9627 44.2477 80.6555 44.2477 80.276C44.2477 79.8964 44.1024 79.6073 43.83 79.3904C43.5575 79.1735 43.1942 79.047 42.7583 79.047H40.5967V81.5049H42.7583L42.7401 81.523Z" fill="#00A9AC"/>
<path d="M52.8216 75.9753C53.3302 76.2644 53.7298 76.6801 54.0204 77.1861C54.311 77.6921 54.4382 78.2524 54.4382 78.8668V79.3909C54.4382 79.6801 54.3474 79.9331 54.1476 80.1319C53.9477 80.3488 53.7116 80.4391 53.4028 80.4391H49.8063V80.5657C49.8063 81.0175 49.9334 81.3789 50.1696 81.65C50.4057 81.9211 50.7327 82.0476 51.1686 82.0476C51.4411 82.0476 51.6772 82.0114 51.8952 81.9392C52.1132 81.8669 52.3311 81.7584 52.5491 81.5958C52.7126 81.4873 52.8579 81.397 52.9669 81.3608C53.0759 81.3066 53.203 81.2885 53.3302 81.2885C53.5663 81.2885 53.7479 81.3789 53.8933 81.5416C54.0386 81.7042 54.1112 81.903 54.1112 82.1199C54.1112 82.2825 54.0567 82.4633 53.9659 82.644C53.8751 82.8247 53.7298 83.0054 53.53 83.15C53.2575 83.3488 52.9305 83.5115 52.5128 83.638C52.095 83.7645 51.6227 83.8187 51.0959 83.8187C50.442 83.8187 49.8426 83.6741 49.334 83.3669C48.8254 83.0596 48.4258 82.6621 48.1352 82.156C47.8445 81.65 47.6992 81.0898 47.6992 80.4934V78.8307C47.6992 78.2162 47.8445 77.656 48.1352 77.15C48.4258 76.6439 48.8254 76.2283 49.334 75.9391C49.8426 75.65 50.4239 75.4873 51.0778 75.4873C51.7317 75.4873 52.2948 75.6319 52.8034 75.9391L52.8216 75.9753ZM50.1696 77.7644C49.9334 78.0355 49.8063 78.3789 49.8063 78.8126V78.8488H52.3675C52.3675 78.397 52.2585 78.0355 52.0223 77.7644C51.7862 77.4933 51.4774 77.3668 51.0959 77.3668C50.7145 77.3668 50.4239 77.4933 50.1696 77.7644Z" fill="#00A9AC"/>
<path d="M57.0365 83.6204C56.6188 83.4577 56.2736 83.2589 55.983 83.0059C55.765 82.8252 55.6016 82.6264 55.4926 82.4276C55.3836 82.2288 55.3291 82.0119 55.3291 81.8493C55.3291 81.5963 55.4199 81.3794 55.5834 81.2167C55.7469 81.0541 55.9467 80.9818 56.1828 80.9818C56.3463 80.9818 56.5098 81.0179 56.6551 81.0902C56.8004 81.1625 56.9457 81.289 57.1274 81.4698C57.3272 81.6866 57.527 81.8493 57.7268 81.9396C57.9266 82.03 58.1627 82.0842 58.417 82.0842C58.7622 82.0842 59.0346 82.0119 59.2344 81.8493C59.4342 81.7047 59.5251 81.524 59.5251 81.3071C59.5251 81.0902 59.4161 80.9276 59.1799 80.8011C58.962 80.6746 58.5987 80.5481 58.1082 80.4216C57.5633 80.277 57.1274 80.1143 56.7823 79.9697C56.4371 79.8071 56.1283 79.5722 55.874 79.2468C55.6197 78.9215 55.4926 78.5059 55.4926 77.9818C55.4926 77.548 55.6197 77.1324 55.8559 76.7529C56.092 76.3733 56.4371 76.0661 56.8912 75.8492C57.3453 75.6324 57.8721 75.5059 58.4715 75.5059C58.9438 75.5059 59.3616 75.5782 59.743 75.7047C60.1245 75.8492 60.4514 76.03 60.7057 76.2468C60.9056 76.4276 61.069 76.6263 61.1962 76.8251C61.3052 77.0239 61.3778 77.2047 61.3778 77.3673C61.3778 77.6203 61.3052 77.8191 61.1417 77.9818C60.9782 78.1444 60.7784 78.2167 60.5423 78.2167C60.3788 78.2167 60.2335 78.1806 60.0882 78.1083C59.9428 78.036 59.7975 77.9276 59.6159 77.7649C59.4161 77.5842 59.2344 77.4396 59.0528 77.3673C58.8711 77.295 58.6713 77.2408 58.4534 77.2408C58.1627 77.2408 57.9448 77.3131 57.7813 77.4396C57.6178 77.5661 57.527 77.7288 57.527 77.8914C57.527 78.1083 57.636 78.2709 57.8721 78.3974C58.0901 78.524 58.4534 78.6505 58.9438 78.777C59.4887 78.9215 59.9247 79.0842 60.2698 79.2288C60.6149 79.3914 60.9237 79.6264 61.178 79.9517C61.4323 80.277 61.5595 80.6926 61.5595 81.2167C61.5595 81.6686 61.4323 82.1023 61.178 82.4999C60.9237 82.8975 60.5604 83.2047 60.0882 83.4577C59.6159 83.6927 59.0346 83.8192 58.3989 83.8192C57.9084 83.8192 57.4362 83.7469 57.0365 83.5842V83.6204Z" fill="#00A9AC"/>
<path d="M67.0436 81.7038C67.3161 81.7038 67.5159 81.7942 67.6794 81.9749C67.8429 82.1556 67.9337 82.3905 67.9337 82.6616C67.9337 82.9327 67.8429 83.1677 67.6794 83.3484C67.5159 83.5291 67.2979 83.6195 67.0436 83.6195H65.8811C65.3725 83.6195 64.9184 83.493 64.5188 83.258C64.1192 83.0231 63.8104 82.6797 63.5742 82.264C63.3563 81.8484 63.2291 81.3604 63.2291 80.8363V77.6736H63.0838C62.8113 77.6736 62.5934 77.5833 62.4117 77.4206C62.2301 77.2399 62.1211 77.023 62.1211 76.7339C62.1211 76.4447 62.2119 76.2098 62.4117 76.0471C62.6115 75.8845 62.8295 75.7941 63.0838 75.7941H63.2291V74.8724C63.2291 74.5833 63.3199 74.3302 63.5197 74.1315C63.7196 73.9327 63.9739 73.8242 64.2645 73.8242C64.5551 73.8242 64.7912 73.9327 64.9911 74.1315C65.1909 74.3302 65.2817 74.5833 65.2817 74.8724V75.7941H66.6985C66.971 75.7941 67.1889 75.8845 67.3706 76.0652C67.5522 76.2459 67.6431 76.4628 67.6431 76.752C67.6431 77.0411 67.5522 77.258 67.3706 77.4387C67.1889 77.6194 66.971 77.7098 66.6985 77.7098H65.2817V80.8725C65.2817 81.1616 65.3362 81.3785 65.4633 81.5231C65.5905 81.6676 65.754 81.758 65.9901 81.758H67.0073L67.0436 81.7038Z" fill="#00A9AC"/>
<path d="M74.5287 83.638C74.002 83.4392 73.5479 83.1681 73.1846 82.8248C72.6397 82.3007 72.3672 81.7946 72.3672 81.3067C72.3672 80.9814 72.4762 80.7103 72.676 80.4934C72.8758 80.2766 73.1483 80.1681 73.457 80.1681C73.6205 80.1681 73.7658 80.2043 73.893 80.2946C74.0201 80.385 74.2018 80.5296 74.4016 80.7464C74.7104 81.1079 75.001 81.3428 75.2735 81.4874C75.5459 81.632 75.8729 81.7043 76.2544 81.7043C76.8356 81.7043 77.2716 81.5778 77.5803 81.3609C77.871 81.126 78.0163 80.8368 78.0163 80.4934C78.0163 80.2585 77.9255 80.0416 77.762 79.879C77.5804 79.7163 77.3805 79.5717 77.1081 79.4633C76.8356 79.3549 76.4723 79.2284 76.0001 79.0657C75.2916 78.8308 74.7104 78.6139 74.2563 78.397C73.8022 78.1802 73.4026 77.8548 73.0756 77.4211C72.7486 76.9874 72.5852 76.4452 72.5852 75.7584C72.5852 75.1259 72.7305 74.5476 73.0393 74.0416C73.3481 73.5355 73.784 73.1199 74.3471 72.8307C74.9102 72.5416 75.6004 72.3789 76.3815 72.3789C76.9628 72.3789 77.5077 72.4693 78.0163 72.6681C78.5249 72.8669 78.9608 73.1379 79.306 73.4813C79.5421 73.7163 79.7237 73.9693 79.8509 74.2223C79.978 74.4753 80.0325 74.7283 80.0325 74.9452C80.0325 75.2705 79.9235 75.5596 79.7237 75.7584C79.5239 75.9753 79.2515 76.0838 78.9427 76.0838C78.761 76.0838 78.5976 76.0476 78.4704 75.9572C78.3433 75.8669 78.1798 75.7223 77.98 75.4874C77.7075 75.1621 77.4532 74.9271 77.1989 74.7825C76.9446 74.638 76.654 74.5837 76.3088 74.5837C75.8547 74.5837 75.5096 74.6922 75.2553 74.891C75.001 75.0898 74.8739 75.3609 74.8739 75.65C74.8739 75.885 74.9647 76.0838 75.1282 76.2645C75.3098 76.4271 75.5278 76.5717 75.7821 76.6801C76.0364 76.7886 76.4178 76.9151 76.8901 77.0777C77.5985 77.3127 78.1798 77.5295 78.6339 77.7464C79.088 77.9633 79.4694 78.2886 79.8146 78.7043C80.1415 79.1199 80.305 79.6802 80.305 80.3488C80.305 81.0175 80.1415 81.6139 79.8327 82.1561C79.5058 82.6983 79.0335 83.132 78.4159 83.4392C77.7983 83.7465 77.0536 83.9091 76.1635 83.9091C75.6004 83.9091 75.0555 83.8187 74.5287 83.62V83.638Z" fill="#00A9AC"/>
<path d="M82.157 83.4387C81.9391 83.2037 81.8301 82.9327 81.8301 82.6074V73.8603C81.8301 73.4808 81.9572 73.1735 82.2115 72.9205C82.4658 72.6675 82.7565 72.541 83.1016 72.541C83.7918 72.541 84.3186 72.9386 84.6637 73.7157L87.2249 79.3724H87.3702L89.9132 73.7157C90.2765 72.9386 90.7851 72.541 91.4753 72.541C91.8205 72.541 92.1293 72.6675 92.3654 72.9205C92.6197 73.1735 92.7468 73.4989 92.7468 73.8603V82.6074C92.7468 82.9327 92.6379 83.2037 92.4199 83.4387C92.2019 83.6736 91.9294 83.7821 91.6207 83.7821C91.3119 83.7821 91.0394 83.6736 90.8214 83.4387C90.6035 83.2037 90.4945 82.9327 90.4945 82.6074V77.4386H90.3492L88.6054 81.3784C88.4419 81.7399 88.2603 82.011 88.0423 82.2098C87.8243 82.3905 87.5882 82.4989 87.2794 82.4989C86.9706 82.4989 86.7163 82.4086 86.5165 82.2098C86.3167 82.029 86.1169 81.7399 85.9716 81.3784L84.2278 77.4386H84.0825V82.6074C84.0825 82.9327 83.9735 83.2218 83.7555 83.4387C83.5375 83.6555 83.2651 83.7821 82.9563 83.7821C82.6475 83.7821 82.375 83.6736 82.157 83.4387Z" fill="#00A9AC"/>
<path d="M101.41 81.3965C101.755 81.3965 102.028 81.5049 102.228 81.7218C102.427 81.9386 102.536 82.2097 102.536 82.5169C102.536 82.8242 102.427 83.0772 102.228 83.2941C102.028 83.5109 101.755 83.6194 101.41 83.6194H95.8156C95.4887 83.6194 95.2344 83.5109 95.0164 83.276C94.7984 83.041 94.6895 82.77 94.6895 82.4446V73.8602C94.6895 73.5349 94.7984 73.2458 95.0164 73.0289C95.2344 72.8121 95.5068 72.6855 95.8156 72.6855H101.265C101.61 72.6855 101.883 72.794 102.082 73.0109C102.282 73.2277 102.391 73.4807 102.391 73.788C102.391 74.0952 102.282 74.3482 102.082 74.5651C101.883 74.7819 101.61 74.8904 101.265 74.8904H96.9418V77.0591H99.9753C100.302 77.0591 100.575 77.1675 100.775 77.3844C100.974 77.6012 101.083 77.8543 101.083 78.1434C101.083 78.4326 100.974 78.6856 100.775 78.9025C100.575 79.1193 100.302 79.2278 99.9753 79.2278H96.9418V81.3784H101.41V81.3965Z" fill="#00A9AC"/>
<path d="M108.641 83.6194C108.332 83.6194 108.06 83.5109 107.842 83.276C107.624 83.041 107.515 82.77 107.515 82.4446V73.8602C107.515 73.5349 107.624 73.2458 107.842 73.0289C108.06 72.8121 108.332 72.6855 108.641 72.6855H111.711C112.928 72.6855 113.854 72.9386 114.453 73.4627C115.053 73.9868 115.362 74.6735 115.362 75.5229C115.362 76.0832 115.234 76.5711 114.962 76.9868C114.69 77.4024 114.326 77.6735 113.854 77.8362V77.9988C114.435 78.1615 114.889 78.4687 115.216 78.9025C115.543 79.3362 115.725 79.8784 115.725 80.4928C115.725 81.4326 115.398 82.1916 114.744 82.77C114.09 83.3483 113.127 83.6194 111.856 83.6194H108.659H108.641ZM111.729 77.0049C112.147 77.0049 112.474 76.9145 112.71 76.7157C112.946 76.5169 113.073 76.2458 113.073 75.9205C113.073 75.5952 112.946 75.306 112.71 75.1073C112.474 74.9085 112.128 74.8181 111.729 74.8181H109.785V77.0229H111.729V77.0049ZM111.929 81.523C112.383 81.523 112.746 81.4145 113.018 81.1796C113.291 80.9627 113.436 80.6555 113.436 80.276C113.436 79.8964 113.291 79.6073 113.018 79.3904C112.746 79.1555 112.383 79.047 111.947 79.047H109.785V81.5049H111.947L111.929 81.523Z" fill="#00A9AC"/>
<path d="M121.737 75.9388C122.227 76.228 122.627 76.6075 122.9 77.0774C123.172 77.5473 123.317 78.1075 123.317 78.6858V82.6256C123.317 82.9148 123.226 83.1678 123.027 83.3666C122.827 83.5835 122.591 83.6738 122.282 83.6738C122.028 83.6738 121.81 83.6015 121.646 83.4389C121.465 83.2762 121.356 83.0955 121.319 82.8606H121.156C120.956 83.1497 120.665 83.3847 120.32 83.5654C119.975 83.7461 119.594 83.8365 119.212 83.8365C118.758 83.8365 118.34 83.728 117.977 83.5112C117.614 83.2943 117.323 83.0051 117.123 82.6437C116.923 82.2822 116.814 81.8846 116.814 81.4509C116.814 80.6738 117.087 80.0413 117.614 79.5533C118.14 79.0653 118.903 78.8123 119.884 78.8123H121.247V78.6858C121.247 78.2882 121.138 77.9449 120.92 77.6918C120.702 77.4388 120.393 77.2943 120.011 77.2943C119.812 77.2943 119.648 77.3304 119.503 77.4027C119.357 77.475 119.194 77.6196 119.012 77.8003C118.849 77.9629 118.704 78.0894 118.576 78.1437C118.449 78.2159 118.286 78.2521 118.104 78.2521C117.85 78.2521 117.65 78.1617 117.487 77.9991C117.323 77.8364 117.25 77.6196 117.25 77.3665C117.25 77.1316 117.323 76.9147 117.468 76.6798C117.614 76.4629 117.813 76.2461 118.068 76.0653C118.595 75.6677 119.23 75.4689 120.011 75.4689C120.665 75.4689 121.228 75.6135 121.737 75.8846V75.9388ZM121.247 80.3846H119.884C119.575 80.3846 119.321 80.475 119.139 80.6557C118.958 80.8364 118.867 81.0533 118.867 81.3063C118.867 81.5593 118.94 81.7581 119.103 81.9027C119.267 82.0473 119.485 82.1196 119.775 82.1196C120.048 82.1196 120.302 82.0473 120.574 81.9027C120.847 81.7581 121.065 81.5593 121.247 81.3244V80.3846Z" fill="#00A9AC"/>
<path d="M130.147 75.9392C130.547 76.2102 130.855 76.5898 131.091 77.0777C131.328 77.5657 131.437 78.144 131.437 78.7765V82.644C131.437 82.9332 131.346 83.1862 131.146 83.385C130.946 83.6019 130.71 83.6922 130.419 83.6922C130.129 83.6922 129.874 83.5838 129.675 83.385C129.475 83.1862 129.384 82.9332 129.384 82.644V78.7765C129.384 78.3609 129.275 78.0356 129.057 77.7826C128.839 77.5295 128.548 77.403 128.185 77.403C127.822 77.403 127.531 77.5295 127.313 77.7826C127.095 78.0356 126.986 78.3609 126.986 78.7765V82.644C126.986 82.9332 126.895 83.1862 126.696 83.385C126.496 83.6019 126.26 83.6922 125.969 83.6922C125.678 83.6922 125.424 83.5838 125.224 83.385C125.025 83.1862 124.934 82.9332 124.934 82.644V76.7524C124.934 76.4452 125.025 76.1922 125.224 75.9934C125.424 75.7946 125.678 75.6862 125.969 75.6862C126.26 75.6862 126.478 75.7584 126.623 75.9211C126.786 76.0837 126.877 76.2645 126.932 76.4813H127.095C127.222 76.2283 127.459 75.9934 127.786 75.8127C128.112 75.6319 128.476 75.5235 128.857 75.5235C129.329 75.5235 129.784 75.6681 130.183 75.9211L130.147 75.9392Z" fill="#00A9AC"/>
<path d="M139.339 81.8127C139.538 82.0657 139.629 82.3368 139.629 82.644C139.629 82.9512 139.538 83.1862 139.357 83.385C139.175 83.6018 138.939 83.6922 138.63 83.6922C138.285 83.6922 137.994 83.5295 137.74 83.1681L135.869 80.656H135.106V82.6259C135.106 82.9151 135.015 83.1681 134.816 83.3669C134.616 83.5838 134.38 83.6741 134.089 83.6741C133.798 83.6741 133.544 83.5657 133.344 83.3669C133.145 83.1681 133.054 82.9151 133.054 82.6259V73.5716C133.054 73.2825 133.145 73.0295 133.344 72.8307C133.544 72.6138 133.798 72.5234 134.089 72.5234C134.38 72.5234 134.634 72.6319 134.816 72.8307C134.997 73.0295 135.106 73.2825 135.106 73.5716V78.6861H135.851L137.577 76.1741C137.704 75.9933 137.831 75.8488 137.958 75.7765C138.085 75.7042 138.249 75.668 138.467 75.668C138.775 75.668 139.03 75.7765 139.211 75.9753C139.393 76.1741 139.502 76.4271 139.502 76.7162C139.502 77.0054 139.411 77.2584 139.248 77.4753L137.631 79.5898L139.339 81.7946V81.8127Z" fill="#00A9AC"/>
<path d="M46.4828 98.2767C45.9561 98.0779 45.502 97.8068 45.1387 97.4634C44.5938 96.9393 44.3213 96.4333 44.3213 95.9453C44.3213 95.62 44.4303 95.349 44.6301 95.1321C44.8299 94.9152 45.1024 94.8068 45.4111 94.8068C45.5746 94.8068 45.7199 94.8429 45.8471 94.9333C45.9742 95.0237 46.1559 95.1682 46.3557 95.3851C46.6645 95.7465 46.9551 95.9815 47.2276 96.1261C47.5 96.2706 47.827 96.3429 48.2085 96.3429C48.7897 96.3429 49.2257 96.2164 49.5345 95.9996C49.8251 95.7646 49.9704 95.4755 49.9704 95.1321C49.9704 94.8971 49.8796 94.6803 49.7161 94.5176C49.5345 94.355 49.3346 94.2104 49.0622 94.102C48.7897 93.9935 48.4264 93.867 47.9542 93.7044C47.2457 93.4694 46.6645 93.2526 46.2104 93.0357C45.7563 92.8188 45.3567 92.4935 45.0297 92.0598C44.7027 91.626 44.5393 91.0839 44.5393 90.3971C44.5393 89.7646 44.6846 89.1863 44.9934 88.6802C45.3022 88.1742 45.7381 87.7585 46.3012 87.4694C46.8643 87.1802 47.5545 87.0176 48.3356 87.0176C48.9169 87.0176 49.4618 87.1079 49.9704 87.3067C50.479 87.5055 50.9149 87.7766 51.2601 88.12C51.4962 88.3549 51.6778 88.6079 51.805 88.861C51.9321 89.114 51.9866 89.367 51.9866 89.5839C51.9866 89.9092 51.8777 90.1983 51.6778 90.3971C51.478 90.614 51.2056 90.7224 50.8968 90.7224C50.7151 90.7224 50.5517 90.6863 50.4245 90.5959C50.2974 90.5056 50.1339 90.361 49.9341 90.126C49.6616 89.8007 49.4073 89.5658 49.153 89.4212C48.8987 89.2766 48.6081 89.2224 48.2629 89.2224C47.8088 89.2224 47.4637 89.3308 47.2094 89.5296C46.9551 89.7284 46.828 89.9995 46.828 90.2887C46.828 90.5236 46.9188 90.7224 47.0823 90.9031C47.2639 91.0658 47.4819 91.2104 47.7362 91.3188C47.9905 91.4272 48.3719 91.5538 48.8442 91.7164C49.5526 91.9513 50.1339 92.1682 50.588 92.3851C51.0421 92.6019 51.4235 92.9273 51.7687 93.3429C52.0956 93.7586 52.2591 94.3188 52.2591 94.9875C52.2591 95.6562 52.0956 96.2526 51.7868 96.7948C51.4599 97.3369 50.9876 97.7707 50.37 98.0779C49.7524 98.3851 49.0077 98.5478 48.1176 98.5478C47.5545 98.5478 47.0096 98.4574 46.4828 98.2586V98.2767Z" fill="#00A9AC"/>
<path d="M55.0382 98.0408C54.5296 97.7335 54.13 97.3359 53.8394 96.8299C53.5488 96.3239 53.4034 95.7636 53.4034 95.1673V93.5046C53.4034 92.8901 53.5488 92.3299 53.8394 91.8239C54.13 91.3178 54.5296 90.9022 55.0382 90.613C55.5468 90.3238 56.1281 90.1612 56.8002 90.1612C57.4723 90.1612 58.0353 90.3058 58.5439 90.613C59.0526 90.9202 59.4522 91.3178 59.7428 91.8239C60.0334 92.3299 60.1787 92.8901 60.1787 93.5046V95.1673C60.1787 95.7636 60.0334 96.3239 59.7428 96.8299C59.4522 97.3359 59.0526 97.7516 58.5439 98.0408C58.0353 98.3299 57.4541 98.4926 56.8002 98.4926C56.1463 98.4926 55.5468 98.348 55.0382 98.0408ZM57.7266 96.1974C57.9809 95.9263 58.108 95.5829 58.108 95.1673V93.5046C58.108 93.0889 57.9809 92.7456 57.7266 92.4564C57.4723 92.1672 57.1635 92.0407 56.782 92.0407C56.4006 92.0407 56.0918 92.1853 55.8375 92.4564C55.5832 92.7275 55.456 93.0889 55.456 93.5046V95.1673C55.456 95.5829 55.5832 95.9263 55.8375 96.1974C56.0918 96.4685 56.4006 96.613 56.782 96.613C57.1635 96.613 57.4723 96.4685 57.7266 96.1974Z" fill="#00A9AC"/>
<path d="M67.8085 90.6129C68.0083 90.8117 68.0991 91.0647 68.0991 91.3719V97.2635C68.0991 97.5527 68.0083 97.8057 67.8085 98.0045C67.6087 98.2214 67.3725 98.3117 67.0819 98.3117C66.7913 98.3117 66.5551 98.2214 66.3917 98.0587C66.2282 97.8961 66.1374 97.6973 66.101 97.4985H65.9376C65.8104 97.7515 65.5743 97.9864 65.2473 98.1852C64.9204 98.384 64.5571 98.4744 64.1756 98.4744C63.7034 98.4744 63.2492 98.3298 62.8678 98.0768C62.4682 97.8057 62.1594 97.4262 61.9232 96.9382C61.6871 96.4503 61.5781 95.872 61.5781 95.2394V91.3719C61.5781 91.0647 61.6689 90.8117 61.8688 90.6129C62.0686 90.4141 62.3229 90.3057 62.6135 90.3057C62.9041 90.3057 63.1584 90.4141 63.3401 90.6129C63.5399 90.8117 63.6307 91.0647 63.6307 91.3719V95.2394C63.6307 95.6551 63.7397 95.9804 63.9576 96.2334C64.1756 96.4864 64.4662 96.5949 64.8295 96.5949C65.1928 96.5949 65.4835 96.4684 65.7014 96.2153C65.9194 95.9623 66.0284 95.637 66.0284 95.2394V91.3719C66.0284 91.0647 66.1192 90.8117 66.319 90.6129C66.5188 90.4141 66.755 90.3057 67.0637 90.3057C67.3725 90.3057 67.6087 90.4141 67.7903 90.6129H67.8085Z" fill="#00A9AC"/>
<path d="M74.0759 96.3434C74.3483 96.3434 74.5481 96.4338 74.7116 96.6145C74.8751 96.7952 74.9659 97.0302 74.9659 97.3013C74.9659 97.5724 74.8751 97.8073 74.7116 97.988C74.5481 98.1688 74.3302 98.2591 74.0759 98.2591H72.9133C72.4047 98.2591 71.9506 98.1326 71.551 97.8977C71.1514 97.6627 70.8426 97.3193 70.6065 96.9037C70.3885 96.488 70.2613 96.0001 70.2613 95.476V92.3133H70.116C69.8436 92.3133 69.6256 92.2229 69.4439 92.0603C69.2623 91.8795 69.1533 91.6627 69.1533 91.3735C69.1533 91.0844 69.2441 90.8494 69.4439 90.6868C69.6438 90.5241 69.8617 90.4338 70.116 90.4338H70.2613V89.5121C70.2613 89.2229 70.3522 88.9699 70.552 88.7711C70.7518 88.5723 71.0061 88.4639 71.2967 88.4639C71.5873 88.4639 71.8235 88.5723 72.0233 88.7711C72.2231 88.9699 72.3139 89.2229 72.3139 89.5121V90.4338H73.7307C74.0032 90.4338 74.2212 90.5241 74.4028 90.7048C74.5845 90.8856 74.6753 91.1024 74.6753 91.3916C74.6753 91.6808 74.5845 91.8976 74.4028 92.0784C74.2212 92.2591 74.0032 92.3494 73.7307 92.3494H72.3139V95.5121C72.3139 95.8013 72.3684 96.0181 72.4956 96.1627C72.6227 96.3073 72.7862 96.3977 73.0223 96.3977H74.0395L74.0759 96.3434Z" fill="#00A9AC"/>
<path d="M81.2688 90.5597C81.6684 90.8308 81.9772 91.2103 82.2134 91.6983C82.4495 92.1862 82.5585 92.7646 82.5585 93.3971V97.2646C82.5585 97.5537 82.4677 97.8068 82.2679 98.0056C82.0681 98.2224 81.8319 98.3128 81.5413 98.3128C81.2507 98.3128 80.9964 98.2044 80.7966 98.0056C80.5967 97.8068 80.5059 97.5537 80.5059 97.2646V93.3971C80.5059 92.9814 80.3969 92.6561 80.179 92.4031C79.961 92.1501 79.6704 92.0236 79.3071 92.0236C78.9438 92.0236 78.6532 92.1501 78.4352 92.4031C78.2172 92.6561 78.1082 92.9814 78.1082 93.3971V97.2646C78.1082 97.5537 78.0174 97.8068 77.8176 98.0056C77.6178 98.2224 77.3817 98.3128 77.091 98.3128C76.8004 98.3128 76.5461 98.2044 76.3463 98.0056C76.1465 97.8068 76.0557 97.5537 76.0557 97.2646V88.2103C76.0557 87.9212 76.1465 87.6681 76.3463 87.4693C76.5461 87.2705 76.8004 87.1621 77.091 87.1621C77.3817 87.1621 77.6178 87.2705 77.8176 87.4693C78.0174 87.6681 78.1082 87.9212 78.1082 88.2103V90.9573H78.2536C78.417 90.7043 78.6532 90.5055 78.962 90.3609C79.2708 90.2163 79.5977 90.1441 79.961 90.1441C80.4333 90.1441 80.8874 90.2886 81.287 90.5416L81.2688 90.5597Z" fill="#00A9AC"/>
<path d="M96.3257 96.1798C96.5074 96.6497 96.5982 97.0111 96.5982 97.2461C96.5982 97.5894 96.4892 97.8786 96.2894 98.0955C96.0714 98.3123 95.799 98.4208 95.472 98.4208C95.1814 98.4208 94.9452 98.3123 94.7454 98.0955C94.5456 97.8786 94.3821 97.5894 94.2732 97.1919L93.8372 95.8184H90.0409L89.6049 97.1919C89.4959 97.5714 89.3325 97.8786 89.1145 98.0955C88.8965 98.3123 88.6604 98.4208 88.3879 98.4208C88.0609 98.4208 87.7885 98.3123 87.5705 98.0955C87.3525 97.8786 87.2617 97.5894 87.2617 97.2461C87.2617 97.0111 87.3525 96.6678 87.5342 96.1798L90.0954 88.752C90.3133 88.1376 90.5495 87.7038 90.8401 87.4328C91.1126 87.1617 91.4758 87.0352 91.93 87.0352C92.3841 87.0352 92.7655 87.1797 93.038 87.4328C93.3104 87.7038 93.5647 88.1376 93.7645 88.752L96.3257 96.1798ZM91.9844 89.9629H91.8391L90.6584 93.5954H93.1833L91.9844 89.9629Z" fill="#00A9AC"/>
<path d="M100.922 89.0763C100.704 89.0763 100.523 89.1486 100.396 89.3112C100.268 89.4558 100.214 89.6908 100.214 89.9799V90.6125H101.485C101.74 90.6125 101.976 90.7028 102.158 90.8835C102.339 91.0643 102.43 91.2811 102.43 91.5703C102.43 91.8595 102.339 92.0763 102.158 92.257C101.976 92.4378 101.758 92.5281 101.485 92.5281H100.214V97.2993C100.214 97.5884 100.123 97.8414 99.9233 98.0402C99.7235 98.2571 99.4873 98.3475 99.1967 98.3475C98.9061 98.3475 98.6518 98.239 98.452 98.0402C98.2522 97.8414 98.1613 97.5884 98.1613 97.2993V92.5281H97.9979C97.7436 92.5281 97.5074 92.4378 97.3258 92.2751C97.1441 92.0944 97.0352 91.8775 97.0352 91.5884C97.0352 91.2992 97.126 91.0643 97.3258 90.9016C97.5256 90.739 97.7436 90.6486 97.9979 90.6486H98.1613V90.0161C98.1613 89.492 98.2703 89.004 98.4883 88.5884C98.7063 88.1546 99.0151 87.8293 99.4147 87.5763C99.8143 87.3233 100.268 87.2148 100.777 87.2148H101.94C102.212 87.2148 102.412 87.3052 102.575 87.4859C102.739 87.6667 102.83 87.9016 102.83 88.1727C102.83 88.4438 102.739 88.6787 102.575 88.8594C102.412 89.0402 102.194 89.1305 101.94 89.1305H100.922V89.0763Z" fill="#00A9AC"/>
<path d="M107.424 90.2334C107.679 90.2334 107.897 90.3238 108.06 90.5045C108.224 90.6852 108.315 90.9021 108.315 91.1912C108.315 91.4804 108.242 91.6973 108.06 91.878C107.879 92.0587 107.679 92.1491 107.424 92.1491H106.625C106.244 92.1491 105.953 92.2756 105.717 92.5286C105.481 92.7816 105.372 93.1069 105.372 93.5045V97.2997C105.372 97.5889 105.281 97.8419 105.081 98.0407C104.881 98.2576 104.645 98.3479 104.355 98.3479C104.064 98.3479 103.81 98.2395 103.61 98.0407C103.41 97.8419 103.319 97.5889 103.319 97.2997V91.4081C103.319 91.1009 103.41 90.8479 103.61 90.6491C103.81 90.4503 104.064 90.3418 104.355 90.3418C104.591 90.3418 104.809 90.4141 104.99 90.5587C105.172 90.7033 105.281 90.9021 105.336 91.1189H105.481C105.626 90.884 105.826 90.6852 106.08 90.5226C106.353 90.3599 106.607 90.2695 106.898 90.2695H107.424V90.2334Z" fill="#00A9AC"/>
<path d="M109.405 88.734C109.206 88.5172 109.097 88.2642 109.097 87.9388C109.097 87.6135 109.206 87.3425 109.405 87.1437C109.605 86.9268 109.86 86.8184 110.168 86.8184C110.477 86.8184 110.731 86.9268 110.931 87.1437C111.149 87.3605 111.24 87.6316 111.24 87.9388C111.24 88.2461 111.131 88.5172 110.931 88.734C110.713 88.9509 110.459 89.0593 110.168 89.0593C109.878 89.0593 109.605 88.9509 109.405 88.734ZM109.442 98.0233C109.242 97.8245 109.151 97.5714 109.151 97.2823V91.3907C109.151 91.0834 109.242 90.8304 109.442 90.6316C109.642 90.4328 109.896 90.3244 110.187 90.3244C110.477 90.3244 110.731 90.4328 110.913 90.6316C111.095 90.8304 111.204 91.0834 111.204 91.3907V97.2823C111.204 97.5714 111.113 97.8245 110.913 98.0233C110.713 98.2401 110.477 98.3305 110.187 98.3305C109.896 98.3305 109.642 98.2221 109.442 98.0233Z" fill="#00A9AC"/>
<path d="M114.326 98.0407C113.818 97.7335 113.418 97.3359 113.127 96.8299C112.837 96.3238 112.691 95.7636 112.691 95.1672V93.5045C112.691 92.8901 112.837 92.3298 113.127 91.8238C113.418 91.3178 113.818 90.9021 114.326 90.6129C114.835 90.3238 115.416 90.1611 116.088 90.1611C116.524 90.1611 116.942 90.2334 117.323 90.3961C117.705 90.5587 118.05 90.7756 118.304 91.0467C118.722 91.4262 118.94 91.8599 118.94 92.3479C118.94 92.6009 118.867 92.8178 118.686 92.9985C118.504 93.1792 118.304 93.2515 118.05 93.2515C117.868 93.2515 117.723 93.2154 117.578 93.125C117.432 93.0346 117.287 92.8901 117.124 92.6732C116.96 92.4383 116.778 92.2756 116.615 92.1672C116.451 92.0587 116.27 92.0226 116.052 92.0226C115.67 92.0226 115.362 92.1672 115.107 92.4383C114.853 92.7093 114.726 93.0708 114.726 93.4865V95.1491C114.726 95.5648 114.853 95.9082 115.107 96.1793C115.362 96.4503 115.67 96.5949 116.052 96.5949C116.288 96.5949 116.506 96.5407 116.688 96.4323C116.869 96.3238 117.069 96.1431 117.269 95.872C117.45 95.6551 117.596 95.5106 117.723 95.4202C117.85 95.3298 117.995 95.2937 118.159 95.2937C118.431 95.2937 118.631 95.3841 118.795 95.5467C118.958 95.7094 119.049 95.9262 119.049 96.1973C119.049 96.6853 118.795 97.1552 118.286 97.625C118.014 97.8961 117.668 98.113 117.269 98.2576C116.851 98.4022 116.451 98.4925 116.052 98.4925C115.398 98.4925 114.798 98.3479 114.29 98.0407H114.326Z" fill="#00A9AC"/>
<path d="M124.97 90.5773C125.461 90.8665 125.86 91.246 126.133 91.7159C126.405 92.1857 126.551 92.746 126.551 93.3243V97.2641C126.551 97.5533 126.46 97.8063 126.26 98.0051C126.06 98.2219 125.824 98.3123 125.515 98.3123C125.261 98.3123 125.043 98.24 124.88 98.0774C124.698 97.9147 124.589 97.734 124.553 97.499H124.389C124.189 97.7882 123.899 98.0231 123.554 98.2039C123.208 98.3846 122.827 98.475 122.446 98.475C121.991 98.475 121.574 98.3665 121.21 98.1496C120.847 97.9328 120.556 97.6436 120.357 97.2822C120.157 96.9207 120.048 96.5231 120.048 96.0894C120.048 95.3123 120.32 94.6797 120.847 94.1918C121.374 93.7038 122.137 93.4508 123.118 93.4508H124.48V93.3243C124.48 92.9267 124.371 92.5833 124.153 92.3303C123.935 92.0773 123.626 91.9327 123.245 91.9327C123.045 91.9327 122.881 91.9689 122.736 92.0412C122.591 92.1135 122.427 92.258 122.246 92.4388C122.082 92.6014 121.937 92.7279 121.81 92.7821C121.683 92.8544 121.519 92.8906 121.338 92.8906C121.083 92.8906 120.883 92.8002 120.72 92.6376C120.556 92.4749 120.484 92.258 120.484 92.005C120.484 91.7701 120.556 91.5532 120.702 91.3183C120.847 91.1014 121.047 90.8845 121.301 90.7038C121.828 90.3062 122.464 90.1074 123.245 90.1074C123.899 90.1074 124.462 90.252 124.97 90.5231V90.5773ZM124.48 95.005H123.118C122.809 95.005 122.555 95.0954 122.373 95.2761C122.191 95.4569 122.1 95.6737 122.1 95.9267C122.1 96.1798 122.173 96.3785 122.337 96.5231C122.5 96.6677 122.718 96.74 123.009 96.74C123.281 96.74 123.535 96.6677 123.808 96.5231C124.08 96.3785 124.298 96.1798 124.48 95.9448V95.005Z" fill="#00A9AC"/>
<path d="M51.2049 50.0409C51.3321 50.0409 51.4411 50.0951 51.5319 50.1855C51.6227 50.2758 51.6772 50.3843 51.6772 50.5288V52.1734C51.6772 52.3361 51.5864 52.5168 51.4229 52.7156C51.2594 52.9144 51.0233 53.077 50.7327 53.2216C50.442 53.3662 50.0969 53.4385 49.7155 53.4385C49.3158 53.4385 48.9526 53.3481 48.6256 53.1493C48.2986 52.9505 48.0625 52.6794 47.8809 52.3361C47.6992 51.9927 47.6084 51.6132 47.6084 51.1975V49.7517C47.6084 49.3361 47.6992 48.9385 47.8809 48.6132C48.0625 48.2879 48.3168 47.9987 48.6256 47.7999C48.9526 47.6011 49.3158 47.5107 49.7155 47.5107C50.0243 47.5107 50.3149 47.565 50.5874 47.6915C50.8598 47.818 51.0778 47.9626 51.2594 48.1613C51.4592 48.3963 51.5682 48.6132 51.5682 48.83C51.5682 48.9746 51.5319 49.083 51.4411 49.1734C51.3684 49.2638 51.2594 49.318 51.1323 49.318C51.0596 49.318 50.987 49.2999 50.9143 49.2457C50.8598 49.1915 50.769 49.1011 50.66 48.9746C50.5147 48.7939 50.3694 48.6674 50.2241 48.5951C50.0787 48.5228 49.8971 48.4867 49.6973 48.4867C49.3522 48.4867 49.0797 48.6132 48.8617 48.8481C48.6438 49.083 48.5348 49.3903 48.5348 49.7698V51.2156C48.5348 51.5951 48.6438 51.9023 48.8617 52.1373C49.0797 52.3722 49.3522 52.4987 49.6973 52.4987C50.1332 52.4987 50.4784 52.3722 50.7145 52.1373V51.0529H50.0606C49.9153 51.0529 49.8063 50.9987 49.7155 50.9084C49.6246 50.818 49.5883 50.6915 49.5883 50.565C49.5883 50.4385 49.6246 50.33 49.7155 50.2216C49.8063 50.1312 49.9153 50.077 50.0606 50.077H51.1868L51.2049 50.0409Z" fill="#00A9AC"/>
<path d="M52.7863 53.1503C52.7863 53.1503 52.6592 52.9515 52.6592 52.8431V48.0177C52.6592 47.8912 52.6955 47.8009 52.7863 47.7105C52.8772 47.6201 52.968 47.584 53.0951 47.584C53.2223 47.584 53.3313 47.6201 53.4039 47.7105C53.4947 47.8009 53.5311 47.9093 53.5311 48.0177V52.8431C53.5311 52.9696 53.4947 53.078 53.4039 53.1503C53.3131 53.2407 53.2223 53.2768 53.0951 53.2768C52.968 53.2768 52.859 53.2407 52.7863 53.1503Z" fill="#00A9AC"/>
<path d="M55.1829 53.1502C54.9286 53.0057 54.7288 52.8069 54.5834 52.5539C54.4381 52.3008 54.3655 52.0298 54.3655 51.7406V50.8189C54.3655 50.5297 54.4381 50.2587 54.5834 50.0056C54.7288 49.7526 54.9286 49.5538 55.1829 49.4093C55.4372 49.2647 55.7278 49.1924 56.0366 49.1924C56.3454 49.1924 56.636 49.2647 56.8903 49.4093C57.1446 49.5538 57.3444 49.7526 57.4897 50.0056C57.6351 50.2587 57.7077 50.5297 57.7077 50.8189V51.7406C57.7077 52.0298 57.6351 52.3008 57.4897 52.5539C57.3444 52.8069 57.1446 53.0057 56.8903 53.1502C56.636 53.2948 56.3454 53.3671 56.0366 53.3671C55.7278 53.3671 55.4372 53.2948 55.1829 53.1502ZM56.5997 52.3189C56.745 52.1563 56.8177 51.9575 56.8177 51.7225V50.8008C56.8177 50.5659 56.745 50.3671 56.5997 50.2044C56.4544 50.0418 56.2546 49.9695 56.0184 49.9695C55.7823 49.9695 55.6007 50.0418 55.4372 50.2044C55.2737 50.3671 55.2192 50.5659 55.2192 50.8008V51.7225C55.2192 51.9575 55.2919 52.1563 55.4372 52.3189C55.5825 52.4816 55.7823 52.5539 56.0184 52.5539C56.2546 52.5539 56.4362 52.4816 56.5997 52.3189Z" fill="#00A9AC"/>
<path d="M61.087 49.3912C61.3049 49.5358 61.4866 49.7527 61.6137 50.0057C61.7409 50.2587 61.8135 50.5298 61.8135 50.8189V51.7406C61.8135 52.0479 61.7409 52.3189 61.5956 52.572C61.4502 52.825 61.2504 53.0238 60.9961 53.1683C60.7418 53.3129 60.4694 53.3852 60.1787 53.3852C59.8881 53.3852 59.5975 53.3129 59.3613 53.1683C59.107 53.0238 58.9072 52.825 58.7619 52.572C58.6166 52.3189 58.5439 52.0479 58.5439 51.7406V48.0539C58.5439 47.9273 58.5803 47.837 58.6711 47.7466C58.7619 47.6563 58.8527 47.6201 58.9799 47.6201C59.107 47.6201 59.216 47.6563 59.2887 47.7466C59.3795 47.837 59.4158 47.9454 59.4158 48.0539V49.6623H59.4885C59.5793 49.5177 59.7065 49.4093 59.8699 49.3189C60.0334 49.2286 60.2151 49.1924 60.3967 49.1924C60.6328 49.1924 60.869 49.2647 61.087 49.4274V49.3912ZM60.9416 50.8009C60.9416 50.5659 60.869 50.3671 60.7237 50.2045C60.5784 50.0418 60.3967 49.9695 60.1787 49.9695C59.9608 49.9695 59.7791 50.0418 59.6338 50.2045C59.4885 50.3671 59.4158 50.5659 59.4158 50.8009V51.7226C59.4158 51.9575 59.4885 52.1563 59.6338 52.3189C59.7791 52.4816 59.9608 52.5539 60.1787 52.5539C60.3967 52.5539 60.5784 52.4816 60.7237 52.3189C60.869 52.1563 60.9416 51.9575 60.9416 51.7226V50.8009Z" fill="#00A9AC"/>
<path d="M64.8834 49.3735C65.1195 49.5181 65.3193 49.6988 65.4465 49.9519C65.5736 50.1868 65.6463 50.4579 65.6463 50.729V52.8615C65.6463 52.988 65.6099 53.0965 65.5191 53.1687C65.4465 53.2591 65.3375 53.2953 65.2103 53.2953C65.1013 53.2953 64.9923 53.2591 64.9197 53.1868C64.847 53.1145 64.7925 53.0061 64.7744 52.8977H64.7017C64.5927 53.0422 64.4474 53.1507 64.2658 53.241C64.0841 53.3314 63.8843 53.3675 63.6845 53.3675C63.4484 53.3675 63.2304 53.3133 63.0488 53.2049C62.8671 53.0965 62.7218 52.9519 62.6128 52.7712C62.5038 52.5904 62.4493 52.3916 62.4493 52.1748C62.4493 51.9218 62.5038 51.7049 62.631 51.5061C62.7581 51.3073 62.9216 51.1446 63.1396 51.0362C63.3576 50.9278 63.63 50.8555 63.9388 50.8555H64.7744V50.729C64.7744 50.5121 64.7017 50.3133 64.5746 50.1868C64.4474 50.0422 64.2658 49.9699 64.0478 49.9699C63.9388 49.9699 63.8298 49.988 63.7572 50.0241C63.6845 50.0603 63.5755 50.1326 63.4847 50.2591C63.412 50.3495 63.3394 50.4037 63.2667 50.4398C63.1941 50.476 63.1214 50.494 63.0488 50.494C62.9398 50.494 62.849 50.4579 62.7945 50.3856C62.7218 50.3133 62.6855 50.241 62.6855 50.1326C62.6855 50.0241 62.7218 49.9157 62.7945 49.7892C62.8671 49.6808 62.9761 49.5723 63.1033 49.482C63.2304 49.3735 63.3757 49.3013 63.5392 49.247C63.7027 49.1928 63.8662 49.1747 64.0478 49.1747C64.3566 49.1747 64.6291 49.247 64.8652 49.3916L64.8834 49.3735ZM64.3748 52.4639C64.5382 52.3736 64.6835 52.2651 64.7925 52.1205V51.5603H63.957C63.7572 51.5603 63.6119 51.6145 63.5029 51.723C63.3939 51.8314 63.3394 51.9579 63.3394 52.1205C63.3394 52.2651 63.3939 52.3736 63.4847 52.4639C63.5755 52.5543 63.7208 52.5904 63.8843 52.5904C64.0478 52.5904 64.2113 52.5543 64.3748 52.4459V52.4639Z" fill="#00A9AC"/>
<path d="M66.6818 53.1503C66.6818 53.1503 66.5547 52.9515 66.5547 52.8431V48.0177C66.5547 47.8912 66.591 47.8009 66.6818 47.7105C66.7727 47.6201 66.8635 47.584 66.9906 47.584C67.1178 47.584 67.2268 47.6201 67.2994 47.7105C67.3902 47.8009 67.4266 47.9093 67.4266 48.0177V52.8431C67.4266 52.9696 67.3902 53.078 67.2994 53.1503C67.2086 53.2407 67.1178 53.2768 66.9906 53.2768C66.8635 53.2768 66.7545 53.2407 66.6818 53.1503Z" fill="#00A9AC"/>
<path d="M73.4565 47.6201C73.6018 47.6201 73.7108 47.6743 73.8016 47.7647C73.8924 47.8551 73.9288 47.9816 73.9288 48.1081C73.9288 48.2346 73.8924 48.343 73.8016 48.4514C73.7108 48.5418 73.6018 48.596 73.4565 48.596H71.2404V50.2045H72.7662C72.9116 50.2045 73.0205 50.2587 73.1114 50.3491C73.2022 50.4394 73.2385 50.5659 73.2385 50.6924C73.2385 50.8189 73.2022 50.9274 73.1114 51.0358C73.0205 51.1442 72.9116 51.1804 72.7662 51.1804H71.2404V52.8611C71.2404 53.0057 71.1859 53.1141 71.0951 53.2045C71.0043 53.2949 70.8953 53.3491 70.7682 53.3491C70.641 53.3491 70.532 53.3129 70.4412 53.2045C70.3504 53.1141 70.2959 53.0057 70.2959 52.8611V48.1261C70.2959 47.9816 70.3504 47.8731 70.4412 47.7828C70.532 47.6924 70.641 47.6382 70.7682 47.6382H73.4565V47.6201Z" fill="#00A9AC"/>
<path d="M74.5829 48.3792C74.4921 48.2889 74.4376 48.1804 74.4376 48.0359C74.4376 47.8913 74.4921 47.7829 74.5829 47.6925C74.6738 47.6021 74.7827 47.5479 74.9099 47.5479C75.037 47.5479 75.146 47.6021 75.2369 47.6925C75.3277 47.7829 75.3822 47.8913 75.3822 48.0359C75.3822 48.1804 75.3277 48.2889 75.2369 48.3792C75.146 48.4696 75.037 48.5238 74.9099 48.5238C74.7827 48.5238 74.6738 48.4877 74.5829 48.3792ZM74.6011 53.1504C74.6011 53.1504 74.474 52.9516 74.474 52.8431V49.6805C74.474 49.554 74.5103 49.4455 74.6011 49.3732C74.6919 49.2829 74.7827 49.2467 74.9099 49.2467C75.037 49.2467 75.146 49.2829 75.2187 49.3732C75.3095 49.4636 75.3458 49.572 75.3458 49.6805V52.8431C75.3458 52.9696 75.3095 53.0781 75.2187 53.1504C75.1279 53.2407 75.037 53.2769 74.9099 53.2769C74.7827 53.2769 74.6738 53.2407 74.6011 53.1504Z" fill="#00A9AC"/>
<path d="M78.8159 49.3555C79.0157 49.5001 79.1973 49.6808 79.3063 49.9158C79.4334 50.1507 79.4879 50.4218 79.4879 50.711V52.8435C79.4879 52.97 79.4516 53.0784 79.3608 53.1507C79.27 53.2411 79.1791 53.2772 79.052 53.2772C78.9248 53.2772 78.8159 53.2411 78.7432 53.1507C78.6524 53.0604 78.616 52.9519 78.616 52.8435V50.711C78.616 50.4941 78.5434 50.2953 78.4162 50.1688C78.2891 50.0242 78.1075 49.9519 77.8895 49.9519C77.6715 49.9519 77.4899 50.0242 77.3627 50.1688C77.2356 50.3134 77.1629 50.4941 77.1629 50.711V52.8435C77.1629 52.97 77.1266 53.0784 77.0358 53.1507C76.9449 53.2411 76.8541 53.2772 76.727 53.2772C76.5998 53.2772 76.4908 53.2411 76.4182 53.1507C76.3273 53.0604 76.291 52.9519 76.291 52.8435V49.6808C76.291 49.5543 76.3273 49.4459 76.4182 49.3736C76.509 49.2832 76.5998 49.2471 76.727 49.2471C76.8541 49.2471 76.9631 49.2832 77.0358 49.3736C77.1084 49.4459 77.1447 49.5543 77.1629 49.6628H77.2356C77.3082 49.5182 77.4354 49.4097 77.5988 49.3194C77.7623 49.229 77.944 49.1748 78.1438 49.1748C78.3799 49.1748 78.5979 49.2471 78.8159 49.3917V49.3555Z" fill="#00A9AC"/>
<path d="M82.6304 49.3735C82.8666 49.5181 83.0664 49.6988 83.1935 49.9519C83.3207 50.1868 83.3933 50.4579 83.3933 50.729V52.8615C83.3933 52.988 83.357 53.0965 83.2662 53.1687C83.1935 53.2591 83.0845 53.2953 82.9574 53.2953C82.8484 53.2953 82.7394 53.2591 82.6668 53.1868C82.5941 53.1145 82.5396 53.0061 82.5214 52.8977H82.4488C82.3398 53.0422 82.1945 53.1507 82.0128 53.241C81.8312 53.3314 81.6314 53.3675 81.4316 53.3675C81.1955 53.3675 80.9775 53.3133 80.7958 53.2049C80.6142 53.0965 80.4689 52.9519 80.3599 52.7712C80.2509 52.5904 80.1964 52.3916 80.1964 52.1748C80.1964 51.9218 80.2509 51.7049 80.3781 51.5061C80.5052 51.3073 80.6687 51.1446 80.8867 51.0362C81.1046 50.9278 81.3771 50.8555 81.6859 50.8555H82.5214V50.729C82.5214 50.5121 82.4488 50.3133 82.3216 50.1868C82.1945 50.0422 82.0128 49.9699 81.7949 49.9699C81.6859 49.9699 81.5769 49.988 81.5042 50.0241C81.4316 50.0603 81.3226 50.1326 81.2318 50.2591C81.1591 50.3495 81.0865 50.4037 81.0138 50.4398C80.9411 50.476 80.8685 50.494 80.7958 50.494C80.6868 50.494 80.596 50.4579 80.5415 50.3856C80.4689 50.3133 80.4325 50.241 80.4325 50.1326C80.4325 50.0241 80.4689 49.9157 80.5415 49.7892C80.6142 49.6808 80.7232 49.5723 80.8503 49.482C80.9775 49.3735 81.1228 49.3013 81.2863 49.247C81.4497 49.1928 81.6132 49.1747 81.7949 49.1747C82.1037 49.1747 82.3761 49.247 82.6123 49.3916L82.6304 49.3735ZM82.1218 52.4639C82.2853 52.3736 82.4306 52.2651 82.5396 52.1205V51.5603H81.704C81.5042 51.5603 81.3589 51.6145 81.2499 51.723C81.141 51.8314 81.0865 51.9579 81.0865 52.1205C81.0865 52.2651 81.141 52.3736 81.2318 52.4639C81.3226 52.5543 81.4679 52.5904 81.6314 52.5904C81.7949 52.5904 81.9583 52.5543 82.1218 52.4459V52.4639Z" fill="#00A9AC"/>
<path d="M86.8256 49.3555C87.0254 49.5001 87.2071 49.6808 87.3161 49.9158C87.4432 50.1507 87.4977 50.4218 87.4977 50.711V52.8435C87.4977 52.97 87.4614 53.0784 87.3706 53.1507C87.2797 53.2411 87.1889 53.2772 87.0618 53.2772C86.9346 53.2772 86.8256 53.2411 86.753 53.1507C86.6621 53.0604 86.6258 52.9519 86.6258 52.8435V50.711C86.6258 50.4941 86.5532 50.2953 86.426 50.1688C86.2989 50.0242 86.1172 49.9519 85.8992 49.9519C85.6813 49.9519 85.4996 50.0242 85.3725 50.1688C85.2453 50.3134 85.1727 50.4941 85.1727 50.711V52.8435C85.1727 52.97 85.1363 53.0784 85.0455 53.1507C84.9547 53.2411 84.8639 53.2772 84.7367 53.2772C84.6096 53.2772 84.5006 53.2411 84.4279 53.1507C84.3371 53.0604 84.3008 52.9519 84.3008 52.8435V49.6808C84.3008 49.5543 84.3371 49.4459 84.4279 49.3736C84.5188 49.2832 84.6096 49.2471 84.7367 49.2471C84.8639 49.2471 84.9729 49.2832 85.0455 49.3736C85.1182 49.4459 85.1545 49.5543 85.1727 49.6628H85.2453C85.318 49.5182 85.4451 49.4097 85.6086 49.3194C85.7721 49.229 85.9537 49.1748 86.1535 49.1748C86.3897 49.1748 86.6077 49.2471 86.8256 49.3917V49.3555Z" fill="#00A9AC"/>
<path d="M89.1131 53.1501C88.8588 53.0055 88.6589 52.8067 88.5136 52.5537C88.3683 52.3007 88.2957 52.0296 88.2957 51.7405V50.8188C88.2957 50.5296 88.3683 50.2585 88.5136 50.0055C88.6589 49.7525 88.8588 49.5537 89.1131 49.4091C89.3674 49.2646 89.658 49.1923 89.9668 49.1923C90.2029 49.1923 90.4209 49.2465 90.6389 49.3368C90.8568 49.4272 91.0385 49.5537 91.1656 49.7164C91.3291 49.9152 91.4199 50.114 91.4199 50.3128C91.4199 50.4212 91.3836 50.5115 91.3109 50.5658C91.2383 50.6381 91.1475 50.6742 91.0566 50.6742C90.984 50.6742 90.8931 50.6561 90.8387 50.6019C90.766 50.5658 90.6933 50.4754 90.6025 50.367C90.4935 50.2224 90.4027 50.132 90.3119 50.0778C90.2211 50.0236 90.0939 49.9874 89.9668 49.9874C89.7306 49.9874 89.549 50.0597 89.3855 50.2224C89.2402 50.385 89.1675 50.5838 89.1675 50.8188V51.7405C89.1675 51.9754 89.2402 52.1742 89.3855 52.3369C89.5308 52.4995 89.7306 52.5718 89.9668 52.5718C90.1121 52.5718 90.2392 52.5357 90.3664 52.4634C90.4754 52.3911 90.5844 52.2826 90.7115 52.12C90.8023 51.9935 90.875 51.9212 90.9295 51.867C90.984 51.8128 91.0566 51.7947 91.1293 51.7947C91.2383 51.7947 91.3291 51.8308 91.3836 51.8851C91.4562 51.9573 91.4926 52.0477 91.4926 52.1381C91.4926 52.373 91.3654 52.6079 91.1111 52.861C90.9658 53.0055 90.7842 53.114 90.5844 53.2043C90.3664 53.2947 90.1666 53.3308 89.9668 53.3308C89.6398 53.3308 89.3674 53.2586 89.1131 53.114V53.1501Z" fill="#00A9AC"/>
<path d="M94.5805 49.3731C94.8348 49.5177 95.0346 49.7165 95.1799 49.9695C95.3252 50.2225 95.3979 50.4936 95.3979 50.7828V51.1442C95.3979 51.2707 95.3616 51.3792 95.2708 51.4514C95.1981 51.5418 95.0891 51.578 94.962 51.578H92.9276V51.7045C92.9276 51.9394 93.0002 52.1382 93.1455 52.3009C93.2908 52.4635 93.4906 52.5358 93.7268 52.5358C93.8721 52.5358 94.0174 52.5177 94.1446 52.4635C94.2717 52.4274 94.3807 52.3551 94.5078 52.2647C94.5805 52.1924 94.6532 52.1563 94.7258 52.1201C94.7803 52.1021 94.853 52.084 94.9256 52.084C95.0164 52.084 95.1073 52.1201 95.1618 52.1924C95.2163 52.2647 95.2526 52.3551 95.2526 52.4454C95.2526 52.5358 95.2344 52.6262 95.1799 52.7165C95.1254 52.8069 95.0528 52.8972 94.9438 52.9876C94.6532 53.2225 94.2535 53.331 93.7268 53.331C93.3998 53.331 93.1274 53.2587 92.8731 53.1141C92.6188 52.9695 92.4189 52.7707 92.2736 52.5177C92.1283 52.2647 92.0557 51.9936 92.0557 51.7045V50.7828C92.0557 50.4936 92.1283 50.2225 92.2736 49.9695C92.4189 49.7165 92.6188 49.5177 92.8731 49.3731C93.1274 49.2285 93.418 49.1562 93.7268 49.1562C94.0356 49.1562 94.3262 49.2285 94.5805 49.3731ZM93.1455 50.1864C93.0002 50.349 92.9276 50.5478 92.9276 50.7828V50.837H94.526V50.7828C94.526 50.5478 94.4534 50.349 94.308 50.1864C94.1627 50.0237 93.9629 49.9514 93.7268 49.9514C93.4906 49.9514 93.309 50.0237 93.1637 50.1864H93.1455Z" fill="#00A9AC"/>
<path d="M102.211 52.4094C102.284 52.6082 102.32 52.7527 102.32 52.8431C102.32 52.9877 102.265 53.0961 102.175 53.1865C102.084 53.2768 101.975 53.331 101.848 53.331C101.63 53.331 101.466 53.1865 101.375 52.8973L101.048 51.9395H98.9414L98.6145 52.8973C98.5236 53.1865 98.3602 53.331 98.1422 53.331C98.015 53.331 97.9061 53.2949 97.8152 53.1865C97.7244 53.0961 97.6699 52.9877 97.6699 52.8431C97.6699 52.7527 97.7063 52.6082 97.7789 52.4094L99.1957 48.325C99.3047 48.0178 99.4137 47.8009 99.5408 47.6744C99.668 47.5479 99.8133 47.4756 99.995 47.4756C100.177 47.4756 100.322 47.5479 100.449 47.6744C100.576 47.8009 100.685 48.0178 100.794 48.325L102.211 52.4094ZM100.031 48.7949H99.9586L99.2321 50.9636H100.758L100.031 48.7949Z" fill="#00A9AC"/>
<path d="M103.282 52.8797L102.446 49.9339C102.428 49.8436 102.41 49.7532 102.41 49.699C102.41 49.5544 102.446 49.446 102.519 49.3737C102.592 49.2833 102.701 49.2472 102.846 49.2472C103.064 49.2472 103.228 49.3737 103.282 49.6086L103.863 51.9761H103.936L104.481 49.7351C104.517 49.5906 104.572 49.4641 104.681 49.3737C104.772 49.2833 104.899 49.2472 105.062 49.2472C105.226 49.2472 105.353 49.2833 105.444 49.3737C105.534 49.4641 105.607 49.5725 105.643 49.7351L106.188 51.9761H106.261L106.842 49.6086C106.897 49.3737 107.042 49.2472 107.278 49.2472C107.424 49.2472 107.514 49.2833 107.605 49.3737C107.678 49.4641 107.714 49.5725 107.714 49.7171C107.714 49.7894 107.714 49.8617 107.678 49.952L106.842 52.8978C106.751 53.2231 106.552 53.3858 106.261 53.3858C106.116 53.3858 105.97 53.3496 105.88 53.2593C105.789 53.1689 105.716 53.0605 105.68 52.8978L105.098 50.458H105.026L104.445 52.8978C104.408 53.0424 104.354 53.1689 104.245 53.2593C104.154 53.3496 104.027 53.3858 103.863 53.3858C103.573 53.3858 103.373 53.2231 103.282 52.8978V52.8797Z" fill="#00A9AC"/>
<path d="M110.439 49.3737C110.675 49.5182 110.875 49.699 111.002 49.952C111.129 50.1869 111.202 50.458 111.202 50.7291V52.8616C111.202 52.9881 111.165 53.0966 111.075 53.1689C110.984 53.2592 110.893 53.2954 110.766 53.2954C110.657 53.2954 110.548 53.2592 110.475 53.1869C110.403 53.1147 110.348 53.0062 110.33 52.8978H110.257C110.148 53.0424 110.003 53.1508 109.821 53.2412C109.64 53.3315 109.44 53.3677 109.24 53.3677C109.004 53.3677 108.786 53.3135 108.604 53.205C108.423 53.0966 108.277 52.952 108.168 52.7713C108.059 52.5906 108.005 52.3918 108.005 52.1749C108.005 51.9219 108.059 51.705 108.187 51.5062C108.314 51.3074 108.477 51.1448 108.695 51.0363C108.913 50.9098 109.186 50.8556 109.494 50.8556H110.33V50.7291C110.33 50.5122 110.257 50.3134 110.13 50.1869C110.003 50.0423 109.821 49.9701 109.603 49.9701C109.494 49.9701 109.385 49.9881 109.313 50.0243C109.24 50.0604 109.131 50.1327 109.04 50.2592C108.949 50.3496 108.877 50.4038 108.822 50.4399C108.75 50.4761 108.677 50.4942 108.604 50.4942C108.495 50.4942 108.405 50.458 108.35 50.3857C108.277 50.3134 108.241 50.2411 108.241 50.1327C108.241 50.0243 108.277 49.9158 108.35 49.7893C108.423 49.6809 108.532 49.5725 108.659 49.4821C108.786 49.3737 108.931 49.3014 109.095 49.2472C109.258 49.1929 109.422 49.1749 109.603 49.1749C109.912 49.1749 110.185 49.2472 110.421 49.3917L110.439 49.3737ZM109.93 52.464C110.094 52.3737 110.239 52.2653 110.348 52.1207V51.5604H109.513C109.313 51.5604 109.167 51.6146 109.058 51.7231C108.949 51.8315 108.895 51.958 108.895 52.1207C108.895 52.2653 108.949 52.3737 109.04 52.464C109.131 52.5544 109.258 52.5906 109.44 52.5906C109.603 52.5906 109.767 52.5544 109.93 52.446V52.464Z" fill="#00A9AC"/>
<path d="M114.125 49.1924C114.234 49.1924 114.325 49.2285 114.379 49.3008C114.452 49.3731 114.488 49.4635 114.488 49.59C114.488 49.7165 114.452 49.8068 114.397 49.8791C114.325 49.9514 114.252 49.9876 114.125 49.9876H113.689C113.489 49.9876 113.326 50.0599 113.199 50.2044C113.071 50.349 112.999 50.5117 112.999 50.7105V52.843C112.999 52.9695 112.963 53.078 112.872 53.1502C112.799 53.2406 112.69 53.2767 112.563 53.2767C112.436 53.2767 112.327 53.2406 112.254 53.1502C112.163 53.0599 112.127 52.9514 112.127 52.843V49.6803C112.127 49.5538 112.163 49.4454 112.254 49.3731C112.327 49.2827 112.436 49.2466 112.563 49.2466C112.672 49.2466 112.781 49.2827 112.854 49.355C112.926 49.4273 112.981 49.5177 112.999 49.6081H113.071C113.126 49.4996 113.235 49.4093 113.362 49.337C113.489 49.2466 113.616 49.2105 113.762 49.2105H114.125V49.1924Z" fill="#00A9AC"/>
<path d="M117.941 47.7105C117.941 47.7105 118.068 47.9093 118.068 48.0177V52.8431C118.068 52.9696 118.032 53.078 117.941 53.1503C117.85 53.2407 117.76 53.2768 117.632 53.2768C117.523 53.2768 117.433 53.2407 117.36 53.1684C117.287 53.0961 117.233 52.9877 117.197 52.8792H117.124C117.051 53.0238 116.924 53.1322 116.742 53.2226C116.579 53.313 116.397 53.3491 116.216 53.3491C115.98 53.3491 115.743 53.2768 115.525 53.1142C115.307 52.9696 115.126 52.7527 114.999 52.4997C114.871 52.2467 114.799 51.9756 114.799 51.6864V50.7647C114.799 50.4756 114.871 50.2045 114.999 49.9515C115.126 49.6985 115.307 49.4997 115.525 49.3551C115.743 49.2105 115.98 49.1202 116.216 49.1202C116.415 49.1202 116.579 49.1563 116.742 49.2467C116.906 49.337 117.033 49.4455 117.124 49.59H117.197V47.9816C117.197 47.8551 117.233 47.7647 117.324 47.6744C117.396 47.584 117.505 47.5479 117.632 47.5479C117.76 47.5479 117.869 47.584 117.941 47.6744V47.7105ZM116.96 52.319C117.106 52.1563 117.178 51.9575 117.178 51.7226V50.8009C117.178 50.5659 117.106 50.3672 116.96 50.2045C116.815 50.0418 116.633 49.9696 116.415 49.9696C116.197 49.9696 116.016 50.0418 115.871 50.2045C115.725 50.3672 115.653 50.5659 115.653 50.8009V51.7226C115.653 51.9575 115.725 52.1563 115.871 52.319C116.016 52.4816 116.197 52.5539 116.415 52.5539C116.633 52.5539 116.815 52.4816 116.96 52.319Z" fill="#00A9AC"/>
<path d="M119.557 53.2401C119.357 53.1498 119.175 53.0413 119.03 52.8968C118.921 52.7883 118.848 52.698 118.794 52.5895C118.739 52.4811 118.703 52.3907 118.703 52.3004C118.703 52.1919 118.739 52.1016 118.812 52.0474C118.885 51.9751 118.976 51.9389 119.066 51.9389C119.157 51.9389 119.23 51.957 119.303 51.9931C119.375 52.0293 119.448 52.1016 119.521 52.21C119.611 52.3365 119.72 52.4269 119.829 52.4811C119.938 52.5353 120.065 52.5715 120.229 52.5715C120.447 52.5715 120.629 52.5172 120.738 52.4269C120.847 52.3365 120.919 52.21 120.919 52.0835C120.919 51.957 120.847 51.8486 120.719 51.7763C120.592 51.704 120.392 51.6317 120.12 51.5594C119.847 51.4871 119.611 51.3967 119.43 51.3245C119.248 51.2522 119.103 51.1257 118.976 50.9811C118.848 50.8184 118.776 50.6196 118.776 50.3485C118.776 50.1498 118.83 49.951 118.957 49.7702C119.085 49.5895 119.248 49.4449 119.466 49.3184C119.684 49.1919 119.938 49.1377 120.229 49.1377C120.465 49.1377 120.683 49.1738 120.883 49.2461C121.083 49.3184 121.246 49.4269 121.373 49.5534C121.464 49.6437 121.537 49.7341 121.591 49.8425C121.646 49.9329 121.664 50.0232 121.664 50.1136C121.664 50.222 121.628 50.3124 121.555 50.3666C121.482 50.4389 121.391 50.4751 121.301 50.4751C121.228 50.4751 121.155 50.4751 121.101 50.4208C121.046 50.3666 120.974 50.3305 120.901 50.2582C120.792 50.1497 120.683 50.0775 120.574 50.0232C120.465 49.969 120.356 49.951 120.211 49.951C120.029 49.951 119.884 49.9871 119.775 50.0594C119.666 50.1317 119.63 50.222 119.63 50.3485C119.63 50.4751 119.702 50.5835 119.829 50.6558C119.956 50.7281 120.156 50.8004 120.429 50.8726C120.719 50.9449 120.937 51.0353 121.119 51.1076C121.301 51.1799 121.446 51.3064 121.573 51.451C121.7 51.6136 121.773 51.8124 121.773 52.0835C121.773 52.3004 121.7 52.5172 121.591 52.698C121.482 52.8787 121.282 53.0594 121.046 53.1678C120.81 53.2944 120.538 53.3486 120.211 53.3486C119.975 53.3486 119.738 53.3124 119.539 53.2221L119.557 53.2401Z" fill="#00A9AC"/>
<path d="M72.0039 21.0363C72.4217 21.0725 72.8031 21.199 73.1301 21.4158C73.457 21.6327 73.7113 21.9038 73.893 22.2472C74.0746 22.5906 74.1654 22.9701 74.1654 23.3857C74.1654 23.8737 74.0565 24.3074 73.8203 24.705C73.5842 25.1026 73.2572 25.4279 72.8031 25.6629C72.349 25.8978 71.8222 26.0243 71.1865 26.0243C70.6961 26.0243 70.2419 25.9339 69.806 25.7532C69.3701 25.5725 69.0249 25.3195 68.7706 24.9942C68.5345 24.687 68.4073 24.3978 68.4073 24.1086C68.4073 23.8556 68.48 23.6568 68.6253 23.4942C68.7706 23.3315 68.9704 23.2592 69.2066 23.2592C69.3337 23.2592 69.4609 23.2954 69.5699 23.3496C69.6789 23.4038 69.7878 23.5303 69.9332 23.693C70.1511 23.946 70.3509 24.1086 70.5326 24.2171C70.7324 24.3074 70.9685 24.3616 71.241 24.3616C71.6043 24.3616 71.9131 24.2713 72.131 24.0725C72.349 23.8737 72.458 23.6387 72.458 23.3857C72.458 23.1327 72.349 22.8978 72.131 22.699C71.9131 22.5002 71.6224 22.4098 71.241 22.4098H70.4781C70.2601 22.4098 70.0785 22.3375 69.9513 22.193C69.8242 22.0484 69.7333 21.8857 69.7333 21.6689C69.7333 21.5062 69.7697 21.3616 69.8423 21.199C69.915 21.0363 70.024 20.9098 70.1511 20.7833L71.4953 19.446V19.3375H69.4427C69.1884 19.3375 68.9886 19.2652 68.8433 19.1026C68.698 18.9399 68.6072 18.7411 68.6072 18.5243C68.6072 18.3074 68.6798 18.1086 68.8433 17.9459C69.0068 17.7833 69.2066 17.711 69.4427 17.711H73.0574C73.2936 17.711 73.4934 17.7833 73.6568 17.9459C73.8203 18.1086 73.893 18.3074 73.893 18.5243C73.893 18.8857 73.7477 19.1929 73.4752 19.446L71.9676 20.946V21.0544L72.0039 21.0363Z" fill="#00A9AC"/>
<path d="M83.6649 17.8009C83.8102 17.9636 83.8828 18.1804 83.8828 18.4154C83.8828 18.6142 83.8283 18.7949 83.7194 18.9756L81.4307 22.7347V25.0118C81.4307 25.2648 81.358 25.4636 81.1945 25.6263C81.031 25.7889 80.8312 25.8793 80.5951 25.8793C80.359 25.8793 80.1592 25.7889 79.9957 25.6263C79.8322 25.4636 79.7414 25.2468 79.7414 25.0118V22.7347L77.4708 19.0299C77.3437 18.8311 77.2892 18.6323 77.2892 18.4335C77.2892 18.1804 77.3618 17.9817 77.5253 17.8009C77.6706 17.6383 77.8886 17.5479 78.1247 17.5479C78.4335 17.5479 78.6878 17.7106 78.8695 18.0178L80.5224 20.8732H80.6314L82.3025 18.0178C82.4842 17.6925 82.7385 17.5479 83.0473 17.5479C83.3016 17.5479 83.5014 17.6383 83.6467 17.8009H83.6649Z" fill="#00A9AC"/>
<path d="M88.1523 20.0959C88.5338 20.3127 88.8244 20.62 89.0424 20.9995C89.2604 21.379 89.3512 21.7947 89.3512 22.2465V22.6441C89.3512 22.861 89.2785 23.0417 89.1332 23.2043C88.9879 23.367 88.8062 23.4393 88.5883 23.4393H85.9181V23.5296C85.9181 23.8549 86.0089 24.126 86.1906 24.3248C86.3722 24.5236 86.6084 24.632 86.9353 24.632C87.1351 24.632 87.3168 24.614 87.4802 24.5598C87.6437 24.5055 87.8072 24.4333 87.9707 24.3067C88.0978 24.2164 88.2068 24.1622 88.2795 24.126C88.3703 24.0899 88.4611 24.0718 88.5519 24.0718C88.7336 24.0718 88.8607 24.126 88.9697 24.2525C89.0787 24.379 89.1332 24.5236 89.1332 24.6863C89.1332 24.8128 89.0969 24.9393 89.0242 25.0839C88.9516 25.2284 88.8426 25.3549 88.6973 25.4634C88.4975 25.608 88.2431 25.7345 87.9525 25.8248C87.6437 25.9152 87.2986 25.9694 86.899 25.9694C86.4085 25.9694 85.9726 25.861 85.5912 25.626C85.2097 25.4092 84.9191 25.1019 84.7011 24.7224C84.4831 24.3429 84.3741 23.9272 84.3741 23.4754V22.2465C84.3741 21.7947 84.4831 21.379 84.7011 20.9995C84.9191 20.62 85.2097 20.3127 85.5912 20.0959C85.9726 19.879 86.3904 19.7706 86.8808 19.7706C87.3713 19.7706 87.789 19.879 88.1705 20.0959H88.1523ZM86.1906 21.4332C86.0089 21.632 85.9181 21.885 85.9181 22.2103L87.8254 22.2284C87.8254 21.885 87.7345 21.632 87.5711 21.4332C87.3894 21.2344 87.1715 21.126 86.8808 21.126C86.6084 21.126 86.3904 21.2344 86.1906 21.4332Z" fill="#00A9AC"/>
<path d="M93.7279 20.0773C94.0912 20.2942 94.3818 20.5653 94.5816 20.9267C94.7814 21.2882 94.8904 21.6858 94.8904 22.1195V25.0472C94.8904 25.2641 94.8178 25.4448 94.6725 25.6075C94.5271 25.7701 94.3455 25.8424 94.1275 25.8424C93.9459 25.8424 93.7824 25.7882 93.6553 25.6617C93.5281 25.5352 93.4373 25.4087 93.4009 25.246H93.292C93.1467 25.4629 92.9287 25.6436 92.6744 25.7701C92.4201 25.8966 92.1476 25.9689 91.8388 25.9689C91.4937 25.9689 91.1849 25.8966 90.9306 25.734C90.6581 25.5713 90.4583 25.3545 90.2948 25.0834C90.1495 24.8123 90.0587 24.5231 90.0587 24.1978C90.0587 23.6195 90.2585 23.1496 90.6581 22.7882C91.0578 22.4267 91.6208 22.246 92.3474 22.246H93.3646V22.1556C93.3646 21.8484 93.292 21.6135 93.1285 21.4147C92.965 21.2159 92.747 21.1255 92.4564 21.1255C92.3111 21.1255 92.1839 21.1617 92.075 21.1978C91.966 21.252 91.8388 21.3604 91.7117 21.505C91.5845 21.6315 91.4937 21.7219 91.3847 21.758C91.2939 21.8123 91.1667 21.8303 91.0396 21.8303C90.8579 21.8303 90.6945 21.7761 90.5855 21.6496C90.4765 21.5231 90.4038 21.3604 90.4038 21.1797C90.4038 21.0171 90.4583 20.8363 90.5673 20.6737C90.6763 20.511 90.8216 20.3484 91.0214 20.2219C91.4029 19.9327 91.8933 19.7881 92.4564 19.7881C92.9287 19.7881 93.3646 19.8966 93.7279 20.0954V20.0773ZM93.3646 23.3665H92.3474C92.1113 23.3665 91.9296 23.4388 91.8025 23.5653C91.6572 23.6918 91.6027 23.8544 91.6027 24.0532C91.6027 24.252 91.6572 24.3785 91.7843 24.487C91.9115 24.5954 92.0568 24.6496 92.2748 24.6496C92.4746 24.6496 92.6744 24.5954 92.8742 24.487C93.074 24.3785 93.2375 24.234 93.3828 24.0532V23.3665H93.3646Z" fill="#00A9AC"/>
<path d="M99.0508 19.8243C99.2506 19.8243 99.414 19.8966 99.523 20.0231C99.632 20.1496 99.7047 20.3303 99.7047 20.5291C99.7047 20.7279 99.6502 20.9086 99.523 21.0351C99.3959 21.1616 99.2324 21.2339 99.0508 21.2339H98.4695C98.197 21.2339 97.9609 21.3243 97.7974 21.505C97.6339 21.6857 97.5431 21.9388 97.5431 22.2279V25.0472C97.5431 25.2641 97.4705 25.4448 97.3251 25.6075C97.1798 25.7701 96.9982 25.8424 96.7802 25.8424C96.5622 25.8424 96.3806 25.7701 96.2171 25.6075C96.0536 25.4448 95.9991 25.2641 95.9991 25.0472V20.6737C95.9991 20.4568 96.0718 20.258 96.2171 20.1134C96.3624 19.9689 96.5441 19.8966 96.7802 19.8966C96.9619 19.8966 97.1253 19.9508 97.2525 20.0592C97.3796 20.1677 97.4705 20.3122 97.5068 20.4749H97.6158C97.7248 20.3122 97.8701 20.1496 98.0699 20.0231C98.2697 19.8966 98.4695 19.8243 98.6693 19.8243H99.0689H99.0508Z" fill="#00A9AC"/>
<path d="M101.103 25.7896C100.794 25.6812 100.539 25.5185 100.321 25.3378C100.158 25.2113 100.031 25.0667 99.9582 24.9041C99.8674 24.7414 99.8311 24.5968 99.8311 24.4703C99.8311 24.2715 99.8856 24.1269 100.013 24.0004C100.14 23.8739 100.285 23.8197 100.467 23.8197C100.594 23.8197 100.703 23.8558 100.812 23.9101C100.921 23.9643 101.03 24.0546 101.157 24.1992C101.302 24.3619 101.448 24.4703 101.611 24.5426C101.756 24.6149 101.938 24.651 102.138 24.651C102.392 24.651 102.592 24.5968 102.737 24.4884C102.883 24.38 102.955 24.2354 102.955 24.0908C102.955 23.9281 102.865 23.8016 102.701 23.7113C102.538 23.6209 102.265 23.5305 101.902 23.4221C101.502 23.3137 101.175 23.2052 100.903 23.0787C100.63 22.9522 100.412 22.7896 100.231 22.5546C100.049 22.3197 99.94 22.0125 99.94 21.6149C99.94 21.2896 100.031 20.9823 100.213 20.7113C100.394 20.4221 100.648 20.2052 100.975 20.0245C101.302 19.8618 101.702 19.7715 102.156 19.7715C102.501 19.7715 102.828 19.8257 103.101 19.9161C103.391 20.0245 103.627 20.151 103.827 20.3137C103.973 20.4582 104.1 20.6028 104.19 20.7474C104.281 20.892 104.318 21.0366 104.318 21.145C104.318 21.3257 104.263 21.4884 104.136 21.5968C104.009 21.7052 103.864 21.7775 103.7 21.7775C103.573 21.7775 103.464 21.7595 103.373 21.7052C103.282 21.651 103.155 21.5787 103.028 21.4522C102.883 21.3076 102.737 21.2173 102.61 21.1631C102.483 21.1088 102.338 21.0727 102.156 21.0727C101.938 21.0727 101.775 21.1269 101.666 21.2173C101.539 21.3076 101.484 21.4341 101.484 21.5607C101.484 21.7233 101.575 21.8498 101.738 21.9402C101.902 22.0305 102.174 22.1209 102.538 22.2293C102.937 22.3378 103.264 22.4462 103.537 22.5727C103.809 22.6992 104.027 22.8619 104.209 23.0968C104.39 23.3318 104.499 23.639 104.499 24.0366C104.499 24.38 104.408 24.6872 104.227 24.9944C104.045 25.3016 103.773 25.5185 103.409 25.6992C103.046 25.88 102.628 25.9703 102.156 25.9703C101.793 25.9703 101.448 25.9161 101.139 25.7896H101.103Z" fill="#00A9AC"/>
<path d="M60.5777 34.3191C60.832 34.3191 61.0318 34.3914 61.1772 34.5541C61.3225 34.7167 61.4133 34.9155 61.4133 35.1505C61.4133 35.3854 61.3406 35.5661 61.1772 35.7288C61.0318 35.8914 60.8139 35.9637 60.5777 35.9637H56.5271C56.291 35.9637 56.073 35.8914 55.9277 35.7288C55.7824 35.5661 55.6915 35.3673 55.6915 35.1324C55.6915 34.9336 55.7279 34.7529 55.8187 34.5721C55.9095 34.3914 56.0367 34.2288 56.2001 34.0842L56.4908 33.8312C57.4535 33.036 58.1437 32.4215 58.5797 32.0059C58.8885 31.6986 59.1427 31.3914 59.3426 31.0842C59.5424 30.7769 59.6332 30.5058 59.6332 30.289C59.6332 29.9998 59.5424 29.7468 59.3426 29.5661C59.1427 29.3854 58.8885 29.2769 58.5615 29.2769C58.3072 29.2769 58.0892 29.3311 57.9076 29.4215C57.7259 29.5119 57.5261 29.6926 57.3263 29.9275C57.181 30.1083 57.0539 30.2348 56.9449 30.289C56.8359 30.3613 56.7269 30.3793 56.5997 30.3793C56.3636 30.3793 56.1638 30.307 56.0185 30.1444C55.8732 29.9817 55.8005 29.7829 55.8005 29.5299C55.8005 29.2227 55.9277 28.9155 56.182 28.6082C56.4181 28.3191 56.7632 28.0841 57.181 27.8853C57.5988 27.7046 58.0529 27.6143 58.5433 27.6143C59.1246 27.6143 59.615 27.7227 60.051 27.9576C60.4869 28.1926 60.7957 28.4998 61.0137 28.8974C61.2317 29.295 61.3406 29.7468 61.3406 30.2709C61.3406 30.9757 60.941 31.7528 60.1418 32.6203C59.9057 32.8914 59.5969 33.1444 59.2699 33.4336C58.9248 33.7047 58.5797 33.9757 58.2345 34.1926V34.3011H60.5777V34.3191Z" fill="#00A9AC"/>
<path d="M63.829 35.8195C63.3749 35.5484 63.0298 35.187 62.7755 34.7171C62.5212 34.2472 62.4122 33.7231 62.4122 33.1267V30.7231C62.4122 30.1267 62.5394 29.6026 62.7755 29.1327C63.0298 28.6628 63.3749 28.3014 63.829 28.0303C64.2832 27.7592 64.8099 27.6327 65.3912 27.6327C65.9724 27.6327 66.4992 27.7592 66.9533 28.0303C67.4074 28.3014 67.7525 28.6628 67.9887 29.1327C68.243 29.6026 68.3701 30.1267 68.3701 30.7231V33.1267C68.3701 33.7231 68.243 34.2472 67.9887 34.7171C67.7344 35.187 67.3893 35.5484 66.9533 35.8195C66.4992 36.0906 65.9906 36.2171 65.3912 36.2171C64.7918 36.2171 64.2832 36.0906 63.829 35.8195ZM66.3357 34.211C66.5719 33.94 66.6808 33.5785 66.6808 33.1448V30.7411C66.6808 30.2893 66.5719 29.9279 66.3357 29.6749C66.0996 29.4219 65.7908 29.2773 65.4093 29.2773C65.0279 29.2773 64.7009 29.4038 64.4648 29.6749C64.2287 29.946 64.1197 30.3074 64.1197 30.7411V33.1448C64.1197 33.5966 64.2287 33.958 64.4648 34.211C64.7009 34.4641 65.0097 34.6086 65.4093 34.6086C65.809 34.6086 66.0996 34.4821 66.3357 34.211Z" fill="#00A9AC"/>
<path d="M74.1285 34.319C74.3828 34.319 74.5826 34.3913 74.7279 34.5539C74.8733 34.7166 74.9641 34.9154 74.9641 35.1503C74.9641 35.3853 74.8914 35.566 74.7279 35.7287C74.5826 35.8913 74.3647 35.9636 74.1285 35.9636H70.0779C69.8417 35.9636 69.6238 35.8913 69.4784 35.7287C69.3331 35.566 69.2423 35.3672 69.2423 35.1323C69.2423 34.9335 69.2786 34.7527 69.3695 34.572C69.4603 34.3913 69.5874 34.2286 69.7509 34.0841L70.0415 33.831C71.0043 33.0359 71.6945 32.4214 72.1304 32.0057C72.4392 31.6985 72.6935 31.3913 72.8933 31.084C73.0932 30.7768 73.184 30.5057 73.184 30.2889C73.184 29.9997 73.0932 29.7467 72.8933 29.566C72.6935 29.3852 72.4392 29.2768 72.1123 29.2768C71.858 29.2768 71.64 29.331 71.4584 29.4214C71.2767 29.5117 71.0769 29.6925 70.8771 29.9274C70.7318 30.1081 70.6046 30.2346 70.4957 30.2889C70.3867 30.3611 70.2777 30.3792 70.1505 30.3792C69.9144 30.3792 69.7146 30.3069 69.5693 30.1443C69.424 29.9816 69.3513 29.7828 69.3513 29.5298C69.3513 29.2226 69.4784 28.9153 69.7327 28.6081C69.9689 28.319 70.314 28.084 70.7318 27.8852C71.1496 27.7045 71.6037 27.6141 72.0941 27.6141C72.6754 27.6141 73.1658 27.7226 73.6018 27.9575C74.0377 28.1925 74.3465 28.4997 74.5645 28.8973C74.7824 29.2949 74.8914 29.7467 74.8914 30.2708C74.8914 30.9756 74.4918 31.7527 73.6926 32.6202C73.4564 32.8913 73.1476 33.1443 72.8207 33.4335C72.4756 33.7045 72.1304 33.9756 71.7853 34.1925V34.3009H74.1285V34.319Z" fill="#00A9AC"/>
<path d="M80.5045 34.319C80.7588 34.319 80.9586 34.3913 81.1039 34.5539C81.2492 34.7166 81.34 34.9154 81.34 35.1503C81.34 35.3853 81.2674 35.566 81.1039 35.7287C80.9586 35.8913 80.7406 35.9636 80.5045 35.9636H76.4538C76.2177 35.9636 75.9997 35.8913 75.8544 35.7287C75.7091 35.566 75.6183 35.3672 75.6183 35.1323C75.6183 34.9335 75.6546 34.7527 75.7454 34.572C75.8363 34.3913 75.9634 34.2286 76.1269 34.0841L76.4175 33.831C77.3802 33.0359 78.0705 32.4214 78.5064 32.0057C78.8152 31.6985 79.0695 31.3913 79.2693 31.084C79.4691 30.7768 79.5599 30.5057 79.5599 30.2889C79.5599 29.9997 79.4691 29.7467 79.2693 29.566C79.0695 29.3852 78.8152 29.2768 78.4882 29.2768C78.2339 29.2768 78.016 29.331 77.8343 29.4214C77.6527 29.5117 77.4529 29.6925 77.2531 29.9274C77.1078 30.1081 76.9806 30.2346 76.8716 30.2889C76.7626 30.3611 76.6537 30.3792 76.5265 30.3792C76.2904 30.3792 76.0906 30.3069 75.9452 30.1443C75.7999 29.9816 75.7273 29.7828 75.7273 29.5298C75.7273 29.2226 75.8544 28.9153 76.1087 28.6081C76.3449 28.319 76.69 28.084 77.1078 27.8852C77.5255 27.7045 77.9796 27.6141 78.4701 27.6141C79.0513 27.6141 79.5418 27.7226 79.9777 27.9575C80.4137 28.1925 80.7225 28.4997 80.9404 28.8973C81.1584 29.2949 81.2674 29.7467 81.2674 30.2708C81.2674 30.9756 80.8678 31.7527 80.0685 32.6202C79.8324 32.8913 79.5236 33.1443 79.1967 33.4335C78.8515 33.7045 78.5064 33.9756 78.1613 34.1925V34.3009H80.5045V34.319Z" fill="#00A9AC"/>
<path d="M85.591 33.8842C85.3367 33.8842 85.1369 33.8119 84.9915 33.6673C84.8462 33.5227 84.7736 33.3239 84.7736 33.089C84.7736 32.8541 84.8462 32.6733 84.9915 32.5107C85.1369 32.3661 85.3367 32.2938 85.591 32.2938H88.243C88.4973 32.2938 88.6971 32.3661 88.8424 32.5107C88.9877 32.6553 89.0603 32.8541 89.0603 33.089C89.0603 33.3239 88.9877 33.5047 88.8424 33.6673C88.6971 33.8119 88.4973 33.8842 88.243 33.8842H85.591Z" fill="#00A9AC"/>
<path d="M97.2331 34.3191C97.4874 34.3191 97.6872 34.3914 97.8326 34.5541C97.9779 34.7167 98.0687 34.9155 98.0687 35.1505C98.0687 35.3854 97.996 35.5661 97.8326 35.7288C97.6691 35.8914 97.4693 35.9637 97.2331 35.9637H93.1825C92.9463 35.9637 92.7284 35.8914 92.5831 35.7288C92.4377 35.5661 92.3469 35.3673 92.3469 35.1324C92.3469 34.9336 92.3833 34.7529 92.4741 34.5721C92.5649 34.3914 92.692 34.2288 92.8555 34.0842L93.1462 33.8312C94.1089 33.036 94.7991 32.4215 95.2351 32.0059C95.5438 31.6986 95.7981 31.3914 95.998 31.0842C96.1978 30.7769 96.2886 30.5058 96.2886 30.289C96.2886 29.9998 96.1978 29.7468 95.998 29.5661C95.7981 29.3854 95.5438 29.2769 95.2169 29.2769C94.9626 29.2769 94.7446 29.3311 94.563 29.4215C94.3813 29.5119 94.1815 29.6926 93.9817 29.9275C93.8364 30.1083 93.7092 30.2348 93.6003 30.289C93.4913 30.3432 93.3823 30.3793 93.2551 30.3793C93.019 30.3793 92.8192 30.307 92.6739 30.1444C92.5286 29.9817 92.4559 29.7829 92.4559 29.5299C92.4559 29.2227 92.5831 28.9155 92.8374 28.6082C93.0735 28.3191 93.4186 28.0841 93.8364 27.8853C94.2542 27.7046 94.7083 27.6143 95.1987 27.6143C95.78 27.6143 96.2886 27.7227 96.7064 27.9576C97.1241 28.1926 97.4511 28.4998 97.6691 28.8974C97.887 29.295 97.996 29.7468 97.996 30.2709C97.996 30.9757 97.5964 31.7528 96.7972 32.6203C96.5611 32.8914 96.2523 33.1444 95.9253 33.4336C95.5802 33.7047 95.2351 33.9757 94.8899 34.1926V34.3011H97.2331V34.3191Z" fill="#00A9AC"/>
<path d="M100.486 35.8196C100.032 35.5485 99.6867 35.1871 99.4324 34.7172C99.1781 34.2473 99.0509 33.7232 99.0509 33.1268V30.7232C99.0509 30.1268 99.1781 29.6027 99.4324 29.1328C99.6867 28.6629 100.032 28.3015 100.486 28.0304C100.94 27.7593 101.467 27.6328 102.048 27.6328C102.629 27.6328 103.156 27.7593 103.61 28.0304C104.064 28.3015 104.409 28.6629 104.646 29.1328C104.9 29.6027 105.027 30.1268 105.027 30.7232V33.1268C105.027 33.7232 104.9 34.2473 104.646 34.7172C104.391 35.1871 104.046 35.5485 103.61 35.8196C103.174 36.0907 102.647 36.2172 102.048 36.2172C101.449 36.2172 100.94 36.0907 100.486 35.8196ZM102.993 34.2112C103.229 33.9401 103.338 33.5786 103.338 33.1449V30.7413C103.338 30.2895 103.229 29.928 102.993 29.675C102.756 29.422 102.448 29.2774 102.066 29.2774C101.685 29.2774 101.358 29.4039 101.122 29.675C100.885 29.9461 100.777 30.3075 100.777 30.7413V33.1449C100.777 33.5967 100.885 33.9582 101.122 34.2112C101.358 34.4642 101.667 34.6088 102.066 34.6088C102.466 34.6088 102.756 34.4823 102.993 34.2112Z" fill="#00A9AC"/>
<path d="M110.785 34.319C111.039 34.319 111.239 34.3913 111.384 34.5539C111.53 34.7166 111.62 34.9154 111.62 35.1503C111.62 35.3853 111.548 35.566 111.384 35.7287C111.239 35.8913 111.021 35.9636 110.785 35.9636H106.734C106.498 35.9636 106.28 35.8913 106.135 35.7287C105.971 35.566 105.899 35.3672 105.899 35.1323C105.899 34.9335 105.935 34.7527 106.026 34.572C106.117 34.3913 106.244 34.2286 106.407 34.0841L106.698 33.831C107.661 33.0359 108.351 32.4214 108.787 32.0057C109.095 31.6985 109.35 31.3913 109.55 31.084C109.749 30.7768 109.84 30.5057 109.84 30.2889C109.84 29.9997 109.749 29.7467 109.55 29.566C109.35 29.3852 109.095 29.2768 108.769 29.2768C108.514 29.2768 108.296 29.331 108.115 29.4214C107.933 29.5117 107.733 29.6925 107.533 29.9274C107.388 30.1081 107.261 30.2346 107.152 30.2889C107.043 30.3431 106.934 30.3792 106.807 30.3792C106.571 30.3792 106.371 30.3069 106.226 30.1443C106.08 29.9816 106.008 29.7828 106.008 29.5298C106.008 29.2226 106.135 28.9153 106.389 28.6081C106.625 28.319 106.97 28.084 107.388 27.8852C107.806 27.7045 108.26 27.6141 108.75 27.6141C109.332 27.6141 109.822 27.7226 110.258 27.9575C110.676 28.1925 111.003 28.4997 111.221 28.8973C111.439 29.2949 111.548 29.7467 111.548 30.2708C111.548 30.9756 111.148 31.7527 110.349 32.6202C110.113 32.8913 109.804 33.1443 109.477 33.4335C109.132 33.7045 108.787 33.9756 108.442 34.1925V34.3009H110.785V34.319Z" fill="#00A9AC"/>
<path d="M117.851 32.3672C118.087 32.3672 118.287 32.4394 118.45 32.6021C118.596 32.7648 118.668 32.9635 118.668 33.1804C118.668 33.3973 118.596 33.6142 118.45 33.7768C118.305 33.9395 118.105 34.0117 117.851 34.0117H117.615V35.2226C117.615 35.4756 117.542 35.6744 117.379 35.8371C117.215 35.9997 117.015 36.0901 116.779 36.0901C116.543 36.0901 116.343 35.9997 116.18 35.8371C116.016 35.6744 115.925 35.4575 115.925 35.2226V34.0117H112.965C112.728 34.0117 112.529 33.9395 112.365 33.7768C112.202 33.6142 112.129 33.4154 112.129 33.1804C112.129 33.0358 112.147 32.8732 112.202 32.7286C112.256 32.566 112.329 32.4214 112.438 32.2949L115.217 28.5539C115.435 28.2647 115.635 28.0478 115.871 27.9033C116.107 27.7587 116.343 27.6864 116.616 27.6864C116.888 27.6864 117.124 27.7948 117.324 27.9936C117.524 28.1924 117.615 28.4454 117.615 28.7165V32.3491H117.851V32.3672ZM115.835 30.09L114.218 32.2407V32.3491H115.944V30.072H115.835V30.09Z" fill="#00A9AC"/>
<path d="M13.9502 81.8039L14.1319 81.0629C14.2227 80.6654 14.5496 80.3401 14.9492 80.2316L18.5639 79.2738C19.3995 79.0569 20.2714 79.2738 20.9071 79.8521L21.1978 80.1232L21.0888 80.5027C20.8345 81.316 20.1806 81.9485 19.345 82.1654L15.7303 83.1232C15.3307 83.2316 14.8948 83.1232 14.6041 82.816L14.0774 82.2557C13.9684 82.1473 13.9139 81.9666 13.9502 81.822V81.8039ZM155.886 43.9784L155.36 43.4181C155.069 43.1109 154.633 43.0024 154.233 43.1109L150.619 44.0687C149.783 44.2856 149.129 44.9181 148.875 45.7314L148.766 46.1109L149.057 46.382C149.692 46.9603 150.564 47.1772 151.4 46.9603L155.014 46.0025C155.414 45.894 155.741 45.5687 155.832 45.1711L156.013 44.4302C156.05 44.2675 156.013 44.1049 155.886 43.9964V43.9784ZM12.6969 76.2015C12.6424 76.3641 12.6787 76.5268 12.7877 76.6533L13.2781 77.2497C13.5506 77.575 13.9684 77.7195 14.3862 77.6473L18.0553 76.9605C18.8909 76.7979 19.5993 76.2195 19.9263 75.4424L20.0716 75.081L19.7991 74.7918C19.2179 74.1593 18.346 73.8701 17.5104 74.0328L13.8412 74.7195C13.4234 74.7918 13.0965 75.099 12.9512 75.4966L12.715 76.2195L12.6969 76.2015ZM165.259 46.3278L160.482 47.2133C159.937 47.3037 159.501 47.7013 159.338 48.2073L159.21 48.5687C158.938 47.1772 158.611 45.8037 158.266 44.4121L158.538 44.7012C158.92 45.0988 159.483 45.2434 160.01 45.1169L164.714 43.8699C165.786 43.5808 166.64 42.7675 166.967 41.7012L167.112 41.2133L166.73 40.8699C165.913 40.1109 164.769 39.8217 163.679 40.1109L158.974 41.3579C158.447 41.5024 158.03 41.9181 157.903 42.4422L157.812 42.8217C157.43 41.4482 157.013 40.0928 156.54 38.7554L156.831 39.0084C157.23 39.3699 157.812 39.4783 158.32 39.2976L162.898 37.6892C163.951 37.3096 164.732 36.4422 164.987 35.3578L165.096 34.8518L164.696 34.5265C163.824 33.8397 162.643 33.6409 161.59 34.0204L157.012 35.6289C156.504 35.8096 156.122 36.2614 156.032 36.7855L155.977 37.165C155.487 35.8277 154.96 34.5084 154.397 33.2253L154.706 33.4602C155.142 33.7855 155.723 33.8578 156.213 33.6409L160.664 31.671C161.681 31.2192 162.389 30.2795 162.553 29.177L162.625 28.671L162.189 28.3819C161.263 27.7674 160.082 27.659 159.065 28.1108L154.615 30.0807C154.124 30.2975 153.779 30.7855 153.725 31.3277L153.688 31.7072C153.089 30.424 152.471 29.1409 151.799 27.8939L152.126 28.0927C152.58 28.3819 153.162 28.418 153.652 28.1469L157.921 25.8336C158.902 25.3095 159.537 24.3156 159.61 23.1951L159.646 22.689L159.192 22.436C158.211 21.8939 157.031 21.8758 156.05 22.418L151.781 24.7312C151.309 24.9842 151 25.4903 151 26.0324V26.412C150.31 25.183 149.583 23.9541 148.82 22.7794L149.166 22.9601C149.638 23.2131 150.237 23.1951 150.691 22.9059L154.76 20.2673C155.705 19.671 156.25 18.6228 156.231 17.5023V16.9962L155.759 16.7794C154.742 16.3095 153.561 16.3998 152.635 16.9962L148.566 19.6348C148.112 19.924 147.84 20.4481 147.894 20.9902L147.93 21.3698C147.149 20.1951 146.332 19.0384 145.478 17.9179L145.823 18.0625C146.332 18.2794 146.913 18.2071 147.331 17.8818L151.182 14.936C152.072 14.2673 152.544 13.183 152.435 12.0805L152.381 11.5745L151.89 11.3938C150.837 11.0143 149.674 11.1769 148.784 11.8637L144.933 14.8095C144.497 15.1348 144.279 15.677 144.37 16.2191L144.425 16.5986C143.553 15.4962 142.645 14.3938 141.7 13.3456L142.063 13.4721C142.572 13.6528 143.153 13.5444 143.553 13.1649L147.167 9.92992C148.003 9.18895 148.384 8.06846 148.185 6.98412L148.094 6.47809L147.603 6.33351C146.532 6.02628 145.369 6.29737 144.552 7.03834L140.937 10.2733C140.537 10.6347 140.356 11.195 140.483 11.7191L140.574 12.0986C139.611 11.0504 138.612 10.0384 137.595 9.06245L137.976 9.15281C138.503 9.29739 139.066 9.13474 139.448 8.73714L142.79 5.2311C143.553 4.41784 143.862 3.27927 143.571 2.213L143.444 1.72505L142.935 1.61661C141.845 1.39974 140.719 1.76119 139.938 2.55638L136.596 6.06243C136.214 6.46002 136.087 7.02026 136.251 7.54436L136.378 7.92388C133.272 5.05037 129.911 2.42987 126.315 0.0985295C126.024 -0.0821947 125.643 -0.00990501 125.443 0.279254C125.261 0.568412 125.334 0.947933 125.625 1.14673C140.955 11.1227 152.017 26.3216 156.758 43.9241C161.499 61.5447 159.556 80.1955 151.291 96.4606C151.127 96.7679 151.254 97.1474 151.563 97.292C151.709 97.3643 151.872 97.3823 151.999 97.3462C152.163 97.31 152.308 97.1835 152.399 97.0209C154.342 93.2076 155.923 89.2678 157.176 85.2377L157.267 85.6172C157.376 86.1413 157.775 86.575 158.302 86.7377L162.97 88.1112C164.042 88.4184 165.205 88.1654 166.04 87.4425L166.422 87.0991L166.276 86.6112C165.968 85.5449 165.15 84.6955 164.078 84.3883L159.41 83.0148C158.883 82.8521 158.32 83.0148 157.939 83.3943L157.666 83.6654C158.048 82.3099 158.411 80.9364 158.72 79.5449L158.829 79.9063C158.992 80.4304 159.41 80.828 159.955 80.9364L164.714 81.9485C165.804 82.1834 166.948 81.8401 167.711 81.0449L168.075 80.6834L167.893 80.1955C167.511 79.1473 166.621 78.3882 165.513 78.1533L160.754 77.1412C160.228 77.0328 159.664 77.2135 159.301 77.6292L159.047 77.9183C159.319 76.5268 159.574 75.1352 159.773 73.7436L159.919 74.1051C160.119 74.6111 160.573 74.9725 161.118 75.0448L165.931 75.6774C167.039 75.8219 168.147 75.3882 168.856 74.5388L169.183 74.1412L168.965 73.6713C168.492 72.6593 167.548 71.9545 166.44 71.8099L161.626 71.1773C161.081 71.105 160.555 71.34 160.228 71.7737L160.01 72.081C160.173 70.6713 160.3 69.2797 160.391 67.8701L160.555 68.2135C160.791 68.7014 161.281 69.0267 161.826 69.0629L166.676 69.3159C167.784 69.3701 168.856 68.8641 169.491 67.9424L169.782 67.5267L169.528 67.0749C168.983 66.099 167.984 65.4845 166.858 65.4303L162.008 65.1773C161.463 65.1411 160.936 65.4122 160.664 65.8821L160.464 66.2074C160.518 64.7978 160.536 63.3881 160.518 61.9785L160.718 62.3038C160.99 62.7737 161.499 63.0628 162.044 63.0447L166.912 62.9182C168.02 62.8821 169.055 62.2857 169.619 61.3279L169.873 60.8941L169.582 60.4604C168.965 59.5387 167.911 58.9965 166.803 59.0146L161.935 59.1411C161.39 59.1411 160.9 59.4664 160.645 59.9544L160.464 60.2977C160.409 58.8881 160.318 57.4784 160.173 56.0688L160.391 56.3941C160.7 56.8459 161.227 57.0809 161.772 57.0266L166.603 56.5206C167.711 56.4122 168.692 55.7254 169.183 54.7314L169.401 54.2796L169.074 53.882C168.383 53.0146 167.294 52.5447 166.185 52.6712L161.354 53.1772C160.809 53.2314 160.337 53.5748 160.137 54.0808L159.991 54.4423C159.828 53.0326 159.628 51.6411 159.374 50.2314L159.628 50.5386C159.973 50.9543 160.518 51.1531 161.063 51.0627L165.84 50.1772C166.93 49.9784 167.857 49.2194 168.274 48.1892L168.456 47.7193L168.111 47.3398C167.348 46.5266 166.222 46.147 165.132 46.3458L165.259 46.3278ZM157.249 50.0145C157.303 49.8519 157.267 49.6892 157.158 49.5627L156.667 48.9663C156.395 48.641 155.977 48.4965 155.559 48.5687L151.89 49.2555C151.055 49.4181 150.346 49.9965 150.019 50.7736L149.874 51.135L150.146 51.4242C150.728 52.0567 151.6 52.3459 152.435 52.1832L156.104 51.4965C156.522 51.4242 156.849 51.117 156.994 50.7194L157.23 49.9965L157.249 50.0145ZM12.1883 69.8219L11.8976 70.5267C11.8431 70.6713 11.8613 70.852 11.9521 70.9785L12.3881 71.6111C12.6242 71.9544 13.042 72.1352 13.4598 72.099L17.1835 71.7014C18.0372 71.6111 18.7819 71.087 19.1634 70.3279L19.345 69.9665L19.1089 69.6592C18.5821 68.9906 17.7466 68.6291 16.8928 68.7195L13.1691 69.1171C12.7514 69.1532 12.3881 69.4243 12.2246 69.8219H12.1883ZM157.757 56.4122L158.048 55.7073C158.102 55.5628 158.084 55.382 157.993 55.2555L157.557 54.623C157.321 54.2796 156.904 54.0989 156.486 54.135L152.762 54.5326C151.908 54.623 151.164 55.1471 150.782 55.9061L150.6 56.2676L150.837 56.5748C151.363 57.2435 152.199 57.605 153.053 57.5146L156.776 57.117C157.194 57.0809 157.557 56.8098 157.721 56.4122H157.757ZM11.8795 64.111L11.5344 64.7978C11.4617 64.9424 11.4617 65.105 11.5344 65.2496L11.9158 65.9183C12.1338 66.2797 12.5152 66.4966 12.933 66.4785L16.6749 66.3881C17.5286 66.3701 18.3278 65.9002 18.7638 65.1773L18.9636 64.8339L18.7456 64.5086C18.2733 63.8038 17.4559 63.3881 16.6022 63.4062L12.8603 63.4966C12.4426 63.4966 12.0611 63.7496 11.8613 64.111H11.8795ZM158.066 62.105L158.411 61.4182C158.484 61.2737 158.484 61.111 158.411 60.9664L158.03 60.2977C157.812 59.9363 157.43 59.7194 157.012 59.7375L153.271 59.8279C152.417 59.8459 151.618 60.3158 151.182 61.0387L150.982 61.3821L151.2 61.7074C151.672 62.4122 152.49 62.8279 153.343 62.8098L157.085 62.7194C157.503 62.7194 157.884 62.4664 158.084 62.105H158.066ZM12.0248 58.4001L11.6252 59.0507C11.5344 59.1953 11.5344 59.358 11.607 59.5026L11.934 60.1893C12.1156 60.5688 12.4971 60.8218 12.9148 60.8399L16.6567 61.0387C17.5104 61.0749 18.3278 60.6953 18.8364 59.9905L19.0726 59.6652L18.8727 59.3218C18.455 58.5809 17.6739 58.0929 16.8202 58.0568L13.0783 57.858C12.6605 57.8399 12.2609 58.0387 12.043 58.4001H12.0248ZM157.921 67.8159L158.32 67.1653C158.411 67.0207 158.411 66.858 158.338 66.7135L158.012 66.0267C157.83 65.6472 157.448 65.3942 157.031 65.3761L153.289 65.1773C152.435 65.1411 151.618 65.5207 151.109 66.2255L150.873 66.5508L151.073 66.8942C151.491 67.6351 152.272 68.1231 153.125 68.1592L156.867 68.358C157.285 68.3761 157.685 68.1773 157.903 67.8159H157.921ZM12.6242 52.7254L12.1701 53.3399C12.0793 53.4664 12.043 53.6471 12.1156 53.7917L12.3881 54.5146C12.5334 54.9122 12.8967 55.1832 13.3145 55.2375L17.02 55.7254C17.8737 55.8339 18.7274 55.5086 19.2724 54.8399L19.5267 54.5326L19.3632 54.1712C18.9999 53.3941 18.2733 52.8519 17.4196 52.7435L13.7141 52.2555C13.2963 52.2013 12.8785 52.382 12.6424 52.7073L12.6242 52.7254ZM157.321 73.4906L157.775 72.8761C157.866 72.7496 157.903 72.5689 157.83 72.4243L157.557 71.7014C157.412 71.3038 157.049 71.0328 156.631 70.9785L152.926 70.4906C152.072 70.3822 151.218 70.7075 150.673 71.3761L150.419 71.6834L150.582 72.0448C150.946 72.8219 151.672 73.3641 152.526 73.4725L156.231 73.9605C156.649 74.0147 157.067 73.834 157.303 73.5087L157.321 73.4906ZM14.15 49.6712L17.801 50.4483C18.6366 50.629 19.5085 50.3579 20.1079 49.7435L20.3804 49.4543L20.2351 49.0928C19.9444 48.2977 19.2542 47.7013 18.4186 47.5205L14.7676 46.7434C14.3498 46.6531 13.932 46.7976 13.6596 47.1229L13.151 47.7013C13.042 47.8278 13.0057 47.9904 13.0602 48.1531L13.2781 48.894C13.4053 49.2916 13.7322 49.5989 14.15 49.6892V49.6712ZM155.795 76.5629L152.144 75.7858C151.309 75.6051 150.437 75.8762 149.838 76.4906L149.565 76.7798L149.71 77.1412C150.001 77.9364 150.691 78.5328 151.527 78.7135L155.178 79.4906C155.596 79.581 156.013 79.4364 156.286 79.1111L156.795 78.5328C156.904 78.4063 156.94 78.2436 156.885 78.081L156.667 77.34C156.54 76.9424 156.213 76.6352 155.795 76.5448V76.5629ZM21.5792 44.0687C21.3431 43.2374 20.7073 42.6048 19.8899 42.3518L16.3116 41.3036C15.912 41.1771 15.476 41.3036 15.1672 41.5928L14.6223 42.135C14.5133 42.2434 14.4588 42.4061 14.4951 42.5687L14.6586 43.3097C14.7494 43.7253 15.0582 44.0506 15.4578 44.1591L19.0362 45.2073C19.8536 45.4422 20.7437 45.2615 21.3976 44.6832L21.6882 44.4302L21.5792 44.0506V44.0687ZM148.384 82.1473C148.621 82.9786 149.256 83.6112 150.074 83.8642L153.652 84.9124C154.052 85.0389 154.488 84.9124 154.796 84.6232L155.341 84.081C155.45 83.9726 155.505 83.81 155.469 83.6473L155.305 82.9063C155.214 82.4907 154.905 82.1654 154.506 82.0569L150.927 81.0087C150.11 80.7738 149.22 80.9545 148.566 81.5328L148.275 81.7858L148.384 82.1654V82.1473ZM16.3842 88.2377C16.693 88.5088 17.1471 88.5991 17.5286 88.4726L21.0525 87.2256C21.8699 86.9365 22.4693 86.2678 22.6509 85.4365L22.7417 85.0569L22.433 84.8039C21.7609 84.2798 20.8527 84.1172 20.0534 84.4063L16.5295 85.6533C16.1299 85.7979 15.8393 86.1413 15.7848 86.557L15.6577 87.316C15.6395 87.4787 15.694 87.6413 15.803 87.7497L16.3842 88.2558V88.2377ZM153.579 37.9964C153.271 37.7253 152.817 37.6349 152.435 37.7614L148.911 39.0084C148.094 39.2976 147.494 39.9663 147.313 40.7976L147.222 41.1771L147.531 41.4301C148.203 41.9542 149.111 42.1169 149.91 41.8277L153.434 40.5807C153.834 40.4362 154.124 40.0928 154.179 39.6771L154.306 38.9181C154.324 38.7554 154.27 38.5928 154.161 38.4843L153.579 37.9783V37.9964ZM18.5639 93.5148C18.8909 93.7679 19.345 93.8221 19.7265 93.6413L23.1414 92.1233C23.9224 91.7799 24.4674 91.057 24.5945 90.2076L24.649 89.81L24.322 89.5931C23.6136 89.1232 22.7054 89.0329 21.9244 89.3943L18.5095 90.9124C18.128 91.0751 17.8737 91.4546 17.8374 91.8702L17.7829 92.6293C17.7829 92.7919 17.8374 92.9546 17.9645 93.045L18.5821 93.5148H18.5639ZM151.382 32.7192C151.055 32.4662 150.6 32.412 150.219 32.5927L146.804 34.1108C146.023 34.4542 145.478 35.1771 145.351 36.0265L145.297 36.4241L145.623 36.641C146.332 37.1108 147.24 37.2012 148.021 36.8397L151.436 35.3217C151.817 35.159 152.072 34.7795 152.108 34.3638L152.163 33.6048C152.163 33.4421 152.108 33.2795 151.981 33.1891L151.363 32.7192H151.382ZM21.1796 98.6113C21.5247 98.8462 21.9788 98.8462 22.3603 98.6474L25.648 96.8763C26.4109 96.4606 26.9014 95.7016 26.9559 94.8522V94.4546L26.6289 94.2558C25.8842 93.8401 24.976 93.8221 24.2131 94.2558L20.9253 96.0269C20.562 96.2257 20.3259 96.6052 20.3259 97.0209V97.7799C20.3259 97.9426 20.3985 98.0872 20.5439 98.1775L21.1978 98.5932L21.1796 98.6113ZM148.784 27.6228C148.439 27.3879 147.985 27.3879 147.603 27.5867L144.316 29.3578C143.553 29.7734 143.062 30.5325 143.008 31.3819V31.7795L143.335 31.9783C144.079 32.3939 144.988 32.412 145.751 31.9783L149.038 30.2072C149.402 30.0084 149.638 29.6289 149.638 29.2132V28.4541C149.638 28.2915 149.565 28.1469 149.42 28.0566L148.766 27.6409L148.784 27.6228ZM24.1767 103.473C24.54 103.672 24.9941 103.653 25.3574 103.419L28.4998 101.394C29.2264 100.925 29.6442 100.129 29.6442 99.2799V98.8823L29.2809 98.7197C28.4998 98.3582 27.5916 98.4305 26.8651 98.8823L23.7226 100.906C23.3775 101.141 23.1777 101.539 23.1959 101.955L23.2503 102.714C23.2503 102.876 23.3593 103.021 23.5046 103.093L24.1767 103.455V103.473ZM145.787 22.7433C145.424 22.5445 144.97 22.5625 144.606 22.7975L141.464 24.8216C140.737 25.2915 140.319 26.0867 140.319 26.9361V27.3337L140.683 27.4963C141.464 27.8578 142.372 27.7855 143.099 27.3337L146.241 25.3095C146.586 25.0746 146.786 24.677 146.768 24.2613L146.713 23.5023C146.713 23.3397 146.604 23.1951 146.459 23.1228L145.787 22.7613V22.7433ZM27.5371 108.099C27.9186 108.262 28.3727 108.208 28.6996 107.955L31.6604 105.696C32.3507 105.172 32.714 104.34 32.6231 103.491L32.5868 103.093L32.2235 102.949C31.4243 102.659 30.5161 102.786 29.844 103.31L26.8832 105.569C26.5563 105.822 26.3746 106.238 26.4473 106.653L26.5563 107.413C26.5744 107.575 26.6834 107.702 26.8287 107.774L27.5371 108.081V108.099ZM142.408 18.1348C142.027 17.9721 141.573 18.0264 141.246 18.2794L138.285 20.5384C137.595 21.0625 137.232 21.8939 137.322 22.7433L137.359 23.1409L137.722 23.2854C138.521 23.5746 139.429 23.4481 140.102 22.924L143.062 20.6649C143.389 20.4119 143.571 19.9963 143.498 19.5806L143.389 18.8216C143.371 18.6589 143.262 18.5324 143.117 18.4601L142.408 18.1529V18.1348ZM30.5342 112.184L31.2608 112.437C31.6604 112.581 32.0964 112.491 32.4052 112.202L35.1843 109.708C35.8201 109.129 36.1289 108.28 35.9654 107.431L35.8927 107.051L35.5113 106.943C34.6939 106.708 33.8038 106.906 33.1499 107.485L30.3708 109.979C30.062 110.25 29.9167 110.684 30.0256 111.099L30.2073 111.84C30.2436 112.003 30.3526 112.129 30.5161 112.184H30.5342ZM139.411 14.0324L138.685 13.7793C138.285 13.6348 137.849 13.7251 137.54 14.0143L134.761 16.5083C134.125 17.0866 133.817 17.936 133.98 18.7854L134.053 19.1649L134.434 19.2734C135.252 19.5083 136.142 19.3095 136.796 18.7312L139.575 16.2372C139.884 15.9661 140.029 15.5324 139.92 15.1167L139.738 14.3757C139.702 14.2131 139.593 14.0866 139.429 14.0324H139.411ZM34.5667 116.286L35.3115 116.485C35.7111 116.593 36.147 116.485 36.4377 116.16L39.017 113.467C39.6164 112.852 39.8344 111.967 39.6164 111.135L39.5256 110.756L39.1441 110.684C38.3086 110.521 37.4367 110.792 36.8373 111.407L34.2579 114.099C33.9673 114.407 33.8765 114.84 34.0036 115.238L34.2398 115.961C34.2943 116.123 34.4214 116.232 34.5667 116.268V116.286ZM135.379 9.92992L134.634 9.73113C134.234 9.62269 133.798 9.73113 133.508 10.0564L130.929 12.7492C130.329 13.3637 130.111 14.2492 130.329 15.0806L130.42 15.4601L130.801 15.5324C131.637 15.695 132.509 15.4239 133.108 14.8095L135.688 12.1167C135.978 11.8095 136.069 11.3757 135.942 10.9781L135.706 10.2552C135.651 10.0926 135.524 9.98414 135.379 9.94799V9.92992ZM18.3096 28.8879C18.0009 28.7252 17.6194 28.8517 17.4741 29.159C15.5305 32.9723 13.9502 36.912 12.6969 40.9422L12.606 40.5627C12.4971 40.0386 12.0974 39.6048 11.5707 39.4422L6.90245 38.0687C5.83075 37.7614 4.66823 38.0145 3.83267 38.7374L3.45122 39.0807L3.59654 39.5687C3.90533 40.635 4.72273 41.4844 5.79442 41.7916L10.4627 43.1651C10.9894 43.3277 11.5525 43.1651 11.934 42.7856L12.2064 42.5145C11.825 43.8699 11.4617 45.2434 11.1529 46.635L11.0439 46.2735C10.8804 45.7494 10.4627 45.3519 9.91773 45.2434L5.15867 44.2314C4.06881 43.9964 2.92446 44.3398 2.16156 45.135L1.79827 45.4964L1.97991 45.9844C2.36136 47.0326 3.25142 47.7916 4.35944 48.0266L9.1185 49.0386C9.64526 49.1471 10.2084 48.9663 10.5716 48.5507L10.8259 48.2615C10.5535 49.6531 10.2992 51.0447 10.0994 52.4362L9.95405 52.0748C9.75425 51.5688 9.30014 51.2073 8.75521 51.135L3.94166 50.5025C2.83364 50.3579 1.72561 50.7916 1.0172 51.6411L0.690245 52.0386L0.908217 52.5085C1.38049 53.5206 2.32503 54.2254 3.43306 54.37L8.24661 55.0025C8.79154 55.0748 9.3183 54.8399 9.64526 54.4061L9.86323 54.0989C9.69975 55.5086 9.5726 56.9001 9.48178 58.3098L9.3183 57.9664C9.08217 57.4784 8.59173 57.1531 8.0468 57.117L3.19692 56.864C2.0889 56.8098 1.0172 57.3158 0.381451 58.2375L0.0908217 58.6531L0.345122 59.105C0.890052 60.0809 1.88909 60.6953 3.01528 60.7495L7.86516 61.0026C8.41009 61.0387 8.93685 60.7676 9.20932 60.2977L9.40912 59.9724C9.35463 61.3821 9.33647 62.7917 9.35463 64.2014L9.15482 63.8761C8.88236 63.4062 8.37376 63.117 7.82883 63.1351L2.96079 63.2616C1.85276 63.2978 0.817395 63.8941 0.254301 64.852L0 65.2857L0.290629 65.7195C0.908217 66.6412 1.96175 67.1833 3.06977 67.1653L7.93781 67.0388C8.48274 67.0388 8.97318 66.7134 9.22748 66.2255L9.40912 65.8821C9.46362 67.2918 9.55444 68.7014 9.69975 70.1111L9.48178 69.7858C9.17299 69.3339 8.64622 69.099 8.10129 69.1532L3.26958 69.6592C2.16156 69.7677 1.18068 70.4544 0.690245 71.4484L0.472273 71.9002L0.799231 72.2978C1.48948 73.1653 2.57934 73.6352 3.68736 73.5087L8.51907 73.0027C9.064 72.9484 9.53627 72.6051 9.73608 72.099L9.8814 71.7376C10.0449 73.1472 10.2447 74.5388 10.499 75.9484L10.2447 75.6412C9.89956 75.2256 9.35463 75.0268 8.8097 75.1171L4.03248 76.0027C2.94262 76.2015 2.01624 76.9605 1.59846 77.9906L1.41682 78.4605L1.76194 78.84C2.52484 79.6533 3.65103 80.0328 4.74089 79.834L9.51811 78.9485C10.063 78.8581 10.499 78.4605 10.6625 77.9545L10.7896 77.593C11.0621 78.9846 11.389 80.3581 11.7342 81.7497L11.4617 81.4605C11.0802 81.0629 10.5171 80.9184 9.99038 81.0449L5.28582 82.2919C4.21413 82.581 3.3604 83.3943 3.03344 84.4606L2.88813 84.9485L3.26958 85.2919C4.08698 86.0509 5.23133 86.3401 6.32119 86.0509L11.0258 84.8039C11.5525 84.6594 11.9703 84.2437 12.0974 83.7196L12.1883 83.3401C12.5697 84.7136 12.9875 86.069 13.4598 87.4064L13.1691 87.1533C12.7695 86.7919 12.1883 86.6835 11.6797 86.8642L7.10225 88.4726C6.04872 88.8522 5.26766 89.7196 5.01336 90.804L4.90437 91.31L5.30399 91.6353C6.17587 92.3221 7.35655 92.5209 8.41009 92.1413L12.9875 90.5329C13.4961 90.3522 13.8776 89.9004 13.9684 89.3763L14.0229 88.9967C14.5133 90.3341 15.0401 91.6534 15.6032 92.9365L15.2944 92.7016C14.8584 92.3763 14.2772 92.304 13.7867 92.5209L9.33647 94.4907C8.31926 94.9426 7.61086 95.8823 7.44738 96.9847L7.37472 97.4908L7.81066 97.7799C8.73704 98.3944 9.91773 98.5028 10.9349 98.051L15.3852 96.0811C15.8756 95.8643 16.2208 95.3763 16.2752 94.8522L16.3116 94.4727C16.911 95.7558 17.5286 97.039 18.2007 98.286L17.8737 98.0872C17.4196 97.798 16.8383 97.7619 16.3479 98.0329L12.0793 100.346C11.0984 100.87 10.4627 101.864 10.39 102.985L10.3537 103.491L10.8078 103.744C11.7887 104.286 12.9693 104.304 13.9502 103.762L18.2188 101.449C18.6911 101.196 18.9999 100.69 18.9999 100.147V99.7679C19.6901 100.997 20.4167 102.226 21.1796 103.419L20.8345 103.238C20.3622 102.985 19.7628 103.003 19.3087 103.292L15.2399 105.931C14.2953 106.527 13.7504 107.575 13.7686 108.696V109.202L14.2408 109.419C15.258 109.888 16.4387 109.798 17.3651 109.202L21.4339 106.563C21.888 106.274 22.1605 105.75 22.106 105.208L22.0697 104.828C22.8507 106.003 23.6681 107.16 24.5219 108.28L24.1767 108.135C23.6681 107.919 23.0869 107.991 22.6691 108.316L18.8182 111.262C17.9282 111.931 17.4559 113.015 17.5649 114.117L17.6194 114.623L18.1098 114.804C19.1634 115.184 20.3259 115.021 21.2159 114.334L25.0668 111.388C25.5027 111.063 25.7207 110.521 25.6299 109.979L25.5754 109.599C26.4473 110.702 27.3555 111.804 28.3 112.852L27.9367 112.726C27.4281 112.545 26.8469 112.654 26.4473 113.033L22.8326 116.268C21.997 117.009 21.6156 118.129 21.8154 119.214L21.9062 119.72L22.3966 119.864C23.4683 120.172 24.6308 119.901 25.4482 119.16L29.0629 115.925C29.4626 115.563 29.6442 115.003 29.517 114.479L29.4262 114.099C30.3889 115.148 31.388 116.16 32.4052 117.135L32.0237 117.045C31.497 116.901 30.9339 117.063 30.5524 117.461L27.2102 120.967C26.4473 121.78 26.1385 122.919 26.4291 123.985L26.5563 124.473L27.0649 124.581C28.1547 124.798 29.2809 124.437 30.062 123.642L33.4042 120.136C33.7857 119.738 33.9128 119.178 33.7493 118.654L33.6222 118.274C36.7283 121.148 40.0887 123.768 43.6852 126.099C43.8487 126.208 44.0303 126.226 44.1938 126.172C44.3391 126.136 44.4663 126.045 44.5571 125.919C44.7388 125.63 44.6661 125.25 44.3755 125.051C29.0448 115.075 17.9827 99.8763 13.2418 82.2738C8.50091 64.6532 10.4445 46.0025 18.7093 29.7373C18.8727 29.4301 18.7456 29.0505 18.4368 28.906L18.3096 28.8879Z" fill="#00A9AC"/>
</g>
<defs>
<clipPath id="clip0_427_2094">
<rect width="170" height="126.164" fill="white"/>
</clipPath>
</defs>
</svg>
