<svg width="170" height="127" viewBox="0 0 170 127" fill="none" xmlns="http://www.w3.org/2000/svg">
<g clip-path="url(#clip0_472_3523)">
<path d="M70.7258 30.2227C70.7258 28.5682 71.1256 27.5355 73.2687 26.6582C74.4347 26.1807 74.8566 25.7699 74.8566 25.1925C74.8566 24.6595 74.6456 24.1376 73.7351 24.1376C72.869 24.1376 72.5913 24.4818 72.3137 25.0259C72.1472 25.359 71.9473 25.4368 71.4698 25.2258C71.0034 25.0481 70.8147 24.8149 70.9923 24.4263C71.4809 23.3714 72.5247 22.7384 73.7351 22.7384C75.7228 22.7384 76.4778 23.7822 76.4778 25.1925C76.4778 26.4472 75.6894 27.1801 74.0571 27.8686C72.4359 28.5571 72.3915 28.868 72.3915 29.5009V29.5898H75.8893H75.9004C76.3224 29.5898 76.4445 29.8118 76.4445 30.3004C76.4445 30.7779 76.3224 31 75.9004 31H71.7363C71.0367 31 70.7258 30.8445 70.7258 30.2227ZM83.8771 25.5811V28.2795C83.8771 30.0006 83.0998 31.1333 80.9123 31.1333C78.7358 31.1333 77.9585 30.0006 77.9585 28.2683V25.5811C77.9585 23.8599 78.7358 22.7384 80.9123 22.7384C83.0998 22.7384 83.8771 23.8599 83.8771 25.5811ZM82.2781 28.0796V25.781C82.2781 24.7372 82.0782 24.1376 80.9123 24.1376C79.9351 24.1376 79.5575 24.7372 79.5575 25.781V28.0685C79.5575 29.1123 79.9351 29.723 80.9123 29.723C82.0782 29.723 82.2781 29.1123 82.2781 28.0796ZM85.2134 30.2227C85.2134 28.5682 85.6132 27.5355 87.7563 26.6582C88.9223 26.1807 89.3442 25.7699 89.3442 25.1925C89.3442 24.6595 89.1333 24.1376 88.2227 24.1376C87.3566 24.1376 87.079 24.4818 86.8014 25.0259C86.6348 25.359 86.4349 25.4368 85.9574 25.2258C85.4911 25.0481 85.3023 24.8149 85.4799 24.4263C85.9685 23.3714 87.0123 22.7384 88.2227 22.7384C90.2104 22.7384 90.9655 23.7822 90.9655 25.1925C90.9655 26.4472 90.1771 27.1801 88.5447 27.8686C86.9235 28.5571 86.8791 28.868 86.8791 29.5009V29.5898H90.3769H90.388C90.81 29.5898 90.9322 29.8118 90.9322 30.3004C90.9322 30.7779 90.81 31 90.388 31H86.2239C85.5244 31 85.2134 30.8445 85.2134 30.2227ZM95.8996 30.4559V29.2899H93.0791C92.7238 29.2899 92.5572 29.1234 92.4239 28.7347C92.3351 28.4238 92.324 28.235 92.535 27.9352L96.0995 23.0049C96.366 22.6385 96.6325 22.694 97.0433 23.0049C97.432 23.3158 97.5208 23.5379 97.2654 23.8933L94.4005 27.8908H95.8996V27.1135C95.8996 26.6249 96.1439 26.4917 96.6991 26.4917C97.2543 26.4917 97.4986 26.6249 97.4986 27.1135V27.8908H97.8872C98.3092 27.8908 98.4314 28.1129 98.4314 28.6015C98.4314 29.079 98.3092 29.2899 97.8872 29.2899H97.4986V30.4559C97.4986 30.9445 97.2543 31.0777 96.6991 31.0777C96.1439 31.0777 95.8996 30.9445 95.8996 30.4559Z" fill="#00A9AC"/>
<path d="M38.6113 38.2235H39.3178C40.0093 38.2235 40.3325 38.0582 40.3325 37.502C40.325 36.9683 39.9943 36.7879 39.4606 36.7879H38.6113V38.2235ZM40.1897 35.2997V35.217C40.1897 34.7284 39.8514 34.5931 39.2577 34.5931H38.6113V35.9235H39.3253C39.9492 35.9235 40.1897 35.668 40.1897 35.2997ZM38.2129 33.6761H39.5959C40.6632 33.6761 41.2495 34.2248 41.2495 35.0366V35.1569C41.2495 35.7131 40.9488 36.1415 40.4678 36.3144C41.0315 36.4196 41.4148 36.8931 41.4148 37.5621V37.6598C41.4148 38.5467 40.7534 39.1781 39.5884 39.1781H38.2129C37.7394 39.1781 37.5289 39.0654 37.5289 38.6444V34.2098C37.5289 33.7889 37.7394 33.6761 38.2129 33.6761ZM44.1977 35.9686C44.1676 35.9686 44.0999 35.9611 44.0624 35.9611C43.5738 35.9611 43.2882 36.352 43.1905 36.6827V38.8173C43.1905 39.133 43.0326 39.2232 42.6643 39.2232C42.296 39.2232 42.1382 39.133 42.1382 38.8173V35.4274C42.1382 35.1268 42.2885 35.0366 42.6493 35.0366C43.0101 35.0366 43.1604 35.1268 43.1604 35.4274V35.7732C43.3859 35.3673 43.7617 34.9915 44.2352 34.9915C44.5509 34.9915 44.596 35.1869 44.5509 35.4801C44.4833 35.8634 44.363 35.9837 44.1977 35.9686ZM47.0993 37.9905V37.4118C46.0019 37.3591 45.784 37.5846 45.784 37.9529V37.968C45.784 38.216 45.9493 38.4114 46.2575 38.4114C46.5882 38.4114 46.8889 38.2837 47.0993 37.9905ZM47.1294 38.8474V38.667C46.8738 38.9977 46.5431 39.2533 45.9719 39.2533C45.1977 39.2533 44.7392 38.7121 44.7392 38.0807V38.0281C44.7392 37.2239 45.2879 36.615 47.0993 36.7729V36.4647C47.0993 36.0739 46.9189 35.8408 46.4078 35.8408C46.0545 35.8408 45.9042 35.9761 45.784 36.164C45.6411 36.3895 45.5284 36.4121 45.2503 36.2618C44.9722 36.1265 44.8369 35.9761 44.9947 35.7056C45.2728 35.2245 45.7163 34.984 46.5581 34.984C47.43 34.984 48.1291 35.5176 48.1291 36.5248V38.8474C48.1291 39.1556 47.9787 39.2382 47.6255 39.2382C47.2797 39.2382 47.1294 39.1556 47.1294 38.8474ZM49.0673 38.8173V35.4124C49.0673 35.1118 49.2176 35.0216 49.5784 35.0216C49.9392 35.0216 50.0895 35.1118 50.0895 35.4124V35.6454C50.3451 35.3523 50.7961 34.984 51.435 34.984C52.2242 34.984 52.6225 35.5552 52.6225 36.2317V38.8173C52.6225 39.133 52.4647 39.2232 52.0964 39.2232C51.7281 39.2232 51.5702 39.133 51.5702 38.8173V36.5173C51.5702 36.2167 51.5101 35.8408 50.999 35.8408C50.5255 35.8408 50.2624 36.1791 50.1196 36.4797V38.8173C50.1196 39.133 49.9618 39.2232 49.5934 39.2232C49.2251 39.2232 49.0673 39.133 49.0673 38.8173ZM56.1231 37.4042V36.6752C56.1231 36.164 55.7398 35.8408 55.3113 35.8408C54.8528 35.8408 54.4996 36.0513 54.4996 36.8405V37.5245C54.4996 38.1333 54.7927 38.4114 55.2888 38.4114C55.9051 38.4114 56.1231 37.9605 56.1231 37.4042ZM56.1231 35.3523V33.9242C56.1231 33.6085 56.2809 33.5183 56.6492 33.5183C57.0175 33.5183 57.1754 33.6085 57.1754 33.9242V38.8248C57.1754 39.1405 57.0175 39.2307 56.6492 39.2307C56.2809 39.2307 56.1532 39.1405 56.1532 38.8248V38.7572C55.9653 38.9902 55.5669 39.2683 54.9806 39.2683C54.1237 39.2683 53.4473 38.7196 53.4473 37.6373V36.615C53.4473 35.6454 54.0336 34.984 55.0107 34.984C55.4917 34.984 55.845 35.1193 56.1231 35.3523ZM59.2485 38.8098V34.2098C59.2485 33.7889 59.4589 33.6761 59.9325 33.6761H61.992C62.2776 33.6761 62.3603 33.8265 62.3603 34.1572C62.3603 34.4804 62.2776 34.6307 61.992 34.6307H60.3308V36.0739H61.8266C62.0972 36.0739 62.1799 36.2167 62.1799 36.5399C62.1799 36.8556 62.0972 36.9984 61.8266 36.9984H60.3308V38.8098C60.3308 39.1405 60.1655 39.2307 59.7897 39.2307C59.4138 39.2307 59.2485 39.1405 59.2485 38.8098ZM64.0292 38.8248C64.0292 39.1405 63.8714 39.2307 63.5031 39.2307C63.1348 39.2307 62.9769 39.1405 62.9769 38.8248V35.4274C62.9769 35.1118 63.1348 35.0216 63.5031 35.0216C63.8714 35.0216 64.0292 35.1118 64.0292 35.4274V38.8248ZM64.0292 33.864C64.0292 33.5859 63.8263 33.5108 63.5031 33.5108C63.1799 33.5108 62.9769 33.5859 62.9769 33.864V34.2173C62.9769 34.4954 63.1799 34.5706 63.5031 34.5706C63.8263 34.5706 64.0292 34.4954 64.0292 34.2173V33.864ZM64.9661 38.8173V35.4124C64.9661 35.1118 65.1165 35.0216 65.4772 35.0216C65.838 35.0216 65.9884 35.1118 65.9884 35.4124V35.6454C66.2439 35.3523 66.6949 34.984 67.3338 34.984C68.123 34.984 68.5214 35.5552 68.5214 36.2317V38.8173C68.5214 39.133 68.3635 39.2232 67.9952 39.2232C67.6269 39.2232 67.4691 39.133 67.4691 38.8173V36.5173C67.4691 36.2167 67.4089 35.8408 66.8978 35.8408C66.4243 35.8408 66.1612 36.1791 66.0184 36.4797V38.8173C66.0184 39.133 65.8606 39.2232 65.4923 39.2232C65.124 39.2232 64.9661 39.133 64.9661 38.8173ZM71.5935 37.9905V37.4118C70.4961 37.3591 70.2781 37.5846 70.2781 37.9529V37.968C70.2781 38.216 70.4435 38.4114 70.7517 38.4114C71.0824 38.4114 71.383 38.2837 71.5935 37.9905ZM71.6236 38.8474V38.667C71.368 38.9977 71.0373 39.2533 70.466 39.2533C69.6919 39.2533 69.2334 38.7121 69.2334 38.0807V38.0281C69.2334 37.2239 69.7821 36.615 71.5935 36.7729V36.4647C71.5935 36.0739 71.4131 35.8408 70.902 35.8408C70.5487 35.8408 70.3984 35.9761 70.2781 36.164C70.1353 36.3895 70.0226 36.4121 69.7445 36.2618C69.4664 36.1265 69.3311 35.9761 69.4889 35.7056C69.767 35.2245 70.2105 34.984 71.0523 34.984C71.9242 34.984 72.6232 35.5176 72.6232 36.5248V38.8474C72.6232 39.1556 72.4729 39.2382 72.1196 39.2382C71.7739 39.2382 71.6236 39.1556 71.6236 38.8474ZM73.5615 38.8173V35.4124C73.5615 35.1118 73.7118 35.0216 74.0726 35.0216C74.4334 35.0216 74.5837 35.1118 74.5837 35.4124V35.6454C74.8393 35.3523 75.2902 34.984 75.9291 34.984C76.7183 34.984 77.1167 35.5552 77.1167 36.2317V38.8173C77.1167 39.133 76.9589 39.2232 76.5906 39.2232C76.2223 39.2232 76.0644 39.133 76.0644 38.8173V36.5173C76.0644 36.2167 76.0043 35.8408 75.4932 35.8408C75.0197 35.8408 74.7566 36.1791 74.6138 36.4797V38.8173C74.6138 39.133 74.4559 39.2232 74.0876 39.2232C73.7193 39.2232 73.5615 39.133 73.5615 38.8173ZM81.2411 36.0588C81.3163 36.3444 81.166 36.4722 80.8352 36.5399C80.4895 36.6225 80.3617 36.5549 80.2941 36.3069C80.2189 36.0513 79.9934 35.8408 79.6777 35.8408C79.2718 35.8408 78.9937 36.0739 78.9937 36.6977V37.6222C78.9937 38.1859 79.2718 38.4114 79.7153 38.4114C80.0761 38.4114 80.2189 38.1935 80.3392 37.9605C80.4444 37.7575 80.6398 37.75 80.9405 37.9229C81.2035 38.0807 81.3013 38.2235 81.1509 38.5242C80.933 38.9601 80.4444 39.2683 79.6852 39.2683C78.6705 39.2683 77.9415 38.7271 77.9415 37.6222V36.6376C77.9415 35.5402 78.7607 34.984 79.6777 34.984C80.4594 34.984 81.0532 35.3598 81.2411 36.0588ZM84.3993 36.7804V36.5624C84.3993 36.2542 84.2866 35.8408 83.6853 35.8408C83.1291 35.8408 82.9938 36.2542 82.9938 36.6451V36.7804H84.3993ZM84.4595 38.0356C84.5722 37.8627 84.7376 37.8477 85.0608 38.0206C85.3088 38.1559 85.399 38.2912 85.2261 38.5618C84.9029 39.0353 84.3467 39.2683 83.7078 39.2683C82.5428 39.2683 81.9565 38.6294 81.9565 37.6222V36.6827C81.9565 35.6154 82.648 34.984 83.6928 34.984C84.7676 34.984 85.399 35.5252 85.399 36.7879V37.0134C85.399 37.3216 85.2036 37.4944 84.8954 37.4944H82.9938V37.6598C82.9938 38.1108 83.1817 38.4114 83.7078 38.4114C84.0761 38.4114 84.3317 38.231 84.4595 38.0356ZM88.429 38.2235H89.1356C89.8271 38.2235 90.1503 38.0582 90.1503 37.502C90.1428 36.9683 89.812 36.7879 89.2784 36.7879H88.429V38.2235ZM90.0075 35.2997V35.217C90.0075 34.7284 89.6692 34.5931 89.0754 34.5931H88.429V35.9235H89.1431C89.767 35.9235 90.0075 35.668 90.0075 35.2997ZM88.0307 33.6761H89.4137C90.481 33.6761 91.0673 34.2248 91.0673 35.0366V35.1569C91.0673 35.7131 90.7666 36.1415 90.2856 36.3144C90.8493 36.4196 91.2326 36.8931 91.2326 37.5621V37.6598C91.2326 38.5467 90.5712 39.1781 89.4062 39.1781H88.0307C87.5571 39.1781 87.3467 39.0654 87.3467 38.6444V34.2098C87.3467 33.7889 87.5571 33.6761 88.0307 33.6761ZM94.1132 37.9905V37.4118C93.0158 37.3591 92.7978 37.5846 92.7978 37.9529V37.968C92.7978 38.216 92.9632 38.4114 93.2713 38.4114C93.602 38.4114 93.9027 38.2837 94.1132 37.9905ZM94.1432 38.8474V38.667C93.8877 38.9977 93.557 39.2533 92.9857 39.2533C92.2115 39.2533 91.753 38.7121 91.753 38.0807V38.0281C91.753 37.2239 92.3017 36.615 94.1132 36.7729V36.4647C94.1132 36.0739 93.9328 35.8408 93.4217 35.8408C93.0684 35.8408 92.9181 35.9761 92.7978 36.164C92.655 36.3895 92.5422 36.4121 92.2641 36.2618C91.986 36.1265 91.8507 35.9761 92.0086 35.7056C92.2867 35.2245 92.7302 34.984 93.572 34.984C94.4439 34.984 95.1429 35.5176 95.1429 36.5248V38.8474C95.1429 39.1556 94.9926 39.2382 94.6393 39.2382C94.2936 39.2382 94.1432 39.1556 94.1432 38.8474ZM96.0811 38.8173V35.4124C96.0811 35.1118 96.2315 35.0216 96.5923 35.0216C96.953 35.0216 97.1034 35.1118 97.1034 35.4124V35.6454C97.3589 35.3523 97.8099 34.984 98.4488 34.984C99.238 34.984 99.6364 35.5552 99.6364 36.2317V38.8173C99.6364 39.133 99.4785 39.2232 99.1102 39.2232C98.7419 39.2232 98.5841 39.133 98.5841 38.8173V36.5173C98.5841 36.2167 98.524 35.8408 98.0128 35.8408C97.5393 35.8408 97.2762 36.1791 97.1334 36.4797V38.8173C97.1334 39.133 96.9756 39.2232 96.6073 39.2232C96.239 39.2232 96.0811 39.133 96.0811 38.8173ZM102.851 36.6376L104.054 38.7046C104.137 38.8474 104.174 38.9301 104.174 38.9977C104.174 39.1556 104.046 39.2307 103.663 39.2307C103.272 39.2307 103.175 39.2157 103.017 38.9301L102.13 37.3516L101.619 37.8703V38.8248C101.619 39.1405 101.461 39.2307 101.092 39.2307C100.724 39.2307 100.566 39.1405 100.566 38.8248V33.9242C100.566 33.6085 100.724 33.5183 101.092 33.5183C101.461 33.5183 101.619 33.6085 101.619 33.9242V36.6827L102.784 35.3372C103.009 35.0817 103.107 35.0216 103.573 35.0216C103.926 35.0216 104.046 35.1118 104.046 35.232C104.046 35.3072 104.009 35.3899 103.889 35.5101L102.851 36.6376ZM105.839 38.8248C105.839 39.1405 105.681 39.2307 105.313 39.2307C104.944 39.2307 104.787 39.1405 104.787 38.8248V35.4274C104.787 35.1118 104.944 35.0216 105.313 35.0216C105.681 35.0216 105.839 35.1118 105.839 35.4274V38.8248ZM105.839 33.864C105.839 33.5859 105.636 33.5108 105.313 33.5108C104.99 33.5108 104.787 33.5859 104.787 33.864V34.2173C104.787 34.4954 104.99 34.5706 105.313 34.5706C105.636 34.5706 105.839 34.4954 105.839 34.2173V33.864ZM106.776 38.8173V35.4124C106.776 35.1118 106.926 35.0216 107.287 35.0216C107.648 35.0216 107.798 35.1118 107.798 35.4124V35.6454C108.054 35.3523 108.505 34.984 109.143 34.984C109.933 34.984 110.331 35.5552 110.331 36.2317V38.8173C110.331 39.133 110.173 39.2232 109.805 39.2232C109.437 39.2232 109.279 39.133 109.279 38.8173V36.5173C109.279 36.2167 109.219 35.8408 108.707 35.8408C108.234 35.8408 107.971 36.1791 107.828 36.4797V38.8173C107.828 39.133 107.67 39.2232 107.302 39.2232C106.934 39.2232 106.776 39.133 106.776 38.8173ZM113.118 38.9676L112.614 38.9075L112.351 38.8699C112.08 38.9827 111.922 39.1856 111.922 39.4562C111.922 39.817 112.208 40.0124 112.764 40.0124C113.493 40.0124 113.666 39.7493 113.666 39.4637C113.666 39.1856 113.553 39.0278 113.118 38.9676ZM113.418 36.3294C113.418 35.9686 113.215 35.7281 112.749 35.7281C112.283 35.7281 112.073 35.9686 112.073 36.3294C112.073 36.7052 112.321 36.8856 112.749 36.8856C113.17 36.8856 113.418 36.7052 113.418 36.3294ZM114.658 35.5778C114.478 35.5778 114.38 35.5778 114.2 35.5778C114.313 35.7582 114.388 35.9686 114.388 36.2242V36.4271C114.388 37.1261 113.764 37.6297 112.689 37.6297C112.531 37.6297 112.373 37.6147 112.231 37.5922C112.178 37.6448 112.14 37.6974 112.14 37.7801C112.14 37.9003 112.246 37.9605 112.388 37.983L113.486 38.1258C114.41 38.2461 114.673 38.7271 114.673 39.4412C114.673 40.1703 114.08 40.8167 112.764 40.8167C111.569 40.8167 110.923 40.3807 110.923 39.599C110.923 39.1706 111.216 38.8549 111.607 38.682C111.381 38.5542 111.253 38.3588 111.253 38.0882C111.253 37.7951 111.434 37.5395 111.689 37.3892C111.284 37.1562 111.103 36.8105 111.103 36.352V36.2843C111.103 35.465 111.742 34.984 112.749 34.984C113.095 34.984 113.426 35.0516 113.711 35.1869C114.027 34.984 114.41 34.8562 114.658 34.8562C114.876 34.8562 114.936 34.9614 114.936 35.217C114.936 35.4725 114.876 35.5778 114.658 35.5778ZM117.444 33.6761H119.608C119.894 33.6761 119.977 33.8265 119.977 34.1572C119.977 34.4804 119.894 34.6307 119.608 34.6307H117.707L117.609 35.8484L117.617 35.8559C117.789 35.698 118.098 35.4801 118.699 35.4801C119.593 35.4801 120.27 36.0438 120.27 37.2239V37.4193C120.27 38.6745 119.428 39.2683 118.331 39.2683C117.256 39.2683 116.76 38.7046 116.519 38.231C116.369 37.9304 116.467 37.7876 116.73 37.6297C117.03 37.4569 117.218 37.4644 117.331 37.6673C117.489 37.9605 117.752 38.3137 118.323 38.3137C118.872 38.3137 119.18 37.9379 119.18 37.3667V37.2614C119.18 36.6827 118.887 36.352 118.316 36.352C117.962 36.352 117.722 36.5248 117.556 36.6977C117.406 36.8556 117.256 36.8931 116.933 36.7578C116.715 36.6676 116.587 36.5774 116.609 36.3144L116.76 34.2098C116.79 33.7889 116.97 33.6761 117.444 33.6761ZM125.278 35.5101V37.3366C125.278 38.5016 124.752 39.2683 123.271 39.2683C121.798 39.2683 121.272 38.5016 121.272 37.3291V35.5101C121.272 34.3451 121.798 33.5859 123.271 33.5859C124.752 33.5859 125.278 34.3451 125.278 35.5101ZM124.196 37.2013V35.6454C124.196 34.9389 124.061 34.533 123.271 34.533C122.61 34.533 122.354 34.9389 122.354 35.6454V37.1938C122.354 37.9003 122.61 38.3137 123.271 38.3137C124.061 38.3137 124.196 37.9003 124.196 37.2013ZM130.182 35.5101V37.3366C130.182 38.5016 129.655 39.2683 128.175 39.2683C126.701 39.2683 126.175 38.5016 126.175 37.3291V35.5101C126.175 34.3451 126.701 33.5859 128.175 33.5859C129.655 33.5859 130.182 34.3451 130.182 35.5101ZM129.099 37.2013V35.6454C129.099 34.9389 128.964 34.533 128.175 34.533C127.513 34.533 127.258 34.9389 127.258 35.6454V37.1938C127.258 37.9003 127.513 38.3137 128.175 38.3137C128.964 38.3137 129.099 37.9003 129.099 37.2013Z" fill="#00A9AC"/>
<path d="M52.4123 59.7341C52.1866 59.0871 52.4875 58.8464 53.0743 58.6357C53.7814 58.38 54.0372 58.5154 54.308 59.0721C54.5638 59.6137 55.1205 59.9598 56.0684 59.9598C56.7304 59.9598 57.6482 59.6137 57.6482 58.711C57.6482 57.8985 57.0614 57.5073 55.6621 56.9055C53.6009 56.0178 52.5477 55.2354 52.5477 53.4299C52.5477 51.5793 54.1275 50.4207 55.9781 50.4207C58.0695 50.4207 59.1528 51.3385 59.574 52.4519C59.7847 53.0086 59.4236 53.2945 58.7315 53.46C58.1296 53.5954 57.8739 53.5804 57.6783 53.1741C57.3322 52.467 56.7906 52.2714 56.0232 52.2714C55.1205 52.2714 54.6691 52.7378 54.6691 53.4299C54.6691 54.2123 55.4064 54.4831 57.0764 55.2204C58.8669 56.0178 59.8449 56.8603 59.8449 58.5906C59.8449 60.4262 58.3704 61.7954 56.0082 61.7954C53.9168 61.7954 52.8034 60.8625 52.4123 59.7341ZM65.0271 61.6148H64.5155C63.041 61.6148 61.7471 61.028 61.7471 59.1623V55.3708H61.2055C60.6939 55.3708 60.5585 55.1301 60.5585 54.5282C60.5585 53.9264 60.6939 53.6857 61.2055 53.6857H61.7471V52.3767C61.7471 51.7598 62.048 51.5943 62.7702 51.5943C63.4924 51.5943 63.7933 51.7598 63.7933 52.3767V53.6857H64.8766C65.3882 53.6857 65.5236 53.9264 65.5236 54.5282C65.5236 55.1301 65.3882 55.3708 64.8766 55.3708H63.8535V58.7712C63.8535 59.6438 64.0491 59.8996 64.9819 59.8996H65.0271C65.5537 59.8996 65.6891 60.1403 65.6891 60.7572C65.6891 61.3741 65.5537 61.6148 65.0271 61.6148ZM71.3547 55.1903C71.2945 55.1903 71.1591 55.1752 71.0838 55.1752C70.1059 55.1752 69.5341 55.9576 69.3385 56.6196V60.8926C69.3385 61.5245 69.0226 61.7051 68.2853 61.7051C67.5481 61.7051 67.2321 61.5245 67.2321 60.8926V54.107C67.2321 53.5051 67.533 53.3246 68.2552 53.3246C68.9774 53.3246 69.2783 53.5051 69.2783 54.107V54.7991C69.7297 53.9866 70.482 53.2343 71.4299 53.2343C72.0618 53.2343 72.1521 53.6255 72.0618 54.2123C71.9264 54.9796 71.6857 55.2204 71.3547 55.1903ZM79.9615 56.4391V58.5756C79.9615 60.6368 78.6225 61.7954 76.3054 61.7954C73.9733 61.7954 72.6643 60.6218 72.6643 58.6357V56.4391C72.6643 54.3627 73.9733 53.2193 76.3205 53.2193C78.6225 53.2193 79.9615 54.3627 79.9615 56.4391ZM77.8551 58.4702V56.5444C77.8551 55.3558 77.163 54.9345 76.3054 54.9345C75.4478 54.9345 74.7708 55.3558 74.7708 56.5594V58.4552C74.7708 59.6589 75.4478 60.0801 76.3054 60.0801C77.163 60.0801 77.8551 59.6589 77.8551 58.4702ZM81.6461 60.8926V54.0769C81.6461 53.475 81.947 53.2945 82.6692 53.2945C83.3914 53.2945 83.6923 53.475 83.6923 54.0769V54.5433C84.2039 53.9565 85.1066 53.2193 86.3855 53.2193C87.9653 53.2193 88.7627 54.3627 88.7627 55.7169V60.8926C88.7627 61.5245 88.4468 61.7051 87.7095 61.7051C86.9723 61.7051 86.6563 61.5245 86.6563 60.8926V56.2886C86.6563 55.6868 86.536 54.9345 85.5129 54.9345C84.565 54.9345 84.0384 55.6115 83.7525 56.2134V60.8926C83.7525 61.5245 83.4365 61.7051 82.6993 61.7051C81.962 61.7051 81.6461 61.5245 81.6461 60.8926ZM94.3406 61.1935L93.3325 61.0732L92.8059 60.9979C92.2643 61.2236 91.9483 61.6299 91.9483 62.1715C91.9483 62.8937 92.5201 63.2849 93.6335 63.2849C95.0929 63.2849 95.439 62.7583 95.439 62.1865C95.439 61.6299 95.2133 61.3139 94.3406 61.1935ZM94.9424 55.9125C94.9424 55.1903 94.5362 54.7088 93.6034 54.7088C92.6705 54.7088 92.2492 55.1903 92.2492 55.9125C92.2492 56.6647 92.7458 57.0258 93.6034 57.0258C94.4459 57.0258 94.9424 56.6647 94.9424 55.9125ZM97.425 54.4079C97.0639 54.4079 96.8683 54.4079 96.5072 54.4079C96.7329 54.769 96.8833 55.1903 96.8833 55.7018V56.1081C96.8833 57.5073 95.6345 58.5154 93.483 58.5154C93.167 58.5154 92.8511 58.4853 92.5652 58.4401C92.4599 58.5455 92.3847 58.6508 92.3847 58.8163C92.3847 59.057 92.5953 59.1774 92.8812 59.2225L95.0779 59.5084C96.9285 59.7491 97.4551 60.7121 97.4551 62.1414C97.4551 63.6008 96.2665 64.8948 93.6335 64.8948C91.2412 64.8948 89.9472 64.0221 89.9472 62.4574C89.9472 61.5998 90.534 60.9678 91.3164 60.6218C90.865 60.366 90.6093 59.9748 90.6093 59.4332C90.6093 58.8464 90.9704 58.3348 91.4819 58.0339C90.6694 57.5675 90.3083 56.8754 90.3083 55.9576V55.8222C90.3083 54.1822 91.5872 53.2193 93.6034 53.2193C94.2955 53.2193 94.9575 53.3547 95.5292 53.6255C96.1611 53.2193 96.9285 52.9635 97.425 52.9635C97.8613 52.9635 97.9817 53.1741 97.9817 53.6857C97.9817 54.1972 97.8613 54.4079 97.425 54.4079ZM103.164 56.8152V56.3789C103.164 55.762 102.939 54.9345 101.735 54.9345C100.622 54.9345 100.351 55.762 100.351 56.5444V56.8152H103.164ZM103.285 59.3278C103.51 58.9818 103.841 58.9517 104.488 59.2978C104.985 59.5686 105.165 59.8394 104.819 60.3811C104.172 61.3289 103.059 61.7954 101.78 61.7954C99.4481 61.7954 98.2745 60.5165 98.2745 58.5003V56.6196C98.2745 54.4831 99.6587 53.2193 101.75 53.2193C103.902 53.2193 105.165 54.3026 105.165 56.8302V57.2816C105.165 57.8985 104.774 58.2446 104.157 58.2446H100.351V58.5756C100.351 59.4783 100.727 60.0801 101.78 60.0801C102.517 60.0801 103.029 59.719 103.285 59.3278ZM108.23 59.4482C108.425 59.8695 108.922 60.1554 109.524 60.1554C110.156 60.1554 110.562 59.8394 110.562 59.373C110.562 58.1392 106.515 58.4552 106.515 55.7169C106.515 54.2273 107.688 53.2193 109.479 53.2193C110.863 53.2193 111.871 53.8813 112.217 54.8743C112.397 55.3859 112.081 55.6567 111.45 55.7921C110.893 55.9275 110.637 55.8523 110.487 55.5213C110.291 55.0849 109.87 54.8893 109.358 54.8893C108.726 54.8893 108.41 55.1451 108.41 55.5965C108.41 56.755 112.458 56.409 112.458 59.2827C112.458 60.7271 111.329 61.7954 109.524 61.7954C108.049 61.7954 107.056 61.344 106.575 60.4111C106.274 59.8244 106.484 59.5385 106.996 59.2225C107.568 58.8915 107.974 58.9066 108.23 59.4482ZM117.555 61.6148H117.044C115.569 61.6148 114.275 61.028 114.275 59.1623V55.3708H113.733C113.222 55.3708 113.086 55.1301 113.086 54.5282C113.086 53.9264 113.222 53.6857 113.733 53.6857H114.275V52.3767C114.275 51.7598 114.576 51.5943 115.298 51.5943C116.02 51.5943 116.321 51.7598 116.321 52.3767V53.6857H117.405C117.916 53.6857 118.052 53.9264 118.052 54.5282C118.052 55.1301 117.916 55.3708 117.405 55.3708H116.382V58.7712C116.382 59.6438 116.577 59.8996 117.51 59.8996H117.555C118.082 59.8996 118.217 60.1403 118.217 60.7572C118.217 61.3741 118.082 61.6148 117.555 61.6148Z" fill="#00A9AC"/>
<path d="M39.1295 75.457H40.5438C41.928 75.457 42.575 75.126 42.575 74.0126C42.56 72.9444 41.8979 72.5833 40.8297 72.5833H39.1295V75.457ZM42.2891 69.6042V69.4387C42.2891 68.4607 41.6121 68.1899 40.4235 68.1899H39.1295V70.853H40.5589C41.8077 70.853 42.2891 70.3414 42.2891 69.6042ZM38.3321 66.3543H41.1005C43.237 66.3543 44.4106 67.4527 44.4106 69.0776V69.3183C44.4106 70.4317 43.8088 71.2893 42.8458 71.6354C43.9743 71.846 44.7416 72.7939 44.7416 74.133V74.3286C44.7416 76.104 43.4176 77.3678 41.0855 77.3678H38.3321C37.3842 77.3678 36.9629 77.1421 36.9629 76.2996V67.4226C36.9629 66.58 37.3842 66.3543 38.3321 66.3543ZM50.5077 74.9906V73.8321C48.311 73.7267 47.8746 74.1781 47.8746 74.9154V74.9455C47.8746 75.442 48.2057 75.8332 48.8225 75.8332C49.4845 75.8332 50.0864 75.5774 50.5077 74.9906ZM50.5678 76.7058V76.3447C50.0563 77.0067 49.3943 77.5183 48.2508 77.5183C46.7011 77.5183 45.7833 76.435 45.7833 75.1711V75.0658C45.7833 73.4559 46.8816 72.2372 50.5077 72.5532V71.9363C50.5077 71.1539 50.1466 70.6875 49.1234 70.6875C48.4163 70.6875 48.1154 70.9583 47.8746 71.3345C47.5888 71.7858 47.3631 71.831 46.8064 71.5301C46.2497 71.2592 45.9789 70.9583 46.2948 70.4167C46.8515 69.4537 47.7392 68.9723 49.4244 68.9723C51.1697 68.9723 52.5689 70.0405 52.5689 72.0567V76.7058C52.5689 77.3227 52.268 77.4882 51.5609 77.4882C50.8688 77.4882 50.5678 77.3227 50.5678 76.7058ZM54.4471 76.6456V69.8299C54.4471 69.2281 54.748 69.0475 55.4702 69.0475C56.1924 69.0475 56.4933 69.2281 56.4933 69.8299V70.2963C57.0048 69.7095 57.9076 68.9723 59.1865 68.9723C60.7663 68.9723 61.5637 70.1158 61.5637 71.4699V76.6456C61.5637 77.2776 61.2478 77.4581 60.5105 77.4581C59.7733 77.4581 59.4573 77.2776 59.4573 76.6456V72.0416C59.4573 71.4398 59.3369 70.6875 58.3138 70.6875C57.3659 70.6875 56.8393 71.3646 56.5535 71.9664V76.6456C56.5535 77.2776 56.2375 77.4581 55.5003 77.4581C54.763 77.4581 54.4471 77.2776 54.4471 76.6456ZM67.9992 72.2824L70.4065 76.4199C70.572 76.7058 70.6473 76.8713 70.6473 77.0067C70.6473 77.3227 70.3915 77.4731 69.6241 77.4731C68.8418 77.4731 68.6462 77.4431 68.3302 76.8713L66.5548 73.7117L65.5317 74.7499V76.6607C65.5317 77.2926 65.2157 77.4731 64.4785 77.4731C63.7412 77.4731 63.4253 77.2926 63.4253 76.6607V66.8508C63.4253 66.2189 63.7412 66.0384 64.4785 66.0384C65.2157 66.0384 65.5317 66.2189 65.5317 66.8508V72.3726L67.8638 69.6794C68.3152 69.1679 68.5108 69.0475 69.4436 69.0475C70.1507 69.0475 70.3915 69.2281 70.3915 69.4688C70.3915 69.6193 70.3162 69.7848 70.0755 70.0255L67.9992 72.2824ZM73.9795 76.6607C73.9795 77.2926 73.6636 77.4731 72.9263 77.4731C72.1891 77.4731 71.8731 77.2926 71.8731 76.6607V69.86C71.8731 69.2281 72.1891 69.0475 72.9263 69.0475C73.6636 69.0475 73.9795 69.2281 73.9795 69.86V76.6607ZM73.9795 66.7305C73.9795 66.1738 73.5733 66.0233 72.9263 66.0233C72.2794 66.0233 71.8731 66.1738 71.8731 66.7305V67.4376C71.8731 67.9943 72.2794 68.1448 72.9263 68.1448C73.5733 68.1448 73.9795 67.9943 73.9795 67.4376V66.7305ZM75.855 76.6456V69.8299C75.855 69.2281 76.1559 69.0475 76.8781 69.0475C77.6003 69.0475 77.9012 69.2281 77.9012 69.8299V70.2963C78.4128 69.7095 79.3155 68.9723 80.5944 68.9723C82.1742 68.9723 82.9716 70.1158 82.9716 71.4699V76.6456C82.9716 77.2776 82.6557 77.4581 81.9184 77.4581C81.1812 77.4581 80.8652 77.2776 80.8652 76.6456V72.0416C80.8652 71.4398 80.7449 70.6875 79.7217 70.6875C78.7739 70.6875 78.2473 71.3646 77.9614 71.9664V76.6456C77.9614 77.2776 77.6454 77.4581 76.9082 77.4581C76.1709 77.4581 75.855 77.2776 75.855 76.6456ZM88.5495 76.9465L87.5414 76.8262L87.0148 76.751C86.4732 76.9766 86.1572 77.3829 86.1572 77.9245C86.1572 78.6467 86.729 79.0379 87.8423 79.0379C89.3018 79.0379 89.6478 78.5113 89.6478 77.9396C89.6478 77.3829 89.4222 77.0669 88.5495 76.9465ZM89.1513 71.6655C89.1513 70.9433 88.7451 70.4618 87.8123 70.4618C86.8794 70.4618 86.4581 70.9433 86.4581 71.6655C86.4581 72.4178 86.9546 72.7789 87.8123 72.7789C88.6548 72.7789 89.1513 72.4178 89.1513 71.6655ZM91.6339 70.1609C91.2728 70.1609 91.0772 70.1609 90.7161 70.1609C90.9418 70.522 91.0922 70.9433 91.0922 71.4548V71.8611C91.0922 73.2603 89.8434 74.2684 87.6919 74.2684C87.3759 74.2684 87.06 74.2383 86.7741 74.1932C86.6688 74.2985 86.5935 74.4038 86.5935 74.5693C86.5935 74.81 86.8042 74.9304 87.0901 74.9755L89.2867 75.2614C91.1374 75.5022 91.664 76.4651 91.664 77.8944C91.664 79.3539 90.4754 80.6478 87.8423 80.6478C85.4501 80.6478 84.1561 79.7752 84.1561 78.2104C84.1561 77.3528 84.7429 76.7209 85.5253 76.3748C85.0739 76.119 84.8181 75.7278 84.8181 75.1862C84.8181 74.5994 85.1792 74.0878 85.6908 73.7869C84.8783 73.3205 84.5172 72.6284 84.5172 71.7106V71.5752C84.5172 69.9352 85.7961 68.9723 87.8123 68.9723C88.5044 68.9723 89.1664 69.1077 89.7381 69.3785C90.37 68.9723 91.1374 68.7165 91.6339 68.7165C92.0702 68.7165 92.1906 68.9271 92.1906 69.4387C92.1906 69.9503 92.0702 70.1609 91.6339 70.1609ZM97.2997 75.457H98.714C100.098 75.457 100.745 75.126 100.745 74.0126C100.73 72.9444 100.068 72.5833 98.9999 72.5833H97.2997V75.457ZM100.459 69.6042V69.4387C100.459 68.4607 99.7822 68.1899 98.5936 68.1899H97.2997V70.853H98.729C99.9778 70.853 100.459 70.3414 100.459 69.6042ZM96.5023 66.3543H99.2707C101.407 66.3543 102.581 67.4527 102.581 69.0776V69.3183C102.581 70.4317 101.979 71.2893 101.016 71.6354C102.144 71.846 102.912 72.7939 102.912 74.133V74.3286C102.912 76.104 101.588 77.3678 99.2556 77.3678H96.5023C95.5544 77.3678 95.1331 77.1421 95.1331 76.2996V67.4226C95.1331 66.58 95.5544 66.3543 96.5023 66.3543ZM108.482 70.9433C108.422 70.9433 108.287 70.9282 108.211 70.9282C107.233 70.9282 106.662 71.7106 106.466 72.3726V76.6456C106.466 77.2776 106.15 77.4581 105.413 77.4581C104.676 77.4581 104.36 77.2776 104.36 76.6456V69.86C104.36 69.2582 104.661 69.0776 105.383 69.0776C106.105 69.0776 106.406 69.2582 106.406 69.86V70.5521C106.857 69.7396 107.61 68.9873 108.557 68.9873C109.189 68.9873 109.28 69.3785 109.189 69.9653C109.054 70.7326 108.813 70.9734 108.482 70.9433ZM114.291 74.9906V73.8321C112.094 73.7267 111.658 74.1781 111.658 74.9154V74.9455C111.658 75.442 111.989 75.8332 112.605 75.8332C113.267 75.8332 113.869 75.5774 114.291 74.9906ZM114.351 76.7058V76.3447C113.839 77.0067 113.177 77.5183 112.034 77.5183C110.484 77.5183 109.566 76.435 109.566 75.1711V75.0658C109.566 73.4559 110.665 72.2372 114.291 72.5532V71.9363C114.291 71.1539 113.929 70.6875 112.906 70.6875C112.199 70.6875 111.898 70.9583 111.658 71.3345C111.372 71.7858 111.146 71.831 110.589 71.5301C110.033 71.2592 109.762 70.9583 110.078 70.4167C110.634 69.4537 111.522 68.9723 113.207 68.9723C114.953 68.9723 116.352 70.0405 116.352 72.0567V76.7058C116.352 77.3227 116.051 77.4882 115.344 77.4882C114.652 77.4882 114.351 77.3227 114.351 76.7058ZM118.23 76.6456V69.8299C118.23 69.2281 118.531 69.0475 119.253 69.0475C119.975 69.0475 120.276 69.2281 120.276 69.8299V70.2963C120.788 69.7095 121.691 68.9723 122.969 68.9723C124.549 68.9723 125.347 70.1158 125.347 71.4699V76.6456C125.347 77.2776 125.031 77.4581 124.293 77.4581C123.556 77.4581 123.24 77.2776 123.24 76.6456V72.0416C123.24 71.4398 123.12 70.6875 122.097 70.6875C121.149 70.6875 120.622 71.3646 120.336 71.9664V76.6456C120.336 77.2776 120.02 77.4581 119.283 77.4581C118.546 77.4581 118.23 77.2776 118.23 76.6456ZM132.354 73.817V72.3576C132.354 71.3345 131.587 70.6875 130.729 70.6875C129.811 70.6875 129.104 71.1088 129.104 72.6886V74.0578C129.104 75.2765 129.691 75.8332 130.684 75.8332C131.918 75.8332 132.354 74.9304 132.354 73.817ZM132.354 69.7095V66.8508C132.354 66.2189 132.67 66.0384 133.407 66.0384C134.144 66.0384 134.46 66.2189 134.46 66.8508V76.6607C134.46 77.2926 134.144 77.4731 133.407 77.4731C132.67 77.4731 132.414 77.2926 132.414 76.6607V76.5253C132.038 76.9917 131.24 77.5484 130.067 77.5484C128.352 77.5484 126.998 76.45 126.998 74.2834V72.2372C126.998 70.2963 128.171 68.9723 130.127 68.9723C131.09 68.9723 131.797 69.2431 132.354 69.7095Z" fill="#00A9AC"/>
<path d="M43.796 91.2401C43.5704 90.5931 43.8713 90.3524 44.4581 90.1418C45.1652 89.886 45.421 90.0214 45.6918 90.5781C45.9476 91.1197 46.5043 91.4658 47.4522 91.4658C48.1142 91.4658 49.032 91.1197 49.032 90.217C49.032 89.4045 48.4452 89.0133 47.0459 88.4115C44.9847 87.5238 43.9315 86.7414 43.9315 84.9359C43.9315 83.0853 45.5113 81.9268 47.3619 81.9268C49.4533 81.9268 50.5366 82.8446 50.9578 83.9579C51.1685 84.5146 50.8074 84.8005 50.1153 84.966C49.5134 85.1014 49.2577 85.0864 49.0621 84.6801C48.716 83.973 48.1744 83.7774 47.407 83.7774C46.5043 83.7774 46.0529 84.2438 46.0529 84.9359C46.0529 85.7183 46.7902 85.9891 48.4602 86.7264C50.2507 87.5238 51.2287 88.3664 51.2287 90.0966C51.2287 91.9322 49.7542 93.3014 47.392 93.3014C45.3006 93.3014 44.1872 92.3685 43.796 91.2401ZM59.7378 87.9451V90.0816C59.7378 92.1428 58.3987 93.3014 56.0816 93.3014C53.7495 93.3014 52.4405 92.1278 52.4405 90.1418V87.9451C52.4405 85.8688 53.7495 84.7253 56.0967 84.7253C58.3987 84.7253 59.7378 85.8688 59.7378 87.9451ZM57.6313 89.9763V88.0504C57.6313 86.8618 56.9392 86.4405 56.0816 86.4405C55.224 86.4405 54.547 86.8618 54.547 88.0654V89.9612C54.547 91.1649 55.224 91.5861 56.0816 91.5861C56.9392 91.5861 57.6313 91.1649 57.6313 89.9763ZM61.3772 90.8038V85.628C61.3772 84.9961 61.6931 84.8155 62.4304 84.8155C63.1676 84.8155 63.4986 84.9961 63.4986 85.628V90.2621C63.4986 91.2401 63.9048 91.5861 64.5669 91.5861C65.2138 91.5861 65.936 91.195 66.4024 90.5329V85.628C66.4024 84.9961 66.7184 84.8155 67.4556 84.8155C68.1929 84.8155 68.5089 84.9961 68.5089 85.628V92.4137C68.5089 93.0155 68.2079 93.196 67.4857 93.196C66.7635 93.196 66.4626 93.0155 66.4626 92.4137V92.2783C65.8307 92.8049 65.0784 93.3014 63.9048 93.3014C62.2197 93.3014 61.3772 92.3535 61.3772 90.8038ZM74.0867 93.1208H73.5752C72.1007 93.1208 70.8067 92.534 70.8067 90.6684V86.8768H70.2651C69.7535 86.8768 69.6181 86.6361 69.6181 86.0343C69.6181 85.4324 69.7535 85.1917 70.2651 85.1917H70.8067V83.8827C70.8067 83.2658 71.1077 83.1003 71.8299 83.1003C72.5521 83.1003 72.853 83.2658 72.853 83.8827V85.1917H73.9363C74.4478 85.1917 74.5832 85.4324 74.5832 86.0343C74.5832 86.6361 74.4478 86.8768 73.9363 86.8768H72.9132V90.2772C72.9132 91.1498 73.1087 91.4056 74.0416 91.4056H74.0867C74.6133 91.4056 74.7487 91.6463 74.7487 92.2632C74.7487 92.8801 74.6133 93.1208 74.0867 93.1208ZM76.3218 92.4137V82.6038C76.3218 81.9719 76.6378 81.7913 77.375 81.7913C78.1123 81.7913 78.4283 81.9719 78.4283 82.6038V86.0192C78.9549 85.4023 79.647 84.7253 80.9559 84.7253C82.4605 84.7253 83.4535 85.7484 83.4535 87.3733V92.4137C83.4535 93.0456 83.1225 93.2261 82.3853 93.2261C81.648 93.2261 81.3321 93.0456 81.3321 92.4137V87.7946C81.3321 86.922 80.971 86.4405 80.1585 86.4405C79.3009 86.4405 78.7141 87.0423 78.4283 87.7194V92.4137C78.4283 93.0456 78.1123 93.2261 77.375 93.2261C76.6378 93.2261 76.3218 93.0456 76.3218 92.4137ZM92.438 88.5469L91.2644 84.3491L90.0006 88.5469H92.438ZM92.6938 82.664L95.6879 92.3384C95.8835 92.9553 95.4923 93.2111 94.7701 93.2111C94.0178 93.2111 93.7169 93.0907 93.5815 92.5942L92.9345 90.3223H89.4589L88.7518 92.6243C88.6013 93.0907 88.3305 93.2111 87.6534 93.2111C86.871 93.2111 86.6303 92.9553 86.8109 92.3836L89.9253 82.664C90.0908 82.1224 90.5272 81.9869 91.4149 81.9869C92.0618 81.9869 92.5283 82.1374 92.6938 82.664ZM97.5389 92.4137V86.8768H96.9972C96.4857 86.8768 96.3502 86.6361 96.3502 86.0343C96.3502 85.4324 96.4857 85.1917 96.9972 85.1917H97.5389V84.7704C97.5389 82.8897 98.4115 81.8365 100.352 81.8365C101.15 81.8365 101.812 82.1073 102.278 82.5587C102.7 82.9649 102.549 83.2809 102.173 83.657C101.752 84.0633 101.406 84.1385 101.15 83.8526C100.954 83.642 100.729 83.5517 100.398 83.5517C99.901 83.5517 99.6453 83.8526 99.6453 84.4093V85.1917H101.255C101.767 85.1917 101.902 85.4324 101.902 86.0343C101.902 86.6361 101.767 86.8768 101.255 86.8768H99.6453V92.4137C99.6453 93.0456 99.3293 93.2261 98.5921 93.2261C97.8548 93.2261 97.5389 93.0456 97.5389 92.4137ZM107.097 86.6963C107.037 86.6963 106.901 86.6812 106.826 86.6812C105.848 86.6812 105.277 87.4636 105.081 88.1256V92.3986C105.081 93.0305 104.765 93.2111 104.028 93.2111C103.29 93.2111 102.975 93.0305 102.975 92.3986V85.613C102.975 85.0111 103.275 84.8306 103.998 84.8306C104.72 84.8306 105.021 85.0111 105.021 85.613V86.3051C105.472 85.4926 106.224 84.7403 107.172 84.7403C107.804 84.7403 107.894 85.1315 107.804 85.7183C107.669 86.4856 107.428 86.7264 107.097 86.6963ZM110.841 92.4137C110.841 93.0456 110.525 93.2261 109.787 93.2261C109.05 93.2261 108.734 93.0456 108.734 92.4137V85.613C108.734 84.9811 109.05 84.8005 109.787 84.8005C110.525 84.8005 110.841 84.9811 110.841 85.613V92.4137ZM110.841 82.4835C110.841 81.9268 110.434 81.7763 109.787 81.7763C109.14 81.7763 108.734 81.9268 108.734 82.4835V83.1906C108.734 83.7473 109.14 83.8978 109.787 83.8978C110.434 83.8978 110.841 83.7473 110.841 83.1906V82.4835ZM119.141 86.8768C119.291 87.4486 118.99 87.7043 118.328 87.8398C117.636 88.0053 117.38 87.8698 117.245 87.3733C117.094 86.8618 116.643 86.4405 116.011 86.4405C115.199 86.4405 114.642 86.9069 114.642 88.1557V90.0063C114.642 91.1348 115.199 91.5861 116.086 91.5861C116.809 91.5861 117.094 91.1498 117.335 90.6834C117.546 90.2772 117.937 90.2621 118.539 90.6082C119.065 90.9241 119.261 91.21 118.96 91.8118C118.524 92.6845 117.546 93.3014 116.026 93.3014C113.995 93.3014 112.536 92.2181 112.536 90.0063V88.0353C112.536 85.8387 114.175 84.7253 116.011 84.7253C117.576 84.7253 118.764 85.4776 119.141 86.8768ZM125.145 90.7436V89.5851C122.948 89.4797 122.512 89.9311 122.512 90.6684V90.6984C122.512 91.195 122.843 91.5861 123.46 91.5861C124.122 91.5861 124.724 91.3304 125.145 90.7436ZM125.205 92.4588V92.0977C124.693 92.7597 124.031 93.2713 122.888 93.2713C121.338 93.2713 120.42 92.188 120.42 90.9241V90.8188C120.42 89.2089 121.519 87.9902 125.145 88.3062V87.6893C125.145 86.9069 124.784 86.4405 123.761 86.4405C123.053 86.4405 122.753 86.7113 122.512 87.0875C122.226 87.5388 122 87.584 121.444 87.2831C120.887 87.0122 120.616 86.7113 120.932 86.1697C121.489 85.2067 122.376 84.7253 124.062 84.7253C125.807 84.7253 127.206 85.7935 127.206 87.8097V92.4588C127.206 93.0757 126.905 93.2412 126.198 93.2412C125.506 93.2412 125.205 93.0757 125.205 92.4588Z" fill="#00A9AC"/>
<path d="M13.9798 82.1871L14.1606 81.4457C14.2511 81.0297 14.5766 80.7222 14.9745 80.6137L18.5915 79.6371C19.4234 79.4201 20.3096 79.6371 20.9426 80.2159L21.2319 80.4871L21.1234 80.8669C20.8702 81.6808 20.2191 82.3137 19.3872 82.5488L15.7702 83.5254C15.3723 83.6339 14.9383 83.5254 14.6489 83.1999L14.1245 82.6393C14.016 82.5127 13.9617 82.3499 13.9979 82.1871H13.9798ZM155.912 44.1722L155.387 43.6116C155.098 43.3042 154.664 43.1776 154.266 43.2861L150.649 44.2627C149.817 44.4797 149.166 45.1127 148.913 45.9446L148.804 46.3244L149.094 46.5957C149.727 47.1744 150.613 47.3914 151.445 47.1744L155.062 46.1978C155.46 46.0893 155.785 45.7637 155.876 45.3659L156.056 44.6244C156.093 44.4616 156.056 44.2988 155.93 44.1722H155.912ZM12.7138 76.5627C12.6596 76.7254 12.6957 76.8882 12.8043 77.0148L13.2926 77.6116C13.5638 77.9371 13.9798 78.0999 14.3957 78.0095L18.067 77.3222C18.917 77.1595 19.6223 76.5808 19.9298 75.785L20.0745 75.4233L19.8032 75.1339C19.2245 74.501 18.3564 74.2116 17.5064 74.3744L13.8351 75.0616C13.4191 75.1339 13.0755 75.4414 12.9489 75.8393L12.7138 76.5627ZM165.28 46.5414L160.505 47.4276C159.963 47.5361 159.529 47.9159 159.348 48.4403L159.221 48.802C158.95 47.4095 158.624 46.0169 158.281 44.6244L158.552 44.9137C158.932 45.3116 159.493 45.4744 160.017 45.3297L164.719 44.0637C165.804 43.7744 166.654 42.9605 166.98 41.8935L167.124 41.4052L166.745 41.0616C165.931 40.302 164.773 40.0127 163.688 40.302L158.986 41.568C158.462 41.7127 158.046 42.1286 157.919 42.6531L157.829 43.0329C157.449 41.6584 157.033 40.284 156.563 38.9457L156.852 39.1988C157.268 39.5605 157.829 39.6691 158.353 39.4882L162.929 37.8605C163.978 37.4808 164.773 36.5946 165.009 35.5095L165.117 35.0031L164.719 34.6776C163.851 33.9903 162.676 33.7914 161.627 34.1712L157.051 35.7988C156.545 35.9797 156.165 36.4318 156.074 36.9744L156.02 37.3542C155.532 36.0159 155.007 34.6957 154.429 33.3935L154.736 33.6286C155.17 33.9542 155.749 34.0265 156.255 33.8095L160.704 31.8382C161.717 31.3861 162.44 30.4457 162.603 29.3244L162.676 28.818L162.241 28.5286C161.319 27.9137 160.126 27.8052 159.113 28.2574L154.664 30.2286C154.157 30.4457 153.832 30.934 153.778 31.4765L153.741 31.8563C153.145 30.5542 152.53 29.2882 151.861 28.0222L152.186 28.2212C152.638 28.5105 153.235 28.5467 153.705 28.2754L157.973 25.9605C158.95 25.4361 159.601 24.4233 159.655 23.3201L159.691 22.8137L159.239 22.5605C158.263 22.018 157.087 21.9999 156.093 22.5425L151.824 24.8574C151.336 25.1105 151.047 25.6169 151.047 26.1595V26.5393C150.36 25.2914 149.636 24.0797 148.877 22.8861L149.22 23.0669C149.709 23.3201 150.287 23.302 150.739 23.0127L154.809 20.3722C155.749 19.7574 156.31 18.7265 156.291 17.6052V17.0988L155.821 16.8818C154.809 16.4116 153.633 16.502 152.693 17.0988L148.623 19.7393C148.171 20.0286 147.9 20.5531 147.954 21.1137L147.99 21.4935C147.213 20.318 146.381 19.1605 145.531 18.0212L145.874 18.184C146.381 18.401 146.96 18.3286 147.394 18.0031L151.246 15.0371C152.132 14.3499 152.602 13.2648 152.494 12.1616L152.439 11.6552L151.951 11.4744C150.902 11.0946 149.727 11.2574 148.84 11.9446L144.988 14.9105C144.554 15.2361 144.337 15.7786 144.428 16.3212L144.482 16.701C143.614 15.5797 142.691 14.4946 141.751 13.4276L142.113 13.5542C142.637 13.735 143.198 13.6265 143.614 13.2467L147.231 9.9914C148.063 9.24991 148.443 8.12863 148.262 7.02544L148.171 6.51906L147.683 6.37437C146.616 6.06693 145.459 6.3382 144.627 7.07969L141.01 10.335C140.612 10.6967 140.431 11.2574 140.557 11.7999L140.648 12.1797C139.689 11.1308 138.695 10.118 137.664 9.12331L138.044 9.23182C138.568 9.3765 139.129 9.21374 139.509 8.81586L142.854 5.28927C143.614 4.47544 143.921 3.33608 143.65 2.25097L143.523 1.74459L143.017 1.63608C141.914 1.41906 140.793 1.78076 140.015 2.5765L136.669 6.1031C136.289 6.50097 136.163 7.06161 136.326 7.58608L136.452 7.96586C133.341 5.09033 129.996 2.44991 126.397 0.0988428C126.107 -0.0820083 125.728 -0.00966783 125.529 0.279694C125.348 0.569056 125.42 0.948843 125.71 1.14778C141.046 11.1669 152.114 26.4488 156.852 44.1542C161.59 61.8595 159.655 80.6137 151.39 96.9627C151.228 97.2701 151.354 97.6499 151.662 97.7946C151.806 97.8669 151.969 97.885 152.114 97.8488C152.277 97.8127 152.421 97.6861 152.512 97.5233C154.447 93.6893 156.038 89.7286 157.286 85.6776L157.377 86.0574C157.485 86.5999 157.883 87.0159 158.407 87.1786L163.073 88.5531C164.14 88.8786 165.298 88.6074 166.148 87.8839L166.528 87.5403L166.383 87.052C166.076 85.985 165.244 85.135 164.177 84.8095L159.511 83.435C158.986 83.2722 158.426 83.435 158.028 83.8148L157.756 84.0861C158.154 82.7116 158.498 81.3371 158.805 79.9446L158.914 80.3063C159.077 80.8308 159.493 81.2286 160.035 81.3371L164.791 82.3499C165.877 82.585 167.016 82.2414 167.794 81.4276L168.155 81.0659L167.974 80.5776C167.595 79.5286 166.69 78.751 165.605 78.5159L160.849 77.5031C160.306 77.3946 159.764 77.5754 159.402 77.9914L159.149 78.2808C159.42 76.8882 159.673 75.4957 159.872 74.085L160.017 74.4467C160.216 74.9531 160.668 75.3148 161.211 75.3871L166.039 76.0201C167.143 76.1648 168.246 75.7308 168.969 74.8808L169.295 74.4829L169.078 74.0127C168.607 72.9999 167.649 72.2946 166.546 72.1499L161.717 71.5169C161.174 71.4446 160.632 71.6797 160.306 72.1137L160.089 72.4212C160.252 71.0105 160.397 69.5999 160.487 68.1893L160.65 68.5329C160.885 69.0212 161.373 69.3467 161.916 69.3829L166.763 69.6361C167.884 69.6903 168.951 69.1839 169.584 68.2616L169.873 67.8457L169.62 67.3935C169.078 66.4169 168.065 65.7839 166.962 65.7297L162.115 65.4765C161.572 65.4403 161.048 65.7116 160.759 66.1818L160.56 66.5074C160.614 65.0967 160.632 63.668 160.614 62.2574L160.813 62.5829C161.084 63.0531 161.59 63.3425 162.151 63.3244L167.016 63.1978C168.137 63.1616 169.15 62.5648 169.729 61.6063L170 61.1722L169.711 60.7382C169.096 59.8159 168.047 59.2552 166.926 59.2914L162.061 59.418C161.518 59.418 161.012 59.7435 160.777 60.2318L160.596 60.5754C160.541 59.1648 160.451 57.7361 160.306 56.3254L160.523 56.651C160.831 57.1031 161.373 57.3382 161.916 57.284L166.745 56.7776C167.848 56.6691 168.824 55.9818 169.313 54.9871L169.548 54.5169L169.222 54.1191C168.535 53.2329 167.432 52.7808 166.329 52.8893L161.5 53.3957C160.957 53.4499 160.487 53.7935 160.27 54.2999L160.126 54.6616C159.963 53.251 159.764 51.8403 159.511 50.4297L159.764 50.7371C160.107 51.1531 160.65 51.3701 161.193 51.2616L165.967 50.3754C167.07 50.1765 167.974 49.4169 168.39 48.3861L168.571 47.9159L168.228 47.5361C167.468 46.7223 166.347 46.3425 165.244 46.5414H165.28ZM157.286 50.2308C157.34 50.068 157.304 49.9052 157.196 49.7786L156.707 49.1818C156.436 48.8563 156.02 48.6935 155.604 48.784L151.933 49.4712C151.083 49.634 150.378 50.2127 150.07 51.0084L149.926 51.3701L150.197 51.6595C150.776 52.2925 151.644 52.5818 152.494 52.4191L156.165 51.7318C156.581 51.6595 156.924 51.352 157.051 50.9542L157.286 50.2308ZM12.2074 70.1425L11.9181 70.8478C11.8638 70.9925 11.8819 71.1733 11.9723 71.2999L12.4064 71.9329C12.6415 72.2765 13.0574 72.4754 13.4734 72.4212L17.1989 72.0233C18.0489 71.9329 18.8085 71.4084 19.1702 70.6488L19.3511 70.2871L19.0979 69.9797C18.5734 69.3105 17.7234 68.9488 16.8734 69.0393L13.1479 69.4371C12.7319 69.4733 12.3702 69.7446 12.2074 70.1425ZM157.793 56.6691L158.082 55.9637C158.136 55.8191 158.118 55.6382 158.028 55.5116L157.594 54.8786C157.359 54.535 156.943 54.3361 156.527 54.3903L152.801 54.7882C151.951 54.8786 151.191 55.4031 150.812 56.1627L150.631 56.5244L150.884 56.8318C151.409 57.501 152.259 57.8627 153.109 57.7723L156.834 57.3744C157.25 57.3382 157.612 57.0669 157.774 56.6691H157.793ZM11.9 64.4095L11.5564 65.0967C11.484 65.2414 11.484 65.4222 11.5564 65.5488L11.9362 66.218C12.1532 66.5797 12.533 66.7967 12.967 66.7967L16.7106 66.7063C17.5606 66.6882 18.3564 66.218 18.7904 65.4765L18.9894 65.1329L18.7723 64.8074C18.3021 64.0839 17.4883 63.668 16.6202 63.6861L12.8766 63.7765C12.4606 63.7765 12.0809 64.0297 11.8819 64.4095H11.9ZM158.1 62.3839L158.444 61.6967C158.516 61.552 158.516 61.3712 158.444 61.2446L158.064 60.5754C157.847 60.2137 157.467 59.9967 157.033 59.9967L153.289 60.0871C152.439 60.1052 151.644 60.5754 151.21 61.3169L151.011 61.6605L151.228 61.9861C151.698 62.7095 152.512 63.1254 153.38 63.1074L157.123 63.0169C157.539 63.0169 157.919 62.7637 158.118 62.3839H158.1ZM12.0447 58.6765L11.6468 59.3276C11.5564 59.4722 11.5564 59.635 11.6287 59.7797L11.9543 60.4669C12.1351 60.8467 12.5149 61.0999 12.9309 61.118L16.6745 61.3169C17.5245 61.3531 18.3564 60.9552 18.8447 60.268L19.0798 59.9425L18.8809 59.5988C18.4649 58.8574 17.6872 58.3691 16.8372 58.3148L13.0936 58.1159C12.6777 58.0978 12.2798 58.2967 12.0628 58.6584L12.0447 58.6765ZM157.955 68.135L158.353 67.4839C158.444 67.3393 158.444 67.1765 158.371 67.0318L158.046 66.3446C157.865 65.9648 157.485 65.7116 157.069 65.6935L153.326 65.4946C152.476 65.4584 151.644 65.8563 151.155 66.5435L150.92 66.8691L151.119 67.2127C151.535 67.9542 152.313 68.4425 153.163 68.4967L156.906 68.6957C157.322 68.7137 157.72 68.5148 157.937 68.1531L157.955 68.135ZM12.6415 52.9616L12.1894 53.5765C12.0989 53.7031 12.0628 53.884 12.1351 54.0286L12.4064 54.752C12.5511 55.1499 12.9128 55.4212 13.3287 55.4754L17.0362 55.9637C17.8862 56.0723 18.7362 55.7467 19.2787 55.0776L19.5319 54.7701L19.3691 54.4084C19.0074 53.6308 18.284 53.0882 17.434 52.9797L13.7266 52.4914C13.3106 52.4371 12.8947 52.618 12.6415 52.9616ZM157.359 73.8318L157.811 73.2169C157.901 73.0903 157.937 72.9095 157.865 72.7648L157.594 72.0414C157.449 71.6435 157.087 71.3722 156.671 71.318L152.964 70.8297C152.114 70.7212 151.264 71.0467 150.721 71.7159L150.468 72.0233L150.631 72.385C150.993 73.1627 151.716 73.7052 152.566 73.8137L156.273 74.302C156.689 74.3563 157.105 74.1754 157.359 73.8318ZM14.1787 49.8871L17.8319 50.6648C18.6638 50.8457 19.55 50.5744 20.1468 49.9595L20.4181 49.6701L20.2734 49.2903C19.984 48.4765 19.2968 47.8797 18.4468 47.7169L14.7936 46.9393C14.3777 46.8488 13.9617 46.9935 13.6904 47.3191L13.184 47.8978C13.0755 48.0244 13.0394 48.1871 13.0936 48.3499L13.3106 49.0914C13.4372 49.4893 13.7628 49.7967 14.1787 49.8871ZM155.821 76.9244L152.168 76.1467C151.336 75.9659 150.45 76.2371 149.853 76.852L149.582 77.1414L149.727 77.5212C150.016 78.335 150.703 78.9318 151.553 79.0946L155.206 79.8722C155.622 79.9627 156.038 79.818 156.31 79.4925L156.816 78.9137C156.924 78.7871 156.961 78.6244 156.906 78.4616L156.689 77.7201C156.563 77.3222 156.237 77.0148 155.821 76.9244ZM21.5936 44.2627C21.3585 43.4308 20.7255 42.7797 19.8936 42.5446L16.3128 41.4776C15.9149 41.351 15.4809 41.4776 15.1734 41.7669L14.6309 42.3095C14.5223 42.418 14.4681 42.5988 14.5043 42.7435L14.667 43.5031C14.7574 43.9191 15.0649 44.2446 15.4628 44.3712L19.0436 45.4382C19.8755 45.6733 20.7617 45.4925 21.3947 44.9137L21.684 44.6605L21.5755 44.2808L21.5936 44.2627ZM148.406 82.5308C148.641 83.3627 149.274 84.0137 150.106 84.2488L153.687 85.3159C154.085 85.4425 154.519 85.3159 154.827 85.0265L155.369 84.484C155.478 84.3754 155.532 84.1946 155.496 84.0499L155.333 83.2903C155.243 82.8744 154.935 82.5488 154.537 82.4222L150.956 81.3552C150.124 81.1201 149.238 81.301 148.605 81.8797L148.316 82.1329L148.424 82.5127L148.406 82.5308ZM16.4032 88.6616C16.7106 88.951 17.1628 89.0233 17.5606 88.8967L21.0872 87.6488C21.9011 87.3595 22.4979 86.6722 22.6968 85.8403L22.7872 85.4605L22.4798 85.2074C21.8106 84.6829 20.9064 84.5201 20.0926 84.8095L16.566 86.0574C16.1681 86.202 15.8787 86.5457 15.8064 86.9616L15.6798 87.7212C15.6617 87.8839 15.716 88.0467 15.8245 88.1552L16.4032 88.6616ZM153.597 38.1499C153.289 37.8605 152.837 37.7882 152.439 37.9148L148.913 39.1627C148.099 39.452 147.502 40.1393 147.303 40.9712L147.213 41.351L147.52 41.6042C148.189 42.1286 149.094 42.2914 149.907 42.002L153.434 40.7542C153.832 40.6095 154.121 40.2659 154.194 39.8499L154.32 39.0903C154.338 38.9276 154.284 38.7648 154.176 38.6563L153.597 38.1499ZM18.5915 93.9605C18.917 94.2137 19.3691 94.268 19.7489 94.1052L23.167 92.5861C23.9447 92.2425 24.5053 91.501 24.6319 90.651L24.6862 90.2531L24.3606 90.0361C23.6553 89.5659 22.733 89.4754 21.9553 89.8371L18.5372 91.3563C18.1574 91.5191 17.8862 91.8988 17.85 92.3148L17.7957 93.0744C17.7957 93.2371 17.85 93.3999 17.9766 93.4903L18.5915 93.9605ZM151.409 32.851C151.083 32.5978 150.631 32.5435 150.251 32.7063L146.833 34.2254C146.055 34.5691 145.495 35.3105 145.368 36.1605L145.314 36.5584L145.639 36.7754C146.345 37.2457 147.267 37.3361 148.045 36.9744L151.463 35.4552C151.843 35.2925 152.114 34.9127 152.15 34.4967L152.204 33.7371C152.204 33.5744 152.15 33.4116 152.023 33.3212L151.409 32.851ZM21.1957 99.0786C21.5574 99.3137 21.9915 99.3318 22.3713 99.1148L25.6628 97.3244C26.4223 96.9084 26.9106 96.1488 26.9649 95.2808V94.8829L26.6394 94.6839C25.8979 94.268 24.9755 94.2499 24.216 94.6659L20.9245 96.4563C20.5628 96.6552 20.3277 97.035 20.3277 97.4691V98.2467C20.3277 98.4095 20.4 98.5542 20.5447 98.6446L21.1957 99.0605V99.0786ZM148.804 27.7329C148.443 27.4978 148.009 27.4797 147.629 27.6967L144.337 29.4871C143.578 29.9031 143.089 30.6627 143.035 31.5308V31.9286L143.361 32.1276C144.102 32.5435 145.024 32.5616 145.784 32.1457L149.076 30.3552C149.437 30.1563 149.672 29.7765 149.672 29.3425V28.5648C149.672 28.402 149.6 28.2574 149.455 28.1669L148.804 27.751V27.7329ZM24.1979 103.98C24.5596 104.179 25.0117 104.161 25.3734 103.925L28.5021 101.882C29.2255 101.412 29.6596 100.616 29.6415 99.7478V99.3499L29.2798 99.1871C28.5021 98.8254 27.5979 98.8978 26.8745 99.3499L23.7457 101.394C23.384 101.629 23.1851 102.027 23.2213 102.442L23.2755 103.202C23.2755 103.365 23.384 103.509 23.5287 103.582L24.216 103.944L24.1979 103.98ZM145.802 22.8318C145.44 22.6329 144.988 22.651 144.627 22.8861L141.498 24.9297C140.774 25.3999 140.34 26.1957 140.359 27.0637V27.4616L140.72 27.6244C141.498 27.9861 142.402 27.9137 143.126 27.4616L146.254 25.418C146.616 25.1829 146.815 24.785 146.779 24.3691L146.724 23.6095C146.724 23.4467 146.616 23.302 146.471 23.2297L145.784 22.868L145.802 22.8318ZM27.5617 108.609C27.9415 108.772 28.3936 108.718 28.7191 108.465L31.6851 106.186C32.3723 105.662 32.734 104.83 32.6436 103.98L32.6074 103.582L32.2277 103.437C31.4138 103.13 30.5277 103.274 29.8404 103.799L26.8745 106.078C26.5489 106.331 26.3681 106.747 26.4404 107.163L26.567 107.922C26.5851 108.085 26.6936 108.212 26.8383 108.284L27.5436 108.591L27.5617 108.609ZM142.438 18.184C142.059 18.0212 141.606 18.0754 141.281 18.3286L138.315 20.6074C137.628 21.1318 137.266 21.9637 137.356 22.8137L137.393 23.2116L137.772 23.3563C138.586 23.6637 139.472 23.5191 140.16 22.9946L143.126 20.7159C143.451 20.4627 143.632 20.0467 143.56 19.6308L143.433 18.8712C143.415 18.7084 143.306 18.5818 143.162 18.5095L142.456 18.202L142.438 18.184ZM30.5638 112.733L31.2872 112.986C31.6851 113.131 32.1192 113.04 32.4447 112.751L35.2298 110.255C35.8628 109.677 36.1702 108.827 36.0255 107.977L35.9532 107.579L35.5734 107.47C34.7415 107.235 33.8553 107.434 33.2223 108.013L30.4372 110.508C30.1298 110.798 29.9851 111.214 30.0936 111.63L30.2745 112.371C30.3106 112.534 30.4191 112.661 30.5819 112.715L30.5638 112.733ZM139.436 14.0786L138.713 13.8254C138.315 13.6808 137.881 13.7712 137.555 14.0605L134.77 16.5563C134.137 17.135 133.83 17.985 133.974 18.835L134.047 19.2329L134.427 19.3414C135.259 19.5765 136.145 19.3776 136.778 18.7988L139.563 16.3031C139.87 16.0137 140.015 15.5978 139.906 15.1818L139.726 14.4403C139.689 14.2776 139.581 14.151 139.418 14.0967L139.436 14.0786ZM34.5968 116.856L35.3383 117.055C35.7362 117.164 36.1702 117.055 36.4596 116.73L39.0277 114.017C39.6245 113.402 39.8415 112.516 39.6426 111.684L39.5521 111.304L39.1723 111.232C38.3223 111.069 37.4543 111.34 36.8755 111.955L34.3074 114.668C34.0181 114.975 33.9096 115.409 34.0543 115.807L34.2894 116.549C34.3436 116.712 34.4702 116.82 34.6149 116.856H34.5968ZM135.403 9.95523L134.662 9.75629C134.264 9.64778 133.83 9.75629 133.54 10.0818L130.972 12.7946C130.376 13.4095 130.159 14.2957 130.357 15.1276L130.448 15.5074L130.828 15.5797C131.678 15.7425 132.546 15.4712 133.124 14.8563L135.693 12.1435C135.982 11.8361 136.09 11.402 135.946 11.0042L135.711 10.2627C135.656 10.0999 135.53 9.9914 135.385 9.95523H135.403ZM18.3202 28.9988C18.0128 28.8361 17.633 28.9627 17.4883 29.2701C15.5532 33.1042 13.9617 37.0648 12.7138 41.1159L12.6234 40.7361C12.5149 40.1935 12.117 39.7776 11.5926 39.6148L6.9266 38.2403C5.85957 37.9148 4.70213 38.1861 3.85213 38.9095L3.47234 39.2531L3.61702 39.7414C3.92447 40.8084 4.75638 41.6584 5.8234 41.984L10.4894 43.3584C11.0138 43.5212 11.5745 43.3584 11.9723 42.9786L12.2436 42.7074C11.8457 44.0818 11.5021 45.4563 11.1947 46.8488L11.0862 46.4871C10.9234 45.9627 10.5074 45.5648 9.96489 45.4563L5.20851 44.4435C4.1234 44.2084 2.98404 44.552 2.20638 45.3659L1.84468 45.7276L2.02553 46.2159C2.40532 47.2648 3.30957 48.0425 4.39468 48.2776L9.15106 49.2903C9.69362 49.3988 10.2362 49.218 10.5979 48.802L10.8511 48.5127C10.5798 49.9052 10.3266 51.2978 10.1277 52.7084L9.98298 52.3467C9.78404 51.8403 9.33192 51.4786 8.78936 51.4063L3.96064 50.7733C2.85745 50.6286 1.75426 51.0627 1.03085 51.9127L0.705319 52.3105L0.92234 52.7808C1.39255 53.7935 2.33298 54.4988 3.45426 54.6435L8.28298 55.2765C8.82553 55.3488 9.36809 55.1137 9.69362 54.6797L9.91064 54.3722C9.74787 55.7829 9.60319 57.1935 9.51277 58.6042L9.35 58.2605C9.11489 57.7722 8.6266 57.4467 8.08404 57.4105L3.23723 57.1574C2.11596 57.1031 1.04894 57.6095 0.415957 58.5318L0.126596 58.9478L0.379787 59.3999C0.92234 60.3765 1.93511 61.0095 3.0383 61.0637L7.88511 61.3169C8.42766 61.3531 8.95213 61.0818 9.24149 60.6116L9.44043 60.2861C9.38617 61.6967 9.36809 63.1254 9.38617 64.5361L9.18723 64.2105C8.91596 63.7403 8.40957 63.451 7.84894 63.4691L2.98404 63.5956C1.86277 63.6318 0.85 64.2286 0.271277 65.1871L0 65.6212L0.289362 66.0552C0.904255 66.9776 1.95319 67.5382 3.07447 67.502L7.93936 67.3754C8.48191 67.3754 8.9883 67.0499 9.2234 66.5616L9.40426 66.218C9.45851 67.6286 9.54894 69.0574 9.69362 70.468L9.4766 70.1425C9.16915 69.6903 8.6266 69.4552 8.08404 69.5095L3.25532 70.0159C2.15213 70.1244 1.17553 70.8116 0.687234 71.8063L0.452128 72.2765L0.77766 72.6744C1.46489 73.5605 2.56809 74.0127 3.67128 73.9042L8.5 73.3978C9.04255 73.3435 9.51277 72.9999 9.72979 72.4935L9.87447 72.1318C10.0372 73.5425 10.2362 74.9531 10.4894 76.3637L10.2362 76.0563C9.89255 75.6403 9.35 75.4233 8.80745 75.5318L4.03298 76.418C2.92979 76.6169 2.02553 77.3765 1.60957 78.4074L1.42872 78.8776L1.77234 79.2574C2.53191 80.0712 3.65319 80.451 4.75638 80.252L9.53085 79.3659C10.0734 79.2574 10.5074 78.8776 10.6883 78.3531L10.8149 77.9914C11.0862 79.384 11.4117 80.7765 11.7553 82.1691L11.484 81.8797C11.1043 81.4818 10.5436 81.3191 10.0191 81.4637L5.31702 82.7297C4.23192 83.0191 3.38192 83.8329 3.05638 84.8999L2.9117 85.3882L3.29149 85.7318C4.10532 86.4914 5.26277 86.7808 6.34787 86.4914L11.05 85.2254C11.5745 85.0808 11.9904 84.6648 12.117 84.1403L12.2074 83.7605C12.5872 85.135 13.0032 86.5095 13.4734 87.8478L13.184 87.5946C12.7681 87.2329 12.2074 87.1244 11.683 87.3052L7.10745 88.9329C6.05851 89.3127 5.26277 90.1988 5.02766 91.2839L4.91915 91.7903L5.31702 92.1159C6.18511 92.8031 7.36064 93.002 8.40957 92.6222L12.9851 90.9946C13.4915 90.8137 13.8713 90.3616 13.9617 89.8191L14.016 89.4393C14.5043 90.7776 15.0287 92.0978 15.6074 93.3999L15.3 93.1648C14.866 92.8393 14.2872 92.7669 13.7809 92.9839L9.33191 94.9552C8.31915 95.4073 7.59575 96.3478 7.43298 97.4691L7.36064 97.9754L7.79468 98.2648C8.71702 98.8797 9.91064 98.9882 10.9234 98.5361L15.3723 96.5648C15.8787 96.3478 16.2043 95.8595 16.2585 95.3169L16.2947 94.9371C16.8915 96.2393 17.5064 97.5052 18.1755 98.7712L17.85 98.5542C17.3979 98.2648 16.8011 98.2286 16.3309 98.4999L12.0628 100.815C11.0862 101.339 10.4351 102.352 10.3809 103.455L10.3447 103.962L10.7968 104.215C11.7734 104.757 12.9489 104.775 13.9436 104.233L18.2117 101.918C18.7 101.665 18.9894 101.158 18.9894 100.616V100.236C19.6766 101.484 20.4 102.696 21.1596 103.889L20.816 103.708C20.3277 103.455 19.7489 103.473 19.2968 103.763L15.2277 106.403C14.2872 107.018 13.7266 108.049 13.7447 109.17V109.677L14.2149 109.894C15.2277 110.364 16.4032 110.273 17.3436 109.677L21.4128 107.036C21.8649 106.747 22.1362 106.222 22.0819 105.662L22.0457 105.282C22.8234 106.457 23.6553 107.615 24.5053 108.754L24.1617 108.591C23.6553 108.374 23.0766 108.447 22.6426 108.772L18.7904 111.738C17.9043 112.425 17.434 113.511 17.5426 114.614L17.5968 115.12L18.0851 115.301C19.134 115.681 20.3096 115.518 21.1957 114.831L25.0479 111.865C25.4819 111.539 25.6989 110.997 25.6085 110.454L25.5543 110.074C26.4223 111.196 27.3447 112.281 28.2851 113.348L27.9234 113.221C27.3989 113.04 26.8383 113.149 26.4223 113.529L22.8053 116.784C21.9734 117.525 21.5936 118.647 21.7745 119.75L21.8649 120.256L22.3532 120.401C23.4202 120.708 24.5777 120.437 25.4096 119.696L29.0266 116.44C29.4245 116.079 29.6053 115.518 29.4787 114.975L29.3883 114.596C30.3468 115.645 31.3415 116.657 32.3723 117.652L31.9926 117.544C31.4681 117.399 30.9074 117.562 30.5277 117.959L27.1819 121.486C26.4223 122.3 26.1149 123.439 26.3862 124.524L26.5128 125.031L27.0191 125.139C28.1223 125.356 29.2436 124.995 30.0213 124.199L33.367 120.672C33.7468 120.274 33.8734 119.714 33.7106 119.189L33.584 118.809C36.6947 121.685 40.0585 124.325 43.6394 126.677C43.8021 126.785 43.983 126.803 44.1457 126.749C44.2904 126.713 44.417 126.622 44.5074 126.496C44.6883 126.206 44.616 125.827 44.3266 125.628C28.9904 115.608 17.9223 100.326 13.184 82.6212C8.44574 64.9159 10.3809 46.1616 18.6457 29.8127C18.8085 29.5052 18.6819 29.1254 18.3745 28.9808L18.3202 28.9988Z" fill="#00A9AC"/>
</g>
<defs>
<clipPath id="clip0_472_3523">
<rect width="170" height="126.813" fill="white"/>
</clipPath>
</defs>
</svg>
