<svg width="170" height="127" viewBox="0 0 170 127" fill="none" xmlns="http://www.w3.org/2000/svg">
<g clip-path="url(#clip0_472_3511)">
<path d="M13.9798 82.1964L14.1606 81.4549C14.2511 81.0389 14.5766 80.7315 14.9745 80.623L18.5915 79.6464C19.4234 79.4293 20.3096 79.6464 20.9426 80.2251L21.2319 80.4964L21.1234 80.8761C20.8702 81.69 20.2191 82.323 19.3872 82.5581L15.7702 83.5347C15.3723 83.6432 14.9383 83.5347 14.6489 83.2091L14.1245 82.6485C14.016 82.5219 13.9617 82.3591 13.9979 82.1964H13.9798ZM155.912 44.1815L155.387 43.6208C155.098 43.3134 154.664 43.1868 154.266 43.2953L150.649 44.2719C149.817 44.4889 149.166 45.1219 148.913 45.9538L148.804 46.3336L149.094 46.6049C149.727 47.1836 150.613 47.4006 151.445 47.1836L155.062 46.207C155.46 46.0985 155.785 45.773 155.876 45.3751L156.056 44.6336C156.093 44.4708 156.056 44.3081 155.93 44.1815H155.912ZM12.7138 76.5719C12.6596 76.7347 12.6957 76.8974 12.8043 77.024L13.2926 77.6208C13.5638 77.9464 13.9798 78.1091 14.3957 78.0187L18.067 77.3315C18.917 77.1687 19.6223 76.59 19.9298 75.7942L20.0745 75.4325L19.8032 75.1432C19.2245 74.5102 18.3564 74.2208 17.5064 74.3836L13.8351 75.0708C13.4191 75.1432 13.0755 75.4506 12.9489 75.8485L12.7138 76.5719ZM165.28 46.5506L160.505 47.4368C159.963 47.5453 159.529 47.9251 159.348 48.4496L159.221 48.8113C158.95 47.4187 158.624 46.0261 158.281 44.6336L158.552 44.923C158.932 45.3208 159.493 45.4836 160.017 45.3389L164.719 44.073C165.804 43.7836 166.654 42.9698 166.98 41.9027L167.124 41.4144L166.745 41.0708C165.931 40.3113 164.773 40.0219 163.688 40.3113L158.986 41.5772C158.462 41.7219 158.046 42.1378 157.919 42.6623L157.829 43.0421C157.449 41.6676 157.033 40.2932 156.563 38.9549L156.852 39.2081C157.268 39.5698 157.829 39.6783 158.353 39.4974L162.929 37.8698C163.978 37.49 164.773 36.6038 165.009 35.5187L165.117 35.0123L164.719 34.6868C163.851 33.9996 162.676 33.8006 161.627 34.1804L157.051 35.8081C156.545 35.9889 156.165 36.441 156.074 36.9836L156.02 37.3634C155.532 36.0251 155.007 34.7049 154.429 33.4027L154.736 33.6378C155.17 33.9634 155.749 34.0357 156.255 33.8187L160.704 31.8474C161.717 31.3953 162.44 30.4549 162.603 29.3336L162.676 28.8272L162.241 28.5378C161.319 27.923 160.126 27.8144 159.113 28.2666L154.664 30.2378C154.157 30.4549 153.832 30.9432 153.778 31.4857L153.741 31.8655C153.145 30.5634 152.53 29.2974 151.861 28.0315L152.186 28.2304C152.638 28.5198 153.235 28.5559 153.705 28.2847L157.973 25.9698C158.95 25.4453 159.601 24.4325 159.655 23.3293L159.691 22.823L159.239 22.5698C158.263 22.0272 157.087 22.0091 156.093 22.5517L151.824 24.8666C151.336 25.1198 151.047 25.6261 151.047 26.1687V26.5485C150.36 25.3006 149.636 24.0889 148.877 22.8953L149.22 23.0761C149.709 23.3293 150.287 23.3113 150.739 23.0219L154.809 20.3815C155.749 19.7666 156.31 18.7357 156.291 17.6144V17.1081L155.821 16.891C154.809 16.4208 153.633 16.5113 152.693 17.1081L148.623 19.7485C148.171 20.0378 147.9 20.5623 147.954 21.123L147.99 21.5027C147.213 20.3272 146.381 19.1698 145.531 18.0304L145.874 18.1932C146.381 18.4102 146.96 18.3378 147.394 18.0123L151.246 15.0464C152.132 14.3591 152.602 13.274 152.494 12.1708L152.439 11.6644L151.951 11.4836C150.902 11.1038 149.727 11.2666 148.84 11.9538L144.988 14.9198C144.554 15.2453 144.337 15.7878 144.428 16.3304L144.482 16.7102C143.614 15.5889 142.691 14.5038 141.751 13.4368L142.113 13.5634C142.637 13.7442 143.198 13.6357 143.614 13.2559L147.231 10.0006C148.063 9.25912 148.443 8.13785 148.262 7.03466L148.171 6.52827L147.683 6.38359C146.616 6.07614 145.459 6.34742 144.627 7.08891L141.01 10.3442C140.612 10.7059 140.431 11.2666 140.557 11.8091L140.648 12.1889C139.689 11.14 138.695 10.1272 137.664 9.13253L138.044 9.24104C138.568 9.38572 139.129 9.22295 139.509 8.82508L142.854 5.29848C143.614 4.48466 143.921 3.34529 143.65 2.26019L143.523 1.7538L143.017 1.64529C141.914 1.42827 140.793 1.78997 140.015 2.58572L136.669 6.11231C136.289 6.51019 136.163 7.07082 136.326 7.59529L136.452 7.97508C133.341 5.09955 129.996 2.45912 126.397 0.108059C126.107 -0.072792 125.728 -0.000451521 125.529 0.28891C125.348 0.578272 125.42 0.958059 125.71 1.157C141.046 11.1761 152.114 26.4581 156.852 44.1634C161.59 61.8687 159.655 80.623 151.39 96.9719C151.228 97.2793 151.354 97.6591 151.662 97.8038C151.806 97.8761 151.969 97.8942 152.114 97.8581C152.277 97.8219 152.421 97.6953 152.512 97.5325C154.447 93.6985 156.038 89.7378 157.286 85.6868L157.377 86.0666C157.485 86.6091 157.883 87.0251 158.407 87.1878L163.073 88.5623C164.14 88.8878 165.298 88.6166 166.148 87.8932L166.528 87.5495L166.383 87.0612C166.076 85.9942 165.244 85.1442 164.177 84.8187L159.511 83.4442C158.986 83.2815 158.426 83.4442 158.028 83.824L157.756 84.0953C158.154 82.7208 158.498 81.3464 158.805 79.9538L158.914 80.3155C159.077 80.84 159.493 81.2378 160.035 81.3464L164.791 82.3591C165.877 82.5942 167.016 82.2506 167.794 81.4368L168.155 81.0751L167.974 80.5868C167.595 79.5378 166.69 78.7602 165.605 78.5251L160.849 77.5123C160.306 77.4038 159.764 77.5847 159.402 78.0006L159.149 78.29C159.42 76.8974 159.673 75.5049 159.872 74.0942L160.017 74.4559C160.216 74.9623 160.668 75.324 161.211 75.3964L166.039 76.0293C167.143 76.174 168.246 75.74 168.969 74.89L169.295 74.4921L169.078 74.0219C168.607 73.0091 167.649 72.3038 166.546 72.1591L161.717 71.5261C161.174 71.4538 160.632 71.6889 160.306 72.123L160.089 72.4304C160.252 71.0198 160.397 69.6091 160.487 68.1985L160.65 68.5421C160.885 69.0304 161.373 69.3559 161.916 69.3921L166.763 69.6453C167.884 69.6995 168.951 69.1932 169.584 68.2708L169.873 67.8549L169.62 67.4027C169.078 66.4261 168.065 65.7932 166.962 65.7389L162.115 65.4857C161.572 65.4495 161.048 65.7208 160.759 66.191L160.56 66.5166C160.614 65.1059 160.632 63.6772 160.614 62.2666L160.813 62.5921C161.084 63.0623 161.59 63.3517 162.151 63.3336L167.016 63.207C168.137 63.1708 169.15 62.574 169.729 61.6155L170 61.1815L169.711 60.7474C169.096 59.8251 168.047 59.2644 166.926 59.3006L162.061 59.4272C161.518 59.4272 161.012 59.7527 160.777 60.241L160.596 60.5847C160.541 59.174 160.451 57.7453 160.306 56.3347L160.523 56.6602C160.831 57.1123 161.373 57.3474 161.916 57.2932L166.745 56.7868C167.848 56.6783 168.824 55.991 169.313 54.9964L169.548 54.5261L169.222 54.1283C168.535 53.2421 167.432 52.79 166.329 52.8985L161.5 53.4049C160.957 53.4591 160.487 53.8027 160.27 54.3091L160.126 54.6708C159.963 53.2602 159.764 51.8495 159.511 50.4389L159.764 50.7464C160.107 51.1623 160.65 51.3793 161.193 51.2708L165.967 50.3847C167.07 50.1857 167.974 49.4261 168.39 48.3953L168.571 47.9251L168.228 47.5453C167.468 46.7315 166.347 46.3517 165.244 46.5506H165.28ZM157.286 50.24C157.34 50.0772 157.304 49.9144 157.196 49.7878L156.707 49.191C156.436 48.8655 156.02 48.7027 155.604 48.7932L151.933 49.4804C151.083 49.6432 150.378 50.2219 150.07 51.0176L149.926 51.3793L150.197 51.6687C150.776 52.3017 151.644 52.591 152.494 52.4283L156.165 51.741C156.581 51.6687 156.924 51.3613 157.051 50.9634L157.286 50.24ZM12.2074 70.1517L11.9181 70.857C11.8638 71.0017 11.8819 71.1825 11.9723 71.3091L12.4064 71.9421C12.6415 72.2857 13.0574 72.4847 13.4734 72.4304L17.1989 72.0325C18.0489 71.9421 18.8085 71.4176 19.1702 70.6581L19.3511 70.2964L19.0979 69.9889C18.5734 69.3198 17.7234 68.9581 16.8734 69.0485L13.1479 69.4464C12.7319 69.4825 12.3702 69.7538 12.2074 70.1517ZM157.793 56.6783L158.082 55.973C158.136 55.8283 158.118 55.6474 158.028 55.5208L157.594 54.8878C157.359 54.5442 156.943 54.3453 156.527 54.3996L152.801 54.7974C151.951 54.8878 151.191 55.4123 150.812 56.1719L150.631 56.5336L150.884 56.841C151.409 57.5102 152.259 57.8719 153.109 57.7815L156.834 57.3836C157.25 57.3474 157.612 57.0761 157.774 56.6783H157.793ZM11.9 64.4187L11.5564 65.1059C11.484 65.2506 11.484 65.4315 11.5564 65.5581L11.9362 66.2272C12.1532 66.5889 12.533 66.8059 12.967 66.8059L16.7106 66.7155C17.5606 66.6974 18.3564 66.2272 18.7904 65.4857L18.9894 65.1421L18.7723 64.8166C18.3021 64.0932 17.4883 63.6772 16.6202 63.6953L12.8766 63.7857C12.4606 63.7857 12.0809 64.0389 11.8819 64.4187H11.9ZM158.1 62.3932L158.444 61.7059C158.516 61.5612 158.516 61.3804 158.444 61.2538L158.064 60.5847C157.847 60.223 157.467 60.0059 157.033 60.0059L153.289 60.0964C152.439 60.1144 151.644 60.5847 151.21 61.3261L151.011 61.6698L151.228 61.9953C151.698 62.7187 152.512 63.1347 153.38 63.1166L157.123 63.0261C157.539 63.0261 157.919 62.773 158.118 62.3932H158.1ZM12.0447 58.6857L11.6468 59.3368C11.5564 59.4815 11.5564 59.6442 11.6287 59.7889L11.9543 60.4761C12.1351 60.8559 12.5149 61.1091 12.9309 61.1272L16.6745 61.3261C17.5245 61.3623 18.3564 60.9644 18.8447 60.2772L19.0798 59.9517L18.8809 59.6081C18.4649 58.8666 17.6872 58.3783 16.8372 58.324L13.0936 58.1251C12.6777 58.107 12.2798 58.3059 12.0628 58.6676L12.0447 58.6857ZM157.955 68.1442L158.353 67.4932C158.444 67.3485 158.444 67.1857 158.371 67.041L158.046 66.3538C157.865 65.974 157.485 65.7208 157.069 65.7027L153.326 65.5038C152.476 65.4676 151.644 65.8655 151.155 66.5527L150.92 66.8783L151.119 67.2219C151.535 67.9634 152.313 68.4517 153.163 68.5059L156.906 68.7049C157.322 68.723 157.72 68.524 157.937 68.1623L157.955 68.1442ZM12.6415 52.9708L12.1894 53.5857C12.0989 53.7123 12.0628 53.8932 12.1351 54.0378L12.4064 54.7613C12.5511 55.1591 12.9128 55.4304 13.3287 55.4847L17.0362 55.973C17.8862 56.0815 18.7362 55.7559 19.2787 55.0868L19.5319 54.7793L19.3691 54.4176C19.0074 53.64 18.284 53.0974 17.434 52.9889L13.7266 52.5006C13.3106 52.4464 12.8947 52.6272 12.6415 52.9708ZM157.359 73.841L157.811 73.2261C157.901 73.0996 157.937 72.9187 157.865 72.774L157.594 72.0506C157.449 71.6527 157.087 71.3815 156.671 71.3272L152.964 70.8389C152.114 70.7304 151.264 71.0559 150.721 71.7251L150.468 72.0325L150.631 72.3942C150.993 73.1719 151.716 73.7144 152.566 73.823L156.273 74.3113C156.689 74.3655 157.105 74.1847 157.359 73.841ZM14.1787 49.8964L17.8319 50.674C18.6638 50.8549 19.55 50.5836 20.1468 49.9687L20.4181 49.6793L20.2734 49.2996C19.984 48.4857 19.2968 47.8889 18.4468 47.7261L14.7936 46.9485C14.3777 46.8581 13.9617 47.0027 13.6904 47.3283L13.184 47.907C13.0755 48.0336 13.0394 48.1964 13.0936 48.3591L13.3106 49.1006C13.4372 49.4985 13.7628 49.8059 14.1787 49.8964ZM155.821 76.9336L152.168 76.1559C151.336 75.9751 150.45 76.2464 149.853 76.8612L149.582 77.1506L149.727 77.5304C150.016 78.3442 150.703 78.941 151.553 79.1038L155.206 79.8815C155.622 79.9719 156.038 79.8272 156.31 79.5017L156.816 78.923C156.924 78.7964 156.961 78.6336 156.906 78.4708L156.689 77.7293C156.563 77.3315 156.237 77.024 155.821 76.9336ZM21.5936 44.2719C21.3585 43.44 20.7255 42.7889 19.8936 42.5538L16.3128 41.4868C15.9149 41.3602 15.4809 41.4868 15.1734 41.7761L14.6309 42.3187C14.5223 42.4272 14.4681 42.6081 14.5043 42.7527L14.667 43.5123C14.7574 43.9283 15.0649 44.2538 15.4628 44.3804L19.0436 45.4474C19.8755 45.6825 20.7617 45.5017 21.3947 44.923L21.684 44.6698L21.5755 44.29L21.5936 44.2719ZM148.406 82.54C148.641 83.3719 149.274 84.023 150.106 84.2581L153.687 85.3251C154.085 85.4517 154.519 85.3251 154.827 85.0357L155.369 84.4932C155.478 84.3847 155.532 84.2038 155.496 84.0591L155.333 83.2996C155.243 82.8836 154.935 82.5581 154.537 82.4315L150.956 81.3644C150.124 81.1293 149.238 81.3102 148.605 81.8889L148.316 82.1421L148.424 82.5219L148.406 82.54ZM16.4032 88.6708C16.7106 88.9602 17.1628 89.0325 17.5606 88.9059L21.0872 87.6581C21.9011 87.3687 22.4979 86.6815 22.6968 85.8495L22.7872 85.4698L22.4798 85.2166C21.8106 84.6921 20.9064 84.5293 20.0926 84.8187L16.566 86.0666C16.1681 86.2113 15.8787 86.5549 15.8064 86.9708L15.6798 87.7304C15.6617 87.8932 15.716 88.0559 15.8245 88.1644L16.4032 88.6708ZM153.597 38.1591C153.289 37.8698 152.837 37.7974 152.439 37.924L148.913 39.1719C148.099 39.4613 147.502 40.1485 147.303 40.9804L147.213 41.3602L147.52 41.6134C148.189 42.1378 149.094 42.3006 149.907 42.0113L153.434 40.7634C153.832 40.6187 154.121 40.2751 154.194 39.8591L154.32 39.0996C154.338 38.9368 154.284 38.774 154.176 38.6655L153.597 38.1591ZM18.5915 93.9698C18.917 94.223 19.3691 94.2772 19.7489 94.1144L23.167 92.5953C23.9447 92.2517 24.5053 91.5102 24.6319 90.6602L24.6862 90.2623L24.3606 90.0453C23.6553 89.5751 22.733 89.4847 21.9553 89.8464L18.5372 91.3655C18.1574 91.5283 17.8862 91.9081 17.85 92.324L17.7957 93.0836C17.7957 93.2464 17.85 93.4091 17.9766 93.4995L18.5915 93.9698ZM151.409 32.8602C151.083 32.607 150.631 32.5527 150.251 32.7155L146.833 34.2347C146.055 34.5783 145.495 35.3198 145.368 36.1698L145.314 36.5676L145.639 36.7847C146.345 37.2549 147.267 37.3453 148.045 36.9836L151.463 35.4644C151.843 35.3017 152.114 34.9219 152.15 34.5059L152.204 33.7464C152.204 33.5836 152.15 33.4208 152.023 33.3304L151.409 32.8602ZM21.1957 99.0878C21.5574 99.323 21.9915 99.341 22.3713 99.124L25.6628 97.3336C26.4223 96.9176 26.9106 96.1581 26.9649 95.29V94.8921L26.6394 94.6932C25.8979 94.2772 24.9755 94.2591 24.216 94.6751L20.9245 96.4655C20.5628 96.6644 20.3277 97.0442 20.3277 97.4783V98.2559C20.3277 98.4187 20.4 98.5634 20.5447 98.6538L21.1957 99.0698V99.0878ZM148.804 27.7421C148.443 27.507 148.009 27.4889 147.629 27.7059L144.337 29.4964C143.578 29.9123 143.089 30.6719 143.035 31.54V31.9378L143.361 32.1368C144.102 32.5527 145.024 32.5708 145.784 32.1549L149.076 30.3644C149.437 30.1655 149.672 29.7857 149.672 29.3517V28.574C149.672 28.4113 149.6 28.2666 149.455 28.1761L148.804 27.7602V27.7421ZM24.1979 103.989C24.5596 104.188 25.0117 104.17 25.3734 103.935L28.5021 101.891C29.2255 101.421 29.6596 100.625 29.6415 99.757V99.3591L29.2798 99.1964C28.5021 98.8347 27.5979 98.907 26.8745 99.3591L23.7457 101.403C23.384 101.638 23.1851 102.036 23.2213 102.452L23.2755 103.211C23.2755 103.374 23.384 103.519 23.5287 103.591L24.216 103.953L24.1979 103.989ZM145.802 22.841C145.44 22.6421 144.988 22.6602 144.627 22.8953L141.498 24.9389C140.774 25.4091 140.34 26.2049 140.359 27.073V27.4708L140.72 27.6336C141.498 27.9953 142.402 27.923 143.126 27.4708L146.254 25.4272C146.616 25.1921 146.815 24.7942 146.779 24.3783L146.724 23.6187C146.724 23.4559 146.616 23.3113 146.471 23.2389L145.784 22.8772L145.802 22.841ZM27.5617 108.619C27.9415 108.781 28.3936 108.727 28.7191 108.474L31.6851 106.195C32.3723 105.671 32.734 104.839 32.6436 103.989L32.6074 103.591L32.2277 103.446C31.4138 103.139 30.5277 103.284 29.8404 103.808L26.8745 106.087C26.5489 106.34 26.3681 106.756 26.4404 107.172L26.567 107.931C26.5851 108.094 26.6936 108.221 26.8383 108.293L27.5436 108.601L27.5617 108.619ZM142.438 18.1932C142.059 18.0304 141.606 18.0847 141.281 18.3378L138.315 20.6166C137.628 21.141 137.266 21.973 137.356 22.823L137.393 23.2208L137.772 23.3655C138.586 23.673 139.472 23.5283 140.16 23.0038L143.126 20.7251C143.451 20.4719 143.632 20.0559 143.56 19.64L143.433 18.8804C143.415 18.7176 143.306 18.591 143.162 18.5187L142.456 18.2113L142.438 18.1932ZM30.5638 112.742L31.2872 112.995C31.6851 113.14 32.1192 113.05 32.4447 112.76L35.2298 110.264C35.8628 109.686 36.1702 108.836 36.0255 107.986L35.9532 107.588L35.5734 107.479C34.7415 107.244 33.8553 107.443 33.2223 108.022L30.4372 110.518C30.1298 110.807 29.9851 111.223 30.0936 111.639L30.2745 112.38C30.3106 112.543 30.4191 112.67 30.5819 112.724L30.5638 112.742ZM139.436 14.0878L138.713 13.8347C138.315 13.69 137.881 13.7804 137.555 14.0698L134.77 16.5655C134.137 17.1442 133.83 17.9942 133.974 18.8442L134.047 19.2421L134.427 19.3506C135.259 19.5857 136.145 19.3868 136.778 18.8081L139.563 16.3123C139.87 16.023 140.015 15.607 139.906 15.191L139.726 14.4495C139.689 14.2868 139.581 14.1602 139.418 14.1059L139.436 14.0878ZM34.5968 116.866L35.3383 117.064C35.7362 117.173 36.1702 117.064 36.4596 116.739L39.0277 114.026C39.6245 113.411 39.8415 112.525 39.6426 111.693L39.5521 111.313L39.1723 111.241C38.3223 111.078 37.4543 111.35 36.8755 111.964L34.3074 114.677C34.0181 114.985 33.9096 115.419 34.0543 115.817L34.2894 116.558C34.3436 116.721 34.4702 116.829 34.6149 116.866H34.5968ZM135.403 9.96444L134.662 9.76551C134.264 9.657 133.83 9.76551 133.54 10.091L130.972 12.8038C130.376 13.4187 130.159 14.3049 130.357 15.1368L130.448 15.5166L130.828 15.5889C131.678 15.7517 132.546 15.4804 133.124 14.8655L135.693 12.1527C135.982 11.8453 136.09 11.4113 135.946 11.0134L135.711 10.2719C135.656 10.1091 135.53 10.0006 135.385 9.96444H135.403ZM18.3202 29.0081C18.0128 28.8453 17.633 28.9719 17.4883 29.2793C15.5532 33.1134 13.9617 37.074 12.7138 41.1251L12.6234 40.7453C12.5149 40.2027 12.117 39.7868 11.5926 39.624L6.9266 38.2495C5.85957 37.924 4.70213 38.1953 3.85213 38.9187L3.47234 39.2623L3.61702 39.7506C3.92447 40.8176 4.75638 41.6676 5.8234 41.9932L10.4894 43.3676C11.0138 43.5304 11.5745 43.3676 11.9723 42.9878L12.2436 42.7166C11.8457 44.091 11.5021 45.4655 11.1947 46.8581L11.0862 46.4964C10.9234 45.9719 10.5074 45.574 9.96489 45.4655L5.20851 44.4527C4.1234 44.2176 2.98404 44.5613 2.20638 45.3751L1.84468 45.7368L2.02553 46.2251C2.40532 47.274 3.30957 48.0517 4.39468 48.2868L9.15106 49.2996C9.69362 49.4081 10.2362 49.2272 10.5979 48.8113L10.8511 48.5219C10.5798 49.9144 10.3266 51.307 10.1277 52.7176L9.98298 52.3559C9.78404 51.8496 9.33192 51.4878 8.78936 51.4155L3.96064 50.7825C2.85745 50.6378 1.75426 51.0719 1.03085 51.9219L0.705319 52.3198L0.92234 52.79C1.39255 53.8027 2.33298 54.5081 3.45426 54.6527L8.28298 55.2857C8.82553 55.3581 9.36809 55.123 9.69362 54.6889L9.91064 54.3815C9.74787 55.7921 9.60319 57.2027 9.51277 58.6134L9.35 58.2698C9.11489 57.7815 8.6266 57.4559 8.08404 57.4198L3.23723 57.1666C2.11596 57.1123 1.04894 57.6187 0.415957 58.541L0.126596 58.957L0.379787 59.4091C0.92234 60.3857 1.93511 61.0187 3.0383 61.073L7.88511 61.3261C8.42766 61.3623 8.95213 61.091 9.24149 60.6208L9.44043 60.2953C9.38617 61.7059 9.36809 63.1347 9.38617 64.5453L9.18723 64.2198C8.91596 63.7495 8.40957 63.4602 7.84894 63.4783L2.98404 63.6049C1.86277 63.641 0.85 64.2378 0.271277 65.1964L0 65.6304L0.289362 66.0644C0.904255 66.9868 1.95319 67.5474 3.07447 67.5113L7.93936 67.3847C8.48191 67.3847 8.9883 67.0591 9.2234 66.5708L9.40426 66.2272C9.45851 67.6378 9.54894 69.0666 9.69362 70.4772L9.4766 70.1517C9.16915 69.6995 8.6266 69.4644 8.08404 69.5187L3.25532 70.0251C2.15213 70.1336 1.17553 70.8208 0.687234 71.8155L0.452128 72.2857L0.77766 72.6836C1.46489 73.5698 2.56809 74.0219 3.67128 73.9134L8.5 73.407C9.04255 73.3527 9.51277 73.0091 9.72979 72.5027L9.87447 72.141C10.0372 73.5517 10.2362 74.9623 10.4894 76.373L10.2362 76.0655C9.89255 75.6496 9.35 75.4325 8.80745 75.541L4.03298 76.4272C2.92979 76.6261 2.02553 77.3857 1.60957 78.4166L1.42872 78.8868L1.77234 79.2666C2.53191 80.0804 3.65319 80.4602 4.75638 80.2613L9.53085 79.3751C10.0734 79.2666 10.5074 78.8868 10.6883 78.3623L10.8149 78.0006C11.0862 79.3932 11.4117 80.7857 11.7553 82.1783L11.484 81.8889C11.1043 81.491 10.5436 81.3283 10.0191 81.473L5.31702 82.7389C4.23192 83.0283 3.38192 83.8421 3.05638 84.9091L2.9117 85.3974L3.29149 85.741C4.10532 86.5006 5.26277 86.79 6.34787 86.5006L11.05 85.2347C11.5745 85.09 11.9904 84.674 12.117 84.1495L12.2074 83.7698C12.5872 85.1442 13.0032 86.5187 13.4734 87.857L13.184 87.6038C12.7681 87.2421 12.2074 87.1336 11.683 87.3144L7.10745 88.9421C6.05851 89.3219 5.26277 90.2081 5.02766 91.2932L4.91915 91.7995L5.31702 92.1251C6.18511 92.8123 7.36064 93.0113 8.40957 92.6315L12.9851 91.0038C13.4915 90.823 13.8713 90.3708 13.9617 89.8283L14.016 89.4485C14.5043 90.7868 15.0287 92.107 15.6074 93.4091L15.3 93.174C14.866 92.8485 14.2872 92.7761 13.7809 92.9932L9.33191 94.9644C8.31915 95.4166 7.59575 96.357 7.43298 97.4783L7.36064 97.9847L7.79468 98.274C8.71702 98.8889 9.91064 98.9974 10.9234 98.5453L15.3723 96.574C15.8787 96.357 16.2043 95.8687 16.2585 95.3261L16.2947 94.9464C16.8915 96.2485 17.5064 97.5144 18.1755 98.7804L17.85 98.5634C17.3979 98.274 16.8011 98.2378 16.3309 98.5091L12.0628 100.824C11.0862 101.348 10.4351 102.361 10.3809 103.464L10.3447 103.971L10.7968 104.224C11.7734 104.767 12.9489 104.785 13.9436 104.242L18.2117 101.927C18.7 101.674 18.9894 101.168 18.9894 100.625V100.245C19.6766 101.493 20.4 102.705 21.1596 103.898L20.816 103.718C20.3277 103.464 19.7489 103.483 19.2968 103.772L15.2277 106.412C14.2872 107.027 13.7266 108.058 13.7447 109.179V109.686L14.2149 109.903C15.2277 110.373 16.4032 110.283 17.3436 109.686L21.4128 107.045C21.8649 106.756 22.1362 106.231 22.0819 105.671L22.0457 105.291C22.8234 106.467 23.6553 107.624 24.5053 108.763L24.1617 108.601C23.6553 108.384 23.0766 108.456 22.6426 108.781L18.7904 111.747C17.9043 112.435 17.434 113.52 17.5426 114.623L17.5968 115.129L18.0851 115.31C19.134 115.69 20.3096 115.527 21.1957 114.84L25.0479 111.874C25.4819 111.548 25.6989 111.006 25.6085 110.463L25.5543 110.084C26.4223 111.205 27.3447 112.29 28.2851 113.357L27.9234 113.23C27.3989 113.05 26.8383 113.158 26.4223 113.538L22.8053 116.793C21.9734 117.535 21.5936 118.656 21.7745 119.759L21.8649 120.266L22.3532 120.41C23.4202 120.718 24.5777 120.446 25.4096 119.705L29.0266 116.45C29.4245 116.088 29.6053 115.527 29.4787 114.985L29.3883 114.605C30.3468 115.654 31.3415 116.667 32.3723 117.661L31.9926 117.553C31.4681 117.408 30.9074 117.571 30.5277 117.969L27.1819 121.495C26.4223 122.309 26.1149 123.448 26.3862 124.534L26.5128 125.04L27.0191 125.148C28.1223 125.366 29.2436 125.004 30.0213 124.208L33.367 120.681C33.7468 120.284 33.8734 119.723 33.7106 119.198L33.584 118.819C36.6947 121.694 40.0585 124.335 43.6394 126.686C43.8021 126.794 43.983 126.812 44.1457 126.758C44.2904 126.722 44.417 126.631 44.5074 126.505C44.6883 126.216 44.616 125.836 44.3266 125.637C28.9904 115.618 17.9223 100.336 13.184 82.6304C8.44574 64.9251 10.3809 46.1708 18.6457 29.8219C18.8085 29.5144 18.6819 29.1347 18.3745 28.99L18.3202 29.0081Z" fill="#00A9AC"/>
<path d="M75.5257 71.9019H76.9582C78.3602 71.9019 79.0155 71.5666 79.0155 70.4389C79.0003 69.3569 78.3297 68.9912 77.2478 68.9912H75.5257V71.9019ZM78.726 65.9738V65.8062C78.726 64.8156 78.0402 64.5413 76.8363 64.5413H75.5257V67.2387H76.9734C78.2383 67.2387 78.726 66.7206 78.726 65.9738ZM74.718 62.6822H77.5221C79.686 62.6822 80.8747 63.7946 80.8747 65.4405V65.6843C80.8747 66.812 80.2651 67.6806 79.2898 68.0311C80.4328 68.2445 81.21 69.2045 81.21 70.5608V70.759C81.21 72.5572 79.8689 73.8373 77.5068 73.8373H74.718C73.758 73.8373 73.3313 73.6087 73.3313 72.7553V63.7641C73.3313 62.9107 73.758 62.6822 74.718 62.6822ZM87.4464 68.976V68.534C87.4464 67.9092 87.2178 67.0711 85.9987 67.0711C84.871 67.0711 84.5966 67.9092 84.5966 68.7017V68.976H87.4464ZM87.5683 71.5209C87.7969 71.1704 88.1321 71.1399 88.7874 71.4904C89.2903 71.7647 89.4732 72.039 89.1227 72.5877C88.4674 73.5477 87.3397 74.0202 86.0444 74.0202C83.6823 74.0202 82.4936 72.7248 82.4936 70.6828V68.7779C82.4936 66.6139 83.8956 65.3338 86.0139 65.3338C88.1931 65.3338 89.4732 66.431 89.4732 68.9912V69.4484C89.4732 70.0732 89.077 70.4237 88.4522 70.4237H84.5966V70.759C84.5966 71.6733 84.9776 72.2829 86.0444 72.2829C86.7911 72.2829 87.3092 71.9171 87.5683 71.5209ZM92.5769 71.6428C92.775 72.0695 93.2779 72.3591 93.8875 72.3591C94.5275 72.3591 94.939 72.039 94.939 71.5666C94.939 70.317 90.8396 70.637 90.8396 67.8635C90.8396 66.3548 92.0283 65.3338 93.8417 65.3338C95.2438 65.3338 96.2648 66.0043 96.6153 67.0101C96.7982 67.5282 96.4781 67.8025 95.8381 67.9397C95.2742 68.0768 95.0152 68.0006 94.8628 67.6654C94.6647 67.2234 94.238 67.0253 93.7198 67.0253C93.0798 67.0253 92.7598 67.2844 92.7598 67.7416C92.7598 68.915 96.8591 68.5645 96.8591 71.4752C96.8591 72.9382 95.7162 74.0202 93.8875 74.0202C92.394 74.0202 91.3882 73.563 90.9006 72.6181C90.5958 72.0238 90.8091 71.7343 91.3273 71.4142C91.9064 71.079 92.3178 71.0942 92.5769 71.6428ZM102.022 73.8373H101.504C100.011 73.8373 98.7 73.2429 98.7 71.3533V67.513H98.1514C97.6332 67.513 97.4961 67.2692 97.4961 66.6596C97.4961 66.05 97.6332 65.8062 98.1514 65.8062H98.7V64.4804C98.7 63.8556 99.0048 63.6879 99.7362 63.6879C100.468 63.6879 100.773 63.8556 100.773 64.4804V65.8062H101.87C102.388 65.8062 102.525 66.05 102.525 66.6596C102.525 67.2692 102.388 67.513 101.87 67.513H100.833V70.9571C100.833 71.8409 101.032 72.1 101.976 72.1H102.022C102.556 72.1 102.693 72.3438 102.693 72.9686C102.693 73.5935 102.556 73.8373 102.022 73.8373Z" fill="#00A9AC"/>
<path d="M38.1893 79.3827V89.0444C38.1893 89.7149 37.8541 89.8978 37.0921 89.8978C36.3301 89.8978 35.9949 89.7149 35.9949 89.0444V79.3827C35.9949 78.7122 36.3301 78.5293 37.0921 78.5293C37.8541 78.5293 38.1893 78.7122 38.1893 79.3827ZM41.6216 87.5967C41.8197 88.0234 42.3226 88.3129 42.9322 88.3129C43.5722 88.3129 43.9837 87.9929 43.9837 87.5205C43.9837 86.2709 39.8843 86.5909 39.8843 83.8174C39.8843 82.3087 41.073 81.2876 42.8865 81.2876C44.2885 81.2876 45.3095 81.9582 45.66 82.964C45.8429 83.4821 45.5228 83.7564 44.8828 83.8935C44.3189 84.0307 44.0599 83.9545 43.9075 83.6192C43.7094 83.1773 43.2827 82.9792 42.7645 82.9792C42.1245 82.9792 41.8045 83.2383 41.8045 83.6954C41.8045 84.8689 45.9038 84.5184 45.9038 87.4291C45.9038 88.892 44.7609 89.974 42.9322 89.974C41.4387 89.974 40.4329 89.5168 39.9453 88.572C39.6405 87.9777 39.8538 87.6881 40.372 87.3681C40.9511 87.0328 41.3625 87.0481 41.6216 87.5967ZM49.4667 79.1389V89.0139C49.4667 89.654 49.1467 89.8369 48.4 89.8369C47.6532 89.8369 47.3332 89.654 47.3332 89.0139V79.1389C47.3332 78.4989 47.6532 78.316 48.4 78.316C49.1467 78.316 49.4667 78.4989 49.4667 79.1389ZM55.769 87.3833V86.2099C53.5441 86.1032 53.1021 86.5604 53.1021 87.3071V87.3376C53.1021 87.8405 53.4374 88.2367 54.0622 88.2367C54.7327 88.2367 55.3423 87.9777 55.769 87.3833ZM55.8299 89.1206V88.7549C55.3118 89.4254 54.6413 89.9435 53.4831 89.9435C51.9135 89.9435 50.9839 88.8463 50.9839 87.5662V87.4595C50.9839 85.8289 52.0963 84.5946 55.769 84.9146V84.2898C55.769 83.4973 55.4032 83.0249 54.367 83.0249C53.6507 83.0249 53.3459 83.2992 53.1021 83.6802C52.8126 84.1374 52.584 84.1831 52.0201 83.8783C51.4563 83.604 51.182 83.2992 51.502 82.7506C52.0658 81.7753 52.965 81.2876 54.6718 81.2876C56.4395 81.2876 57.8568 82.3696 57.8568 84.4117V89.1206C57.8568 89.7454 57.552 89.9131 56.8357 89.9131C56.1347 89.9131 55.8299 89.7454 55.8299 89.1206ZM69.0397 89.0597V84.366C69.0397 83.665 68.8416 83.0249 68.0797 83.0249C67.1501 83.0249 66.6624 83.7716 66.5405 84.3202V89.0597C66.5405 89.6997 66.2205 89.8826 65.4738 89.8826C64.727 89.8826 64.407 89.6997 64.407 89.0597V84.366C64.407 83.4669 64.087 83.0249 63.386 83.0249C62.4869 83.0249 62.0145 83.8021 61.8925 84.305V89.0597C61.8925 89.6997 61.5725 89.8826 60.8258 89.8826C60.0791 89.8826 59.759 89.6997 59.759 89.0597V82.1563C59.759 81.5467 60.0638 81.3638 60.7953 81.3638C61.5268 81.3638 61.8316 81.5467 61.8316 82.1563V82.5677C62.2735 81.9582 63.0507 81.2876 64.3308 81.2876C65.4738 81.2876 66.0376 82.0344 66.3119 82.7506C66.9824 81.7448 67.8816 81.2876 68.9178 81.2876C70.3503 81.2876 71.1732 82.4458 71.1732 83.9393V89.0597C71.1732 89.6997 70.8532 89.8826 70.1065 89.8826C69.3598 89.8826 69.0397 89.6997 69.0397 89.0597ZM75.1674 89.0749C75.1674 89.7149 74.8473 89.8978 74.1006 89.8978C73.3539 89.8978 73.0339 89.7149 73.0339 89.0749V82.1868C73.0339 81.5467 73.3539 81.3638 74.1006 81.3638C74.8473 81.3638 75.1674 81.5467 75.1674 82.1868V89.0749ZM75.1674 79.017C75.1674 78.4531 74.7559 78.3007 74.1006 78.3007C73.4453 78.3007 73.0339 78.4531 73.0339 79.017V79.7332C73.0339 80.2971 73.4453 80.4495 74.1006 80.4495C74.7559 80.4495 75.1674 80.2971 75.1674 79.7332V79.017ZM83.5741 83.4669C83.7265 84.0459 83.4217 84.305 82.7511 84.4422C82.0501 84.6098 81.7911 84.4726 81.6539 83.9697C81.5015 83.4516 81.0443 83.0249 80.4043 83.0249C79.5814 83.0249 79.0175 83.4973 79.0175 84.7622V86.6366C79.0175 87.7796 79.5814 88.2367 80.4805 88.2367C81.212 88.2367 81.5015 87.7948 81.7453 87.3224C81.9587 86.9109 82.3549 86.8957 82.9645 87.2462C83.4979 87.5662 83.696 87.8558 83.3912 88.4653C82.9492 89.3492 81.9587 89.974 80.4195 89.974C78.3622 89.974 76.884 88.8768 76.884 86.6366V84.6403C76.884 82.4153 78.5451 81.2876 80.4043 81.2876C81.9892 81.2876 83.1931 82.0496 83.5741 83.4669ZM89.7539 87.8558H91.1864C92.5884 87.8558 93.2437 87.5205 93.2437 86.3928C93.2285 85.3108 92.558 84.9451 91.476 84.9451H89.7539V87.8558ZM92.9542 81.9277V81.7601C92.9542 80.7695 92.2684 80.4952 91.0645 80.4952H89.7539V83.1925H91.2017C92.4665 83.1925 92.9542 82.6744 92.9542 81.9277ZM88.9463 78.636H91.7503C93.9142 78.636 95.1029 79.7485 95.1029 81.3943V81.6381C95.1029 82.7658 94.4933 83.6345 93.518 83.985C94.661 84.1983 95.4382 85.1584 95.4382 86.5147V86.7128C95.4382 88.511 94.0971 89.7911 91.735 89.7911H88.9463C87.9862 89.7911 87.5595 89.5625 87.5595 88.7092V79.718C87.5595 78.8646 87.9862 78.636 88.9463 78.636ZM101.278 87.3833V86.2099C99.0534 86.1032 98.6115 86.5604 98.6115 87.3071V87.3376C98.6115 87.8405 98.9468 88.2367 99.5716 88.2367C100.242 88.2367 100.852 87.9777 101.278 87.3833ZM101.339 89.1206V88.7549C100.821 89.4254 100.151 89.9435 98.9925 89.9435C97.4228 89.9435 96.4932 88.8463 96.4932 87.5662V87.4595C96.4932 85.8289 97.6057 84.5946 101.278 84.9146V84.2898C101.278 83.4973 100.913 83.0249 99.8764 83.0249C99.1601 83.0249 98.8553 83.2992 98.6115 83.6802C98.322 84.1374 98.0934 84.1831 97.5295 83.8783C96.9657 83.604 96.6914 83.2992 97.0114 82.7506C97.5752 81.7753 98.4743 81.2876 100.181 81.2876C101.949 81.2876 103.366 82.3696 103.366 84.4117V89.1206C103.366 89.7454 103.061 89.9131 102.345 89.9131C101.644 89.9131 101.339 89.7454 101.339 89.1206ZM105.268 89.0597V82.1563C105.268 81.5467 105.573 81.3638 106.305 81.3638C107.036 81.3638 107.341 81.5467 107.341 82.1563V82.6287C107.859 82.0344 108.773 81.2876 110.069 81.2876C111.669 81.2876 112.477 82.4458 112.477 83.8174V89.0597C112.477 89.6997 112.157 89.8826 111.41 89.8826C110.663 89.8826 110.343 89.6997 110.343 89.0597V84.3964C110.343 83.7869 110.221 83.0249 109.185 83.0249C108.225 83.0249 107.691 83.7107 107.402 84.3202V89.0597C107.402 89.6997 107.082 89.8826 106.335 89.8826C105.588 89.8826 105.268 89.6997 105.268 89.0597ZM118.995 84.6403L121.433 88.8311C121.601 89.1206 121.677 89.2882 121.677 89.4254C121.677 89.7454 121.418 89.8978 120.641 89.8978C119.848 89.8978 119.65 89.8673 119.33 89.2882L117.532 86.088L116.496 87.1395V89.0749C116.496 89.7149 116.176 89.8978 115.429 89.8978C114.682 89.8978 114.362 89.7149 114.362 89.0749V79.1389C114.362 78.4989 114.682 78.316 115.429 78.316C116.176 78.316 116.496 78.4989 116.496 79.1389V84.7317L118.858 82.0039C119.315 81.4857 119.513 81.3638 120.458 81.3638C121.174 81.3638 121.418 81.5467 121.418 81.7905C121.418 81.9429 121.342 82.1106 121.098 82.3544L118.995 84.6403ZM125.052 89.0749C125.052 89.7149 124.732 89.8978 123.985 89.8978C123.239 89.8978 122.919 89.7149 122.919 89.0749V82.1868C122.919 81.5467 123.239 81.3638 123.985 81.3638C124.732 81.3638 125.052 81.5467 125.052 82.1868V89.0749ZM125.052 79.017C125.052 78.4531 124.641 78.3007 123.985 78.3007C123.33 78.3007 122.919 78.4531 122.919 79.017V79.7332C122.919 80.2971 123.33 80.4495 123.985 80.4495C124.641 80.4495 125.052 80.2971 125.052 79.7332V79.017ZM126.952 89.0597V82.1563C126.952 81.5467 127.256 81.3638 127.988 81.3638C128.719 81.3638 129.024 81.5467 129.024 82.1563V82.6287C129.542 82.0344 130.457 81.2876 131.752 81.2876C133.352 81.2876 134.16 82.4458 134.16 83.8174V89.0597C134.16 89.6997 133.84 89.8826 133.093 89.8826C132.346 89.8826 132.026 89.6997 132.026 89.0597V84.3964C132.026 83.7869 131.904 83.0249 130.868 83.0249C129.908 83.0249 129.375 83.7107 129.085 84.3202V89.0597C129.085 89.6997 128.765 89.8826 128.018 89.8826C127.272 89.8826 126.952 89.6997 126.952 89.0597ZM139.809 89.3644L138.788 89.2425L138.255 89.1663C137.706 89.3949 137.386 89.8064 137.386 90.355C137.386 91.0865 137.965 91.4827 139.093 91.4827C140.571 91.4827 140.922 90.9493 140.922 90.3702C140.922 89.8064 140.693 89.4864 139.809 89.3644ZM140.419 84.0155C140.419 83.284 140.007 82.7963 139.063 82.7963C138.118 82.7963 137.691 83.284 137.691 84.0155C137.691 84.7774 138.194 85.1432 139.063 85.1432C139.916 85.1432 140.419 84.7774 140.419 84.0155ZM142.933 82.4915C142.568 82.4915 142.37 82.4915 142.004 82.4915C142.232 82.8573 142.385 83.284 142.385 83.8021V84.2136C142.385 85.6308 141.12 86.6519 138.941 86.6519C138.621 86.6519 138.301 86.6214 138.011 86.5757C137.904 86.6823 137.828 86.789 137.828 86.9566C137.828 87.2005 138.042 87.3224 138.331 87.3681L140.556 87.6576C142.431 87.9015 142.964 88.8768 142.964 90.3245C142.964 91.8027 141.76 93.1133 139.093 93.1133C136.67 93.1133 135.36 92.2294 135.36 90.6445C135.36 89.7759 135.954 89.1359 136.746 88.7853C136.289 88.5263 136.03 88.1301 136.03 87.5814C136.03 86.9871 136.396 86.469 136.914 86.1642C136.091 85.6918 135.725 84.9908 135.725 84.0612V83.924C135.725 82.2629 137.021 81.2876 139.063 81.2876C139.764 81.2876 140.434 81.4248 141.013 81.6991C141.653 81.2876 142.431 81.0286 142.933 81.0286C143.375 81.0286 143.497 81.2419 143.497 81.7601C143.497 82.2782 143.375 82.4915 142.933 82.4915Z" fill="#00A9AC"/>
<path d="M73.6761 95.3864L71.2531 105.231C71.1312 105.719 70.6435 105.886 69.8968 105.886C69.1348 105.886 68.6777 105.764 68.5405 105.231L67.428 100.446C67.1385 99.2267 67.0471 98.7086 66.8642 97.6723H66.849C66.6966 98.7086 66.6051 99.2267 66.3308 100.446L65.2488 105.231C65.1422 105.719 64.6393 105.886 63.8925 105.886C63.1306 105.886 62.6886 105.764 62.5515 105.231L60.1132 95.4169C59.9608 94.7768 60.2808 94.5025 61.1495 94.5025C61.8048 94.5025 62.14 94.6245 62.2619 95.1578L63.1153 99.1657C63.4506 100.705 63.7554 102.351 63.8925 103.936H63.923C64.1059 102.351 64.3802 100.751 64.7459 99.1962L65.706 95.1426C65.8127 94.6245 66.1784 94.5025 66.8185 94.5025C67.4433 94.5025 67.8395 94.6549 67.9462 95.1426L68.952 99.1505C69.3329 100.674 69.7139 102.366 69.9273 103.936H69.9578C70.1254 102.366 70.4302 100.72 70.7654 99.1505L71.6188 95.1273C71.7255 94.6245 72.0608 94.5025 72.6856 94.5025C73.5237 94.5025 73.8285 94.7616 73.6761 95.3864ZM76.8965 105.048C76.8965 105.688 76.5765 105.871 75.8297 105.871C75.083 105.871 74.763 105.688 74.763 105.048V98.16C74.763 97.5199 75.083 97.337 75.8297 97.337C76.5765 97.337 76.8965 97.5199 76.8965 98.16V105.048ZM76.8965 94.9902C76.8965 94.4263 76.485 94.274 75.8297 94.274C75.1745 94.274 74.763 94.4263 74.763 94.9902V95.7064C74.763 96.2703 75.1745 96.4227 75.8297 96.4227C76.485 96.4227 76.8965 96.2703 76.8965 95.7064V94.9902ZM78.796 105.033V98.1295C78.796 97.5199 79.1008 97.337 79.8323 97.337C80.5638 97.337 80.8686 97.5199 80.8686 98.1295V98.6019C81.3867 98.0076 82.3011 97.2608 83.5964 97.2608C85.1965 97.2608 86.0042 98.419 86.0042 99.7906V105.033C86.0042 105.673 85.6842 105.856 84.9375 105.856C84.1907 105.856 83.8707 105.673 83.8707 105.033V100.37C83.8707 99.7601 83.7488 98.9981 82.7125 98.9981C81.7525 98.9981 81.2191 99.6839 80.9295 100.293V105.033C80.9295 105.673 80.6095 105.856 79.8628 105.856C79.1161 105.856 78.796 105.673 78.796 105.033ZM93.1015 102.168V100.69C93.1015 99.6534 92.3243 98.9981 91.4557 98.9981C90.5261 98.9981 89.8099 99.4248 89.8099 101.025V102.412C89.8099 103.646 90.4042 104.21 91.41 104.21C92.6596 104.21 93.1015 103.296 93.1015 102.168ZM93.1015 98.0076V95.1121C93.1015 94.4721 93.4216 94.2892 94.1683 94.2892C94.915 94.2892 95.235 94.4721 95.235 95.1121V105.048C95.235 105.688 94.915 105.871 94.1683 105.871C93.4216 105.871 93.1625 105.688 93.1625 105.048V104.911C92.7815 105.383 91.9738 105.947 90.7852 105.947C89.0479 105.947 87.6764 104.835 87.6764 102.64V100.568C87.6764 98.6019 88.865 97.2608 90.8461 97.2608C91.8214 97.2608 92.5377 97.5351 93.1015 98.0076ZM104.369 100.522V102.686C104.369 104.774 103.012 105.947 100.666 105.947C98.3035 105.947 96.9777 104.759 96.9777 102.747V100.522C96.9777 98.419 98.3035 97.2608 100.681 97.2608C103.012 97.2608 104.369 98.419 104.369 100.522ZM102.235 102.579V100.629C102.235 99.4248 101.534 98.9981 100.666 98.9981C99.7969 98.9981 99.1111 99.4248 99.1111 100.644V102.564C99.1111 103.783 99.7969 104.21 100.666 104.21C101.534 104.21 102.235 103.783 102.235 102.579ZM116.047 98.1447L114.295 105.277C114.173 105.734 113.655 105.886 112.969 105.886C112.268 105.886 111.841 105.764 111.734 105.277L111.186 102.93C110.972 101.97 110.82 101.208 110.713 100.187H110.683C110.561 101.177 110.409 101.939 110.134 103.25L109.723 105.261C109.616 105.734 109.144 105.886 108.443 105.886C107.711 105.886 107.3 105.764 107.163 105.261L105.258 98.2209C105.09 97.5961 105.41 97.337 106.248 97.337C106.888 97.337 107.208 97.459 107.33 97.9771L108.016 101.101C108.245 102.122 108.412 103.052 108.519 104.027H108.549C108.671 103.006 108.839 102.122 109.052 101.101L109.708 97.9618C109.814 97.459 110.165 97.337 110.805 97.337C111.414 97.337 111.795 97.4894 111.902 97.9618L112.542 101.116C112.725 101.97 112.908 103.021 113.014 104.027H113.045C113.167 103.021 113.365 101.924 113.548 101.101L114.264 97.9161C114.371 97.4437 114.645 97.337 115.194 97.337C115.925 97.337 116.199 97.5809 116.047 98.1447Z" fill="#00A9AC"/>
<path d="M75.7491 29.5832V29.7518C75.7491 31.3031 74.5463 32.1349 72.6016 32.1349C70.6457 32.1349 69.4429 31.3031 69.4429 29.7518V29.5832C69.4429 28.549 69.9262 27.9869 70.8817 27.5935C70.1848 27.3911 69.7239 26.7504 69.7239 25.8511V25.7275C69.7239 24.4347 70.6569 23.6366 72.6016 23.6366C74.5351 23.6366 75.4681 24.4347 75.4681 25.7275V25.8511C75.4681 26.7504 75.0072 27.3911 74.3103 27.5935C75.2658 27.9869 75.7491 28.549 75.7491 29.5832ZM73.9168 25.986V25.9298C73.9168 25.1879 73.5571 24.9406 72.6016 24.9406C71.6349 24.9406 71.2752 25.1879 71.2752 25.9298V25.986C71.2752 26.7392 71.7136 27.0539 72.6016 27.0539C73.4784 27.0539 73.9168 26.7392 73.9168 25.986ZM74.1304 29.5832V29.4707C74.1304 28.6951 73.692 28.3017 72.6016 28.3017C71.5 28.3017 71.0616 28.6951 71.0616 29.4707V29.5832C71.0616 30.37 71.5 30.741 72.6016 30.741C73.692 30.741 74.1304 30.37 74.1304 29.5832ZM82.1206 28.7738V31.4492C82.1206 31.9438 81.8733 32.0787 81.3113 32.0787C80.7492 32.0787 80.5019 31.9438 80.5019 31.4492V28.7738L78.1413 24.3898C78.0514 24.2211 78.0064 24.1087 78.0064 24.03C78.0064 23.8052 78.1301 23.6928 78.7371 23.6928C79.3329 23.6928 79.5127 23.7041 79.715 24.0975L81.3338 27.3125L82.8738 24.1312C83.0761 23.7265 83.1773 23.6928 83.953 23.6928C84.4138 23.6928 84.6611 23.7715 84.6611 23.9626C84.6611 24.0413 84.6162 24.1537 84.5262 24.3111L82.1206 28.7738ZM88.0381 28.4141V28.0881C88.0381 27.6272 87.8695 27.0089 86.9702 27.0089C86.1384 27.0089 85.936 27.6272 85.936 28.2117V28.4141H88.0381ZM88.1281 30.2913C88.2967 30.0328 88.544 30.0103 89.0273 30.2689C89.3983 30.4712 89.5332 30.6735 89.2747 31.0782C88.7913 31.7864 87.9594 32.1349 87.0039 32.1349C85.2616 32.1349 84.3848 31.1794 84.3848 29.6731V28.2679C84.3848 26.6717 85.4189 25.7275 86.9815 25.7275C88.5889 25.7275 89.5332 26.5368 89.5332 28.4253V28.7626C89.5332 29.2234 89.2409 29.482 88.78 29.482H85.936V29.7293C85.936 30.4038 86.2171 30.8534 87.0039 30.8534C87.5548 30.8534 87.937 30.5836 88.1281 30.2913ZM93.9921 30.2239V29.3583C92.3509 29.2796 92.025 29.6169 92.025 30.1677V30.1902C92.025 30.5611 92.2723 30.8534 92.7331 30.8534C93.2278 30.8534 93.6774 30.6623 93.9921 30.2239ZM94.0371 31.5054V31.2356C93.6549 31.7302 93.1603 32.1124 92.306 32.1124C91.1481 32.1124 90.4624 31.3031 90.4624 30.3588V30.2801C90.4624 29.0773 91.283 28.1668 93.9921 28.4028V27.942C93.9921 27.3574 93.7224 27.0089 92.958 27.0089C92.4296 27.0089 92.2048 27.2113 92.025 27.4923C91.8114 27.8295 91.6428 27.8633 91.2268 27.6384C90.8109 27.4361 90.6086 27.2113 90.8446 26.8066C91.2606 26.0872 91.9238 25.7275 93.1828 25.7275C94.4868 25.7275 95.5322 26.5256 95.5322 28.0319V31.5054C95.5322 31.9663 95.3074 32.0899 94.779 32.0899C94.2619 32.0899 94.0371 31.9663 94.0371 31.5054ZM100.015 27.2C99.9705 27.2 99.8693 27.1888 99.8131 27.1888C99.0824 27.1888 98.6553 27.7733 98.5091 28.2679V31.4604C98.5091 31.9326 98.2731 32.0674 97.7223 32.0674C97.1715 32.0674 96.9354 31.9326 96.9354 31.4604V26.3907C96.9354 25.941 97.1602 25.8061 97.6998 25.8061C98.2394 25.8061 98.4642 25.941 98.4642 26.3907V26.9078C98.8014 26.3008 99.3635 25.7387 100.072 25.7387C100.544 25.7387 100.611 26.031 100.544 26.4694C100.443 27.0427 100.263 27.2225 100.015 27.2ZM102.295 30.3813C102.441 30.696 102.812 30.9096 103.262 30.9096C103.734 30.9096 104.038 30.6735 104.038 30.3251C104.038 29.4033 101.014 29.6394 101.014 27.5935C101.014 26.4806 101.891 25.7275 103.228 25.7275C104.262 25.7275 105.016 26.2221 105.274 26.964C105.409 27.3462 105.173 27.5485 104.701 27.6497C104.285 27.7509 104.094 27.6947 103.981 27.4473C103.835 27.1214 103.521 26.9752 103.138 26.9752C102.666 26.9752 102.43 27.1663 102.43 27.5036C102.43 28.3691 105.454 28.1106 105.454 30.2576C105.454 31.3368 104.611 32.1349 103.262 32.1349C102.16 32.1349 101.418 31.7977 101.059 31.1007C100.834 30.6623 100.991 30.4487 101.374 30.2127C101.801 29.9654 102.104 29.9766 102.295 30.3813Z" fill="#00A9AC"/>
<path d="M56.1105 42.4541C56.1105 40.7792 56.5152 39.7338 58.6847 38.8458C59.865 38.3624 60.2922 37.9465 60.2922 37.3619C60.2922 36.8223 60.0786 36.294 59.1568 36.294C58.28 36.294 57.999 36.6425 57.718 37.1933C57.5494 37.5305 57.347 37.6092 56.8637 37.3956C56.3915 37.2158 56.2004 36.9797 56.3803 36.5863C56.8749 35.5184 57.9316 34.8776 59.1568 34.8776C61.169 34.8776 61.9334 35.9343 61.9334 37.3619C61.9334 38.6322 61.1353 39.3741 59.4828 40.071C57.8416 40.768 57.7967 41.0827 57.7967 41.7235V41.8134H61.3376H61.3489C61.776 41.8134 61.8997 42.0382 61.8997 42.5328C61.8997 43.0162 61.776 43.241 61.3489 43.241H57.1334C56.4253 43.241 56.1105 43.0837 56.1105 42.4541ZM69.4239 37.7554V40.487C69.4239 42.2293 68.637 43.3759 66.4225 43.3759C64.2192 43.3759 63.4323 42.2293 63.4323 40.4757V37.7554C63.4323 36.013 64.2192 34.8776 66.4225 34.8776C68.637 34.8776 69.4239 36.013 69.4239 37.7554ZM67.8051 40.2846V37.9577C67.8051 36.901 67.6028 36.294 66.4225 36.294C65.4333 36.294 65.0511 36.901 65.0511 37.9577V40.2734C65.0511 41.33 65.4333 41.9483 66.4225 41.9483C67.6028 41.9483 67.8051 41.33 67.8051 40.2846ZM73.3171 35.4847C73.4296 35.4172 73.497 35.3385 73.5532 35.2261C73.6881 34.9676 73.9129 34.9338 74.2389 34.9338C74.6773 34.9338 74.8797 35.0463 74.8797 35.4284V41.8134H75.7902C76.2061 41.8134 76.3298 42.0382 76.3298 42.5441C76.3298 43.0162 76.2061 43.241 75.7902 43.241H72.238C71.8333 43.241 71.6984 43.0162 71.6984 42.5441C71.6984 42.0382 71.8333 41.8134 72.238 41.8134H73.2609V37.0247L72.0919 37.1034C71.7321 37.1259 71.6197 36.991 71.5748 36.575C71.5298 36.1366 71.5973 35.9455 71.9457 35.8669C72.2492 35.7994 72.9687 35.6982 73.3171 35.4847ZM80.9762 42.6902C80.9762 43.1848 80.7289 43.3197 80.1668 43.3197C79.6048 43.3197 79.3575 43.1848 79.3575 42.6902C79.3575 40.5207 80.8188 38.1038 81.898 36.4402H78.8629C78.4357 36.4402 78.3121 36.2153 78.3121 35.7207C78.3121 35.2374 78.4357 35.0125 78.8629 35.0125H83.5392C83.7977 35.0125 83.9101 35.2374 83.9101 35.5521C83.9101 35.8893 83.8652 36.0017 83.7303 36.1928C82.46 37.9914 80.9762 40.6218 80.9762 42.6902ZM85.7913 39.2279H89.3097C89.6582 39.2279 89.7706 39.419 89.7706 39.8462C89.7706 40.2509 89.6582 40.442 89.3097 40.442H85.7913C85.4428 40.442 85.3304 40.2509 85.3304 39.8462C85.3304 39.419 85.4428 39.2279 85.7913 39.2279ZM91.0085 42.4541C91.0085 40.7792 91.4131 39.7338 93.5827 38.8458C94.763 38.3624 95.1902 37.9465 95.1902 37.3619C95.1902 36.8223 94.9766 36.294 94.0548 36.294C93.178 36.294 92.897 36.6425 92.6159 37.1933C92.4473 37.5305 92.245 37.6092 91.7616 37.3956C91.2895 37.2158 91.0984 36.9797 91.2783 36.5863C91.7729 35.5184 92.8295 34.8776 94.0548 34.8776C96.067 34.8776 96.8314 35.9343 96.8314 37.3619C96.8314 38.6322 96.0332 39.3741 94.3808 40.071C92.7396 40.768 92.6946 41.0827 92.6946 41.7235V41.8134H96.2356H96.2468C96.674 41.8134 96.7976 42.0382 96.7976 42.5328C96.7976 43.0162 96.674 43.241 96.2468 43.241H92.0314C91.3232 43.241 91.0085 43.0837 91.0085 42.4541ZM104.322 37.7554V40.487C104.322 42.2293 103.535 43.3759 101.32 43.3759C99.1172 43.3759 98.3303 42.2293 98.3303 40.4757V37.7554C98.3303 36.013 99.1172 34.8776 101.32 34.8776C103.535 34.8776 104.322 36.013 104.322 37.7554ZM102.703 40.2846V37.9577C102.703 36.901 102.501 36.294 101.32 36.294C100.331 36.294 99.949 36.901 99.949 37.9577V40.2734C99.949 41.33 100.331 41.9483 101.32 41.9483C102.501 41.9483 102.703 41.33 102.703 40.2846ZM105.675 42.4541C105.675 40.7792 106.079 39.7338 108.249 38.8458C109.429 38.3624 109.856 37.9465 109.856 37.3619C109.856 36.8223 109.643 36.294 108.721 36.294C107.844 36.294 107.563 36.6425 107.282 37.1933C107.113 37.5305 106.911 37.6092 106.428 37.3956C105.956 37.2158 105.765 36.9797 105.944 36.5863C106.439 35.5184 107.496 34.8776 108.721 34.8776C110.733 34.8776 111.498 35.9343 111.498 37.3619C111.498 38.6322 110.699 39.3741 109.047 40.071C107.406 40.768 107.361 41.0827 107.361 41.7235V41.8134H110.902H110.913C111.34 41.8134 111.464 42.0382 111.464 42.5328C111.464 43.0162 111.34 43.241 110.913 43.241H106.698C105.989 43.241 105.675 43.0837 105.675 42.4541ZM116.492 42.6902V41.5099H113.637C113.277 41.5099 113.109 41.3413 112.974 40.9478C112.884 40.6331 112.873 40.442 113.086 40.1385L116.695 35.1474C116.965 34.7765 117.234 34.8327 117.65 35.1474C118.044 35.4622 118.134 35.687 117.875 36.0467L114.975 40.0935H116.492V39.3066C116.492 38.812 116.74 38.6771 117.302 38.6771C117.864 38.6771 118.111 38.812 118.111 39.3066V40.0935H118.505C118.932 40.0935 119.055 40.3183 119.055 40.8129C119.055 41.2963 118.932 41.5099 118.505 41.5099H118.111V42.6902C118.111 43.1848 117.864 43.3197 117.302 43.3197C116.74 43.3197 116.492 43.1848 116.492 42.6902Z" fill="#00A9AC"/>
<path d="M39.9945 49.0338V49.7491C39.9945 50.8754 39.1574 51.6744 37.8941 51.6744C36.4939 51.6744 35.7405 50.9743 35.7405 49.7415V47.7934C35.7405 46.6747 36.532 45.9213 37.8713 45.9213C39.0737 45.9213 39.5531 46.4768 39.7586 47.1313C39.8499 47.4357 39.6749 47.5575 39.3248 47.6336C38.9595 47.7173 38.853 47.6488 38.7617 47.4205C38.6171 47.0552 38.3736 46.8802 37.9094 46.8802C37.1408 46.8802 36.8364 47.2835 36.8364 47.9684V49.6198C36.8364 50.4188 37.2854 50.708 37.8941 50.708C38.5029 50.708 38.9215 50.4112 38.9215 49.6121V49.361H38.1985C37.955 49.361 37.8789 49.2317 37.8789 48.9501C37.8789 48.6609 37.955 48.5315 38.1985 48.5315H38.2062H38.1985H39.4161C39.8043 48.5315 39.9945 48.6609 39.9945 49.0338ZM41.8463 46.2638V51.195C41.8463 51.5146 41.6865 51.606 41.3136 51.606C40.9408 51.606 40.7809 51.5146 40.7809 51.195V46.2638C40.7809 45.9441 40.9408 45.8528 41.3136 45.8528C41.6865 45.8528 41.8463 45.9441 41.8463 46.2638ZM46.4089 48.9653V50.0459C46.4089 51.0885 45.7316 51.6744 44.5597 51.6744C43.3802 51.6744 42.7181 51.0809 42.7181 50.0764V48.9653C42.7181 47.9151 43.3802 47.3368 44.5673 47.3368C45.7316 47.3368 46.4089 47.9151 46.4089 48.9653ZM45.3435 49.9926V49.0186C45.3435 48.4174 44.9935 48.2043 44.5597 48.2043C44.1259 48.2043 43.7835 48.4174 43.7835 49.0262V49.985C43.7835 50.5938 44.1259 50.8069 44.5597 50.8069C44.9935 50.8069 45.3435 50.5938 45.3435 49.9926ZM49.9853 49.9242V49.186C49.9853 48.5239 49.7114 48.2043 49.2015 48.2043C48.7829 48.2043 48.3416 48.5163 48.3416 49.0947V49.8328C48.3416 50.3579 48.646 50.8069 49.2015 50.8069C49.5972 50.8069 49.9853 50.6319 49.9853 49.9242ZM48.3111 51.1113V51.2407C48.3111 51.5451 48.1589 51.6364 47.7936 51.6364C47.4284 51.6364 47.2762 51.5451 47.2762 51.2407V46.2638C47.2762 45.9441 47.436 45.8528 47.8089 45.8528C48.1818 45.8528 48.3416 45.9441 48.3416 46.2638V47.976C48.5775 47.6944 49.0112 47.3368 49.5896 47.3368C50.4724 47.3368 51.0507 47.9532 51.0507 49.0034V50.0307C51.0507 51.1418 50.2593 51.6744 49.4298 51.6744C48.7829 51.6744 48.4633 51.3701 48.3111 51.1113ZM54.0823 50.3808V49.7948C52.9713 49.7415 52.7506 49.9698 52.7506 50.3427V50.3579C52.7506 50.6091 52.918 50.8069 53.23 50.8069C53.5649 50.8069 53.8693 50.6775 54.0823 50.3808ZM54.1128 51.2483V51.0657C53.854 51.4005 53.5192 51.6592 52.9408 51.6592C52.157 51.6592 51.6928 51.1113 51.6928 50.4721V50.4188C51.6928 49.6045 52.2483 48.9881 54.0823 49.1479V48.8359C54.0823 48.4402 53.8997 48.2043 53.3822 48.2043C53.0245 48.2043 52.8723 48.3413 52.7506 48.5315C52.606 48.7598 52.4918 48.7827 52.2103 48.6305C51.9287 48.4935 51.7917 48.3413 51.9515 48.0673C52.2331 47.5803 52.6821 47.3368 53.5344 47.3368C54.4172 47.3368 55.1249 47.8771 55.1249 48.8968V51.2483C55.1249 51.5603 54.9727 51.644 54.615 51.644C54.265 51.644 54.1128 51.5603 54.1128 51.2483ZM57.1554 46.2638V51.195C57.1554 51.5146 56.9956 51.606 56.6228 51.606C56.2499 51.606 56.0901 51.5146 56.0901 51.195V46.2638C56.0901 45.9441 56.2499 45.8528 56.6228 45.8528C56.9956 45.8528 57.1554 45.9441 57.1554 46.2638ZM60.3898 46.3855V51.2102C60.3898 51.5451 60.2224 51.6364 59.8419 51.6364C59.4614 51.6364 59.294 51.5451 59.294 51.2102V46.3855C59.294 46.0507 59.4614 45.9594 59.8419 45.9594C60.2224 45.9594 60.3898 46.0507 60.3898 46.3855ZM62.1038 50.4873C62.2027 50.7004 62.4538 50.845 62.7582 50.845C63.0778 50.845 63.2833 50.6852 63.2833 50.4492C63.2833 49.8252 61.2362 49.985 61.2362 48.6C61.2362 47.8466 61.8298 47.3368 62.7354 47.3368C63.4355 47.3368 63.9454 47.6716 64.1204 48.1739C64.2117 48.4326 64.0519 48.5696 63.7323 48.6381C63.4507 48.7066 63.3214 48.6685 63.2453 48.5011C63.1463 48.2804 62.9333 48.1815 62.6745 48.1815C62.3549 48.1815 62.1951 48.3108 62.1951 48.5391C62.1951 49.1251 64.2422 48.9501 64.2422 50.4036C64.2422 51.1341 63.6714 51.6744 62.7582 51.6744C62.0124 51.6744 61.5102 51.4462 61.2667 50.9743C61.1145 50.6775 61.221 50.533 61.4798 50.3731C61.7689 50.2057 61.9744 50.2133 62.1038 50.4873ZM66.0214 46.2638V51.195C66.0214 51.5146 65.8615 51.606 65.4887 51.606C65.1158 51.606 64.956 51.5146 64.956 51.195V46.2638C64.956 45.9441 65.1158 45.8528 65.4887 45.8528C65.8615 45.8528 66.0214 45.9441 66.0214 46.2638ZM69.1685 50.3808V49.7948C68.0574 49.7415 67.8367 49.9698 67.8367 50.3427V50.3579C67.8367 50.6091 68.0042 50.8069 68.3162 50.8069C68.651 50.8069 68.9554 50.6775 69.1685 50.3808ZM69.1989 51.2483V51.0657C68.9402 51.4005 68.6054 51.6592 68.027 51.6592C67.2432 51.6592 66.779 51.1113 66.779 50.4721V50.4188C66.779 49.6045 67.3345 48.9881 69.1685 49.1479V48.8359C69.1685 48.4402 68.9859 48.2043 68.4684 48.2043C68.1107 48.2043 67.9585 48.3413 67.8367 48.5315C67.6922 48.7598 67.578 48.7827 67.2964 48.6305C67.0149 48.4935 66.8779 48.3413 67.0377 48.0673C67.3193 47.5803 67.7683 47.3368 68.6206 47.3368C69.5033 47.3368 70.2111 47.8771 70.2111 48.8968V51.2483C70.2111 51.5603 70.0589 51.644 69.7012 51.644C69.3511 51.644 69.1989 51.5603 69.1989 51.2483ZM75.7955 51.2179V48.874C75.7955 48.5239 75.6965 48.2043 75.316 48.2043C74.8518 48.2043 74.6083 48.5772 74.5474 48.8512V51.2179C74.5474 51.5375 74.3876 51.6288 74.0147 51.6288C73.6418 51.6288 73.482 51.5375 73.482 51.2179V48.874C73.482 48.425 73.3222 48.2043 72.9722 48.2043C72.5232 48.2043 72.2873 48.5924 72.2264 48.8435V51.2179C72.2264 51.5375 72.0666 51.6288 71.6937 51.6288C71.3208 51.6288 71.161 51.5375 71.161 51.2179V47.7705C71.161 47.4661 71.3132 47.3748 71.6785 47.3748C72.0438 47.3748 72.196 47.4661 72.196 47.7705V47.976C72.4166 47.6716 72.8047 47.3368 73.444 47.3368C74.0147 47.3368 74.2963 47.7097 74.4333 48.0673C74.7681 47.5651 75.2171 47.3368 75.7346 47.3368C76.4499 47.3368 76.8609 47.9151 76.8609 48.6609V51.2179C76.8609 51.5375 76.7011 51.6288 76.3282 51.6288C75.9553 51.6288 75.7955 51.5375 75.7955 51.2179ZM78.8554 51.2255C78.8554 51.5451 78.6956 51.6364 78.3227 51.6364C77.9498 51.6364 77.79 51.5451 77.79 51.2255V47.7858C77.79 47.4661 77.9498 47.3748 78.3227 47.3748C78.6956 47.3748 78.8554 47.4661 78.8554 47.7858V51.2255ZM78.8554 46.2029C78.8554 45.9213 78.6499 45.8452 78.3227 45.8452C77.9955 45.8452 77.79 45.9213 77.79 46.2029V46.5606C77.79 46.8421 77.9955 46.9182 78.3227 46.9182C78.6499 46.9182 78.8554 46.8421 78.8554 46.5606V46.2029ZM83.0534 48.425C83.1295 48.7142 82.9773 48.8435 82.6425 48.912C82.2924 48.9957 82.163 48.9273 82.0946 48.6761C82.0185 48.4174 81.7902 48.2043 81.4705 48.2043C81.0596 48.2043 80.778 48.4402 80.778 49.0718V50.0079C80.778 50.5786 81.0596 50.8069 81.5086 50.8069C81.8739 50.8069 82.0185 50.5862 82.1402 50.3503C82.2468 50.1448 82.4446 50.1372 82.749 50.3123C83.0154 50.4721 83.1143 50.6167 82.9621 50.9211C82.7414 51.3624 82.2468 51.6744 81.4781 51.6744C80.4508 51.6744 79.7126 51.1265 79.7126 50.0079V49.011C79.7126 47.8999 80.5421 47.3368 81.4705 47.3368C82.262 47.3368 82.8632 47.7173 83.0534 48.425ZM85.0436 51.2102V46.5529C85.0436 46.1268 85.2567 46.0126 85.7361 46.0126H87.8212C88.1104 46.0126 88.1941 46.1648 88.1941 46.4997C88.1941 46.8269 88.1104 46.9791 87.8212 46.9791H86.1394V48.4402H87.6538C87.9278 48.4402 88.0115 48.5848 88.0115 48.912C88.0115 49.2317 87.9278 49.3762 87.6538 49.3762H86.1394V51.2102C86.1394 51.5451 85.972 51.6364 85.5915 51.6364C85.211 51.6364 85.0436 51.5451 85.0436 51.2102ZM89.8839 51.2255C89.8839 51.5451 89.7241 51.6364 89.3512 51.6364C88.9783 51.6364 88.8185 51.5451 88.8185 51.2255V47.7858C88.8185 47.4661 88.9783 47.3748 89.3512 47.3748C89.7241 47.3748 89.8839 47.4661 89.8839 47.7858V51.2255ZM89.8839 46.2029C89.8839 45.9213 89.6784 45.8452 89.3512 45.8452C89.024 45.8452 88.8185 45.9213 88.8185 46.2029V46.5606C88.8185 46.8421 89.024 46.9182 89.3512 46.9182C89.6784 46.9182 89.8839 46.8421 89.8839 46.5606V46.2029ZM90.8325 51.2179V47.7705C90.8325 47.4661 90.9847 47.3748 91.3499 47.3748C91.7152 47.3748 91.8674 47.4661 91.8674 47.7705V48.0064C92.1262 47.7097 92.5828 47.3368 93.2296 47.3368C94.0286 47.3368 94.432 47.9151 94.432 48.6V51.2179C94.432 51.5375 94.2722 51.6288 93.8993 51.6288C93.5264 51.6288 93.3666 51.5375 93.3666 51.2179V48.8892C93.3666 48.5848 93.3057 48.2043 92.7882 48.2043C92.3088 48.2043 92.0424 48.5468 91.8979 48.8512V51.2179C91.8979 51.5375 91.738 51.6288 91.3652 51.6288C90.9923 51.6288 90.8325 51.5375 90.8325 51.2179ZM97.5424 50.3808V49.7948C96.4313 49.7415 96.2106 49.9698 96.2106 50.3427V50.3579C96.2106 50.6091 96.378 50.8069 96.6901 50.8069C97.0249 50.8069 97.3293 50.6775 97.5424 50.3808ZM97.5728 51.2483V51.0657C97.3141 51.4005 96.9792 51.6592 96.4009 51.6592C95.6171 51.6592 95.1528 51.1113 95.1528 50.4721V50.4188C95.1528 49.6045 95.7084 48.9881 97.5424 49.1479V48.8359C97.5424 48.4402 97.3597 48.2043 96.8423 48.2043C96.4846 48.2043 96.3324 48.3413 96.2106 48.5315C96.066 48.7598 95.9519 48.7827 95.6703 48.6305C95.3888 48.4935 95.2518 48.3413 95.4116 48.0673C95.6932 47.5803 96.1421 47.3368 96.9945 47.3368C97.8772 47.3368 98.5849 47.8771 98.5849 48.8968V51.2483C98.5849 51.5603 98.4327 51.644 98.0751 51.644C97.725 51.644 97.5728 51.5603 97.5728 51.2483ZM99.5349 51.2179V47.7705C99.5349 47.4661 99.6871 47.3748 100.052 47.3748C100.418 47.3748 100.57 47.4661 100.57 47.7705V48.0064C100.829 47.7097 101.285 47.3368 101.932 47.3368C102.731 47.3368 103.134 47.9151 103.134 48.6V51.2179C103.134 51.5375 102.975 51.6288 102.602 51.6288C102.229 51.6288 102.069 51.5375 102.069 51.2179V48.8892C102.069 48.5848 102.008 48.2043 101.491 48.2043C101.011 48.2043 100.745 48.5468 100.6 48.8512V51.2179C100.6 51.5375 100.44 51.6288 100.068 51.6288C99.6947 51.6288 99.5349 51.5375 99.5349 51.2179ZM107.31 48.425C107.386 48.7142 107.234 48.8435 106.899 48.912C106.549 48.9957 106.42 48.9273 106.351 48.6761C106.275 48.4174 106.047 48.2043 105.727 48.2043C105.316 48.2043 105.035 48.4402 105.035 49.0718V50.0079C105.035 50.5786 105.316 50.8069 105.765 50.8069C106.131 50.8069 106.275 50.5862 106.397 50.3503C106.504 50.1448 106.701 50.1372 107.006 50.3123C107.272 50.4721 107.371 50.6167 107.219 50.9211C106.998 51.3624 106.504 51.6744 105.735 51.6744C104.708 51.6744 103.969 51.1265 103.969 50.0079V49.011C103.969 47.8999 104.799 47.3368 105.727 47.3368C106.519 47.3368 107.12 47.7173 107.31 48.425ZM110.508 49.1556V48.9349C110.508 48.6229 110.394 48.2043 109.785 48.2043C109.222 48.2043 109.085 48.6229 109.085 49.0186V49.1556H110.508ZM110.569 50.4264C110.683 50.2514 110.85 50.2362 111.177 50.4112C111.429 50.5482 111.52 50.6852 111.345 50.9591C111.018 51.4385 110.454 51.6744 109.808 51.6744C108.628 51.6744 108.034 51.0276 108.034 50.0079V49.0566C108.034 47.976 108.735 47.3368 109.792 47.3368C110.881 47.3368 111.52 47.8847 111.52 49.1632V49.3915C111.52 49.7035 111.322 49.8785 111.01 49.8785H109.085V50.0459C109.085 50.5025 109.275 50.8069 109.808 50.8069C110.181 50.8069 110.439 50.6243 110.569 50.4264ZM115.98 49.2697L115.387 47.1465L114.747 49.2697H115.98ZM116.11 46.2942L117.624 51.1874C117.723 51.4994 117.525 51.6288 117.16 51.6288C116.779 51.6288 116.627 51.5679 116.559 51.3168L116.231 50.1677H114.473L114.116 51.332C114.04 51.5679 113.903 51.6288 113.56 51.6288C113.165 51.6288 113.043 51.4994 113.134 51.2102L114.709 46.2942C114.793 46.0202 115.014 45.9518 115.463 45.9518C115.79 45.9518 116.026 46.0279 116.11 46.2942ZM123.123 47.7781L122.248 51.3396C122.187 51.5679 121.929 51.644 121.586 51.644C121.236 51.644 121.023 51.5831 120.97 51.3396L120.696 50.1677C120.589 49.6882 120.513 49.3077 120.46 48.7979H120.445C120.384 49.2925 120.308 49.673 120.171 50.3275L119.965 51.332C119.912 51.5679 119.676 51.644 119.326 51.644C118.961 51.644 118.755 51.5831 118.687 51.332L117.736 47.8162C117.652 47.5042 117.812 47.3748 118.23 47.3748C118.55 47.3748 118.71 47.4357 118.77 47.6944L119.113 49.2545C119.227 49.7643 119.311 50.2286 119.364 50.7156H119.379C119.44 50.2057 119.524 49.7643 119.63 49.2545L119.958 47.6868C120.011 47.4357 120.186 47.3748 120.506 47.3748C120.81 47.3748 121 47.4509 121.053 47.6868L121.373 49.2621C121.464 49.6882 121.556 50.2133 121.609 50.7156H121.624C121.685 50.2133 121.784 49.6654 121.875 49.2545L122.233 47.664C122.286 47.4281 122.423 47.3748 122.697 47.3748C123.063 47.3748 123.199 47.4966 123.123 47.7781ZM125.842 50.3808V49.7948C124.731 49.7415 124.51 49.9698 124.51 50.3427V50.3579C124.51 50.6091 124.678 50.8069 124.99 50.8069C125.324 50.8069 125.629 50.6775 125.842 50.3808ZM125.872 51.2483V51.0657C125.614 51.4005 125.279 51.6592 124.7 51.6592C123.917 51.6592 123.452 51.1113 123.452 50.4721V50.4188C123.452 49.6045 124.008 48.9881 125.842 49.1479V48.8359C125.842 48.4402 125.659 48.2043 125.142 48.2043C124.784 48.2043 124.632 48.3413 124.51 48.5315C124.366 48.7598 124.251 48.7827 123.97 48.6305C123.688 48.4935 123.551 48.3413 123.711 48.0673C123.993 47.5803 124.442 47.3368 125.294 47.3368C126.177 47.3368 126.885 47.8771 126.885 48.8968V51.2483C126.885 51.5603 126.732 51.644 126.375 51.644C126.025 51.644 125.872 51.5603 125.872 51.2483ZM129.92 48.3337C129.889 48.3337 129.821 48.3261 129.783 48.3261C129.288 48.3261 128.999 48.7218 128.9 49.0566V51.2179C128.9 51.5375 128.74 51.6288 128.367 51.6288C127.994 51.6288 127.834 51.5375 127.834 51.2179V47.7858C127.834 47.4814 127.987 47.39 128.352 47.39C128.717 47.39 128.869 47.4814 128.869 47.7858V48.1358C129.098 47.7249 129.478 47.3444 129.958 47.3444C130.277 47.3444 130.323 47.5422 130.277 47.839C130.209 48.2271 130.087 48.3489 129.92 48.3337ZM133.291 49.7872V49.049C133.291 48.5315 132.903 48.2043 132.469 48.2043C132.005 48.2043 131.647 48.4174 131.647 49.2164V49.9089C131.647 50.5253 131.944 50.8069 132.446 50.8069C133.07 50.8069 133.291 50.3503 133.291 49.7872ZM133.291 47.7097V46.2638C133.291 45.9441 133.451 45.8528 133.824 45.8528C134.197 45.8528 134.357 45.9441 134.357 46.2638V51.2255C134.357 51.5451 134.197 51.6364 133.824 51.6364C133.451 51.6364 133.322 51.5451 133.322 51.2255V51.157C133.131 51.3929 132.728 51.6744 132.134 51.6744C131.267 51.6744 130.582 51.1189 130.582 50.0231V48.9881C130.582 48.0064 131.176 47.3368 132.165 47.3368C132.652 47.3368 133.01 47.4737 133.291 47.7097ZM136.033 50.4873C136.132 50.7004 136.383 50.845 136.688 50.845C137.007 50.845 137.213 50.6852 137.213 50.4492C137.213 49.8252 135.166 49.985 135.166 48.6C135.166 47.8466 135.759 47.3368 136.665 47.3368C137.365 47.3368 137.875 47.6716 138.05 48.1739C138.141 48.4326 137.982 48.5696 137.662 48.6381C137.38 48.7066 137.251 48.6685 137.175 48.5011C137.076 48.2804 136.863 48.1815 136.604 48.1815C136.285 48.1815 136.125 48.3108 136.125 48.5391C136.125 49.1251 138.172 48.9501 138.172 50.4036C138.172 51.1341 137.601 51.6744 136.688 51.6744C135.942 51.6744 135.44 51.4462 135.196 50.9743C135.044 50.6775 135.151 50.533 135.409 50.3731C135.699 50.2057 135.904 50.2133 136.033 50.4873Z" fill="#00A9AC"/>
</g>
<defs>
<clipPath id="clip0_472_3511">
<rect width="170" height="126.813" fill="white" transform="translate(0 -0.000244141)"/>
</clipPath>
</defs>
</svg>
