<svg width="170" height="127" viewBox="0 0 170 127" fill="none" xmlns="http://www.w3.org/2000/svg">
<g clip-path="url(#clip0_427_1967)">
<path d="M13.9798 82.1975L14.1606 81.456C14.2511 81.0401 14.5766 80.7326 14.9745 80.6241L18.5915 79.6475C19.4234 79.4305 20.3096 79.6475 20.9426 80.2262L21.2319 80.4975L21.1234 80.8773C20.8702 81.6911 20.2191 82.3241 19.3872 82.5592L15.7702 83.5358C15.3723 83.6443 14.9383 83.5358 14.6489 83.2103L14.1245 82.6496C14.016 82.523 13.9617 82.3603 13.9979 82.1975H13.9798ZM155.912 44.1826L155.387 43.622C155.098 43.3145 154.664 43.1879 154.266 43.2965L150.649 44.273C149.817 44.4901 149.166 45.1231 148.913 45.955L148.804 46.3348L149.094 46.606C149.727 47.1848 150.613 47.4018 151.445 47.1848L155.062 46.2082C155.46 46.0996 155.785 45.7741 155.876 45.3762L156.056 44.6348C156.093 44.472 156.056 44.3092 155.93 44.1826H155.912ZM12.7138 76.573C12.6596 76.7358 12.6957 76.8986 12.8043 77.0252L13.2926 77.622C13.5638 77.9475 13.9798 78.1103 14.3957 78.0199L18.067 77.3326C18.917 77.1699 19.6223 76.5911 19.9298 75.7954L20.0745 75.4337L19.8032 75.1443C19.2245 74.5113 18.3564 74.222 17.5064 74.3848L13.8351 75.072C13.4191 75.1443 13.0755 75.4518 12.9489 75.8496L12.7138 76.573ZM165.28 46.5518L160.505 47.4379C159.963 47.5465 159.529 47.9262 159.348 48.4507L159.221 48.8124C158.95 47.4199 158.624 46.0273 158.281 44.6348L158.552 44.9241C158.932 45.322 159.493 45.4848 160.017 45.3401L164.719 44.0741C165.804 43.7848 166.654 42.9709 166.98 41.9039L167.124 41.4156L166.745 41.072C165.931 40.3124 164.773 40.0231 163.688 40.3124L158.986 41.5784C158.462 41.7231 158.046 42.139 157.919 42.6635L157.829 43.0433C157.449 41.6688 157.033 40.2943 156.563 38.956L156.852 39.2092C157.268 39.5709 157.829 39.6794 158.353 39.4986L162.929 37.8709C163.978 37.4911 164.773 36.605 165.009 35.5199L165.117 35.0135L164.719 34.6879C163.851 34.0007 162.676 33.8018 161.627 34.1816L157.051 35.8092C156.545 35.9901 156.165 36.4422 156.074 36.9848L156.02 37.3645C155.532 36.0262 155.007 34.706 154.429 33.4039L154.736 33.639C155.17 33.9645 155.749 34.0369 156.255 33.8199L160.704 31.8486C161.717 31.3965 162.44 30.456 162.603 29.3348L162.676 28.8284L162.241 28.539C161.319 27.9241 160.126 27.8156 159.113 28.2677L154.664 30.239C154.157 30.456 153.832 30.9443 153.778 31.4869L153.741 31.8667C153.145 30.5645 152.53 29.2986 151.861 28.0326L152.186 28.2316C152.638 28.5209 153.235 28.5571 153.705 28.2858L157.973 25.9709C158.95 25.4465 159.601 24.4337 159.655 23.3305L159.691 22.8241L159.239 22.5709C158.263 22.0284 157.087 22.0103 156.093 22.5528L151.824 24.8677C151.336 25.1209 151.047 25.6273 151.047 26.1699V26.5496C150.36 25.3018 149.636 24.0901 148.877 22.8965L149.22 23.0773C149.709 23.3305 150.287 23.3124 150.739 23.023L154.809 20.3826C155.749 19.7677 156.31 18.7369 156.291 17.6156V17.1092L155.821 16.8922C154.809 16.422 153.633 16.5124 152.693 17.1092L148.623 19.7496C148.171 20.039 147.9 20.5635 147.954 21.1241L147.99 21.5039C147.213 20.3284 146.381 19.1709 145.531 18.0316L145.874 18.1943C146.381 18.4113 146.96 18.339 147.394 18.0135L151.246 15.0475C152.132 14.3603 152.602 13.2752 152.494 12.172L152.439 11.6656L151.951 11.4848C150.902 11.105 149.727 11.2677 148.84 11.955L144.988 14.9209C144.554 15.2465 144.337 15.789 144.428 16.3316L144.482 16.7113C143.614 15.5901 142.691 14.505 141.751 13.4379L142.113 13.5645C142.637 13.7454 143.198 13.6369 143.614 13.2571L147.231 10.0018C148.063 9.26028 148.443 8.13901 148.262 7.03581L148.171 6.52943L147.683 6.38475C146.616 6.0773 145.459 6.34858 144.627 7.09007L141.01 10.3454C140.612 10.7071 140.431 11.2677 140.557 11.8103L140.648 12.1901C139.689 11.1411 138.695 10.1284 137.664 9.13369L138.044 9.2422C138.568 9.38688 139.129 9.22411 139.509 8.82624L142.854 5.29964C143.614 4.48581 143.921 3.34645 143.65 2.26135L143.523 1.75496L143.017 1.64645C141.914 1.42943 140.793 1.79113 140.015 2.58688L136.669 6.11347C136.289 6.51135 136.163 7.07198 136.326 7.59645L136.452 7.97624C133.341 5.10071 129.996 2.46028 126.397 0.109219C126.107 -0.0716323 125.728 0.000708147 125.529 0.29007C125.348 0.579432 125.42 0.959219 125.71 1.15815C141.046 11.1773 152.114 26.4592 156.852 44.1645C161.59 61.8699 159.655 80.6241 151.39 96.973C151.228 97.2805 151.354 97.6603 151.662 97.805C151.806 97.8773 151.969 97.8954 152.114 97.8592C152.277 97.823 152.421 97.6965 152.512 97.5337C154.447 93.6996 156.038 89.739 157.286 85.6879L157.377 86.0677C157.485 86.6103 157.883 87.0262 158.407 87.189L163.073 88.5635C164.14 88.889 165.298 88.6177 166.148 87.8943L166.528 87.5507L166.383 87.0624C166.076 85.9954 165.244 85.1454 164.177 84.8199L159.511 83.4454C158.986 83.2826 158.426 83.4454 158.028 83.8252L157.756 84.0965C158.154 82.722 158.498 81.3475 158.805 79.955L158.914 80.3167C159.077 80.8411 159.493 81.239 160.035 81.3475L164.791 82.3603C165.877 82.5954 167.016 82.2518 167.794 81.4379L168.155 81.0762L167.974 80.5879C167.595 79.539 166.69 78.7613 165.605 78.5262L160.849 77.5135C160.306 77.405 159.764 77.5858 159.402 78.0018L159.149 78.2911C159.42 76.8986 159.673 75.506 159.872 74.0954L160.017 74.4571C160.216 74.9635 160.668 75.3252 161.211 75.3975L166.039 76.0305C167.143 76.1752 168.246 75.7411 168.969 74.8911L169.295 74.4933L169.078 74.023C168.607 73.0103 167.649 72.305 166.546 72.1603L161.717 71.5273C161.174 71.455 160.632 71.6901 160.306 72.1241L160.089 72.4316C160.252 71.0209 160.397 69.6103 160.487 68.1996L160.65 68.5433C160.885 69.0316 161.373 69.3571 161.916 69.3933L166.763 69.6464C167.884 69.7007 168.951 69.1943 169.584 68.272L169.873 67.856L169.62 67.4039C169.078 66.4273 168.065 65.7943 166.962 65.7401L162.115 65.4869C161.572 65.4507 161.048 65.722 160.759 66.1922L160.56 66.5177C160.614 65.1071 160.632 63.6784 160.614 62.2677L160.813 62.5933C161.084 63.0635 161.59 63.3528 162.151 63.3348L167.016 63.2082C168.137 63.172 169.15 62.5752 169.729 61.6167L170 61.1826L169.711 60.7486C169.096 59.8262 168.047 59.2656 166.926 59.3018L162.061 59.4284C161.518 59.4284 161.012 59.7539 160.777 60.2422L160.596 60.5858C160.541 59.1752 160.451 57.7465 160.306 56.3358L160.523 56.6613C160.831 57.1135 161.373 57.3486 161.916 57.2943L166.745 56.7879C167.848 56.6794 168.824 55.9922 169.313 54.9975L169.548 54.5273L169.222 54.1294C168.535 53.2433 167.432 52.7911 166.329 52.8996L161.5 53.406C160.957 53.4603 160.487 53.8039 160.27 54.3103L160.126 54.672C159.963 53.2613 159.764 51.8507 159.511 50.4401L159.764 50.7475C160.107 51.1635 160.65 51.3805 161.193 51.272L165.967 50.3858C167.07 50.1869 167.974 49.4273 168.39 48.3965L168.571 47.9262L168.228 47.5465C167.468 46.7326 166.347 46.3528 165.244 46.5518H165.28ZM157.286 50.2411C157.34 50.0784 157.304 49.9156 157.196 49.789L156.707 49.1922C156.436 48.8667 156.02 48.7039 155.604 48.7943L151.933 49.4816C151.083 49.6443 150.378 50.223 150.07 51.0188L149.926 51.3805L150.197 51.6699C150.776 52.3028 151.644 52.5922 152.494 52.4294L156.165 51.7422C156.581 51.6699 156.924 51.3624 157.051 50.9645L157.286 50.2411ZM12.2074 70.1528L11.9181 70.8582C11.8638 71.0028 11.8819 71.1837 11.9723 71.3103L12.4064 71.9433C12.6415 72.2869 13.0574 72.4858 13.4734 72.4316L17.1989 72.0337C18.0489 71.9433 18.8085 71.4188 19.1702 70.6592L19.3511 70.2975L19.0979 69.9901C18.5734 69.3209 17.7234 68.9592 16.8734 69.0496L13.1479 69.4475C12.7319 69.4837 12.3702 69.755 12.2074 70.1528ZM157.793 56.6794L158.082 55.9741C158.136 55.8294 158.118 55.6486 158.028 55.522L157.594 54.889C157.359 54.5454 156.943 54.3465 156.527 54.4007L152.801 54.7986C151.951 54.889 151.191 55.4135 150.812 56.173L150.631 56.5348L150.884 56.8422C151.409 57.5113 152.259 57.8731 153.109 57.7826L156.834 57.3848C157.25 57.3486 157.612 57.0773 157.774 56.6794H157.793ZM11.9 64.4199L11.5564 65.1071C11.484 65.2518 11.484 65.4326 11.5564 65.5592L11.9362 66.2284C12.1532 66.5901 12.533 66.8071 12.967 66.8071L16.7106 66.7167C17.5606 66.6986 18.3564 66.2284 18.7904 65.4869L18.9894 65.1433L18.7723 64.8177C18.3021 64.0943 17.4883 63.6784 16.6202 63.6965L12.8766 63.7869C12.4606 63.7869 12.0809 64.0401 11.8819 64.4199H11.9ZM158.1 62.3943L158.444 61.7071C158.516 61.5624 158.516 61.3816 158.444 61.255L158.064 60.5858C157.847 60.2241 157.467 60.0071 157.033 60.0071L153.289 60.0975C152.439 60.1156 151.644 60.5858 151.21 61.3273L151.011 61.6709L151.228 61.9964C151.698 62.7199 152.512 63.1358 153.38 63.1177L157.123 63.0273C157.539 63.0273 157.919 62.7741 158.118 62.3943H158.1ZM12.0447 58.6869L11.6468 59.3379C11.5564 59.4826 11.5564 59.6454 11.6287 59.7901L11.9543 60.4773C12.1351 60.8571 12.5149 61.1103 12.9309 61.1284L16.6745 61.3273C17.5245 61.3635 18.3564 60.9656 18.8447 60.2784L19.0798 59.9528L18.8809 59.6092C18.4649 58.8677 17.6872 58.3794 16.8372 58.3252L13.0936 58.1262C12.6777 58.1082 12.2798 58.3071 12.0628 58.6688L12.0447 58.6869ZM157.955 68.1454L158.353 67.4943C158.444 67.3496 158.444 67.1869 158.371 67.0422L158.046 66.355C157.865 65.9752 157.485 65.722 157.069 65.7039L153.326 65.505C152.476 65.4688 151.644 65.8667 151.155 66.5539L150.92 66.8794L151.119 67.223C151.535 67.9645 152.313 68.4528 153.163 68.5071L156.906 68.706C157.322 68.7241 157.72 68.5252 157.937 68.1635L157.955 68.1454ZM12.6415 52.972L12.1894 53.5869C12.0989 53.7135 12.0628 53.8943 12.1351 54.039L12.4064 54.7624C12.5511 55.1603 12.9128 55.4316 13.3287 55.4858L17.0362 55.9741C17.8862 56.0826 18.7362 55.7571 19.2787 55.0879L19.5319 54.7805L19.3691 54.4188C19.0074 53.6411 18.284 53.0986 17.434 52.9901L13.7266 52.5018C13.3106 52.4475 12.8947 52.6284 12.6415 52.972ZM157.359 73.8422L157.811 73.2273C157.901 73.1007 157.937 72.9199 157.865 72.7752L157.594 72.0518C157.449 71.6539 157.087 71.3826 156.671 71.3284L152.964 70.8401C152.114 70.7316 151.264 71.0571 150.721 71.7262L150.468 72.0337L150.631 72.3954C150.993 73.173 151.716 73.7156 152.566 73.8241L156.273 74.3124C156.689 74.3667 157.105 74.1858 157.359 73.8422ZM14.1787 49.8975L17.8319 50.6752C18.6638 50.856 19.55 50.5848 20.1468 49.9699L20.4181 49.6805L20.2734 49.3007C19.984 48.4869 19.2968 47.8901 18.4468 47.7273L14.7936 46.9496C14.3777 46.8592 13.9617 47.0039 13.6904 47.3294L13.184 47.9082C13.0755 48.0348 13.0394 48.1975 13.0936 48.3603L13.3106 49.1018C13.4372 49.4996 13.7628 49.8071 14.1787 49.8975ZM155.821 76.9348L152.168 76.1571C151.336 75.9762 150.45 76.2475 149.853 76.8624L149.582 77.1518L149.727 77.5316C150.016 78.3454 150.703 78.9422 151.553 79.105L155.206 79.8826C155.622 79.973 156.038 79.8284 156.31 79.5028L156.816 78.9241C156.924 78.7975 156.961 78.6347 156.906 78.472L156.689 77.7305C156.563 77.3326 156.237 77.0252 155.821 76.9348ZM21.5936 44.273C21.3585 43.4411 20.7255 42.7901 19.8936 42.555L16.3128 41.4879C15.9149 41.3613 15.4809 41.4879 15.1734 41.7773L14.6309 42.3199C14.5223 42.4284 14.4681 42.6092 14.5043 42.7539L14.667 43.5135C14.7574 43.9294 15.0649 44.255 15.4628 44.3816L19.0436 45.4486C19.8755 45.6837 20.7617 45.5028 21.3947 44.9241L21.684 44.6709L21.5755 44.2911L21.5936 44.273ZM148.406 82.5411C148.641 83.373 149.274 84.0241 150.106 84.2592L153.687 85.3262C154.085 85.4528 154.519 85.3262 154.827 85.0369L155.369 84.4943C155.478 84.3858 155.532 84.205 155.496 84.0603L155.333 83.3007C155.243 82.8848 154.935 82.5592 154.537 82.4326L150.956 81.3656C150.124 81.1305 149.238 81.3113 148.605 81.8901L148.316 82.1433L148.424 82.523L148.406 82.5411ZM16.4032 88.672C16.7106 88.9613 17.1628 89.0337 17.5606 88.9071L21.0872 87.6592C21.9011 87.3699 22.4979 86.6826 22.6968 85.8507L22.7872 85.4709L22.4798 85.2177C21.8106 84.6933 20.9064 84.5305 20.0926 84.8199L16.566 86.0677C16.1681 86.2124 15.8787 86.556 15.8064 86.972L15.6798 87.7316C15.6617 87.8943 15.716 88.0571 15.8245 88.1656L16.4032 88.672ZM153.597 38.1603C153.289 37.8709 152.837 37.7986 152.439 37.9252L148.913 39.1731C148.099 39.4624 147.502 40.1496 147.303 40.9816L147.213 41.3614L147.52 41.6145C148.189 42.139 149.094 42.3018 149.907 42.0124L153.434 40.7645C153.832 40.6199 154.121 40.2762 154.194 39.8603L154.32 39.1007C154.338 38.9379 154.284 38.7752 154.176 38.6667L153.597 38.1603ZM18.5915 93.9709C18.917 94.2241 19.3691 94.2784 19.7489 94.1156L23.167 92.5965C23.9447 92.2528 24.5053 91.5113 24.6319 90.6613L24.6862 90.2635L24.3606 90.0465C23.6553 89.5762 22.733 89.4858 21.9553 89.8475L18.5372 91.3667C18.1574 91.5294 17.8862 91.9092 17.85 92.3252L17.7957 93.0848C17.7957 93.2475 17.85 93.4103 17.9766 93.5007L18.5915 93.9709ZM151.409 32.8613C151.083 32.6082 150.631 32.5539 150.251 32.7167L146.833 34.2358C146.055 34.5794 145.495 35.3209 145.368 36.1709L145.314 36.5688L145.639 36.7858C146.345 37.256 147.267 37.3465 148.045 36.9848L151.463 35.4656C151.843 35.3028 152.114 34.9231 152.15 34.5071L152.204 33.7475C152.204 33.5848 152.15 33.422 152.023 33.3316L151.409 32.8613ZM21.1957 99.089C21.5574 99.3241 21.9915 99.3422 22.3713 99.1252L25.6628 97.3347C26.4223 96.9188 26.9106 96.1592 26.9649 95.2911V94.8933L26.6394 94.6943C25.8979 94.2784 24.9755 94.2603 24.216 94.6762L20.9245 96.4667C20.5628 96.6656 20.3277 97.0454 20.3277 97.4794V98.2571C20.3277 98.4199 20.4 98.5645 20.5447 98.655L21.1957 99.0709V99.089ZM148.804 27.7433C148.443 27.5082 148.009 27.4901 147.629 27.7071L144.337 29.4975C143.578 29.9135 143.089 30.6731 143.035 31.5411V31.939L143.361 32.1379C144.102 32.5539 145.024 32.572 145.784 32.156L149.076 30.3656C149.437 30.1667 149.672 29.7869 149.672 29.3528V28.5752C149.672 28.4124 149.6 28.2677 149.455 28.1773L148.804 27.7613V27.7433ZM24.1979 103.99C24.5596 104.189 25.0117 104.171 25.3734 103.936L28.5021 101.892C29.2255 101.422 29.6596 100.626 29.6415 99.7582V99.3603L29.2798 99.1975C28.5021 98.8358 27.5979 98.9082 26.8745 99.3603L23.7457 101.404C23.384 101.639 23.1851 102.037 23.2213 102.453L23.2755 103.212C23.2755 103.375 23.384 103.52 23.5287 103.592L24.216 103.954L24.1979 103.99ZM145.802 22.8422C145.44 22.6433 144.988 22.6613 144.627 22.8965L141.498 24.9401C140.774 25.4103 140.34 26.206 140.359 27.0741V27.472L140.72 27.6348C141.498 27.9965 142.402 27.9241 143.126 27.472L146.254 25.4284C146.616 25.1933 146.815 24.7954 146.779 24.3794L146.724 23.6199C146.724 23.4571 146.616 23.3124 146.471 23.2401L145.784 22.8784L145.802 22.8422ZM27.5617 108.62C27.9415 108.783 28.3936 108.728 28.7191 108.475L31.6851 106.196C32.3723 105.672 32.734 104.84 32.6436 103.99L32.6074 103.592L32.2277 103.448C31.4138 103.14 30.5277 103.285 29.8404 103.809L26.8745 106.088C26.5489 106.341 26.3681 106.757 26.4404 107.173L26.567 107.933C26.5851 108.095 26.6936 108.222 26.8383 108.294L27.5436 108.602L27.5617 108.62ZM142.438 18.1943C142.059 18.0316 141.606 18.0858 141.281 18.339L138.315 20.6177C137.628 21.1422 137.266 21.9741 137.356 22.8241L137.393 23.222L137.772 23.3667C138.586 23.6741 139.472 23.5294 140.16 23.005L143.126 20.7262C143.451 20.473 143.632 20.0571 143.56 19.6411L143.433 18.8816C143.415 18.7188 143.306 18.5922 143.162 18.5199L142.456 18.2124L142.438 18.1943ZM30.5638 112.743L31.2872 112.996C31.6851 113.141 32.1192 113.051 32.4447 112.761L35.2298 110.266C35.8628 109.687 36.1702 108.837 36.0255 107.987L35.9532 107.589L35.5734 107.48C34.7415 107.245 33.8553 107.444 33.2223 108.023L30.4372 110.519C30.1298 110.808 29.9851 111.224 30.0936 111.64L30.2745 112.382C30.3106 112.544 30.4191 112.671 30.5819 112.725L30.5638 112.743ZM139.436 14.089L138.713 13.8358C138.315 13.6911 137.881 13.7816 137.555 14.0709L134.77 16.5667C134.137 17.1454 133.83 17.9954 133.974 18.8454L134.047 19.2433L134.427 19.3518C135.259 19.5869 136.145 19.3879 136.778 18.8092L139.563 16.3135C139.87 16.0241 140.015 15.6082 139.906 15.1922L139.726 14.4507C139.689 14.2879 139.581 14.1613 139.418 14.1071L139.436 14.089ZM34.5968 116.867L35.3383 117.066C35.7362 117.174 36.1702 117.066 36.4596 116.74L39.0277 114.027C39.6245 113.412 39.8415 112.526 39.6426 111.694L39.5521 111.315L39.1723 111.242C38.3223 111.079 37.4543 111.351 36.8755 111.966L34.3074 114.678C34.0181 114.986 33.9096 115.42 34.0543 115.818L34.2894 116.559C34.3436 116.722 34.4702 116.831 34.6149 116.867H34.5968ZM135.403 9.9656L134.662 9.76667C134.264 9.65816 133.83 9.76667 133.54 10.0922L130.972 12.805C130.376 13.4199 130.159 14.306 130.357 15.1379L130.448 15.5177L130.828 15.5901C131.678 15.7528 132.546 15.4816 133.124 14.8667L135.693 12.1539C135.982 11.8465 136.09 11.4124 135.946 11.0145L135.711 10.273C135.656 10.1103 135.53 10.0018 135.385 9.9656H135.403ZM18.3202 29.0092C18.0128 28.8465 17.633 28.9731 17.4883 29.2805C15.5532 33.1145 13.9617 37.0752 12.7138 41.1262L12.6234 40.7465C12.5149 40.2039 12.117 39.7879 11.5926 39.6252L6.9266 38.2507C5.85957 37.9252 4.70213 38.1965 3.85213 38.9199L3.47234 39.2635L3.61702 39.7518C3.92447 40.8188 4.75638 41.6688 5.8234 41.9943L10.4894 43.3688C11.0138 43.5316 11.5745 43.3688 11.9723 42.989L12.2436 42.7177C11.8457 44.0922 11.5021 45.4667 11.1947 46.8592L11.0862 46.4975C10.9234 45.973 10.5074 45.5752 9.96489 45.4667L5.20851 44.4539C4.1234 44.2188 2.98404 44.5624 2.20638 45.3762L1.84468 45.7379L2.02553 46.2262C2.40532 47.2752 3.30957 48.0528 4.39468 48.2879L9.15106 49.3007C9.69362 49.4092 10.2362 49.2284 10.5979 48.8124L10.8511 48.5231C10.5798 49.9156 10.3266 51.3082 10.1277 52.7188L9.98298 52.3571C9.78404 51.8507 9.33192 51.489 8.78936 51.4167L3.96064 50.7837C2.85745 50.639 1.75426 51.073 1.03085 51.923L0.705319 52.3209L0.92234 52.7911C1.39255 53.8039 2.33298 54.5092 3.45426 54.6539L8.28298 55.2869C8.82553 55.3592 9.36809 55.1241 9.69362 54.6901L9.91064 54.3826C9.74787 55.7933 9.60319 57.2039 9.51277 58.6145L9.35 58.2709C9.11489 57.7826 8.6266 57.4571 8.08404 57.4209L3.23723 57.1677C2.11596 57.1135 1.04894 57.6199 0.415957 58.5422L0.126596 58.9582L0.379787 59.4103C0.92234 60.3869 1.93511 61.0199 3.0383 61.0741L7.88511 61.3273C8.42766 61.3635 8.95213 61.0922 9.24149 60.622L9.44043 60.2965C9.38617 61.7071 9.36809 63.1358 9.38617 64.5464L9.18723 64.2209C8.91596 63.7507 8.40957 63.4613 7.84894 63.4794L2.98404 63.606C1.86277 63.6422 0.85 64.239 0.271277 65.1975L0 65.6316L0.289362 66.0656C0.904255 66.9879 1.95319 67.5486 3.07447 67.5124L7.93936 67.3858C8.48191 67.3858 8.9883 67.0603 9.2234 66.572L9.40426 66.2284C9.45851 67.639 9.54894 69.0677 9.69362 70.4784L9.4766 70.1528C9.16915 69.7007 8.6266 69.4656 8.08404 69.5199L3.25532 70.0262C2.15213 70.1348 1.17553 70.822 0.687234 71.8167L0.452128 72.2869L0.77766 72.6847C1.46489 73.5709 2.56809 74.023 3.67128 73.9145L8.5 73.4082C9.04255 73.3539 9.51277 73.0103 9.72979 72.5039L9.87447 72.1422C10.0372 73.5528 10.2362 74.9635 10.4894 76.3741L10.2362 76.0667C9.89255 75.6507 9.35 75.4337 8.80745 75.5422L4.03298 76.4284C2.92979 76.6273 2.02553 77.3869 1.60957 78.4177L1.42872 78.8879L1.77234 79.2677C2.53191 80.0816 3.65319 80.4613 4.75638 80.2624L9.53085 79.3762C10.0734 79.2677 10.5074 78.8879 10.6883 78.3635L10.8149 78.0018C11.0862 79.3943 11.4117 80.7869 11.7553 82.1794L11.484 81.8901C11.1043 81.4922 10.5436 81.3294 10.0191 81.4741L5.31702 82.7401C4.23192 83.0294 3.38192 83.8433 3.05638 84.9103L2.9117 85.3986L3.29149 85.7422C4.10532 86.5018 5.26277 86.7911 6.34787 86.5018L11.05 85.2358C11.5745 85.0911 11.9904 84.6752 12.117 84.1507L12.2074 83.7709C12.5872 85.1454 13.0032 86.5199 13.4734 87.8582L13.184 87.605C12.7681 87.2433 12.2074 87.1347 11.683 87.3156L7.10745 88.9433C6.05851 89.323 5.26277 90.2092 5.02766 91.2943L4.91915 91.8007L5.31702 92.1262C6.18511 92.8135 7.36064 93.0124 8.40957 92.6326L12.9851 91.005C13.4915 90.8241 13.8713 90.372 13.9617 89.8294L14.016 89.4496C14.5043 90.7879 15.0287 92.1082 15.6074 93.4103L15.3 93.1752C14.866 92.8496 14.2872 92.7773 13.7809 92.9943L9.33191 94.9656C8.31915 95.4177 7.59575 96.3582 7.43298 97.4794L7.36064 97.9858L7.79468 98.2752C8.71702 98.8901 9.91064 98.9986 10.9234 98.5465L15.3723 96.5752C15.8787 96.3582 16.2043 95.8699 16.2585 95.3273L16.2947 94.9475C16.8915 96.2496 17.5064 97.5156 18.1755 98.7816L17.85 98.5645C17.3979 98.2752 16.8011 98.239 16.3309 98.5103L12.0628 100.825C11.0862 101.35 10.4351 102.362 10.3809 103.466L10.3447 103.972L10.7968 104.225C11.7734 104.768 12.9489 104.786 13.9436 104.243L18.2117 101.928C18.7 101.675 18.9894 101.169 18.9894 100.626V100.246C19.6766 101.494 20.4 102.706 21.1596 103.9L20.816 103.719C20.3277 103.466 19.7489 103.484 19.2968 103.773L15.2277 106.413C14.2872 107.028 13.7266 108.059 13.7447 109.18V109.687L14.2149 109.904C15.2277 110.374 16.4032 110.284 17.3436 109.687L21.4128 107.046C21.8649 106.757 22.1362 106.233 22.0819 105.672L22.0457 105.292C22.8234 106.468 23.6553 107.625 24.5053 108.765L24.1617 108.602C23.6553 108.385 23.0766 108.457 22.6426 108.783L18.7904 111.749C17.9043 112.436 17.434 113.521 17.5426 114.624L17.5968 115.13L18.0851 115.311C19.134 115.691 20.3096 115.528 21.1957 114.841L25.0479 111.875C25.4819 111.55 25.6989 111.007 25.6085 110.465L25.5543 110.085C26.4223 111.206 27.3447 112.291 28.2851 113.358L27.9234 113.232C27.3989 113.051 26.8383 113.159 26.4223 113.539L22.8053 116.794C21.9734 117.536 21.5936 118.657 21.7745 119.76L21.8649 120.267L22.3532 120.411C23.4202 120.719 24.5777 120.448 25.4096 119.706L29.0266 116.451C29.4245 116.089 29.6053 115.528 29.4787 114.986L29.3883 114.606C30.3468 115.655 31.3415 116.668 32.3723 117.662L31.9926 117.554C31.4681 117.409 30.9074 117.572 30.5277 117.97L27.1819 121.496C26.4223 122.31 26.1149 123.45 26.3862 124.535L26.5128 125.041L27.0191 125.15C28.1223 125.367 29.2436 125.005 30.0213 124.209L33.367 120.683C33.7468 120.285 33.8734 119.724 33.7106 119.2L33.584 118.82C36.6947 121.695 40.0585 124.336 43.6394 126.687C43.8021 126.795 43.983 126.813 44.1457 126.759C44.2904 126.723 44.417 126.633 44.5074 126.506C44.6883 126.217 44.616 125.837 44.3266 125.638C28.9904 115.619 17.9223 100.337 13.184 82.6316C8.44574 64.9262 10.3809 46.172 18.6457 29.8231C18.8085 29.5156 18.6819 29.1358 18.3745 28.9911L18.3202 29.0092Z" fill="#00A9AC"/>
<path d="M47.926 43.6031C48.0707 43.6031 48.1973 43.6573 48.3058 43.7477C48.4143 43.8382 48.4505 43.9467 48.4505 44.0914V45.7371C48.4505 45.8999 48.3601 46.0807 48.1792 46.2797C47.9984 46.4786 47.7452 46.6414 47.4016 46.786C47.0579 46.9307 46.6962 47.0031 46.2622 47.0031C45.8101 47.0031 45.4122 46.9126 45.0505 46.7137C44.6888 46.5148 44.4175 46.2435 44.2186 45.8999C44.0196 45.5562 43.9111 45.1765 43.9111 44.7424V43.2956C43.9111 42.8797 44.0016 42.4818 44.2186 42.1382C44.4175 41.7945 44.6888 41.5233 45.0505 41.3243C45.4122 41.1254 45.8101 41.035 46.2622 41.035C46.6058 41.035 46.9313 41.0892 47.2388 41.2158C47.5462 41.3424 47.7813 41.4871 47.9803 41.686C48.1973 41.9211 48.3239 42.1562 48.3239 42.3733C48.3239 42.518 48.2696 42.6265 48.1792 42.7169C48.0888 42.8073 47.9803 42.8616 47.8356 42.8616C47.7452 42.8616 47.6547 42.8435 47.6005 42.7892C47.5282 42.735 47.4377 42.6445 47.3292 42.518C47.1665 42.3371 47.0218 42.2105 46.859 42.1201C46.6962 42.0297 46.4973 41.9935 46.2803 41.9935C45.9005 41.9935 45.593 42.1201 45.3579 42.3552C45.1228 42.5903 44.9962 42.8977 44.9962 43.2775V44.7243C44.9962 45.1041 45.1228 45.4116 45.3579 45.6648C45.593 45.918 45.9005 46.0265 46.2803 46.0265C46.7686 46.0265 47.1484 45.8999 47.4016 45.6648V44.5797H46.6782C46.5154 44.5797 46.3888 44.5254 46.2984 44.435C46.2079 44.3445 46.1537 44.2179 46.1537 44.0914C46.1537 43.9648 46.2079 43.8562 46.2984 43.7477C46.3888 43.6392 46.5154 43.6031 46.6782 43.6031H47.926Z" fill="#00A9AC"/>
<path d="M49.6808 46.7502C49.5904 46.6598 49.5361 46.5513 49.5361 46.4428V41.596C49.5361 41.4694 49.5904 41.3609 49.6808 41.2885C49.7712 41.1981 49.8798 41.1619 50.0244 41.1619C50.1691 41.1619 50.2776 41.1981 50.368 41.2885C50.4585 41.3789 50.5127 41.4875 50.5127 41.596V46.4428C50.5127 46.5694 50.4585 46.6779 50.368 46.7502C50.2776 46.8407 50.1691 46.8768 50.0244 46.8768C49.8798 46.8768 49.7712 46.8407 49.6808 46.7502Z" fill="#00A9AC"/>
<path d="M52.3388 46.733C52.0495 46.5883 51.8324 46.3893 51.6697 46.1361C51.5069 45.883 51.4346 45.6117 51.4346 45.3042V44.3819C51.4346 44.0925 51.5069 43.8032 51.6697 43.55C51.8324 43.2968 52.0495 43.0978 52.3388 42.9532C52.6282 42.8085 52.9356 42.7361 53.2973 42.7361C53.659 42.7361 53.9665 42.8085 54.2558 42.9532C54.5452 43.0978 54.7622 43.3149 54.925 43.55C55.0878 43.8032 55.1601 44.0744 55.1601 44.3819V45.3042C55.1601 45.5936 55.0878 45.883 54.925 46.1361C54.7622 46.3893 54.5452 46.5883 54.2558 46.733C53.9665 46.8776 53.659 46.95 53.2973 46.95C52.9356 46.95 52.6282 46.8776 52.3388 46.733ZM53.9303 45.901C54.0931 45.7383 54.1835 45.5393 54.1835 45.3042V44.3819C54.1835 44.1468 54.0931 43.9298 53.9303 43.7851C53.7675 43.6223 53.5505 43.55 53.2973 43.55C53.0441 43.55 52.8271 43.6223 52.6644 43.7851C52.5016 43.9478 52.4112 44.1468 52.4112 44.3819V45.3042C52.4112 45.5393 52.5016 45.7564 52.6644 45.901C52.8271 46.0638 53.0441 46.1361 53.2973 46.1361C53.5505 46.1361 53.7675 46.0638 53.9303 45.901Z" fill="#00A9AC"/>
<path d="M58.8848 42.9524C59.1199 43.097 59.3188 43.3141 59.4635 43.5672C59.6082 43.8204 59.6805 44.0917 59.6805 44.3811V45.3034C59.6805 45.6109 59.6082 45.8821 59.4454 46.1353C59.2826 46.3885 59.0656 46.5875 58.7943 46.7321C58.523 46.8768 58.2156 46.9492 57.872 46.9492C57.5284 46.9492 57.239 46.8768 56.9496 46.7321C56.6784 46.5875 56.4613 46.3885 56.2986 46.1353C56.1358 45.8821 56.0635 45.6109 56.0635 45.3034V41.596C56.0635 41.4694 56.1177 41.3609 56.2082 41.2885C56.2986 41.1981 56.4071 41.1619 56.5518 41.1619C56.6965 41.1619 56.805 41.1981 56.8954 41.2885C56.9858 41.3789 57.0401 41.4875 57.0401 41.596V43.2055H57.1124C57.2028 43.0609 57.3475 42.9343 57.5284 42.8619C57.7092 42.7896 57.9082 42.7353 58.1252 42.7353C58.3965 42.7353 58.6496 42.8077 58.8848 42.9704V42.9524ZM58.722 44.363C58.722 44.1279 58.6496 43.9109 58.4869 43.7662C58.3241 43.6034 58.1252 43.5311 57.8901 43.5311C57.655 43.5311 57.4379 43.6034 57.2933 43.7662C57.1305 43.9289 57.0582 44.1279 57.0582 44.363V45.2853C57.0582 45.5204 57.1305 45.7375 57.2933 45.8821C57.456 46.0449 57.655 46.1172 57.8901 46.1172C58.1252 46.1172 58.3422 46.0449 58.4869 45.8821C58.6496 45.7194 58.722 45.5204 58.722 45.2853V44.363Z" fill="#00A9AC"/>
<path d="M63.1166 42.9352C63.3878 43.0798 63.6049 43.2607 63.7495 43.5139C63.8942 43.749 63.9666 44.0203 63.9666 44.2915V46.4256C63.9666 46.5522 63.9123 46.6607 63.8219 46.733C63.7315 46.8235 63.6049 46.8596 63.4783 46.8596C63.3517 46.8596 63.2431 46.8235 63.1527 46.733C63.0623 46.6607 63.008 46.5522 63.008 46.4437H62.9176C62.791 46.5883 62.6283 46.7149 62.4293 46.7873C62.2304 46.8596 62.0134 46.9139 61.7963 46.9139C61.5251 46.9139 61.29 46.8596 61.091 46.7511C60.8921 46.6426 60.7293 46.4979 60.6027 46.299C60.4761 46.1001 60.4219 45.9192 60.4219 45.7022C60.4219 45.449 60.4942 45.232 60.6208 45.033C60.7474 44.8341 60.9463 44.6713 61.1995 44.5447C61.4527 44.4181 61.7421 44.3639 62.0857 44.3639H63.008V44.2373C63.008 44.0203 62.9357 43.8213 62.791 43.6766C62.6463 43.532 62.4474 43.4596 62.2123 43.4596C62.0857 43.4596 61.9772 43.4777 61.8868 43.5139C61.7963 43.55 61.6878 43.6405 61.5793 43.749C61.4889 43.8394 61.3985 43.8937 61.3442 43.9298C61.2719 43.966 61.1995 43.9841 61.091 43.9841C60.9644 43.9841 60.874 43.9479 60.8017 43.8756C60.7293 43.8032 60.6932 43.7309 60.6932 43.6224C60.6932 43.5139 60.7293 43.4054 60.8197 43.2788C60.9102 43.1703 61.0187 43.0618 61.1634 42.9713C61.308 42.8628 61.4708 42.7905 61.6517 42.7362C61.8325 42.682 62.0315 42.6639 62.2123 42.6639C62.5559 42.6639 62.8634 42.7362 63.1346 42.8809L63.1166 42.9352ZM62.5378 46.0458C62.7187 45.9554 62.8815 45.8469 63.008 45.7022V45.1415H62.0857C61.8687 45.1415 61.7059 45.1958 61.5793 45.3043C61.4527 45.4128 61.3985 45.5394 61.3985 45.7022C61.3985 45.8469 61.4527 45.9735 61.5612 46.0458C61.6697 46.1362 61.8144 46.1724 62.0134 46.1724C62.1942 46.1724 62.3751 46.1362 62.5559 46.0277L62.5378 46.0458Z" fill="#00A9AC"/>
<path d="M65.1261 46.7502C65.0357 46.6598 64.9814 46.5513 64.9814 46.4428V41.596C64.9814 41.4694 65.0357 41.3609 65.1261 41.2885C65.2165 41.1981 65.3251 41.1619 65.4697 41.1619C65.6144 41.1619 65.7229 41.1981 65.8134 41.2885C65.9038 41.3789 65.958 41.4875 65.958 41.596V46.4428C65.958 46.5694 65.9038 46.6779 65.8134 46.7502C65.7229 46.8407 65.6144 46.8768 65.4697 46.8768C65.3251 46.8768 65.2165 46.8407 65.1261 46.7502Z" fill="#00A9AC"/>
<path d="M72.6482 41.1795C72.8109 41.1795 72.9375 41.2338 73.0279 41.3242C73.1184 41.4146 73.1726 41.5412 73.1726 41.6678C73.1726 41.7944 73.1184 41.9029 73.0279 42.0114C72.9375 42.1018 72.8109 42.1561 72.6482 42.1561H70.1886V43.7657H71.8886C72.0514 43.7657 72.1779 43.8199 72.2684 43.9104C72.3588 44.0008 72.4131 44.1274 72.4131 44.254C72.4131 44.3806 72.3588 44.4891 72.2684 44.5976C72.1779 44.7061 72.0514 44.7423 71.8886 44.7423H70.1886V46.4423C70.1886 46.587 70.1343 46.6955 70.0439 46.7859C69.9354 46.8763 69.8269 46.9306 69.6641 46.9306C69.5014 46.9306 69.3928 46.8944 69.2843 46.7859C69.1758 46.6774 69.1396 46.587 69.1396 46.4423V41.6859C69.1396 41.5412 69.1939 41.4327 69.2843 41.3423C69.3928 41.2518 69.5014 41.1976 69.6641 41.1976H72.6482V41.1795Z" fill="#00A9AC"/>
<path d="M73.8781 41.9392C73.7696 41.8487 73.7334 41.7221 73.7334 41.5955C73.7334 41.4689 73.7877 41.3423 73.8781 41.2519C73.9685 41.1615 74.0951 41.1072 74.2579 41.1072C74.4206 41.1072 74.5291 41.1615 74.6377 41.2519C74.7462 41.3423 74.7823 41.4509 74.7823 41.5955C74.7823 41.7402 74.7281 41.8487 74.6377 41.9392C74.5291 42.0296 74.4206 42.0838 74.2579 42.0838C74.0951 42.0838 73.9866 42.0296 73.8781 41.9392ZM73.9142 46.7498C73.8238 46.6594 73.7696 46.5509 73.7696 46.4423V43.2594C73.7696 43.1328 73.8238 43.0243 73.9142 42.9519C74.0047 42.8615 74.1132 42.8253 74.2579 42.8253C74.4025 42.8253 74.5111 42.8615 74.6015 42.9519C74.6919 43.0423 74.7462 43.1509 74.7462 43.2594V46.4423C74.7462 46.5689 74.6919 46.6775 74.6015 46.7498C74.5111 46.8402 74.4025 46.8764 74.2579 46.8764C74.1132 46.8764 74.0047 46.8402 73.9142 46.7498Z" fill="#00A9AC"/>
<path d="M78.5981 42.9351C78.8332 43.0798 79.0141 43.2606 79.1407 43.4957C79.2673 43.7308 79.3396 44.0021 79.3396 44.2915V46.4255C79.3396 46.5521 79.2853 46.6606 79.1949 46.733C79.1045 46.8234 78.9779 46.8596 78.8513 46.8596C78.7247 46.8596 78.5981 46.8234 78.5077 46.733C78.4173 46.6425 78.363 46.534 78.363 46.4255V44.2915C78.363 44.0744 78.2907 43.8755 78.146 43.7308C78.0013 43.5861 77.8024 43.5138 77.5673 43.5138C77.3322 43.5138 77.1332 43.5861 76.9885 43.7308C76.8439 43.8755 76.7715 44.0564 76.7715 44.2915V46.4255C76.7715 46.5521 76.7173 46.6606 76.6268 46.733C76.5364 46.8234 76.4279 46.8596 76.2832 46.8596C76.1385 46.8596 76.03 46.8234 75.9396 46.733C75.8492 46.6425 75.7949 46.534 75.7949 46.4255V43.2425C75.7949 43.1159 75.8492 43.0074 75.9396 42.9351C76.03 42.8447 76.1385 42.8085 76.2832 42.8085C76.4279 42.8085 76.5545 42.8447 76.6268 42.9351C76.6992 43.0074 76.7534 43.1159 76.7715 43.2244H76.8439C76.9162 43.0798 77.0609 42.9713 77.2417 42.8808C77.4226 42.7904 77.6396 42.7361 77.8385 42.7361C78.1098 42.7361 78.3449 42.8085 78.58 42.9532L78.5981 42.9351Z" fill="#00A9AC"/>
<path d="M82.8304 42.9352C83.1017 43.0799 83.3187 43.2607 83.4634 43.5139C83.6081 43.749 83.6804 44.0203 83.6804 44.2916V46.4256C83.6804 46.5522 83.6262 46.6607 83.5357 46.7331C83.4453 46.8235 83.3187 46.8597 83.1921 46.8597C83.0655 46.8597 82.957 46.8235 82.8666 46.7331C82.7762 46.6607 82.7219 46.5522 82.7219 46.4437H82.6315C82.5049 46.5884 82.3421 46.715 82.1432 46.7873C81.9442 46.8597 81.7272 46.9139 81.5102 46.9139C81.2389 46.9139 81.0038 46.8597 80.8049 46.7512C80.606 46.6427 80.4432 46.498 80.3166 46.299C80.19 46.1001 80.1357 45.9193 80.1357 45.7022C80.1357 45.449 80.2081 45.232 80.3347 45.0331C80.4613 44.8342 80.6602 44.6714 80.9134 44.5448C81.1666 44.4182 81.456 44.3639 81.7996 44.3639H82.7219V44.2373C82.7219 44.0203 82.6496 43.8214 82.5049 43.6767C82.3602 43.532 82.1613 43.4597 81.9262 43.4597C81.7996 43.4597 81.6911 43.4778 81.6006 43.5139C81.5102 43.5501 81.4017 43.6405 81.2932 43.749C81.2028 43.8395 81.1123 43.8937 81.0581 43.9299C80.9857 43.9661 80.9134 43.9842 80.8049 43.9842C80.6783 43.9842 80.5879 43.948 80.5155 43.8756C80.4432 43.8033 80.407 43.731 80.407 43.6225C80.407 43.5139 80.4432 43.4054 80.5336 43.2788C80.624 43.1703 80.7326 43.0618 80.8772 42.9714C81.0219 42.8629 81.1847 42.7905 81.3655 42.7363C81.5464 42.682 81.7453 42.6639 81.9262 42.6639C82.2698 42.6639 82.5772 42.7363 82.8485 42.881L82.8304 42.9352ZM82.2698 46.0459C82.4506 45.9554 82.6134 45.8469 82.74 45.7022V45.1416H81.8177C81.6006 45.1416 81.4379 45.1959 81.3113 45.3044C81.1847 45.4129 81.1304 45.5395 81.1304 45.7022C81.1304 45.8469 81.1847 45.9735 81.2932 46.0459C81.4017 46.1363 81.5464 46.1725 81.7453 46.1725C81.9262 46.1725 82.107 46.1363 82.2879 46.0278L82.2698 46.0459Z" fill="#00A9AC"/>
<path d="M87.4956 42.9351C87.7307 43.0798 87.9115 43.2606 88.0381 43.4957C88.1647 43.7308 88.2371 44.0021 88.2371 44.2915V46.4255C88.2371 46.5521 88.1828 46.6606 88.0924 46.733C88.002 46.8234 87.8754 46.8596 87.7488 46.8596C87.6222 46.8596 87.4956 46.8234 87.4051 46.733C87.3147 46.6425 87.2605 46.534 87.2605 46.4255V44.2915C87.2605 44.0744 87.1881 43.8755 87.0434 43.7308C86.8988 43.5861 86.6998 43.5138 86.4647 43.5138C86.2296 43.5138 86.0307 43.5861 85.886 43.7308C85.7413 43.8755 85.669 44.0564 85.669 44.2915V46.4255C85.669 46.5521 85.6147 46.6606 85.5243 46.733C85.4339 46.8234 85.3254 46.8596 85.1807 46.8596C85.036 46.8596 84.9275 46.8234 84.8371 46.733C84.7466 46.6425 84.6924 46.534 84.6924 46.4255V43.2425C84.6924 43.1159 84.7466 43.0074 84.8371 42.9351C84.9275 42.8447 85.036 42.8085 85.1807 42.8085C85.3254 42.8085 85.452 42.8447 85.5243 42.9351C85.5966 43.0074 85.6509 43.1159 85.669 43.2244H85.7413C85.8137 43.0798 85.9583 42.9713 86.1392 42.8808C86.32 42.7904 86.5371 42.7361 86.736 42.7361C87.0073 42.7361 87.2424 42.8085 87.4775 42.9532L87.4956 42.9351Z" fill="#00A9AC"/>
<path d="M90.0459 46.733C89.7565 46.5883 89.5395 46.3893 89.3767 46.1361C89.2139 45.883 89.1416 45.6117 89.1416 45.3042V44.3819C89.1416 44.0925 89.2139 43.8032 89.3767 43.55C89.5395 43.2968 89.7565 43.0978 90.0459 42.9532C90.3352 42.8085 90.6427 42.7361 91.0044 42.7361C91.2576 42.7361 91.5107 42.7904 91.7459 42.8808C91.981 42.9713 92.1799 43.0978 92.3427 43.2606C92.5235 43.4596 92.6139 43.6585 92.6139 43.8574C92.6139 43.9659 92.5778 44.0564 92.5054 44.1106C92.4331 44.183 92.3427 44.2191 92.2161 44.2191C92.1256 44.2191 92.0352 44.201 91.9629 44.1468C91.8905 44.1106 91.8001 44.0202 91.7097 43.9117C91.6012 43.767 91.4927 43.6766 91.3842 43.6223C91.2756 43.5681 91.149 43.5319 91.0044 43.5319C90.7512 43.5319 90.5342 43.6042 90.3714 43.767C90.2086 43.9298 90.1182 44.1287 90.1182 44.3638V45.2861C90.1182 45.5213 90.2086 45.7383 90.3714 45.883C90.5342 46.0457 90.7512 46.1181 91.0044 46.1181C91.1671 46.1181 91.3118 46.0819 91.4384 46.0096C91.565 45.9372 91.6916 45.8287 91.8182 45.6659C91.9086 45.5393 91.999 45.467 92.0714 45.4127C92.1437 45.3766 92.2161 45.3404 92.2884 45.3404C92.3969 45.3404 92.5054 45.3766 92.5778 45.4489C92.6501 45.5213 92.6863 45.5936 92.6863 45.7021C92.6863 45.9372 92.5416 46.1904 92.2703 46.4436C92.1076 46.5883 91.9086 46.6968 91.6735 46.7872C91.4384 46.8776 91.2214 46.9138 90.9863 46.9138C90.6246 46.9138 90.3171 46.8415 90.0278 46.6968L90.0459 46.733Z" fill="#00A9AC"/>
<path d="M96.1053 42.9339C96.3947 43.0786 96.6117 43.2956 96.7744 43.5307C96.9372 43.7839 97.0096 44.0552 97.0096 44.3626V44.7243C97.0096 44.8509 96.9553 44.9594 96.8649 45.0318C96.7745 45.1222 96.6479 45.1584 96.5213 45.1584H94.2606V45.285C94.2606 45.5201 94.351 45.7371 94.5138 45.8818C94.6766 46.0445 94.8936 46.1169 95.1468 46.1169C95.3096 46.1169 95.4723 46.0988 95.617 46.0445C95.7617 46.0084 95.8883 45.936 96.0149 45.8456C96.1053 45.7733 96.1776 45.7371 96.25 45.7009C96.3223 45.6647 96.3947 45.6647 96.4851 45.6647C96.5936 45.6647 96.684 45.7009 96.7564 45.7733C96.8287 45.8456 96.8649 45.936 96.8649 46.0265C96.8649 46.1169 96.8287 46.2073 96.7744 46.2977C96.7202 46.3882 96.6298 46.4786 96.5213 46.569C96.1957 46.8041 95.7436 46.9126 95.183 46.9126C94.8213 46.9126 94.5138 46.8403 94.2244 46.6956C93.9351 46.5509 93.7181 46.352 93.5553 46.0988C93.3925 45.8456 93.3202 45.5743 93.3202 45.2669V44.3445C93.3202 44.0552 93.3925 43.7658 93.5553 43.5126C93.7181 43.2594 93.9351 43.0605 94.2244 42.9158C94.5138 42.7711 94.8213 42.6988 95.183 42.6988C95.5447 42.6988 95.8521 42.7711 96.1415 42.9158L96.1053 42.9339ZM94.5138 43.7658C94.351 43.9286 94.2606 44.1275 94.2606 44.3626V44.4169H96.033V44.3626C96.033 44.1275 95.9425 43.9286 95.7798 43.7658C95.617 43.603 95.4 43.5307 95.1468 43.5307C94.8936 43.5307 94.6766 43.603 94.5138 43.7658Z" fill="#00A9AC"/>
<path d="M104.585 45.9903C104.658 46.1892 104.712 46.3339 104.712 46.4424C104.712 46.5871 104.658 46.6956 104.567 46.786C104.459 46.8765 104.35 46.9307 104.187 46.9307C103.952 46.9307 103.771 46.786 103.663 46.4786L103.301 45.502H100.968L100.607 46.4786C100.498 46.768 100.317 46.9307 100.082 46.9307C99.9374 46.9307 99.8108 46.8945 99.7023 46.786C99.5938 46.6775 99.5576 46.5871 99.5576 46.4424C99.5576 46.352 99.5938 46.2073 99.6842 45.9903L101.258 41.885C101.384 41.5775 101.511 41.3605 101.637 41.2339C101.782 41.1073 101.945 41.035 102.144 41.035C102.343 41.035 102.505 41.1073 102.65 41.2339C102.795 41.3605 102.921 41.5775 103.03 41.885L104.603 45.9903H104.585ZM102.18 42.3552H102.108L101.294 44.5254H102.994L102.18 42.3552Z" fill="#00A9AC"/>
<path d="M105.78 46.4602L104.857 43.4942C104.839 43.4038 104.821 43.3133 104.821 43.2591C104.821 43.1144 104.857 43.0059 104.948 42.9155C105.038 42.825 105.147 42.7889 105.31 42.7889C105.563 42.7889 105.726 42.9155 105.798 43.1506L106.449 45.5378H106.521L107.118 43.2772C107.154 43.1325 107.227 43.0059 107.335 42.9155C107.444 42.825 107.588 42.7889 107.751 42.7889C107.914 42.7889 108.059 42.825 108.167 42.9155C108.276 43.0059 108.348 43.1144 108.384 43.2772L108.981 45.5378H109.053L109.704 43.1506C109.777 42.9155 109.939 42.7889 110.193 42.7889C110.337 42.7889 110.464 42.825 110.554 42.9155C110.645 43.0059 110.681 43.1144 110.681 43.2591C110.681 43.3314 110.681 43.4038 110.645 43.4942L109.722 46.4602C109.614 46.7857 109.415 46.9485 109.071 46.9485C108.909 46.9485 108.764 46.9123 108.655 46.8219C108.547 46.7314 108.474 46.6229 108.438 46.4602L107.787 44.0006H107.715L107.064 46.4602C107.028 46.6048 106.955 46.7314 106.847 46.8219C106.738 46.9123 106.594 46.9485 106.431 46.9485C106.105 46.9485 105.888 46.7857 105.78 46.4602Z" fill="#00A9AC"/>
<path d="M113.738 42.9352C114.009 43.0798 114.226 43.2607 114.371 43.5139C114.515 43.749 114.588 44.0203 114.588 44.2915V46.4256C114.588 46.5522 114.533 46.6607 114.443 46.733C114.353 46.8235 114.226 46.8596 114.099 46.8596C113.973 46.8596 113.864 46.8235 113.774 46.733C113.683 46.6607 113.629 46.5522 113.629 46.4437H113.539C113.412 46.5883 113.249 46.7149 113.05 46.7873C112.851 46.8596 112.634 46.9139 112.417 46.9139C112.146 46.9139 111.911 46.8596 111.712 46.7511C111.513 46.6426 111.35 46.4979 111.224 46.299C111.097 46.1001 111.043 45.9192 111.043 45.7022C111.043 45.449 111.115 45.232 111.242 45.033C111.368 44.8341 111.567 44.6713 111.821 44.5447C112.074 44.4181 112.363 44.3639 112.707 44.3639H113.629V44.2373C113.629 44.0203 113.557 43.8213 113.412 43.6766C113.267 43.532 113.068 43.4596 112.833 43.4596C112.707 43.4596 112.598 43.4777 112.508 43.5139C112.417 43.55 112.309 43.6405 112.2 43.749C112.11 43.8394 112.02 43.8937 111.965 43.9298C111.893 43.966 111.821 43.9841 111.712 43.9841C111.586 43.9841 111.495 43.9479 111.423 43.8756C111.35 43.8032 111.314 43.7309 111.314 43.6224C111.314 43.5139 111.35 43.4054 111.441 43.2788C111.531 43.1703 111.64 43.0618 111.784 42.9713C111.929 42.8628 112.092 42.7905 112.273 42.7362C112.454 42.682 112.653 42.6639 112.833 42.6639C113.177 42.6639 113.484 42.7362 113.756 42.8809L113.738 42.9352ZM113.177 46.0458C113.358 45.9554 113.521 45.8469 113.647 45.7022V45.1415H112.725C112.508 45.1415 112.345 45.1958 112.218 45.3043C112.092 45.4128 112.038 45.5394 112.038 45.7022C112.038 45.8469 112.092 45.9735 112.2 46.0458C112.309 46.1362 112.454 46.1724 112.653 46.1724C112.833 46.1724 113.014 46.1362 113.195 46.0277L113.177 46.0458Z" fill="#00A9AC"/>
<path d="M117.825 42.7527C117.952 42.7527 118.042 42.7889 118.114 42.8613C118.187 42.9336 118.223 43.0421 118.223 43.1506C118.223 43.2591 118.187 43.3676 118.114 43.44C118.042 43.5123 117.952 43.5485 117.825 43.5485H117.337C117.12 43.5485 116.939 43.6208 116.794 43.7655C116.65 43.9102 116.577 44.073 116.577 44.29V46.424C116.577 46.5506 116.523 46.6591 116.432 46.7315C116.342 46.8219 116.234 46.8581 116.089 46.8581C115.944 46.8581 115.836 46.8219 115.745 46.7315C115.655 46.641 115.601 46.5325 115.601 46.424V43.241C115.601 43.1144 115.655 43.0059 115.745 42.9336C115.836 42.8432 115.944 42.807 116.089 42.807C116.215 42.807 116.324 42.8432 116.414 42.9155C116.505 42.9879 116.559 43.0783 116.577 43.1687H116.65C116.722 43.0602 116.83 42.9698 116.957 42.8974C117.102 42.807 117.246 42.7708 117.409 42.7708H117.807L117.825 42.7527Z" fill="#00A9AC"/>
<path d="M122.057 41.2705C122.147 41.3609 122.202 41.4694 122.202 41.578V46.4248C122.202 46.5514 122.147 46.6599 122.057 46.7322C121.966 46.8226 121.858 46.8588 121.713 46.8588C121.587 46.8588 121.496 46.8226 121.406 46.7322C121.315 46.6599 121.261 46.5514 121.225 46.4429H121.153C121.062 46.5875 120.917 46.7141 120.737 46.7865C120.556 46.8588 120.357 46.9131 120.14 46.9131C119.869 46.9131 119.615 46.8407 119.38 46.678C119.145 46.5333 118.946 46.3163 118.783 46.0631C118.621 45.8099 118.566 45.5386 118.566 45.2492V44.3269C118.566 44.0375 118.639 43.7663 118.783 43.5131C118.928 43.2599 119.127 43.0609 119.38 42.8982C119.633 42.7535 119.887 42.6631 120.14 42.6631C120.357 42.6631 120.556 42.6992 120.737 42.7897C120.917 42.8801 121.062 42.9886 121.153 43.1333H121.225V41.5237C121.225 41.3971 121.279 41.2886 121.37 41.2163C121.46 41.1439 121.569 41.0897 121.713 41.0897C121.858 41.0897 121.966 41.1258 122.057 41.2163V41.2705ZM120.99 45.9003C121.153 45.7375 121.225 45.5386 121.225 45.3035V44.3812C121.225 44.146 121.153 43.929 120.99 43.7843C120.827 43.6397 120.628 43.5492 120.393 43.5492C120.158 43.5492 119.941 43.6216 119.796 43.7843C119.633 43.9471 119.561 44.146 119.561 44.3812V45.3035C119.561 45.5386 119.633 45.7556 119.796 45.9003C119.959 46.0631 120.158 46.1354 120.393 46.1354C120.628 46.1354 120.845 46.0631 120.99 45.9003Z" fill="#00A9AC"/>
<path d="M123.866 46.8224C123.631 46.732 123.432 46.6235 123.269 46.4788C123.161 46.3703 123.07 46.2799 123.016 46.1714C122.962 46.0629 122.926 45.9724 122.926 45.882C122.926 45.7735 122.962 45.6831 123.034 45.6107C123.107 45.5384 123.215 45.5022 123.324 45.5022C123.414 45.5022 123.505 45.5203 123.577 45.5565C123.649 45.5927 123.74 45.665 123.83 45.7735C123.939 45.9001 124.047 45.9905 124.174 46.0448C124.3 46.099 124.445 46.1352 124.608 46.1352C124.861 46.1352 125.042 46.0809 125.168 45.9905C125.295 45.9001 125.367 45.7735 125.367 45.6469C125.367 45.5203 125.295 45.4118 125.15 45.3395C125.006 45.2671 124.789 45.1948 124.481 45.1224C124.174 45.0501 123.92 44.9597 123.722 44.8873C123.523 44.815 123.36 44.6884 123.215 44.5437C123.07 44.399 122.998 44.182 122.998 43.9107C122.998 43.7118 123.07 43.5129 123.197 43.332C123.324 43.1512 123.523 42.9884 123.758 42.8799C124.011 42.7714 124.282 42.699 124.608 42.699C124.879 42.699 125.114 42.7352 125.331 42.8075C125.548 42.8799 125.729 42.9884 125.874 43.115C125.982 43.2054 126.073 43.2958 126.127 43.4044C126.181 43.4948 126.217 43.5852 126.217 43.6756C126.217 43.7841 126.181 43.8746 126.091 43.9288C126.018 44.0012 125.91 44.0373 125.801 44.0373C125.729 44.0373 125.657 44.0373 125.584 43.9831C125.512 43.9469 125.44 43.8927 125.349 43.8203C125.223 43.7118 125.114 43.6395 124.987 43.5852C124.861 43.531 124.734 43.5129 124.59 43.5129C124.373 43.5129 124.228 43.549 124.119 43.6214C124.011 43.6937 123.957 43.8022 123.957 43.9107C123.957 44.0373 124.029 44.1458 124.174 44.2182C124.318 44.2905 124.535 44.3629 124.843 44.4352C125.15 44.5075 125.403 44.598 125.602 44.6703C125.801 44.7427 125.964 44.8692 126.109 45.0139C126.253 45.1586 126.326 45.3756 126.326 45.6469C126.326 45.8639 126.253 46.0809 126.109 46.2618C125.964 46.4607 125.765 46.6235 125.512 46.7501C125.259 46.8767 124.933 46.931 124.59 46.931C124.318 46.931 124.065 46.8948 123.848 46.8044L123.866 46.8224Z" fill="#00A9AC"/>
<path d="M75.7227 33.603C76.012 33.603 76.229 33.6934 76.3918 33.8562C76.5546 34.019 76.645 34.2179 76.645 34.453C76.645 34.6881 76.5546 34.869 76.3918 35.0317C76.229 35.1945 75.9939 35.2849 75.7227 35.2849H71.2195C70.9482 35.2849 70.7312 35.2126 70.5503 35.0317C70.3695 34.869 70.2971 34.67 70.2971 34.4349C70.2971 34.236 70.3514 34.0551 70.4418 33.8562C70.5322 33.6753 70.6769 33.5126 70.8758 33.3679L71.2014 33.1147C72.2684 32.3009 73.0461 31.7041 73.5163 31.2881C73.8599 30.9807 74.1492 30.6732 74.3663 30.3658C74.5833 30.0583 74.6918 29.7871 74.6918 29.57C74.6918 29.2807 74.5833 29.0275 74.3663 28.8466C74.1492 28.6658 73.8599 28.5573 73.4982 28.5573C73.2269 28.5573 72.9737 28.6115 72.7748 28.7019C72.5758 28.7924 72.3588 28.9732 72.1418 29.2083C71.979 29.3892 71.8344 29.5158 71.7078 29.57C71.5812 29.6243 71.4727 29.6605 71.328 29.6605C71.0567 29.6605 70.8397 29.5881 70.6769 29.4253C70.5141 29.2626 70.4237 29.0636 70.4237 28.8105C70.4237 28.503 70.5684 28.1956 70.8578 27.8881C71.129 27.5988 71.4907 27.3456 71.961 27.1647C72.4312 26.9839 72.9195 26.8934 73.462 26.8934C74.1131 26.8934 74.6556 27.0019 75.1258 27.2371C75.5961 27.4722 75.9397 27.7796 76.1929 28.1775C76.428 28.5753 76.5546 29.0456 76.5546 29.5519C76.5546 30.2573 76.1205 31.0349 75.2344 31.903C74.9631 32.1743 74.6375 32.4456 74.2578 32.7168C73.878 32.9881 73.4982 33.2594 73.1184 33.4764V33.5849H75.7227V33.603Z" fill="#00A9AC"/>
<path d="M79.4662 35.1216C78.9598 34.8503 78.5801 34.4886 78.3088 34.0184C78.0375 33.5482 77.8928 33.0238 77.8928 32.4089V29.9855C77.8928 29.3886 78.0375 28.8461 78.3088 28.3759C78.5801 27.9057 78.9779 27.544 79.4662 27.2727C79.9726 27.0014 80.5513 26.8748 81.2024 26.8748C81.8535 26.8748 82.4322 27.0014 82.9386 27.2727C83.4269 27.544 83.8247 27.9057 84.096 28.3759C84.3673 28.8461 84.512 29.3706 84.512 29.9855V32.4089C84.512 33.0057 84.3673 33.5482 84.096 34.0184C83.8247 34.4886 83.4269 34.8503 82.9386 35.1216C82.4322 35.3929 81.8535 35.5195 81.2024 35.5195C80.5513 35.5195 79.9545 35.3929 79.4662 35.1216ZM82.2333 33.494C82.4864 33.2227 82.6311 32.861 82.6311 32.4089V29.9855C82.6311 29.5333 82.5045 29.1716 82.2333 28.9003C81.9801 28.6291 81.6364 28.5025 81.2024 28.5025C80.7684 28.5025 80.4247 28.6291 80.1535 28.9003C79.9003 29.1716 79.7556 29.5333 79.7556 29.9855V32.4089C79.7556 32.861 79.8822 33.2227 80.1535 33.494C80.4067 33.7652 80.7684 33.8918 81.2024 33.8918C81.6364 33.8918 81.9801 33.7652 82.2333 33.494Z" fill="#00A9AC"/>
<path d="M91.0039 33.6029C91.2933 33.6029 91.5103 33.6934 91.673 33.8561C91.8358 34.0189 91.9262 34.2178 91.9262 34.4529C91.9262 34.6881 91.8358 34.8689 91.673 35.0317C91.5103 35.1944 91.2752 35.2849 91.0039 35.2849H86.5007C86.2294 35.2849 86.0124 35.2125 85.8316 35.0317C85.6507 34.8689 85.5784 34.67 85.5784 34.4349C85.5784 34.2359 85.6326 34.0551 85.7231 33.8561C85.8135 33.6753 85.9582 33.5125 86.1571 33.3678L86.4826 33.1146C87.5496 32.3008 88.3273 31.704 88.7975 31.2881C89.1411 30.9806 89.4305 30.6732 89.6475 30.3657C89.8645 30.0583 89.9731 29.787 89.9731 29.57C89.9731 29.2806 89.8645 29.0274 89.6475 28.8466C89.4305 28.6657 89.1411 28.5572 88.7794 28.5572C88.5082 28.5572 88.255 28.6115 88.056 28.7019C87.8571 28.7923 87.6401 28.9732 87.4231 29.2083C87.2603 29.3891 87.1156 29.5157 86.989 29.57C86.8624 29.6242 86.7539 29.6604 86.6092 29.6604C86.3379 29.6604 86.1209 29.5881 85.9582 29.4253C85.7954 29.2625 85.705 29.0636 85.705 28.8104C85.705 28.5029 85.8496 28.1955 86.139 27.8881C86.4103 27.5987 86.772 27.3455 87.2422 27.1646C87.7124 26.9838 88.2007 26.8934 88.7433 26.8934C89.3943 26.8934 89.9369 27.0019 90.4071 27.237C90.8773 27.4721 91.2209 27.7795 91.4741 28.1774C91.7092 28.5753 91.8358 29.0455 91.8358 29.5519C91.8358 30.2572 91.4018 31.0349 90.5156 31.9029C90.2443 32.1742 89.9188 32.4455 89.539 32.7168C89.1592 32.9881 88.7794 33.2593 88.3996 33.4764V33.5849H91.0039V33.6029Z" fill="#00A9AC"/>
<path d="M98.979 31.6482C99.2502 31.6482 99.4673 31.7205 99.63 31.8833C99.7928 32.0461 99.8832 32.245 99.8832 32.462C99.8832 32.679 99.7928 32.8961 99.63 33.0588C99.4673 33.2216 99.2502 33.312 98.979 33.312H98.7258V34.5237C98.7258 34.7769 98.6354 34.9759 98.4545 35.1386C98.2737 35.3014 98.0566 35.3918 97.7854 35.3918C97.5141 35.3918 97.3151 35.3014 97.1343 35.1386C96.9534 34.9759 96.863 34.7588 96.863 34.5237V33.312H93.5715C93.3003 33.312 93.0832 33.2397 92.9024 33.0769C92.7215 32.9142 92.6311 32.7152 92.6311 32.4801C92.6311 32.3354 92.6673 32.1727 92.7215 32.028C92.7758 31.8652 92.8662 31.7205 92.9747 31.5939L96.0673 27.8503C96.3024 27.561 96.5375 27.3439 96.7907 27.1993C97.0258 27.0546 97.3151 26.9822 97.6045 26.9822C97.8939 26.9822 98.1832 27.0907 98.3822 27.2897C98.5811 27.4886 98.7077 27.7418 98.7077 28.0312V31.6844H98.9609L98.979 31.6482ZM96.7364 29.3514L94.946 31.5216V31.6301H96.863V29.3514H96.7545H96.7364Z" fill="#00A9AC"/>
<path d="M71.6906 78.0009C71.3832 78.0009 71.1119 77.8924 70.8949 77.6573C70.6778 77.4222 70.5693 77.1509 70.5693 76.8254V68.1988C70.5693 67.8552 70.6778 67.5839 70.8949 67.3669C71.1119 67.1498 71.3832 67.0233 71.6906 67.0233H74.7651C75.9949 67.0233 76.8991 67.2764 77.4959 67.8009C78.0927 68.3254 78.4002 69.0126 78.4002 69.8807C78.4002 70.4413 78.2736 70.9296 78.0023 71.3456C77.731 71.7616 77.3693 72.0509 76.8991 72.1956V72.3584C77.4778 72.5211 77.93 72.8286 78.2555 73.2626C78.581 73.6967 78.7619 74.2392 78.7619 74.8541C78.7619 75.8126 78.4364 76.5722 77.7853 77.1328C77.1342 77.7116 76.1757 77.9828 74.8917 77.9828H71.6906V78.0009ZM74.7651 71.3456C75.181 71.3456 75.5066 71.2371 75.7598 71.0381C76.013 70.8392 76.1215 70.5679 76.1215 70.2424C76.1215 69.9169 75.9949 69.6275 75.7598 69.4286C75.5247 69.2296 75.181 69.1392 74.7651 69.1392H72.8119V71.3456H74.7651ZM74.9821 75.885C75.4342 75.885 75.7959 75.7764 76.0672 75.5413C76.3385 75.3243 76.4832 75.0169 76.4832 74.6371C76.4832 74.2573 76.3385 73.9679 76.0672 73.7328C75.7959 73.4977 75.4342 73.3892 74.9821 73.3892H72.83V75.8669H74.9821V75.885Z" fill="#00A9AC"/>
<path d="M85.057 70.2962C85.5634 70.6036 85.9613 71.0015 86.2506 71.5079C86.54 72.0143 86.6666 72.593 86.6666 73.2079V73.7324C86.6666 74.0217 86.5762 74.2749 86.3772 74.4919C86.1783 74.709 85.9432 74.7994 85.6358 74.7994H82.0368V74.926C82.0368 75.3781 82.1634 75.7398 82.3985 76.0111C82.6336 76.2824 82.9772 76.427 83.3932 76.427C83.6645 76.427 83.9177 76.3909 84.1166 76.3185C84.3336 76.2462 84.5506 76.1377 84.7677 75.9749C84.9304 75.8664 85.0751 75.776 85.1836 75.7398C85.2921 75.6856 85.4187 75.6675 85.5453 75.6675C85.7804 75.6675 85.9794 75.7579 86.1241 75.9207C86.2687 76.0834 86.3411 76.2824 86.3411 76.4994C86.3411 76.6622 86.2868 76.843 86.1964 77.0239C86.106 77.2047 85.9613 77.3856 85.7623 77.5483C85.4911 77.7473 85.1655 77.91 84.7496 78.0366C84.3336 78.1632 83.8634 78.2175 83.339 78.2175C82.6879 78.2175 82.0911 78.0728 81.5847 77.7653C81.0783 77.4579 80.6804 77.06 80.3911 76.5356C80.1017 76.0292 79.957 75.4685 79.957 74.8536V73.1898C79.957 72.5749 80.1017 72.0143 80.3911 71.4898C80.6804 70.9834 81.0783 70.5675 81.5847 70.2781C82.0911 69.9888 82.6698 69.826 83.3209 69.826C83.9719 69.826 84.5326 69.9707 85.057 70.2781V70.2962ZM82.3985 72.1047C82.1453 72.376 82.0368 72.7196 82.0368 73.1536V73.1898H84.6049C84.6049 72.7377 84.4964 72.376 84.2613 72.1047C84.0262 71.8334 83.7187 71.6888 83.3209 71.6888C82.923 71.6888 82.6517 71.8334 82.3985 72.1047Z" fill="#00A9AC"/>
<path d="M89.2703 78.0006C88.8544 77.8379 88.5107 77.6389 88.2214 77.3857C88.0044 77.2049 87.8416 77.006 87.7331 76.7889C87.6246 76.5719 87.5703 76.373 87.5703 76.1921C87.5703 75.9389 87.6607 75.7219 87.8235 75.5591C87.9863 75.3964 88.1852 75.324 88.4203 75.324C88.5831 75.324 88.7459 75.3602 88.8905 75.4506C89.0352 75.523 89.1799 75.6496 89.3607 75.8304C89.5597 76.0474 89.7586 76.2102 89.9576 76.3006C90.1565 76.3911 90.3916 76.4453 90.6629 76.4453C91.0065 76.4453 91.2778 76.373 91.4767 76.2102C91.6756 76.0474 91.7661 75.8847 91.7661 75.6677C91.7661 75.4506 91.6575 75.2698 91.4224 75.1613C91.1873 75.0528 90.8437 74.9081 90.3554 74.7815C89.8129 74.6368 89.3788 74.474 89.0171 74.3113C88.6554 74.1485 88.3661 73.9134 88.1129 73.5879C87.8597 73.2623 87.7331 72.8464 87.7331 72.3219C87.7331 71.8879 87.8597 71.4719 88.0948 71.0921C88.3299 70.7123 88.6735 70.4049 89.1256 70.1698C89.5778 69.9347 90.1022 69.8262 90.7171 69.8262C91.1873 69.8262 91.6214 69.8985 92.0012 70.0251C92.381 70.1698 92.7065 70.3506 92.9597 70.5677C93.1586 70.7485 93.3214 70.9474 93.448 71.1464C93.5565 71.3453 93.6288 71.5262 93.6288 71.6889C93.6288 71.9421 93.5565 72.1411 93.3937 72.3038C93.231 72.4666 93.032 72.5389 92.7969 72.5389C92.6341 72.5389 92.4895 72.5028 92.3448 72.4304C92.2001 72.3581 92.0554 72.2496 91.8746 72.0868C91.6756 71.906 91.4948 71.7613 91.3139 71.6889C91.1331 71.6166 90.9341 71.5804 90.7171 71.5804C90.4278 71.5804 90.2107 71.6528 90.048 71.7794C89.8852 71.906 89.7948 72.0687 89.7948 72.2496C89.7948 72.4666 89.9033 72.6294 90.1384 72.756C90.3735 72.8826 90.7171 73.0091 91.2054 73.1357C91.748 73.2804 92.182 73.4432 92.5437 73.606C92.9054 73.7687 93.1948 74.0038 93.448 74.3294C93.7012 74.6549 93.8278 75.0708 93.8278 75.5953C93.8278 76.0474 93.7012 76.4815 93.448 76.8794C93.1948 77.2772 92.8331 77.6028 92.3629 77.8379C91.8746 78.073 91.3139 78.1996 90.6629 78.1996C90.1565 78.1996 89.7044 78.1272 89.2884 77.9645L89.2703 78.0006Z" fill="#00A9AC"/>
<path d="M99.2893 76.0671C99.5605 76.0671 99.7595 76.1575 99.9403 76.3384C100.103 76.5192 100.194 76.7543 100.194 77.0437C100.194 77.3331 100.103 77.5501 99.9403 77.7309C99.7776 77.9118 99.5605 78.0022 99.2893 78.0022H98.1318C97.6254 78.0022 97.1733 77.8756 96.7754 77.6405C96.3776 77.3873 96.0701 77.0618 95.835 76.6458C95.5999 76.2299 95.4914 75.7416 95.4914 75.2171V72.0341H95.3467C95.0754 72.0341 94.8584 71.9437 94.6595 71.7809C94.4605 71.6182 94.3701 71.3831 94.3701 71.0756C94.3701 70.7682 94.4605 70.5512 94.6595 70.3703C94.8403 70.1895 95.0754 70.1171 95.3467 70.1171H95.4914V69.1948C95.4914 68.9054 95.5818 68.6522 95.7808 68.4352C95.9797 68.2182 96.2329 68.1277 96.5222 68.1277C96.8116 68.1277 97.0648 68.2363 97.2637 68.4352C97.4627 68.6522 97.5531 68.8873 97.5531 69.1948V70.1171H98.9637C99.235 70.1171 99.452 70.2075 99.6329 70.3884C99.8137 70.5692 99.9042 70.8043 99.9042 71.0756C99.9042 71.3469 99.8137 71.582 99.6329 71.7629C99.452 71.9437 99.235 72.0341 98.9637 72.0341H97.5531V75.2171C97.5531 75.5065 97.6074 75.7235 97.7339 75.8682C97.8605 76.0129 98.0233 76.1033 98.2584 76.1033H99.2712L99.2893 76.0671Z" fill="#00A9AC"/>
<path d="M54.8712 81.9795C55.2148 81.9795 55.4861 82.088 55.685 82.305C55.9021 82.522 55.9925 82.7933 55.9925 83.0827C55.9925 83.372 55.884 83.6433 55.685 83.8603C55.4861 84.0774 55.2148 84.1859 54.8712 84.1859H50.8744V86.8082H53.4967C53.8403 86.8082 54.1116 86.9167 54.3106 87.1337C54.5095 87.3508 54.618 87.604 54.618 87.9295C54.618 88.255 54.5095 88.5082 54.3106 88.7252C54.1116 88.9423 53.8223 89.0508 53.4967 89.0508H50.8744V91.9444C50.8744 92.2699 50.7659 92.5593 50.5489 92.7763C50.3318 92.9933 50.0606 93.1199 49.7531 93.1199C49.4457 93.1199 49.1744 93.0114 48.9574 92.7763C48.7403 92.5412 48.6318 92.2699 48.6318 91.9444V83.155C48.6318 82.8114 48.7403 82.5401 48.9574 82.3231C49.1744 82.1061 49.4457 81.9795 49.7531 81.9795H54.8712Z" fill="#00A9AC"/>
<path d="M58.4157 92.7409C57.9094 92.4335 57.5115 92.0356 57.2221 91.5111C56.9328 91.0048 56.7881 90.4441 56.7881 89.8292V88.1654C56.7881 87.5505 56.9328 86.9899 57.2221 86.4654C57.5115 85.959 57.9094 85.5431 58.4157 85.2537C58.9221 84.9643 59.5189 84.8016 60.17 84.8016C60.8211 84.8016 61.3998 84.9463 61.9062 85.2537C62.4126 85.5611 62.8104 85.959 63.0998 86.4654C63.3891 86.9718 63.5338 87.5505 63.5338 88.1654V89.8292C63.5338 90.426 63.3891 90.9867 63.0998 91.5111C62.8104 92.0175 62.4126 92.4335 61.9062 92.7409C61.3998 93.0484 60.8211 93.1931 60.17 93.1931C59.5189 93.1931 58.9221 93.0484 58.4157 92.7409ZM61.1285 90.8782C61.3817 90.6069 61.5083 90.2633 61.5083 89.8292V88.1654C61.5083 87.7494 61.3817 87.4058 61.1285 87.1165C60.8753 86.8271 60.5679 86.7005 60.1881 86.7005C59.8083 86.7005 59.5008 86.8452 59.2477 87.1165C58.9945 87.3877 58.8679 87.7494 58.8679 88.1654V89.8292C58.8679 90.2452 58.9945 90.5888 59.2477 90.8782C59.5008 91.1494 59.8083 91.2941 60.1881 91.2941C60.5679 91.2941 60.8753 91.1494 61.1285 90.8782Z" fill="#00A9AC"/>
<path d="M69.159 84.91C69.4303 84.91 69.6292 85.0004 69.8101 85.1812C69.9729 85.3621 70.0633 85.5972 70.0633 85.8685C70.0633 86.1398 69.9729 86.3749 69.8101 86.5557C69.6473 86.7366 69.4303 86.827 69.159 86.827H68.3633C67.9835 86.827 67.676 86.9536 67.459 87.2068C67.242 87.46 67.1154 87.7855 67.1154 88.1834V91.9993C67.1154 92.2887 67.025 92.5419 66.8261 92.7589C66.6271 92.9759 66.392 93.0664 66.0846 93.0664C65.7771 93.0664 65.542 92.9578 65.3431 92.7589C65.1441 92.5419 65.0537 92.3068 65.0537 91.9993V86.0674C65.0537 85.76 65.1441 85.5068 65.3431 85.3078C65.542 85.1089 65.7952 85.0004 66.0846 85.0004C66.3197 85.0004 66.5367 85.0727 66.7175 85.2355C66.8984 85.3802 67.0069 85.5791 67.0612 85.7961H67.2058C67.3505 85.561 67.5495 85.3621 67.8207 85.1993C68.092 85.0366 68.3633 84.9461 68.6346 84.9461H69.1771L69.159 84.91Z" fill="#00A9AC"/>
<path d="M75.7787 85.272C76.2851 85.5794 76.683 85.9773 76.9723 86.4837C77.2617 86.9901 77.3883 87.5688 77.3883 88.1837V88.7081C77.3883 88.9975 77.2979 89.2507 77.0989 89.4677C76.9 89.6847 76.6649 89.7752 76.3574 89.7752H72.7585V89.9018C72.7585 90.3539 72.8851 90.7156 73.1202 90.9869C73.3553 91.2581 73.6989 91.4028 74.1149 91.4028C74.3862 91.4028 74.6393 91.3667 74.8383 91.2943C75.0553 91.222 75.2723 91.1135 75.4893 90.9507C75.6521 90.8422 75.7968 90.7518 75.9053 90.7156C76.0138 90.6613 76.1404 90.6432 76.267 90.6432C76.5021 90.6432 76.7011 90.7337 76.8457 90.8964C76.9904 91.0592 77.0628 91.2581 77.0628 91.4752C77.0628 91.6379 77.0085 91.8188 76.9181 91.9996C76.8276 92.1805 76.683 92.3613 76.484 92.5241C76.2128 92.723 75.8872 92.8858 75.4713 93.0124C75.0553 93.139 74.5851 93.1932 74.0606 93.1932C73.4096 93.1932 72.8127 93.0486 72.3064 92.7411C71.8 92.4337 71.4021 92.0358 71.1127 91.5113C70.8234 91.0049 70.6787 90.4443 70.6787 89.8294V88.1656C70.6787 87.5507 70.8234 86.9901 71.1127 86.4656C71.4021 85.9592 71.8 85.5432 72.3064 85.2539C72.8127 84.9645 73.3915 84.8018 74.0425 84.8018C74.6936 84.8018 75.2542 84.9464 75.7787 85.2539V85.272ZM73.1383 87.0805C72.8851 87.3518 72.7766 87.6954 72.7766 88.1294V88.1656H75.3447C75.3447 87.7135 75.2362 87.3518 75.0011 87.0805C74.7659 86.8092 74.4585 86.6645 74.0606 86.6645C73.6628 86.6645 73.3915 86.8092 73.1383 87.0805Z" fill="#00A9AC"/>
<path d="M84.639 91.0227C84.7656 91.1854 84.856 91.3482 84.9284 91.4929C84.9826 91.6376 85.0188 91.8003 85.0188 91.9812C85.0188 92.2886 84.9284 92.5418 84.7294 92.7407C84.5305 92.9397 84.2773 93.0482 83.9879 93.0482C83.8252 93.0482 83.6805 93.012 83.5358 92.9216C83.3911 92.8312 83.2645 92.6865 83.1199 92.4876L81.673 90.5344H81.5284L80.0816 92.4876C79.9369 92.6865 79.8103 92.8312 79.6656 92.9216C79.5209 93.012 79.3762 93.0482 79.2135 93.0482C78.9241 93.0482 78.6709 92.9397 78.472 92.7407C78.273 92.5418 78.1826 92.2886 78.1826 91.9812C78.1826 91.8003 78.2188 91.6376 78.273 91.4929C78.3273 91.3482 78.4358 91.1854 78.5624 91.0227L80.2986 88.9067L78.7975 86.9897C78.5262 86.6461 78.3816 86.3386 78.3816 86.0493C78.3816 85.7599 78.472 85.4886 78.6709 85.2897C78.8699 85.0907 79.105 84.9822 79.4124 84.9822C79.5933 84.9822 79.756 85.0184 79.9007 85.1088C80.0454 85.1993 80.172 85.3259 80.3167 85.5248L81.5103 87.1705H81.655L82.8486 85.5248C82.9933 85.3259 83.1379 85.1812 83.2645 85.1088C83.3911 85.0365 83.5539 84.9822 83.7347 84.9822C84.0241 84.9822 84.2773 85.0907 84.4762 85.2897C84.6752 85.4886 84.7656 85.7418 84.7656 86.0493C84.7656 86.1939 84.7294 86.3386 84.6752 86.4833C84.6209 86.628 84.5124 86.7907 84.3677 86.9897L82.9028 88.9067L84.6028 91.0227H84.639Z" fill="#00A9AC"/>
<path d="M91.0772 92.9572C90.7698 92.9572 90.4985 92.8486 90.2815 92.6135C90.0644 92.3784 89.9559 92.1071 89.9559 91.7816V83.155C89.9559 82.8114 90.0644 82.5401 90.2815 82.3231C90.4985 82.1061 90.7698 81.9795 91.0772 81.9795H94.1517C95.3815 81.9795 96.2857 82.2327 96.8825 82.7571C97.4793 83.2816 97.7868 83.9689 97.7868 84.8369C97.7868 85.3976 97.6602 85.8859 97.3889 86.3018C97.1176 86.7178 96.7559 87.0071 96.2857 87.1518V87.3146C96.8644 87.4774 97.3166 87.7848 97.6421 88.2188C97.9676 88.6529 98.1485 89.1954 98.1485 89.8103C98.1485 90.7689 97.8229 91.5284 97.1719 92.0891C96.5208 92.6678 95.5623 92.9391 94.2783 92.9391H91.0772V92.9572ZM94.1517 86.3199C94.5676 86.3199 94.8932 86.2114 95.1464 86.0125C95.3815 85.8135 95.5081 85.5423 95.5081 85.2167C95.5081 84.8912 95.3815 84.6018 95.1464 84.4029C94.8932 84.204 94.5676 84.1135 94.1517 84.1135H92.1985V86.3199H94.1517ZM94.3687 90.8412C94.8208 90.8412 95.1825 90.7327 95.4538 90.4976C95.7251 90.2806 95.8698 89.9731 95.8698 89.5933C95.8698 89.2135 95.7251 88.9242 95.4538 88.6891C95.1825 88.454 94.8208 88.3454 94.3687 88.3454H92.2166V90.8231H94.3687V90.8412Z" fill="#00A9AC"/>
<path d="M104.173 85.2537C104.679 85.543 105.059 85.9228 105.33 86.4111C105.601 86.8994 105.746 87.442 105.746 88.0388V91.9994C105.746 92.2888 105.656 92.542 105.457 92.759C105.258 92.976 105.023 93.0664 104.715 93.0664C104.462 93.0664 104.245 92.9941 104.064 92.8313C103.883 92.6686 103.775 92.4696 103.739 92.2526H103.576C103.377 92.542 103.087 92.7771 102.744 92.9579C102.4 93.1388 102.02 93.2292 101.623 93.2292C101.17 93.2292 100.754 93.1207 100.393 92.9037C100.031 92.6866 99.7417 92.3973 99.5428 92.0356C99.3439 91.6739 99.2354 91.276 99.2354 90.842C99.2354 90.0643 99.5066 89.4132 100.031 88.9249C100.556 88.4366 101.315 88.1834 102.31 88.1834H103.684V88.0569C103.684 87.6409 103.576 87.3154 103.359 87.0441C103.142 86.7909 102.834 86.6462 102.455 86.6462C102.256 86.6462 102.093 86.6824 101.93 86.7547C101.785 86.8271 101.623 86.9718 101.442 87.1707C101.279 87.3335 101.134 87.4601 101.008 87.5324C100.881 87.6047 100.718 87.6409 100.537 87.6409C100.284 87.6409 100.085 87.5505 99.9226 87.3877C99.7598 87.2249 99.6875 87.0079 99.6875 86.7366C99.6875 86.5015 99.7598 86.2845 99.9045 86.0494C100.049 85.8324 100.266 85.6154 100.519 85.4345C101.044 85.0366 101.677 84.8377 102.455 84.8377C103.106 84.8377 103.684 84.9824 104.173 85.2537ZM103.684 89.7026H102.31C102.002 89.7026 101.749 89.793 101.568 89.9739C101.387 90.1547 101.297 90.3718 101.297 90.6249C101.297 90.8781 101.369 91.0771 101.532 91.2217C101.695 91.3664 101.912 91.4388 102.201 91.4388C102.473 91.4388 102.726 91.3664 102.997 91.2217C103.268 91.0771 103.503 90.8781 103.684 90.643V89.7026Z" fill="#00A9AC"/>
<path d="M112.581 85.2352C112.979 85.5065 113.304 85.8863 113.521 86.3927C113.756 86.881 113.865 87.4597 113.865 88.0927V91.981C113.865 92.2703 113.775 92.5235 113.576 92.7405C113.377 92.9576 113.124 93.048 112.834 93.048C112.545 93.048 112.292 92.9395 112.093 92.7405C111.894 92.5235 111.803 92.2884 111.803 91.981V88.0927C111.803 87.6767 111.695 87.3331 111.478 87.098C111.261 86.8629 110.971 86.7182 110.61 86.7182C110.248 86.7182 109.959 86.8448 109.742 87.098C109.525 87.3512 109.416 87.6767 109.416 88.0927V91.981C109.416 92.2703 109.326 92.5235 109.127 92.7405C108.928 92.9576 108.693 93.048 108.385 93.048C108.078 93.048 107.843 92.9395 107.644 92.7405C107.445 92.5235 107.354 92.2884 107.354 91.981V86.0491C107.354 85.7416 107.445 85.4884 107.644 85.2895C107.843 85.0905 108.096 84.982 108.385 84.982C108.675 84.982 108.892 85.0544 109.036 85.2171C109.199 85.3799 109.289 85.5608 109.344 85.7778H109.506C109.633 85.5246 109.868 85.2895 110.194 85.1086C110.519 84.9278 110.881 84.8193 111.279 84.8193C111.767 84.8193 112.201 84.964 112.599 85.2352H112.581Z" fill="#00A9AC"/>
<path d="M121.786 91.1496C121.984 91.4028 122.075 91.6741 122.075 91.9815C122.075 92.289 121.984 92.5241 121.804 92.7411C121.623 92.9581 121.37 93.0486 121.08 93.0486C120.737 93.0486 120.447 92.8858 120.194 92.5241L118.313 89.9922H117.554V91.9634C117.554 92.2528 117.463 92.506 117.264 92.723C117.065 92.94 116.812 93.0305 116.523 93.0305C116.233 93.0305 115.98 92.922 115.781 92.723C115.582 92.506 115.492 92.2709 115.492 91.9634V82.8666C115.492 82.5773 115.582 82.3241 115.781 82.1071C115.98 81.8901 116.233 81.7996 116.523 81.7996C116.812 81.7996 117.065 81.9081 117.264 82.1071C117.463 82.3241 117.554 82.5592 117.554 82.8666V88.0028H118.295L120.013 85.4709C120.14 85.29 120.266 85.1454 120.393 85.073C120.52 85.0007 120.682 84.9645 120.899 84.9645C121.207 84.9645 121.46 85.073 121.641 85.272C121.822 85.489 121.93 85.7241 121.93 86.0315C121.93 86.339 121.84 86.5741 121.677 86.7911L120.067 88.9071L121.767 91.1135L121.786 91.1496Z" fill="#00A9AC"/>
<path d="M74.1505 107.461C74.3314 107.95 74.4218 108.293 74.4218 108.529C74.4218 108.872 74.3133 109.162 74.0963 109.379C73.8792 109.596 73.608 109.704 73.2824 109.704C72.9931 109.704 72.758 109.596 72.5409 109.379C72.3239 109.162 72.1792 108.854 72.0526 108.474L71.6186 107.1H67.8207L67.3867 108.474C67.2782 108.854 67.1154 109.162 66.8984 109.379C66.6814 109.596 66.4463 109.704 66.175 109.704C65.8495 109.704 65.5782 109.596 65.3612 109.379C65.1441 109.162 65.0537 108.872 65.0537 108.529C65.0537 108.293 65.1441 107.95 65.325 107.461L67.8931 99.9924C68.1101 99.3775 68.3633 98.9253 68.6346 98.6541C68.9058 98.3828 69.2675 98.2381 69.7197 98.2381C70.1718 98.2381 70.5516 98.3828 70.8409 98.6541C71.1303 98.9253 71.3654 99.3775 71.5824 99.9924L74.1505 107.461ZM69.792 101.222H69.6473L68.4537 104.875H70.9856L69.792 101.222Z" fill="#00A9AC"/>
<path d="M78.7443 100.317C78.5273 100.317 78.3464 100.39 78.2198 100.552C78.0932 100.715 78.039 100.932 78.039 101.221V101.854H79.3049C79.5762 101.854 79.7932 101.945 79.9741 102.126C80.1549 102.307 80.2453 102.542 80.2453 102.813C80.2453 103.084 80.1549 103.319 79.9741 103.5C79.7932 103.681 79.5762 103.771 79.3049 103.771H78.039V108.564C78.039 108.853 77.9485 109.107 77.7496 109.324C77.5507 109.541 77.2975 109.631 77.0081 109.631C76.7187 109.631 76.4655 109.523 76.2666 109.324C76.0677 109.107 75.9772 108.871 75.9772 108.564V103.771H75.8145C75.5432 103.771 75.3262 103.681 75.1273 103.518C74.9464 103.337 74.8379 103.12 74.8379 102.813C74.8379 102.506 74.9283 102.289 75.1273 102.108C75.3081 101.945 75.5432 101.854 75.8145 101.854H75.9772V101.221C75.9772 100.697 76.0858 100.209 76.3028 99.7747C76.5198 99.3406 76.8272 99.0151 77.2432 98.7619C77.6411 98.5087 78.0932 98.4002 78.5996 98.4002H79.757C80.0283 98.4002 80.2272 98.4906 80.4081 98.6715C80.5709 98.8523 80.6613 99.0874 80.6613 99.3768C80.6613 99.6662 80.5709 99.8832 80.4081 100.064C80.2453 100.245 80.0283 100.335 79.757 100.335H78.7443V100.317Z" fill="#00A9AC"/>
<path d="M85.2359 101.475C85.5072 101.475 85.7061 101.566 85.8689 101.747C86.0317 101.928 86.1221 102.163 86.1221 102.434C86.1221 102.705 86.0317 102.94 85.8689 103.121C85.7061 103.302 85.4891 103.392 85.2359 103.392H84.4402C84.0604 103.392 83.753 103.519 83.5359 103.772C83.3008 104.025 83.1923 104.351 83.1923 104.749V108.565C83.1923 108.854 83.1019 109.107 82.903 109.324C82.704 109.541 82.4508 109.632 82.1615 109.632C81.8721 109.632 81.6189 109.523 81.42 109.324C81.221 109.107 81.1306 108.872 81.1306 108.565V102.633C81.1306 102.325 81.221 102.072 81.42 101.873C81.6189 101.674 81.8721 101.566 82.1615 101.566C82.4147 101.566 82.6136 101.638 82.7944 101.801C82.9753 101.946 83.0838 102.145 83.1381 102.362H83.2827C83.4274 102.126 83.6264 101.928 83.8796 101.765C84.1327 101.602 84.4221 101.512 84.6934 101.512H85.2359V101.475Z" fill="#00A9AC"/>
<path d="M87.2264 99.974C87.0094 99.757 86.9189 99.5038 86.9189 99.1782C86.9189 98.8527 87.0275 98.5814 87.2264 98.3644C87.4253 98.1474 87.6785 98.0389 87.986 98.0389C88.2934 98.0389 88.5466 98.1474 88.7636 98.3644C88.9806 98.5814 89.0892 98.8527 89.0892 99.1782C89.0892 99.5038 88.9806 99.757 88.7636 99.974C88.5466 100.191 88.2934 100.3 87.986 100.3C87.6785 100.3 87.4253 100.191 87.2264 99.974ZM87.2626 109.306C87.0636 109.089 86.9732 108.854 86.9732 108.546V102.614C86.9732 102.307 87.0636 102.054 87.2626 101.855C87.4615 101.656 87.7147 101.547 88.004 101.547C88.2934 101.547 88.5466 101.656 88.7455 101.855C88.9445 102.054 89.0349 102.307 89.0349 102.614V108.546C89.0349 108.836 88.9445 109.089 88.7455 109.306C88.5466 109.523 88.2934 109.613 88.004 109.613C87.7147 109.613 87.4615 109.505 87.2626 109.306Z" fill="#00A9AC"/>
<path d="M92.1452 109.324C91.6389 109.016 91.241 108.619 90.9516 108.094C90.6623 107.588 90.5176 107.027 90.5176 106.412V104.748C90.5176 104.134 90.6623 103.573 90.9516 103.048C91.241 102.542 91.6389 102.126 92.1452 101.837C92.6516 101.547 93.2484 101.385 93.8995 101.385C94.3335 101.385 94.7495 101.457 95.1474 101.62C95.5452 101.782 95.8708 101.999 96.142 102.271C96.558 102.651 96.775 103.085 96.775 103.573C96.775 103.826 96.6846 104.043 96.5218 104.224C96.3591 104.405 96.142 104.477 95.8708 104.477C95.6899 104.477 95.5452 104.441 95.4006 104.351C95.274 104.26 95.1112 104.115 94.9484 103.898C94.7857 103.663 94.6048 103.482 94.442 103.392C94.2793 103.302 94.0984 103.247 93.8814 103.247C93.5016 103.247 93.1942 103.392 92.941 103.663C92.6878 103.935 92.5612 104.296 92.5612 104.712V106.376C92.5612 106.792 92.6878 107.136 92.941 107.425C93.1942 107.696 93.5016 107.841 93.8814 107.841C94.1346 107.841 94.3335 107.787 94.5325 107.678C94.7133 107.57 94.9123 107.389 95.1112 107.118C95.292 106.901 95.4367 106.738 95.5633 106.665C95.6899 106.575 95.8346 106.539 95.9974 106.539C96.2686 106.539 96.4676 106.629 96.6484 106.792C96.8112 106.955 96.9016 107.172 96.9016 107.443C96.9016 107.931 96.6484 108.402 96.142 108.872C95.8708 109.143 95.5272 109.36 95.1112 109.505C94.6952 109.649 94.2974 109.74 93.8995 109.74C93.2484 109.74 92.6516 109.595 92.1452 109.288V109.324Z" fill="#00A9AC"/>
<path d="M102.797 101.819C103.303 102.108 103.683 102.488 103.954 102.977C104.225 103.465 104.37 104.007 104.37 104.604V108.565C104.37 108.854 104.28 109.107 104.081 109.324C103.882 109.541 103.647 109.632 103.339 109.632C103.086 109.632 102.869 109.56 102.688 109.397C102.507 109.234 102.399 109.035 102.363 108.818H102.2C101.983 109.107 101.711 109.343 101.368 109.523C101.024 109.704 100.644 109.795 100.247 109.795C99.7945 109.795 99.3785 109.686 99.0168 109.469C98.6551 109.252 98.3658 108.963 98.1668 108.601C97.9679 108.239 97.8594 107.841 97.8594 107.407C97.8594 106.63 98.1306 105.979 98.6551 105.49C99.1796 105.002 99.9392 104.749 100.934 104.749H102.308V104.622C102.308 104.206 102.2 103.881 101.983 103.61C101.766 103.356 101.458 103.212 101.079 103.212C100.88 103.212 100.717 103.248 100.572 103.32C100.427 103.393 100.265 103.537 100.084 103.736C99.9211 103.899 99.7764 104.025 99.6498 104.098C99.5232 104.17 99.3604 104.206 99.1796 104.206C98.9264 104.206 98.7275 104.116 98.5647 103.953C98.4019 103.79 98.3296 103.573 98.3296 103.302C98.3296 103.067 98.4019 102.85 98.5466 102.615C98.6913 102.398 98.8902 102.181 99.1434 102C99.6679 101.602 100.301 101.403 101.079 101.403C101.73 101.403 102.308 101.548 102.797 101.819ZM102.308 106.286H100.934C100.626 106.286 100.373 106.377 100.192 106.557C100.012 106.738 99.9211 106.955 99.9211 107.208C99.9211 107.462 99.9934 107.661 100.156 107.805C100.319 107.95 100.536 108.022 100.825 108.022C101.097 108.022 101.35 107.95 101.639 107.805C101.91 107.661 102.146 107.462 102.326 107.227V106.286H102.308Z" fill="#00A9AC"/>
</g>
<defs>
<clipPath id="clip0_427_1967">
<rect width="170" height="126.813" fill="white"/>
</clipPath>
</defs>
</svg>
