<svg width="40" height="40" viewBox="0 0 40 40" fill="none" xmlns="http://www.w3.org/2000/svg">
<g clip-path="url(#clip0_595_1094)">
<circle cx="20" cy="20" r="19.25" stroke="black" stroke-width="1.5"/>
<path d="M18.415 24.81H22.2917M22.2917 24.81V14.235C22.2917 13.7383 21.87 13.3333 21.355 13.3333H10.105C9.58832 13.3333 9.16666 13.7383 9.16666 14.235V24.81H11.51M22.2917 24.81L22.2915 16.6852H26.5665C27.0448 16.6852 27.4482 17.0285 27.4948 17.4885L27.9165 20.2968L30.3732 21.4518C30.5982 21.6235 30.7298 21.8852 30.7298 22.1568V24.8102H29.3232M22.2917 24.81L24.6348 24.8102M11.51 24.81C11.51 26.0567 12.5592 27.0667 13.8542 27.0667C15.1492 27.0667 16.1992 26.0567 16.1992 24.81C16.1992 23.5633 15.1492 22.5533 13.8542 22.5533C12.5592 22.5533 11.51 23.5633 11.51 24.81ZM29.3232 24.8102C29.3232 26.0568 28.274 27.0667 26.979 27.0667C25.684 27.0667 24.6348 26.0568 24.6348 24.8102M29.3232 24.8102C29.3232 23.5635 28.274 22.5533 26.979 22.5533C25.684 22.5533 24.6348 23.5635 24.6348 24.8102" stroke="black" stroke-width="1.5" stroke-linecap="round" stroke-linejoin="round"/>
</g>
<defs>
<clipPath id="clip0_595_1094">
<rect width="40" height="40" fill="white"/>
</clipPath>
</defs>
</svg>
