<svg width="40" height="40" viewBox="0 0 40 40" fill="none" xmlns="http://www.w3.org/2000/svg">
<g clip-path="url(#clip0_595_1098)">
<circle cx="20" cy="20" r="19.25" stroke="black" stroke-width="1.5"/>
<path fill-rule="evenodd" clip-rule="evenodd" d="M29.1667 10.8386H27.5C26.58 10.8386 25.8333 11.5853 25.8333 12.5053V27.5C25.8333 28.42 26.58 29.1667 27.5 29.1667H29.1667C30.0867 29.1667 30.8333 28.42 30.8333 27.5V12.5053C30.8333 11.5853 30.0867 10.8386 29.1667 10.8386Z" stroke="black" stroke-width="1.5" stroke-linecap="round" stroke-linejoin="round"/>
<path fill-rule="evenodd" clip-rule="evenodd" d="M20.8333 15.8333H19.1667C18.2467 15.8333 17.5 16.5704 17.5 17.4785V27.5214C17.5 28.4296 18.2467 29.1667 19.1667 29.1667H20.8333C21.7533 29.1667 22.5 28.4296 22.5 27.5214V17.4785C22.5 16.5704 21.7533 15.8333 20.8333 15.8333Z" stroke="black" stroke-width="1.5" stroke-linecap="round" stroke-linejoin="round"/>
<path fill-rule="evenodd" clip-rule="evenodd" d="M12.5 20.8333H10.8333C9.91332 20.8333 9.16666 21.5692 9.16666 22.4758V27.5241C9.16666 28.4308 9.91332 29.1667 10.8333 29.1667H12.5C13.42 29.1667 14.1667 28.4308 14.1667 27.5241V22.4758C14.1667 21.5692 13.42 20.8333 12.5 20.8333Z" stroke="black" stroke-width="1.5" stroke-linecap="round" stroke-linejoin="round"/>
</g>
<defs>
<clipPath id="clip0_595_1098">
<rect width="40" height="40" fill="white"/>
</clipPath>
</defs>
</svg>
