<svg width="40" height="40" viewBox="0 0 40 40" fill="none" xmlns="http://www.w3.org/2000/svg">
<g clip-path="url(#clip0_595_1100)">
<circle cx="20" cy="20" r="19.25" stroke="black" stroke-width="1.5"/>
<path d="M16.6674 15.9134H20.7098C20.7274 15.1996 21.056 13.0307 18.6877 13.0307C17.4634 13.0307 16.6714 13.768 16.6714 14.8045C16.6714 15.3775 16.6831 15.4499 16.6674 15.9134ZM16.6674 15.9134L16.6667 17.2124C16.6667 18.1941 17.2553 19.08 18.5832 19.08C19.8349 19.08 20.316 18.6556 20.7266 17.934M23.2493 14.7682H25.1248C26.2512 14.7682 27.9448 15.0752 27.9448 17.156C27.9448 18.3959 27.0882 19.0745 25.2851 19.0745H23.2493V10.8333H25.2636C27.233 10.8333 27.7238 11.6097 27.7238 12.6736C27.7238 14.3868 26.5504 14.7682 24.5733 14.7682M10.8333 27.2687C10.8333 27.2687 13.6083 24.5237 13.9283 24.232C14.2467 23.942 14.5667 23.447 16.34 23.4187C18.1133 23.3887 21.0783 23.3887 21.2817 23.4187C21.4833 23.447 22.6967 23.8503 22.3483 25.3337M15.7229 30.1635C15.7229 30.1635 16.308 29.4198 16.5997 29.1582C16.8913 28.8965 17.3113 28.4098 20.0013 28.4615C21.3963 28.4865 22.6013 28.3748 22.938 28.3748C23.2713 28.3748 24.263 27.8765 24.8247 27.4165C26.1397 26.3398 28.9663 23.8532 28.9663 23.8532C28.9663 23.8532 29.4163 23.2882 28.9663 22.7782C28.5163 22.2698 27.8763 22.5615 27.4113 22.8382C26.9463 23.1132 26.603 23.2848 26.0663 23.5832C23.608 24.9482 22.7897 25.4232 21.788 25.4382C20.7847 25.4532 19.118 25.4098 19.118 25.4098" stroke="black" stroke-width="1.5" stroke-linecap="round" stroke-linejoin="round"/>
</g>
<defs>
<clipPath id="clip0_595_1100">
<rect width="40" height="40" fill="white"/>
</clipPath>
</defs>
</svg>
