<svg xmlns="http://www.w3.org/2000/svg" viewBox="0 0 12192000 6858000" width="100%" height="100%" preserveAspectRatio="xMidYMid meet">
  <rect x="0" y="0" width="12192000" height="6858000" fill="#ffffff"/>
  <g id="connectors">
    <line x1="2786996.00" y1="3327790.00" x2="4318784.00" y2="3327790.00" stroke="#B1B8C9" stroke-width="12700" fill="none" stroke-linecap="round"/>
    <line x1="669387.00" y1="2208529.00" x2="669387.00" y2="2599121.00" stroke="#308FFF" stroke-width="12700" fill="none" stroke-linecap="round"/>
    <line x1="4031189.00" y1="3050029.00" x2="4189522.00" y2="3050029.00" stroke="#308FFF" stroke-width="12700" fill="none" stroke-linecap="round"/>
    <line x1="4341412.00" y1="2078854.00" x2="5012292.00" y2="2078854.00" stroke="#308FFF" stroke-width="12700" fill="none" stroke-linecap="round"/>
    <line x1="1493846.00" y1="2029870.00" x2="2184282.00" y2="2035810.00" stroke="#308FFF" stroke-width="12700" fill="none" stroke-linecap="round"/>
    <line x1="2258017.00" y1="1876631.00" x2="2258017.00" y2="1963496.00" stroke="#308FFF" stroke-width="12700" fill="none" stroke-linecap="round"/>
    <line x1="1494503.00" y1="3215395.00" x2="1903872.00" y2="3215395.00" stroke="#308FFF" stroke-width="12700" fill="none" stroke-linecap="round"/>
    <line x1="1004466.00" y1="4970913.00" x2="1927643.00" y2="4970913.00" stroke="#308FFF" stroke-width="12700" fill="none" stroke-linecap="round"/>
    <line x1="2786996.00" y1="4226030.00" x2="3160826.00" y2="4228718.00" stroke="#B1B8C9" stroke-width="12700" fill="none" stroke-linecap="round"/>
    <line x1="3073847.00" y1="4630479.00" x2="3073847.00" y2="4861577.00" stroke="#B1B8C9" stroke-width="12700" fill="none" stroke-linecap="round"/>
    <line x1="2514600.00" y1="4963214.00" x2="2992239.00" y2="4963214.00" stroke="#B1B8C9" stroke-width="12700" fill="none" stroke-linecap="round"/>
    <line x1="3591641.00" y1="4699296.00" x2="3591641.00" y2="6228827.00" stroke="#B1B8C9" stroke-width="12700" fill="none" stroke-linecap="round"/>
    <line x1="6074824.00" y1="4420092.00" x2="6807197.00" y2="4422486.00" stroke="#B1B8C9" stroke-width="12700" fill="none" stroke-linecap="round"/>
    <line x1="4529667.00" y1="3341994.00" x2="4926427.00" y2="3341996.00" stroke="#B1B8C9" stroke-width="12700" fill="none" stroke-linecap="round"/>
    <line x1="4022457.00" y1="4314116.00" x2="4318785.00" y2="4314116.00" stroke="#B1B8C9" stroke-width="12700" fill="none" stroke-linecap="round"/>
    <line x1="4537612.00" y1="4740244.00" x2="4824823.00" y2="4740244.00" stroke="#B1B8C9" stroke-width="12700" fill="none" stroke-linecap="round"/>
    <line x1="4537612.00" y1="2855274.00" x2="6813233.00" y2="2855274.00" stroke="#B1B8C9" stroke-width="12700" fill="none" stroke-linecap="round"/>
    <line x1="3364443.00" y1="5850429.00" x2="6139962.00" y2="5850429.00" stroke="#B1B8C9" stroke-width="12700" fill="none" stroke-linecap="round"/>
    <line x1="3304173.00" y1="4915283.00" x2="3304173.00" y2="5779997.00" stroke="#B1B8C9" stroke-width="12700" fill="none" stroke-linecap="round"/>
    <line x1="5692749.00" y1="3055552.00" x2="6356901.00" y2="3055552.00" stroke="#B1B8C9" stroke-width="12700" fill="none" stroke-linecap="round"/>
    <line x1="5586487.00" y1="1871076.00" x2="5586487.00" y2="2947853.00" stroke="#B1B8C9" stroke-width="12700" fill="none" stroke-linecap="round"/>
    <line x1="5253505.00" y1="1800651.00" x2="5493950.00" y2="1800651.00" stroke="#B1B8C9" stroke-width="12700" fill="none" stroke-linecap="round"/>
    <line x1="5400721.00" y1="1879455.00" x2="5400721.00" y2="2931881.00" stroke="#B3B3B3" stroke-width="12700" fill="none" stroke-linecap="round"/>
    <line x1="5219851.00" y1="4018763.00" x2="5219851.00" y2="4199319.00" stroke="#B1B8C9" stroke-width="12700" fill="none" stroke-linecap="round"/>
    <line x1="5460766.00" y1="3997498.00" x2="5460766.00" y2="4199319.00" stroke="#B1B8C9" stroke-width="12700" fill="none" stroke-linecap="round"/>
    <line x1="4022457.00" y1="3603790.00" x2="4936067.00" y2="3603790.00" stroke="#B1B8C9" stroke-width="12700" fill="none" stroke-linecap="round"/>
    <line x1="7671371.00" y1="3743511.00" x2="8131277.00" y2="3743511.00" stroke="#FA0F00" stroke-width="12700" fill="none" stroke-linecap="round"/>
    <line x1="7679267.00" y1="4540496.00" x2="8135205.00" y2="4540496.00" stroke="#FA0F00" stroke-width="12700" fill="none" stroke-linecap="round"/>
    <line x1="7230847.00" y1="2522921.00" x2="7230847.00" y2="2681106.00" stroke="#B1B8C9" stroke-width="12700" fill="none" stroke-linecap="round"/>
    <line x1="1004466.00" y1="3377620.00" x2="1920805.00" y2="3377620.00" stroke="#308FFF" stroke-width="12700" fill="none" stroke-linecap="round"/>
    <line x1="430045.00" y1="3943128.00" x2="908729.00" y2="3943128.00" stroke="#D0D4DD" stroke-width="3175" fill="none" stroke-linecap="round"/>
    <line x1="430045.00" y1="4654576.00" x2="908729.00" y2="4654576.00" stroke="#D0D4DD" stroke-width="3175" fill="none" stroke-linecap="round"/>
    <line x1="430045.00" y1="3219323.00" x2="908729.00" y2="3219323.00" stroke="#D0D4DD" stroke-width="3175" fill="none" stroke-linecap="round"/>
    <line x1="355601.00" y1="6137599.00" x2="626534.00" y2="6137599.00" stroke="#308FFF" stroke-width="12700" fill="none" stroke-linecap="round"/>
    <line x1="357970.00" y1="6270095.00" x2="635001.00" y2="6270095.00" stroke="#B1B8C9" stroke-width="12700" fill="none" stroke-linecap="round"/>
    <line x1="355601.00" y1="6398382.00" x2="626534.00" y2="6398382.00" stroke="#FA0F00" stroke-width="12700" fill="none" stroke-linecap="round"/>
    <line x1="7657031.00" y1="5234878.00" x2="8142094.00" y2="5236143.00" stroke="#FA0F00" stroke-width="12700" fill="none" stroke-linecap="round"/>
    <line x1="5969087.00" y1="3548569.00" x2="5969087.00" y2="4360188.00" stroke="#B1B8C9" stroke-width="12700" fill="none" stroke-linecap="round"/>
    <line x1="5782733.00" y1="3481709.00" x2="5884358.00" y2="3481709.00" stroke="#B1B8C9" stroke-width="12700" fill="none" stroke-linecap="round"/>
    <line x1="5260458.00" y1="1443323.00" x2="5260458.00" y2="1579229.00" stroke="#FF0000" stroke-width="12700" fill="none" stroke-linecap="round"/>
    <line x1="5334189.00" y1="1340695.00" x2="8634887.00" y2="1347635.00" stroke="#FA0F00" stroke-width="12700" fill="none" stroke-linecap="round"/>
    <line x1="1243975.00" y1="1823680.00" x2="1243976.00" y2="2684787.00" stroke="#308FFF" stroke-width="12700" fill="none" stroke-linecap="round"/>
    <line x1="1420111.00" y1="2109545.00" x2="1422913.00" y2="3119295.00" stroke="#308FFF" stroke-width="12700" fill="none" stroke-linecap="round"/>
    <line x1="7221460.00" y1="1873443.00" x2="7221460.00" y2="2148357.00" stroke="#B1B8C9" stroke-width="12700" fill="none" stroke-linecap="round"/>
    <line x1="3499229.00" y1="1887133.00" x2="3499234.00" y2="2926382.00" stroke="#B1B8C9" stroke-width="12700" fill="none" stroke-linecap="round"/>
    <line x1="3583172.00" y1="3000130.00" x2="4305782.00" y2="3000130.00" stroke="#B1B8C9" stroke-width="12700" fill="none" stroke-linecap="round"/>
    <line x1="5788059.00" y1="3335270.00" x2="6783572.00" y2="3341994.00" stroke="#B1B8C9" stroke-width="12700" fill="none" stroke-linecap="round"/>
    <line x1="3304173.00" y1="4915283.00" x2="3304173.00" y2="5779997.00" stroke="#B1B8C9" stroke-width="12700" fill="none" stroke-linecap="round"/>
    <line x1="7662333.00" y1="5951925.00" x2="8142093.00" y2="5951925.00" stroke="#FA0F00" stroke-width="12700" fill="none" stroke-linecap="round"/>
    <line x1="438511.00" y1="5323445.00" x2="917195.00" y2="5323445.00" stroke="#D0D4DD" stroke-width="3175" fill="none" stroke-linecap="round"/>
    <line x1="2796196.00" y1="5254799.00" x2="4872691.00" y2="5263144.00" stroke="#B1B8C9" stroke-width="12700" fill="none" stroke-linecap="round"/>
    <line x1="529717.00" y1="4554535.00" x2="529717.00" y2="4703120.00" stroke="#B1B8C9" stroke-width="12700" fill="none" stroke-linecap="round"/>
    <line x1="-702494.00" y1="4821517.00" x2="434564.00" y2="4821517.00" stroke="#B1B8C9" stroke-width="12700" fill="none" stroke-linecap="round"/>
    <line x1="8708622.00" y1="1425063.00" x2="8708783.00" y2="2117434.00" stroke="#FF0000" stroke-width="12700" fill="none" stroke-linecap="round"/>
    <line x1="3778320.00" y1="5954036.00" x2="6790263.00" y2="5960390.00" stroke="#B1B8C9" stroke-width="12700" fill="none" stroke-linecap="round"/>
  </g>
  <g id="boxes">
    <rect x="9719945.00" y="0.00" width="2468880.00" height="6467707.00" fill="none" stroke="#bbbbbb" stroke-width="9525" opacity="0.95"/>
    <rect x="9923788.00" y="321411.00" width="91440.00" height="91440.00" fill="#DADDE0" stroke="#cccccc" stroke-width="9525" opacity="0.95"/>
    <rect x="10175485.00" y="321411.00" width="91440.00" height="91440.00" fill="#DADDE0" stroke="#cccccc" stroke-width="9525" opacity="0.95"/>
    <rect x="10427182.00" y="321411.00" width="91440.00" height="91440.00" fill="#DADDE0" stroke="#cccccc" stroke-width="9525" opacity="0.95"/>
    <rect x="10678879.00" y="321411.00" width="91440.00" height="91440.00" fill="#DADDE0" stroke="#cccccc" stroke-width="9525" opacity="0.95"/>
    <rect x="10930576.00" y="321411.00" width="91440.00" height="91440.00" fill="#DADDE0" stroke="#cccccc" stroke-width="9525" opacity="0.95"/>
    <rect x="11182275.00" y="321411.00" width="91440.00" height="91440.00" fill="#DADDE0" stroke="#cccccc" stroke-width="9525" opacity="0.95"/>
    <rect x="11433974.00" y="321411.00" width="91440.00" height="91440.00" fill="#DADDE0" stroke="#cccccc" stroke-width="9525" opacity="0.95"/>
    <rect x="11685673.00" y="321411.00" width="91440.00" height="91440.00" fill="#DADDE0" stroke="#cccccc" stroke-width="9525" opacity="0.95"/>
    <rect x="8135204.00" y="2117434.00" width="1147158.00" height="968415.00" fill="#DADDE0" stroke="#cccccc" stroke-width="9525" opacity="0.95"/>
    <rect x="8138160.00" y="3146816.00" width="1147158.00" height="1053105.00" fill="#DADDE0" stroke="#cccccc" stroke-width="9525" opacity="0.95"/>
    <rect x="1461094.00" y="2120497.00" width="5849119.00" height="3998426.00" fill="#2C2C2C" stroke="#cccccc" stroke-width="9525" opacity="0.95"/>
    <rect x="1625876.00" y="2536772.00" width="95737.00" height="2872105.00" fill="#969696" stroke="#cccccc" stroke-width="9525" opacity="0.95"/>
    <rect x="4119097.00" y="2909178.00" width="140851.00" height="140851.00" fill="#308FFF" stroke="#cccccc" stroke-width="9525" opacity="0.95"/>
    <rect x="4260506.00" y="2086718.00" width="139738.00" height="140851.00" fill="#308FFF" stroke="#cccccc" stroke-width="9525" opacity="0.95"/>
    <rect x="2110547.00" y="1882400.00" width="147470.00" height="147470.00" fill="#308FFF" stroke="#cccccc" stroke-width="9525" opacity="0.95"/>
    <rect x="1420153.00" y="3065544.00" width="147470.00" height="147470.00" fill="#308FFF" stroke="#cccccc" stroke-width="9525" opacity="0.95"/>
    <rect x="1420111.00" y="2035810.00" width="147470.00" height="147470.00" fill="#308FFF" stroke="#cccccc" stroke-width="9525" opacity="0.95"/>
    <rect x="2932996.00" y="4815920.00" width="140851.00" height="140851.00" fill="#B1B8C9" stroke="#cccccc" stroke-width="9525" opacity="0.95"/>
    <rect x="3304172.00" y="5709571.00" width="140851.00" height="140851.00" fill="#B1B8C9" stroke="#cccccc" stroke-width="9525" opacity="0.95"/>
    <rect x="5596085.00" y="2909695.00" width="140851.00" height="140851.00" fill="#B1B8C9" stroke="#cccccc" stroke-width="9525" opacity="0.95"/>
    <rect x="5445637.00" y="1800660.00" width="140851.00" height="140851.00" fill="#B1B8C9" stroke="#cccccc" stroke-width="9525" opacity="0.95"/>
    <rect x="163286.00" y="966653.00" width="8693591.00" height="296092.00" fill="#DADDE0" stroke="#cccccc" stroke-width="9525" opacity="0.95"/>
    <rect x="266267.00" y="1049472.00" width="822960.00" height="137160.00" fill="none" stroke="#bbbbbb" stroke-width="9525" opacity="0.95"/>
    <rect x="2827942.00" y="1049472.00" width="1463040.00" height="137160.00" fill="none" stroke="#bbbbbb" stroke-width="9525" opacity="0.95"/>
    <rect x="6071602.00" y="1049472.00" width="1463040.00" height="137160.00" fill="none" stroke="#bbbbbb" stroke-width="9525" opacity="0.95"/>
    <rect x="7576954.00" y="1049472.00" width="1097280.00" height="137160.00" fill="none" stroke="#bbbbbb" stroke-width="9525" opacity="0.95"/>
    <rect x="4318785.00" y="2737358.00" width="218827.00" height="2489158.00" fill="#595959" stroke="#cccccc" stroke-width="9525" opacity="0.95"/>
    <rect x="4824822.00" y="4207787.00" width="1025645.00" height="1236133.00" fill="#2C2C2C" stroke="#cccccc" stroke-width="9525" opacity="0.95"/>
    <rect x="4517571.00" y="3639112.00" width="731520.00" height="320040.00" fill="#969696" stroke="#cccccc" stroke-width="9525" opacity="0.95"/>
    <rect x="4471851.00" y="2917738.00" width="822960.00" height="822960.00" fill="#2C2C2C" stroke="#cccccc" stroke-width="9525" opacity="0.95"/>
    <rect x="4782659.00" y="2995695.00" width="228600.00" height="228600.00" fill="#E5EAF5" stroke="#cccccc" stroke-width="9525" opacity="0.95"/>
    <rect x="2882537.00" y="3415968.00" width="822960.00" height="1182157.00" fill="#2C2C2C" stroke="#cccccc" stroke-width="9525" opacity="0.95"/>
    <rect x="2928257.00" y="3791715.00" width="731520.00" height="765211.00" fill="#FFFFFF" stroke="#cccccc" stroke-width="9525" opacity="0.95"/>
    <rect x="1925364.00" y="3105128.00" width="861632.00" height="478684.00" fill="#2C2C2C" stroke="#cccccc" stroke-width="9525" opacity="0.95"/>
    <rect x="1925364.00" y="3718690.00" width="861632.00" height="1014680.00" fill="#2C2C2C" stroke="#cccccc" stroke-width="9525" opacity="0.95"/>
    <rect x="1973232.00" y="4250318.00" width="765895.00" height="434224.00" fill="#FFFFFF" stroke="#cccccc" stroke-width="9525" opacity="0.95"/>
    <rect x="1927644.00" y="4833181.00" width="857072.00" height="478684.00" fill="#2C2C2C" stroke="#cccccc" stroke-width="9525" opacity="0.95"/>
    <rect x="334308.00" y="2599122.00" width="670158.00" height="3242734.00" fill="#DADDE0" stroke="#cccccc" stroke-width="9525" opacity="0.95"/>
    <rect x="274319.00" y="2809885.00" width="457200.00" height="137160.00" fill="none" stroke="#bbbbbb" stroke-width="9525" opacity="0.95"/>
    <rect x="274319.00" y="5409843.00" width="457200.00" height="274320.00" fill="none" stroke="#bbbbbb" stroke-width="9525" opacity="0.95"/>
    <rect x="2023205.00" y="1588520.00" width="3638000.00" height="287210.00" fill="#2C2C2C" stroke="#cccccc" stroke-width="9525" opacity="0.95"/>
    <rect x="7185834.00" y="2544190.00" width="287211.00" height="95737.00" fill="none" stroke="#bbbbbb" stroke-width="9525" opacity="0.95"/>
    <rect x="6753409.00" y="1538364.00" width="957368.00" height="335079.00" fill="#FFFFFF" stroke="#cccccc" stroke-width="9525" opacity="0.95"/>
    <rect x="6801277.00" y="2148357.00" width="861632.00" height="347952.00" fill="#6A727A" stroke="#cccccc" stroke-width="9525" opacity="0.95"/>
    <rect x="6040403.00" y="5134249.00" width="822960.00" height="731520.00" fill="#2E3B5B" stroke="#cccccc" stroke-width="9525" opacity="0.95"/>
    <rect x="8230096.00" y="2602020.00" width="478684.00" height="143605.00" fill="none" stroke="#bbbbbb" stroke-width="9525" opacity="0.95"/>
    <rect x="8708780.00" y="2602020.00" width="478684.00" height="143605.00" fill="none" stroke="#bbbbbb" stroke-width="9525" opacity="0.95"/>
    <rect x="8248758.00" y="4007192.00" width="478684.00" height="143605.00" fill="none" stroke="#bbbbbb" stroke-width="9525" opacity="0.95"/>
    <rect x="8727442.00" y="4007192.00" width="478684.00" height="143605.00" fill="none" stroke="#bbbbbb" stroke-width="9525" opacity="0.95"/>
    <rect x="8248758.00" y="3618558.00" width="478684.00" height="143605.00" fill="none" stroke="#bbbbbb" stroke-width="9525" opacity="0.95"/>
    <rect x="8727442.00" y="3618558.00" width="478684.00" height="143605.00" fill="none" stroke="#bbbbbb" stroke-width="9525" opacity="0.95"/>
    <rect x="8135205.00" y="4308658.00" width="1147158.00" height="463676.00" fill="#DADDE0" stroke="#cccccc" stroke-width="9525" opacity="0.95"/>
    <rect x="182879.00" y="1654629.00" width="640080.00" height="592182.00" fill="#2C2C2C" stroke="#cccccc" stroke-width="9525" opacity="0.95"/>
    <rect x="1067715.00" y="4967028.00" width="478684.00" height="239342.00" fill="none" stroke="#bbbbbb" stroke-width="9525" opacity="0.95"/>
    <rect x="1067715.00" y="3363850.00" width="478684.00" height="239342.00" fill="none" stroke="#bbbbbb" stroke-width="9525" opacity="0.95"/>
    <rect x="3337929.00" y="6332521.00" width="574421.00" height="95737.00" fill="none" stroke="#bbbbbb" stroke-width="9525" opacity="0.95"/>
    <rect x="6266817.00" y="3120826.00" width="382947.00" height="239342.00" fill="none" stroke="#bbbbbb" stroke-width="9525" opacity="0.95"/>
    <rect x="5147069.00" y="5506339.00" width="382947.00" height="167038.00" fill="none" stroke="#bbbbbb" stroke-width="9525" opacity="0.95"/>
    <rect x="4995661.00" y="2748099.00" width="382947.00" height="95737.00" fill="none" stroke="#bbbbbb" stroke-width="9525" opacity="0.95"/>
    <rect x="6227150.00" y="4190855.00" width="382947.00" height="239342.00" fill="none" stroke="#bbbbbb" stroke-width="9525" opacity="0.95"/>
    <rect x="4899528.00" y="4054087.00" width="287211.00" height="95737.00" fill="none" stroke="#bbbbbb" stroke-width="9525" opacity="0.95"/>
    <rect x="5499987.00" y="3999219.00" width="382947.00" height="239342.00" fill="none" stroke="#bbbbbb" stroke-width="9525" opacity="0.95"/>
    <rect x="1262781.00" y="3978828.00" width="574421.00" height="95737.00" fill="none" stroke="#bbbbbb" stroke-width="9525" opacity="0.95"/>
    <rect x="1830465.00" y="3533185.00" width="457200.00" height="274320.00" fill="none" stroke="#bbbbbb" stroke-width="9525" opacity="0.95"/>
    <rect x="1830465.00" y="4756989.00" width="457200.00" height="274320.00" fill="none" stroke="#bbbbbb" stroke-width="9525" opacity="0.95"/>
    <rect x="1799816.00" y="5752504.00" width="622289.00" height="191474.00" fill="#B3B3B3" stroke="#cccccc" stroke-width="9525" opacity="0.95"/>
    <rect x="3076310.00" y="6228827.00" width="1053105.00" height="95737.00" fill="#969696" stroke="#cccccc" stroke-width="9525" opacity="0.95"/>
    <rect x="1973232.00" y="3782487.00" width="765895.00" height="413569.00" fill="#FFFFFF" stroke="#cccccc" stroke-width="9525" opacity="0.95"/>
    <rect x="4864224.00" y="4269939.00" width="935442.00" height="259582.00" fill="#FFFFFF" stroke="#cccccc" stroke-width="9525" opacity="0.95"/>
    <rect x="2459422.00" y="5752504.00" width="622289.00" height="191474.00" fill="#B3B3B3" stroke="#cccccc" stroke-width="9525" opacity="0.95"/>
    <rect x="1799816.00" y="5966816.00" width="622289.00" height="191474.00" fill="#B3B3B3" stroke="#cccccc" stroke-width="9525" opacity="0.95"/>
    <rect x="2459422.00" y="5966816.00" width="622289.00" height="191474.00" fill="#B3B3B3" stroke="#cccccc" stroke-width="9525" opacity="0.95"/>
    <rect x="4864224.00" y="4562833.00" width="935441.00" height="256032.00" fill="#FFFFFF" stroke="#cccccc" stroke-width="9525" opacity="0.95"/>
    <rect x="4864224.00" y="4847260.00" width="935442.00" height="256032.00" fill="#FFFFFF" stroke="#cccccc" stroke-width="9525" opacity="0.95"/>
    <rect x="6052915.00" y="2554077.00" width="822960.00" height="1255992.00" fill="#2E3B5B" stroke="#cccccc" stroke-width="9525" opacity="0.95"/>
    <rect x="6850333.00" y="2736375.00" width="777962.00" height="177617.00" fill="#FFFFFF" stroke="#cccccc" stroke-width="9525" opacity="0.95"/>
    <rect x="6850333.00" y="2959022.00" width="777962.00" height="177617.00" fill="#FFFFFF" stroke="#cccccc" stroke-width="9525" opacity="0.95"/>
    <rect x="6850333.00" y="3181669.00" width="777962.00" height="177617.00" fill="#FFFFFF" stroke="#cccccc" stroke-width="9525" opacity="0.95"/>
    <rect x="6019327.00" y="4282594.00" width="827757.00" height="640080.00" fill="#2E3B5B" stroke="#cccccc" stroke-width="9525" opacity="0.95"/>
    <rect x="1698332.00" y="2199185.00" width="6123974.00" height="4060349.00" fill="none" stroke="#bbbbbb" stroke-width="9525" opacity="0.95"/>
    <rect x="693582.00" y="6097047.00" width="738372.00" height="72643.00" fill="none" stroke="#bbbbbb" stroke-width="9525" opacity="0.95"/>
    <rect x="697133.00" y="6219953.00" width="970794.00" height="64176.00" fill="none" stroke="#bbbbbb" stroke-width="9525" opacity="0.95"/>
    <rect x="695768.00" y="6347772.00" width="738372.00" height="72643.00" fill="none" stroke="#bbbbbb" stroke-width="9525" opacity="0.95"/>
    <rect x="348091.00" y="5969230.00" width="733460.00" height="87936.00" fill="none" stroke="#bbbbbb" stroke-width="9525" opacity="0.95"/>
    <rect x="8507768.00" y="2780865.00" width="457200.00" height="137160.00" fill="none" stroke="#bbbbbb" stroke-width="9525" opacity="0.95"/>
    <rect x="8490050.00" y="2901375.00" width="457200.00" height="137160.00" fill="none" stroke="#bbbbbb" stroke-width="9525" opacity="0.95"/>
    <rect x="8142094.00" y="5003040.00" width="1147158.00" height="463676.00" fill="#DADDE0" stroke="#cccccc" stroke-width="9525" opacity="0.95"/>
    <rect x="5969087.00" y="4268025.00" width="147470.00" height="147470.00" fill="#B1B8C9" stroke="#cccccc" stroke-width="9525" opacity="0.95"/>
    <rect x="5810623.00" y="3481709.00" width="147470.00" height="147470.00" fill="#B1B8C9" stroke="#cccccc" stroke-width="9525" opacity="0.95"/>
    <rect x="5260454.00" y="1358268.00" width="147470.00" height="147470.00" fill="#FF0000" stroke="#cccccc" stroke-width="9525" opacity="0.95"/>
    <rect x="8561152.00" y="1351328.00" width="147470.00" height="147470.00" fill="#FF0000" stroke="#cccccc" stroke-width="9525" opacity="0.95"/>
    <rect x="3499234.00" y="2852647.00" width="147470.00" height="147470.00" fill="#B1B8C9" stroke="#cccccc" stroke-width="9525" opacity="0.95"/>
    <rect x="6019327.00" y="4282594.00" width="827757.00" height="481165.00" fill="#2E3B5B" stroke="#cccccc" stroke-width="9525" opacity="0.95"/>
    <rect x="4872691.00" y="5135128.00" width="935442.00" height="256032.00" fill="#FFFFFF" stroke="#cccccc" stroke-width="9525" opacity="0.95"/>
    <rect x="3304172.00" y="5709571.00" width="140851.00" height="140851.00" fill="#B1B8C9" stroke="#cccccc" stroke-width="9525" opacity="0.95"/>
    <rect x="5138592.00" y="5938139.00" width="382947.00" height="167038.00" fill="none" stroke="#bbbbbb" stroke-width="9525" opacity="0.95"/>
    <rect x="8142093.00" y="5697925.00" width="1147158.00" height="508000.00" fill="#DADDE0" stroke="#cccccc" stroke-width="9525" opacity="0.95"/>
    <rect x="430045.00" y="5424987.00" width="478684.00" height="287210.00" fill="none" stroke="#bbbbbb" stroke-width="9525" opacity="0.95"/>
    <rect x="379368.00" y="4674223.00" width="140851.00" height="140851.00" fill="#B1B8C9" stroke="#cccccc" stroke-width="9525" opacity="0.95"/>
  </g>
  <g id="labels" font-family="system-ui,Segoe UI,Arial,sans-serif" fill="#111111">
    <text x="9843389.00" y="264000.00" font-size="220000">Adobe Experience Platform is a powerful, flexible, open, and centralized data foundation that collects, standardizes, governs, applies AI insights to, and unifies data to offer thoughtful and relevant</text>
    <text x="8192561.90" y="2375678.00" font-size="215203">Inbound Experiences</text>
    <text x="8195517.90" y="3410816.00" font-size="220000">Message Delivery</text>
    <text x="1753549.95" y="2384497.00" font-size="220000">Adobe Experience Platform</text>
    <text x="307415.00" y="1145472.00" font-size="80000">DATA COLLECTION</text>
    <text x="2901094.00" y="1145472.00" font-size="80000">PROFILE &amp; DATA MANGEMENT</text>
    <text x="6144754.00" y="1145472.00" font-size="80000">EXPERIENCE DECISIONING</text>
    <text x="7631818.00" y="1145472.00" font-size="80000">CUSTOMER ENGAGEMENT</text>
    <text x="4329726.35" y="3001358.00" font-size="220000">Pipeline</text>
    <text x="4554147.00" y="3735112.00" font-size="80000">Identity Graph</text>
    <text x="4512999.00" y="3137194.00" font-size="182880">Real-Time Customer Profile</text>
    <text x="2923685.00" y="3679968.00" font-size="220000">Data Lake (Raw Profile Data)</text>
    <text x="2964833.00" y="3995771.27" font-size="170047">Data Governance</text>
    <text x="1968445.60" y="3232777.07" font-size="106374">Streaming Data Collection</text>
    <text x="2011526.75" y="4366111.07" font-size="96494">Intelligence &amp; AI</text>
    <text x="1970497.60" y="4960830.07" font-size="106374">Batch Data Collection</text>
    <text x="297179.00" y="2905885.00" font-size="80000">SDK</text>
    <text x="297179.00" y="5505843.00" font-size="80000">ETL Ecosystem</text>
    <text x="2205105.00" y="1684520.00" font-size="80000">Edge Network &amp; Edge Profile</text>
    <text x="7200194.55" y="2640190.00" font-size="80000">Content</text>
    <text x="6801277.40" y="1634364.00" font-size="80000">Creative Cloud</text>
    <text x="6844358.60" y="2244357.00" font-size="80000">AEM Assets Essentials</text>
    <text x="6081551.00" y="5329321.00" font-size="162560">Customer Journey Analytics</text>
    <text x="8254030.20" y="2698020.00" font-size="80000">Desktop</text>
    <text x="8732714.20" y="2698020.00" font-size="80000">Mobile</text>
    <text x="8272692.20" y="4103192.00" font-size="80000">SMS</text>
    <text x="8751376.20" y="4103192.00" font-size="80000">Direct Mail</text>
    <text x="8272692.20" y="3714558.00" font-size="80000">Email</text>
    <text x="8751376.20" y="3714558.00" font-size="80000">Mobile</text>
    <text x="8192562.90" y="4432304.93" font-size="103039">Paid Media Display         Social</text>
    <text x="214883.00" y="1812544.20" font-size="131596">Tags (Client Side)</text>
    <text x="1091649.20" y="5063028.00" font-size="80000">Batch Data (API, Connectors)</text>
    <text x="1091649.20" y="3459850.00" font-size="80000">Streaming Data (SDK, API)</text>
    <text x="3366650.05" y="6428521.00" font-size="80000">Gateway / Adobe I/O</text>
    <text x="6285964.35" y="3216826.00" font-size="80000">Profile Lookup</text>
    <text x="5166216.35" y="5602339.00" font-size="80000">Raw Data</text>
    <text x="5014808.35" y="2844099.00" font-size="80000">Events</text>
    <text x="6246297.35" y="4286855.00" font-size="80000">Profile Activation</text>
    <text x="4913888.55" y="4150087.00" font-size="80000">Profiles</text>
    <text x="5519134.35" y="4095219.00" font-size="80000">Audience Membership</text>
    <text x="1291502.05" y="4074828.00" font-size="80000">Gateway / Adobe I/O</text>
    <text x="1853325.00" y="3629185.00" font-size="80000">Cloud Apps/ 3 rd  Party</text>
    <text x="1853325.00" y="4852989.00" font-size="80000">Enterprise Sources</text>
    <text x="1830930.45" y="5848504.00" font-size="80000">Audit Logs</text>
    <text x="2011526.75" y="3892772.07" font-size="91904">Query Service</text>
    <text x="4910996.10" y="4365939.00" font-size="80000">Streaming Segmentation</text>
    <text x="2490536.45" y="5848504.00" font-size="80000">Alerts</text>
    <text x="1830930.45" y="6062816.00" font-size="80000">Access   Controls</text>
    <text x="2490536.45" y="6062816.00" font-size="80000">Sandboxing</text>
    <text x="4910996.05" y="4658833.00" font-size="80000">Batch Segmentation</text>
    <text x="4910996.10" y="4943260.00" font-size="80000">Audience Composition</text>
    <text x="6094063.00" y="2818077.00" font-size="220000">Journey Optimizer</text>
    <text x="6889231.10" y="2832375.00" font-size="80000">Journeys</text>
    <text x="6889231.10" y="3055022.00" font-size="80000">Decision   Mgt .</text>
    <text x="6889231.10" y="3277669.00" font-size="80000">Message   Exec .</text>
    <text x="6060714.85" y="4453282.00" font-size="142240">Real-Time  CDP</text>
    <text x="730500.60" y="6193047.00" font-size="80000">Ingress Data Flow</text>
    <text x="745672.70" y="6315953.00" font-size="80000">Intra System Data Flow</text>
    <text x="732686.60" y="6443772.00" font-size="80000">Egress Data Flow</text>
    <text x="384764.00" y="6065230.00" font-size="80000">Diagram Key</text>
    <text x="8530628.00" y="2876865.00" font-size="80000">Code-based</text>
    <text x="8512910.00" y="2997375.00" font-size="80000">&lt;/&gt;</text>
    <text x="8199451.90" y="5126686.93" font-size="103039">Journey Reporting Dashboards         Analysis</text>
    <text x="6060714.85" y="4410904.67" font-size="106926">Mix Modeler</text>
    <text x="4919463.10" y="5231128.00" font-size="80000">Federated Audience Composition</text>
    <text x="5157739.35" y="6034139.00" font-size="80000">Raw Data</text>
    <text x="8199450.90" y="5833391.67" font-size="112889">Marketing Performance Reporting Dashboards         Analysis</text>
    <text x="453979.20" y="5520987.00" font-size="80000">External Data Warehouse</text>
  </g>
</svg>
