<?xml version="1.0" encoding="UTF-8"?>
<svg width="168px" height="12px" viewBox="0 0 168 12" version="1.1" xmlns="http://www.w3.org/2000/svg" xmlns:xlink="http://www.w3.org/1999/xlink">
    <title>DISCOVERY_Slate_Blue_RGB</title>
    <g id="Symbols-" stroke="none" stroke-width="1" fill="none" fill-rule="evenodd">
        <g id="DISCOVERY_Slate_Blue_RGB" fill="#FFFFFF">
            <path d="M23.6262774,11.755102 L20.070073,11.755102 L20.070073,0.244897959 L23.6262774,0.244897959 L23.6262774,11.755102 L23.6262774,11.755102 Z M64.7474453,7.95918367 C64.7474453,8.28571429 64.7065693,8.6122449 64.6656934,8.7755102 C64.5021898,10.4897959 63.1941606,11.9183673 61.4364964,11.9183673 L56.1635036,11.9591837 L50.8905109,11.9183673 C49.1328467,11.9183673 47.7839416,10.4897959 47.6613139,8.7755102 C47.5386861,6.89795918 47.4978102,5.10204082 47.6613139,3.2244898 C47.8248175,1.51020408 49.0919708,0.0816326531 50.8905109,0.0816326531 L56.2043796,0 L61.4773723,0.0408163265 C63.2350365,0.0408163265 64.5839416,1.46938776 64.7065693,3.18367347 L64.7474453,3.95918367 L64.7474453,3.95918367 L61.5591241,3.95918367 L61.5591241,3.95918367 L61.5591241,3.83673469 C61.5591241,3.2244898 61.1094891,2.73469388 60.5372263,2.73469388 L56.1635036,2.73469388 L56.1226277,2.73469388 L51.8715328,2.73469388 C51.2992701,2.73469388 50.849635,3.2244898 50.849635,3.83673469 L50.849635,8.16326531 C50.849635,8.7755102 51.2992701,9.26530612 51.8715328,9.26530612 L56.1226277,9.26530612 L56.1226277,9.26530612 L60.4963504,9.26530612 C61.0686131,9.26530612 61.5182482,8.7755102 61.5182482,8.16326531 L61.5182482,7.95918367 L64.7474453,7.95918367 L64.7474453,7.95918367 Z M27.4277372,7.95918367 L31.3518248,7.95918367 L31.3518248,8.16326531 C31.3518248,8.6122449 31.4744526,8.89795918 31.719708,9.06122449 C32.0058394,9.26530612 32.4963504,9.34693878 33.2729927,9.34693878 L38.8321168,9.34693878 C39.3226277,9.34693878 39.6905109,9.26530612 39.8948905,9.10204082 C40.0992701,8.93877551 40.2218978,8.69387755 40.2218978,8.36734694 C40.2218978,8 40.0992701,7.75510204 39.8540146,7.63265306 C39.6087591,7.46938776 39.0773723,7.34693878 38.259854,7.34693878 L31.5562044,7.18367347 C29.9620438,7.14285714 28.8583942,6.85714286 28.3270073,6.36734694 C27.7547445,5.87755102 27.4686131,4.97959184 27.4686131,3.67346939 C27.4686131,3.02040816 27.550365,2.44897959 27.6729927,2 C27.8364964,1.55102041 28.0408759,1.2244898 28.4087591,0.93877551 C28.7766423,0.612244898 29.3080292,0.367346939 29.9211679,0.244897959 C30.5343066,0.12244898 31.5562044,0.0408163265 32.9868613,0.0408163265 L39.2,0.0408163265 C40.7532847,0.0408163265 41.8569343,0.285714286 42.5109489,0.775510204 C43.2058394,1.26530612 43.5328467,2.08163265 43.5328467,3.18367347 C43.5328467,3.26530612 43.5328467,3.34693878 43.5328467,3.42857143 C43.5328467,3.51020408 43.5328467,3.63265306 43.5328467,3.83673469 L39.6905109,3.79591837 L39.6905109,3.71428571 C39.6905109,3.34693878 39.5678832,3.02040816 39.3635036,2.85714286 C39.1591241,2.65306122 38.7912409,2.57142857 38.3416058,2.57142857 L33.2729927,2.57142857 C32.4963504,2.57142857 31.9649635,2.65306122 31.719708,2.7755102 C31.4744526,2.89795918 31.3518248,3.14285714 31.3518248,3.51020408 C31.3518248,3.83673469 31.4744526,4.08163265 31.6788321,4.24489796 C31.9240876,4.40816327 32.3328467,4.53061224 32.9459854,4.53061224 L39.8948905,4.65306122 C41.4072993,4.69387755 42.5109489,4.97959184 43.1649635,5.55102041 C43.7781022,6.12244898 44.1051095,7.06122449 44.1051095,8.44897959 C44.1051095,9.26530612 43.9824818,9.87755102 43.7781022,10.3265306 C43.5328467,10.7755102 43.1649635,11.1428571 42.6335766,11.4693878 C42.2656934,11.6734694 41.7751825,11.7959184 41.1620438,11.877551 C40.5489051,11.9591837 39.649635,12 38.5051095,12 L33.0277372,12 C30.820438,12 29.3080292,11.7959184 28.5722628,11.3469388 C27.9182482,10.9795918 27.5912409,10.3265306 27.4686131,9.42857143 C27.4277372,9.10204082 27.4277372,8.7755102 27.4277372,8.44897959 C27.4277372,8.24489796 27.4277372,8.08163265 27.4277372,7.95918367 L27.4277372,7.95918367 Z M97.4890511,9.02040816 L103.661314,0.204081633 L107.708029,0.204081633 L99.4510949,11.7142857 L97.4481752,11.7142857 L97.4481752,11.7142857 L95.4452555,11.7142857 L87.270073,0.244897959 L91.3167883,0.244897959 L97.4890511,9.02040816 L97.4890511,9.02040816 Z M110.487591,11.755102 L125.856934,11.755102 L125.856934,9.06122449 L113.757664,9.06122449 L113.757664,7.2244898 L124.221898,7.2244898 L124.221898,4.7755102 L113.757664,4.7755102 L113.757664,2.89795918 L125.856934,2.89795918 L125.856934,0.204081633 L110.487591,0.204081633 L110.487591,11.755102 L110.487591,11.755102 Z M129.372263,11.755102 L132.683212,11.755102 L132.683212,7.71428571 L139.672993,7.71428571 L139.672993,7.75510204 L143.065693,11.755102 L147.439416,11.755102 L143.924088,7.55102041 C145.477372,7.10204082 146.621898,5.63265306 146.621898,3.95918367 C146.621898,1.87755102 144.945985,0.204081633 142.861314,0.204081633 C138.364964,0.204081633 133.868613,0.204081633 129.372263,0.204081633 L129.372263,11.755102 L129.372263,11.755102 Z M142.00292,2.89795918 C142.043796,2.89795918 142.043796,2.89795918 142.084672,2.89795918 C142.656934,2.89795918 143.106569,3.34693878 143.106569,3.95918367 C143.106569,4.53061224 142.656934,5.02040816 142.084672,5.02040816 C142.084672,5.02040816 142.043796,5.02040816 142.043796,5.02040816 C142.043796,5.02040816 142.00292,5.02040816 142.00292,5.02040816 L132.683212,5.02040816 L132.683212,2.89795918 L142.00292,2.89795918 C142.00292,2.89795918 142.00292,2.89795918 142.00292,2.89795918 L142.00292,2.89795918 Z M156.472993,11.755102 L157.781022,11.755102 L157.781022,11.755102 L158.516788,11.755102 L158.516788,11.755102 L159.824818,11.755102 L159.824818,7.55102041 L168,0.204081633 L163.29927,0.204081633 L158.189781,4.7755102 L153.039416,0.204081633 L148.338686,0.204081633 L156.513869,7.55102041 L156.472993,11.755102 L156.472993,11.755102 Z M72.5547445,2.73469388 L76.8058394,2.73469388 L76.8467153,2.73469388 L81.220438,2.73469388 C81.7927007,2.73469388 82.2423358,3.2244898 82.2423358,3.83673469 L82.2423358,8.16326531 C82.2423358,8.7755102 81.7927007,9.26530612 81.220438,9.26530612 L76.8467153,9.26530612 L76.8467153,9.26530612 L72.5956204,9.26530612 C72.0233577,9.26530612 71.5737226,8.7755102 71.5737226,8.16326531 L71.5737226,3.79591837 C71.5328467,3.2244898 71.9824818,2.73469388 72.5547445,2.73469388 L72.5547445,2.73469388 Z M71.6145985,0.0408163265 C69.8569343,0.0816326531 68.5489051,1.46938776 68.3854015,3.18367347 C68.3036496,4.12244898 68.2218978,5.02040816 68.2218978,5.95918367 C68.2218978,6.89795918 68.3036496,7.83673469 68.3854015,8.73469388 C68.5080292,10.4489796 69.8160584,11.8367347 71.6145985,11.877551 C75.129927,11.9591837 78.6452555,11.9591837 82.119708,11.877551 C83.8773723,11.8367347 85.1854015,10.4489796 85.3489051,8.73469388 C85.4306569,7.79591837 85.5124088,6.89795918 85.5124088,5.95918367 C85.5124088,5.02040816 85.4306569,4.12244898 85.3489051,3.18367347 C85.2262774,1.46938776 83.9182482,0.0816326531 82.119708,0.0408163265 C78.6043796,1.11473331e-13 75.129927,1.11473331e-13 71.6145985,0.0408163265 L71.6145985,0.0408163265 Z M3.35182482,5.95918367 L3.35182482,5.95918367 L3.35182482,9.02040816 C5.64087591,9.02040816 7.97080292,9.02040816 10.259854,9.02040816 C11.1182482,9.02040816 11.7722628,8.85714286 12.140146,8.53061224 C12.5489051,8.20408163 12.7532847,7.71428571 12.7532847,7.02040816 C12.7532847,6.65306122 12.7532847,6.28571429 12.7532847,5.95918367 C12.7532847,5.95918367 12.7532847,5.95918367 12.7532847,5.95918367 C12.7532847,5.95918367 12.7532847,5.95918367 12.7532847,5.95918367 C12.7532847,5.95918367 12.7532847,5.95918367 12.7532847,5.95918367 C12.7532847,5.59183673 12.7532847,5.2244898 12.7532847,4.89795918 C12.7532847,4.20408163 12.5489051,3.71428571 12.140146,3.3877551 C11.7313869,3.06122449 11.1182482,2.89795918 10.259854,2.89795918 C7.97080292,2.89795918 5.64087591,2.89795918 3.35182482,2.89795918 L3.35182482,5.95918367 L3.35182482,5.95918367 Z M16.2277372,8.04081633 C16.1459854,9.30612245 15.9007299,10.244898 15.2058394,10.8571429 C14.5109489,11.4693878 13.4481752,11.755102 11.9357664,11.755102 L0,11.755102 L0,6 L0,5.95918367 L0,0.204081633 L11.9357664,0.204081633 C13.4481752,0.204081633 14.5109489,0.489795918 15.2058394,1.10204082 C15.9007299,1.67346939 16.1459854,2.6122449 16.2277372,3.91836735 C16.3094891,5.30612245 16.3094891,6.6122449 16.2277372,8.04081633 Z" id="Shape"></path>
        </g>
    </g>
</svg>