<?xml version="1.0" encoding="utf-8" ?>
<svg xmlns="http://www.w3.org/2000/svg" xmlns:xlink="http://www.w3.org/1999/xlink" width="146" height="18">
	<path fill="white" d="M0 14.324264L2.3331306 12.745371C3.5114317 14.300791 5.018343 15.17239 6.9039383 15.17239C8.2230721 15.17239 9.4655304 14.765539 10.36686 13.853255C11.208728 12.99887 11.756412 11.685995 11.756412 9.7769279L11.756412 0.377119L14.630966 0.377119L14.630966 10.154047C14.630966 12.674954 13.789099 14.518299 12.440233 15.856212C11.091368 17.194124 9.0242548 18 6.8569937 18C4.0998001 18 1.508476 16.680866 0.0015648092 14.324264L0 14.324264ZM23.677128 8.999218C23.677128 4.051291 27.729984 0 32.699818 0C35.150311 0 37.505348 0.98895943 39.178127 2.6617403C40.733547 4.2171607 41.699036 6.3374772 41.699036 9.0226898L41.699036 17.621317L38.824482 17.621317L38.824482 15.00652C37.622707 16.6793 35.148743 17.998436 32.604362 17.998436C27.632965 17.998436 23.675564 14.041033 23.675564 8.999218L23.677128 8.999218ZM32.748325 15.17239C36.117359 15.17239 38.849518 12.534122 38.849518 8.999218C38.849518 5.4643135 36.117359 2.8260453 32.748325 2.8260453C29.379292 2.8260453 26.622099 5.4643135 26.622099 8.999218C26.622099 12.534122 29.379292 15.17239 32.748325 15.17239ZM50.748325 8.999218C50.748325 4.0043468 54.682259 0 59.794487 0C63.116577 0 65.731377 1.3660784 67.33374 3.699209L64.953667 5.2781014C63.751892 3.6757367 61.96175 2.8276103 59.794487 2.8276103C56.495872 2.8276103 53.693298 5.1607409 53.693298 9.000782C53.693298 12.557593 56.237679 15.173955 59.842999 15.173955C62.881855 15.173955 65.214989 13.313396 65.803352 10.579675L61.91637 10.579675L61.91637 7.8224812L68.724854 7.8224812C68.771797 8.1761284 68.818741 8.5767193 68.818741 9.000782C68.818741 13.925237 64.884811 18 59.796055 18C54.707294 18 50.749893 14.019125 50.749893 9.000782L50.748325 8.999218ZM79.916367 15.549509C78.647308 14.203773 77.86647 12.368252 77.86647 10.224463L77.86647 0.377119L80.741028 0.377119L80.741028 9.8473444C80.741028 11.590542 81.28714 12.787621 82.130577 13.663914C83.102318 14.671651 84.463707 15.17239 85.806313 15.17239C87.148918 15.17239 88.5103 14.673216 89.482048 13.663914C90.325478 12.787621 90.871597 11.590542 90.871597 9.8473444L90.871597 0.377119L93.746155 0.377119L93.746155 10.224463C93.746155 12.368252 92.965317 14.203773 91.696251 15.549509C90.23159 17.101799 88.115967 18 85.806313 18C83.496651 18 81.381027 17.101799 79.916367 15.549509L79.916367 15.549509ZM102.79231 8.999218C102.79231 4.051291 106.84517 0 111.815 0C114.2655 0 116.62054 0.98895943 118.29331 2.6617403C119.84873 4.2171607 120.81422 6.3374772 120.81422 9.0226898L120.81422 17.621317L117.93967 17.621317L117.93967 15.00652C116.73789 16.6793 114.26393 17.998436 111.71955 17.998436C106.74815 17.998436 102.79075 14.041033 102.79075 8.999218L102.79231 8.999218ZM111.86351 15.17239C115.23255 15.17239 117.96471 12.534122 117.96471 8.999218C117.96471 5.4643135 115.23255 2.8260453 111.86351 2.8260453C108.49448 2.8260453 105.73729 5.4643135 105.73729 8.999218C105.73729 12.534122 108.49448 15.17239 111.86351 15.17239ZM133.04321 2.1437886C134.45154 0.74797881 136.45918 0 138.62645 0C141.38364 0 143.97496 1.3191341 145.48187 3.6757367L143.14874 5.2546291C141.97044 3.699209 140.46353 2.8276103 138.57794 2.8276103C137.2588 2.8276103 136.01634 3.2344606 135.11502 4.1467443C134.27158 5.0011301 133.72546 6.3140049 133.72546 8.2230721L133.72546 17.622881L130.85091 17.622881L130.85091 7.8459535C130.85091 5.3250456 131.69278 3.4817004 133.04164 2.1453533L133.04321 2.1437886Z"/>
</svg>
