<?xml version="1.0" encoding="UTF-8"?>
<svg width="209px" height="12px" viewBox="0 0 209 12" version="1.1" xmlns="http://www.w3.org/2000/svg" xmlns:xlink="http://www.w3.org/1999/xlink">
    <title>logo/Range Rover</title>
    <g id="Symbols-" stroke="none" stroke-width="1" fill="none" fill-rule="evenodd">
        <g id="Logos/Range-Rover" transform="translate(0, -1)" fill="#FFFFFF" fill-rule="nonzero">
            <g id="RR_Slate_Blue_RGB" transform="translate(-0, 1)">
                <path d="M70.8,5.12727273 L70.8,7.52727273 L77.6727273,7.52727273 L77.6727273,8.18181818 C77.6727273,8.83636364 77.2363636,9.27272727 76.5818182,9.27272727 L72.1090909,9.27272727 L72.1090909,9.27272727 L67.7454545,9.27272727 C67.2,9.27272727 66.6545455,8.72727273 66.6545455,8.18181818 L66.6545455,3.81818182 C66.6545455,3.16363636 67.0909091,2.72727273 67.7454545,2.72727273 L72.1090909,2.72727273 L72.1090909,2.72727273 L76.5818182,2.72727273 C77.1272727,2.72727273 77.6727273,3.27272727 77.6727273,3.81818182 L77.6727273,3.92727273 L77.6727273,3.92727273 L80.9454545,3.92727273 L80.9454545,3.92727273 L80.8363636,3.16363636 C80.7272727,1.41818182 79.3090909,0 77.5636364,0 L72.2181818,0 L66.8727273,0 C65.0181818,0 63.7090909,1.41818182 63.6,3.16363636 C63.3818182,5.12727273 63.4909091,6.87272727 63.6,8.83636364 C63.7090909,10.5818182 65.1272727,12 66.8727273,12 L72.2181818,12 L77.5636364,12 C79.3090909,12 80.7272727,10.5818182 80.8363636,8.83636364 C80.9454545,7.63636364 80.9454545,6.43636364 80.9454545,5.12727273 L70.8,5.12727273 Z" id="Path"></path>
                <polygon id="Path" points="174.763636 9.05454545 174.763636 7.2 185.345455 7.2 185.345455 4.69090909 174.763636 4.69090909 174.763636 2.83636364 186.981818 2.83636364 186.981818 0.109090909 171.490909 0.109090909 171.490909 11.7818182 186.981818 11.7818182 186.981818 9.05454545"></polygon>
                <polygon id="Path" points="159.381818 9.05454545 153.163636 0.109090909 149.018182 0.109090909 157.418182 11.7818182 159.381818 11.7818182 159.381818 11.7818182 161.454545 11.7818182 169.745455 0.109090909 165.709091 0.109090909"></polygon>
                <polygon id="Path" points="56.9454545 7.96363636 47.2363636 0.109090909 42 0.109090909 42 11.7818182 45.3818182 11.7818182 45.3818182 3.16363636 56.1818182 11.7818182 60.4363636 11.7818182 60.4363636 0.109090909 56.9454545 0.109090909"></polygon>
                <polygon id="Path" points="99.7090909 2.83636364 99.7090909 0.109090909 84.2181818 0.109090909 84.2181818 11.7818182 99.7090909 11.7818182 99.7090909 9.05454545 87.4909091 9.05454545 87.4909091 7.2 98.0727273 7.2 98.0727273 4.69090909 87.4909091 4.69090909 87.4909091 2.83636364"></polygon>
                <path d="M27.9272727,0.109090909 L19.6363636,11.7818182 L23.7818182,11.7818182 L25.4181818,9.38181818 L34.5818182,9.38181818 L36.2181818,11.7818182 L40.3636364,11.7818182 L31.9636364,0.109090909 C30.5454545,0.109090909 29.2363636,0.109090909 27.9272727,0.109090909 Z M29.8909091,6.98181818 L29.8909091,6.98181818 L27.0545455,6.98181818 L29.8909091,2.83636364 L32.7272727,6.98181818 L29.8909091,6.98181818 Z" id="Shape"></path>
                <path d="M17.4545455,3.92727273 C17.4545455,1.85454545 15.7090909,0.109090909 13.6363636,0.109090909 L0,0.109090909 L0,11.7818182 L3.38181818,11.7818182 L3.38181818,7.74545455 L10.4727273,7.74545455 L13.9636364,11.7818182 L18.4363636,11.7818182 L14.7272727,7.52727273 C16.2545455,7.09090909 17.4545455,5.67272727 17.4545455,3.92727273 Z M12.8727273,5.01818182 L12.8727273,5.01818182 L3.38181818,5.01818182 L3.38181818,2.83636364 L12.7636364,2.83636364 L12.8727273,2.83636364 C13.4181818,2.83636364 13.8545455,3.27272727 13.8545455,3.92727273 C13.8545455,4.47272727 13.4181818,5.01818182 12.8727273,5.01818182 Z" id="Shape"></path>
                <path d="M127.636364,3.92727273 C127.636364,1.85454545 125.890909,0.109090909 123.818182,0.109090909 L110.181818,0.109090909 L110.181818,11.7818182 L113.563636,11.7818182 L113.563636,7.74545455 L120.654545,7.74545455 L124.145455,11.7818182 L128.618182,11.7818182 L124.909091,7.52727273 C126.436364,7.09090909 127.636364,5.67272727 127.636364,3.92727273 Z M123.054545,5.01818182 L123.054545,5.01818182 L113.563636,5.01818182 L113.563636,2.83636364 L122.945455,2.83636364 L123.054545,2.83636364 C123.6,2.83636364 124.036364,3.27272727 124.036364,3.92727273 C124.036364,4.47272727 123.6,5.01818182 123.054545,5.01818182 Z" id="Shape"></path>
                <path d="M204.981818,7.52727273 C206.509091,7.09090909 207.709091,5.56363636 207.709091,3.92727273 C207.709091,1.85454545 205.963636,0.109090909 203.890909,0.109090909 L190.254545,0.109090909 L190.254545,11.7818182 L193.636364,11.7818182 L193.636364,7.74545455 L200.727273,7.74545455 L204.218182,11.7818182 L208.690909,11.7818182 L204.981818,7.52727273 Z M203.127273,5.01818182 L203.127273,5.01818182 L193.636364,5.01818182 L193.636364,2.83636364 L203.018182,2.83636364 L203.127273,2.83636364 C203.672727,2.83636364 204.109091,3.27272727 204.109091,3.92727273 C204.109091,4.47272727 203.672727,5.01818182 203.127273,5.01818182 Z" id="Shape"></path>
                <path d="M148.036364,3.16363636 C147.927273,1.41818182 146.618182,0 144.763636,0 L139.418182,0 L134.072727,0 C132.327273,0 130.909091,1.41818182 130.8,3.16363636 L130.690909,4.36363636 L130.690909,6 L130.690909,7.2 L130.8,8.83636364 C130.909091,10.5818182 132.218182,12 134.072727,12 L139.418182,12 L144.763636,12 C146.509091,12 147.927273,10.5818182 148.036364,8.83636364 L148.145455,7.63636364 L148.145455,6 L148.145455,4.8 L148.036364,3.16363636 Z M144.872727,8.18181818 C144.872727,8.83636364 144.436364,9.27272727 143.781818,9.27272727 L139.309091,9.27272727 L139.309091,9.27272727 L134.945455,9.27272727 C134.4,9.27272727 133.854545,8.72727273 133.854545,8.18181818 L133.854545,3.81818182 C133.854545,3.16363636 134.290909,2.72727273 134.945455,2.72727273 L139.309091,2.72727273 L139.309091,2.72727273 L143.781818,2.72727273 C144.327273,2.72727273 144.872727,3.27272727 144.872727,3.81818182 L144.872727,8.18181818 Z" id="Shape"></path>
            </g>
        </g>
    </g>
</svg>