<svg xmlns="http://www.w3.org/2000/svg" xml:space="preserve" viewBox="0 0 666.667 666.667">
  <defs>
    <clipPath id="a" clipPathUnits="userSpaceOnUse">
      <path d="M0 500h500V0H0Z"/>
    </clipPath>
  </defs>
  <path style="fill:#00251f;fill-opacity:1;fill-rule:nonzero;stroke:none" d="M0 0h500v500H0Z" transform="matrix(1.33333 0 0 -1.33333 0 666.667)"/>
  <g clip-path="url(#a)" transform="matrix(1.33333 0 0 -1.33333 0 666.667)">
    <path style="fill:#d0ebb9;fill-opacity:1;fill-rule:nonzero;stroke:none" d="M0 0c4.283-6.298-21.307 2.583-12.018-5.248 18.823-1.986 37.559-8.611 56.513-4.685-10.991 4.809 8.88 3.225 8.065 17.991-11.596 3.18-22.737 9.907-34.915 7.183 19.686 5.474-24.925 1.923-24.586.376 4.482-3.926-.912-3.865-3.812-3.846-14.802 4.091-28.717 13.629-44.32 11.403 9.089-11.73-19.201.412-15.719-17.286C-50.606-1.901-22.776 2.871 0 0" transform="translate(231.45 381.512)"/>
    <path style="fill:#d0ebb9;fill-opacity:1;fill-rule:nonzero;stroke:none" d="M0 0c7.192-13.093-3.832-15.086-10.632-24.294 17.344 8.337 8.565-2.018 6.412-7.567 35.061-6.772 79.221-31.448 109.199 4.273 6.873 4.933 2.227 15.492 1.092 22.835-4.336 2.372-19.395-6.47-19.376 4.983 6.155 1.431 12.344 2.658 18.566 3.577-15.864 5.653-27.5 29.122-44.092 13.988-26.254 1.506-55.674 2.556-81.433-6.979C-19.74.048 17.295 7.028 0 0" transform="translate(208.074 153.615)"/>
    <path style="fill:#d0ebb9;fill-opacity:1;fill-rule:nonzero;stroke:none" d="M0 0c3.807-6.693 4.113-12.581-2.464-16.161 1.508-1.918.727-5.749-1.368-9.101 44.999-9.918 90.687-4.322 135.934-8.946 8.051-.233 9.816 11.534 13.691 18.254-7.115.334-25.06-2.151-18.973 13.604-17.237-4.787-34.999-16.389-51.358-1.971C50.504 1.302 25.041-4.656 0 0" transform="translate(324.723 368.557)"/>
    <path style="fill:#d0ebb9;fill-opacity:1;fill-rule:nonzero;stroke:none" d="M0 0c-12.261 5.519-32.365 2.299-47.991 2.376C-37.549-.844-10.708-7.467 0 0" transform="translate(451.93 330.157)"/>
    <path style="fill:#d0ebb9;fill-opacity:1;fill-rule:nonzero;stroke:none" d="M0 0c-15.626 3.712 7.794 3.288 13.352 6.256 7.402-.31 1.965 12.97 8.153 5.258-1.537 3.228 3.245 13.141-2.793 7.445-1.649 5.24-5.335 8.604-11.679 7.108 11.499 8.092-22.044 5.519-.471 7.724 6.994-.265 25.72 6.797 11.359 12.2-8.109 5.114 16.505-3.713 6.616 3.618 4.011-.987 8.216-1.394 11.989.703-5.699-.07-5.262 3.866-.281 4.581-9.691.927 3.715 3.57-2.91 6.272-15.477.266-29.018 19.211-44.146 11.734-1.217 11.958 14.604 1.193 19.318 5.537-.693 10.357 18.557 11.997-2.075 11 17.562 6.788-23.94 2.335-8.178 8.783-16.364-5.386-32.718 8.823-48.51 4.198-6.14-8.825-20.415.735-29.256-5.871-20.909-.899 15.321-11.148-7.915-7.537 7.61-3.572 9.322-17.843-4.094-13.202 7.532-5.742-1.149-4.61.03-11.31 4.005-3.8 13.599-2.304 14.361-8.806-9.72-4.663-29.654 1.557-24.086-15.275 7.003-9.298 23.435-11.18 34.911-15.043-15.583-5.609-32.573 3.994-48.54 2.425 2.702-5.403 3.017-9.637-4.879-6.094 1.232-2.227 3.311-3.221 5.57-3.914-5.306.241-.972-6.883 2.961-7.071 19.774-1.497 28.072-23.572 49.204-21.322-8.502 6.65.825 3.888 5.786.658-3.278-1.366-13.027-4.29 2.876-2.098 21.739 5.929-9.5-8.476 11.394-3.497 11.567-3.041 24.604 1.203 34.823-6.317 6.717-1.906 13.43.732 19.696 2.925C7.654-12.162 12.465-.706 0 0" transform="translate(181.96 211.661)"/>
    <path style="fill:#d0ebb9;fill-opacity:1;fill-rule:nonzero;stroke:none" d="M0 0c-10.18-11.201 17.766-6.366 21.854-6.751 23.693-.405 47.565-5.546 71.462-6.259C91.759-6.778 82.087 5.139 98.84-2.449c12.217 2.859 4.981 21.932 5.34 32.542-7.397 2.325-35.469 4.345-11.272 5.449 27.001 5.524-17.213 11.858-24.415 14.776 31.191 7.035-43.777 4.629-9.962 8.233 6.212-.589 11.514 1.12 2.886 3.785-26.506 1.002-53.264 5.505-78.931-.196V32.353c.248-.155.48-.316.738-.475 1.828-3.199 1.12-4.436-.738-4.805V-1.724C-11.82-2.345-3.914-1.782 0 0" transform="translate(17.514 388.433)"/>
    <path style="fill:#d0ebb9;fill-opacity:1;fill-rule:nonzero;stroke:none" d="M0 0c-12.94.456-25.924 1.455-38.834.124C-35.343-7.954-8.972-6.165 0 0" transform="translate(78.848 372.433)"/>
    <path style="fill:#d0ebb9;fill-opacity:1;fill-rule:nonzero;stroke:none" d="M0 0c.888-.259 1.78-.497 2.653-.776C1.683-.451.82-.206 0 0" transform="translate(92.331 133.8)"/>
    <path style="fill:#d0ebb9;fill-opacity:1;fill-rule:nonzero;stroke:none" d="M0 0c-10.748 4.499.466 13.959-1.722 20.945-2.759 2.716-10.355 2.45-8.963 7.067-4.055.16-16.034-3.968-8.541 1.04-6.974 1.676-14.201 2.365-21.311 3.732 4.462 7.518 46.968-12.014 38.131 6.255 5.117 4.964-7.886 8.446-1.702 13.82 6.78 11.087-28.247 5.612-16.636 17.727-10.981-8.949-26.35 9.644-9.564 5.357-29.397 8.658-61.165 7.348-92.331 12.239V-12.967c21.17 1.348 42.322 3.725 63.075-1.63 5.985 6.26 32.67-6.091 42.395-1.76-8.91 6.053-1.31 4.865 7.837 4.743C-18.125-2.231-22.577 4.54 0 0" transform="translate(122.64 57.857)"/>
    <path style="fill:#d0ebb9;fill-opacity:1;fill-rule:nonzero;stroke:none" d="M0 0h12.664c4.005.049 8.051-.109 12.018.318C22.16 3.092 5.296 3.414 0 0" transform="translate(196.002)"/>
    <path style="fill:#d0ebb9;fill-opacity:1;fill-rule:nonzero;stroke:none" d="M0 0c-9.433 5.405.723 17.756-3.322 25.572-15.86-7.847-31.409 5.534-47.409 2.36-3.182.868-19.212-4.508-11.155 2.114-16.598 1.972-33.389 1.426-49.86 4.319 1.596-4.214 24.843-2.994 4.404-5.946-18.871 7.68-38.451-2.294-58.006.145 2.056-5.39-3.6-7.985-8.125-7.815 9.618-6.796 21.971-12.438 29.557-20.325-8.192 3-21.413 9.928-24.551-1.687-3.153-3.289-2.527-7.361-5.975-12.397 12.668-5.35 26.398-7.95 39.663-12.254h124.366c2.958 1.035 5.932 2.063 8.74 3.504C-2.614-13.321-15.403-.764 0 0" transform="translate(383.976 25.914)"/>
    <path style="fill:#d0ebb9;fill-opacity:1;fill-rule:nonzero;stroke:none" d="M0 0c10.578-6.256-2.333-14.291 5.549-19.269 1.397-3.029-5.515-3.642-3.385-7.68 23.45-13.789 54.694-13.336 81.151-21.47 14.773-6.334 35.425-5.718 53.152-10.357 15.656-2.233 11.926-.16 1.45 4.276.708.88 38.713-1.761 20.768 3.38-7.459 1.642 16.141 8.221 6.223 10.28-9.22 1.084 2.721 2.701 5.01 5.83-9.807-4.688-6.563 1.367-6.979 4.702-3.803 5.063-16.825-1.237-14.871 7.34 9.831-2.614 14.4 4.373 22.878 6.371 1.223 3.308-8.09 4.552-4.52 5.345 11.771-.921-6.363 11.703.145 16.26 2.377 1.135 4.86 2.01 7.358 2.883H-3.632C-6.242 6.216-6.067 3.638 0 0" transform="translate(199.634 492.109)"/>
    <path style="fill:#d0ebb9;fill-opacity:1;fill-rule:nonzero;stroke:none" d="M0 0v7.409C-10.409 3.22-6.829.744 0 0" transform="translate(500 386.709)"/>
    <path style="fill:#d0ebb9;fill-opacity:1;fill-rule:nonzero;stroke:none" d="M0 0c3.313-.39 9.196-1.811 14.144-3.448v7.874C8.444 4.421-.558 5.949 0 0" transform="translate(485.857 404.181)"/>
    <path style="fill:#d0ebb9;fill-opacity:1;fill-rule:nonzero;stroke:none" d="M0 0c10.888-6.441 14.225-13.743 24.809-20.419V9.368C16.408 7.501 8.124 4.537 0 0" transform="translate(475.192 441.204)"/>
    <path style="fill:#d0ebb9;fill-opacity:1;fill-rule:nonzero;stroke:none" d="M0 0c3.967-3.201 8.594-3.854 13.173-4.807v4.623C9.831-.854 2.779 1.298 0 0" transform="translate(486.827 415.69)"/>
    <path style="fill:#d0ebb9;fill-opacity:1;fill-rule:nonzero;stroke:none" d="M0 0v1.249c-1.499.233-3.007.463-4.501.732C-8.25 1.356-5.079.672 0 0" transform="translate(500 144.79)"/>
    <path style="fill:#d0ebb9;fill-opacity:1;fill-rule:nonzero;stroke:none" d="M0 0c-13.93-.456-27.708 5.344-41.434 3.849-7.091-2.101 1.286-1.904 4.671-2.338-5.597-.573-7.834-4.55-.635-4.773 2.813-5.049-6.48-3.921-7.387-7.826 6.523-.88 13.022-1.438 19.284-3.111 4.272-6.494-39.693.015-22.893-7.682-2.318-4.819-18.784 1.028-16.083-6.873 1.955-10.353 23.979-2.983 31.53-9.969-6.101 3.36-23.503-12.455-4.059-6.669 10.074-1.621-14.405-2.321-16.65-2.823-4.996-7.283 22.354.15 11.514-4.875-6.199 1.996-26.671-2.114-9.516-2.64-8.701-.326-11.276-10.297-1.3-10.666 4.879.236 29.77-2.832 16.524-8.74-17.669.56-1.038-7.973 5.307-4.154-12.228-8.429 4.287-12.353 14.734-8.502-2.91-2.588-9.7-1.137-11.441-4.275 14.108-2.675 28.338-2.229 42.545-1.324V1.598C5.636 1.889-6.747 5.107 0 0" transform="translate(485.29 138.282)"/>
    <path style="fill:#d0ebb9;fill-opacity:1;fill-rule:nonzero;stroke:none" d="M0 0c-3.114 2.968-7.198 4.552-10.544 7.183 5.476-1.382 10.763.189 15.578 2.876-4.966 0-9.297.236-14.084.5 2.309 6.14 11.781-1.778 12.911 4.45C1.009 19.73 2.459 26.38-.926 29.292c4.277.844-7.639 8.217 1.571 8.745-4.209.325-8.381.599-12.528.861V-9.273C-4.418-13.493-6.232-1.959 0 0" transform="translate(11.883 219.882)"/>
    <path style="fill:#d0ebb9;fill-opacity:1;fill-rule:nonzero;stroke:none" d="M0 0c8.206 5.049-1.096 9.293-9.385 11.061V-7.35C-5.345-6.538-2.003-4.428 0 0" transform="translate(9.385 278.345)"/>
    <path style="fill:#d0ebb9;fill-opacity:1;fill-rule:nonzero;stroke:none" d="M0 0c-.35.18-.726.37-1.155.576A23.87 23.87 0 0 1 0 0" transform="translate(386.455 240.099)"/>
    <path style="fill:#d0ebb9;fill-opacity:1;fill-rule:nonzero;stroke:none" d="M0 0c-3.807-2.137-24.759 7.765-12.75.114-33.834 5.447-68.615 2.748-102.454 11.031-10.364 5.726-6.125-4.728-1.304-5.613-3.109-3.422-37.317 10.505-26.045-5.656-6.465-2.211-17.892 7.467-21.375.284-9.889-7.42 13.44.706 17.475-4.132-12.023.237-20.438-2.455-16.626-8.9 19.837 4.365 39.16-3.201 57.969-8.643-9.06-1.353-29.106 10.597-27.423-2.428 5.631-23.147 46.086-19.914 65.355-30.121-13.701 4.24-26.008-1.489-37.719 3.974 9.084-4.686-7.685-.901-11.403-1.183 1.921-1.882 13.057-3.514 6.397-4.261-4.806-2.335 4.409-.383 4.545-3.082-11.369-1.319-22.689 5.932-33.408-.383-2.793-6.856 15.599-4.052 3.478-7.576 18.105-4.586-3.25-4.775-11.834-3.701 12.125-6.14 29.823-1.103 41.779-7.377-20.948-1.084-41.037 5.614-61.674 7.55-11.98 5.681-1.804-3.67-11.087-6.943-1.291-11.706 12.736-6.492 18.464-12.014-3.346-.25-13.275 2.98-11.524.232 40.042-9.605 81.346-8.826 121.994-14.421 7.726 1.865 27.49-6.155 29.974 1.952-23.601 4.038 22.965-.703 10.529 6.055-4.36 1.761 7.149 2.069 1.407 4.271-6.887.102-3.099 2.51 1.678 2-10.428 6.287-22.232 9.851-32.985 15.591 15.767-1.552 32.146.735 46.997-6.092.077-.048.14-.067.218-.108V-.783C5.088-.019 1.712.284 0 0" transform="translate(491.352 290.19)"/>
    <path style="fill:#d0ebb9;fill-opacity:1;fill-rule:nonzero;stroke:none" d="M0 0c5.713-.391 11.47-.762 17.256-1.065C19.619 3.657 1.028 8.771 0 0" transform="translate(342.741 301.02)"/>
  </g>
</svg>
