<svg width="96" height="96" viewBox="0 0 96 96" xmlns="http://www.w3.org/2000/svg" xmlns:xlink="http://www.w3.org/1999/xlink" fill="none" overflow="hidden"><style>
.MsftOfcThm_Background1_Fill_v2 {
 fill:#FFFFFF; 
}
</style>
<path d="M79.174 19.6642C79.955 18.8832 79.955 17.6168 79.174 16.8358 78.3929 16.0547 77.1266 16.0547 76.3456 16.8358L57.0047 36.1766 57.0047 24.3792C57.0047 23.2747 56.1093 22.3792 55.0047 22.3792 53.9002 22.3792 53.0047 23.2747 53.0047 24.3792L53.0048 41.0446C53.0048 42.1491 53.9002 43.0446 55.0048 43.0446L71.7238 43.0446C72.8284 43.0446 73.7238 42.1491 73.7238 41.0446 73.7238 39.94 72.8284 39.0446 71.7238 39.0446L59.7936 39.0446 79.174 19.6642ZM42.9951 54.9554C42.9951 53.8508 42.0997 52.9554 40.9951 52.9554L24.276 52.9554C23.1715 52.9554 22.276 53.8508 22.276 54.9554 22.276 56.06 23.1715 56.9554 24.276 56.9554L36.2064 56.9554 16.826 76.3358C16.045 77.1168 16.045 78.3832 16.826 79.1642 17.6071 79.9453 18.8734 79.9453 19.6544 79.1642L38.9951 59.8235 38.9951 71.6208C38.9951 72.7253 39.8906 73.6208 40.9951 73.6208 42.0997 73.6208 42.9951 72.7253 42.9951 71.6208L42.9951 54.9554Z" class="MsftOfcThm_Background1_Fill_v2" stroke="none" stroke-width="1" stroke-linecap="butt" stroke-linejoin="miter" stroke-miterlimit="4" fill="#FFFFFF" fill-rule="evenodd" fill-opacity="1" clip-rule="evenodd"/></svg>