<svg width="96" height="96" viewBox="0 0 96 96" xmlns="http://www.w3.org/2000/svg" xmlns:xlink="http://www.w3.org/1999/xlink" fill="none" overflow="hidden"><style>
.MsftOfcThm_Background1_Fill_v2 {
 fill:#FFFFFF; 
}
</style>
<path d="M17.6966 70.4615C14.5724 67.3374 14.5724 62.272 17.6966 59.1478L59.1483 17.6961C62.2725 14.5719 67.3378 14.5719 70.462 17.6961L78.3035 25.5376C81.4277 28.6618 81.4277 33.7271 78.3035 36.8513L36.8518 78.303C33.7276 81.4272 28.6623 81.4272 25.5381 78.303L17.6966 70.4615ZM20.525 61.9763C18.9629 63.5384 18.9629 66.071 20.525 67.6331L28.3665 75.4746C29.9286 77.0367 32.4613 77.0367 34.0234 75.4746L75.4751 34.0229C77.0372 32.4608 77.0372 29.9281 75.4751 28.366L67.6336 20.5245C66.0715 18.9624 63.5389 18.9624 61.9768 20.5245L57.6492 24.8521 62.3772 29.5801C63.1583 30.3612 63.1583 31.6275 62.3772 32.4086 61.5962 33.1896 60.3298 33.1896 59.5488 32.4086L54.8208 27.6805 47.6598 34.8415 55.1033 42.2851C55.8844 43.0662 55.8844 44.3325 55.1033 45.1135 54.3223 45.8946 53.056 45.8946 52.2749 45.1135L44.8313 37.67 37.6701 44.8312 42.3979 49.559C43.179 50.3401 43.179 51.6064 42.3979 52.3874 41.6169 53.1685 40.3505 53.1685 39.5695 52.3874L34.8417 47.6596 27.6809 54.8204 35.1245 62.264C35.9055 63.045 35.9055 64.3114 35.1245 65.0924 34.3434 65.8735 33.0771 65.8735 32.296 65.0924L24.8525 57.6488 20.525 61.9763Z" class="MsftOfcThm_Background1_Fill_v2" stroke="none" stroke-width="1" stroke-linecap="butt" stroke-linejoin="miter" stroke-miterlimit="4" fill="#FFFFFF" fill-rule="evenodd" fill-opacity="1" clip-rule="evenodd"/></svg>