<svg width="96" height="96" viewBox="0 0 96 96" xmlns="http://www.w3.org/2000/svg" xmlns:xlink="http://www.w3.org/1999/xlink" fill="none" overflow="hidden"><style>
.MsftOfcThm_Background1_Fill_v2 {
 fill:#FFFFFF; 
}
</style>
<path d="M25.4072 31.1243C21.3889 36.3518 19 42.8969 19 50 19 57.8589 21.9244 65.0348 26.7444 70.4988L36.9488 60.2943C34.4863 57.4036 33 53.6558 33 49.5608 33 46.4536 33.8557 43.5462 35.3444 41.0615L25.4072 31.1243ZM28.0496 28.1099 37.8204 37.8807C40.2367 35.452 43.4016 33.7688 46.9399 33.2062L46.9399 19.1491C39.5861 19.8697 32.9861 23.1598 28.0496 28.1099ZM50 81C42.1776 81 35.0318 78.1027 29.5774 73.3226L39.8923 63.0078C42.6128 64.9673 45.952 66.1216 49.5608 66.1216 58.7071 66.1216 66.1216 58.7071 66.1216 49.5608 66.1216 40.879 59.4409 33.7574 50.9399 33.0566L50.9399 19.014C67.6259 19.5109 81 33.1936 81 50 81 67.1208 67.1208 81 50 81ZM15 50C15 30.67 30.67 15 50 15 69.33 15 85 30.67 85 50 85 69.33 69.33 85 50 85 30.67 85 15 69.33 15 50ZM49.5608 37C42.6237 37 37 42.6237 37 49.5608 37 56.4979 42.6237 62.1216 49.5608 62.1216 56.4979 62.1216 62.1216 56.4979 62.1216 49.5608 62.1216 42.6237 56.4979 37 49.5608 37Z" class="MsftOfcThm_Background1_Fill_v2" stroke="none" stroke-width="1" stroke-linecap="butt" stroke-linejoin="miter" stroke-miterlimit="4" fill="#FFFFFF" fill-rule="evenodd" fill-opacity="1" clip-rule="evenodd"/></svg>