<svg width="96" height="96" viewBox="0 0 96 96" xmlns="http://www.w3.org/2000/svg" xmlns:xlink="http://www.w3.org/1999/xlink" fill="none" overflow="hidden"><style>
.MsftOfcThm_Background1_Fill_v2 {
 fill:#FFFFFF; 
}
</style>
<path d="M75.3177 19.7934C75.0616 20.1294 74.7198 20.3616 74.3463 20.4828 74.2813 20.5219 74.2142 20.5573 74.1452 20.5889L65.7852 24.4176 63.6859 32.7099 71.3357 36.5373 79.6958 32.7086C80.7 32.2487 81.887 32.6899 82.3469 33.6942 82.5033 34.0358 82.5555 34.3985 82.5167 34.7466 82.5211 34.7869 82.5243 34.8276 82.5263 34.8686 82.6235 36.8987 81.9585 40.0123 81.0628 42.9105 80.1537 45.8515 78.8846 48.9621 77.5479 51.0024 76.9425 51.9264 75.7028 52.1847 74.7789 51.5793 73.855 50.974 73.5967 49.7343 74.202 48.8103 75.2403 47.2257 76.3774 44.5238 77.2412 41.7293 77.6849 40.2937 78.0255 38.933 78.2458 37.7722L72.1303 40.5729C71.5796 40.8251 70.9443 40.8142 70.4027 40.5431L60.4573 35.5673C59.6171 35.1469 59.1828 34.1985 59.4134 33.2878L62.1426 22.5072C62.2913 21.9201 62.698 21.4319 63.2487 21.1797L69.2205 18.4447C66.5625 17.5059 63.3091 17.193 60.0868 17.6669 55.3654 18.3612 51.2411 20.6573 49.3346 24.4272 47.1251 28.7962 46.0411 32.8487 45.0259 36.6439L45.0259 36.644 45.0258 36.6442 45.0258 36.6444C44.8919 37.1448 44.7593 37.6408 44.6254 38.1323 43.5298 42.155 42.313 46.0758 39.3779 49.1446 39.3117 49.2393 39.2363 49.3296 39.1517 49.4142L39.1499 49.416 39.1478 49.418 39.1456 49.4203 39.1432 49.4227 39.1405 49.4253 39.1377 49.4282 39.1346 49.4313 39.1313 49.4345 39.1279 49.438 39.1242 49.4417 39.1203 49.4456 39.1162 49.4497 39.1119 49.454 39.1074 49.4585 39.1026 49.4632 39.0977 49.4681 39.0926 49.4733 39.0873 49.4786 39.0817 49.4841 39.076 49.4899 39.0701 49.4958 39.0639 49.5019 39.0576 49.5083 39.051 49.5148 39.0443 49.5216 39.0374 49.5285 39.0302 49.5356 39.0229 49.543 39.0153 49.5505 39.0076 49.5583 38.9997 49.5662 38.9916 49.5743 38.9832 49.5826 38.9747 49.5912 38.966 49.5999 38.9571 49.6088 38.948 49.6179 38.9387 49.6272 38.9292 49.6367 38.9195 49.6464 38.9096 49.6562 38.8996 49.6663 38.8893 49.6766 38.8788 49.687 38.8682 49.6977 38.8574 49.7085 38.8463 49.7195 38.8351 49.7307 38.8237 49.7421 38.8122 49.7537 38.8004 49.7655 38.7884 49.7775 38.7763 49.7896 38.7639 49.8019 38.7514 49.8145 38.7387 49.8272 38.7258 49.84 38.7127 49.8531 38.6995 49.8664 38.6861 49.8798 38.6724 49.8934 38.6586 49.9072 38.6446 49.9212 38.6305 49.9354 38.6161 49.9498 38.6016 49.9643 38.5869 49.979 38.572 49.9939 38.5569 50.0089 38.5417 50.0242 38.5263 50.0396 38.5107 50.0552 38.4949 50.071 38.4789 50.0869 38.4628 50.1031 38.4465 50.1194 38.43 50.1359 38.4134 50.1525 38.3965 50.1693 38.3795 50.1863 38.3624 50.2035 38.345 50.2209 38.3275 50.2384 38.3098 50.2561 38.2919 50.2739 38.2739 50.292 38.2557 50.3102 38.2373 50.3285 38.2188 50.3471 38.2001 50.3658 38.1812 50.3847 38.1622 50.4037 38.143 50.4229 38.1236 50.4423 38.104 50.4618 38.0843 50.4815 38.0644 50.5014 38.0444 50.5215 38.0242 50.5417 38.0038 50.562 37.9833 50.5826 37.9626 50.6033 37.9418 50.6241 37.9207 50.6451 37.8996 50.6663 37.8782 50.6877 37.8567 50.7092 37.8351 50.7308 37.8132 50.7526 37.7913 50.7746 37.7691 50.7967 37.7468 50.819 37.7244 50.8415 37.7018 50.8641 37.679 50.8869 37.6561 50.9098 37.633 50.9329 37.6098 50.9561 37.5864 50.9795 37.5629 51.003 37.5392 51.0267 37.5153 51.0506 37.4913 51.0746 37.4672 51.0987 37.4429 51.123 37.4184 51.1475 37.3938 51.1721 37.369 51.1968 37.3441 51.2217 37.3191 51.2468 37.2939 51.272 37.2685 51.2973 37.243 51.3228 37.2174 51.3485 37.1916 51.3743 37.1657 51.4002 37.1396 51.4263 37.1134 51.4525 37.087 51.4789 37.0605 51.5054 37.0338 51.5321 37.007 51.5589 36.9801 51.5858 36.953 51.6129 36.9257 51.6401 36.8984 51.6675 36.8708 51.695 36.8432 51.7227 36.8154 51.7505 36.7875 51.7784 36.7594 51.8065 36.7312 51.8347 36.7028 51.863 36.6743 51.8915 36.6457 51.9202 36.617 51.9489 36.5881 51.9778 36.559 52.0068 36.5299 52.036 36.5006 52.0653 36.4711 52.0947 36.4416 52.1243 36.4119 52.154 36.382 52.1838 36.3521 52.2138 36.322 52.2439 36.2917 52.2741 36.2614 52.3045 36.2309 52.335 36.2003 52.3656 36.1695 52.3964 36.1386 52.4272 36.1076 52.4582 36.0765 52.4894 36.0452 52.5206 36.0138 52.552 35.9823 52.5835 35.9507 52.6152 35.9189 52.6469 35.887 52.6788 35.855 52.7108 35.8229 52.743 35.7906 52.7752 35.7582 52.8076 35.7257 52.8401 35.6931 52.8728 35.6604 52.9055 35.6275 52.9384 35.5945 52.9714 35.5614 53.0045 35.5282 53.0377 35.4948 53.0711 35.4613 53.1045 35.4278 53.1381 35.394 53.1718 35.3602 53.2056 35.3263 53.2396 35.2922 53.2736 35.2581 53.3078 35.2238 53.3421 35.1894 53.3765 35.1549 53.411 35.1202 53.4456 35.0855 53.4804 35.0507 53.5152 35.0157 53.5502 34.9806 53.5853 34.9454 53.6204 34.9101 53.6557 34.8747 53.6912 34.8392 53.7267 34.8036 53.7623 34.7678 53.798 34.732 53.8339 34.696 53.8698 34.66 53.9059 34.6238 53.9421 34.5875 53.9783 34.5512 54.0147 34.5147 54.0512 34.4781 54.0878 34.4414 54.1245 34.4046 54.1613 34.3677 54.1982 34.3307 54.2352 34.2936 54.2723 34.2564 54.3095 34.2191 54.3468 34.1817 54.3842 34.1441 54.4217 34.1065 54.4593 34.0688 54.4971 34.031 54.5349 33.9931 54.5728 33.9551 54.6108 33.917 54.6489 33.8788 54.6871 33.8405 54.7254 33.8021 54.7638 33.7636 54.8023 33.725 54.8408 33.6863 54.8795 33.6476 54.9183 33.6087 54.9572 33.5697 54.9961 33.5307 55.0352 33.4915 55.0743 33.4523 55.1136 33.413 55.1529 33.3736 55.1923 33.334 55.2318 33.2944 55.2714 33.2548 55.3111 33.215 55.3509 33.1751 55.3908 33.1352 55.4307 33.0951 55.4708 33.055 55.5109 33.0148 55.5511 32.9745 55.5914 32.9341 55.6318 32.8936 55.6723 32.8531 55.7128 32.8124 55.7535 32.7717 55.7942 32.7309 55.835 32.69 55.8759 32.649 55.9168 32.608 55.9579 32.5668 55.999 32.5256 56.0402 32.4843 56.0815 32.443 56.1229 32.4015 56.1644 32.36 56.2059 32.3184 56.2475 32.2767 56.2892 32.2349 56.331 32.1931 56.3728 32.1511 56.4147 32.1092 56.4567 32.0671 56.4988 32.0249 56.5409 31.9827 56.5831 31.9404 56.6254 31.8981 56.6678 31.8556 56.7102 31.8131 56.7528 31.7705 56.7953 31.7279 56.838 31.6852 56.8807 31.6424 56.9235 31.5995 56.9664 31.5566 57.0093 31.5136 57.0523 31.4705 57.0954 31.4274 57.1385 31.3841 57.1817 31.3409 57.225 31.2975 57.2683 31.2541 57.3117 31.2107 57.3552 31.1671 57.3988 31.1235 57.4424 31.0798 57.486 31.0361 57.5298 30.9923 57.5735 30.9485 57.6174 30.9046 57.6613 30.8606 57.7053 30.8165 57.7493 30.7724 57.7934 30.7283 57.8376 30.6841 57.8818 30.6398 57.9261 30.5954 57.9704 30.551 58.0148 30.5066 58.0593 30.4621 58.1038 30.4175 58.1484 30.3729 58.193 30.3282 58.2377 30.2835 58.2824 30.2387 58.3272 30.1938 58.372 30.1489 58.4169 30.104 58.4619 30.059 58.5069 30.0139 58.552 29.9688 58.5971 29.9236 58.6422 29.8784 58.6874 29.8332 58.7327 29.7879 58.778 29.7425 58.8234 29.6971 58.8688 29.6516 58.9142 29.6061 58.9598 29.5606 59.0053 29.515 59.0509 29.4693 59.0966 29.4236 59.1423 29.3779 59.188 29.3321 59.2338 29.2863 59.2796 29.2404 59.3255 29.1945 59.3714 29.1485 59.4174 29.1025 59.4634 29.0565 59.5094 29.0104 59.5555 28.9642 59.6016 28.9181 59.6478 28.8719 59.694 28.8256 59.7403 28.7793 59.7865 28.733 59.8329 28.6866 59.8792 28.6402 59.9256 28.5938 59.9721 28.5473 60.0186 28.5008 60.0651 28.4542 60.1116 28.4077 60.1582 28.361 60.2048 28.3144 60.2515 28.2677 60.2982 28.221 60.3449 28.1742 60.3916 28.1274 60.4384 28.0806 60.4853 28.0338 60.5321 27.9869 60.579 27.94 60.6259 27.893 60.6728 27.8461 60.7198 27.7991 60.7668 27.752 60.8139 27.705 60.8609 27.6579 60.908 27.6108 60.9551 27.5636 61.0022 27.5165 61.0494 27.4693 61.0966 27.4221 61.1438 27.3748 61.1911 27.3275 61.2383 27.2803 61.2856 27.2329 61.3329 27.1856 61.3803 27.1382 61.4276 27.0909 61.475 27.0435 61.5224 26.996 61.5698 26.9486 61.6173 26.9011 61.6647 26.8537 61.7122 26.8062 61.7597 26.7586 61.8072 26.7111 61.8548 26.6636 61.9023 26.616 61.9499 26.5684 61.9975 26.5208 62.0451 26.4732 62.0927 26.4255 62.1403 26.3779 62.188 26.3302 62.2356 26.2826 62.2833 26.2349 62.331 26.1872 62.3787 26.1395 62.4264 26.0917 62.4741 26.044 62.5219 25.9962 62.5696 25.9485 62.6174 25.9007 62.6651 25.853 62.7129 25.8052 62.7607 25.7574 62.8085 25.7096 62.8563 25.6618 62.9041 25.614 62.9519 25.5661 62.9997 25.5183 63.0476 25.4705 63.0954 25.4226 63.1432 25.3748 63.1911 25.327 63.2389 25.2791 63.2868 25.2313 63.3346 25.1834 63.3825 25.1356 63.4303 25.0877 63.4782 25.0398 63.526 24.992 63.5739 24.9441 63.6217 24.8963 63.6696 24.8484 63.7175 24.8006 63.7653 24.7527 63.8132 24.7049 63.861 24.657 63.9089 24.6092 63.9567 24.5613 64.0045 24.5135 64.0524 24.4657 64.1002 24.4178 64.148 24.37 64.1958 24.3222 64.2437 24.2744 64.2915 24.2266 64.3393 24.1788 64.387 24.131 64.4348 24.0833 64.4826 24.0355 64.5304 23.9878 64.5781 23.94 64.6259 23.8923 64.6736 23.8446 64.7213 23.7969 64.769 23.7492 64.8167 23.7015 64.8644 23.6538 64.9121 23.6061 64.9597 23.5585 65.0074 23.5109 65.055 23.4633 65.1026 23.4157 65.1502 23.3681 65.1978 23.3205 65.2454 23.273 65.2929 23.2254 65.3404 23.1779 65.3879 23.1304 65.4354 23.083 65.4829 23.0355 65.5304 22.9881 65.5778 22.9407 65.6252 22.8933 65.6726 22.8459 65.72 22.7985 65.7673 22.7512 65.8147 22.7039 65.862 22.6566 65.9092 22.6094 65.9565 22.5621 66.0037 22.5149 66.0509 22.4677 66.0981 22.4206 66.1453 22.3735 66.1924 22.3264 66.2395 22.2793 66.2866 22.2322 66.3336 22.1852 66.3807 22.1382 66.4277 22.0913 66.4746 22.0443 66.5215 21.9974 66.5685 21.9505 66.6153 21.9037 66.6622 21.8569 66.709 21.8101 66.7557 21.7634 66.8025 21.7167 66.8492 21.67 66.8959 21.6233 66.9425 21.5767 66.9891 21.5302 67.0357 21.4836 67.0822 21.4371 67.1287 21.3907 67.1752C18.737 69.8289 18.7374 74.1308 21.3918 76.7852 24.045 79.4384 28.3463 79.4394 31.0007 76.7875L40.0241 67.7726C40.8055 66.9919 42.0718 66.9925 42.8525 67.774 43.6332 68.5554 43.6326 69.8217 42.8512 70.6024L33.8278 79.6173C29.611 83.83 22.7781 83.8284 18.5634 79.6136 14.3476 75.3978 14.3458 68.5633 18.5622 64.3468L18.6087 64.3003 18.6552 64.2538 18.7017 64.2073 18.7483 64.1607 18.7949 64.1141 18.8416 64.0675 18.8882 64.0208 18.9349 63.9741 18.9817 63.9273 19.0285 63.8805 19.0753 63.8337 19.1221 63.7869 19.169 63.74 19.2159 63.6931 19.2628 63.6462 19.3098 63.5992 19.3568 63.5522 19.4038 63.5052 19.4509 63.4582 19.4979 63.4111 19.545 63.364 19.5922 63.3169 19.6393 63.2697 19.6865 63.2225 19.7337 63.1753 19.7809 63.1281 19.8282 63.0808 19.8755 63.0335 19.9228 62.9862 19.9701 62.9389 20.0175 62.8916 20.0648 62.8442 20.1122 62.7968 20.1596 62.7494 20.2071 62.7019 20.2545 62.6545 20.302 62.607 20.3495 62.5595 20.397 62.512 20.4445 62.4645 20.4921 62.4169 20.5397 62.3694 20.5872 62.3218 20.6348 62.2742 20.6824 62.2266 20.7301 62.1789 20.7777 62.1313 20.8254 62.0836 20.873 62.036 20.9207 61.9883 20.9684 61.9406 21.0161 61.8929 21.0639 61.8452 21.1116 61.7974 21.1593 61.7497 21.2071 61.7019 21.2548 61.6542 21.3026 61.6064 21.3504 61.5586 21.3982 61.5108 21.446 61.463 21.4938 61.4152 21.5416 61.3674 21.5894 61.3196 21.6372 61.2718 21.6851 61.2239 21.7329 61.1761 21.7807 61.1283 21.8286 61.0804 21.8764 61.0326 21.9243 60.9847 21.9721 60.9369 22.02 60.889 22.0678 60.8412 22.1157 60.7933 22.1636 60.7455 22.2114 60.6976 22.2593 60.6497 22.3071 60.6019 22.355 60.554 22.4028 60.5062 22.4507 60.4583 22.4985 60.4105 22.5464 60.3626 22.5942 60.3148 22.6421 60.267 22.6899 60.2191 22.7377 60.1713 22.7855 60.1235 22.8333 60.0757 22.8811 60.0279 22.9289 59.9801 22.9767 59.9323 23.0245 59.8845 23.0723 59.8367 23.1201 59.789 23.1678 59.7412 23.2156 59.6935 23.2633 59.6457 23.311 59.598 23.3587 59.5503 23.4064 59.5026 23.4541 59.4549 23.5018 59.4072 23.5495 59.3596 23.5971 59.3119 23.6447 59.2643 23.6924 59.2166 23.74 59.169 23.7876 59.1215 23.8351 59.0739 23.8827 59.0263 23.9302 58.9788 23.9777 58.9313 24.0252 58.8838 24.0727 58.8363 24.1202 58.7888 24.1676 58.7414 24.215 58.694 24.2624 58.6466 24.3098 58.5992 24.3572 58.5518 24.4045 58.5045 24.4518 58.4572 24.4991 58.4099 24.5464 58.3626 24.5936 58.3154 24.6408 58.2682 24.688 58.221 24.7352 58.1738 24.7823 58.1267 24.8294 58.0796 24.8765 58.0325 24.9236 57.9854 24.9706 57.9384 25.0176 57.8914 25.0646 57.8444 25.1115 57.7975 25.1585 57.7506 25.2053 57.7037 25.2522 57.6568 25.299 57.61 25.3458 57.5632 25.3926 57.5165 25.4393 57.4697 25.486 57.4231 25.5326 57.3764 25.5792 57.3298 25.6258 57.2832 25.6724 57.2366 25.7189 57.1901 25.7654 57.1437 25.8118 57.0972 25.8582 57.0508 25.9046 57.0044 25.9509 56.9581 25.9972 56.9118 26.0434 56.8656 26.0897 56.8194 26.1358 56.7732 26.1819 56.7271 26.228 56.681 26.2741 56.6349 26.3201 56.5889 26.366 56.543 26.412 56.4971 26.4578 56.4512 26.5037 56.4053 26.5495 56.3596 26.5952 56.3138 26.6409 56.2681 26.6865 56.2225 26.7321 56.1769 26.7777 56.1313 26.8232 56.0858 26.8687 56.0404 26.9141 55.9949 26.9594 55.9496 27.0047 55.9043 27.05 55.859 27.0952 55.8138 27.1404 55.7686 27.1855 55.7235 27.2305 55.6785 27.2756 55.6335 27.3205 55.5885 27.3654 55.5436 27.4102 55.4988 27.455 55.454 27.4998 55.4092 27.5445 55.3646 27.5891 55.3199 27.6336 55.2754 27.6782 55.2309 27.7226 55.1864 27.767 55.142 27.8113 55.0977 27.8556 55.0534 27.8998 55.0092 27.944 54.965 27.9881 54.9209 28.0321 54.8769 28.0761 54.8329 28.12 54.789 28.1639 54.7451 28.2077 54.7013 28.2514 54.6576 28.2951 54.6139 28.3387 54.5703 28.3822 54.5268 28.4257 54.4833 28.4691 54.4399 28.5124 54.3966 28.5557 54.3533 28.5989 54.3101 28.6421 54.267 28.6851 54.2239 28.7281 54.1809 28.7711 54.1379 28.8139 54.0951 28.8567 54.0523 28.8995 54.0096 28.9421 53.9669 28.9847 53.9243 29.0272 53.8818 29.0696 53.8394 29.112 53.797 29.1543 53.7547 29.1965 53.7125 29.2387 53.6704 29.2807 53.6283 29.3227 53.5863 29.3646 53.5444 29.4065 53.5025 29.4482 53.4608 29.4899 53.4191 29.5315 53.3775 29.5731 53.3359 29.6145 53.2945 29.6559 53.2531 29.6972 53.2118 29.7384 53.1706 29.7795 53.1295 29.8206 53.0884 29.8616 53.0474 29.9025 53.0066 29.9433 52.9658 29.984 52.925 30.0246 52.8844 30.0652 52.8438 30.1057 52.8034 30.146 52.763 30.1863 52.7227 30.2266 52.6825 30.2667 52.6423 30.3067 52.6023 30.3467 52.5623 30.3865 52.5225 30.4263 52.4827 30.466 52.443 30.5056 52.4034 30.5451 52.3639 30.5845 52.3245 30.6239 52.2851 30.6631 52.2459 30.7023 52.2068 30.7413 52.1677 30.7803 52.1287 30.8191 52.0899 30.8579 52.0511 30.8966 52.0124 30.9352 51.9738 30.9737 51.9353 31.0121 51.897 31.0504 51.8587 31.0886 51.8205 31.1267 51.7823 31.1647 51.7443 31.2026 51.7064 31.2404 51.6686 31.2781 51.6309 31.3157 51.5933 31.3532 51.5558 31.3906 51.5184 31.4279 51.4811 31.4652 51.4439 31.5023 51.4068 31.5393 51.3698 31.5762 51.3328 31.613 51.2961 31.6497 51.2594 31.6862 51.2228 31.7227 51.1863 31.7591 51.1499 31.7954 51.1136 31.8316 51.0775 31.8676 51.0414 31.9036 51.0055 31.9394 50.9696 31.9751 50.9339 32.0108 50.8982 32.0463 50.8627 32.0817 50.8273 32.117 50.792 32.1522 50.7568 32.1873 50.7218 32.2222 50.6868 32.2571 50.6519 32.2918 50.6172 32.3264 50.5826 32.361 50.5481 32.3954 50.5137 32.4296 50.4794 32.4638 50.4452 32.4979 50.4112 32.5318 50.3772 32.5656 50.3434 32.5993 50.3097 32.6329 50.2761 32.6664 50.2426 32.6997 50.2093 32.733 50.1761 32.7661 50.1429 32.7991 50.11 32.8319 50.0771 32.8647 50.0443 32.8973 50.0117 32.9298 49.9792 32.9622 49.9468 32.9945 49.9146 33.0266 49.8824 33.0586 49.8504 33.0905 49.8185 33.1223 49.7867 33.1539 49.7551 33.1854 49.7236 33.2168 49.6922 33.2481 49.6609 33.2792 49.6298 33.3102 49.5988 33.3411 49.5679 33.3718 49.5372 33.4025 49.5066 33.4329 49.4761 33.4633 49.4457 33.4935 49.4155 33.5236 49.3854 33.5536 49.3554 33.5834 49.3256 33.6131 49.2959 33.6427 49.2663 33.6721 49.2369 33.7014 49.2076 33.7306 49.1784 33.7596 49.1494 33.7885 49.1205 33.8173 49.0917 33.8459 49.0631 33.8744 49.0346 33.9028 49.0063 33.931 48.9781 33.959 48.95 33.987 48.9221 34.0148 48.8943 34.0424 48.8666 34.0699 48.8391 34.0973 48.8117 34.1245 48.7845 34.1516 48.7574 34.1786 48.7304 34.2054 48.7036 34.232 48.677 34.2586 48.6505 34.2849 48.6241 34.3112 48.5979 34.3372 48.5718 34.3632 48.5458 34.389 48.5201 34.4146 48.4944 34.4401 48.4689 34.4655 48.4436 34.4907 48.4184 34.5157 48.3933 34.5406 48.3684 34.5654 48.3436 34.59 48.319 34.6144 48.2946 34.6387 48.2703 34.6629 48.2461 34.6869 48.2221 34.7107 48.1983 34.7344 48.1746 34.758 48.1511 34.7813 48.1277 34.8046 48.1044 34.8277 48.0814 34.8506 48.0584 34.8733 48.0357 34.896 48.0131 34.9184 47.9906 34.9407 47.9683 34.9628 47.9462 34.9848 47.9242 35.0066 47.9024 35.0283 47.8807 35.0498 47.8592 35.0711 47.8379 35.0923 47.8167 35.1133 47.7957 35.1342 47.7748 35.1549 47.7541 35.1754 47.7336 35.1958 47.7132 35.216 47.693 35.236 47.673 35.2559 47.6531 35.2756 47.6334 35.2951 47.6139 35.3145 47.5945 35.3337 47.5753 35.3528 47.5562 35.3717 47.5374 35.3904 47.5186 35.4089 47.5001 35.4273 47.4817 35.4455 47.4635 35.4635 47.4455 35.4814 47.4276 35.4991 47.41 35.5166 47.3924 35.5339 47.3751 35.5511 47.3579 35.5681 47.3409 35.5849 47.3241 35.6016 47.3074 35.6181 47.291 35.6344 47.2746 35.6505 47.2585 35.6665 47.2426 35.6822 47.2268 35.6978 47.2112 35.7133 47.1958 35.7285 47.1805 35.7436 47.1655 35.7585 47.1506 35.7732 47.1359 35.7877 47.1213 35.802 47.107 35.8162 47.0928 35.8302 47.0788 35.844 47.065 35.8576 47.0514 35.8711 47.038 35.8843 47.0247 35.8974 47.0116 35.9103 46.9987 35.923 46.986 35.9355 46.9735 35.9478 46.9612 35.96 46.949 35.972 46.9371 35.9837 46.9253 35.9953 46.9137 36.0067 46.9023 36.0179 46.8911 36.0289 46.8801 36.0398 46.8692 36.0504 46.8586 36.0609 46.8481 36.0711 46.8379 36.0812 46.8278 36.0911 46.8179 36.1008 46.8083 36.1059 46.8031C36.1701 46.7134 36.2417 46.6292 36.3197 46.5512 38.5871 44.2837 39.6307 41.2495 40.7659 37.0812 40.8949 36.6078 41.0245 36.122 41.1573 35.6245 42.1672 31.8407 43.3563 27.3851 45.7651 22.6221 48.4545 17.3039 53.9973 14.5194 59.5049 13.7095 64.9939 12.9023 70.9773 13.9692 74.9399 16.9904 75.8183 17.6601 75.9874 18.915 75.3177 19.7934ZM72.9865 66.1008 69.9667 64.007C70.092 63.3807 70.1546 62.732 70.1546 62.0654 70.1546 61.3988 70.0875 60.7546 69.9667 60.1238L72.9865 58.0301C73.756 57.4977 73.9841 56.4643 73.5099 55.6545L72.2931 53.5742C71.8188 52.7689 70.8078 52.4603 69.9667 52.8674L66.6561 54.4779C65.7211 53.6771 64.634 53.0463 63.4439 52.6347L63.1621 48.9662C63.0905 48.0357 62.3121 47.3154 61.3771 47.3154L58.9702 47.3154C58.0352 47.3154 57.2567 48.0357 57.1852 48.9662L56.9033 52.6347C55.7133 53.0463 54.6262 53.6771 53.6911 54.4779L50.3806 52.8674C49.5395 52.4603 48.5239 52.7645 48.0542 53.5742L46.8373 55.6545C46.3631 56.4598 46.5958 57.4977 47.3608 58.0301L50.3806 60.1238C50.2553 60.7501 50.1927 61.3988 50.1927 62.0654 50.1927 62.732 50.2598 63.3762 50.3806 64.007L47.3608 66.1008C46.5913 66.6331 46.3631 67.6666 46.8373 68.4763L48.0542 70.5566C48.5284 71.3619 49.5395 71.6706 50.3806 71.2635L53.6911 69.6529C54.6262 70.4537 55.7133 71.0845 56.9033 71.4961L57.1852 75.1646C57.2567 76.0951 58.0352 76.8154 58.9702 76.8154L61.3771 76.8154C62.3121 76.8154 63.0905 76.0951 63.1621 75.1646L63.4439 71.4961C64.634 71.0845 65.7211 70.4537 66.6561 69.6529L69.9667 71.2635C70.8078 71.6706 71.8233 71.3664 72.2931 70.5566L73.5099 68.4763C73.9841 67.6711 73.7515 66.6331 72.9865 66.1008ZM60.1731 65.2952C61.9545 65.2952 63.3987 63.8511 63.3987 62.0696 63.3987 60.2882 61.9545 58.8441 60.1731 58.8441 58.3917 58.8441 56.9475 60.2882 56.9475 62.0696 56.9475 63.8511 58.3917 65.2952 60.1731 65.2952Z" class="MsftOfcThm_Background1_Fill_v2" stroke="none" stroke-width="1" stroke-linecap="butt" stroke-linejoin="miter" stroke-miterlimit="4" fill="#FFFFFF" fill-rule="evenodd" fill-opacity="1" clip-rule="evenodd"/></svg>