<svg width="96" height="96" viewBox="0 0 96 96" xmlns="http://www.w3.org/2000/svg" xmlns:xlink="http://www.w3.org/1999/xlink" fill="none" overflow="hidden"><style>
.MsftOfcThm_Background1_Fill_v2 {
 fill:#FFFFFF; 
}
</style>
<path d="M40.5853 19.8126C41.1027 15.9712 44.3824 13 48.3662 13 51.4416 13 54.0973 14.7707 55.3866 17.3454 56.6952 16.3644 58.3197 15.783 60.0821 15.783 64.4291 15.783 67.937 19.3163 67.937 23.6595L67.937 29.6682C69.5848 28.4247 71.7319 27.8615 73.914 28.2901 77.9602 29.0842 80.6067 32.9872 79.8802 37.0403L76.871 53.8307C76.8522 53.9356 76.8254 54.0373 76.7915 54.1352 74.7302 65.2878 71.2915 72.5668 66.4699 77.0447 61.5319 81.6308 55.4491 83 48.8479 83 43.9365 83 39.3126 80.8957 35.2377 77.9668 31.152 75.0302 27.4672 71.1574 24.39 67.3549 21.3052 63.5431 18.7828 59.7417 17.0337 56.8989 16.1579 55.4753 15.4728 54.2871 15.0049 53.4513 14.7709 53.0333 14.591 52.7031 14.4686 52.4754 14.4073 52.3615 14.3605 52.2733 14.3283 52.2124L14.2979 52.1545C12.3902 48.809 12.6138 44.4442 16.0167 41.8876 19.3146 39.41 23.9823 40.0504 26.4959 43.3184L28.7983 46.3123 28.7983 26.6305C28.7983 22.2881 32.3056 18.7541 36.6503 18.7541 38.0854 18.7541 39.4291 19.1396 40.5853 19.8126ZM17.8281 50.2733 17.836 50.2884 17.8661 50.3457C17.8935 50.3976 17.9355 50.4767 17.9916 50.5812 18.1039 50.7901 18.2729 51.1003 18.4951 51.4973 18.9398 52.2916 19.5971 53.4319 20.4405 54.8028 22.1299 57.5486 24.5537 61.1988 27.4993 64.8386 30.4525 68.4877 33.8823 72.0666 37.5722 74.7187 41.2728 77.3785 45.0853 79 48.8479 79 54.9052 79 59.8321 77.7505 63.7479 74.1138 67.7178 70.4268 70.9507 64.0098 72.934 52.9921 72.9522 52.8907 72.9779 52.7923 73.0103 52.6975L75.943 36.3346C76.2869 34.4158 75.0323 32.5858 73.1435 32.2152 71.2583 31.8449 69.4129 33.0609 69.0123 34.9668L66.8147 45.4008C66.587 46.4817 65.5263 47.1733 64.4454 46.9457 63.3645 46.718 62.6729 45.6572 62.9005 44.5764L63.937 39.6554 63.937 23.6595C63.937 21.511 62.2055 19.783 60.0821 19.783 57.9622 19.783 56.2301 21.5103 56.2301 23.6595L56.2301 43.0746C56.2301 44.1791 55.3346 45.0746 54.2301 45.0746L54.2182 45.0746C53.1136 45.0746 52.2182 44.1791 52.2182 43.0746L52.2182 20.8765C52.2182 18.7274 50.486 17 48.3662 17 46.2463 17 44.5142 18.7274 44.5142 20.8765L44.5142 43.0716C44.5142 44.1761 43.6188 45.0716 42.5142 45.0716L42.5023 45.0716C41.3977 45.0716 40.5023 44.1761 40.5023 43.0716L40.5023 26.6305C40.5023 24.4814 38.7701 22.7541 36.6503 22.7541 34.5305 22.7541 32.7983 24.4814 32.7983 26.6305L32.7983 52.1939C32.7983 53.0503 32.253 53.8117 31.4422 54.0874 30.6314 54.3631 29.735 54.092 29.2129 53.4131L23.3253 45.7571C23.3253 45.757 23.3254 45.7571 23.3253 45.7571 22.1457 44.2236 19.9624 43.9264 18.4193 45.0856 16.9941 46.1564 16.6112 48.1581 17.7852 50.1948 17.8 50.2205 17.8144 50.247 17.8281 50.2733Z" class="MsftOfcThm_Background1_Fill_v2" stroke="none" stroke-width="1" stroke-linecap="butt" stroke-linejoin="miter" stroke-miterlimit="4" fill="#FFFFFF" fill-rule="evenodd" fill-opacity="1" clip-rule="evenodd"/></svg>