<svg width="96" height="96" viewBox="0 0 96 96" xmlns="http://www.w3.org/2000/svg" xmlns:xlink="http://www.w3.org/1999/xlink" fill="none" overflow="hidden"><style>
.MsftOfcThm_Background1_Fill_v2 {
 fill:#FFFFFF; 
}
</style>
<path d="M19 48.3646C19 33.2516 31.2516 21 46.3646 21 56.6794 21 65.665 26.7077 70.3288 35.1418L63.9895 32.1886C62.9883 31.7221 61.7985 32.1557 61.332 33.1569 60.8656 34.1582 61.2991 35.348 62.3004 35.8144L72.7458 40.6805C73.7226 41.1356 74.8844 40.7349 75.373 39.7744L80.7845 29.136C81.2853 28.1515 80.8931 26.9474 79.9086 26.4466 78.9241 25.9458 77.72 26.3379 77.2192 27.3225L74.0344 33.5835C68.7523 23.7161 58.3448 17 46.3646 17 29.0424 17 15 31.0424 15 48.3646 15 65.6868 29.0424 79.7293 46.3646 79.7293 59.9122 79.7293 71.4489 71.1409 75.8367 59.1182 76.2154 58.0806 75.6812 56.9324 74.6436 56.5537 73.606 56.175 72.4578 56.7092 72.0791 57.7468 68.2489 68.2418 58.1786 75.7293 46.3646 75.7293 31.2516 75.7293 19 63.4777 19 48.3646Z" class="MsftOfcThm_Background1_Fill_v2" stroke="none" stroke-width="1" stroke-linecap="butt" stroke-linejoin="miter" stroke-miterlimit="4" fill="#FFFFFF" fill-rule="evenodd" fill-opacity="1" clip-rule="evenodd"/></svg>