<svg width="96" height="96" viewBox="0 0 96 96" xmlns="http://www.w3.org/2000/svg" xmlns:xlink="http://www.w3.org/1999/xlink" fill="none" overflow="hidden"><style>
.MsftOfcThm_Background1_Fill_v2 {
 fill:#FFFFFF; 
}
</style>
<path d="M34.5 27.5C34.5 19.4919 40.9919 13 49 13 57.0081 13 63.5 19.4919 63.5 27.5L63.5 39 68.5 39C74.0228 39 78.5 43.4772 78.5 49L78.5 70C78.5 75.5228 74.0228 80 68.5 80L28.5 80C22.9772 80 18.5 75.5228 18.5 70L18.5 49C18.5 43.4772 22.9772 39 28.5 39L34.5 39 34.5 27.5ZM38.5 39 59.5 39 59.5 27.5C59.5 21.701 54.799 17 49 17 43.201 17 38.5 21.701 38.5 27.5L38.5 39ZM61.5 43 28.5 43C25.1863 43 22.5 45.6863 22.5 49L22.5 70C22.5 73.3137 25.1863 76 28.5 76L68.5 76C71.8137 76 74.5 73.3137 74.5 70L74.5 49C74.5 45.6863 71.8137 43 68.5 43L61.5 43ZM47 60.584C45.2341 59.8124 44 58.0503 44 56 44 53.2386 46.2386 51 49 51 51.7614 51 54 53.2386 54 56 54 58.0503 52.7659 59.8124 51 60.584L51 65.5011C51 66.6057 50.1046 67.5011 49 67.5011 47.8954 67.5011 47 66.6057 47 65.5011L47 60.584Z" class="MsftOfcThm_Background1_Fill_v2" stroke="none" stroke-width="1" stroke-linecap="butt" stroke-linejoin="miter" stroke-miterlimit="4" fill="#FFFFFF" fill-rule="evenodd" fill-opacity="1" clip-rule="evenodd"/></svg>