<svg width="96" height="96" viewBox="0 0 96 96" xmlns="http://www.w3.org/2000/svg" xmlns:xlink="http://www.w3.org/1999/xlink" fill="none" overflow="hidden"><style>
.MsftOfcThm_Background1_Fill_v2 {
 fill:#FFFFFF; 
}
</style>
<path d="M33.803 31.9521C37.0427 24.0817 44.5593 18.5 53.3979 18.5 64.8007 18.5 73.9902 27.7664 74.667 39.3003 83.7529 40.7734 90.6 48.9506 90.6 58.6809 90.6 69.4335 82.2325 78.3 71.7299 78.3 71.7113 78.3 71.6943 78.2998 71.6794 78.2995 71.6648 78.2998 71.6502 78.3 71.6356 78.3L18.9284 78.3C18.8406 78.3 18.7541 78.2943 18.6692 78.2834 11.0052 78.0276 5 71.4945 5 63.6308 5 57.5768 8.54848 52.3389 13.6715 50.1115 13.5922 49.4558 13.549 48.7848 13.549 48.0997 13.549 38.95 20.6724 31.3828 29.6404 31.3828 31.081 31.3828 32.4762 31.5821 33.803 31.9521ZM19.1358 74.3 71.5355 74.3C71.5722 74.2982 71.609 74.2973 71.6459 74.2975 71.6608 74.2976 71.6747 74.2978 71.6871 74.298 71.7 74.2983 71.7114 74.2986 71.7209 74.2989L71.751 74.3C79.8731 74.288 86.6 67.3824 86.6 58.6809 86.6 50.2791 80.3212 43.5463 72.5788 43.0892 71.5065 43.0259 70.6757 42.1269 70.6971 41.0529 70.6994 40.9327 70.7019 40.8697 70.7037 40.8215 70.7057 40.7701 70.707 40.7354 70.707 40.6663 70.707 30.5505 62.8765 22.5 53.3979 22.5 45.7467 22.5 39.1851 27.7322 36.9247 35.0841 36.7577 35.6273 36.3675 36.0738 35.8516 36.3121 35.3357 36.5504 34.7428 36.5579 34.2209 36.3328 32.8049 35.7221 31.2609 35.3828 29.6404 35.3828 23.0435 35.3828 17.549 40.9936 17.549 48.0997 17.549 49.0836 17.6671 50.0475 17.8762 50.9915 18.1048 52.0239 17.4902 53.0559 16.4735 53.3467 12.2144 54.5651 9 58.6636 9 63.6308 9 69.5418 13.5235 74.1958 18.9629 74.2896 19.0212 74.2906 19.0788 74.2941 19.1358 74.3Z" class="MsftOfcThm_Background1_Fill_v2" stroke="none" stroke-width="1" stroke-linecap="butt" stroke-linejoin="miter" stroke-miterlimit="4" fill="#FFFFFF" fill-rule="evenodd" fill-opacity="1" clip-rule="evenodd"/></svg>