<svg width="96" height="96" viewBox="0 0 96 96" xmlns="http://www.w3.org/2000/svg" xmlns:xlink="http://www.w3.org/1999/xlink" fill="none" overflow="hidden"><style>
.MsftOfcThm_Background1_Fill_v2 {
 fill:#FFFFFF; 
}
</style>
<path d="M76 40.7935C76 24.7146 62.4943 11.7872 46.2241 12.7952 32.7607 13.6293 21.6823 24.1842 20.1785 37.6103 19.7008 41.875 20.2006 45.9702 21.4553 49.7176 25.4288 62.5593 36.8229 74.8536 42.7298 80.6172 45.6417 83.4585 50.2687 83.4402 53.1713 80.6072 58.7097 75.2017 68.9857 64.135 73.5493 52.2679 75.1193 48.7642 76 44.8815 76 40.7935ZM46.4714 16.7875C60.4171 15.9236 72 26.9984 72 40.7935 72 44.3192 71.2376 47.6615 69.8787 50.6776 69.8629 50.7125 69.8482 50.7479 69.8344 50.7837 65.6146 61.8007 55.8758 72.3781 50.3774 77.7447 49.0195 79.07 46.8724 79.0706 45.5233 77.7543 39.6257 71.9997 28.9108 60.3079 25.2701 48.5144 25.2653 48.4988 25.2603 48.4832 25.2551 48.4677 24.1741 45.2485 23.7419 41.7311 24.1536 38.0556 25.4417 26.5558 34.9516 17.5012 46.4714 16.7875ZM40 39.2401C40 34.5 43.7388 30.7401 48.25 30.7401 52.7612 30.7401 56.5 34.5 56.5 39.2401 56.5 43.9802 52.7612 47.7401 48.25 47.7401 43.7388 47.7401 40 43.9802 40 39.2401ZM48.25 26.7401C41.4394 26.7401 36 32.3822 36 39.2401 36 46.0979 41.4394 51.7401 48.25 51.7401 55.0607 51.7401 60.5 46.0979 60.5 39.2401 60.5 32.3822 55.0607 26.7401 48.25 26.7401Z" class="MsftOfcThm_Background1_Fill_v2" stroke="none" stroke-width="1" stroke-linecap="butt" stroke-linejoin="miter" stroke-miterlimit="4" fill="#FFFFFF" fill-rule="evenodd" fill-opacity="1" clip-rule="evenodd"/></svg>