<svg width="96" height="96" viewBox="0 0 96 96" xmlns="http://www.w3.org/2000/svg" xmlns:xlink="http://www.w3.org/1999/xlink" fill="none" overflow="hidden"><style>
.MsftOfcThm_Background1_Fill_v2 {
 fill:#FFFFFF; 
}
</style>
<path d="M33.4545 15.74C29.3484 15.74 26 19.0525 26 23.1631L26 59.3169C26 63.4275 29.3484 66.74 33.4545 66.74L33.5114 66.74 33.5682 66.74 33.625 66.74 33.6818 66.74 33.7386 66.74 33.7955 66.74 33.8523 66.74 33.9091 66.74 33.9659 66.74 34.0227 66.74 34.0795 66.74 34.1364 66.74 34.1932 66.74 34.25 66.74 34.3068 66.74 34.3636 66.74 34.4205 66.74 34.4773 66.74 34.5341 66.74 34.5909 66.74 34.6477 66.74 34.7045 66.74 34.7614 66.74 34.8182 66.74 34.875 66.74 34.9318 66.74 34.9886 66.74 35.0455 66.74 35.1023 66.74 35.1591 66.74 35.2159 66.74 35.2727 66.74 35.3295 66.74 35.3864 66.74 35.4432 66.74 35.5 66.74 35.5568 66.74 35.6136 66.74 35.6705 66.74 35.7273 66.74 35.7841 66.74 35.8409 66.74 35.8977 66.74 35.9545 66.74 36.0114 66.74 36.0682 66.74 36.125 66.74 36.1818 66.74 36.2386 66.74 36.2955 66.74 36.3523 66.74 36.4091 66.74 36.4659 66.74 36.5227 66.74 36.5795 66.74 36.6364 66.74 36.6932 66.74 36.75 66.74 36.8068 66.74 36.8636 66.74 36.9205 66.74 36.9773 66.74 37.0341 66.74 37.0909 66.74 37.1477 66.74 37.2045 66.74 37.2614 66.74 37.3182 66.74 37.375 66.74 37.4318 66.74 37.4886 66.74 37.5455 66.74 37.6023 66.74 37.6591 66.74 37.7159 66.74 37.7727 66.74 37.8295 66.74 37.8864 66.74 37.9432 66.74 38 66.74 38.0568 66.74 38.1136 66.74 38.1705 66.74 38.2273 66.74 38.2841 66.74 38.3409 66.74 38.3977 66.74 38.4545 66.74 38.5114 66.74 38.5682 66.74 38.625 66.74 38.6818 66.74 38.7386 66.74 38.7955 66.74 38.8523 66.74 38.9091 66.74 38.9659 66.74 39.0227 66.74 39.0795 66.74 39.1364 66.74 39.1932 66.74 39.25 66.74 39.3068 66.74 39.3636 66.74 39.4205 66.74 39.4773 66.74 39.5341 66.74 39.5909 66.74 39.6477 66.74 39.7045 66.74 39.7614 66.74 39.8182 66.74 39.875 66.74 39.9318 66.74 39.9886 66.74 40.0455 66.74 40.1023 66.74 40.1591 66.74 40.2159 66.74 40.2727 66.74 40.3295 66.74 40.3864 66.74 40.4432 66.74 40.5 66.74 40.5568 66.74 40.6136 66.74 40.6705 66.74 40.7273 66.74 40.7841 66.74 40.8409 66.74 40.8977 66.74 40.9545 66.74 41.0114 66.74 41.0682 66.74 41.125 66.74 41.1818 66.74 41.2386 66.74 41.2955 66.74 41.3523 66.74 41.4091 66.74 41.4659 66.74 41.5227 66.74 41.5795 66.74 41.6364 66.74 41.6932 66.74 41.75 66.74 41.8068 66.74 41.8636 66.74 41.9205 66.74 41.9773 66.74 42.0341 66.74 42.0909 66.74 42.1477 66.74 42.2045 66.74 42.2614 66.74 42.3182 66.74 42.375 66.74 42.4318 66.74 42.4886 66.74 42.5455 66.74 42.6023 66.74 42.6591 66.74 42.7159 66.74 42.7727 66.74 42.8295 66.74 42.8864 66.74 42.9432 66.74 43 66.74 43.0568 66.74 43.1136 66.74 43.1705 66.74 43.2273 66.74 43.2841 66.74 43.3409 66.74 43.3977 66.74 43.4545 66.74 43.5114 66.74 43.5682 66.74 43.625 66.74 43.6818 66.74 43.7386 66.74 43.7955 66.74 43.8523 66.74 43.9091 66.74 43.9659 66.74 44.0227 66.74 44.0795 66.74 44.1364 66.74 44.1932 66.74 44.25 66.74 44.3068 66.74 44.3636 66.74 44.4205 66.74 44.4773 66.74 44.5341 66.74 44.5909 66.74 44.6477 66.74 44.7045 66.74 44.7614 66.74 44.8182 66.74 44.875 66.74 44.9318 66.74 44.9886 66.74 45.0455 66.74 45.1023 66.74 45.1591 66.74 45.2159 66.74 45.2727 66.74 45.3295 66.74 45.3864 66.74 45.4432 66.74 45.5 66.74 45.5568 66.74 45.6136 66.74 45.6705 66.74 45.7273 66.74 45.7841 66.74 45.8409 66.74 45.8977 66.74 45.9545 66.74 46.0114 66.74 46.0682 66.74 46.125 66.74 46.1818 66.74 46.2386 66.74 46.2955 66.74 46.3523 66.74 46.4091 66.74 46.4659 66.74 46.5227 66.74 46.5795 66.74 46.6364 66.74 46.6932 66.74 46.75 66.74 46.8068 66.74 46.8636 66.74 46.9205 66.74 46.9773 66.74 47.0341 66.74 47.0909 66.74 47.1477 66.74 47.2045 66.74 47.2614 66.74 47.3182 66.74 47.375 66.74 47.4318 66.74 47.4886 66.74 47.5455 66.74 47.6023 66.74 47.6591 66.74 47.7159 66.74 47.7727 66.74 47.8295 66.74 47.8864 66.74 47.9432 66.74 48 66.74 48.0568 66.74 48.1136 66.74 48.1705 66.74 48.2273 66.74 48.2841 66.74 48.3409 66.74 48.3977 66.74 48.4545 66.74 48.5114 66.74 48.5682 66.74 48.625 66.74 48.6818 66.74 48.7386 66.74 48.7955 66.74 48.8523 66.74 48.9091 66.74 48.9659 66.74 49.0227 66.74 49.0795 66.74 49.1364 66.74 49.1932 66.74 49.25 66.74 49.3068 66.74 49.3636 66.74 49.4205 66.74 49.4773 66.74 49.5341 66.74 49.5909 66.74 49.6477 66.74 49.7045 66.74 49.7614 66.74 49.8182 66.74 49.875 66.74 49.9318 66.74 49.9886 66.74 50.0455 66.74 50.1023 66.74 50.1591 66.74 50.2159 66.74 50.2727 66.74 50.3295 66.74 50.3864 66.74 50.4432 66.74 50.5 66.74 50.5568 66.74 50.6136 66.74 50.6705 66.74 50.7273 66.74 50.7841 66.74 50.8409 66.74 50.8977 66.74 50.9545 66.74 51.0114 66.74 51.0682 66.74 51.125 66.74 51.1818 66.74 51.2386 66.74 51.2955 66.74 51.3523 66.74 51.4091 66.74 51.4659 66.74 51.5227 66.74 51.5795 66.74 51.6364 66.74 51.6932 66.74 51.75 66.74 51.8068 66.74 51.8636 66.74 51.9205 66.74 51.9773 66.74 52.0341 66.74 52.0909 66.74 52.1477 66.74 52.2045 66.74 52.2614 66.74 52.3182 66.74 52.375 66.74 52.4318 66.74 52.4886 66.74 52.5455 66.74 52.6023 66.74 52.6591 66.74 52.7159 66.74 52.7727 66.74 52.8295 66.74 52.8864 66.74 52.9432 66.74 53 66.74 53.0568 66.74 53.1136 66.74 53.1705 66.74 53.2273 66.74 53.2841 66.74 53.3409 66.74 53.3977 66.74 53.4545 66.74 53.5114 66.74 53.5682 66.74 53.625 66.74 53.6818 66.74 53.7386 66.74 53.7955 66.74 53.8523 66.74 53.9091 66.74 53.9659 66.74 54.0227 66.74 54.0795 66.74 54.1364 66.74 54.1932 66.74 54.25 66.74 54.3068 66.74 54.3636 66.74 54.4205 66.74 54.4773 66.74 54.5341 66.74 54.5909 66.74 54.6477 66.74 54.7045 66.74 54.7614 66.74 54.8182 66.74 54.875 66.74 54.9318 66.74 54.9886 66.74 55.0455 66.74 55.1023 66.74 55.1591 66.74 55.2159 66.74 55.2727 66.74 55.3295 66.74 55.3864 66.74 55.4432 66.74 55.5 66.74 55.5568 66.74 55.6136 66.74 55.6705 66.74 55.7273 66.74 55.7841 66.74 55.8409 66.74 55.8977 66.74 55.9545 66.74 56.0114 66.74 56.0682 66.74 56.125 66.74 56.1818 66.74 56.2386 66.74 56.2955 66.74 56.3523 66.74 56.4091 66.74 56.4659 66.74 56.5227 66.74 56.5795 66.74 56.6364 66.74 56.6932 66.74 56.75 66.74 56.8068 66.74 56.8636 66.74 56.9205 66.74 56.9773 66.74 57.0341 66.74 57.0909 66.74 57.1477 66.74 57.2045 66.74 57.2614 66.74 57.3182 66.74 57.375 66.74 57.4318 66.74 57.4886 66.74 57.5455 66.74 57.6023 66.74 57.6591 66.74 57.7159 66.74 57.7727 66.74 57.8295 66.74 57.8864 66.74 57.9432 66.74 58 66.74 58.0568 66.74 58.1136 66.74 58.1705 66.74 58.2273 66.74 58.2841 66.74 58.3409 66.74 58.3977 66.74 58.4545 66.74 58.5114 66.74 58.5682 66.74 58.625 66.74 58.6818 66.74 58.7386 66.74 58.7955 66.74 58.8523 66.74 58.9091 66.74 58.9659 66.74 59.0227 66.74 59.0795 66.74 59.1364 66.74 59.1932 66.74 59.25 66.74 59.3068 66.74 59.3636 66.74 59.4205 66.74 59.4773 66.74 59.5341 66.74 59.5909 66.74 59.6477 66.74 59.7045 66.74 59.7614 66.74 59.8182 66.74 59.875 66.74 59.9318 66.74 59.9886 66.74 60.0455 66.74 60.1023 66.74 60.1591 66.74 60.2159 66.74 60.2727 66.74 60.3295 66.74 60.3864 66.74 60.4432 66.74 60.5 66.74 60.5568 66.74 60.6136 66.74 60.6705 66.74 60.7273 66.74 60.7841 66.74 60.8409 66.74 60.8977 66.74 60.9545 66.74 61.0114 66.74 61.0682 66.74 61.125 66.74 61.1818 66.74 61.2386 66.74 61.2955 66.74 61.3523 66.74 61.4091 66.74 61.4659 66.74 61.5227 66.74 61.5795 66.74 61.6364 66.74 61.6932 66.74 61.75 66.74 61.8068 66.74 61.8636 66.74 61.9205 66.74 61.9773 66.74 62.0341 66.74 62.0909 66.74 62.1477 66.74 62.2045 66.74 62.2614 66.74 62.3182 66.74 62.375 66.74 62.4318 66.74 62.4886 66.74 62.5455 66.74C66.6516 66.74 70 63.4275 70 59.3169L70 38.0632C70 36.0908 69.2118 34.2014 67.8125 32.8102L52.8259 17.9101C51.427 16.5193 49.5322 15.74 47.5588 15.74L33.4545 15.74ZM30 23.1631C30 21.2834 31.5357 19.74 33.4545 19.74L47.5588 19.74C48.4788 19.74 49.3587 20.1034 50.0057 20.7467L64.9923 35.6468C65.6389 36.2897 66 37.1591 66 38.0632L66 59.3169C66 61.1965 64.4643 62.74 62.5455 62.74L62.4886 62.74 62.4318 62.74 62.375 62.74 62.3182 62.74 62.2614 62.74 62.2045 62.74 62.1477 62.74 62.0909 62.74 62.0341 62.74 61.9773 62.74 61.9205 62.74 61.8636 62.74 61.8068 62.74 61.75 62.74 61.6932 62.74 61.6364 62.74 61.5795 62.74 61.5227 62.74 61.4659 62.74 61.4091 62.74 61.3523 62.74 61.2955 62.74 61.2386 62.74 61.1818 62.74 61.125 62.74 61.0682 62.74 61.0114 62.74 60.9545 62.74 60.8977 62.74 60.8409 62.74 60.7841 62.74 60.7273 62.74 60.6705 62.74 60.6136 62.74 60.5568 62.74 60.5 62.74 60.4432 62.74 60.3864 62.74 60.3295 62.74 60.2727 62.74 60.2159 62.74 60.1591 62.74 60.1023 62.74 60.0455 62.74 59.9886 62.74 59.9318 62.74 59.875 62.74 59.8182 62.74 59.7614 62.74 59.7045 62.74 59.6477 62.74 59.5909 62.74 59.5341 62.74 59.4773 62.74 59.4205 62.74 59.3636 62.74 59.3068 62.74 59.25 62.74 59.1932 62.74 59.1364 62.74 59.0795 62.74 59.0227 62.74 58.9659 62.74 58.9091 62.74 58.8523 62.74 58.7955 62.74 58.7386 62.74 58.6818 62.74 58.625 62.74 58.5682 62.74 58.5114 62.74 58.4545 62.74 58.3977 62.74 58.3409 62.74 58.2841 62.74 58.2273 62.74 58.1705 62.74 58.1136 62.74 58.0568 62.74 58 62.74 57.9432 62.74 57.8864 62.74 57.8295 62.74 57.7727 62.74 57.7159 62.74 57.6591 62.74 57.6023 62.74 57.5455 62.74 57.4886 62.74 57.4318 62.74 57.375 62.74 57.3182 62.74 57.2614 62.74 57.2045 62.74 57.1477 62.74 57.0909 62.74 57.0341 62.74 56.9773 62.74 56.9205 62.74 56.8636 62.74 56.8068 62.74 56.75 62.74 56.6932 62.74 56.6364 62.74 56.5795 62.74 56.5227 62.74 56.4659 62.74 56.4091 62.74 56.3523 62.74 56.2955 62.74 56.2386 62.74 56.1818 62.74 56.125 62.74 56.0682 62.74 56.0114 62.74 55.9545 62.74 55.8977 62.74 55.8409 62.74 55.7841 62.74 55.7273 62.74 55.6705 62.74 55.6136 62.74 55.5568 62.74 55.5 62.74 55.4432 62.74 55.3864 62.74 55.3295 62.74 55.2727 62.74 55.2159 62.74 55.1591 62.74 55.1023 62.74 55.0455 62.74 54.9886 62.74 54.9318 62.74 54.875 62.74 54.8182 62.74 54.7614 62.74 54.7045 62.74 54.6477 62.74 54.5909 62.74 54.5341 62.74 54.4773 62.74 54.4205 62.74 54.3636 62.74 54.3068 62.74 54.25 62.74 54.1932 62.74 54.1364 62.74 54.0795 62.74 54.0227 62.74 53.9659 62.74 53.9091 62.74 53.8523 62.74 53.7955 62.74 53.7386 62.74 53.6818 62.74 53.625 62.74 53.5682 62.74 53.5114 62.74 53.4545 62.74 53.3977 62.74 53.3409 62.74 53.2841 62.74 53.2273 62.74 53.1705 62.74 53.1136 62.74 53.0568 62.74 53 62.74 52.9432 62.74 52.8864 62.74 52.8295 62.74 52.7727 62.74 52.7159 62.74 52.6591 62.74 52.6023 62.74 52.5455 62.74 52.4886 62.74 52.4318 62.74 52.375 62.74 52.3182 62.74 52.2614 62.74 52.2045 62.74 52.1477 62.74 52.0909 62.74 52.0341 62.74 51.9773 62.74 51.9205 62.74 51.8636 62.74 51.8068 62.74 51.75 62.74 51.6932 62.74 51.6364 62.74 51.5795 62.74 51.5227 62.74 51.4659 62.74 51.4091 62.74 51.3523 62.74 51.2955 62.74 51.2386 62.74 51.1818 62.74 51.125 62.74 51.0682 62.74 51.0114 62.74 50.9545 62.74 50.8977 62.74 50.8409 62.74 50.7841 62.74 50.7273 62.74 50.6705 62.74 50.6136 62.74 50.5568 62.74 50.5 62.74 50.4432 62.74 50.3864 62.74 50.3295 62.74 50.2727 62.74 50.2159 62.74 50.1591 62.74 50.1023 62.74 50.0455 62.74 49.9886 62.74 49.9318 62.74 49.875 62.74 49.8182 62.74 49.7614 62.74 49.7045 62.74 49.6477 62.74 49.5909 62.74 49.5341 62.74 49.4773 62.74 49.4205 62.74 49.3636 62.74 49.3068 62.74 49.25 62.74 49.1932 62.74 49.1364 62.74 49.0795 62.74 49.0227 62.74 48.9659 62.74 48.9091 62.74 48.8523 62.74 48.7955 62.74 48.7386 62.74 48.6818 62.74 48.625 62.74 48.5682 62.74 48.5114 62.74 48.4545 62.74 48.3977 62.74 48.3409 62.74 48.2841 62.74 48.2273 62.74 48.1705 62.74 48.1136 62.74 48.0568 62.74 48 62.74 47.9432 62.74 47.8864 62.74 47.8295 62.74 47.7727 62.74 47.7159 62.74 47.6591 62.74 47.6023 62.74 47.5455 62.74 47.4886 62.74 47.4318 62.74 47.375 62.74 47.3182 62.74 47.2614 62.74 47.2045 62.74 47.1477 62.74 47.0909 62.74 47.0341 62.74 46.9773 62.74 46.9205 62.74 46.8636 62.74 46.8068 62.74 46.75 62.74 46.6932 62.74 46.6364 62.74 46.5795 62.74 46.5227 62.74 46.4659 62.74 46.4091 62.74 46.3523 62.74 46.2955 62.74 46.2386 62.74 46.1818 62.74 46.125 62.74 46.0682 62.74 46.0114 62.74 45.9545 62.74 45.8977 62.74 45.8409 62.74 45.7841 62.74 45.7273 62.74 45.6705 62.74 45.6136 62.74 45.5568 62.74 45.5 62.74 45.4432 62.74 45.3864 62.74 45.3295 62.74 45.2727 62.74 45.2159 62.74 45.1591 62.74 45.1023 62.74 45.0455 62.74 44.9886 62.74 44.9318 62.74 44.875 62.74 44.8182 62.74 44.7614 62.74 44.7045 62.74 44.6477 62.74 44.5909 62.74 44.5341 62.74 44.4773 62.74 44.4205 62.74 44.3636 62.74 44.3068 62.74 44.25 62.74 44.1932 62.74 44.1364 62.74 44.0795 62.74 44.0227 62.74 43.9659 62.74 43.9091 62.74 43.8523 62.74 43.7955 62.74 43.7386 62.74 43.6818 62.74 43.625 62.74 43.5682 62.74 43.5114 62.74 43.4545 62.74 43.3977 62.74 43.3409 62.74 43.2841 62.74 43.2273 62.74 43.1705 62.74 43.1136 62.74 43.0568 62.74 43 62.74 42.9432 62.74 42.8864 62.74 42.8295 62.74 42.7727 62.74 42.7159 62.74 42.6591 62.74 42.6023 62.74 42.5455 62.74 42.4886 62.74 42.4318 62.74 42.375 62.74 42.3182 62.74 42.2614 62.74 42.2045 62.74 42.1477 62.74 42.0909 62.74 42.0341 62.74 41.9773 62.74 41.9205 62.74 41.8636 62.74 41.8068 62.74 41.75 62.74 41.6932 62.74 41.6364 62.74 41.5795 62.74 41.5227 62.74 41.4659 62.74 41.4091 62.74 41.3523 62.74 41.2955 62.74 41.2386 62.74 41.1818 62.74 41.125 62.74 41.0682 62.74 41.0114 62.74 40.9545 62.74 40.8977 62.74 40.8409 62.74 40.7841 62.74 40.7273 62.74 40.6705 62.74 40.6136 62.74 40.5568 62.74 40.5 62.74 40.4432 62.74 40.3864 62.74 40.3295 62.74 40.2727 62.74 40.2159 62.74 40.1591 62.74 40.1023 62.74 40.0455 62.74 39.9886 62.74 39.9318 62.74 39.875 62.74 39.8182 62.74 39.7614 62.74 39.7045 62.74 39.6477 62.74 39.5909 62.74 39.5341 62.74 39.4773 62.74 39.4205 62.74 39.3636 62.74 39.3068 62.74 39.25 62.74 39.1932 62.74 39.1364 62.74 39.0795 62.74 39.0227 62.74 38.9659 62.74 38.9091 62.74 38.8523 62.74 38.7955 62.74 38.7386 62.74 38.6818 62.74 38.625 62.74 38.5682 62.74 38.5114 62.74 38.4545 62.74 38.3977 62.74 38.3409 62.74 38.2841 62.74 38.2273 62.74 38.1705 62.74 38.1136 62.74 38.0568 62.74 38 62.74 37.9432 62.74 37.8864 62.74 37.8295 62.74 37.7727 62.74 37.7159 62.74 37.6591 62.74 37.6023 62.74 37.5455 62.74 37.4886 62.74 37.4318 62.74 37.375 62.74 37.3182 62.74 37.2614 62.74 37.2045 62.74 37.1477 62.74 37.0909 62.74 37.0341 62.74 36.9773 62.74 36.9205 62.74 36.8636 62.74 36.8068 62.74 36.75 62.74 36.6932 62.74 36.6364 62.74 36.5795 62.74 36.5227 62.74 36.4659 62.74 36.4091 62.74 36.3523 62.74 36.2955 62.74 36.2386 62.74 36.1818 62.74 36.125 62.74 36.0682 62.74 36.0114 62.74 35.9545 62.74 35.8977 62.74 35.8409 62.74 35.7841 62.74 35.7273 62.74 35.6705 62.74 35.6136 62.74 35.5568 62.74 35.5 62.74 35.4432 62.74 35.3864 62.74 35.3295 62.74 35.2727 62.74 35.2159 62.74 35.1591 62.74 35.1023 62.74 35.0455 62.74 34.9886 62.74 34.9318 62.74 34.875 62.74 34.8182 62.74 34.7614 62.74 34.7045 62.74 34.6477 62.74 34.5909 62.74 34.5341 62.74 34.4773 62.74 34.4205 62.74 34.3636 62.74 34.3068 62.74 34.25 62.74 34.1932 62.74 34.1364 62.74 34.0795 62.74 34.0227 62.74 33.9659 62.74 33.9091 62.74 33.8523 62.74 33.7955 62.74 33.7386 62.74 33.6818 62.74 33.625 62.74 33.5682 62.74 33.5114 62.74 33.4545 62.74C31.5357 62.74 30 61.1965 30 59.3169L30 23.1631ZM39.7659 45.1916C38.9107 44.4925 37.6507 44.6189 36.9516 45.4741 36.2525 46.3293 36.379 47.5893 37.2341 48.2884L45.453 55.0077C45.8189 55.4536 46.3738 55.7386 46.9956 55.74L47.0145 55.7399 47.0312 55.7397C47.495 55.7469 47.9607 55.5933 48.3392 55.2793L56.777 48.2793C57.6271 47.574 57.7445 46.3131 57.0393 45.463 56.334 44.6129 55.0731 44.4955 54.223 45.2007L49.0092 49.5261 49.0437 33.7444C49.0461 32.6398 48.1526 31.7424 47.0481 31.74 45.9435 31.7376 45.0461 32.6311 45.0437 33.7356L45.0093 49.4783 39.7659 45.1916ZM27 75.74C25.8954 75.74 25 76.6354 25 77.74 25 78.8446 25.8954 79.74 27 79.74L34.5 79.74C35.6046 79.74 36.5 78.8446 36.5 77.74 36.5 76.6354 35.6046 75.74 34.5 75.74L27 75.74ZM12 66.24C10.8954 66.24 10 65.3446 10 64.24L10 56.74C10 55.6354 10.8954 54.74 12 54.74 13.1046 54.74 14 55.6354 14 56.74L14 64.24C14 65.3446 13.1046 66.24 12 66.24ZM82 64.74C82 65.8446 82.8954 66.74 84 66.74 85.1046 66.74 86 65.8446 86 64.74L86 57.24C86 56.1354 85.1046 55.24 84 55.24 82.8954 55.24 82 56.1354 82 57.24L82 64.74ZM21 42.74C21 41.6354 20.1046 40.74 19 40.74L15.5 40.74C12.4624 40.74 10 43.2024 10 46.24L10 49.74C10 50.8446 10.8954 51.74 12 51.74 13.1046 51.74 14 50.8446 14 49.74L14 46.24C14 45.4116 14.6716 44.74 15.5 44.74L19 44.74C20.1046 44.74 21 43.8446 21 42.74ZM77 40.74C75.8954 40.74 75 41.6354 75 42.74 75 43.8446 75.8954 44.74 77 44.74L80.5 44.74C81.3284 44.74 82 45.4116 82 46.24L82 49.74C82 50.8446 82.8954 51.74 84 51.74 85.1046 51.74 86 50.8446 86 49.74L86 46.24C86 43.2024 83.5376 40.74 80.5 40.74L77 40.74ZM12 68.74C10.8954 68.74 10 69.6354 10 70.74L10 74.24C10 77.2776 12.4624 79.74 15.5 79.74L19 79.74C20.1046 79.74 21 78.8446 21 77.74 21 76.6354 20.1046 75.74 19 75.74L15.5 75.74C14.6716 75.74 14 75.0684 14 74.24L14 70.74C14 69.6354 13.1046 68.74 12 68.74ZM86 70.74C86 69.6354 85.1046 68.74 84 68.74 82.8954 68.74 82 69.6354 82 70.74L82 74.24C82 75.0684 81.3284 75.74 80.5 75.74L77 75.74C75.8954 75.74 75 76.6354 75 77.74 75 78.8446 75.8954 79.74 77 79.74L80.5 79.74C83.5376 79.74 86 77.2776 86 74.24L86 70.74ZM42 77.74C42 76.6354 42.8954 75.74 44 75.74L51.5 75.74C52.6046 75.74 53.5 76.6354 53.5 77.74 53.5 78.8446 52.6046 79.74 51.5 79.74L44 79.74C42.8954 79.74 42 78.8446 42 77.74ZM61 75.74C59.8954 75.74 59 76.6354 59 77.74 59 78.8446 59.8954 79.74 61 79.74L68.5 79.74C69.6046 79.74 70.5 78.8446 70.5 77.74 70.5 76.6354 69.6046 75.74 68.5 75.74L61 75.74Z" class="MsftOfcThm_Background1_Fill_v2" stroke="none" stroke-width="1" stroke-linecap="butt" stroke-linejoin="miter" stroke-miterlimit="4" fill="#FFFFFF" fill-rule="evenodd" fill-opacity="1" clip-rule="evenodd"/></svg>