<svg width="96" height="96" viewBox="0 0 96 96" xmlns="http://www.w3.org/2000/svg" xmlns:xlink="http://www.w3.org/1999/xlink" fill="none" overflow="hidden"><style>
.MsftOfcThm_Background1_Fill_v2 {
 fill:#FFFFFF; 
}
</style>
<path d="M50.0004 35.7881 50.0004 19.0679C64.4232 20.0502 75.9506 31.5776 76.933 46.0004L60.2126 46.0004C59.1081 46.0004 58.2126 46.8958 58.2126 48.0004 58.2126 49.1049 59.1081 50.0004 60.2126 50.0004L76.933 50.0004C75.9507 64.4231 64.4232 75.9506 50.0004 76.933L50.0004 60.2126C50.0004 59.1081 49.105 58.2126 48.0004 58.2126 46.8958 58.2126 46.0004 59.1081 46.0004 60.2126L46.0004 76.9329C31.5777 75.9505 20.0503 64.4231 19.0679 50.0004L35.7881 50.0004C36.8927 50.0004 37.7881 49.1049 37.7881 48.0004 37.7881 46.8958 36.8927 46.0004 35.7881 46.0004L19.068 46.0004C20.0504 31.5777 31.5778 20.0503 46.0004 19.0679L46.0004 35.7881C46.0004 36.8927 46.8958 37.7881 48.0004 37.7881 49.105 37.7881 50.0004 36.8927 50.0004 35.7881ZM48.0005 81.0008C29.7806 81.0008 15.0093 66.2353 15.0001 48.0176L15 48.0004 15.0001 47.9831C15.0094 29.7654 29.7806 15 48.0005 15 66.2261 15 81.0009 29.7748 81.0009 48.0004 81.0009 66.226 66.2261 81.0008 48.0005 81.0008Z" class="MsftOfcThm_Background1_Fill_v2" stroke="none" stroke-width="1" stroke-linecap="butt" stroke-linejoin="miter" stroke-miterlimit="4" fill="#FFFFFF" fill-rule="evenodd" fill-opacity="1" clip-rule="evenodd"/></svg>