<svg width="96" height="96" viewBox="0 0 96 96" xmlns="http://www.w3.org/2000/svg" xmlns:xlink="http://www.w3.org/1999/xlink" fill="none" overflow="hidden"><style>
.MsftOfcThm_Background1_Fill_v2 {
 fill:#FFFFFF; 
}
</style>
<path d="M6 29C6 23.4772 10.4772 19 16 19L80 19C85.5228 19 90 23.4772 90 29L90 67C90 72.5229 85.5229 77 80 77L16 77C10.4772 77 6 72.5228 6 67L6 29ZM16 23C12.6863 23 10 25.6863 10 29L10 35 86 35 86 29C86 25.6863 83.3137 23 80 23L16 23ZM10 67 10 39 86 39 86 67C86 70.3137 83.3137 73 80 73L16 73C12.6863 73 10 70.3137 10 67ZM18.4597 45.8564C17.3551 45.8564 16.4597 46.7519 16.4598 47.8565 16.4598 48.9611 17.3553 49.8564 18.4599 49.8564L47.1005 49.8549C48.2051 49.8548 49.1005 48.9593 49.1004 47.8547 49.1004 46.7502 48.2049 45.8548 47.1003 45.8549L18.4597 45.8564ZM16.4598 58.5975C16.4597 57.4929 17.3551 56.5974 18.4597 56.5974L32.78 56.5966C33.8846 56.5965 34.78 57.4919 34.7801 58.5965 34.7802 59.701 33.8848 60.5965 32.7802 60.5966L18.4599 60.5974C17.3553 60.5974 16.4598 59.702 16.4598 58.5975ZM64.1127 45.8564C63.0082 45.8564 62.1128 46.7519 62.1129 47.8565 62.1129 48.9611 63.0084 49.8564 64.113 49.8564L77.5403 49.8557C78.6449 49.8556 79.5403 48.9601 79.5402 47.8556 79.5401 46.751 78.6447 45.8556 77.5401 45.8557L64.1127 45.8564Z" class="MsftOfcThm_Background1_Fill_v2" stroke="none" stroke-width="1" stroke-linecap="butt" stroke-linejoin="miter" stroke-miterlimit="4" fill="#FFFFFF" fill-rule="evenodd" fill-opacity="1" clip-rule="evenodd"/></svg>