<svg width="96" height="96" viewBox="0 0 96 96" xmlns="http://www.w3.org/2000/svg" xmlns:xlink="http://www.w3.org/1999/xlink" fill="none" overflow="hidden"><style>
.MsftOfcThm_Background1_Fill_v2 {
 fill:#FFFFFF; 
}
</style>
<path d="M18.2388 16.2607C17.1342 16.2607 16.2388 17.1562 16.2388 18.2607L16.2388 31.5164C16.2388 32.621 17.1342 33.5164 18.2388 33.5164 19.3433 33.5164 20.2388 32.621 20.2388 31.5164L20.2388 22.9934 45.1716 47.9262 20.239 72.8588 20.239 64.4842C20.239 63.3796 19.3436 62.4842 18.239 62.4842 17.1344 62.4842 16.239 63.3796 16.239 64.4842L16.239 77.7399C16.239 78.8444 17.1344 79.7399 18.239 79.7399L31.5374 79.7399C32.642 79.7399 33.5374 78.8444 33.5374 77.7399 33.5374 76.6353 32.642 75.7399 31.5374 75.7399L23.0148 75.7399 48 50.7546 72.9852 75.7399 64.4626 75.7399C63.358 75.7399 62.4626 76.6353 62.4626 77.7399 62.4626 78.8444 63.358 79.7399 64.4626 79.7399L77.761 79.7399C78.8656 79.7399 79.761 78.8444 79.761 77.7399L79.761 64.4842C79.761 63.3796 78.8656 62.4842 77.761 62.4842 76.6564 62.4842 75.761 63.3796 75.761 64.4842L75.761 72.8588 50.8284 47.9262 75.7612 22.9934 75.7612 31.5164C75.7612 32.621 76.6567 33.5164 77.7612 33.5164 78.8658 33.5164 79.7612 32.621 79.7612 31.5164L79.7612 18.2607C79.7612 17.1562 78.8658 16.2607 77.7612 16.2607L64.4628 16.2607C63.3582 16.2607 62.4628 17.1562 62.4628 18.2607 62.4628 19.3653 63.3582 20.2607 64.4628 20.2607L72.837 20.2607 48 45.0978 23.163 20.2607 31.5372 20.2607C32.6418 20.2607 33.5372 19.3653 33.5372 18.2607 33.5372 17.1562 32.6418 16.2607 31.5372 16.2607L18.2388 16.2607Z" class="MsftOfcThm_Background1_Fill_v2" stroke="none" stroke-width="1" stroke-linecap="butt" stroke-linejoin="miter" stroke-miterlimit="4" fill="#FFFFFF" fill-rule="evenodd" fill-opacity="1" clip-rule="evenodd"/></svg>