<svg width="96" height="96" viewBox="0 0 96 96" xmlns="http://www.w3.org/2000/svg" xmlns:xlink="http://www.w3.org/1999/xlink" fill="none" overflow="hidden"><style>
.MsftOfcThm_Background1_Fill_v2 {
 fill:#FFFFFF; 
}
</style>
<path d="M20.246 23.7C20.246 21.0442 22.2182 18.5 25.1075 18.5L39.4152 18.5C42.3045 18.5 44.2767 21.0442 44.2767 23.7L44.2767 29.7 51.7229 29.7 51.7229 23.7C51.7229 21.0442 53.6951 18.5 56.5844 18.5L70.8921 18.5C73.7814 18.5 75.7536 21.0442 75.7536 23.7L75.7536 29.7 76.6152 29.7C82.6653 29.7 87.1998 35.1096 87.1998 41.3L87.1998 68.5C87.1998 74.6904 82.6653 80.1 76.6152 80.1L19.3844 80.1C13.3343 80.1 8.7998 74.6904 8.7998 68.5L8.7998 41.3C8.7998 35.1096 13.3343 29.7 19.3844 29.7L20.246 29.7 20.246 23.7ZM25.1075 22.5C24.8361 22.5 24.246 22.8211 24.246 23.7L24.246 31.7C24.246 32.8046 23.3505 33.7 22.246 33.7L19.3844 33.7C15.9522 33.7 12.7998 36.8865 12.7998 41.3L12.7998 68.5C12.7998 72.9135 15.9522 76.1 19.3844 76.1L76.6152 76.1C80.0474 76.1 83.1998 72.9135 83.1998 68.5L83.1998 41.3C83.1998 36.8865 80.0474 33.7 76.6152 33.7L73.7537 33.7C72.6491 33.7 71.7537 32.8046 71.7537 31.7L71.7537 23.7C71.7537 22.8211 71.1635 22.5 70.8921 22.5L56.5844 22.5C56.313 22.5 55.7229 22.8211 55.7229 23.7L55.7229 31.7C55.7229 32.8046 54.8274 33.7 53.7229 33.7L42.2767 33.7C41.1722 33.7 40.2767 32.8046 40.2767 31.7L40.2767 23.7C40.2767 22.8211 39.6866 22.5 39.4152 22.5L25.1075 22.5Z" class="MsftOfcThm_Background1_Fill_v2" stroke="none" stroke-width="1" stroke-linecap="butt" stroke-linejoin="miter" stroke-miterlimit="4" fill="#FFFFFF" fill-rule="evenodd" fill-opacity="1" clip-rule="evenodd"/></svg>