<svg width="96" height="96" viewBox="0 0 96 96" xmlns="http://www.w3.org/2000/svg" xmlns:xlink="http://www.w3.org/1999/xlink" fill="none" overflow="hidden"><style>
.MsftOfcThm_Background1_Fill_v2 {
 fill:#FFFFFF; 
}
</style>
<path d="M17 48C17 30.8792 30.8792 17 48 17 65.1208 17 79 30.8792 79 48 79 65.1208 65.1208 79 48 79 30.8792 79 17 65.1208 17 48ZM48 13C28.67 13 13 28.67 13 48 13 67.33 28.67 83 48 83 67.33 83 83 67.33 83 48 83 28.67 67.33 13 48 13ZM51.9868 21.2226C65.049 23.15 75.063 34.4054 75.063 47.9941L75.063 48.0068C75.063 61.5956 65.049 72.8509 51.9868 74.7784 49.8013 75.1009 48 73.2789 48 71.0698L48 24.9312C48 22.722 49.8013 20.9001 51.9868 21.2226Z" class="MsftOfcThm_Background1_Fill_v2" stroke="none" stroke-width="1" stroke-linecap="butt" stroke-linejoin="miter" stroke-miterlimit="4" fill="#FFFFFF" fill-rule="evenodd" fill-opacity="1" clip-rule="evenodd"/></svg>