<svg width="96" height="96" viewBox="0 0 96 96" xmlns="http://www.w3.org/2000/svg" xmlns:xlink="http://www.w3.org/1999/xlink" fill="none" overflow="hidden"><style>
.MsftOfcThm_Background1_Fill_v2 {
 fill:#FFFFFF; 
}
</style>
<path d="M13 26C13 22.6863 15.6863 20 19 20L77 20C80.3137 20 83 22.6863 83 26L83 70C83 73.3137 80.3137 76 77 76L19 76C15.6863 76 13 73.3137 13 70L13 26ZM19 16C13.4772 16 9 20.4772 9 26L9 70C9 75.5228 13.4772 80 19 80L77 80C82.5229 80 87 75.5228 87 70L87 26C87 20.4772 82.5229 16 77 16L19 16ZM23 47.5C23 48.8807 21.8807 50 20.5 50 19.1193 50 18 48.8807 18 47.5 18 46.1193 19.1193 45 20.5 45 21.8807 45 23 46.1193 23 47.5Z" class="MsftOfcThm_Background1_Fill_v2" stroke="none" stroke-width="1" stroke-linecap="butt" stroke-linejoin="miter" stroke-miterlimit="4" fill="#FFFFFF" fill-rule="evenodd" fill-opacity="1" clip-rule="evenodd"/></svg>