<svg width="96" height="96" viewBox="0 0 96 96" xmlns="http://www.w3.org/2000/svg" xmlns:xlink="http://www.w3.org/1999/xlink" fill="none" overflow="hidden"><style>
.MsftOfcThm_Background1_Fill_v2 {
 fill:#FFFFFF; 
}
</style>
<path d="M47.707 27.3333C49.3639 27.3333 50.707 25.9901 50.707 24.3333 50.707 22.6764 49.3639 21.3333 47.707 21.3333 46.0502 21.3333 44.707 22.6764 44.707 24.3333 44.707 25.9901 46.0502 27.3333 47.707 27.3333ZM35.344 31C37.0008 31 38.344 29.6569 38.344 28 38.344 26.3431 37.0008 25 35.344 25 33.6871 25 32.344 26.3431 32.344 28 32.344 29.6569 33.6871 31 35.344 31ZM29.2439 37.2334C29.2439 38.8903 27.9008 40.2334 26.2439 40.2334 24.587 40.2334 23.2439 38.8903 23.2439 37.2334 23.2439 35.5765 24.587 34.2334 26.2439 34.2334 27.9008 34.2334 29.2439 35.5765 29.2439 37.2334ZM72.1716 37.2334C72.1716 38.8903 70.8285 40.2334 69.1716 40.2334 67.5148 40.2334 66.1716 38.8903 66.1716 37.2334 66.1716 35.5765 67.5148 34.2334 69.1716 34.2334 70.8285 34.2334 72.1716 35.5765 72.1716 37.2334ZM63.072 28C63.072 29.6569 61.7289 31 60.072 31 58.4152 31 57.072 29.6569 57.072 28 57.072 26.3431 58.4152 25 60.072 25 61.7289 25 63.072 26.3431 63.072 28ZM8 54C8 48.4772 12.4772 44 18 44L78 44C83.5228 44 88 48.4772 88 54L88 66C88 71.5229 83.5229 76 78 76L18 76C12.4772 76 8 71.5229 8 66L8 54ZM18 48C14.6863 48 12 50.6863 12 54L12 66C12 69.3137 14.6863 72 18 72L24 72 24 48 18 48ZM28 48 28 72 68 72 68 48 60 48C60 53.5228 55.5229 58 50 58L46 58C40.4772 58 36 53.5228 36 48L28 48ZM40 48C40 51.3137 42.6863 54 46 54L50 54C53.3137 54 56 51.3137 56 48L40 48ZM78 72 72 72 72 48 78 48C81.3137 48 84 50.6863 84 54L84 66C84 69.3137 81.3137 72 78 72Z" class="MsftOfcThm_Background1_Fill_v2" stroke="none" stroke-width="1" stroke-linecap="butt" stroke-linejoin="miter" stroke-miterlimit="4" fill="#FFFFFF" fill-rule="evenodd" fill-opacity="1" clip-rule="evenodd"/></svg>