<svg width="96" height="96" viewBox="0 0 96 96" xmlns="http://www.w3.org/2000/svg" xmlns:xlink="http://www.w3.org/1999/xlink" fill="none" overflow="hidden"><style>
.MsftOfcThm_Background1_Fill_v2 {
 fill:#FFFFFF; 
}
</style>
<path d="M57.8398 53.8144C62.405 50.6535 65.5261 45.5546 66.0133 39.7074 64.1745 39.1182 62.2144 38.8002 60.1799 38.8002 56.8537 38.8002 53.7261 39.6504 51.0025 41.1454 54.4986 44.4648 56.9568 48.8668 57.8398 53.8144ZM54.0894 55.833C51.892 56.7148 49.4927 57.2 46.98 57.2 44.9456 57.2 42.9854 56.8819 41.1466 56.2928 41.5714 51.1944 43.9988 46.6648 47.64 43.4929 51.1713 46.5691 53.561 50.9223 54.0894 55.833ZM44.2774 41.1454C40.6023 44.6348 38.0741 49.3206 37.3169 54.5788 32.2319 51.5906 28.6523 46.3158 27.9906 40.1672 30.188 39.2854 32.5873 38.8002 35.1 38.8002 38.4262 38.8002 41.5538 39.6504 44.2774 41.1454ZM47.64 38.4969C51.2514 36.1581 55.5571 34.8002 60.1799 34.8002 62.1567 34.8002 64.0754 35.0485 65.9066 35.5156 64.6451 26.1893 56.6521 19 46.98 19 37.1718 19 29.0903 26.393 28.0041 35.9105 30.2399 35.1896 32.6245 34.8002 35.1 34.8002 39.7229 34.8002 44.0286 36.1581 47.64 38.4969ZM23.8834 37.7014C16.7953 41.6459 12 49.213 12 57.9002 12 70.658 22.3422 81.0002 35.1 81.0002 39.7229 81.0002 44.0286 79.6422 47.64 77.3034 51.2514 79.6422 55.5571 81.0002 60.1799 81.0002 72.9377 81.0002 83.2799 70.658 83.2799 57.9002 83.2799 48.6754 77.8727 40.7135 70.0548 37.0112 69.4863 24.759 59.3728 15 46.98 15 34.3554 15 24.0961 25.1275 23.8834 37.7014ZM24.2402 42.1858C19.2613 45.6331 16 51.3858 16 57.9002 16 68.4488 24.5514 77.0002 35.1 77.0002 38.4262 77.0002 41.5538 76.1499 44.2774 74.6549 40.0895 70.6787 37.391 65.149 37.1051 58.9889 30.4689 55.8462 25.5696 49.6342 24.2402 42.1858ZM47.64 72.3075C44.2332 69.3397 41.8889 65.1834 41.2533 60.4846 43.0846 60.9517 45.0033 61.2 46.98 61.2 49.4555 61.2 51.8401 60.8106 54.0759 60.0897 53.5211 64.9503 51.1419 69.2568 47.64 72.3075ZM51.0025 74.6549C55.3462 70.5308 58.0877 64.7353 58.1966 58.2988 64.3645 54.8664 68.7962 48.6909 69.843 41.4213 75.4896 44.7396 79.2799 50.8773 79.2799 57.9002 79.2799 68.4488 70.7286 77.0002 60.1799 77.0002 56.8537 77.0002 53.7261 76.1499 51.0025 74.6549Z" class="MsftOfcThm_Background1_Fill_v2" stroke="none" stroke-width="1" stroke-linecap="butt" stroke-linejoin="miter" stroke-miterlimit="4" fill="#FFFFFF" fill-rule="evenodd" fill-opacity="1" clip-rule="evenodd"/></svg>