<svg viewBox="0 0 96 96" xmlns="http://www.w3.org/2000/svg" xmlns:xlink="http://www.w3.org/1999/xlink" overflow="hidden"><style>
.MsftOfcThm_Background1_Fill_v2 {
 fill:#FFFFFF; 
}
</style>
<g><g id="Layer_1"><g><path d="M26 32C22.7 32 20 34.7 20 38 20 41.3 22.7 44 26 44 29.3 44 32 41.3 32 38 32 34.7 29.3 32 26 32ZM26 39.9C25 39.9 24.1 39.1 24.1 38 24.1 36.9 24.9 36.1 26 36.1 27.1 36.1 27.9 36.9 27.9 38 27.9 39.1 27.1 39.9 26 39.9Z" class="MsftOfcThm_Background1_Fill_v2" stroke="none" stroke-width="1" stroke-linecap="butt" stroke-linejoin="miter" stroke-miterlimit="4" fill="#FFFFFF" fill-opacity="1"/><path d="M83 68 13 68C11.9 68 11 68.9 11 70 11 71.1 11.9 72 13 72L83 72C84.1 72 85 71.1 85 70 85 68.9 84.1 68 83 68Z" class="MsftOfcThm_Background1_Fill_v2" stroke="none" stroke-width="1" stroke-linecap="butt" stroke-linejoin="miter" stroke-miterlimit="4" fill="#FFFFFF" fill-opacity="1"/><path d="M83 79 13 79C11.9 79 11 79.9 11 81 11 82.1 11.9 83 13 83L83 83C84.1 83 85 82.1 85 81 85 79.9 84.1 79 83 79Z" class="MsftOfcThm_Background1_Fill_v2" stroke="none" stroke-width="1" stroke-linecap="butt" stroke-linejoin="miter" stroke-miterlimit="4" fill="#FFFFFF" fill-opacity="1"/><path d="M79 14 17 14C13.7 14 11 16.7 11 20L11 55C11 58.3 13.7 61 17 61L79 61C82.3 61 85 58.3 85 55L85 20C85 16.7 82.3 14 79 14ZM81 55C81 56.1 80.1 57 79 57L17 57C15.9 57 15 56.1 15 55L15 20C15 18.9 15.9 18 17 18L79 18C80.1 18 81 18.9 81 20L81 55Z" class="MsftOfcThm_Background1_Fill_v2" stroke="none" stroke-width="1" stroke-linecap="butt" stroke-linejoin="miter" stroke-miterlimit="4" fill="#FFFFFF" fill-opacity="1"/><path d="M48 26C41.4 26 36 31.1 36 37.5 36 43.9 41.4 49 48 49 54.6 49 60 43.9 60 37.5 60 31.1 54.6 26 48 26ZM48 45C43.4 45 40 41.5 40 37.5 40 33.5 43.4 30 48 30 52.6 30 56 33.5 56 37.5 56 41.5 52.6 45 48 45Z" class="MsftOfcThm_Background1_Fill_v2" stroke="none" stroke-width="1" stroke-linecap="butt" stroke-linejoin="miter" stroke-miterlimit="4" fill="#FFFFFF" fill-opacity="1"/></g><path d="M70 32C66.7 32 64 34.7 64 38 64 41.3 66.7 44 70 44 73.3 44 76 41.3 76 38 76 34.7 73.3 32 70 32ZM70 39.9C69 39.9 68.1 39.1 68.1 38 68.1 36.9 68.9 36.1 70 36.1 71.1 36.1 71.9 36.9 71.9 38 71.9 39.1 71.1 39.9 70 39.9Z" class="MsftOfcThm_Background1_Fill_v2" stroke="none" stroke-width="1" stroke-linecap="butt" stroke-linejoin="miter" stroke-miterlimit="4" fill="#FFFFFF" fill-opacity="1"/></g></g></svg>