<svg width="96" height="96" viewBox="0 0 96 96" xmlns="http://www.w3.org/2000/svg" xmlns:xlink="http://www.w3.org/1999/xlink" fill="none" overflow="hidden"><style>
.MsftOfcThm_Background1_Fill_v2 {
 fill:#FFFFFF; 
}
</style>
<path d="M50.9702 17.7C42.9421 17.7 36.109 22.7312 33.114 29.8482 31.9438 29.5363 30.7171 29.37 29.4502 29.37 21.2137 29.37 14.6902 36.3191 14.6902 44.7 14.6902 45.2793 14.7226 45.8474 14.7846 46.4052 10.1414 48.4837 6.9502 53.262 6.9502 58.77 6.9502 66.0539 12.5694 72.1102 19.7168 72.2297L19.7502 72.23 54.6002 72.23C55.7048 72.23 56.6002 71.3345 56.6002 70.23 56.6002 69.1254 55.7048 68.23 54.6002 68.23L19.7679 68.23C14.9622 68.1407 10.9502 64.0203 10.9502 58.77 10.9502 54.346 13.8038 50.7107 17.5791 49.6332 18.6002 49.3417 19.2155 48.3031 18.9807 47.2676 18.792 46.4356 18.6902 45.584 18.6902 44.7 18.6902 38.3608 23.5867 33.37 29.4502 33.37 30.8986 33.37 32.2685 33.6706 33.525 34.2151 34.0471 34.4413 34.6408 34.4345 35.1575 34.1962 35.6743 33.958 36.0651 33.511 36.2321 32.967 38.2563 26.3748 44.1317 21.7 50.9702 21.7 59.4442 21.7 66.4602 28.9013 66.4602 37.97L66.4602 37.9707 66.4602 37.9715 66.4602 37.9722 66.4602 37.973 66.4602 37.9738 66.4602 37.9745 66.4602 37.9753 66.4602 37.976 66.4602 37.9768 66.4602 37.9776 66.4602 37.9783 66.4602 37.9791 66.4602 37.9799 66.4602 37.9806 66.4602 37.9814 66.4602 37.9821 66.4602 37.9829 66.4602 37.9837 66.4602 37.9844 66.4602 37.9852 66.4602 37.9859 66.4602 37.9867 66.4602 37.9875 66.4602 37.9882 66.4602 37.989 66.4602 37.9898 66.4602 37.9905 66.4602 37.9913 66.4602 37.992 66.4602 37.9928 66.4602 37.9936 66.4602 37.9943 66.4602 37.9951 66.4602 37.9958 66.4602 37.9966 66.4602 37.9974 66.4602 37.9981 66.4602 37.9989 66.4602 37.9997 66.4602 38.0004 66.4602 38.0012 66.4602 38.0019 66.4602 38.0027 66.4602 38.0035 66.4602 38.0042 66.4602 38.005 66.4602 38.0058 66.4602 38.0065 66.4602 38.0073 66.4602 38.008 66.4602 38.0088 66.4602 38.0096 66.4602 38.0103 66.4602 38.0111 66.4602 38.0118 66.4602 38.0126 66.4602 38.0134 66.4602 38.0141 66.4602 38.0149 66.4602 38.0157 66.4602 38.0164 66.4602 38.0172 66.4602 38.0179 66.4602 38.0187 66.4602 38.0195 66.4602 38.0202 66.4602 38.021 66.4602 38.0217 66.4602 38.0225 66.4602 38.0233 66.4602 38.024 66.4602 38.0248 66.4602 38.0256 66.4602 38.0263 66.4602 38.0271 66.4602 38.0278 66.4602 38.0286 66.4602 38.0294 66.4602 38.0301 66.4602 38.0309 66.4602 38.0317 66.4602 38.0324 66.4602 38.0332 66.4602 38.0339 66.4602 38.0347 66.4602 38.0355 66.4602 38.0362 66.4602 38.037 66.4602 38.0377 66.4602 38.0385 66.4602 38.0393 66.4602 38.04 66.4602 38.0408 66.4602 38.0416 66.4602 38.0423 66.4602 38.0431 66.4602 38.0438 66.4602 38.0446 66.4602 38.0454 66.4602 38.0461 66.4602 38.0469 66.4602 38.0476 66.4602 38.0484 66.4602 38.0492 66.4602 38.0499 66.4602 38.0507 66.4602 38.0515 66.4602 38.0522 66.4602 38.053 66.4602 38.0537 66.4602 38.0545 66.4602 38.0553 66.4602 38.056 66.4602 38.0568 66.4602 38.0575 66.4602 38.0583 66.4602 38.0591 66.4602 38.0598 66.4602 38.0606 66.4602 38.0614 66.4602 38.0621 66.4602 38.0629 66.4602 38.0636 66.4602 38.0644 66.4602 38.0652 66.4602 38.0659 66.4602 38.0667 66.4602 38.0675 66.4602 38.0682 66.4602 38.069 66.4602 38.0697 66.4602 38.0705 66.4602 38.0713 66.4602 38.072 66.4602 38.0728 66.4602 38.0735 66.4602 38.0743 66.4602 38.0751 66.4602 38.0758 66.4602 38.0766 66.4602 38.0774 66.4602 38.0781 66.4602 38.0789 66.4602 38.0796 66.4602 38.0804 66.4602 38.0812 66.4602 38.0819 66.4602 38.0827 66.4602 38.0834 66.4602 38.0842 66.4602 38.085 66.4602 38.0857 66.4602 38.0865 66.4602 38.0873 66.4602 38.088 66.4602 38.0888 66.4602 38.0895 66.4602 38.0903 66.4602 38.0911 66.4602 38.0918 66.4602 38.0926 66.4602 38.0933 66.4602 38.0941 66.4602 38.0949 66.4602 38.0956 66.4602 38.0964 66.4602 38.0972 66.4602 38.0979 66.4602 38.0987 66.4602 38.0994 66.4602 38.1002 66.4602 38.101 66.4602 38.1017 66.4602 38.1025 66.4602 38.1033 66.4602 38.104 66.4602 38.1048 66.4602 38.1055 66.4602 38.1063 66.4602 38.1071 66.4602 38.1078 66.4602 38.1086 66.4602 38.1093 66.4602 38.1101 66.4602 38.1109 66.4602 38.1116 66.4602 38.1124 66.4602 38.1132 66.4602 38.1139 66.4602 38.1147 66.4602 38.1154 66.4602 38.1162 66.4602 38.117 66.4602 38.1177 66.4602 38.1185 66.4602 38.1192 66.4602 38.12 66.4602 38.1208 66.4602 38.1215 66.4602 38.1223 66.4602 38.1231 66.4602 38.1238 66.4602 38.1246 66.4602 38.1253 66.4602 38.1261 66.4602 38.1269 66.4602 38.1276 66.4602 38.1284 66.4602 38.1292 66.4602 38.1299 66.4602 38.1307 66.4602 38.1314 66.4602 38.1322 66.4602 38.133 66.4602 38.1337 66.4602 38.1345 66.4602 38.1352 66.4602 38.136 66.4602 38.1368 66.4602 38.1375 66.4602 38.1383 66.4602 38.1391 66.4602 38.1398 66.4602 38.1406 66.4602 38.1413 66.4602 38.1421 66.4602 38.1429 66.4602 38.1436 66.4602 38.1444 66.4602 38.1451 66.4602 38.1459 66.4602 38.1467 66.4602 38.1474 66.4602 38.1482 66.4602 38.149 66.4602 38.1497 66.4602 38.1505 66.4602 38.1512 66.4602 38.152 66.4602 38.1528 66.4602 38.1535 66.4602 38.1543 66.4602 38.155 66.4602 38.1558 66.4602 38.1566 66.4602 38.1573 66.4602 38.1581 66.4602 38.1589 66.4602 38.1596 66.4602 38.1604 66.4602 38.1611 66.4602 38.1619 66.4602 38.1627 66.4602 38.1634 66.4602 38.1642 66.4602 38.165 66.4602 38.1657 66.4602 38.1665 66.4602 38.1672 66.4602 38.168 66.4602 38.1688 66.4602 38.1695 66.4602 38.1703 66.4602 38.171 66.4602 38.1718 66.4602 38.1726 66.4602 38.1733 66.4602 38.1741 66.4602 38.1749 66.4602 38.1756 66.4602 38.1764 66.4602 38.1771 66.4602 38.1779 66.4602 38.1787 66.4602 38.1794 66.4602 38.1802 66.4602 38.1809 66.4602 38.1817 66.4602 38.1825 66.4602 38.1832 66.4602 38.184 66.4602 38.1848 66.4602 38.1855 66.4602 38.1863 66.4602 38.187 66.4602 38.1878 66.4602 38.1886 66.4602 38.1893 66.4602 38.1901 66.4602 38.1908 66.4602 38.1916 66.4602 38.1924 66.4602 38.1931 66.4602 38.1939 66.4602 38.1947 66.4602 38.1954 66.4602 38.1962 66.4602 38.1969 66.4602 38.1977 66.4602 38.1985 66.4602 38.1992 66.4602 38.2 66.4602 38.2008 66.4602 38.2015 66.4602 38.2023 66.4602 38.203 66.4602 38.2038 66.4602 38.2046 66.4602 38.2053 66.4602 38.2061 66.4602 38.2068 66.4602 38.2076 66.4602 38.2084 66.4602 38.2091 66.4602 38.2099 66.4602 38.2107 66.4602 38.2114 66.4602 38.2122 66.4602 38.2129 66.4602 38.2137 66.4602 38.2145 66.4602 38.2152 66.4602 38.216 66.4602 38.2167 66.4602 38.2175 66.4602 38.2183 66.4602 38.219 66.4602 38.2198 66.4602 38.2206 66.4602 38.2213 66.4602 38.2221 66.4602 38.2228 66.4602 38.2236 66.4602 38.2244 66.4602 38.2251 66.4602 38.2259 66.4602 38.2267 66.4602 38.2274 66.4602 38.2282 66.4602 38.2289 66.4602 38.2297 66.4602 38.2305 66.4602 38.2312 66.4602 38.232 66.4602 38.2327 66.4602 38.2335 66.4602 38.2343 66.4602 38.235 66.4602 38.2358 66.4602 38.2366 66.4602 38.2373 66.4602 38.2381 66.4602 38.2388 66.4602 38.2396 66.4602 38.2404 66.4602 38.2411 66.4602 38.2419 66.4602 38.2426 66.4602 38.2434 66.4602 38.2442 66.4602 38.2449 66.4602 38.2457 66.4602 38.2465 66.4602 38.2472 66.4602 38.248 66.4602 38.2487 66.4602 38.2495 66.4602 38.2503 66.4602 38.251 66.4602 38.2518 66.4602 38.2525 66.4602 38.2533 66.4602 38.2541 66.4602 38.2548 66.4602 38.2556 66.4602 38.2564 66.4602 38.2571 66.4602 38.2579 66.4602 38.2586 66.4602 38.2594 66.4602 38.2602 66.4602 38.2609 66.4602 38.2617 66.4602 38.2625 66.4602 38.2632 66.4602 38.264 66.4602 38.2647 66.4602 38.2655 66.4602 38.2663 66.4602 38.267 66.4602 38.2678 66.4602 38.2685 66.4602 38.2693 66.4602 38.2701 66.4602 38.2708 66.4602 38.2716 66.4602 38.2724 66.4602 38.2731 66.4602 38.2739 66.4602 38.2746 66.4602 38.2754 66.4602 38.2762 66.4602 38.2769 66.4602 38.2777 66.4602 38.2784 66.4602 38.2792 66.4602 38.28 66.4602 38.2807 66.4602 38.2815 66.4602 38.2823 66.4602 38.283 66.4602 38.2838 66.4602 38.2845 66.4602 38.2853 66.4602 38.2861 66.4602 38.2868 66.4602 38.2876 66.4602 38.2883 66.4602 38.2891 66.4602 38.2899 66.4602 38.2906 66.4602 38.2914 66.4602 38.2922 66.4602 38.2929 66.4602 38.2937 66.4602 38.2944 66.4602 38.2952 66.4602 38.296 66.4602 38.2967 66.4602 38.2975 66.4602 38.2983 66.4602 38.299 66.4602 38.2998 66.4602 38.3005 66.4602 38.3013 66.4602 38.3021 66.4602 38.3028 66.4602 38.3036 66.4602 38.3043 66.4602 38.3051 66.4602 38.3059 66.4602 38.3066 66.4602 38.3074 66.4602 38.3082 66.4602 38.3089 66.4602 38.3097 66.4602 38.3104 66.4602 38.3112 66.4602 38.312 66.4602 38.3127 66.4602 38.3135 66.4602 38.3142 66.4602 38.315 66.4602 38.3158 66.4602 38.3165 66.4602 38.3173 66.4602 38.3181 66.4602 38.3188 66.4602 38.3196 66.4602 38.3203 66.4602 38.3211 66.4602 38.3219 66.4602 38.3226 66.4602 38.3234 66.4602 38.3242 66.4602 38.3249 66.4602 38.3257 66.4602 38.3264 66.4602 38.3272 66.4602 38.328 66.4602 38.3287 66.4602 38.3295 66.4602 38.3302 66.4602 38.331 66.4602 38.3318 66.4602 38.3325 66.4602 38.3333 66.4602 38.3341 66.4602 38.3348 66.4602 38.3356 66.4602 38.3363 66.4602 38.3371 66.4602 38.3379 66.4602 38.3386 66.4602 38.3394 66.4602 38.3401 66.4602 38.3409 66.4602 38.3417 66.4602 38.3424 66.4602 38.3432 66.4602 38.344 66.4602 38.3447 66.4602 38.3455 66.4602 38.3462 66.4602 38.347 66.4602 38.3478 66.4602 38.3485 66.4602 38.3493 66.4602 38.35 66.4602 38.3508 66.4602 38.3516 66.4602 38.3523 66.4602 38.3531 66.4602 38.3539 66.4602 38.3546 66.4602 38.3554 66.4602 38.3561 66.4602 38.3569 66.4602 38.3577 66.4602 38.3584 66.4602 38.3592 66.4602 38.36C66.4602 39.4189 67.2856 40.2943 68.3428 40.3565 71.8571 40.5632 75.0138 42.2073 77.2968 44.7703 78.0315 45.595 79.2957 45.6681 80.1205 44.9334 80.9453 44.1987 81.0183 42.9344 80.2836 42.1096 77.74 39.2541 74.3065 37.2396 70.4145 36.5737 69.7264 26.1016 61.3583 17.7 50.9702 17.7ZM57.5996 61.57C57.5996 53.44 64.1896 46.85 72.3196 46.85 80.4496 46.85 87.0396 53.44 87.0396 61.57 87.0396 69.7 80.4496 76.29 72.3196 76.29 64.1896 76.29 57.5996 69.7 57.5996 61.57ZM78.5996 67.85C79.3796 67.07 79.3796 65.8 78.5996 65.02L78.6196 65.02 75.1696 61.57 78.6196 58.12C79.3996 57.34 79.3996 56.07 78.6196 55.29 77.8396 54.51 76.5696 54.51 75.7896 55.29L72.3396 58.74 68.8896 55.29C68.1096 54.51 66.8396 54.51 66.0596 55.29 65.2796 56.07 65.2796 57.34 66.0596 58.12L69.5096 61.57 66.0596 65.02C65.2796 65.8 65.2796 67.07 66.0596 67.85 66.4496 68.24 66.9596 68.44 67.4696 68.44 67.9796 68.44 68.4896 68.24 68.8796 67.85L72.3296 64.4 75.7796 67.85C76.1696 68.24 76.6796 68.44 77.1896 68.44 77.6996 68.44 78.2096 68.24 78.5996 67.85Z" class="MsftOfcThm_Background1_Fill_v2" stroke="none" stroke-width="1" stroke-linecap="butt" stroke-linejoin="miter" stroke-miterlimit="4" fill="#FFFFFF" fill-rule="evenodd" fill-opacity="1" clip-rule="evenodd"/></svg>