<svg width="96" height="96" viewBox="0 0 96 96" xmlns="http://www.w3.org/2000/svg" xmlns:xlink="http://www.w3.org/1999/xlink" fill="none" overflow="hidden"><style>
.MsftOfcThm_Background1_Fill_v2 {
 fill:#FFFFFF; 
}
</style>
<path d="M54.917 19.1489C58.8223 15.2437 65.1539 15.2437 69.0592 19.1489L76.8511 26.9409C80.7564 30.8461 80.7564 37.1778 76.8511 41.083L41.083 76.8511C37.1778 80.7564 30.8461 80.7564 26.9409 76.8511L19.1489 69.0592C15.2437 65.1539 15.2437 58.8223 19.1489 54.917L54.917 19.1489ZM66.2307 21.9773C63.8876 19.6342 60.0886 19.6342 57.7455 21.9773L21.9773 57.7455C19.6342 60.0886 19.6342 63.8876 21.9773 66.2307L29.7693 74.0227C32.1124 76.3658 35.9114 76.3658 38.2546 74.0227L74.0227 38.2546C76.3658 35.9114 76.3658 32.1124 74.0227 29.7693L66.2307 21.9773ZM50.4844 40.8809C50.4844 42.2616 49.3651 43.3809 47.9844 43.3809 46.6037 43.3809 45.4844 42.2616 45.4844 40.8809 45.4844 39.5002 46.6037 38.3809 47.9844 38.3809 49.3651 38.3809 50.4844 39.5002 50.4844 40.8809ZM40.9844 50.3812C42.3651 50.3812 43.4844 49.2619 43.4844 47.8812 43.4844 46.5005 42.3651 45.3812 40.9844 45.3812 39.6037 45.3812 38.4844 46.5005 38.4844 47.8812 38.4844 49.2619 39.6037 50.3812 40.9844 50.3812ZM57.4844 47.8812C57.4844 49.2619 56.3651 50.3812 54.9844 50.3812 53.6037 50.3812 52.4844 49.2619 52.4844 47.8812 52.4844 46.5005 53.6037 45.3812 54.9844 45.3812 56.3651 45.3812 57.4844 46.5005 57.4844 47.8812ZM47.9844 57.3812C49.3651 57.3812 50.4844 56.2619 50.4844 54.8812 50.4844 53.5005 49.3651 52.3812 47.9844 52.3812 46.6037 52.3812 45.4844 53.5005 45.4844 54.8812 45.4844 56.2619 46.6037 57.3812 47.9844 57.3812Z" class="MsftOfcThm_Background1_Fill_v2" stroke="none" stroke-width="1" stroke-linecap="butt" stroke-linejoin="miter" stroke-miterlimit="4" fill="#FFFFFF" fill-rule="evenodd" fill-opacity="1" clip-rule="evenodd"/></svg>