<svg width="96" height="96" viewBox="0 0 96 96" xmlns="http://www.w3.org/2000/svg" xmlns:xlink="http://www.w3.org/1999/xlink" fill="none" overflow="hidden"><style>
.MsftOfcThm_Background1_Fill_v2 {
 fill:#FFFFFF; 
}
</style>
<path d="M29.2998 15.75 47.4986 15.75C47.5648 15.7434 47.6319 15.74 47.6998 15.74 50.0037 15.74 52.2203 16.6279 53.8841 18.2265L53.8858 18.2281 72.8923 36.4147 72.8926 36.415C74.6701 38.1153 75.6698 40.4787 75.6698 42.93L75.6698 70.73C75.6698 75.6871 71.6619 79.72 66.7098 79.72L29.2998 79.72C24.3478 79.72 20.3398 75.6871 20.3398 70.73L20.3398 24.74C20.3398 19.7829 24.3478 15.75 29.2998 15.75ZM47.6998 19.75C47.757 19.75 47.8136 19.7476 47.8695 19.7429 49.0832 19.7844 50.2386 20.2705 51.1138 21.1119L51.1171 21.115 70.1271 39.305 70.1274 39.3053C71.1097 40.2449 71.6698 41.5614 71.6698 42.93L71.6698 70.73C71.6698 73.4929 69.4378 75.72 66.7098 75.72L29.2998 75.72C26.5719 75.72 24.3398 73.4929 24.3398 70.73L24.3398 24.74C24.3398 21.9771 26.5719 19.75 29.2998 19.75L47.6998 19.75ZM45.6602 66.47 45.6602 60.57 49.7502 60.57 49.7502 66.47 45.6602 66.47ZM43.9402 52.57C42.6293 52.57 41.6602 53.6423 41.6602 54.85L41.6602 66.47C41.6602 68.6911 43.4621 70.47 45.6602 70.47L49.7502 70.47C51.9712 70.47 53.7502 68.668 53.7502 66.47L53.7502 54.85C53.7502 53.5392 52.6779 52.57 51.4702 52.57L49.6898 52.57 49.6898 46.11 49.6898 43.89 52.9191 43.89C54.0236 43.89 54.9191 42.9946 54.9191 41.89 54.9191 40.7854 54.0236 39.89 52.9191 39.89L49.6898 39.89 49.6898 37.66 49.6898 35.44 52.9191 35.44C54.0236 35.44 54.9191 34.5446 54.9191 33.44 54.9191 32.3354 54.0236 31.44 52.9191 31.44L49.6898 31.44 49.6898 29.22C49.6898 28.1154 48.7944 27.22 47.6898 27.22L43.0898 27.22C41.9853 27.22 41.0898 28.1154 41.0898 29.22 41.0898 30.3246 41.9853 31.22 43.0898 31.22L45.6898 31.22 45.6898 35.66 43.0898 35.66C41.9853 35.66 41.0898 36.5554 41.0898 37.66 41.0898 38.7646 41.9853 39.66 43.0898 39.66L45.6898 39.66 45.6898 44.11 43.0898 44.11C41.9853 44.11 41.0898 45.0054 41.0898 46.11 41.0898 47.2146 41.9853 48.11 43.0898 48.11L45.6898 48.11 45.6898 52.57 43.9402 52.57Z" class="MsftOfcThm_Background1_Fill_v2" stroke="none" stroke-width="1" stroke-linecap="butt" stroke-linejoin="miter" stroke-miterlimit="4" fill="#FFFFFF" fill-rule="evenodd" fill-opacity="1" clip-rule="evenodd"/></svg>