<svg width="96" height="96" viewBox="0 0 96 96" xmlns="http://www.w3.org/2000/svg" xmlns:xlink="http://www.w3.org/1999/xlink" fill="none" overflow="hidden"><style>
.MsftOfcThm_Background1_Fill_v2 {
 fill:#FFFFFF; 
}
</style>
<path d="M29 24.3951C29 18.654 33.654 14 39.3951 14 42.8431 14 45.8991 15.6788 47.7902 18.2636 49.6812 15.6788 52.7372 14 56.1852 14 61.9263 14 66.5803 18.654 66.5803 24.3951 66.5803 27.3974 65.3075 30.1024 63.2721 32L72 32C76.4183 32 80 35.5817 80 40L80 44C80 46.9611 78.3912 49.5465 76 50.9297L76 70C76 75.5228 71.5228 80 66 80L30 80C24.4772 80 20 75.5228 20 70L20 50.9297C17.6088 49.5465 16 46.9611 16 44L16 40C16 35.5817 19.5817 32 24 32L32.3082 32C30.2728 30.1024 29 27.3974 29 24.3951ZM45.7902 30.7902 45.7902 24.3951C45.7902 20.8632 42.927 18 39.3951 18 35.8632 18 33 20.8632 33 24.3951 33 27.927 35.8632 30.7902 39.3951 30.7902L45.7902 30.7902ZM49.7901 30.7902 56.1852 30.7902C59.7171 30.7902 62.5803 27.927 62.5803 24.3951 62.5803 20.8632 59.7171 18 56.1852 18 52.6552 18 49.7932 20.8602 49.7902 24.3895 49.7902 24.3914 49.7902 24.3932 49.7902 24.3951L49.7901 30.7902ZM24 48 46 48 46 36 24 36C21.7909 36 20 37.7909 20 40L20 44C20 46.2091 21.7909 48 24 48ZM50 36 50 48 72 48C74.2091 48 76 46.2091 76 44L76 40C76 37.7909 74.2091 36 72 36L50 36ZM46 52 24 52 24 70C24 73.3137 26.6863 76 30 76L46 76 46 52ZM50 76 50 52 72 52 72 70C72 73.3137 69.3137 76 66 76L50 76Z" class="MsftOfcThm_Background1_Fill_v2" stroke="none" stroke-width="1" stroke-linecap="butt" stroke-linejoin="miter" stroke-miterlimit="4" fill="#FFFFFF" fill-rule="evenodd" fill-opacity="1" clip-rule="evenodd"/></svg>