<svg width="96" height="96" viewBox="0 0 96 96" xmlns="http://www.w3.org/2000/svg" xmlns:xlink="http://www.w3.org/1999/xlink" fill="none" overflow="hidden"><style>
.MsftOfcThm_Background1_Fill_v2 {
 fill:#FFFFFF; 
}
</style>
<path d="M54.3325 13.7785C50.6488 10.7646 45.3514 10.7646 41.6677 13.7785L19.6676 31.7785C17.3463 33.6778 16 36.5187 16 39.5181L16 69.9998C16 75.5226 20.4772 79.9998 26 79.9998L70 79.9998C75.5229 79.9998 80 75.5226 80 69.9998L80 39.5181C80 36.5187 78.6537 33.6778 76.3324 31.7785L54.3325 13.7785ZM44.2007 16.8743C46.4109 15.066 49.5893 15.066 51.7995 16.8743L73.7994 34.8743C75.1922 36.0139 76 37.7185 76 39.5181L76 69.9998C76 73.3135 73.3137 75.9998 70 75.9998L60 75.9998 60 56C60 51.5817 56.4183 48 52 48L44 48C39.5817 48 36 51.5817 36 56L36 75.9998 26 75.9998C22.6863 75.9998 20 73.3135 20 69.9998L20 39.5181C20 37.7185 20.8078 36.0139 22.2006 34.8743L44.2007 16.8743ZM40 75.9998 56 75.9998 56 56C56 53.7909 54.2091 52 52 52L44 52C41.7909 52 40 53.7909 40 56L40 75.9998Z" class="MsftOfcThm_Background1_Fill_v2" stroke="none" stroke-width="1" stroke-linecap="butt" stroke-linejoin="miter" stroke-miterlimit="4" fill="#FFFFFF" fill-rule="evenodd" fill-opacity="1" clip-rule="evenodd"/></svg>