<svg width="96" height="96" viewBox="0 0 96 96" xmlns="http://www.w3.org/2000/svg" xmlns:xlink="http://www.w3.org/1999/xlink" fill="none" overflow="hidden"><style>
.MsftOfcThm_Background1_Fill_v2 {
 fill:#FFFFFF; 
}
</style>
<path d="M46.8553 13.345C47.6363 12.564 48.9027 12.564 49.6837 13.345L57.116 20.7773C57.897 21.5583 57.897 22.8246 57.116 23.6057 56.3349 24.3867 55.0686 24.3867 54.2875 23.6057L48.2695 17.5876 42.2754 23.5818C41.4943 24.3628 40.228 24.3628 39.4469 23.5818 38.6659 22.8007 38.6659 21.5344 39.4469 20.7534L46.8553 13.345ZM13.3314 49.4264C12.5503 48.6453 12.5503 47.379 13.3314 46.5979L20.7636 39.1657C21.5447 38.3846 22.811 38.3846 23.592 39.1657 24.3731 39.9467 24.3731 41.2131 23.592 41.9941L17.574 48.0121 23.5682 54.0063C24.3492 54.7873 24.3492 56.0537 23.5682 56.8347 22.7871 57.6158 21.5208 57.6158 20.7397 56.8347L13.3314 49.4264ZM82.6687 49.402C83.4497 48.621 83.4497 47.3546 82.6687 46.5736L75.2603 39.1652C74.4792 38.3842 73.2129 38.3842 72.4319 39.1652 71.6508 39.9463 71.6508 41.2126 72.4319 41.9937L78.426 47.9878 72.408 54.0059C71.6269 54.7869 71.6269 56.0532 72.408 56.8343 73.189 57.6153 74.4553 57.6153 75.2364 56.8343L82.6687 49.402ZM49.6674 82.6803C48.8864 83.4613 47.62 83.4613 46.839 82.6803L39.4067 75.248C38.6257 74.467 38.6257 73.2006 39.4067 72.4196 40.1878 71.6385 41.4541 71.6385 42.2352 72.4196L48.2532 78.4376 54.2474 72.4435C55.0284 71.6624 56.2947 71.6624 57.0758 72.4435 57.8568 73.2245 57.8568 74.4909 57.0758 75.2719L49.6674 82.6803ZM42 36C38.6863 36 36 38.6863 36 42L36 54C36 57.3137 38.6863 60 42 60L54 60C57.3137 60 60 57.3137 60 54L60 42C60 38.6863 57.3137 36 54 36L42 36ZM40 42C40 40.8954 40.8954 40 42 40L54 40C55.1046 40 56 40.8954 56 42L56 54C56 55.1046 55.1046 56 54 56L42 56C40.8954 56 40 55.1046 40 54L40 42Z" class="MsftOfcThm_Background1_Fill_v2" stroke="none" stroke-width="1" stroke-linecap="butt" stroke-linejoin="miter" stroke-miterlimit="4" fill="#FFFFFF" fill-rule="evenodd" fill-opacity="1" clip-rule="evenodd"/></svg>