<svg width="97" height="96" viewBox="0 0 97 96" xmlns="http://www.w3.org/2000/svg" xmlns:xlink="http://www.w3.org/1999/xlink" fill="none" overflow="hidden"><style>
.MsftOfcThm_Background1_Fill_v2 {
 fill:#FFFFFF; 
}
</style>
<path d="M40.5228 21.7865 57.2238 21.7865C58.3284 21.7865 59.2238 22.682 59.2238 23.7865 59.2238 24.8911 58.3284 25.7865 57.2238 25.7865L52.5456 25.7865C51.519 34.0766 47.0365 40.6386 41.6492 45.3742 40.3232 46.5399 38.9352 47.6016 37.5195 48.5577 40.7759 53.435 44.5451 57.6755 47.5066 59.5884 48.4344 60.1877 48.7008 61.4258 48.1014 62.3536 47.5021 63.2814 46.2641 63.5477 45.3363 62.9484 41.6637 60.5762 37.503 55.7521 34.1372 50.6954 34.1251 50.6771 34.1129 50.6588 34.1007 50.6405 30.5556 52.5796 27.008 53.868 23.9713 54.4793 22.8884 54.6973 21.8339 53.9962 21.6159 52.9133 21.3979 51.8305 22.0991 50.776 23.1819 50.558 25.7614 50.0387 28.8522 48.9275 31.9812 47.2399 29.6086 43.1693 27.7624 38.9877 27.1746 35.652 26.9829 34.5642 27.7093 33.527 28.7971 33.3353 29.8849 33.1436 30.9222 33.87 31.1139 34.9578 31.5883 37.65 33.1827 41.3466 35.4001 45.1621 36.6343 44.3218 37.847 43.3908 39.0083 42.37 43.748 38.2036 47.5179 32.6471 48.5098 25.7865L19.249 25.7865C18.1444 25.7865 17.249 24.8911 17.249 23.7865 17.249 22.682 18.1444 21.7865 19.249 21.7865L36.5228 21.7865 36.5228 18.2505C36.5228 17.1459 37.4182 16.2505 38.5228 16.2505 39.6274 16.2505 40.5228 17.1459 40.5228 18.2505L40.5228 21.7865ZM51.5404 78.5305 56.3705 67.1346 71.6377 67.1346C71.7456 67.1346 71.8516 67.1261 71.9549 67.1096L76.7956 78.5305C77.2267 79.5475 78.4005 80.0225 79.4175 79.5914 80.4345 79.1604 80.9095 77.9865 80.4785 76.9695L66.0162 42.848C65.9279 42.6343 65.8032 42.4375 65.6478 42.2663 65.4592 42.0587 65.2237 41.8877 64.9485 41.7711 64.6935 41.663 64.4286 41.6119 64.168 41.612 63.9074 41.6119 63.6425 41.663 63.3875 41.7711 63.1123 41.8877 62.8768 42.0587 62.6882 42.2663 62.5847 42.3801 62.4932 42.5073 62.4165 42.6468 62.3806 42.712 62.3483 42.7792 62.3199 42.848L47.8576 76.9695C47.4265 77.9865 47.9015 79.1604 48.9185 79.5914 49.9355 80.0225 51.1094 79.5475 51.5404 78.5305ZM64.168 48.7376 58.0659 63.1346 70.2701 63.1346 64.168 48.7376Z" class="MsftOfcThm_Background1_Fill_v2" stroke="none" stroke-width="1" stroke-linecap="butt" stroke-linejoin="miter" stroke-miterlimit="4" fill="#FFFFFF" fill-rule="evenodd" fill-opacity="1" clip-rule="evenodd"/></svg>