<svg width="96" height="96" viewBox="0 0 96 96" xmlns="http://www.w3.org/2000/svg" xmlns:xlink="http://www.w3.org/1999/xlink" fill="none" overflow="hidden"><style>
.MsftOfcThm_Background1_Fill_v2 {
 fill:#FFFFFF; 
}
</style>
<path d="M20 20C16.6863 20 14 22.6863 14 26L14 54C14 57.3137 16.6863 60 20 60L76 60C79.3137 60 82 57.3137 82 54L82 26C82 22.6863 79.3137 20 76 20L20 20ZM10 26C10 20.4772 14.4772 16 20 16L76 16C81.5229 16 86 20.4772 86 26L86 54C86 59.5228 81.5229 64 76 64L53 64 53 76 60 76C61.1046 76 62 76.8954 62 78 62 79.1046 61.1046 80 60 80L36 80C34.8954 80 34 79.1046 34 78 34 76.8954 34.8954 76 36 76L44 76 44 64 20 64C14.4772 64 10 59.5228 10 54L10 26ZM51 26.5C51 27.8807 49.8807 29 48.5 29 47.1193 29 46 27.8807 46 26.5 46 25.1193 47.1193 24 48.5 24 49.8807 24 51 25.1193 51 26.5Z" class="MsftOfcThm_Background1_Fill_v2" stroke="none" stroke-width="1" stroke-linecap="butt" stroke-linejoin="miter" stroke-miterlimit="4" fill="#FFFFFF" fill-rule="evenodd" fill-opacity="1" clip-rule="evenodd"/></svg>