<svg width="96" height="96" viewBox="0 0 96 96" xmlns="http://www.w3.org/2000/svg" xmlns:xlink="http://www.w3.org/1999/xlink" fill="none" overflow="hidden"><style>
.MsftOfcThm_Background1_Fill_v2 {
 fill:#FFFFFF; 
}
</style>
<path d="M13.5695 10.7411C12.7884 9.96001 11.5221 9.96001 10.7411 10.7411 9.96001 11.5221 9.96001 12.7884 10.7411 13.5695L82.4305 85.2589C83.2116 86.04 84.4779 86.04 85.2589 85.2589 86.04 84.4779 86.04 83.2116 85.2589 82.4305L13.5695 10.7411ZM42.9133 17.9364C46.0693 14.8074 51.4337 17.0429 51.4337 21.4871L51.4337 39.6875C51.4337 40.7921 50.5383 41.6875 49.4337 41.6875 48.3291 41.6875 47.4337 40.7921 47.4337 39.6875L47.4337 21.4871C47.4337 20.5982 46.3608 20.1511 45.7296 20.7769L38.1211 28.3205C37.3367 29.0982 36.0704 29.0927 35.2927 28.3084 34.515 27.524 34.5205 26.2576 35.3049 25.48L42.9133 17.9364ZM21.4649 34.0782C20.3604 34.0782 19.4649 34.9736 19.4649 36.0782L19.4649 60.1004C19.4649 61.205 20.3604 62.1004 21.4649 62.1004L29.8554 62.1004C29.9547 62.1004 30.0537 62.1028 30.1524 62.1077L30.1524 41.9375C30.1524 40.8329 31.0479 39.9375 32.1524 39.9375 33.257 39.9375 34.1524 40.8329 34.1524 41.9375L34.1524 63.9108 45.7332 75.2778C46.3658 75.8987 47.4337 75.4505 47.4337 74.5641L47.4337 59.25C47.4337 58.1454 48.3291 57.25 49.4337 57.25 50.5382 57.25 51.4337 58.1454 51.4337 59.25L51.4337 74.5641C51.4337 78.9962 46.0943 81.2371 42.9312 78.1324L31.2564 66.6731C30.8825 66.306 30.3794 66.1004 29.8554 66.1004L21.4649 66.1004C18.1512 66.1004 15.4649 63.4141 15.4649 60.1004L15.4649 36.0782C15.4649 32.7645 18.1512 30.0782 21.4649 30.0782L22.2501 30.0782C23.3547 30.0782 24.2501 30.9736 24.2501 32.0782 24.2501 33.1828 23.3547 34.0782 22.2501 34.0782L21.4649 34.0782ZM56.4102 34.7974C57.0744 33.9148 58.3283 33.7378 59.2108 34.4019 63.3206 37.4946 65.9844 42.4199 65.9844 47.9667 65.9844 50.0468 65.6091 52.0438 64.9209 53.8908 64.5352 54.9258 63.3835 55.4522 62.3484 55.0665 61.3134 54.6808 60.787 53.5291 61.1727 52.494 61.6969 51.0872 61.9844 49.5628 61.9844 47.9667 61.9844 43.7298 59.9545 39.9676 56.8057 37.5981 55.9231 36.9339 55.746 35.68 56.4102 34.7974ZM66.4146 25.6685C67.0788 24.7859 68.3327 24.6089 69.2153 25.273 76.0859 30.4433 80.5351 38.6731 80.5351 47.9413 80.5351 54.2233 78.4897 60.0335 75.0292 64.7343 74.3744 65.6238 73.1224 65.814 72.2329 65.1592 71.3433 64.5044 71.1531 63.2524 71.8079 62.3629 74.7797 58.3259 76.5351 53.3415 76.5351 47.9413 76.5351 39.983 72.7198 32.9163 66.8101 28.4692 65.9275 27.805 65.7504 26.5511 66.4146 25.6685Z" class="MsftOfcThm_Background1_Fill_v2" stroke="none" stroke-width="1" stroke-linecap="butt" stroke-linejoin="miter" stroke-miterlimit="4" fill="#FFFFFF" fill-rule="evenodd" fill-opacity="1" clip-rule="evenodd"/></svg>