<svg width="96" height="96" viewBox="0 0 96 96" xmlns="http://www.w3.org/2000/svg" xmlns:xlink="http://www.w3.org/1999/xlink" fill="none" overflow="hidden"><style>
.MsftOfcThm_Background1_Fill_v2 {
 fill:#FFFFFF; 
}
</style>
<path d="M76.9718 14.6522C78.5361 15.5947 79.5655 17.4949 79.1003 19.6569L79.1002 19.6576 77.8714 25.3582 77.8707 25.3611C77.8196 25.5967 77.8889 25.8334 78.0229 25.985L78.0234 25.9856 81.8171 30.2812C83.2887 31.9467 83.2692 34.1173 82.4 35.6881 81.5258 37.2679 79.6629 38.4451 77.4425 37.9249L77.4418 37.9247 71.9788 36.6425 71.9756 36.6417C71.8415 36.61 71.6815 36.6432 71.5487 36.7709L71.5482 36.7715 67.4315 40.7301 67.4311 40.7305C65.7974 42.3019 63.6062 42.2989 62.0282 41.3481 60.4639 40.4056 59.4345 38.5054 59.8997 36.3434L59.8998 36.3427 61.1286 30.6421 61.1293 30.6392C61.1804 30.4035 61.1111 30.1669 60.9771 30.0153L60.9766 30.0147 57.1829 25.719 57.1825 25.7187C55.7113 24.0532 55.7308 21.8828 56.6 20.3122 57.4742 18.7324 59.3371 17.5552 61.5575 18.0754L61.5582 18.0756 67.0212 19.3578 67.0244 19.3586C67.1585 19.3903 67.3185 19.3571 67.4513 19.2293L67.4518 19.2288 71.5685 15.2702 71.5689 15.2698C73.2026 13.6984 75.3938 13.7014 76.9718 14.6522ZM74.6237 18.0013C74.5688 18.0059 74.4732 18.0262 74.3418 18.1527L74.3414 18.153 70.2249 22.1115 70.2245 22.1119 70.2244 22.112C69.1352 23.1599 67.5925 23.6024 66.106 23.2517L66.1041 23.2512 60.6449 21.97 60.6442 21.9698 60.6442 21.9698C60.4958 21.9352 60.4115 21.9598 60.3517 21.9895 60.2742 22.0279 60.1765 22.1103 60.0998 22.2489 59.9445 22.5295 59.9672 22.8292 60.1804 23.0705L60.1807 23.0709 63.9742 27.3663 63.9746 27.3667 63.9748 27.3669C64.9675 28.4905 65.354 30.0307 65.0385 31.4863L65.0382 31.4879 63.8102 37.1849 63.8101 37.1851 63.81 37.1855C63.7643 37.3985 63.797 37.544 63.8428 37.6445 63.8942 37.7572 63.9827 37.8558 64.0925 37.922 64.2025 37.9882 64.3042 38.005 64.3763 37.999 64.4312 37.9944 64.5268 37.974 64.6582 37.8476L64.6586 37.8472 68.775 33.8888 68.7755 33.8884 68.7756 33.8883C69.8647 32.8405 71.4072 32.3979 72.8936 32.7485L72.8959 32.749 78.355 34.0303 78.3553 34.0304C78.504 34.0652 78.5884 34.0405 78.6483 34.0108 78.7258 33.9724 78.8235 33.89 78.9002 33.7514 79.0555 33.4707 79.0328 33.1711 78.8196 32.9298L78.8193 32.9294 75.0258 28.634 75.0252 28.6334C74.0326 27.5099 73.646 25.9698 73.9614 24.5143L73.9618 24.5124 75.1898 18.8154 74.6237 18.0013ZM26 26.0001C22.6863 26.0001 20 28.6864 20 32.0001L20 70.0001C20 73.3139 22.6863 76.0001 26 76.0001L64 76.0001C67.3137 76.0001 70 73.3139 70 70.0001L70 51.0001 70 43.0001C70 41.8956 70.8954 41.0001 72 41.0001 73.1046 41.0001 74 41.8956 74 43.0001L74 51.0001 74 70.0001C74 75.523 69.5228 80.0001 64 80.0001L26 80.0001C20.4772 80.0001 16 75.523 16 70.0001L16 32.0001C16 26.4773 20.4772 22.0001 26 22.0001L51 22.0001C52.1046 22.0001 53 22.8956 53 24.0001 53 25.1047 52.1046 26.0001 51 26.0001L26 26.0001ZM57.9801 50.2736 53.9647 49.3688C53.4331 49.2499 52.8817 49.3985 52.4821 49.7651L49.4574 52.5553C48.2653 53.6549 46.3699 52.5586 46.7266 50.9802L47.6313 46.9649C47.7502 46.4333 47.6016 45.8818 47.2351 45.4823L44.4448 42.4575C43.3452 41.2655 44.4415 39.3701 46.0199 39.7267L50.0353 40.6315C50.5669 40.7504 51.1183 40.6018 51.5179 40.2352L54.5426 37.445C55.7347 36.3454 57.6301 37.4417 57.2734 39.0201L56.3687 43.0354C56.2498 43.567 56.3984 44.1185 56.7649 44.518L59.5552 47.5428C60.6548 48.7348 59.5585 50.6302 57.9801 50.2736Z" class="MsftOfcThm_Background1_Fill_v2" stroke="none" stroke-width="1" stroke-linecap="butt" stroke-linejoin="miter" stroke-miterlimit="4" fill="#FFFFFF" fill-rule="evenodd" fill-opacity="1" clip-rule="evenodd"/></svg>