<svg width="96" height="96" viewBox="0 0 96 96" xmlns="http://www.w3.org/2000/svg" xmlns:xlink="http://www.w3.org/1999/xlink" fill="none" overflow="hidden"><style>
.MsftOfcThm_Background1_Fill_v2 {
 fill:#FFFFFF; 
}
</style>
<path d="M26.25 16.2158C20.7271 16.2158 16.25 20.693 16.25 26.2158L16.25 69.7642C16.25 75.2871 20.7272 79.7642 26.25 79.7642L39.5 79.7642C40.6046 79.7642 41.5 78.8688 41.5 77.7642 41.5 76.6596 40.6046 75.7642 39.5 75.7642L26.25 75.7642C22.9363 75.7642 20.25 73.0779 20.25 69.7642L20.25 26.2158C20.25 22.9021 22.9363 20.2158 26.25 20.2158L69.7984 20.2158C73.1121 20.2158 75.7984 22.9021 75.7984 26.2158L75.7984 50.1875C75.7984 51.2921 76.6938 52.1875 77.7984 52.1875 78.903 52.1875 79.7984 51.2921 79.7984 50.1875L79.7984 26.2158C79.7984 20.693 75.3212 16.2158 69.7984 16.2158L26.25 16.2158ZM44.749 38.1239 57.4584 45.4138C58.8817 46.2303 58.8793 48.2671 57.4539 49.0801L44.727 56.3399C43.3017 57.153 41.5224 56.1324 41.5244 54.503L41.542 39.9533C41.5439 38.3238 43.3256 37.3075 44.749 38.1239ZM70.2284 75.75C75.1149 75.75 79.0762 71.7887 79.0762 66.9022 79.0762 62.0157 75.1149 58.0544 70.2284 58.0544L67.0447 58.0544C65.9401 58.0544 65.0447 57.1589 65.0447 56.0544 65.0447 54.9498 65.9401 54.0544 67.0447 54.0544L70.2284 54.0544C77.324 54.0544 83.0762 59.8065 83.0762 66.9022 83.0762 73.9978 77.324 79.75 70.2284 79.75L52.3449 79.75 58.6435 86.0591C59.4239 86.8408 59.4229 88.1071 58.6412 88.8875 57.8595 89.6679 56.5932 89.6669 55.8128 88.8852L46.1089 79.1652C45.3475 78.4026 45.3273 77.1738 46.0632 76.3865L55.7773 65.9932C56.5315 65.1862 57.7971 65.1435 58.6041 65.8977 59.4111 66.652 59.4538 67.9176 58.6996 68.7245L52.1332 75.75 70.2284 75.75Z" class="MsftOfcThm_Background1_Fill_v2" stroke="none" stroke-width="1" stroke-linecap="butt" stroke-linejoin="miter" stroke-miterlimit="4" fill="#FFFFFF" fill-rule="evenodd" fill-opacity="1" clip-rule="evenodd"/></svg>