<svg width="96" height="96" viewBox="0 0 96 96" xmlns="http://www.w3.org/2000/svg" xmlns:xlink="http://www.w3.org/1999/xlink" fill="none" overflow="hidden"><style>
.MsftOfcThm_Background1_Fill_v2 {
 fill:#FFFFFF; 
}
</style>
<path d="M34 27.5C34 19.4919 40.4919 13 48.5 13 56.5081 13 63 19.4919 63 27.5 63 28.6046 62.1046 29.5 61 29.5 59.8954 29.5 59 28.6046 59 27.5 59 21.701 54.299 17 48.5 17 42.701 17 38 21.701 38 27.5L38 39 68 39C73.5228 39 78 43.4772 78 49L78 70C78 75.5228 73.5228 80 68 80L28 80C22.4772 80 18 75.5228 18 70L18 49C18 43.4772 22.4772 39 28 39L34 39 34 27.5ZM46 60.584C44.2341 59.8124 43 58.0503 43 56 43 53.2386 45.2386 51 48 51 50.7614 51 53 53.2386 53 56 53 58.0503 51.7659 59.8124 50 60.584L50 65.5011C50 66.6057 49.1046 67.5011 48 67.5011 46.8954 67.5011 46 66.6057 46 65.5011L46 60.584ZM22 49C22 45.6863 24.6863 43 28 43L68 43C71.3137 43 74 45.6863 74 49L74 70C74 73.3137 71.3137 76 68 76L28 76C24.6863 76 22 73.3137 22 70L22 49Z" class="MsftOfcThm_Background1_Fill_v2" stroke="none" stroke-width="1" stroke-linecap="butt" stroke-linejoin="miter" stroke-miterlimit="4" fill="#FFFFFF" fill-rule="evenodd" fill-opacity="1" clip-rule="evenodd"/></svg>