<svg width="96" height="96" viewBox="0 0 96 96" xmlns="http://www.w3.org/2000/svg" xmlns:xlink="http://www.w3.org/1999/xlink" fill="none" overflow="hidden"><style>
.MsftOfcThm_Background1_Fill_v2 {
 fill:#FFFFFF; 
}
</style>
<path d="M28 19C22.4772 19 18 23.4772 18 29L18 68C18 73.5228 22.4772 78 28 78L67 78C72.5229 78 77 73.5229 77 68L77 29C77 23.4772 72.5229 19 67 19L28 19ZM22 29C22 25.6863 24.6863 23 28 23L67 23C70.3137 23 73 25.6863 73 29L73 68C73 71.3137 70.3137 74 67 74L28 74C24.6863 74 22 71.3137 22 68L22 29ZM44.2245 38.6332 56.934 45.9231C58.3573 46.7395 58.3549 48.7764 56.9295 49.5894L44.2026 56.8492C42.7772 57.6622 40.998 56.6417 41 55.0123L41.0176 40.4626C41.0195 38.8331 42.8012 37.8168 44.2245 38.6332ZM11 25C12.1046 25 13 25.8954 13 27L13 70C13 71.1046 12.1046 72 11 72 9.89543 72 9 71.1046 9 70L9 27C9 25.8954 9.89543 25 11 25ZM86 27C86 25.8954 85.1046 25 84 25 82.8954 25 82 25.8954 82 27L82 70C82 71.1046 82.8954 72 84 72 85.1046 72 86 71.1046 86 70L86 27Z" class="MsftOfcThm_Background1_Fill_v2" stroke="none" stroke-width="1" stroke-linecap="butt" stroke-linejoin="miter" stroke-miterlimit="4" fill="#FFFFFF" fill-rule="evenodd" fill-opacity="1" clip-rule="evenodd"/></svg>