<svg width="96" height="96" viewBox="0 0 96 96" xmlns="http://www.w3.org/2000/svg" xmlns:xlink="http://www.w3.org/1999/xlink" fill="none" overflow="hidden"><style>
.MsftOfcThm_Background1_Fill_v2 {
 fill:#FFFFFF; 
}
</style>
<path d="M48 16.7402C46.4318 16.7402 44.8907 16.8567 43.3851 17.0814 43.6201 17.2813 43.8784 17.4807 44.1585 17.674 45.3888 18.5225 46.6771 19 47.6531 19 48.886 19 49.98 18.4832 50.9681 17.6637 51.234 17.4432 51.4851 17.2064 51.721 16.9613 50.501 16.8153 49.2593 16.7402 48 16.7402ZM17 47.7402C17 38.3912 21.1385 30.0088 27.6835 24.3251 28.1334 25.1828 28.6807 26.1117 29.3024 26.993 30.3992 28.5476 32.0351 30.4048 34.1058 30.9964 35.9837 31.5329 38.1687 31.4546 39.8741 31.3935 40.0518 31.3871 40.2242 31.3809 40.3906 31.3756 41.3504 31.3452 42.1453 31.336 42.8116 31.4042 43.4922 31.4738 43.828 31.6069 43.9797 31.708 44.2159 31.8655 44.3107 32.0151 44.3547 32.1217 44.4019 32.2364 44.4257 32.3894 44.3917 32.5874 44.3195 33.0087 43.9912 33.5424 43.3898 33.8765 42.1882 34.544 41.0159 35.3683 40.1436 36.4897 39.2343 37.6589 38.7214 39.0614 38.7214 40.7204 38.7214 41.2432 38.6804 41.5918 38.6229 41.8201 38.5907 41.9476 38.5601 42.0112 38.5452 42.0369 38.4692 42.0776 38.1494 42.1995 37.2478 42.1244 37.0892 42.1111 36.9189 42.0961 36.7386 42.0801L36.7386 42.0801 36.7386 42.0801C35.3696 41.9591 33.4219 41.7868 31.5858 41.9789 29.5373 42.1931 27.0027 42.9219 25.6389 45.3091 25.0256 46.3824 24.3197 48.1647 24.4877 50.2874 24.6621 52.4914 25.7596 54.8008 28.3093 56.8408 31.2364 59.1829 34.4559 59.6958 38.8011 60.1787 41.3031 60.4568 42.7737 60.9973 43.6437 61.6115 44.4304 62.167 44.8599 62.8751 45.069 63.9211 45.4298 65.7267 44.819 68.3525 43.6182 71.4507 43.0398 72.9429 42.3661 74.4464 41.6983 75.8992 41.5517 76.2182 41.4044 76.5366 41.2583 76.8525 41.0958 77.2039 40.9348 77.5521 40.7777 77.8945 27.1402 74.6401 17 62.3744 17 47.7402ZM32.5709 24.6871C31.9112 23.752 31.3424 22.7305 30.9214 21.8649 33.362 20.2507 36.0444 18.9727 38.9025 18.0966 39.6691 19.1818 40.7517 20.1833 41.8874 20.9667 43.4888 22.0712 45.5678 23 47.6531 23 50.0936 23 52.0608 21.9543 53.5217 20.7425 54.6454 19.8105 55.5273 18.7346 56.1732 17.829 56.945 18.0394 57.7049 18.2789 58.4515 18.5462 58.0985 21.0339 57.7816 24.1384 58.1991 26.9346 58.6735 30.1127 60.2021 33.3861 64.1241 34.5414 68.5708 35.8512 72.3539 34.1885 74.7251 32.0216 75.8827 33.9855 76.8299 36.0881 77.5359 38.2985 75.888 37.9891 73.7876 37.6637 71.6093 37.5306 69.2531 37.3867 66.6592 37.4573 64.4108 38.1089 62.1434 38.7661 59.9418 40.1126 58.9853 42.6946 56.1892 50.2424 59.9621 54.7822 60.9022 55.7225 62.3581 57.1787 63.8448 57.8564 64.9792 58.3736 65.1174 58.4366 65.2503 58.4973 65.3774 58.5566 66.4991 59.0807 67.3457 59.5601 68.1938 60.7851 68.9274 61.8447 69.2151 63.4657 69.2645 65.548 69.2843 66.3792 69.2668 67.2042 69.2491 68.0391 69.2453 68.2197 69.2414 68.4008 69.2379 68.5826 69.227 69.1572 69.2192 69.7504 69.234 70.3261 63.6865 75.5436 56.2165 78.7402 48 78.7402 46.9417 78.7402 45.8958 78.6872 44.8648 78.5837L44.8699 78.5726C45.0204 78.2473 45.1749 77.9131 45.3327 77.5699 46.0068 76.1033 46.7231 74.508 47.3478 72.8963 48.553 69.7868 49.6004 66.1847 48.9914 63.1373 48.6123 61.2401 47.6933 59.5742 45.9507 58.3439 44.2914 57.1724 42.052 56.5154 39.2429 56.2032 34.8545 55.7155 32.7333 55.2578 30.8083 53.7176 29.0334 52.2974 28.554 50.9671 28.4752 49.9718 28.3901 48.8952 28.7548 47.9186 29.112 47.2934 29.5007 46.613 30.3634 46.1286 32.002 45.9572 33.4247 45.8083 34.9622 45.9417 36.3697 46.0638L36.3697 46.0638 36.3698 46.0638C36.5541 46.0798 36.7363 46.0956 36.9156 46.1105 38.5671 46.2482 40.2636 46.0428 41.4454 44.7953 42.5603 43.6184 42.7214 42.004 42.7214 40.7204 42.7214 39.9529 42.9365 39.4142 43.301 38.9455 43.7027 38.4291 44.3502 37.9188 45.3324 37.3731 46.9149 36.494 48.0425 34.9651 48.3342 33.2633 48.6413 31.4719 47.9886 29.5732 46.1985 28.3798 45.2582 27.753 44.1685 27.5221 43.2188 27.4249 42.2548 27.3263 41.2147 27.3475 40.2637 27.3776L39.8534 27.391C37.9813 27.4524 36.4391 27.503 35.2047 27.1503 34.5577 26.9654 33.6054 26.1534 32.5709 24.6871ZM73.2684 65.703C76.8774 60.6353 79 54.4357 79 47.7402 79 45.9858 78.8543 44.2654 78.5742 42.5904 78.183 42.5055 77.7287 42.4101 77.224 42.3115 75.6086 41.9959 73.507 41.654 71.3654 41.5232 69.1958 41.3907 67.1307 41.4852 65.5243 41.9508 63.937 42.4109 63.0882 43.1338 62.7362 44.0842 60.6782 49.6395 63.4337 52.5971 63.7309 52.8943 64.6539 53.8175 65.509 54.2117 66.6431 54.7346L66.6453 54.7357C66.7827 54.799 66.9242 54.8643 67.0705 54.9326 68.4729 55.5878 70.0528 56.443 71.4826 58.5082 72.9329 60.6031 73.2115 63.2688 73.2634 65.453 73.2654 65.5364 73.267 65.6197 73.2684 65.703ZM72.4433 28.6717C69.7089 25.1715 66.2391 22.2737 62.2662 20.2107 62.0103 22.2991 61.8751 24.4673 62.1552 26.344 62.5142 28.7485 63.4483 30.1724 65.2543 30.7044 68.3591 31.6189 71.0062 30.2183 72.4433 28.6717ZM13 47.7402C13 28.4103 28.67 12.7402 48 12.7402 67.33 12.7402 83 28.4103 83 47.7402 83 67.0702 67.33 82.7402 48 82.7402 28.67 82.7402 13 67.0702 13 47.7402ZM38.5359 42.0511C38.5358 42.051 38.5366 42.05 38.5382 42.0481 38.5367 42.0502 38.5359 42.0512 38.5359 42.0511ZM38.5551 42.0312C38.5609 42.0263 38.5643 42.0242 38.5645 42.0244 38.5648 42.0246 38.5619 42.0271 38.5551 42.0312Z" class="MsftOfcThm_Background1_Fill_v2" stroke="none" stroke-width="1" stroke-linecap="butt" stroke-linejoin="miter" stroke-miterlimit="4" fill="#FFFFFF" fill-rule="evenodd" fill-opacity="1" clip-rule="evenodd"/></svg>