<svg width="96" height="96" viewBox="0 0 96 96" xmlns="http://www.w3.org/2000/svg" xmlns:xlink="http://www.w3.org/1999/xlink" fill="none" overflow="hidden"><style>
.MsftOfcThm_Background1_Fill_v2 {
 fill:#FFFFFF; 
}
</style>
<path d="M82.2002 28C82.2002 24.6863 79.5139 22 76.2002 22L19.0002 22C15.6865 22 13.0002 24.6863 13.0002 28L13.0002 67.2C13.0002 67.8784 13.1128 68.5305 13.3203 69.1387L29.3631 44.3537 29.3637 44.3529C31.8252 40.5471 37.4004 40.5471 39.8621 44.3528L39.8627 44.3537 52.5646 63.9739 59.8874 52.9024 59.8957 52.8898C62.3735 49.2044 67.8022 49.1972 70.2776 52.8896L70.28 52.893 81.6437 69.7269C82.0008 68.9589 82.2002 68.1027 82.2002 67.2L82.2002 28ZM32.7216 46.5264 15.9825 72.387C16.869 72.9039 17.9 73.2 19.0002 73.2L46.4624 73.2 50.1565 67.6147 36.5043 46.5266 36.5037 46.5256C35.6182 45.1562 33.6076 45.1562 32.7222 46.5256L32.7216 46.5264ZM78.7722 72.6223C77.9927 72.9927 77.1206 73.2 76.2002 73.2L51.2582 73.2 63.2189 55.1162C64.1173 53.7877 66.0705 53.7955 66.9561 55.1183L66.9604 55.1247 78.7722 72.6223ZM76.2002 18C81.723 18 86.2002 22.4772 86.2002 28L86.2002 67.2C86.2002 72.7229 81.723 77.2 76.2002 77.2L19.0002 77.2C13.4773 77.2 9.00019 72.7228 9.00019 67.2L9.00019 28C9.00019 22.4772 13.4773 18 19.0002 18L76.2002 18ZM65.5 33C65.5 35.7614 67.7386 38 70.5 38 73.2614 38 75.5 35.7614 75.5 33 75.5 30.2386 73.2614 28 70.5 28 67.7386 28 65.5 30.2386 65.5 33Z" class="MsftOfcThm_Background1_Fill_v2" stroke="none" stroke-width="1" stroke-linecap="butt" stroke-linejoin="miter" stroke-miterlimit="4" fill="#FFFFFF" fill-rule="evenodd" fill-opacity="1" clip-rule="evenodd"/></svg>