<svg width="96" height="96" viewBox="0 0 96 96" xmlns="http://www.w3.org/2000/svg" xmlns:xlink="http://www.w3.org/1999/xlink" fill="none" overflow="hidden"><style>
.MsftOfcThm_Background1_Fill_v2 {
 fill:#FFFFFF; 
}
</style>
<path d="M23 29C23 25.6846 25.6846 23 29 23L67 23C70.3154 23 73 25.6846 73 29L73 63 23 63 23 29ZM19 63 19 29C19 23.4754 23.4754 19 29 19L67 19C72.5246 19 77 23.4754 77 29L77 63 80.63 63C84.496 63 87.63 66.134 87.63 70 87.63 73.866 84.496 77 80.63 77L16 77C12.134 77 9 73.866 9 70 9 66.134 12.134 63 16 63L19 63ZM48.5 31C49.8807 31 51 29.8807 51 28.5 51 27.1193 49.8807 26 48.5 26 47.1193 26 46 27.1193 46 28.5 46 29.8807 47.1193 31 48.5 31ZM16 67C14.3431 67 13 68.3431 13 70 13 71.6569 14.3431 73 16 73L80.63 73C82.2868 73 83.63 71.6569 83.63 70 83.63 68.3431 82.2868 67 80.63 67L16 67Z" class="MsftOfcThm_Background1_Fill_v2" stroke="none" stroke-width="1" stroke-linecap="butt" stroke-linejoin="miter" stroke-miterlimit="4" fill="#FFFFFF" fill-rule="evenodd" fill-opacity="1" clip-rule="evenodd"/></svg>