<svg width="96" height="96" viewBox="0 0 96 96" xmlns="http://www.w3.org/2000/svg" xmlns:xlink="http://www.w3.org/1999/xlink" fill="none" overflow="hidden"><style>
.MsftOfcThm_Background1_Fill_v2 {
 fill:#FFFFFF; 
}
</style>
<path d="M55.7042 4.27496C55.1632 3.31193 53.944 2.96976 52.981 3.51071 52.0179 4.05166 51.6758 5.27088 52.2167 6.23392L56.7717 14.343C53.9498 13.6031 50.9891 13.2095 47.9387 13.2095 38.3098 13.2095 29.5928 17.1299 23.3033 23.4567 22.5246 24.2401 22.5283 25.5064 23.3117 26.2851 24.095 27.0639 25.3613 27.0601 26.1401 26.2768 31.7095 20.6743 39.4176 17.2095 47.9387 17.2095 50.7453 17.2095 53.4618 17.5851 56.0418 18.2883L48.1534 23.0856C47.2096 23.6596 46.9098 24.8899 47.4837 25.8337 48.0577 26.7774 49.288 27.0772 50.2318 26.5033L61.9668 19.3666C62.8876 18.8067 63.1991 17.6179 62.6713 16.6783L55.7042 4.27496ZM78.7994 47.9359C78.791 39.4148 75.3185 31.7102 69.7105 26.1463 68.9264 25.3683 68.9214 24.102 69.6993 23.3179 70.4773 22.5337 71.7436 22.5287 72.5277 23.3067 78.8608 29.5899 82.7899 38.303 82.7994 47.9319 82.8024 50.9822 82.4118 53.9432 81.6747 56.7657L89.7787 52.203C90.7412 51.6611 91.9608 52.0021 92.5027 52.9646 93.0446 53.9271 92.7036 55.1467 91.7411 55.6886L79.3447 62.668C78.4056 63.1967 77.2166 62.8863 76.6557 61.9661L69.5074 50.2382C68.9326 49.295 69.2311 48.0644 70.1743 47.4895 71.1175 46.9146 72.3481 47.2132 72.923 48.1564L77.7285 56.0406C78.4292 53.4598 78.8022 50.7427 78.7994 47.9359ZM47.8786 78.7718C56.3997 78.7909 64.1155 75.3434 69.6975 69.7533 70.478 68.9717 71.7443 68.9708 72.5259 69.7513 73.3076 70.5318 73.3085 71.7981 72.528 72.5797 66.2243 78.8925 57.4986 82.7934 47.8697 82.7718 44.8194 82.765 41.8597 82.3647 39.0396 81.6186L43.5761 89.7373C44.1149 90.7015 43.77 91.92 42.8057 92.4588 41.8415 92.9976 40.623 92.6527 40.0842 91.6884L33.1449 79.2695C32.6192 78.3287 32.9334 77.1407 33.8554 76.5828L45.6064 69.4725C46.5514 68.9006 47.7811 69.2032 48.3529 70.1482 48.9247 71.0932 48.6222 72.3229 47.6772 72.8947L39.7774 77.6747C42.356 78.3837 45.0718 78.7655 47.8786 78.7718ZM17.2374 47.9518C17.2313 56.4729 20.6905 64.1834 26.289 69.757 27.0718 70.5363 27.0746 71.8026 26.2953 72.5854 25.516 73.3682 24.2497 73.371 23.4669 72.5917 17.1446 66.2976 13.2305 57.5778 13.2374 47.9489 13.2396 44.8986 13.6354 41.9383 14.3772 39.117L6.26544 43.6658C5.30201 44.2061 4.08303 43.863 3.54278 42.8996 3.00252 41.9362 3.34557 40.7172 4.309 40.1769L16.7174 33.2188C17.6573 32.6917 18.8459 33.0041 19.4052 33.9252L26.5333 45.6654C27.1066 46.6096 26.8059 47.8397 25.8617 48.413 24.9176 48.9862 23.6875 48.6855 23.1142 47.7414L18.3222 39.8489C17.6171 42.4286 17.2394 45.145 17.2374 47.9518Z" class="MsftOfcThm_Background1_Fill_v2" stroke="none" stroke-width="1" stroke-linecap="butt" stroke-linejoin="miter" stroke-miterlimit="4" fill="#FFFFFF" fill-rule="evenodd" fill-opacity="1" clip-rule="evenodd"/></svg>