<svg width="96" height="96" viewBox="0 0 96 96" xmlns="http://www.w3.org/2000/svg" xmlns:xlink="http://www.w3.org/1999/xlink" fill="none" overflow="hidden"><style>
.MsftOfcThm_Background1_Fill_v2 {
 fill:#FFFFFF; 
}
</style>
<path d="M17 47.7402C17 30.6194 30.8792 16.7402 48 16.7402 65.1208 16.7402 79 30.6194 79 47.7402 79 64.8611 65.1208 78.7402 48 78.7402 30.8792 78.7402 17 64.8611 17 47.7402ZM48 12.7402C28.67 12.7402 13 28.4103 13 47.7402 13 67.0702 28.67 82.7402 48 82.7402 67.33 82.7402 83 67.0702 83 47.7402 83 28.4103 67.33 12.7402 48 12.7402ZM36.4358 56.9202C35.6669 56.1272 34.4007 56.1077 33.6077 56.8767 32.8147 57.6456 32.7953 58.9118 33.5642 59.7048 37.2148 63.4696 42.3654 65.8125 48.0625 65.8125 53.7595 65.8125 58.9102 63.4696 62.5608 59.7048 63.3297 58.9118 63.3103 57.6456 62.5173 56.8767 61.7243 56.1077 60.4581 56.1272 59.6892 56.9202 56.7686 59.9321 52.6443 61.8125 48.0625 61.8125 43.4806 61.8125 39.3564 59.9321 36.4358 56.9202ZM41.33 39.165C41.33 41.4653 39.4653 43.33 37.165 43.33 34.8647 43.33 33 41.4653 33 39.165 33 36.8647 34.8647 35 37.165 35 39.4653 35 41.33 36.8647 41.33 39.165ZM59.165 43.33C61.4653 43.33 63.33 41.4653 63.33 39.165 63.33 36.8647 61.4653 35 59.165 35 56.8647 35 55 36.8647 55 39.165 55 41.4653 56.8647 43.33 59.165 43.33Z" class="MsftOfcThm_Background1_Fill_v2" stroke="none" stroke-width="1" stroke-linecap="butt" stroke-linejoin="miter" stroke-miterlimit="4" fill="#FFFFFF" fill-rule="evenodd" fill-opacity="1" clip-rule="evenodd"/></svg>