<svg width="96" height="96" viewBox="0 0 96 96" xmlns="http://www.w3.org/2000/svg" xmlns:xlink="http://www.w3.org/1999/xlink" fill="none" overflow="hidden"><style>
.MsftOfcThm_Background1_Fill_v2 {
 fill:#FFFFFF; 
}
</style>
<path d="M73.2349 16.752C69.9212 16.752 67.2349 19.4382 67.2349 22.752 67.2349 26.0657 69.9212 28.752 73.2349 28.752 76.5486 28.752 79.2349 26.0657 79.2349 22.752 79.2349 19.4382 76.5486 16.752 73.2349 16.752ZM63.4344 20.7545C64.3599 16.1888 68.396 12.752 73.2349 12.752 78.7577 12.752 83.2349 17.2291 83.2349 22.752 83.2349 28.2748 78.7577 32.752 73.2349 32.752 68.4003 32.752 64.3671 29.3212 63.4368 24.7615 60.4216 24.9604 58.2105 25.798 56.5584 26.9724 54.6492 28.3297 53.3222 30.2542 52.4039 32.5659 50.5265 37.2921 50.5012 43.2145 50.5012 48.0147L50.5012 48.1752C50.5015 52.8005 50.502 59.4521 48.1744 64.965 46.9734 67.8096 45.1254 70.4299 42.2916 72.3248 39.7229 74.0425 36.4741 75.0774 32.4269 75.2561 31.4939 79.8122 27.4623 83.2393 22.6304 83.2393 17.1075 83.2393 12.6304 78.7621 12.6304 73.2393 12.6304 67.7164 17.1075 63.2393 22.6304 63.2393 27.4726 63.2393 31.5109 66.6808 32.4328 71.2513 35.7913 71.0772 38.2463 70.218 40.0681 68.9997 42.1153 67.6308 43.5211 65.7026 44.4894 63.4092 46.4734 58.7102 46.5012 52.8179 46.5012 48.0147L46.5012 47.8594C46.5009 43.2312 46.5005 36.5919 48.6865 31.0892 49.8121 28.2555 51.5511 25.6243 54.2408 23.7122 56.6439 22.0039 59.6759 20.9621 63.4344 20.7545ZM22.6304 67.2393C19.3167 67.2393 16.6304 69.9255 16.6304 73.2393 16.6304 76.553 19.3167 79.2393 22.6304 79.2393 25.9441 79.2393 28.6304 76.553 28.6304 73.2393 28.6304 69.9255 25.9441 67.2393 22.6304 67.2393ZM20.5 18C20.5 19.3807 19.3807 20.5 18 20.5 16.6193 20.5 15.5 19.3807 15.5 18 15.5 16.6193 16.6193 15.5 18 15.5 19.3807 15.5 20.5 16.6193 20.5 18ZM18 30.5C19.3807 30.5 20.5 29.3807 20.5 28 20.5 26.6193 19.3807 25.5 18 25.5 16.6193 25.5 15.5 26.6193 15.5 28 15.5 29.3807 16.6193 30.5 18 30.5ZM20.5 38C20.5 39.3807 19.3807 40.5 18 40.5 16.6193 40.5 15.5 39.3807 15.5 38 15.5 36.6193 16.6193 35.5 18 35.5 19.3807 35.5 20.5 36.6193 20.5 38ZM18 50.5C19.3807 50.5 20.5 49.3807 20.5 48 20.5 46.6193 19.3807 45.5 18 45.5 16.6193 45.5 15.5 46.6193 15.5 48 15.5 49.3807 16.6193 50.5 18 50.5ZM50.5 18C50.5 19.3807 49.3807 20.5 48 20.5 46.6193 20.5 45.5 19.3807 45.5 18 45.5 16.6193 46.6193 15.5 48 15.5 49.3807 15.5 50.5 16.6193 50.5 18ZM48 80.5C49.3807 80.5 50.5 79.3807 50.5 78 50.5 76.6193 49.3807 75.5 48 75.5 46.6193 75.5 45.5 76.6193 45.5 78 45.5 79.3807 46.6193 80.5 48 80.5ZM80.5 38C80.5 39.3807 79.3807 40.5 78 40.5 76.6193 40.5 75.5 39.3807 75.5 38 75.5 36.6193 76.6193 35.5 78 35.5 79.3807 35.5 80.5 36.6193 80.5 38ZM78 50.5C79.3807 50.5 80.5 49.3807 80.5 48 80.5 46.6193 79.3807 45.5 78 45.5 76.6193 45.5 75.5 46.6193 75.5 48 75.5 49.3807 76.6193 50.5 78 50.5ZM80.5 78C80.5 79.3807 79.3807 80.5 78 80.5 76.6193 80.5 75.5 79.3807 75.5 78 75.5 76.6193 76.6193 75.5 78 75.5 79.3807 75.5 80.5 76.6193 80.5 78ZM78 60.5C79.3807 60.5 80.5 59.3807 80.5 58 80.5 56.6193 79.3807 55.5 78 55.5 76.6193 55.5 75.5 56.6193 75.5 58 75.5 59.3807 76.6193 60.5 78 60.5ZM80.5 68C80.5 69.3807 79.3807 70.5 78 70.5 76.6193 70.5 75.5 69.3807 75.5 68 75.5 66.6193 76.6193 65.5 78 65.5 79.3807 65.5 80.5 66.6193 80.5 68ZM38 20.5C39.3807 20.5 40.5 19.3807 40.5 18 40.5 16.6193 39.3807 15.5 38 15.5 36.6193 15.5 35.5 16.6193 35.5 18 35.5 19.3807 36.6193 20.5 38 20.5ZM40.5 28C40.5 29.3807 39.3807 30.5 38 30.5 36.6193 30.5 35.5 29.3807 35.5 28 35.5 26.6193 36.6193 25.5 38 25.5 39.3807 25.5 40.5 26.6193 40.5 28ZM38 40.5C39.3807 40.5 40.5 39.3807 40.5 38 40.5 36.6193 39.3807 35.5 38 35.5 36.6193 35.5 35.5 36.6193 35.5 38 35.5 39.3807 36.6193 40.5 38 40.5ZM40.5 48C40.5 49.3807 39.3807 50.5 38 50.5 36.6193 50.5 35.5 49.3807 35.5 48 35.5 46.6193 36.6193 45.5 38 45.5 39.3807 45.5 40.5 46.6193 40.5 48ZM38 60.5C39.3807 60.5 40.5 59.3807 40.5 58 40.5 56.6193 39.3807 55.5 38 55.5 36.6193 55.5 35.5 56.6193 35.5 58 35.5 59.3807 36.6193 60.5 38 60.5ZM70.5 38C70.5 39.3807 69.3807 40.5 68 40.5 66.6193 40.5 65.5 39.3807 65.5 38 65.5 36.6193 66.6193 35.5 68 35.5 69.3807 35.5 70.5 36.6193 70.5 38ZM58 40.5C59.3807 40.5 60.5 39.3807 60.5 38 60.5 36.6193 59.3807 35.5 58 35.5 56.6193 35.5 55.5 36.6193 55.5 38 55.5 39.3807 56.6193 40.5 58 40.5ZM70.5 48C70.5 49.3807 69.3807 50.5 68 50.5 66.6193 50.5 65.5 49.3807 65.5 48 65.5 46.6193 66.6193 45.5 68 45.5 69.3807 45.5 70.5 46.6193 70.5 48ZM58 50.5C59.3807 50.5 60.5 49.3807 60.5 48 60.5 46.6193 59.3807 45.5 58 45.5 56.6193 45.5 55.5 46.6193 55.5 48 55.5 49.3807 56.6193 50.5 58 50.5ZM70.5 78C70.5 79.3807 69.3807 80.5 68 80.5 66.6193 80.5 65.5 79.3807 65.5 78 65.5 76.6193 66.6193 75.5 68 75.5 69.3807 75.5 70.5 76.6193 70.5 78ZM58 80.5C59.3807 80.5 60.5 79.3807 60.5 78 60.5 76.6193 59.3807 75.5 58 75.5 56.6193 75.5 55.5 76.6193 55.5 78 55.5 79.3807 56.6193 80.5 58 80.5ZM70.5 58C70.5 59.3807 69.3807 60.5 68 60.5 66.6193 60.5 65.5 59.3807 65.5 58 65.5 56.6193 66.6193 55.5 68 55.5 69.3807 55.5 70.5 56.6193 70.5 58ZM68 70.5C69.3807 70.5 70.5 69.3807 70.5 68 70.5 66.6193 69.3807 65.5 68 65.5 66.6193 65.5 65.5 66.6193 65.5 68 65.5 69.3807 66.6193 70.5 68 70.5ZM60.5 58C60.5 59.3807 59.3807 60.5 58 60.5 56.6193 60.5 55.5 59.3807 55.5 58 55.5 56.6193 56.6193 55.5 58 55.5 59.3807 55.5 60.5 56.6193 60.5 58ZM58 70.5C59.3807 70.5 60.5 69.3807 60.5 68 60.5 66.6193 59.3807 65.5 58 65.5 56.6193 65.5 55.5 66.6193 55.5 68 55.5 69.3807 56.6193 70.5 58 70.5ZM30.5 18C30.5 19.3807 29.3807 20.5 28 20.5 26.6193 20.5 25.5 19.3807 25.5 18 25.5 16.6193 26.6193 15.5 28 15.5 29.3807 15.5 30.5 16.6193 30.5 18ZM28 30.5C29.3807 30.5 30.5 29.3807 30.5 28 30.5 26.6193 29.3807 25.5 28 25.5 26.6193 25.5 25.5 26.6193 25.5 28 25.5 29.3807 26.6193 30.5 28 30.5ZM30.5 38C30.5 39.3807 29.3807 40.5 28 40.5 26.6193 40.5 25.5 39.3807 25.5 38 25.5 36.6193 26.6193 35.5 28 35.5 29.3807 35.5 30.5 36.6193 30.5 38ZM28 50.5C29.3807 50.5 30.5 49.3807 30.5 48 30.5 46.6193 29.3807 45.5 28 45.5 26.6193 45.5 25.5 46.6193 25.5 48 25.5 49.3807 26.6193 50.5 28 50.5ZM30.5 58C30.5 59.3807 29.3807 60.5 28 60.5 26.6193 60.5 25.5 59.3807 25.5 58 25.5 56.6193 26.6193 55.5 28 55.5 29.3807 55.5 30.5 56.6193 30.5 58ZM18 60.5C19.3807 60.5 20.5 59.3807 20.5 58 20.5 56.6193 19.3807 55.5 18 55.5 16.6193 55.5 15.5 56.6193 15.5 58 15.5 59.3807 16.6193 60.5 18 60.5Z" class="MsftOfcThm_Background1_Fill_v2" stroke="none" stroke-width="1" stroke-linecap="butt" stroke-linejoin="miter" stroke-miterlimit="4" fill="#FFFFFF" fill-rule="evenodd" fill-opacity="1" clip-rule="evenodd"/></svg>