<svg width="96" height="96" viewBox="0 0 96 96" xmlns="http://www.w3.org/2000/svg" xmlns:xlink="http://www.w3.org/1999/xlink" fill="none" overflow="hidden"><style>
.MsftOfcThm_Background1_Fill_v2 {
 fill:#FFFFFF; 
}
</style>
<path d="M42 25.1875C42 21.8738 44.6863 19.1875 48 19.1875 51.3137 19.1875 54 21.8738 54 25.1875 54 28.5012 51.3137 31.1875 48 31.1875 44.6863 31.1875 42 28.5012 42 25.1875ZM48 15.1875C42.4772 15.1875 38 19.6647 38 25.1875 38 28.1457 39.2845 30.8039 41.3262 32.6348L24.7583 61.2536C23.798 60.9468 22.7745 60.7812 21.7124 60.7812 16.1896 60.7812 11.7124 65.2584 11.7124 70.7812 11.7124 76.3041 16.1896 80.7812 21.7124 80.7812 26.5407 80.7812 30.5698 77.3593 31.5068 72.8084L64.4935 72.8101C65.4312 77.3602 69.4599 80.7812 74.2876 80.7812 79.8104 80.7812 84.2876 76.3041 84.2876 70.7812 84.2876 65.2584 79.8104 60.7812 74.2876 60.7812 73.1833 60.7812 72.1208 60.9602 71.1276 61.2908L54.5842 32.7142C56.6778 30.8812 58 28.1888 58 25.1875 58 19.6647 53.5228 15.1875 48 15.1875ZM51.1089 34.6948C50.1304 35.0146 49.0854 35.1875 48 35.1875 46.8725 35.1875 45.7886 35.0009 44.7775 34.6569L28.2469 63.2113C29.8955 64.6357 31.0738 66.5894 31.5178 68.8084L64.4818 68.8101C64.9174 66.6311 66.0612 64.7076 67.6631 63.29L51.1089 34.6948ZM15.7124 70.7812C15.7124 67.4675 18.3987 64.7812 21.7124 64.7812 25.0261 64.7812 27.7124 67.4675 27.7124 70.7812 27.7124 74.095 25.0261 76.7812 21.7124 76.7812 18.3987 76.7812 15.7124 74.095 15.7124 70.7812ZM74.2876 64.7812C70.9739 64.7812 68.2876 67.4675 68.2876 70.7812 68.2876 74.095 70.9739 76.7812 74.2876 76.7812 77.6013 76.7812 80.2876 74.095 80.2876 70.7812 80.2876 67.4675 77.6013 64.7812 74.2876 64.7812Z" class="MsftOfcThm_Background1_Fill_v2" stroke="none" stroke-width="1" stroke-linecap="butt" stroke-linejoin="miter" stroke-miterlimit="4" fill="#FFFFFF" fill-rule="evenodd" fill-opacity="1" clip-rule="evenodd"/></svg>