<svg width="96" height="96" viewBox="0 0 96 96" xmlns="http://www.w3.org/2000/svg" xmlns:xlink="http://www.w3.org/1999/xlink" fill="none" overflow="hidden"><style>
.MsftOfcThm_Background1_Fill_v2 {
 fill:#FFFFFF; 
}
</style>
<path d="M26.2446 16.25C20.7218 16.25 16.2446 20.7272 16.2446 26.25L16.2446 60.994C16.2446 66.5168 20.7218 70.994 26.2446 70.994L36.1772 70.994 43.3644 79.7402C45.7646 82.6611 50.2354 82.6611 52.6356 79.7402L59.8228 70.994 69.7554 70.994C75.2782 70.994 79.7554 66.5168 79.7554 60.994L79.7554 26.25C79.7554 20.7271 75.2782 16.25 69.7554 16.25L26.2446 16.25ZM20.2446 26.25C20.2446 22.9363 22.9309 20.25 26.2446 20.25L69.7554 20.25C73.0691 20.25 75.7554 22.9363 75.7554 26.25L75.7554 60.994C75.7554 64.3077 73.0691 66.994 69.7554 66.994L58.8777 66.994C58.2793 66.994 57.7124 67.2619 57.3325 67.7242L49.5452 77.2006C48.7451 78.1743 47.2549 78.1743 46.4548 77.2006L38.6675 67.7242C38.2876 67.2619 37.7207 66.994 37.1223 66.994L26.2446 66.994C22.9309 66.994 20.2446 64.3077 20.2446 60.994L20.2446 26.25ZM48 24.8857C49.1046 24.8857 50 25.7812 50 26.8857L50 49.0957C50 50.2003 49.1046 51.0957 48 51.0957 46.8954 51.0957 46 50.2003 46 49.0957L46 26.8857C46 25.7812 46.8954 24.8857 48 24.8857ZM48 62.3662C49.6569 62.3662 51 61.0231 51 59.3662 51 57.7094 49.6569 56.3662 48 56.3662 46.3431 56.3662 45 57.7094 45 59.3662 45 61.0231 46.3431 62.3662 48 62.3662Z" class="MsftOfcThm_Background1_Fill_v2" stroke="none" stroke-width="1" stroke-linecap="butt" stroke-linejoin="miter" stroke-miterlimit="4" fill="#FFFFFF" fill-rule="evenodd" fill-opacity="1" clip-rule="evenodd"/></svg>