<svg width="96" height="96" viewBox="0 0 96 96" xmlns="http://www.w3.org/2000/svg" xmlns:xlink="http://www.w3.org/1999/xlink" fill="none" overflow="hidden"><style>
.MsftOfcThm_Background1_Fill_v2 {
 fill:#FFFFFF; 
}
</style>
<path d="M61.0515 8.58281C61.2781 7.50339 62.3391 6.81451 63.4211 7.04415L74.9308 9.48672C75.9903 9.71156 76.6814 10.7358 76.491 11.7988L74.5018 22.9056C74.3073 23.9913 73.2674 24.7114 72.1791 24.5139 71.0907 24.3163 70.3661 23.276 70.5606 22.1903L71.7057 15.7967 14.2272 56.0436C13.3224 56.6772 12.0703 56.4608 11.4306 55.5603 10.7909 54.6598 11.0058 53.4162 11.9107 52.7827L69.5448 12.4268 62.6004 10.9531C61.5183 10.7234 60.8248 9.66223 61.0515 8.58281ZM70.9351 35.6121C70.9351 34.5058 71.7955 33.6985 72.7479 33.6985L76.1222 33.6985C77.0746 33.6985 77.9351 34.5058 77.9351 35.6121L77.9351 75.1876C77.9351 76.2939 77.0746 77.1011 76.1222 77.1011L72.7479 77.1011C71.7955 77.1011 70.9351 76.2939 70.9351 75.1876L70.9351 35.6121ZM72.7479 29.6985C69.4887 29.6985 66.9351 32.3956 66.9351 35.6121L66.9351 75.1876C66.9351 78.4041 69.4887 81.1011 72.7479 81.1011L76.1222 81.1011C79.3814 81.1011 81.9351 78.4041 81.9351 75.1876L81.9351 35.6121C81.9351 32.3956 79.3814 29.6985 76.1222 29.6985L72.7479 29.6985ZM52.9221 47.7935C52.9221 45.8729 54.1108 45.075 54.7349 45.075L58.1093 45.075C58.7334 45.075 59.9221 45.8729 59.9221 47.7935L59.9221 74.3824C59.9221 76.3031 58.7334 77.101 58.1093 77.101L54.7349 77.101C54.1108 77.101 52.9221 76.3031 52.9221 74.3824L52.9221 47.7935ZM54.7349 41.075C51.1476 41.075 48.9221 44.5022 48.9221 47.7935L48.9221 74.3824C48.9221 77.6738 51.1476 81.101 54.7349 81.101L58.1093 81.101C61.6967 81.101 63.9221 77.6738 63.9221 74.3824L63.9221 47.7935C63.9221 44.5022 61.6967 41.075 58.1093 41.075L54.7349 41.075ZM36.722 55.5037C35.4714 55.5037 34.9092 56.3433 34.9092 56.8564L34.9092 75.7485C34.9092 76.2616 35.4714 77.1011 36.722 77.1011L40.0964 77.1011C41.347 77.1011 41.9092 76.2616 41.9092 75.7485L41.9092 56.8564C41.9092 56.3433 41.347 55.5037 40.0964 55.5037L36.722 55.5037ZM30.9092 56.8564C30.9092 53.6662 33.7611 51.5037 36.722 51.5037L40.0964 51.5037C43.0572 51.5037 45.9092 53.6662 45.9092 56.8564L45.9092 75.7485C45.9092 78.9386 43.0572 81.1011 40.0964 81.1011L36.722 81.1011C33.7611 81.1011 30.9092 78.9386 30.9092 75.7485L30.9092 56.8564ZM11 87.6336C11 86.529 11.8954 85.6336 13 85.6336L82.2078 85.6336C83.3124 85.6336 84.2078 86.529 84.2078 87.6336 84.2078 88.7382 83.3124 89.6336 82.2078 89.6336L13 89.6336C11.8954 89.6336 11 88.7381 11 87.6336ZM18.7088 65.9324C17.6797 65.9324 16.896 66.7468 16.896 67.6894L16.896 75.3443C16.896 76.2869 17.6797 77.1013 18.7088 77.1013L22.0832 77.1013C23.1123 77.1013 23.896 76.2869 23.896 75.3443L23.896 67.6894C23.896 66.7468 23.1123 65.9324 22.0832 65.9324L18.7088 65.9324ZM12.896 67.6894C12.896 64.4822 15.5264 61.9324 18.7088 61.9324L22.0832 61.9324C25.2656 61.9324 27.896 64.4822 27.896 67.6894L27.896 75.3443C27.896 78.5515 25.2656 81.1013 22.0832 81.1013L18.7088 81.1013C15.5264 81.1013 12.896 78.5515 12.896 75.3443L12.896 67.6894Z" class="MsftOfcThm_Background1_Fill_v2" stroke="none" stroke-width="1" stroke-linecap="butt" stroke-linejoin="miter" stroke-miterlimit="4" fill="#FFFFFF" fill-rule="evenodd" fill-opacity="1" clip-rule="evenodd"/></svg>