<svg width="96" height="96" viewBox="0 0 96 96" xmlns="http://www.w3.org/2000/svg" xmlns:xlink="http://www.w3.org/1999/xlink" fill="none" overflow="hidden"><style>
.MsftOfcThm_Background1_Fill_v2 {
 fill:#FFFFFF; 
}
</style>
<path d="M79 48C79 30.8792 65.1208 17 48 17 40.1594 17 32.9987 19.9108 27.5395 24.7107L71.2893 68.4605C76.0892 63.0013 79 55.8406 79 48ZM68.4609 71.2889 24.7111 27.5391C19.9109 32.9983 17 40.1592 17 48 17 65.1208 30.8792 79 48 79 55.8408 79 63.0017 76.0891 68.4609 71.2889ZM48 13C67.33 13 83 28.67 83 48 83 67.33 67.33 83 48 83 28.67 83 13 67.33 13 48 13 28.67 28.67 13 48 13Z" class="MsftOfcThm_Background1_Fill_v2" stroke="none" stroke-width="1" stroke-linecap="butt" stroke-linejoin="miter" stroke-miterlimit="4" fill="#FFFFFF" fill-rule="evenodd" fill-opacity="1" clip-rule="evenodd"/></svg>