<svg width="160" height="160" viewBox="0 0 160 160" xmlns="http://www.w3.org/2000/svg" xmlns:xlink="http://www.w3.org/1999/xlink" fill="none" overflow="hidden"><style>
.MsftOfcThm_Background1_Fill_v2 {
 fill:#FFFFFF; 
}
</style>
<path d="M112.433 24.117C106.973 18.657 98.238 19.721 92.969 24.99L85.259 32.7 47.163 48.962C43.018 50.732 39.764 54.308 38.433 58.607L20.863 115.371C16.347 129.963 30.029 143.645 44.621 139.129L101.385 121.559C105.684 120.228 109.261 116.974 111.03 112.829L127.292 74.733 135.002 67.023C140.271 61.754 141.335 53.019 135.875 47.56L112.433 24.117ZM50.303 56.32 86.624 40.816 119.176 73.368 103.672 109.689C102.814 111.699 101.046 113.289 99.02 113.916L42.255 131.487C39.645 132.294 37.085 132.096 34.871 131.187L69.345 96.853C73.6388 97.8944 77.9638 95.2578 79.0052 90.964 80.0466 86.6702 77.41 82.3452 73.1162 81.3038 68.8224 80.2624 64.4974 82.899 63.456 87.1928 63.1252 88.5566 63.159 89.9834 63.554 91.33L29.056 125.687C27.938 123.349 27.628 120.573 28.506 117.737L46.076 60.972C46.703 58.946 48.293 57.178 50.303 56.32ZM129.345 61.366 123.917 66.794 93.197 36.075 98.627 30.647C101.465 27.808 105.092 28.09 106.776 29.774L130.218 53.216C131.902 54.9 132.184 58.527 129.345 61.366Z" class="MsftOfcThm_Background1_Fill_v2" stroke="none" stroke-width="1" stroke-linecap="butt" stroke-linejoin="miter" stroke-miterlimit="4" fill="#FFFFFF" fill-rule="evenodd" fill-opacity="1" clip-rule="evenodd"/></svg>