<svg width="96" height="96" viewBox="0 0 96 96" xmlns="http://www.w3.org/2000/svg" xmlns:xlink="http://www.w3.org/1999/xlink" fill="none" overflow="hidden"><style>
.MsftOfcThm_Background1_Fill_v2 {
 fill:#FFFFFF; 
}
</style>
<path d="M48 16.74C30.8792 16.74 17 30.6192 17 47.74 17 64.8608 30.8792 78.74 48 78.74 65.1208 78.74 79 64.8608 79 47.74 79 30.6192 65.1208 16.74 48 16.74ZM13 47.74C13 28.41 28.67 12.74 48 12.74 67.33 12.74 83 28.41 83 47.74 83 67.07 67.33 82.74 48 82.74 28.67 82.74 13 67.07 13 47.74ZM50 46.5853 50 24.74C50 23.6354 49.1046 22.74 48 22.74 46.8954 22.74 46 23.6354 46 24.74L46 47.7016C45.9985 47.7813 46.0019 47.8609 46.0099 47.9399 46.0386 48.2292 46.129 48.5004 46.2677 48.7402 46.4061 48.9805 46.5961 49.1946 46.8328 49.3643 46.8969 49.4104 46.9638 49.4528 47.0332 49.4912L59.8586 56.8959C60.8152 57.4482 62.0383 57.1205 62.5906 56.1639 63.1429 55.2073 62.8152 53.9841 61.8586 53.4318L50 46.5853Z" class="MsftOfcThm_Background1_Fill_v2" stroke="none" stroke-width="1" stroke-linecap="butt" stroke-linejoin="miter" stroke-miterlimit="4" fill="#FFFFFF" fill-rule="evenodd" fill-opacity="1" clip-rule="evenodd"/></svg>