<svg width="96" height="96" viewBox="0 0 96 96" xmlns="http://www.w3.org/2000/svg" xmlns:xlink="http://www.w3.org/1999/xlink" fill="none" overflow="hidden"><style>
.MsftOfcThm_Background1_Fill_v2 {
 fill:#FFFFFF; 
}
</style>
<path d="M39.1833 21.8843 39.1843 21.8827C39.9214 20.7113 41.2038 20 42.58 20L53.43 20C54.8062 20 56.0886 20.7113 56.8257 21.8827L56.8267 21.8843 61.9008 30 34.1092 30 39.1833 21.8843ZM29.3917 30 35.7942 19.7597 35.7967 19.7557C37.2598 17.428 39.8168 16 42.58 16L53.43 16C56.1932 16 58.7502 17.428 60.2133 19.7557L60.2158 19.7597 66.6183 30 74 30C79.5229 30 84 34.4772 84 40L84 70C84 75.5228 79.5229 80 74 80L22 80C16.4772 80 12 75.5228 12 70L12 40C12 34.4772 16.4772 30 22 30L29.3917 30ZM30.5 34 22 34C18.6863 34 16 36.6863 16 40L16 70C16 73.3137 18.6863 76 22 76L74 76C77.3137 76 80 73.3137 80 70L80 40C80 36.6863 77.3137 34 74 34L65.51 34 65.5 34 30.5 34ZM48 42C40.8203 42 35 47.8203 35 55 35 62.1797 40.8203 68 48 68 55.1797 68 61 62.1797 61 55 61 47.8203 55.1797 42 48 42ZM31 55C31 45.6112 38.6112 38 48 38 57.3888 38 65 45.6112 65 55 65 64.3888 57.3888 72 48 72 38.6112 72 31 64.3888 31 55ZM26 41C26 42.6569 24.6569 44 23 44 21.3431 44 20 42.6569 20 41 20 39.3431 21.3431 38 23 38 24.6569 38 26 39.3431 26 41Z" class="MsftOfcThm_Background1_Fill_v2" stroke="none" stroke-width="1" stroke-linecap="butt" stroke-linejoin="miter" stroke-miterlimit="4" fill="#FFFFFF" fill-rule="evenodd" fill-opacity="1" clip-rule="evenodd"/></svg>