<svg width="96" height="96" viewBox="0 0 96 96" xmlns="http://www.w3.org/2000/svg" xmlns:xlink="http://www.w3.org/1999/xlink" fill="none" overflow="hidden"><style>
.MsftOfcThm_Background1_Fill_v2 {
 fill:#FFFFFF; 
}
</style>
<path d="M69.4834 16.1813C66.1697 16.1813 63.4834 18.8676 63.4834 22.1813L63.4834 49.1902C63.4834 52.5039 66.1697 55.1902 69.4834 55.1902L73.8471 55.1902C77.1608 55.1902 79.8471 52.5039 79.8471 49.1902L79.8471 22.1813C79.8471 18.8676 77.1608 16.1813 73.8471 16.1813L69.4834 16.1813ZM67.4834 22.1813C67.4834 21.0768 68.3789 20.1813 69.4834 20.1813L73.8471 20.1813C74.9516 20.1813 75.8471 21.0767 75.8471 22.1813L75.8471 49.1902C75.8471 50.2947 74.9516 51.1902 73.8471 51.1902L69.4834 51.1902C68.3789 51.1902 67.4834 50.2947 67.4834 49.1902L67.4834 22.1813ZM39.8289 30.3597C39.8289 27.046 42.5152 24.3597 45.8289 24.3597L50.1926 24.3597C53.5063 24.3597 56.1926 27.046 56.1926 30.3597L56.1926 49.1905C56.1926 52.5042 53.5063 55.1905 50.1926 55.1905L45.8289 55.1905C42.5152 55.1905 39.8289 52.5042 39.8289 49.1905L39.8289 30.3597ZM45.8289 28.3597C44.7243 28.3597 43.8289 29.2551 43.8289 30.3597L43.8289 49.1905C43.8289 50.2951 44.7243 51.1905 45.8289 51.1905L50.1926 51.1905C51.2971 51.1905 52.1926 50.2951 52.1926 49.1905L52.1926 30.3597C52.1926 29.2551 51.2971 28.3597 50.1926 28.3597L45.8289 28.3597ZM82.9375 73.8389C82.9375 74.9434 82.0421 75.8389 80.9375 75.8389L52.5949 75.8389C51.8233 77.6048 50.0612 78.8389 48.0109 78.8389 45.9606 78.8389 44.1985 77.6048 43.427 75.8389L15.0627 75.8389C13.9581 75.8389 13.0627 74.9434 13.0627 73.8389 13.0627 72.7343 13.9581 71.8389 15.0627 71.8389L43.427 71.8389C44.1985 70.073 45.9606 68.8389 48.0109 68.8389 50.0612 68.8389 51.8233 70.073 52.5949 71.8389L80.9375 71.8389C82.0421 71.8389 82.9375 72.7343 82.9375 73.8389ZM16.1749 38.5371C16.1749 35.2234 18.8612 32.5371 22.1749 32.5371L26.5385 32.5371C29.8522 32.5371 32.5385 35.2234 32.5385 38.5371L32.5385 49.1899C32.5385 52.5036 29.8522 55.1899 26.5385 55.1899L22.1749 55.1899C18.8612 55.1899 16.1749 52.5036 16.1749 49.1899L16.1749 38.5371ZM22.1749 36.5371C21.0703 36.5371 20.1749 37.4325 20.1749 38.5371L20.1749 49.1899C20.1749 50.2944 21.0703 51.1899 22.1749 51.1899L26.5385 51.1899C27.6431 51.1899 28.5385 50.2944 28.5385 49.1899L28.5385 38.5371C28.5385 37.4325 27.6431 36.5371 26.5385 36.5371L22.1749 36.5371Z" class="MsftOfcThm_Background1_Fill_v2" stroke="none" stroke-width="1" stroke-linecap="butt" stroke-linejoin="miter" stroke-miterlimit="4" fill="#FFFFFF" fill-rule="evenodd" fill-opacity="1" clip-rule="evenodd"/></svg>