<svg width="96" height="96" viewBox="0 0 96 96" xmlns="http://www.w3.org/2000/svg" xmlns:xlink="http://www.w3.org/1999/xlink" fill="none" overflow="hidden"><style>
.MsftOfcThm_Background1_Fill_v2 {
 fill:#FFFFFF; 
}
</style>
<path d="M39.1885 27.502C35.8748 27.502 33.1885 30.1882 33.1885 33.502 33.1885 36.8157 35.8748 39.502 39.1885 39.502 42.5022 39.502 45.1885 36.8157 45.1885 33.502 45.1885 30.1882 42.5022 27.502 39.1885 27.502ZM18.25 31.502 29.3885 31.502C30.3151 26.9375 34.3506 23.502 39.1885 23.502 44.0264 23.502 48.0619 26.9375 48.9884 31.502L77.7503 31.502C78.8548 31.502 79.7503 32.3974 79.7503 33.502 79.7503 34.6065 78.8548 35.502 77.7503 35.502L48.9884 35.502C48.0619 40.0664 44.0264 43.502 39.1885 43.502 34.3506 43.502 30.3151 40.0664 29.3885 35.502L18.25 35.502C17.1454 35.502 16.25 34.6065 16.25 33.502 16.25 32.3974 17.1454 31.502 18.25 31.502ZM47.012 60.499C47.9386 55.9345 51.9741 52.499 56.812 52.499 61.6499 52.499 65.6854 55.9345 66.612 60.499L77.7505 60.499C78.8551 60.499 79.7505 61.3945 79.7505 62.499 79.7505 63.6036 78.8551 64.499 77.7505 64.499L66.612 64.499C65.6854 69.0635 61.6499 72.499 56.812 72.499 51.9741 72.499 47.9386 69.0635 47.012 64.499L18.2502 64.499C17.1457 64.499 16.2502 63.6036 16.2502 62.499 16.2502 61.3945 17.1457 60.499 18.2502 60.499L47.012 60.499ZM62.812 62.499C62.812 59.1853 60.1257 56.499 56.812 56.499 53.4983 56.499 50.812 59.1853 50.812 62.499 50.812 65.8127 53.4983 68.499 56.812 68.499 60.1257 68.499 62.812 65.8127 62.812 62.499Z" class="MsftOfcThm_Background1_Fill_v2" stroke="none" stroke-width="1" stroke-linecap="butt" stroke-linejoin="miter" stroke-miterlimit="4" fill="#FFFFFF" fill-rule="evenodd" fill-opacity="1" clip-rule="evenodd"/></svg>