<svg width="96" height="96" viewBox="0 0 96 96" xmlns="http://www.w3.org/2000/svg" xmlns:xlink="http://www.w3.org/1999/xlink" fill="none" overflow="hidden"><style>
.MsftOfcThm_Text1_Fill_v2 {
 fill:#000000; 
}
</style>
<path d="M34 14C35.1046 14 36 14.8954 36 16L36 20 60 20 60 16C60 14.8954 60.8954 14 62 14 63.1046 14 64 14.8954 64 16L64 20 70 20C75.5228 20 80 24.4772 80 30L80 70C80 75.5228 75.5228 80 70 80L26 80C20.4772 80 16 75.5228 16 70L16 30C16 24.4772 20.4772 20 26 20L32 20 32 16C32 14.8954 32.8954 14 34 14ZM60 24 60 28C60 29.1046 60.8954 30 62 30 63.1046 30 64 29.1046 64 28L64 24 70 24C73.3137 24 76 26.6863 76 30L76 37 20 37 20 30C20 26.6863 22.6863 24 26 24L32 24 32 28C32 29.1046 32.8954 30 34 30 35.1046 30 36 29.1046 36 28L36 24 60 24ZM20 41 20 70C20 73.3137 22.6863 76 26 76L70 76C73.3137 76 76 73.3137 76 70L76 41 20 41ZM34 48C35.1046 48 36 48.8954 36 50L36 54C36 55.1046 35.1046 56 34 56L30 56C28.8954 56 28 55.1046 28 54L28 50C28 48.8954 28.8954 48 30 48L34 48ZM50 48 46 48C44.8954 48 44 48.8954 44 50L44 54C44 55.1046 44.8954 56 46 56L50 56C51.1046 56 52 55.1046 52 54L52 50C52 48.8954 51.1046 48 50 48ZM60 50C60 48.8954 60.8954 48 62 48L66 48C67.1046 48 68 48.8954 68 50L68 54C68 55.1046 67.1046 56 66 56L62 56C60.8954 56 60 55.1046 60 54L60 50ZM30 61C28.8954 61 28 61.8954 28 63L28 67C28 68.1046 28.8954 69 30 69L34 69C35.1046 69 36 68.1046 36 67L36 63C36 61.8954 35.1046 61 34 61L30 61ZM46 61 50 61C51.1046 61 52 61.8954 52 63L52 67C52 68.1046 51.1046 69 50 69L46 69C44.8954 69 44 68.1046 44 67L44 63C44 61.8954 44.8954 61 46 61ZM68 63C68 61.8954 67.1046 61 66 61L62 61C60.8954 61 60 61.8954 60 63L60 67C60 68.1046 60.8954 69 62 69L66 69C67.1046 69 68 68.1046 68 67L68 63Z" class="MsftOfcThm_Text1_Fill_v2" stroke="none" stroke-width="1" stroke-linecap="butt" stroke-linejoin="miter" stroke-miterlimit="4" fill="#000000" fill-rule="evenodd" fill-opacity="1" clip-rule="evenodd"/></svg>