<svg width="96" height="96" viewBox="0 0 96 96" xmlns="http://www.w3.org/2000/svg" xmlns:xlink="http://www.w3.org/1999/xlink" fill="none" overflow="hidden"><style>
.MsftOfcThm_Text1_Fill_v2 {
 fill:#000000; 
}
</style>
<path d="M51 20C52.1046 20 53 19.1046 53 18 53 16.8954 52.1046 16 51 16L43 16C41.8954 16 41 16.8954 41 18 41 19.1046 41.8954 20 43 20L45 20 45 22.101C29.3247 23.3727 17 36.497 17 52.5 17 69.3447 30.6553 83 47.5 83 64.3447 83 78 69.3447 78 52.5 78 36.1583 65.1479 22.8183 49 22.0362L49 20 51 20ZM21 52.5C21 37.8645 32.8645 26 47.5 26 62.1355 26 74 37.8645 74 52.5 74 67.1355 62.1355 79 47.5 79 32.8645 79 21 67.1355 21 52.5ZM49 30C49 28.8954 48.1046 28 47 28 45.8954 28 45 28.8954 45 30L45 33C45 34.1046 45.8954 35 47 35 48.1046 35 49 34.1046 49 33L49 30ZM47 70C48.1046 70 49 70.8954 49 72L49 75C49 76.1046 48.1046 77 47 77 45.8954 77 45 76.1046 45 75L45 72C45 70.8954 45.8954 70 47 70ZM70.0913 54.2412C71.1959 54.2412 72.0913 53.3458 72.0913 52.2412 72.0913 51.1366 71.1959 50.2412 70.0913 50.2412L66.9816 50.2412C65.877 50.2412 64.9816 51.1366 64.9816 52.2412 64.9816 53.3458 65.877 54.2412 66.9816 54.2412L70.0913 54.2412ZM30.1104 52.2412C30.1104 53.3458 29.2149 54.2412 28.1104 54.2412L25.0007 54.2412C23.8961 54.2412 23.0007 53.3458 23.0007 52.2412 23.0007 51.1366 23.8961 50.2412 25.0007 50.2412L28.1104 50.2412C29.2149 50.2412 30.1104 51.1366 30.1104 52.2412ZM65.2853 38.1071C66.0664 37.326 66.0664 36.0597 65.2853 35.2787 64.5043 34.4976 63.2379 34.4976 62.4569 35.2787L60.258 37.4775C59.4769 38.2586 59.4769 39.5249 60.258 40.306 61.039 41.087 62.3054 41.087 63.0864 40.306L65.2853 38.1071ZM35.5998 64.9632C36.3808 65.7443 36.3808 67.0106 35.5998 67.7917L33.4009 69.9905C32.6198 70.7716 31.3535 70.7716 30.5724 69.9905 29.7914 69.2095 29.7914 67.9432 30.5724 67.1621L32.7713 64.9632C33.5524 64.1822 34.8187 64.1822 35.5998 64.9632ZM30.8529 39.5124C30.0718 38.7313 30.0718 37.465 30.8529 36.6839 31.6339 35.9029 32.9003 35.9029 33.6813 36.6839L35.8066 38.8092C36.5876 39.5902 36.5876 40.8566 35.8066 41.6376 35.0255 42.4187 33.7592 42.4187 32.9781 41.6376L30.8529 39.5124ZM59.5438 65.3748C58.7627 66.1559 58.7627 67.4222 59.5438 68.2033L61.669 70.3285C62.4501 71.1096 63.7164 71.1096 64.4975 70.3285 65.2785 69.5475 65.2785 68.2812 64.4975 67.5001L62.3722 65.3748C61.5912 64.5938 60.3248 64.5938 59.5438 65.3748ZM48.0193 51.2616C46.9896 50.8618 45.8308 51.3724 45.431 52.4021 45.0312 53.4318 45.5419 54.5906 46.5715 54.9904L64.2761 61.8644C65.3058 62.2642 66.4646 61.7536 66.8644 60.7239 67.2642 59.6942 66.7536 58.5354 65.7239 58.1356L48.0193 51.2616Z" class="MsftOfcThm_Text1_Fill_v2" stroke="none" stroke-width="1" stroke-linecap="butt" stroke-linejoin="miter" stroke-miterlimit="4" fill="#000000" fill-rule="evenodd" fill-opacity="1" clip-rule="evenodd"/></svg>