<svg width="96" height="96" viewBox="0 0 96 96" xmlns="http://www.w3.org/2000/svg" xmlns:xlink="http://www.w3.org/1999/xlink" fill="none" overflow="hidden"><style>
.MsftOfcThm_Text1_Fill_v2 {
 fill:#000000; 
}
</style>
<path d="M48.7539 79.3358C48.4895 79.3424 48.2243 79.3458 47.9583 79.3458 35.9684 79.3458 25.5546 72.5979 20.3073 62.6927L54.0096 62.6927 48.7539 79.3358ZM16.6875 48.075C16.6875 51.8025 17.3397 55.3777 18.5362 58.6927L35.9647 58.6927 25.4624 26.354C20.0296 31.9794 16.6875 39.6369 16.6875 48.075ZM28.7163 23.4234C34.0223 19.2759 40.7017 16.8041 47.9583 16.8041 53.0663 16.8041 57.8883 18.0289 62.1466 20.2007L34.2518 40.4684 28.7163 23.4234ZM35.5219 44.3793C35.7078 44.3161 35.8875 44.2243 36.0546 44.1028L47.7064 35.6369 59.7956 44.3705 55.2665 58.7125C55.1728 58.6993 55.0783 58.6926 54.9837 58.6927L40.1703 58.6927C40.169 58.6885 40.1676 58.6844 40.1663 58.6803L35.5219 44.3793ZM53.0771 78.9288C64.8127 76.9964 74.3465 68.5302 77.8181 57.3904L63.2111 46.8379 53.0771 78.9288ZM79.2291 48.0749C79.2291 37.4674 73.9475 28.0934 65.8705 22.4393L51.1119 33.1625 78.8151 53.1761C79.0875 51.516 79.2291 49.812 79.2291 48.0749ZM47.9583 83.3458C67.4378 83.3458 83.2291 67.5545 83.2291 48.0749 83.2291 28.5954 67.4378 12.8041 47.9583 12.8041 28.4788 12.8041 12.6875 28.5954 12.6875 48.075 12.6875 67.5545 28.4788 83.3458 47.9583 83.3458Z" class="MsftOfcThm_Text1_Fill_v2" stroke="none" stroke-width="1" stroke-linecap="butt" stroke-linejoin="miter" stroke-miterlimit="4" fill="#000000" fill-rule="evenodd" fill-opacity="1" clip-rule="evenodd"/></svg>