<svg width="96" height="96" viewBox="0 0 96 96" xmlns="http://www.w3.org/2000/svg" xmlns:xlink="http://www.w3.org/1999/xlink" fill="none" overflow="hidden"><style>
.MsftOfcThm_Text1_Fill_v2 {
 fill:#000000; 
}
</style>
<path d="M10 26.5C10 20.615 14.8024 16 20.6405 16L75.3595 16C81.1976 16 86 20.615 86 26.5L86 54.5C86 60.385 81.1976 65 75.3595 65L52.7386 65 34.0721 80.9631C34.0711 80.964 34.0702 80.9648 34.0692 80.9657 30.9162 83.6781 25.9693 81.4585 26.0001 77.2515 26.0273 73.5289 26.0205 68.8161 26.0076 65L20.6405 65C14.8024 65 10 60.385 10 54.5L10 26.5ZM20.6405 20C16.9346 20 14 22.9003 14 26.5L14 54.5C14 58.0998 16.9346 61 20.6405 61L28 61 29.9917 61 30 62.9917C30.0169 67.0434 30.0324 72.8523 29.9999 77.2808 29.9947 77.9977 30.8694 78.4427 31.4613 77.9327L31.4668 77.9279 50.7001 61.48 51.2614 61 52 61 75.3595 61C79.0654 61 82 58.0998 82 54.5L82 26.5C82 22.9003 79.0654 20 75.3595 20L20.6405 20Z" class="MsftOfcThm_Text1_Fill_v2" stroke="none" stroke-width="1" stroke-linecap="butt" stroke-linejoin="miter" stroke-miterlimit="4" fill="#000000" fill-rule="evenodd" fill-opacity="1" clip-rule="evenodd"/></svg>