<svg width="96" height="96" viewBox="0 0 96 96" xmlns="http://www.w3.org/2000/svg" xmlns:xlink="http://www.w3.org/1999/xlink" fill="none" overflow="hidden"><style>
.MsftOfcThm_Text1_Fill_v2 {
 fill:#000000; 
}
</style>
<path d="M54.449 37.6658 49.5072 47.1896C48.4095 49.3051 46.5923 50.959 44.3832 51.8532L22.8995 60.5498C18.8064 62.2066 14.7318 58.1321 16.3887 54.039L25.0852 32.5553C25.9795 30.3461 27.6333 28.529 29.7488 27.4313L39.2198 22.5169 43.7849 17.9518C46.128 15.6087 49.927 15.6087 52.2702 17.9518L58.9739 24.6556C61.3171 26.9987 61.3171 30.7977 58.9739 33.1409L54.449 37.6658ZM50.3614 36.8586 45.9567 45.3473C45.2981 46.6166 44.2078 47.6089 42.8823 48.1455L23.9936 55.7915 34.2634 45.5218C35.1268 45.6071 36.02 45.319 36.6813 44.6577 37.8529 43.4861 37.8529 41.5866 36.6813 40.4151 35.5098 39.2435 33.6103 39.2435 32.4387 40.4151 31.8448 41.0089 31.552 41.7898 31.5602 42.5681L21.122 53.0064 28.793 34.0562C29.3295 32.7307 30.3218 31.6404 31.5911 30.9818L40.0798 26.5771 50.3614 36.8586ZM56.1455 30.3124 52.8088 33.6492 43.2766 24.117 46.6133 20.7802C47.3944 19.9992 48.6607 19.9992 49.4417 20.7802L56.1455 27.484C56.9265 28.2651 56.9265 29.5314 56.1455 30.3124ZM60.4619 61.5325 75.4617 43.2221C76.5567 41.8853 76.3608 39.9139 75.024 38.8188 73.6872 37.7238 71.7158 37.9197 70.6208 39.2565L55.6751 57.501C56.5596 57.8445 57.3538 58.2941 58.0096 58.8314 58.8657 59.5327 59.7453 60.4281 60.4619 61.5325ZM61.9764 65.8581 62.044 65.9135 78.556 45.7569C81.051 42.7112 80.6045 38.2195 77.5588 35.7245 74.5131 33.2295 70.0215 33.676 67.5265 36.7217L51.1314 56.7355C50.5928 56.7489 50.05 56.7979 49.5095 56.8849 46.1766 57.4213 42.8009 59.4188 40.7943 63.5608 39.9707 65.2609 39.3529 66.6087 38.8402 67.7273 38.1326 69.2711 37.6251 70.3783 37.053 71.3719 36.1889 72.8729 35.2451 73.9606 33.056 75.6648 32.4151 76.1638 32.1396 77.0008 32.3589 77.7829 32.5782 78.565 33.2487 79.1368 34.0556 79.2298 37.0961 79.5802 42.4491 80.0685 47.5873 79.442 52.5848 78.8327 58.1668 77.0704 60.6002 72.206 61.7527 69.902 62.1503 67.7756 61.9764 65.8581ZM57.0228 70.4164C55.5617 73.3373 51.8904 74.8878 47.1032 75.4714 44.3316 75.8094 41.4474 75.7897 38.9387 75.646 39.5334 74.9386 40.0388 74.2027 40.5195 73.3677 41.1682 72.2411 41.8025 70.8622 42.5987 69.1312L42.5988 69.1311C43.1136 68.0119 43.6962 66.7455 44.3941 65.3048 45.7877 62.4283 47.9979 61.1796 50.1451 60.8341 52.4161 60.4685 54.4999 61.127 55.4748 61.9257 56.512 62.7753 57.3959 63.858 57.7897 65.1685 58.1678 66.4265 58.1667 68.1297 57.0228 70.4164Z" class="MsftOfcThm_Text1_Fill_v2" stroke="none" stroke-width="1" stroke-linecap="butt" stroke-linejoin="miter" stroke-miterlimit="4" fill="#000000" fill-rule="evenodd" fill-opacity="1" clip-rule="evenodd"/></svg>