<svg width="96" height="96" viewBox="0 0 96 96" xmlns="http://www.w3.org/2000/svg" xmlns:xlink="http://www.w3.org/1999/xlink" fill="none" overflow="hidden"><style>
.MsftOfcThm_Text1_Fill_v2 {
 fill:#000000; 
}
</style>
<path d="M35.2136 25.0383C38.2086 17.9213 45.0417 12.89 53.0698 12.89 63.4563 12.89 71.8235 21.2891 72.5138 31.759 80.7498 33.1283 86.9598 40.316 86.9598 49.48 86.9598 59.322 79.3052 67.44 69.6798 67.44L69.6796 67.44 69.6795 67.44 69.6793 67.44 69.6791 67.44 69.6789 67.44 69.6787 67.44 69.6786 67.44 69.6784 67.44 69.6782 67.44 69.678 67.44 69.6778 67.44 69.6776 67.44 69.6775 67.44 69.6773 67.44 69.6771 67.44 69.6769 67.44 69.6767 67.44 69.6765 67.44 69.6763 67.44 69.6762 67.44 69.676 67.44 69.6758 67.44 69.6756 67.44 69.6754 67.44 69.6752 67.44 69.675 67.44 69.6748 67.44 69.6746 67.44 69.6744 67.44 69.6742 67.44 69.674 67.44 69.6739 67.44 69.6737 67.44 69.6735 67.44 69.6733 67.44 69.6731 67.44 69.6729 67.44 69.6727 67.44 69.6725 67.44 69.6723 67.44 69.6721 67.44 69.6719 67.44 69.6717 67.44 69.6715 67.44 69.6713 67.44 69.6711 67.44 69.6709 67.44 69.6707 67.44 69.6704 67.44 69.6702 67.44 69.67 67.44 69.6698 67.44 69.6696 67.44 69.6694 67.44 69.6692 67.44 69.669 67.44 69.6688 67.44 69.6686 67.44 69.6684 67.44 69.6682 67.44 69.668 67.44 69.6677 67.44 69.6675 67.44 69.6673 67.44 69.6671 67.44 69.6669 67.44 69.6667 67.44 69.6665 67.44 69.6663 67.44 69.666 67.44 69.6658 67.44 69.6656 67.44 69.6654 67.44 69.6652 67.44 69.665 67.44 69.6648 67.44 69.6645 67.44 69.6643 67.44 69.6641 67.44 69.6639 67.44 69.6637 67.44 69.6635 67.44 69.6632 67.44 69.663 67.44 69.6628 67.44 69.6626 67.44 69.6624 67.44 69.6621 67.44 69.6619 67.44 69.6617 67.44 69.6615 67.44 69.6613 67.44 69.661 67.44 69.6608 67.44 69.6606 67.44 69.6604 67.44 69.6601 67.44 69.6599 67.44 69.6597 67.44 69.6595 67.44 69.6592 67.44 69.659 67.44 69.6588 67.44 69.6586 67.44 69.6583 67.44 69.6581 67.44 69.6579 67.44 69.6577 67.44 69.6574 67.44 69.6572 67.44 69.657 67.44 69.6568 67.44 69.6565 67.44 69.6563 67.44 69.6561 67.44 69.6558 67.44 69.6556 67.44 69.6554 67.44 69.6552 67.44 69.6549 67.44 69.6547 67.44 69.6545 67.44 69.6542 67.44 69.654 67.44 69.6538 67.44 69.6535 67.44 69.6533 67.44 69.6531 67.44 69.6529 67.44 69.6526 67.44 69.6524 67.44 69.6522 67.44 69.6519 67.44 69.6517 67.44 69.6515 67.44 69.6512 67.44 69.651 67.44 69.6508 67.44 69.6505 67.44 69.6503 67.44 69.6501 67.44 69.6498 67.44 69.6496 67.44 69.6494 67.44 69.6491 67.44 69.6489 67.44 69.6487 67.44 69.6484 67.44 69.6482 67.44 69.648 67.44 69.6477 67.44 69.6475 67.44 69.6473 67.44 69.647 67.44 69.6468 67.44 69.6466 67.44 69.6463 67.44 69.6461 67.44 69.6459 67.44 69.6456 67.44 69.6454 67.44 69.6452 67.44 69.6449 67.44 69.6447 67.44 69.6445 67.44 69.6442 67.44 69.644 67.44 69.6438 67.44 69.6435 67.44 69.6433 67.44 69.6431 67.44 69.6428 67.44 69.6426 67.44 69.6424 67.44 69.6421 67.44 69.6419 67.44 69.6417 67.44 69.6414 67.44 69.6412 67.44 69.6409 67.44 69.6407 67.44 69.6405 67.44 69.6402 67.44 69.64 67.44 69.6398 67.44 69.6395 67.44 69.6393 67.44 69.6391 67.44 69.6388 67.44 69.6386 67.44 69.6384 67.44 69.6381 67.44 69.6379 67.44 69.6377 67.44 69.6374 67.44 69.6372 67.44 69.637 67.44 69.6367 67.44 69.6365 67.44 69.6363 67.44 69.636 67.44 69.6358 67.44 69.6356 67.44 69.6353 67.44 69.6351 67.44 69.6349 67.44 69.6347 67.44 69.6344 67.44 69.6342 67.44 69.634 67.44 69.6337 67.44 69.6335 67.44 69.6333 67.44 69.633 67.44 69.6328 67.44 69.6326 67.44 69.6323 67.44 69.6321 67.44 69.6319 67.44 69.6317 67.44 69.6314 67.44 69.6312 67.44 69.631 67.44 69.6307 67.44 69.6305 67.44 69.6303 67.44 69.6301 67.44 69.6298 67.44 69.6296 67.44 69.6294 67.44 69.6291 67.44 69.6289 67.44 69.6287 67.44 69.6285 67.44 69.6282 67.44 69.628 67.44 69.6278 67.44 69.6276 67.44 69.6273 67.44 69.6271 67.44 69.6269 67.44 69.6267 67.44 69.6264 67.44 69.6262 67.44 69.626 67.44 69.6258 67.44 69.6255 67.44 69.6253 67.44 69.6251 67.44 69.6249 67.44 69.6247 67.44 69.6244 67.44 69.6242 67.44 69.624 67.44 69.6238 67.44 69.6236 67.44 69.6233 67.44 69.6231 67.44 69.6229 67.44 69.6227 67.44 69.6225 67.44 69.6222 67.44 69.622 67.44 69.6218 67.44 69.6216 67.44 69.6214 67.44 69.6212 67.44 69.6209 67.44 69.6207 67.44 69.6205 67.44 69.6203 67.44 69.6201 67.44 69.6199 67.44 69.6197 67.44 69.6194 67.44 69.6192 67.44 69.619 67.44 69.6188 67.44 69.6186 67.44 69.6184 67.44 69.6182 67.44 69.618 67.44 69.6178 67.44 69.6175 67.44 69.6173 67.44 69.6171 67.44 69.6169 67.44 69.6167 67.44 69.6165 67.44 69.6163 67.44 69.6161 67.44 69.6159 67.44 69.6157 67.44 69.6155 67.44 69.6153 67.44 69.6151 67.44 69.6149 67.44 69.6147 67.44 69.6145 67.44 69.6143 67.44 69.6141 67.44 69.6139 67.44 69.6137 67.44 69.6135 67.44 69.6133 67.44 69.6131 67.44 69.6129 67.44 69.6127 67.44 69.6125 67.44 69.6123 67.44 69.6121 67.44 69.6119 67.44 69.6117 67.44 69.6115 67.44 69.6113 67.44 69.6111 67.44 69.6109 67.44 69.6107 67.44 69.6106 67.44 69.6104 67.44 69.6102 67.44 69.61 67.44 69.6098 67.44 69.6096 67.44 69.6094 67.44 69.6092 67.44 69.6091 67.44 69.6089 67.44 69.6087 67.44 69.6085 67.44 69.6083 67.44 69.6081 67.44 69.608 67.44 69.6078 67.44 69.6076 67.44 69.6074 67.44 69.6072 67.44 69.6071 67.44 69.6069 67.44 69.6067 67.44 69.6065 67.44 69.6064 67.44 69.6062 67.44 69.606 67.44 69.6058 67.44 69.6057 67.44 69.6055 67.44 69.6053 67.44 69.6051 67.44 69.605 67.44 69.6048 67.44 69.6046 67.44 69.6045 67.44 69.6043 67.44 69.6041 67.44 69.604 67.44 69.6038 67.44 69.6036 67.44 69.6035 67.44 69.6033 67.44 69.6031 67.44 69.603 67.44 69.6028 67.44 69.6027 67.44 69.6025 67.44 69.6024 67.44 69.6022 67.44 69.602 67.44 69.6019 67.44 69.6017 67.44 69.6016 67.44 69.6014 67.44 69.6013 67.44 69.6011 67.44 69.601 67.44 69.6008 67.44 69.6007 67.44 69.6005 67.44 69.6004 67.44 69.6002 67.44 69.6001 67.44 69.5999 67.44 69.5998 67.44 69.5996 67.44 69.5995 67.44 69.5994 67.44 69.5992 67.44 69.5991 67.44 69.5989 67.44 69.5988 67.44 69.5987 67.44 69.5985 67.44 69.5984 67.44 69.5983 67.44 69.5981 67.44 69.598 67.44 69.5979 67.44 69.5977 67.44 69.5976 67.44 69.5975 67.44 69.5973 67.44 69.5972 67.44 69.5971 67.44 69.597 67.44 69.5968 67.44 69.5967 67.44 69.5966 67.44 69.5965 67.44 69.5964 67.44 69.5962 67.44 69.5961 67.44 69.596 67.44 69.5959 67.44 69.5958 67.44 69.5956 67.44 69.5955 67.44 69.5954 67.44 69.5953 67.44 69.5952 67.44 69.5951 67.44 69.595 67.44 69.5949 67.44 69.5948 67.44 69.5947 67.44 69.5946 67.44 69.5945 67.44 69.5944 67.44 69.5942 67.44 69.5942 67.44 69.594 67.44 69.594 67.44 69.5939 67.44 69.5938 67.44 69.5937 67.44 69.5936 67.44 69.5935 67.44 69.5934 67.44 69.5933 67.44 69.5932 67.44 69.5931 67.44 69.593 67.44 69.5929 67.44 69.5928 67.44 69.5928 67.44 69.5927 67.44 69.5926 67.44 69.5925 67.44 69.5924 67.44 69.5924 67.44 69.5923 67.44 69.5922 67.44 69.5921 67.44 69.5921 67.44 69.592 67.44 69.5919 67.44 69.5918 67.44 69.5918 67.44 69.5917 67.44 69.5916 67.44 69.5916 67.44 69.5915 67.44 69.5914 67.44 69.5914 67.44 69.5913 67.44 69.5912 67.44 69.5912 67.44 69.5911 67.44 69.5911 67.44 69.591 67.44 69.591 67.44 69.5909 67.44 69.5909 67.44 69.5908 67.44 69.5908 67.44 69.5907 67.44 69.5907 67.44 69.5906 67.44 69.5906 67.44 69.5905 67.44 69.5905 67.44 69.5904 67.44 69.5904 67.44 69.5904 67.44 69.5903 67.44 69.5903 67.44 69.5903 67.44 69.5902 67.44 69.5902 67.44 69.5902 67.44 69.5901 67.44 69.5901 67.44 69.59 67.44 69.59 67.44 69.5899 67.44 69.5899 67.44 69.5899 67.44 69.5898 67.44 69.5898 67.44 68.8998 67.44C67.7952 67.44 66.8998 66.5446 66.8998 65.44 66.8998 64.3354 67.7952 63.44 68.8998 63.44L69.5898 63.44 69.5898 63.44 69.5899 63.44 69.5899 63.44 69.5899 63.44 69.59 63.44 69.59 63.44 69.5901 63.44 69.5901 63.44 69.5902 63.44 69.5902 63.44 69.5902 63.44 69.5903 63.44 69.5903 63.44 69.5903 63.44 69.5904 63.44 69.5904 63.44 69.5904 63.44 69.5905 63.44 69.5905 63.44 69.5906 63.44 69.5906 63.44 69.5907 63.44 69.5907 63.44 69.5908 63.44 69.5908 63.44 69.5909 63.44 69.5909 63.44 69.591 63.44 69.591 63.44 69.5911 63.44 69.5911 63.44 69.5912 63.44 69.5912 63.44 69.5913 63.44 69.5914 63.44 69.5914 63.44 69.5915 63.44 69.5916 63.44 69.5916 63.44 69.5917 63.44 69.5918 63.44 69.5918 63.44 69.5919 63.44 69.592 63.44 69.5921 63.44 69.5921 63.44 69.5922 63.44 69.5923 63.44 69.5924 63.44 69.5924 63.44 69.5925 63.44 69.5926 63.44 69.5927 63.44 69.5928 63.44 69.5928 63.44 69.5929 63.44 69.593 63.44 69.5931 63.44 69.5932 63.44 69.5933 63.44 69.5934 63.44 69.5935 63.44 69.5936 63.44 69.5937 63.44 69.5938 63.44 69.5939 63.44 69.594 63.44 69.594 63.44 69.5942 63.44 69.5942 63.44 69.5944 63.44 69.5945 63.44 69.5946 63.44 69.5947 63.44 69.5948 63.44 69.5949 63.44 69.595 63.44 69.5951 63.44 69.5952 63.44 69.5953 63.44 69.5954 63.44 69.5955 63.44 69.5956 63.44 69.5958 63.44 69.5959 63.44 69.596 63.44 69.5961 63.44 69.5962 63.44 69.5964 63.44 69.5965 63.44 69.5966 63.44 69.5967 63.44 69.5968 63.44 69.597 63.44 69.5971 63.44 69.5972 63.44 69.5973 63.44 69.5975 63.44 69.5976 63.44 69.5977 63.44 69.5979 63.44 69.598 63.44 69.5981 63.44 69.5983 63.44 69.5984 63.44 69.5985 63.44 69.5987 63.44 69.5988 63.44 69.5989 63.44 69.5991 63.44 69.5992 63.44 69.5994 63.44 69.5995 63.44 69.5996 63.44 69.5998 63.44 69.5999 63.44 69.6001 63.44 69.6002 63.44 69.6004 63.44 69.6005 63.44 69.6007 63.44 69.6008 63.44 69.601 63.44 69.6011 63.44 69.6013 63.44 69.6014 63.44 69.6016 63.44 69.6017 63.44 69.6019 63.44 69.602 63.44 69.6022 63.44 69.6024 63.44 69.6025 63.44 69.6027 63.44 69.6028 63.44 69.603 63.44 69.6031 63.44 69.6033 63.44 69.6035 63.44 69.6036 63.44 69.6038 63.44 69.604 63.44 69.6041 63.44 69.6043 63.44 69.6045 63.44 69.6046 63.44 69.6048 63.44 69.605 63.44 69.6051 63.44 69.6053 63.44 69.6055 63.44 69.6057 63.44 69.6058 63.44 69.606 63.44 69.6062 63.44 69.6064 63.44 69.6065 63.44 69.6067 63.44 69.6069 63.44 69.6071 63.44 69.6072 63.44 69.6074 63.44 69.6076 63.44 69.6078 63.44 69.608 63.44 69.6081 63.44 69.6083 63.44 69.6085 63.44 69.6087 63.44 69.6089 63.44 69.6091 63.44 69.6092 63.44 69.6094 63.44 69.6096 63.44 69.6098 63.44 69.61 63.44 69.6102 63.44 69.6104 63.44 69.6106 63.44 69.6107 63.44 69.6109 63.44 69.6111 63.44 69.6113 63.44 69.6115 63.44 69.6117 63.44 69.6119 63.44 69.6121 63.44 69.6123 63.44 69.6125 63.44 69.6127 63.44 69.6129 63.44 69.6131 63.44 69.6133 63.44 69.6135 63.44 69.6137 63.44 69.6139 63.44 69.6141 63.44 69.6143 63.44 69.6145 63.44 69.6147 63.44 69.6149 63.44 69.6151 63.44 69.6153 63.44 69.6155 63.44 69.6157 63.44 69.6159 63.44 69.6161 63.44 69.6163 63.44 69.6165 63.44 69.6167 63.44 69.6169 63.44 69.6171 63.44 69.6173 63.44 69.6175 63.44 69.6178 63.44 69.618 63.44 69.6182 63.44 69.6184 63.44 69.6186 63.44 69.6188 63.44 69.619 63.44 69.6192 63.44 69.6194 63.44 69.6197 63.44 69.6199 63.44 69.6201 63.44 69.6203 63.44 69.6205 63.44 69.6207 63.44 69.6209 63.44 69.6212 63.44 69.6214 63.44 69.6216 63.44 69.6218 63.44 69.622 63.44 69.6222 63.44 69.6225 63.44 69.6227 63.44 69.6229 63.44 69.6231 63.44 69.6233 63.44 69.6236 63.44 69.6238 63.44 69.624 63.44 69.6242 63.44 69.6244 63.44 69.6247 63.44 69.6249 63.44 69.6251 63.44 69.6253 63.44 69.6255 63.44 69.6258 63.44 69.626 63.44 69.6262 63.44 69.6264 63.44 69.6267 63.44 69.6269 63.44 69.6271 63.44 69.6273 63.44 69.6276 63.44 69.6278 63.44 69.628 63.44 69.6282 63.44 69.6285 63.44 69.6287 63.44 69.6289 63.44 69.6291 63.44 69.6294 63.44 69.6296 63.44 69.6298 63.44 69.6301 63.44 69.6303 63.44 69.6305 63.44 69.6307 63.44 69.631 63.44 69.6312 63.44 69.6314 63.44 69.6317 63.44 69.6319 63.44 69.6321 63.44 69.6323 63.44 69.6326 63.44 69.6328 63.44 69.633 63.44 69.6333 63.44 69.6335 63.44 69.6337 63.44 69.634 63.44 69.6342 63.44 69.6344 63.44 69.6347 63.44 69.6349 63.44 69.6351 63.44 69.6353 63.44 69.6356 63.44 69.6358 63.44 69.636 63.44 69.6363 63.44 69.6365 63.44 69.6367 63.44 69.637 63.44 69.6372 63.44 69.6374 63.44 69.6377 63.44 69.6379 63.44 69.6381 63.44 69.6384 63.44 69.6386 63.44 69.6388 63.44 69.6391 63.44 69.6393 63.44 69.6395 63.44 69.6398 63.44 69.64 63.44 69.6402 63.44 69.6405 63.44 69.6407 63.44 69.6409 63.44 69.6412 63.44 69.6414 63.44 69.6417 63.44 69.6419 63.44 69.6421 63.44 69.6424 63.44 69.6426 63.44 69.6428 63.44 69.6431 63.44 69.6433 63.44 69.6435 63.44 69.6438 63.44 69.644 63.44 69.6442 63.44 69.6445 63.44 69.6447 63.44 69.6449 63.44 69.6452 63.44 69.6454 63.44 69.6456 63.44 69.6459 63.44 69.6461 63.44 69.6463 63.44 69.6466 63.44 69.6468 63.44 69.647 63.44 69.6473 63.44 69.6475 63.44 69.6477 63.44 69.648 63.44 69.6482 63.44 69.6484 63.44 69.6487 63.44 69.6489 63.44 69.6491 63.44 69.6494 63.44 69.6496 63.44 69.6498 63.44 69.6501 63.44 69.6503 63.44 69.6505 63.44 69.6508 63.44 69.651 63.44 69.6512 63.44 69.6515 63.44 69.6517 63.44 69.6519 63.44 69.6522 63.44 69.6524 63.44 69.6526 63.44 69.6529 63.44 69.6531 63.44 69.6533 63.44 69.6535 63.44 69.6538 63.44 69.654 63.44 69.6542 63.44 69.6545 63.44 69.6547 63.44 69.6549 63.44 69.6552 63.44 69.6554 63.44 69.6556 63.44 69.6558 63.44 69.6561 63.44 69.6563 63.44 69.6565 63.44 69.6568 63.44 69.657 63.44 69.6572 63.44 69.6574 63.44 69.6577 63.44 69.6579 63.44 69.6581 63.44 69.6583 63.44 69.6586 63.44 69.6588 63.44 69.659 63.44 69.6592 63.44 69.6595 63.44 69.6597 63.44 69.6599 63.44 69.6601 63.44 69.6604 63.44 69.6606 63.44 69.6608 63.44 69.661 63.44 69.6613 63.44 69.6615 63.44 69.6617 63.44 69.6619 63.44 69.6621 63.44 69.6624 63.44 69.6626 63.44 69.6628 63.44 69.663 63.44 69.6632 63.44 69.6635 63.44 69.6637 63.44 69.6639 63.44 69.6641 63.44 69.6643 63.44 69.6645 63.44 69.6648 63.44 69.665 63.44 69.6652 63.44 69.6654 63.44 69.6656 63.44 69.6658 63.44 69.666 63.44 69.6663 63.44 69.6665 63.44 69.6667 63.44 69.6669 63.44 69.6671 63.44 69.6673 63.44 69.6675 63.44 69.6677 63.44 69.668 63.44 69.6682 63.44 69.6684 63.44 69.6686 63.44 69.6688 63.44 69.669 63.44 69.6692 63.44 69.6694 63.44 69.6696 63.44 69.6698 63.44 69.67 63.44 69.6702 63.44 69.6704 63.44 69.6707 63.44 69.6709 63.44 69.6711 63.44 69.6713 63.44 69.6715 63.44 69.6717 63.44 69.6719 63.44 69.6721 63.44 69.6723 63.44 69.6725 63.44 69.6727 63.44 69.6729 63.44 69.6731 63.44 69.6733 63.44 69.6735 63.44 69.6737 63.44 69.6739 63.44 69.674 63.44 69.6742 63.44 69.6744 63.44 69.6746 63.44 69.6748 63.44 69.675 63.44 69.6752 63.44 69.6754 63.44 69.6756 63.44 69.6758 63.44 69.676 63.44 69.6762 63.44 69.6763 63.44 69.6765 63.44 69.6767 63.44 69.6769 63.44 69.6771 63.44 69.6773 63.44 69.6775 63.44 69.6776 63.44 69.6778 63.44 69.678 63.44 69.6782 63.44 69.6784 63.44 69.6786 63.44 69.6787 63.44 69.6789 63.44 69.6791 63.44 69.6793 63.44 69.6795 63.44 69.6796 63.44 69.6798 63.44C76.9344 63.44 82.9598 57.278 82.9598 49.48 82.9598 41.6739 77.3709 35.9521 70.4429 35.5466 69.3856 35.4847 68.5598 34.6092 68.5598 33.55L68.5598 33.5493 68.5598 33.5485 68.5598 33.5477 68.5598 33.547 68.5598 33.5462 68.5598 33.5454 68.5598 33.5447 68.5598 33.5439 68.5598 33.5432 68.5598 33.5424 68.5598 33.5416 68.5598 33.5409 68.5598 33.5401 68.5598 33.5394 68.5598 33.5386 68.5598 33.5378 68.5598 33.5371 68.5598 33.5363 68.5598 33.5355 68.5598 33.5348 68.5598 33.534 68.5598 33.5333 68.5598 33.5325 68.5598 33.5317 68.5598 33.531 68.5598 33.5302 68.5598 33.5294 68.5598 33.5287 68.5598 33.5279 68.5598 33.5272 68.5598 33.5264 68.5598 33.5256 68.5598 33.5249 68.5598 33.5241 68.5598 33.5234 68.5598 33.5226 68.5598 33.5218 68.5598 33.5211 68.5598 33.5203 68.5598 33.5195 68.5598 33.5188 68.5598 33.518 68.5598 33.5173 68.5598 33.5165 68.5598 33.5157 68.5598 33.515 68.5598 33.5142 68.5598 33.5135 68.5598 33.5127 68.5598 33.5119 68.5598 33.5112 68.5598 33.5104 68.5598 33.5096 68.5598 33.5089 68.5598 33.5081 68.5598 33.5074 68.5598 33.5066 68.5598 33.5058 68.5598 33.5051 68.5598 33.5043 68.5598 33.5035 68.5598 33.5028 68.5598 33.502 68.5598 33.5013 68.5598 33.5005 68.5598 33.4997 68.5598 33.499 68.5598 33.4982 68.5598 33.4975 68.5598 33.4967 68.5598 33.4959 68.5598 33.4952 68.5598 33.4944 68.5598 33.4936 68.5598 33.4929 68.5598 33.4921 68.5598 33.4914 68.5598 33.4906 68.5598 33.4898 68.5598 33.4891 68.5598 33.4883 68.5598 33.4876 68.5598 33.4868 68.5598 33.486 68.5598 33.4853 68.5598 33.4845 68.5598 33.4837 68.5598 33.483 68.5598 33.4822 68.5598 33.4815 68.5598 33.4807 68.5598 33.4799 68.5598 33.4792 68.5598 33.4784 68.5598 33.4777 68.5598 33.4769 68.5598 33.4761 68.5598 33.4754 68.5598 33.4746 68.5598 33.4738 68.5598 33.4731 68.5598 33.4723 68.5598 33.4716 68.5598 33.4708 68.5598 33.47 68.5598 33.4693 68.5598 33.4685 68.5598 33.4677 68.5598 33.467 68.5598 33.4662 68.5598 33.4655 68.5598 33.4647 68.5598 33.4639 68.5598 33.4632 68.5598 33.4624 68.5598 33.4617 68.5598 33.4609 68.5598 33.4601 68.5598 33.4594 68.5598 33.4586 68.5598 33.4578 68.5598 33.4571 68.5598 33.4563 68.5598 33.4556 68.5598 33.4548 68.5598 33.454 68.5598 33.4533 68.5598 33.4525 68.5598 33.4518 68.5598 33.451 68.5598 33.4502 68.5598 33.4495 68.5598 33.4487 68.5598 33.4479 68.5598 33.4472 68.5598 33.4464 68.5598 33.4457 68.5598 33.4449 68.5598 33.4441 68.5598 33.4434 68.5598 33.4426 68.5598 33.4419 68.5598 33.4411 68.5598 33.4403 68.5598 33.4396 68.5598 33.4388 68.5598 33.438 68.5598 33.4373 68.5598 33.4365 68.5598 33.4358 68.5598 33.435 68.5598 33.4342 68.5598 33.4335 68.5598 33.4327 68.5598 33.4319 68.5598 33.4312 68.5598 33.4304 68.5598 33.4297 68.5598 33.4289 68.5598 33.4281 68.5598 33.4274 68.5598 33.4266 68.5598 33.4259 68.5598 33.4251 68.5598 33.4243 68.5598 33.4236 68.5598 33.4228 68.5598 33.422 68.5598 33.4213 68.5598 33.4205 68.5598 33.4198 68.5598 33.419 68.5598 33.4182 68.5598 33.4175 68.5598 33.4167 68.5598 33.416 68.5598 33.4152 68.5598 33.4144 68.5598 33.4137 68.5598 33.4129 68.5598 33.4121 68.5598 33.4114 68.5598 33.4106 68.5598 33.4099 68.5598 33.4091 68.5598 33.4083 68.5598 33.4076 68.5598 33.4068 68.5598 33.406 68.5598 33.4053 68.5598 33.4045 68.5598 33.4038 68.5598 33.403 68.5598 33.4022 68.5598 33.4015 68.5598 33.4007 68.5598 33.4 68.5598 33.3992 68.5598 33.3984 68.5598 33.3977 68.5598 33.3969 68.5598 33.3961 68.5598 33.3954 68.5598 33.3946 68.5598 33.3939 68.5598 33.3931 68.5598 33.3923 68.5598 33.3916 68.5598 33.3908 68.5598 33.3901 68.5598 33.3893 68.5598 33.3885 68.5598 33.3878 68.5598 33.387 68.5598 33.3862 68.5598 33.3855 68.5598 33.3847 68.5598 33.384 68.5598 33.3832 68.5598 33.3824 68.5598 33.3817 68.5598 33.3809 68.5598 33.3802 68.5598 33.3794 68.5598 33.3786 68.5598 33.3779 68.5598 33.3771 68.5598 33.3763 68.5598 33.3756 68.5598 33.3748 68.5598 33.3741 68.5598 33.3733 68.5598 33.3725 68.5598 33.3718 68.5598 33.371 68.5598 33.3702 68.5598 33.3695 68.5598 33.3687 68.5598 33.368 68.5598 33.3672 68.5598 33.3664 68.5598 33.3657 68.5598 33.3649 68.5598 33.3642 68.5598 33.3634 68.5598 33.3626 68.5598 33.3619 68.5598 33.3611 68.5598 33.3603 68.5598 33.3596 68.5598 33.3588 68.5598 33.3581 68.5598 33.3573 68.5598 33.3565 68.5598 33.3558 68.5598 33.355 68.5598 33.3543 68.5598 33.3535 68.5598 33.3527 68.5598 33.352 68.5598 33.3512 68.5598 33.3504 68.5598 33.3497 68.5598 33.3489 68.5598 33.3482 68.5598 33.3474 68.5598 33.3466 68.5598 33.3459 68.5598 33.3451 68.5598 33.3444 68.5598 33.3436 68.5598 33.3428 68.5598 33.3421 68.5598 33.3413 68.5598 33.3405 68.5598 33.3398 68.5598 33.339 68.5598 33.3383 68.5598 33.3375 68.5598 33.3367 68.5598 33.336 68.5598 33.3352 68.5598 33.3344 68.5598 33.3337 68.5598 33.3329 68.5598 33.3322 68.5598 33.3314 68.5598 33.3306 68.5598 33.3299 68.5598 33.3291 68.5598 33.3284 68.5598 33.3276 68.5598 33.3268 68.5598 33.3261 68.5598 33.3253 68.5598 33.3245 68.5598 33.3238 68.5598 33.323 68.5598 33.3223 68.5598 33.3215 68.5598 33.3207 68.5598 33.32 68.5598 33.3192 68.5598 33.3185 68.5598 33.3177 68.5598 33.3169 68.5598 33.3162 68.5598 33.3154 68.5598 33.3146 68.5598 33.3139 68.5598 33.3131 68.5598 33.3124 68.5598 33.3116 68.5598 33.3108 68.5598 33.3101 68.5598 33.3093 68.5598 33.3085 68.5598 33.3078 68.5598 33.307 68.5598 33.3063 68.5598 33.3055 68.5598 33.3047 68.5598 33.304 68.5598 33.3032 68.5598 33.3025 68.5598 33.3017 68.5598 33.3009 68.5598 33.3002 68.5598 33.2994 68.5598 33.2986 68.5598 33.2979 68.5598 33.2971 68.5598 33.2964 68.5598 33.2956 68.5598 33.2948 68.5598 33.2941 68.5598 33.2933 68.5598 33.2926 68.5598 33.2918 68.5598 33.291 68.5598 33.2903 68.5598 33.2895 68.5598 33.2887 68.5598 33.288 68.5598 33.2872 68.5598 33.2865 68.5598 33.2857 68.5598 33.2849 68.5598 33.2842 68.5598 33.2834 68.5598 33.2827 68.5598 33.2819 68.5598 33.2811 68.5598 33.2804 68.5598 33.2796 68.5598 33.2788 68.5598 33.2781 68.5598 33.2773 68.5598 33.2766 68.5598 33.2758 68.5598 33.275 68.5598 33.2743 68.5598 33.2735 68.5598 33.2727 68.5598 33.272 68.5598 33.2712 68.5598 33.2705 68.5598 33.2697 68.5598 33.2689 68.5598 33.2682 68.5598 33.2674 68.5598 33.2667 68.5598 33.2659 68.5598 33.2651 68.5598 33.2644 68.5598 33.2636 68.5598 33.2628 68.5598 33.2621 68.5598 33.2613 68.5598 33.2606 68.5598 33.2598 68.5598 33.259 68.5598 33.2583 68.5598 33.2575 68.5598 33.2568 68.5598 33.256 68.5598 33.2552 68.5598 33.2545 68.5598 33.2537 68.5598 33.2529 68.5598 33.2522 68.5598 33.2514 68.5598 33.2507 68.5598 33.2499 68.5598 33.2491 68.5598 33.2484 68.5598 33.2476 68.5598 33.2469 68.5598 33.2461 68.5598 33.2453 68.5598 33.2446 68.5598 33.2438 68.5598 33.243 68.5598 33.2423 68.5598 33.2415 68.5598 33.2408 68.5598 33.24 68.5598 33.2392 68.5598 33.2385 68.5598 33.2377 68.5598 33.2369 68.5598 33.2362 68.5598 33.2354 68.5598 33.2347 68.5598 33.2339 68.5598 33.2331 68.5598 33.2324 68.5598 33.2316 68.5598 33.2309 68.5598 33.2301 68.5598 33.2293 68.5598 33.2286 68.5598 33.2278 68.5598 33.227 68.5598 33.2263 68.5598 33.2255 68.5598 33.2248 68.5598 33.224 68.5598 33.2232 68.5598 33.2225 68.5598 33.2217 68.5598 33.221 68.5598 33.2202 68.5598 33.2194 68.5598 33.2187 68.5598 33.2179 68.5598 33.2171 68.5598 33.2164 68.5598 33.2156 68.5598 33.2149 68.5598 33.2141 68.5598 33.2133 68.5598 33.2126 68.5598 33.2118 68.5598 33.2111 68.5598 33.2103 68.5598 33.2095 68.5598 33.2088 68.5598 33.208 68.5598 33.2072 68.5598 33.2065 68.5598 33.2057 68.5598 33.205 68.5598 33.2042 68.5598 33.2034 68.5598 33.2027 68.5598 33.2019 68.5598 33.2011 68.5598 33.2004 68.5598 33.1996 68.5598 33.1989 68.5598 33.1981 68.5598 33.1973 68.5598 33.1966 68.5598 33.1958 68.5598 33.1951 68.5598 33.1943 68.5598 33.1935 68.5598 33.1928 68.5598 33.192 68.5598 33.1912 68.5598 33.1905 68.5598 33.1897 68.5598 33.189 68.5598 33.1882 68.5598 33.1874 68.5598 33.1867 68.5598 33.1859 68.5598 33.1852 68.5598 33.1844 68.5598 33.1836 68.5598 33.1829 68.5598 33.1821 68.5598 33.1813 68.5598 33.1806 68.5598 33.1798 68.5598 33.1791 68.5598 33.1783 68.5598 33.1775 68.5598 33.1768 68.5598 33.176 68.5598 33.1752 68.5598 33.1745 68.5598 33.1737 68.5598 33.173 68.5598 33.1722 68.5598 33.1714 68.5598 33.1707 68.5598 33.1699 68.5598 33.1692 68.5598 33.1684 68.5598 33.1676 68.5598 33.1669 68.5598 33.1661 68.5598 33.1653 68.5598 33.1646 68.5598 33.1638 68.5598 33.1631 68.5598 33.1623 68.5598 33.1615 68.5598 33.1608 68.5598 33.16C68.5598 24.0914 61.5438 16.89 53.0698 16.89 46.2313 16.89 40.3559 21.5648 38.3317 28.1571 38.1647 28.701 37.7739 29.1481 37.2571 29.3863 36.7404 29.6245 36.1467 29.6314 35.6246 29.4051 34.3681 28.8607 32.9982 28.56 31.5498 28.56 25.6863 28.56 20.7898 33.5508 20.7898 39.89 20.7898 40.774 20.8916 41.6257 21.0803 42.4576 21.3151 43.4932 20.6998 44.5318 19.6787 44.8232 15.9034 45.9007 13.0498 49.5361 13.0498 53.96 13.0498 59.2089 17.0609 63.3318 21.8691 63.43L26.9098 63.43C28.0144 63.43 28.9098 64.3254 28.9098 65.43 28.9098 66.5346 28.0144 67.43 26.9098 67.43L21.8498 67.43C21.8375 67.43 21.8253 67.4299 21.813 67.4297 14.669 67.2983 9.0498 61.2447 9.0498 53.96 9.0498 48.4521 12.241 43.6738 16.8842 41.5952 16.8222 41.0374 16.7898 40.4693 16.7898 39.89 16.7898 31.5092 23.3133 24.56 31.5498 24.56 32.8167 24.56 34.0434 24.7264 35.2136 25.0383ZM50.1004 44.321 60.8483 52.9496C61.7097 53.6411 62.9685 53.5034 63.66 52.6421 64.3515 51.7807 64.2138 50.5219 63.3525 49.8304L49.1525 38.4304C48.417 37.8399 47.3689 37.8436 46.6375 38.4391L32.6375 49.8391C31.781 50.5366 31.6521 51.7963 32.3495 52.6528 33.047 53.5094 34.3067 53.6383 35.1632 52.9409L46.1004 44.0349 46.1004 81C46.1004 82.1046 46.9958 83 48.1004 83 49.205 83 50.1004 82.1046 50.1004 81L50.1004 44.321Z" class="MsftOfcThm_Text1_Fill_v2" stroke="none" stroke-width="1" stroke-linecap="butt" stroke-linejoin="miter" stroke-miterlimit="4" fill="#000000" fill-rule="evenodd" fill-opacity="1" clip-rule="evenodd"/></svg>