<svg width="96" height="96" viewBox="0 0 96 96" xmlns="http://www.w3.org/2000/svg" xmlns:xlink="http://www.w3.org/1999/xlink" fill="none" overflow="hidden"><style>
.MsftOfcThm_Text1_Fill_v2 {
 fill:#000000; 
}
</style>
<path d="M39.0651 21.8843 39.0661 21.8827C39.8032 20.7113 41.0857 20 42.4618 20L53.3118 20C54.688 20 55.9705 20.7113 56.7076 21.8827L56.7086 21.8843 61.7827 30 33.991 30 39.0651 21.8843ZM29.2736 30 35.676 19.7597 35.6786 19.7557C37.1417 17.428 39.6986 16 42.4618 16L53.3118 16C56.0751 16 58.632 17.428 60.0951 19.7557L60.0977 19.7597 66.5001 30 73.8818 30C79.4047 30 83.8818 34.4772 83.8818 40L83.8818 56.9062C83.8818 58.0108 82.9864 58.9062 81.8818 58.9062 80.7773 58.9062 79.8818 58.0108 79.8818 56.9062L79.8818 40C79.8818 36.6863 77.1955 34 73.8818 34L21.8818 34C18.5681 34 15.8818 36.6863 15.8818 40L15.8818 70C15.8818 73.3137 18.5681 76 21.8818 76L37.875 76C38.9796 76 39.875 76.8954 39.875 78 39.875 79.1046 38.9796 80 37.875 80L21.8818 80C16.359 80 11.8818 75.5228 11.8818 70L11.8818 40C11.8818 34.4772 16.359 30 21.8818 30L29.2736 30ZM47.8818 42C40.7021 42 34.8818 47.8203 34.8818 55 34.8818 58.8498 36.5528 62.3068 39.2154 64.69 40.0384 65.4267 40.1084 66.6911 39.3717 67.5141 38.6351 68.3371 37.3707 68.4071 36.5476 67.6705 33.0731 64.5605 30.8818 60.0348 30.8818 55 30.8818 45.6112 38.493 38 47.8818 38 57.2707 38 64.8818 45.6112 64.8818 55 64.8818 55.7411 64.8343 56.4721 64.7419 57.1899 64.6008 58.2855 63.5984 59.0592 62.5028 58.9182 61.4073 58.7771 60.6336 57.7747 60.7746 56.6791 60.8453 56.1303 60.8818 55.5699 60.8818 55 60.8818 47.8203 55.0615 42 47.8818 42ZM25.8818 41C25.8818 42.6569 24.5387 44 22.8818 44 21.225 44 19.8818 42.6569 19.8818 41 19.8818 39.3431 21.225 38 22.8818 38 24.5387 38 25.8818 39.3431 25.8818 41ZM42.8948 83.834C42.8948 82.7294 43.7902 81.834 44.8948 81.834L54.4071 81.834C55.1787 80.0682 56.9407 78.8343 58.9909 78.8343 61.0411 78.8343 62.8031 80.0682 63.5747 81.834L84.9522 81.834C86.0567 81.834 86.9522 82.7294 86.9522 83.834 86.9522 84.9385 86.0567 85.834 84.9522 85.834L63.575 85.834C62.8035 87.6 61.0414 88.8343 58.9909 88.8343 56.9405 88.8343 55.1783 87.6 54.4068 85.834L44.8948 85.834C43.7902 85.834 42.8948 84.9385 42.8948 83.834ZM84.9522 71.9893C86.0567 71.9893 86.9522 71.0938 86.9522 69.9893 86.9522 68.8847 86.0567 67.9893 84.9522 67.9893L75.439 67.9893C74.6671 66.2242 72.9055 64.9909 70.8558 64.9909 68.8061 64.9909 67.0445 66.2242 66.2726 67.9893L44.8948 67.9893C43.7902 67.9893 42.8948 68.8847 42.8948 69.9893 42.8948 71.0938 43.7902 71.9893 44.8948 71.9893L66.2711 71.9893C67.0423 73.756 68.8048 74.9909 70.8558 74.9909 72.9067 74.9909 74.6693 73.756 75.4405 71.9893L84.9522 71.9893Z" class="MsftOfcThm_Text1_Fill_v2" stroke="none" stroke-width="1" stroke-linecap="butt" stroke-linejoin="miter" stroke-miterlimit="4" fill="#000000" fill-rule="evenodd" fill-opacity="1" clip-rule="evenodd"/></svg>