<svg width="96" height="96" viewBox="0 0 96 96" xmlns="http://www.w3.org/2000/svg" xmlns:xlink="http://www.w3.org/1999/xlink" fill="none" overflow="hidden"><style>
.MsftOfcThm_Text1_Fill_v2 {
 fill:#000000; 
}
</style>
<path d="M76.2179 22.6452C75.4697 21.8327 74.2044 21.7806 73.3919 22.5288 72.5794 23.277 72.5273 24.5423 73.2755 25.3548L77.8008 30.2689C73.5772 30.1048 70.1199 30.2635 67.0621 31.013 63.8877 31.791 61.2335 33.1827 58.6156 35.3485 56.0401 37.4793 53.504 40.3572 50.544 44.0775 48.6481 46.4603 46.5317 49.2493 44.0892 52.4683L44.089 52.4685C42.7221 54.27 41.2529 56.2061 39.663 58.2811 35.2957 63.981 31.4672 67.2495 28.3062 68.7705 25.2213 70.2548 22.8889 70.0401 21.1082 68.9644 19.2126 67.8193 17.5468 65.4621 16.4249 61.9031 15.3138 58.3788 14.8101 53.8926 15.0653 48.8544 15.3077 44.0696 16.2585 40.5014 17.642 38.1106 18.9949 35.7726 20.7127 34.617 22.6642 34.3571 24.7032 34.0855 27.3792 34.7406 30.6544 36.8534 33.9133 38.9558 37.5995 42.3992 41.5656 47.3728 42.2543 48.2365 43.5126 48.3783 44.3762 47.6896 45.2398 47.001 45.3817 45.7426 44.693 44.879 40.5584 39.694 36.5622 35.9045 32.8228 33.4922 29.0998 31.0905 25.4616 29.9492 22.1361 30.3921 18.7232 30.8467 16.0263 32.9164 14.1799 36.1071 12.3641 39.2449 11.331 43.5088 11.0704 48.652 10.7974 54.042 11.3228 59.0229 12.6099 63.1058 13.8861 67.1541 15.9875 70.5443 19.04 72.3882 22.2074 74.3015 26.0039 74.3172 30.0406 72.3749 34.0011 70.4692 38.2869 66.6538 42.8381 60.7139 44.4621 58.5945 45.9461 56.6387 47.3175 54.8313L47.3177 54.831C49.7362 51.6436 51.8048 48.9173 53.6741 46.568 56.6003 42.8903 58.9249 40.2841 61.1654 38.4305 63.3636 36.6119 65.4809 35.519 68.0143 34.898 70.5425 34.2784 73.568 34.1077 77.6435 34.2658L73.2314 38.6204C72.4452 39.3963 72.4369 40.6626 73.2128 41.4488 73.9887 42.235 75.255 42.2433 76.0412 41.4674L83.839 33.7712C84.606 33.0143 84.6353 31.7857 83.9053 30.993L76.2179 22.6452ZM53.1664 55.2353C52.4774 54.3719 51.219 54.2306 50.3556 54.9195 49.4923 55.6085 49.3509 56.8669 50.0398 57.7303 55.3052 64.3286 60.2469 68.3576 65.3152 70.5711 70.4048 72.7939 75.4292 73.1011 80.6859 72.5906 81.7853 72.4839 82.59 71.5061 82.4832 70.4067 82.3764 69.3073 81.3987 68.5026 80.2993 68.6094 75.4604 69.0793 71.1782 68.7668 66.9161 66.9054 62.6327 65.0347 58.1775 61.515 53.1664 55.2353Z" class="MsftOfcThm_Text1_Fill_v2" stroke="none" stroke-width="1" stroke-linecap="butt" stroke-linejoin="miter" stroke-miterlimit="4" fill="#000000" fill-rule="evenodd" fill-opacity="1" clip-rule="evenodd"/></svg>