<svg width="96" height="96" viewBox="0 0 96 96" xmlns="http://www.w3.org/2000/svg" xmlns:xlink="http://www.w3.org/1999/xlink" fill="none" overflow="hidden"><style>
.MsftOfcThm_Text1_Fill_v2 {
 fill:#000000; 
}
</style>
<path d="M29.0077 16C24.0542 16 20 19.9764 20 24.9289L20 71.1217C20 76.0742 24.0542 80.0506 29.0077 80.0506L66.3818 80.0506C71.3352 80.0506 75.3895 76.0742 75.3895 71.1217L75.3895 43.9664C75.3895 41.591 74.4349 39.3175 72.7432 37.6448L53.4893 18.6073C51.7984 16.9353 49.5097 16 47.128 16L29.0077 16ZM24 24.9289C24 22.228 26.2206 20 29.0077 20L47.128 20C48.4633 20 49.7395 20.5247 50.6769 21.4516L69.9308 40.4891C70.8674 41.4153 71.3895 42.6665 71.3895 43.9664L71.3895 71.1217C71.3895 73.8226 69.1688 76.0506 66.3818 76.0506L29.0077 76.0506C26.2206 76.0506 24 73.8226 24 71.1217L24 24.9289ZM56.8634 49.4688C54.3122 49.4688 52.2441 47.4007 52.2441 44.8495 52.2441 42.2984 54.3122 40.2302 56.8634 40.2302 59.4145 40.2302 61.4826 42.2984 61.4826 44.8495 61.4826 47.4007 59.4145 49.4688 56.8634 49.4688ZM38.6499 50.9228C39.9753 48.6271 43.2888 48.6271 44.6143 50.9228L50.5135 61.1407 53.6625 55.6864C54.988 53.3908 58.3015 53.3908 59.6269 55.6864L65.3775 65.6468C66.7029 67.9424 65.0461 70.812 62.3953 70.812L48.4329 70.812 33.1312 70.812C30.4804 70.812 28.8236 67.9424 30.149 65.6468L38.6499 50.9228ZM48.2095 65.1499 41.6321 53.7575 34.095 66.812 47.2675 66.812 48.2095 65.1499ZM51.8652 66.812 61.4315 66.812 56.6447 58.5212 52.2496 66.1338 51.8652 66.812Z" class="MsftOfcThm_Text1_Fill_v2" stroke="none" stroke-width="1" stroke-linecap="butt" stroke-linejoin="miter" stroke-miterlimit="4" fill="#000000" fill-rule="evenodd" fill-opacity="1" clip-rule="evenodd"/></svg>