<svg width="96" height="96" viewBox="0 0 96 96" xmlns="http://www.w3.org/2000/svg" xmlns:xlink="http://www.w3.org/1999/xlink" fill="none" overflow="hidden"><style>
.MsftOfcThm_Text1_Fill_v2 {
 fill:#000000; 
}
</style>
<path d="M17.9075 73.5957C15.0394 68.6408 13.3586 62.9128 13.2529 56.8063 13.2348 56.6585 13.2332 56.5092 13.248 56.3611 13.2477 56.3049 13.2476 56.2488 13.2476 56.1926 13.2476 36.9806 28.8219 21.4062 48.0339 21.4062 56.5633 21.4062 64.3803 24.4785 70.4308 29.5746 71.2757 30.2861 71.3837 31.5478 70.6722 32.3927 69.9606 33.2375 68.6989 33.3456 67.8541 32.634 67.0384 31.947 66.1878 31.3026 65.3055 30.7035L62.6873 35.2386C62.135 36.1951 60.9118 36.5229 59.9552 35.9706 58.9986 35.4183 58.6709 34.1951 59.2231 33.2386L61.8573 28.6761C58.2532 26.8618 54.2439 25.7352 50 25.468L50 30.7776C50 31.8822 49.1046 32.7776 48 32.7776 46.8954 32.7776 46 31.8822 46 30.7776L46 25.4724C41.7912 25.7469 37.8132 26.8671 34.2341 28.6648L36.8748 33.2386C37.427 34.1951 37.0993 35.4183 36.1427 35.9706 35.1861 36.5229 33.9629 36.1951 33.4107 35.2386L30.784 30.6891C27.3951 32.9858 24.4882 35.9402 22.2467 39.369L26.6761 41.9263C27.6326 42.4786 27.9604 43.7017 27.4081 44.6583 26.8558 45.6149 25.6326 45.9427 24.6761 45.3904L20.2801 42.8524C18.5591 46.4263 17.5081 50.3836 17.29 54.5615L22.25 54.5615C23.3546 54.5615 24.25 55.457 24.25 56.5615 24.25 57.6661 23.3546 58.5615 22.25 58.5615L17.3373 58.5615C17.6964 63.2849 19.1205 67.7069 21.3693 71.5918 21.9227 72.5478 21.5963 73.7713 20.6403 74.3247 19.6844 74.878 18.4608 74.5517 17.9075 73.5957ZM80.7448 44.3304C80.3681 43.292 79.2211 42.7556 78.1827 43.1322 77.1443 43.5088 76.6079 44.6559 76.9845 45.6943 77.9958 48.4825 78.6161 51.4598 78.7779 54.5615L73.8083 54.5615C72.7038 54.5615 71.8083 55.457 71.8083 56.5615 71.8083 57.6661 72.7038 58.5615 73.8083 58.5615L78.7306 58.5615C78.3715 63.2849 76.9473 67.7069 74.6985 71.5918 74.1452 72.5478 74.4715 73.7713 75.4275 74.3247 76.3835 74.878 77.607 74.5517 78.1604 73.5957 81.0486 68.606 82.7328 62.8323 82.817 56.6777 82.8192 56.6392 82.8203 56.6005 82.8203 56.5615 82.8203 56.5377 82.8199 56.5139 82.819 56.4902 82.8199 56.3911 82.8203 56.2919 82.8203 56.1926 82.8203 52.0305 82.0885 48.035 80.7448 44.3304ZM79.5169 32.3284C78.3456 31.1571 76.4625 31.1077 75.2314 32.2159L44.8418 59.5725C42.6014 61.5893 42.51 65.0722 44.6415 67.2037 46.773 69.3352 50.256 69.2438 52.2727 67.0035L79.6293 36.6138C80.7375 35.3828 80.6881 33.4996 79.5169 32.3284Z" class="MsftOfcThm_Text1_Fill_v2" stroke="none" stroke-width="1" stroke-linecap="butt" stroke-linejoin="miter" stroke-miterlimit="4" fill="#000000" fill-rule="evenodd" fill-opacity="1" clip-rule="evenodd"/></svg>