<svg width="96" height="96" viewBox="0 0 96 96" xmlns="http://www.w3.org/2000/svg" xmlns:xlink="http://www.w3.org/1999/xlink" fill="none" overflow="hidden"><style>
.MsftOfcThm_Text1_Fill_v2 {
 fill:#000000; 
}
</style>
<path d="M79.4396 20.8142C80.1249 21.6804 79.9782 22.9382 79.112 23.6235L56.0156 41.8954C55.3967 42.385 54.5478 42.4649 53.8484 42.0994L39.1308 34.4083 19.4221 51.1249C18.5797 51.8393 17.3177 51.7357 16.6032 50.8933 15.8887 50.0509 15.9924 48.7889 16.8347 48.0744L37.5702 30.4869C38.1909 29.9604 39.0688 29.8626 39.7902 30.2396L54.5513 37.9534 76.6302 20.4865C77.4965 19.8012 78.7543 19.9479 79.4396 20.8142ZM33.7587 51.8582C33.7587 48.826 36.2167 46.368 39.2488 46.368 42.2809 46.368 44.7389 48.826 44.7389 51.8582L44.7389 70.455C44.7389 73.4871 42.2809 75.9452 39.2488 75.9452 36.2167 75.9452 33.7587 73.4871 33.7587 70.455L33.7587 51.8582ZM39.2488 50.368C38.4258 50.368 37.7587 51.0352 37.7587 51.8582L37.7587 70.455C37.7587 71.278 38.4258 71.9452 39.2488 71.9452 40.0718 71.9452 40.7389 71.278 40.7389 70.455L40.7389 51.8582C40.7389 51.0352 40.0718 50.368 39.2488 50.368ZM56.7575 49.7904C53.7254 49.7904 51.2673 52.2484 51.2673 55.2805L51.2673 70.4557C51.2673 73.4878 53.7253 75.9458 56.7575 75.9458 59.7896 75.9458 62.2476 73.4878 62.2476 70.4557L62.2476 55.2805C62.2476 52.2484 59.7896 49.7904 56.7575 49.7904ZM55.2673 55.2805C55.2673 54.4576 55.9345 53.7904 56.7575 53.7904 57.5804 53.7904 58.2476 54.4576 58.2476 55.2805L58.2476 70.4557C58.2476 71.2787 57.5804 71.9458 56.7575 71.9458 55.9345 71.9458 55.2673 71.2787 55.2673 70.4557L55.2673 55.2805ZM68.7753 43.236C68.7753 40.2039 71.2333 37.7458 74.2654 37.7458 77.2975 37.7458 79.7555 40.2039 79.7555 43.236L79.7555 70.4555C79.7555 73.4876 77.2975 75.9456 74.2654 75.9456 71.2333 75.9456 68.7753 73.4876 68.7753 70.4555L68.7753 43.236ZM74.2654 41.7458C73.4424 41.7458 72.7753 42.413 72.7753 43.236L72.7753 70.4555C72.7753 71.2785 73.4424 71.9456 74.2654 71.9456 75.0884 71.9456 75.7555 71.2785 75.7555 70.4555L75.7555 43.236C75.7555 42.413 75.0884 41.7458 74.2654 41.7458ZM21.7401 56.5651C18.708 56.5651 16.25 59.0231 16.25 62.0553L16.25 70.4555C16.25 73.4876 18.708 75.9456 21.7401 75.9456 24.7722 75.9456 27.2303 73.4876 27.2303 70.4555L27.2303 62.0553C27.2303 59.0231 24.7722 56.5651 21.7401 56.5651ZM20.25 62.0553C20.25 61.2323 20.9172 60.5651 21.7401 60.5651 22.5631 60.5651 23.2303 61.2323 23.2303 62.0553L23.2303 70.4555C23.2303 71.2785 22.5631 71.9456 21.7401 71.9456 20.9172 71.9456 20.25 71.2785 20.25 70.4555L20.25 62.0553Z" class="MsftOfcThm_Text1_Fill_v2" stroke="none" stroke-width="1" stroke-linecap="butt" stroke-linejoin="miter" stroke-miterlimit="4" fill="#000000" fill-rule="evenodd" fill-opacity="1" clip-rule="evenodd"/></svg>