<svg width="97" height="96" viewBox="0 0 97 96" xmlns="http://www.w3.org/2000/svg" xmlns:xlink="http://www.w3.org/1999/xlink" fill="none" overflow="hidden"><style>
.MsftOfcThm_Text1_Fill_v2 {
 fill:#000000; 
}
</style>
<path d="M36.0989 16.2615C36.102 16.206 36.1035 16.1501 36.1035 16.0939 36.1035 14.437 34.7604 13.0939 33.1035 13.0939 31.4467 13.0939 30.1035 14.437 30.1035 16.0939 30.1035 17.7507 31.4467 19.0939 33.1035 19.0939 33.1593 19.0939 33.2148 19.0924 33.2699 19.0893L38.8213 24.6407C34.4626 26.8084 30.737 30.3327 27.9681 34.7332 25.0611 32.975 22.7128 31.0795 20.9371 29.4665 20.1194 28.7238 18.8546 28.7846 18.1119 29.6022 17.3692 30.4198 17.43 31.6847 18.2476 32.4274 20.1868 34.1888 22.7936 36.2936 26.0494 38.2463 23.9029 42.8143 22.6915 48.0612 22.6915 53.5767 22.6915 53.9083 22.6958 54.2388 22.7045 54.5684L15.5889 54.5684C14.4843 54.5684 13.5889 55.4638 13.5889 56.5684 13.5889 57.6729 14.4843 58.5684 15.5889 58.5684L23.0259 58.5684C23.7053 63.5961 25.3939 68.2703 27.8575 72.2431 26.0415 73.2323 24.2792 74.5968 22.769 75.9897 20.6531 77.9412 18.8048 80.1604 17.8553 81.9107 17.3286 82.8816 17.6887 84.0957 18.6597 84.6224 19.6306 85.149 20.8446 84.7889 21.3713 83.818 22.0372 82.5904 23.5495 80.7114 25.4809 78.93 27.0191 77.5112 28.6797 76.2878 30.2036 75.5298 34.9153 81.281 41.4983 84.9063 48.9431 84.9063 56.3912 84.9063 62.9766 81.2779 67.6888 75.5225 69.2166 76.2799 70.883 77.5066 72.4263 78.93 74.3577 80.7114 75.87 82.5904 76.5359 83.818 77.0626 84.7889 78.2766 85.149 79.2475 84.6224 80.2184 84.0957 80.5786 82.8816 80.0519 81.9107 79.1024 80.1604 77.2541 77.9412 75.1382 75.9897 73.6237 74.5928 71.8556 73.2245 70.0341 72.2346 72.4948 68.2637 74.1815 63.5925 74.8604 58.5684L82.2971 58.5684C83.4017 58.5684 84.2971 57.6729 84.2971 56.5684 84.2971 55.4638 83.4017 54.5684 82.2971 54.5684L75.1818 54.5684C75.1905 54.2388 75.1948 53.9083 75.1948 53.5767 75.1948 48.062 73.9838 42.8159 71.8379 38.2485 75.0963 36.4262 77.8054 34.3703 79.7456 32.3224 80.5052 31.5205 80.471 30.2547 79.6691 29.495 78.8673 28.7354 77.6014 28.7696 76.8417 29.5714 75.1914 31.3135 72.8174 33.1144 69.921 34.7376 67.1516 30.3349 63.4248 26.8088 59.0644 24.6404L64.6155 19.0894C64.6705 19.0924 64.726 19.0939 64.7817 19.0939 66.4386 19.0939 67.7817 17.7507 67.7817 16.0939 67.7817 14.437 66.4386 13.0939 64.7817 13.0939 63.1249 13.0939 61.7817 14.437 61.7817 16.0939 61.7817 16.1502 61.7833 16.2061 61.7864 16.2616L55.2147 22.8333C55.1392 22.9088 55.0697 22.9902 55.0071 23.0767 53.0692 22.5348 51.0404 22.2471 48.9431 22.2471 46.8456 22.2471 44.8166 22.5349 42.8785 23.0769 42.8158 22.9903 42.7463 22.9089 42.6707 22.8333L36.0989 16.2615ZM29.5542 40.1461C27.7393 44.0779 26.6915 48.644 26.6915 53.5767 26.6915 68.1727 35.8661 79.5597 46.9429 80.7951L46.9429 44.4327C40.1096 44.2339 34.3002 42.4537 29.5542 40.1461ZM31.4837 36.636C36.036 38.8203 41.6258 40.4512 48.2173 40.4512 54.8392 40.4512 61.1454 38.8291 66.3332 36.5293 62.1983 30.2051 55.8458 26.2471 48.9431 26.2471 42.0018 26.2471 35.6167 30.2497 31.4837 36.636ZM68.2825 40.0393C63.2293 42.3238 57.2487 43.9877 50.9429 44.3685L50.9429 80.7951C62.0199 79.5601 71.1948 68.1729 71.1948 53.5767 71.1948 48.5993 70.1279 43.995 68.2825 40.0393Z" class="MsftOfcThm_Text1_Fill_v2" stroke="none" stroke-width="1" stroke-linecap="butt" stroke-linejoin="miter" stroke-miterlimit="4" fill="#000000" fill-rule="evenodd" fill-opacity="1" clip-rule="evenodd"/></svg>