<svg width="96" height="96" viewBox="0 0 96 96" xmlns="http://www.w3.org/2000/svg" xmlns:xlink="http://www.w3.org/1999/xlink" fill="none" overflow="hidden"><style>
.MsftOfcThm_Text1_Fill_v2 {
 fill:#000000; 
}
</style>
<path d="M49.5131 15C31.5566 14.9999 17 29.5566 17 47.5131 17 65.4696 31.5566 80.0262 49.5131 80.0262 50.6177 80.0262 51.5131 80.9216 51.5131 82.0262 51.5131 83.1307 50.6177 84.0262 49.5131 84.0262 29.3475 84.0262 13 67.6787 13 47.5131 13 27.3475 29.3475 10.9999 49.5131 11 68.5999 11.0001 83.6361 23.4017 82.9796 41.3351 82.4407 56.0539 72.3705 67.7847 57.8732 67.7847 50.8964 67.7847 44.6288 65.7174 40.2854 61.9251 35.8876 58.0855 33.5794 52.5625 34.5227 46.0815 36.2094 34.4925 46.6347 26.0817 58.2902 28.5669 61.2108 29.1896 62.7246 31.9692 62.5284 34.5474L62.527 34.5645 60.0592 63.6751C70.8523 62.5797 78.5356 53.3899 78.9822 41.1888 79.5343 26.1089 66.9695 15.0001 49.5131 15ZM56.0402 63.7303 58.5405 34.2364C58.6127 33.2467 58.0377 32.603 57.4561 32.479 48.3564 30.5387 39.8797 37.0476 38.481 46.6576 37.7393 51.7537 39.5102 55.9383 42.9161 58.912 46.0318 61.6322 50.6071 63.4044 56.0402 63.7303Z" class="MsftOfcThm_Text1_Fill_v2" stroke="none" stroke-width="1" stroke-linecap="butt" stroke-linejoin="miter" stroke-miterlimit="4" fill="#000000" fill-rule="evenodd" fill-opacity="1" clip-rule="evenodd"/></svg>