<svg width="96" height="96" viewBox="0 0 96 96" xmlns="http://www.w3.org/2000/svg" xmlns:xlink="http://www.w3.org/1999/xlink" fill="none" overflow="hidden"><style>
.MsftOfcThm_Text1_Fill_v2 {
 fill:#000000; 
}
</style>
<path d="M77 48.3646C77 33.2516 64.7484 21 49.6354 21 39.3206 21 30.335 26.7077 25.6712 35.1418L32.0105 32.1886C33.0117 31.7221 34.2015 32.1557 34.668 33.1569 35.1344 34.1582 34.7009 35.348 33.6996 35.8144L23.2542 40.6805C22.2774 41.1356 21.1156 40.7349 20.627 39.7744L15.2155 29.136C14.7147 28.1515 15.1069 26.9474 16.0914 26.4466 17.0759 25.9458 18.28 26.3379 18.7808 27.3225L21.9656 33.5835C27.2477 23.7161 37.6552 17 49.6354 17 66.9576 17 81 31.0424 81 48.3646 81 65.6868 66.9576 79.7293 49.6354 79.7293 36.0878 79.7293 24.5511 71.1409 20.1633 59.1182 19.7846 58.0806 20.3188 56.9324 21.3564 56.5537 22.394 56.175 23.5422 56.7092 23.9209 57.7468 27.7511 68.2418 37.8214 75.7293 49.6354 75.7293 64.7484 75.7293 77 63.4777 77 48.3646Z" class="MsftOfcThm_Text1_Fill_v2" stroke="none" stroke-width="1" stroke-linecap="butt" stroke-linejoin="miter" stroke-miterlimit="4" fill="#000000" fill-rule="evenodd" fill-opacity="1" clip-rule="evenodd"/></svg>