<svg width="96" height="96" viewBox="0 0 96 96" xmlns="http://www.w3.org/2000/svg" xmlns:xlink="http://www.w3.org/1999/xlink" fill="none" overflow="hidden"><style>
.MsftOfcThm_Text1_Fill_v2 {
 fill:#000000; 
}
</style>
<path d="M19 34.1834C19 24.6933 26.6933 17 36.1834 17 45.6735 17 53.3668 24.6933 53.3668 34.1834 53.3668 36.8561 52.7581 39.3809 51.6735 41.6319 51.194 42.6269 51.612 43.8223 52.6071 44.3018 53.6022 44.7812 54.7975 44.3632 55.277 43.3681 56.6169 40.5873 57.3668 37.4701 57.3668 34.1834 57.3668 22.4841 47.8827 13 36.1834 13 24.4841 13 15 22.4841 15 34.1834 15 45.3868 23.696 54.5574 34.7079 55.3162 35.8098 55.3921 36.7647 54.5603 36.8406 53.4584 36.9165 52.3564 36.0848 51.4015 34.9828 51.3256 26.0538 50.7104 19 43.2698 19 34.1834ZM37.8774 36.2218C38.764 35.7412 40.151 36.0548 41.0079 37.4655L48.2185 50.4445C48.9498 51.7608 50.6078 52.0927 51.7886 51.328 53.1678 50.435 55.3275 49.4534 57.6294 48.6941 59.9485 47.9293 62.1903 47.4637 63.7393 47.4637 68.1457 47.4637 71.4459 49.1453 73.6794 51.8316 75.9481 54.5602 77.2393 58.4816 77.2393 63.0979 77.2393 71.9494 70.1635 79.0979 61.3418 79.0979 56.7932 79.0979 50.8311 77.2042 45.4477 74.9931 40.9097 73.1293 37.0042 71.1366 34.9967 70.1123 34.6506 69.9357 34.361 69.7879 34.1342 69.6745 32.8952 69.055 32.3916 68.4518 32.1807 67.9903 31.9741 67.538 31.9123 66.9236 32.168 65.9937 32.5114 64.7452 33.8502 63.8632 35.6926 64.3871 37.6205 64.9353 39.7628 65.7892 41.9574 66.7192 42.5811 66.9836 43.2132 67.2559 43.8439 67.5277L43.844 67.5277C45.383 68.1909 46.9141 68.8506 48.2969 69.382 50.5462 70.2464 52.4436 67.8131 51.3538 65.8513L36.9876 39.9923 36.9687 39.9582 36.9484 39.9248C36.1855 38.6696 36.6813 36.8702 37.8774 36.2218ZM44.456 35.4376C42.8511 32.7528 39.2954 30.9031 35.971 32.7053 32.6831 34.4878 31.6444 38.852 33.5081 41.9657L45.7443 63.9907 45.5112 63.8903 45.511 63.8902C44.8633 63.6111 44.1986 63.3247 43.5182 63.0363 41.3073 62.0994 38.9704 61.1606 36.7867 60.5396 33.1909 59.5171 29.3448 61.1751 28.3112 64.933 27.8919 66.4579 27.8302 68.0934 28.5424 69.6525 29.2505 71.2023 30.5844 72.3717 32.3453 73.2522 32.5538 73.3565 32.8273 73.4961 33.159 73.6654 35.1455 74.6795 39.2187 76.759 43.928 78.6932 49.3603 80.9243 55.9494 83.0979 61.3418 83.0979 72.4024 83.0979 81.2393 74.1287 81.2393 63.0979 81.2393 57.7731 79.7511 52.8774 76.7551 49.2742 73.7239 45.6286 69.2741 43.4637 63.7393 43.4637 61.5717 43.4637 58.863 44.0753 56.3765 44.8954 54.4648 45.526 52.5547 46.3229 50.9758 47.1712L44.4876 35.4925 44.4722 35.4648 44.456 35.4376Z" class="MsftOfcThm_Text1_Fill_v2" stroke="none" stroke-width="1" stroke-linecap="butt" stroke-linejoin="miter" stroke-miterlimit="4" fill="#000000" fill-rule="evenodd" fill-opacity="1" clip-rule="evenodd"/></svg>