<svg width="96" height="96" viewBox="0 0 96 96" xmlns="http://www.w3.org/2000/svg" xmlns:xlink="http://www.w3.org/1999/xlink" fill="none" overflow="hidden"><style>
.MsftOfcThm_Text1_Fill_v2 {
 fill:#000000; 
}
</style>
<path d="M45.2854 12.8884C59.731 11.3114 72.0001 22.4908 72.0001 36.5476 72.0001 44.5019 68.0646 51.5359 62.04 55.8529 60.6096 56.8778 59.7779 58.4204 59.7779 60.0378L59.7779 73.7015C59.7779 77.0529 57.0418 79.7399 53.7038 79.7399L42.2964 79.7399C38.9583 79.7399 36.2223 77.0529 36.2223 73.7015L38.2223 73.7015 36.2223 73.7015 36.2223 60.0269C36.2223 58.4158 35.3936 56.8791 33.9681 55.8585L35.1323 54.2323 33.9681 55.8585C27.4843 51.2165 23.4198 43.4286 24.0676 34.7413 24.9255 23.2352 33.7398 14.1488 45.2854 12.8884ZM68.0001 36.5476C68.0001 24.8851 57.8114 15.5447 45.7194 16.8648 36.0752 17.9176 28.7699 25.4708 28.0565 35.0388 27.5181 42.2591 30.8851 48.7318 36.2966 52.6061 38.6644 54.3013 40.2223 56.9996 40.2223 60.0269L40.2223 66.7399 55.7779 66.7399 55.7779 60.0378C55.7779 57.0045 57.3384 54.3009 59.7102 52.6014 64.7399 48.9973 68.0001 43.1479 68.0001 36.5476ZM55.7779 70.7399 40.2223 70.7399 40.2223 73.7015C40.2223 74.8108 41.1343 75.7399 42.2964 75.7399L53.7038 75.7399C54.8659 75.7399 55.7779 74.8108 55.7779 73.7015L55.7779 70.7399ZM49.0001 24.7399C49.0001 23.6354 49.8955 22.7399 51.0001 22.7399 57.2682 22.7399 62.0001 28.3159 62.0001 34.7399 62.0001 35.8445 61.1047 36.7399 60.0001 36.7399 58.8955 36.7399 58.0001 35.8445 58.0001 34.7399 58.0001 30.1182 54.6731 26.7399 51.0001 26.7399 49.8955 26.7399 49.0001 25.8445 49.0001 24.7399Z" class="MsftOfcThm_Text1_Fill_v2" stroke="none" stroke-width="1" stroke-linecap="butt" stroke-linejoin="miter" stroke-miterlimit="4" fill="#000000" fill-rule="evenodd" fill-opacity="1" clip-rule="evenodd"/></svg>