<svg width="96" height="96" viewBox="0 0 96 96" xmlns="http://www.w3.org/2000/svg" xmlns:xlink="http://www.w3.org/1999/xlink" fill="none" overflow="hidden"><style>
.MsftOfcThm_Text1_Fill_v2 {
 fill:#000000; 
}
</style>
<path d="M10 25.423C10 19.538 14.8024 14.923 20.6405 14.923L75.3595 14.923C81.1976 14.923 86 19.538 86 25.423L86 43.0002C86 44.1048 85.1046 45.0002 84 45.0002 82.8954 45.0002 82 44.1048 82 43.0002L82 25.423C82 21.8233 79.0654 18.923 75.3595 18.923L20.6405 18.923C16.9346 18.923 14 21.8233 14 25.423L14 53.423C14 57.0228 16.9346 59.923 20.6405 59.923L29.9917 59.923 30 61.9147C30.0169 65.9664 30.0324 71.7754 29.9999 76.2039 29.9947 76.9207 30.8694 77.3657 31.4613 76.8558L31.4668 76.851 46.1669 64.2798C47.0064 63.5619 48.2689 63.6604 48.9867 64.4999 49.7046 65.3394 49.6061 66.6019 48.7666 67.3198L34.0721 79.8862 34.0692 79.8887C30.9162 82.6011 25.9693 80.3816 26.0001 76.1746 26.0273 72.452 26.0205 67.7392 26.0076 63.923L20.6405 63.923C14.8024 63.923 10 59.3081 10 53.423L10 25.423ZM68.1204 46.9541C62.1788 46.9541 56.375 50.156 53.246 55.1778 52.5864 56.2364 52.603 57.583 53.3083 58.6684 55.4365 61.9436 60.0049 66.9681 68.1204 66.9681 73.948 66.9681 79.8533 63.6908 82.9909 58.7274 83.6516 57.6823 83.6386 56.3406 82.9324 55.2538 80.8042 51.9786 76.2359 46.9541 68.1204 46.9541ZM49.8511 53.0624C53.717 46.8581 60.81 42.9541 68.1204 42.9541 78.1687 42.9541 83.8041 49.254 86.2865 53.0744 87.8113 55.4209 87.8992 58.449 86.372 60.8648 82.5101 66.9737 75.3363 70.9681 68.1204 70.9681 58.072 70.9681 52.4366 64.6682 49.9542 60.8479 48.4285 58.4999 48.3454 55.4789 49.8511 53.0624ZM73.8054 56.1C74.2129 55.8147 74.8574 55.9946 74.8574 56.492 74.8574 60.3955 71.6929 63.56 67.7894 63.56 63.8859 63.56 60.7215 60.3955 60.7215 56.492 60.7215 52.5885 63.8859 49.4241 67.7894 49.4241 68.2864 49.4241 68.4662 50.0679 68.1811 50.4749 67.7221 51.1303 67.4527 51.9283 67.4527 52.7892 67.4527 55.0198 69.261 56.8281 71.4915 56.8281 72.3523 56.8281 73.1501 56.5588 73.8054 56.1Z" class="MsftOfcThm_Text1_Fill_v2" stroke="none" stroke-width="1" stroke-linecap="butt" stroke-linejoin="miter" stroke-miterlimit="4" fill="#000000" fill-rule="evenodd" fill-opacity="1" clip-rule="evenodd"/></svg>