<svg width="96" height="96" viewBox="0 0 96 96" xmlns="http://www.w3.org/2000/svg" xmlns:xlink="http://www.w3.org/1999/xlink" fill="none" overflow="hidden"><style>
.MsftOfcThm_Text1_Fill_v2 {
 fill:#000000; 
}
</style>
<path d="M50.969 17C33.331 17 19 31.4411 19 49.2954 19 66.864 35.3112 79.942 53.2554 79.942 58.083 79.942 64.3198 78.4568 69.1962 76.1015 71.6328 74.9246 73.6034 73.5904 74.8802 72.2275 76.1588 70.8628 76.5579 69.6843 76.4236 68.6894 76.2034 67.0593 75.6436 66.3507 75.1135 65.949 74.481 65.4697 73.6127 65.2077 72.3558 64.95 72.1998 64.918 72.032 64.8854 71.8552 64.8511L71.855 64.8511 71.855 64.8511C70.8103 64.6482 69.4503 64.3842 68.3341 63.816 67.6184 63.4517 66.9191 62.9322 66.3624 62.1687 65.8052 61.4044 65.4657 60.4979 65.32 59.4685 64.9305 56.7157 65.4617 54.4887 66.5753 52.5835 67.6393 50.7629 69.1931 49.3199 70.6326 48.0454 70.8236 47.8762 71.0138 47.7088 71.2028 47.5425 73.9774 45.1001 76.487 42.891 77.4412 38.9337 78.6592 33.8825 76.6577 28.4914 71.945 24.238 67.238 19.9897 59.9141 17 50.969 17ZM15 49.2954C15 29.2681 31.0859 13 50.969 13 60.7846 13 69.0989 16.2809 74.625 21.2686 80.1454 26.251 82.9718 33.0613 81.3297 39.8713 80.0675 45.106 76.6408 48.1026 73.9365 50.4674L73.9361 50.4678 73.9326 50.4708 73.9309 50.4723C73.71 50.6655 73.4939 50.8545 73.2842 51.0402 71.8373 52.3213 70.7354 53.3927 70.0287 54.6019 69.3715 55.7263 69.0168 57.0443 69.2806 58.9081 69.3497 59.3969 69.4836 59.66 69.5946 59.8122 69.7062 59.9653 69.87 60.1094 70.1488 60.2513 70.7228 60.5436 71.4322 60.6853 72.5046 60.8995L72.5047 60.8995 72.5055 60.8997 72.5059 60.8997 72.5106 60.9007C72.7134 60.9412 72.9291 60.9843 73.1594 61.0315 74.4323 61.2925 76.1095 61.685 77.5294 62.761 79.0517 63.9146 80.051 65.6621 80.3876 68.154 80.7431 70.7866 79.5329 73.1118 77.7993 74.9623 76.064 76.8146 73.6199 78.407 70.9359 79.7034 65.571 82.2946 58.7428 83.942 53.2554 83.942 33.6785 83.942 15 69.6085 15 49.2954ZM58 31C58 34.3137 55.3137 37 52 37 48.6863 37 46 34.3137 46 31 46 27.6863 48.6863 25 52 25 55.3137 25 58 27.6863 58 31ZM37 44.9146C40.3137 44.9146 43 42.2283 43 38.9146 43 35.6008 40.3137 32.9146 37 32.9146 33.6863 32.9146 31 35.6008 31 38.9146 31 42.2283 33.6863 44.9146 37 44.9146ZM43 58.4478C43 61.7615 40.3137 64.4478 37 64.4478 33.6863 64.4478 31 61.7615 31 58.4478 31 55.134 33.6863 52.4478 37 52.4478 40.3137 52.4478 43 55.134 43 58.4478ZM52 73C55.3137 73 58 70.3137 58 67 58 63.6863 55.3137 61 52 61 48.6863 61 46 63.6863 46 67 46 70.3137 48.6863 73 52 73Z" class="MsftOfcThm_Text1_Fill_v2" stroke="none" stroke-width="1" stroke-linecap="butt" stroke-linejoin="miter" stroke-miterlimit="4" fill="#000000" fill-rule="evenodd" fill-opacity="1" clip-rule="evenodd"/></svg>