<svg width="96" height="96" viewBox="0 0 96 96" xmlns="http://www.w3.org/2000/svg" xmlns:xlink="http://www.w3.org/1999/xlink" fill="none" overflow="hidden"><style>
.MsftOfcThm_Text1_Fill_v2 {
 fill:#000000; 
}
</style>
<path d="M18.2803 39.3201C22.028 26.4706 33.9027 17.0801 47.9703 17.0801 60.6946 17.0801 71.633 24.7723 76.3739 35.7595L67.3748 31.5671C66.3735 31.1007 65.1837 31.5342 64.7173 32.5355 64.2508 33.5367 64.6844 34.7265 65.6856 35.193L78.1356 40.993C79.1125 41.4481 80.2743 41.0474 80.7628 40.0868L87.2128 27.4068C87.7136 26.4223 87.3215 25.2182 86.337 24.7174 85.3525 24.2166 84.1484 24.6088 83.6476 25.5933L79.6893 33.3748C74.1591 21.4002 62.0355 13.0801 47.9703 13.0801 32.0779 13.0801 18.6725 23.6895 14.4403 38.2001 14.131 39.2605 14.7399 40.3708 15.8003 40.6801 16.8607 40.9894 17.971 40.3805 18.2803 39.3201ZM17.866 55.1177C16.889 54.6618 15.7264 55.0623 15.2376 56.0233L8.78763 68.7033C8.28683 69.6878 8.67896 70.8919 9.66347 71.3927 10.648 71.8935 11.8521 71.5014 12.3529 70.5168L16.2801 62.7963C21.8464 74.6791 33.9215 82.92 47.9197 82.92 63.8121 82.92 77.2174 72.3106 81.4497 57.8001 81.7589 56.7397 81.1501 55.6293 80.0897 55.3201 79.0293 55.0108 77.9189 55.6197 77.6097 56.68 73.8619 69.5295 61.9873 78.92 47.9197 78.92 35.225 78.92 24.3078 71.2636 19.5492 60.3173L28.6245 64.5524C29.6254 65.0195 30.8155 64.5868 31.2826 63.5858 31.7497 62.5849 31.317 61.3948 30.316 60.9277L17.866 55.1177Z" class="MsftOfcThm_Text1_Fill_v2" stroke="none" stroke-width="1" stroke-linecap="butt" stroke-linejoin="miter" stroke-miterlimit="4" fill="#000000" fill-rule="evenodd" fill-opacity="1" clip-rule="evenodd"/></svg>