<svg width="97" height="96" viewBox="0 0 97 96" xmlns="http://www.w3.org/2000/svg" xmlns:xlink="http://www.w3.org/1999/xlink" fill="none" overflow="hidden"><style>
.MsftOfcThm_Text1_Fill_v2 {
 fill:#000000; 
}
</style>
<path d="M60.2325 14.7728C61.2776 15.1305 61.8347 16.2677 61.477 17.3127L52.6286 43.1595 79.2685 34.0874C80.3141 33.7314 81.4504 34.2903 81.8064 35.3359 82.1625 36.3815 81.6035 37.5178 80.5579 37.8739L51.7813 47.6736C51.7703 47.7529 51.7546 47.8323 51.7337 47.9116 51.5464 48.6237 51.3805 49.342 51.2114 50.0738L51.2114 50.074C50.7058 52.2629 50.1722 54.5729 48.9543 57.2017 48.6267 57.9089 48.2556 58.6286 47.8622 59.3388 48.1998 59.3074 48.5418 59.2914 48.8876 59.2914 54.9341 59.2914 59.8357 64.193 59.8357 70.2394 59.8357 76.2859 54.9341 81.1875 48.8876 81.1875 42.8412 81.1875 37.9395 76.2859 37.9395 70.2394 37.9395 67.8599 38.6987 65.6577 39.988 63.8617 40.0589 63.7422 40.1435 63.6284 40.2417 63.5223 40.3911 63.3303 40.5467 63.1434 40.7083 62.962 41.7913 61.5826 43.982 58.4188 45.3249 55.5202 46.3548 53.2973 46.7633 51.5311 47.2415 49.4632L47.3308 49.078C46.2623 49.4617 45.1161 49.9098 43.671 50.5051 41.9841 51.1998 40.0239 52.2976 38.3309 53.3525 36.6207 54.4182 35.3243 55.3514 34.9453 55.6732 34.8659 55.7407 34.7814 55.802 34.6925 55.8564 32.7056 57.8819 29.9377 59.1385 26.8762 59.1385 20.8298 59.1385 15.9282 54.2369 15.9282 48.1904 15.9282 42.144 20.8298 37.2424 26.8762 37.2424 32.9227 37.2424 37.8243 42.144 37.8243 48.1904 37.8243 48.4653 37.8142 48.7378 37.7943 49.0075 39.1968 48.1941 40.7215 47.3939 42.1476 46.8065 44.5087 45.834 46.1354 45.2271 47.8851 44.6655L57.6926 16.0172C58.0503 14.9722 59.1875 14.415 60.2325 14.7728ZM43.3301 66.0686C42.457 67.2302 41.9395 68.6744 41.9395 70.2394 41.9395 74.0768 45.0503 77.1875 48.8876 77.1875 52.7249 77.1875 55.8357 74.0768 55.8357 70.2394 55.8357 66.4021 52.7249 63.2914 48.8876 63.2914 46.8512 63.2914 45.0194 64.1675 43.7485 65.5633 43.5926 65.759 43.452 65.9286 43.3301 66.0686ZM26.8762 41.2424C23.0389 41.2424 19.9282 44.3531 19.9282 48.1904 19.9282 52.0278 23.0389 55.1385 26.8762 55.1385 30.7136 55.1385 33.8243 52.0278 33.8243 48.1904 33.8243 44.3531 30.7136 41.2424 26.8762 41.2424Z" class="MsftOfcThm_Text1_Fill_v2" stroke="none" stroke-width="1" stroke-linecap="butt" stroke-linejoin="miter" stroke-miterlimit="4" fill="#000000" fill-rule="evenodd" fill-opacity="1" clip-rule="evenodd"/></svg>