<svg width="96" height="96" viewBox="0 0 96 96" xmlns="http://www.w3.org/2000/svg" xmlns:xlink="http://www.w3.org/1999/xlink" fill="none" overflow="hidden"><style>
.MsftOfcThm_Text1_Fill_v2 {
 fill:#000000; 
}
</style>
<path d="M70.9642 16.6727C73.4387 16.1794 75.7463 18.0723 75.7463 20.5955L75.7463 24.0879 39.7809 31.2577 39.7809 26.1707C39.7809 24.263 41.128 22.6208 42.9988 22.2479L70.9642 16.6727ZM39.7809 35.3364 39.7809 69.6504C39.7809 69.6866 39.7799 69.7225 39.778 69.7582 39.8391 71.6745 39.2049 73.5878 38.1483 75.2688 36.5731 77.7751 33.9657 79.957 30.749 81.3388 27.5323 82.7207 24.1548 83.1097 21.2525 82.5269 18.3602 81.9461 15.7377 80.336 14.5472 77.5647 13.3567 74.7934 13.9942 71.7828 15.5641 69.2852 17.1394 66.7789 19.7467 64.597 22.9634 63.2151 26.1801 61.8333 29.5577 61.4442 32.4599 62.027 33.6378 62.2636 34.771 62.6708 35.7809 63.2577L35.7809 26.1707C35.7809 22.3554 38.4751 19.071 42.2168 18.3251L70.1822 12.7499C75.1311 11.7632 79.7463 15.5491 79.7463 20.5955L79.7463 61.9906C79.7483 62.0944 79.7483 62.1983 79.7463 62.3021L79.7463 62.5776C79.7463 62.7171 79.732 62.8532 79.7048 62.9847 79.5478 64.5282 78.9693 66.0411 78.1141 67.4018 76.5388 69.9081 73.9315 72.09 70.7147 73.4719 67.498 74.8537 64.1205 75.2427 61.2182 74.6599 58.3259 74.0791 55.7034 72.469 54.5129 69.6977 53.3224 66.9264 53.9599 63.9159 55.5298 61.4182 57.1051 58.9119 59.7124 56.73 62.9291 55.3481 66.1459 53.9663 69.5234 53.5772 72.4256 54.16 73.6034 54.3966 74.7365 54.8037 75.7463 55.3905L75.7463 28.1666 39.7809 35.3364ZM18.9507 71.4137C17.8539 73.1588 17.699 74.7674 18.2224 75.9859 18.7459 77.2044 20.0192 78.1994 22.04 78.6052 24.0508 79.009 26.6037 78.7661 29.1702 77.6636 31.7367 76.5611 33.6703 74.8767 34.7617 73.1402 35.8585 71.3952 36.0134 69.7866 35.49 68.5681 34.9665 67.3496 33.6932 66.3545 31.6724 65.9487 29.6616 65.545 27.1087 65.7879 24.5422 66.8904 21.9758 67.9929 20.0421 69.6773 18.9507 71.4137ZM58.1882 68.1189C57.6647 66.9004 57.8196 65.2918 58.9164 63.5468 60.0078 61.8103 61.9415 60.1259 64.5079 59.0234 67.0744 57.9209 69.6273 57.678 71.6381 58.0818 73.6589 58.4875 74.9322 59.4826 75.4557 60.7011 75.9792 61.9196 75.8243 63.5282 74.7274 65.2732 73.636 67.0097 71.7024 68.6941 69.1359 69.7966 66.5695 70.8991 64.0166 71.142 62.0057 70.7382 59.985 70.3324 58.7116 69.3374 58.1882 68.1189Z" class="MsftOfcThm_Text1_Fill_v2" stroke="none" stroke-width="1" stroke-linecap="butt" stroke-linejoin="miter" stroke-miterlimit="4" fill="#000000" fill-rule="evenodd" fill-opacity="1" clip-rule="evenodd"/></svg>