<svg width="96" height="96" viewBox="0 0 96 96" xmlns="http://www.w3.org/2000/svg" xmlns:xlink="http://www.w3.org/1999/xlink" fill="none" overflow="hidden"><style>
.MsftOfcThm_Text1_Fill_v2 {
 fill:#000000; 
}
</style>
<path d="M62.6134 20.7947C64.6973 21.9086 66.6391 23.2528 68.4048 24.7966 69.4872 25.7438 70.5031 26.7651 71.4446 27.8526 72.2818 28.8203 73.0605 29.8416 73.7755 30.9116 76.6077 35.1504 78.3509 40.0223 78.8506 45.0957 78.901 45.6078 78.9386 46.1203 78.9635 46.6329 78.9872 47.1303 78.9992 47.6309 78.9992 48.1343 78.9992 48.6361 78.9873 49.135 78.9637 49.631 78.792 53.1832 78.0097 56.691 76.6402 59.9975 75.3637 63.0791 73.603 65.9236 71.4343 68.4279 70.4978 69.5084 69.4879 70.5235 68.4122 71.4654 68.1671 71.6799 67.9184 71.8906 67.6662 72.0976 63.7255 75.3317 59.0479 77.544 54.048 78.5386 49.048 79.5332 43.88 79.2793 39.0016 77.7994 34.7627 76.5136 30.8563 74.3366 27.5401 71.4231L49.4145 49.5485C49.7896 49.1734 50.0003 48.6647 50.0003 48.1343L50.0003 17.1989C54.4053 17.4836 58.7068 18.7066 62.6134 20.7947ZM45.115 48.1911 24.7111 68.5953C19.9109 63.136 17 55.9751 17 48.1343 17 40.9965 19.4123 34.4222 23.4661 29.1821L45.115 48.1911ZM46.0003 43.6452 46.0003 17.1977C38.2524 17.6909 31.2782 21.0304 26.1117 26.1819L46.0003 43.6452ZM13 48.1343C13 28.8043 28.6698 13.1343 47.9996 13.1343L48.0003 13.1343 48.062 13.1343C56.9107 13.1498 64.9892 16.449 71.1438 21.8785 72.2868 22.886 73.3638 23.968 74.3674 25.1178 79.4221 30.9038 82.6032 38.3685 82.9647 46.5659 83.0116 47.6106 83.0115 48.6551 82.965 49.6964 82.6045 57.9032 79.418 65.3759 74.3546 71.1654 73.3591 72.3045 72.2886 73.3806 71.1486 74.3858 64.9789 79.8306 56.8751 83.1343 47.9996 83.1343 28.6698 83.1343 13 67.4642 13 48.1343Z" class="MsftOfcThm_Text1_Fill_v2" stroke="none" stroke-width="1" stroke-linecap="butt" stroke-linejoin="miter" stroke-miterlimit="4" fill="#000000" fill-rule="evenodd" fill-opacity="1" clip-rule="evenodd"/></svg>