<svg width="96" height="96" viewBox="0 0 96 96" xmlns="http://www.w3.org/2000/svg" xmlns:xlink="http://www.w3.org/1999/xlink" fill="none" overflow="hidden"><style>
.MsftOfcThm_Text1_Fill_v2 {
 fill:#000000; 
}
</style>
<path d="M16.5 47.74C16.5 30.6192 30.3792 16.74 47.5 16.74 64.6208 16.74 78.5 30.6192 78.5 47.74 78.5 64.8608 64.6208 78.74 47.5 78.74 30.3792 78.74 16.5 64.8608 16.5 47.74ZM47.5 12.74C28.17 12.74 12.5 28.41 12.5 47.74 12.5 67.07 28.17 82.74 47.5 82.74 66.83 82.74 82.5 67.07 82.5 47.74 82.5 28.41 66.83 12.74 47.5 12.74ZM50 34.24C50 35.8968 48.6569 37.24 47 37.24 45.3431 37.24 44 35.8968 44 34.24 44 32.5831 45.3431 31.24 47 31.24 48.6569 31.24 50 32.5831 50 34.24ZM43 40.24C41.8954 40.24 41 41.1354 41 42.24 41 43.3446 41.8954 44.24 43 44.24L46 44.24 46 58.24 43 58.24C41.8954 58.24 41 59.1354 41 60.24 41 61.3446 41.8954 62.24 43 62.24L53 62.24C54.1046 62.24 55 61.3446 55 60.24 55 59.1354 54.1046 58.24 53 58.24L50 58.24 50 42.24C50 41.1354 49.1046 40.24 48 40.24L43 40.24Z" class="MsftOfcThm_Text1_Fill_v2" stroke="none" stroke-width="1" stroke-linecap="butt" stroke-linejoin="miter" stroke-miterlimit="4" fill="#000000" fill-rule="evenodd" fill-opacity="1" clip-rule="evenodd"/></svg>