<svg width="96" height="96" viewBox="0 0 96 96" xmlns="http://www.w3.org/2000/svg" xmlns:xlink="http://www.w3.org/1999/xlink" fill="none" overflow="hidden"><style>
.MsftOfcThm_Text1_Fill_v2 {
 fill:#000000; 
}
</style>
<path d="M74.5927 16.4832C75.1193 15.4979 76.1543 14.8339 77.3417 14.8339 79.0614 14.8339 80.4556 16.2281 80.4556 17.9478 80.4556 18.5875 80.2646 19.1772 79.9368 19.6697 79.4013 20.4742 79.6195 21.5606 80.4241 22.0961 81.2287 22.6316 82.315 22.4135 82.8505 21.6089 83.5487 20.5598 83.9556 19.2987 83.9556 17.9478 83.9556 14.2951 80.9944 11.3339 77.3417 11.3339 74.8121 11.3339 72.6171 12.7545 71.506 14.8332 71.0504 15.6856 71.372 16.7459 72.2243 17.2015 73.0767 17.6571 74.137 17.3355 74.5927 16.4832ZM68.8834 24.3847C66.4208 24.3847 64.2772 25.7637 63.1881 27.801 62.6674 28.7751 61.4556 29.1427 60.4815 28.622 59.5074 28.1012 59.1398 26.8894 59.6605 25.9153 61.4175 22.6283 64.8869 20.3847 68.8834 20.3847 74.656 20.3847 79.3356 25.0643 79.3356 30.837 79.3356 32.9729 78.6928 34.9647 77.5897 36.6222 76.9777 37.5417 75.7362 37.791 74.8166 37.179 73.8971 36.567 73.6478 35.3254 74.2598 34.4059 74.9395 33.3846 75.3356 32.1601 75.3356 30.837 75.3356 27.2735 72.4469 24.3847 68.8834 24.3847ZM48.3272 40.0505C50.2871 37.6793 53.2443 36.1738 56.5548 36.1738 62.4466 36.1738 67.2228 40.95 67.2228 46.8418 67.2228 51.5025 64.2329 55.47 60.0606 56.921 59.0173 57.2838 58.4657 58.4237 58.8285 59.467 59.1913 60.5103 60.3312 61.0619 61.3745 60.6991 67.1052 58.7061 71.2228 53.2574 71.2228 46.8418 71.2228 38.7409 64.6557 32.1738 56.5548 32.1738 52.0013 32.1738 47.9313 34.251 45.2441 37.5021 44.5404 38.3535 44.6601 39.6142 45.5115 40.3179 46.3628 41.0216 47.6235 40.9019 48.3272 40.0505ZM15.7944 63.9863C15.7944 54.6363 23.3741 47.0566 32.7242 47.0566 42.0742 47.0566 49.6539 54.6363 49.6539 63.9863 49.6539 73.3364 42.0742 80.9161 32.7242 80.9161 23.3741 80.9161 15.7944 73.3364 15.7944 63.9863ZM32.7242 43.0566C21.165 43.0566 11.7944 52.4271 11.7944 63.9863 11.7944 75.5455 21.165 84.9161 32.7242 84.9161 44.2833 84.9161 53.6539 75.5455 53.6539 63.9863 53.6539 52.4271 44.2833 43.0566 32.7242 43.0566Z" class="MsftOfcThm_Text1_Fill_v2" stroke="none" stroke-width="1" stroke-linecap="butt" stroke-linejoin="miter" stroke-miterlimit="4" fill="#000000" fill-rule="evenodd" fill-opacity="1" clip-rule="evenodd"/></svg>