<svg width="96" height="96" viewBox="0 0 96 96" xmlns="http://www.w3.org/2000/svg" xmlns:xlink="http://www.w3.org/1999/xlink" fill="none" overflow="hidden"><style>
.MsftOfcThm_Text1_Fill_v2 {
 fill:#000000; 
}
</style>
<path d="M19.4143 16.5858C18.6332 15.8047 17.3669 15.8047 16.5859 16.5858 15.8048 17.3668 15.8048 18.6332 16.5859 19.4142L76.5859 79.4142C77.3669 80.1953 78.6332 80.1953 79.4143 79.4142 80.1953 78.6332 80.1953 77.3668 79.4143 76.5858L58.1719 55.3434C59.7117 53.2292 60.6201 50.6257 60.6201 47.81 60.6201 46.9089 59.4526 46.5829 58.7145 47.0998 57.5267 47.9316 56.0805 48.4197 54.5203 48.4197 50.4776 48.4197 47.2003 45.1424 47.2003 41.0997 47.2003 39.5395 47.6885 38.0934 48.5203 36.9056 49.0372 36.1675 48.7112 35 47.8101 35 44.9944 35 42.3909 35.9084 40.2767 37.4482L19.4143 16.5858ZM48.0251 29C44.8267 29 41.9374 29.4164 39.3334 30.1229 38.2674 30.4121 37.1687 29.7823 36.8795 28.7163 36.5903 27.6503 37.22 26.5516 38.2861 26.2624 41.2332 25.4628 44.4747 25 48.0251 25 67.249 25 76.985 38.4891 80.3779 44.5258 81.7241 46.921 81.719 49.789 80.3745 52.1802 78.9471 54.7188 76.444 58.5027 72.6284 62.0674 71.8213 62.8215 70.5557 62.7785 69.8016 61.9714 69.0476 61.1642 69.0906 59.8986 69.8977 59.1446 73.3312 55.9368 75.5978 52.5141 76.8879 50.2197 77.5501 49.042 77.5509 47.6599 76.8909 46.4856 73.7508 40.8988 65.0667 29 48.0251 29ZM26.5906 34.4459C27.3348 35.2621 27.2765 36.5271 26.4603 37.2713 22.855 40.5586 20.4918 44.1159 19.163 46.479 18.5005 47.6571 18.4995 49.0406 19.1592 50.2144 22.2993 55.8012 30.9834 67.7 48.0251 67.7 51.4003 67.7 54.4317 67.2363 57.1472 66.457 58.2089 66.1523 59.3166 66.766 59.6213 67.8277 59.926 68.8894 59.3123 69.9971 58.2506 70.3018 55.1752 71.1844 51.7724 71.7 48.0251 71.7 28.8011 71.7 19.0652 58.2109 15.6723 52.1742 14.3258 49.7786 14.332 46.9092 15.6764 44.5184 17.1459 41.9052 19.756 37.9712 23.7652 34.3155 24.5814 33.5713 25.8464 33.6297 26.5906 34.4459ZM35.7245 43.5528C35.2553 44.8848 35.0001 46.3176 35.0001 47.81 35.0001 54.8848 40.7353 60.62 47.8101 60.62 49.3025 60.62 50.7353 60.3648 52.0673 59.8956L35.7245 43.5528Z" class="MsftOfcThm_Text1_Fill_v2" stroke="none" stroke-width="1" stroke-linecap="butt" stroke-linejoin="miter" stroke-miterlimit="4" fill="#000000" fill-rule="evenodd" fill-opacity="1" clip-rule="evenodd"/></svg>