<svg width="96" height="96" viewBox="0 0 96 96" xmlns="http://www.w3.org/2000/svg" xmlns:xlink="http://www.w3.org/1999/xlink" fill="none" overflow="hidden"><style>
.MsftOfcThm_Text1_Fill_v2 {
 fill:#000000; 
}
</style>
<path d="M19.1017 46.5243C24.6267 35.8966 36.2717 29 48.2498 29 65.4376 29 74.1869 41.0143 77.3409 46.6338 78.0119 47.8292 78.0319 49.2527 77.3952 50.4639 71.8954 60.9269 60.0308 68 48.2498 68 31.062 68 22.3128 55.9857 19.1588 50.3662 18.4885 49.1721 18.4669 47.7454 19.1017 46.5243ZM48.2498 25C34.8189 25 21.7841 32.6926 15.5526 44.6793 14.2988 47.0911 14.3368 49.9476 15.6706 52.324 19.0765 58.3922 28.8773 72 48.2498 72 61.4981 72 74.7361 64.1196 80.9359 52.325 82.2043 49.9119 82.1621 47.0511 80.829 44.676 77.4232 38.6078 67.6223 25 48.2498 25ZM58.4294 46.9543C59.1586 46.4436 60.312 46.7657 60.312 47.656 60.312 54.6458 54.6458 60.312 47.656 60.312 40.6663 60.312 35 54.6458 35 47.656 35 40.6663 40.6663 35 47.656 35 48.5463 35 48.8684 36.1534 48.3577 36.8827 47.536 38.0562 47.0538 39.4849 47.0538 41.0262 47.0538 45.0204 50.2917 48.2582 54.2858 48.2582 55.8272 48.2582 57.2559 47.7761 58.4294 46.9543Z" class="MsftOfcThm_Text1_Fill_v2" stroke="none" stroke-width="1" stroke-linecap="butt" stroke-linejoin="miter" stroke-miterlimit="4" fill="#000000" fill-rule="evenodd" fill-opacity="1" clip-rule="evenodd"/></svg>