<svg width="96" height="96" viewBox="0 0 96 96" xmlns="http://www.w3.org/2000/svg" xmlns:xlink="http://www.w3.org/1999/xlink" fill="none" overflow="hidden"><style>
.MsftOfcThm_Text1_Fill_v2 {
 fill:#000000; 
}
</style>
<path d="M19.2425 14.6446C17.6692 11.7328 21.2778 8.79248 23.8118 10.9216L46.4249 29.9221 59.7336 15.2279C61.804 12.942 65.5618 14.8927 64.8838 17.9013L61.0055 35.111 90.4894 35.111C93.9515 35.111 94.6607 40.005 91.3409 40.9876L65.4954 48.638 73.6361 58.2211C75.6171 60.5532 73.2451 64.0066 70.3573 62.9944L58.0607 58.6843 58.0607 83.8952C58.0607 87.226 53.4435 88.076 52.2574 84.9635L42.9018 60.4148C36.9003 63.8696 28.3543 68.7144 23.4229 71.5043 20.5866 73.109 17.671 69.721 19.5059 67.1459 22.4386 63.0302 27.1938 56.3287 30.5217 51.4989L12.4779 46.8679C9.44537 46.0896 9.48277 41.7694 12.5284 41.0438L31.1135 36.6154 19.2425 14.6446ZM25.2561 17.3598 35.8713 37.0063 37.1098 39.2986 34.5753 39.9025 17.3868 43.9981 34.2799 48.3338 37.0287 49.0393 35.4399 51.3907C32.9184 55.1225 28.724 61.075 25.3662 65.8071 30.9379 62.6489 38.233 58.5008 42.9321 55.7785L44.9664 54.5999 45.8036 56.7968 54.0607 78.4631 54.0607 53.0437 56.7223 53.9766 68.1994 57.9995 60.4584 48.8869 58.4699 46.546 61.415 45.6743 83.5878 39.111 56.0038 39.111 56.5536 36.6713 60.1457 20.7315 48.0961 34.0356 46.8025 35.4639 45.3271 34.2242 25.2561 17.3598Z" class="MsftOfcThm_Text1_Fill_v2" stroke="none" stroke-width="1" stroke-linecap="butt" stroke-linejoin="miter" stroke-miterlimit="4" fill="#000000" fill-rule="evenodd" fill-opacity="1" clip-rule="evenodd"/></svg>