<svg width="96" height="96" viewBox="0 0 96 96" xmlns="http://www.w3.org/2000/svg" xmlns:xlink="http://www.w3.org/1999/xlink" fill="none" overflow="hidden"><style>
.MsftOfcThm_Text1_Fill_v2 {
 fill:#000000; 
}
</style>
<path d="M68.9565 17.0232C67.1419 16.0129 64.9339 16.0129 63.1193 17.0232L48.9731 24.8989C48.3683 25.2357 47.6323 25.2357 47.0274 24.8989L33.4723 17.3526C31.3055 16.1463 28.5577 16.2653 26.4889 17.4431 24.0856 18.8112 20.2792 20.9093 16.6547 22.89 14.8305 23.8869 13.8009 25.5988 13.5724 27.3999 13.5294 27.5652 13.5077 27.7353 13.5078 27.9061L13.5078 52.4008C13.5078 55.7883 15.2227 58.9454 18.0642 60.7894L46.8824 79.4903C47.5434 79.9193 48.3948 79.9201 49.0566 79.4924L77.9979 60.7899C80.8486 58.9476 82.5703 55.7851 82.5703 52.391L82.5703 27.9061C82.5703 27.7825 82.5591 27.6615 82.5376 27.544 82.3612 25.6965 81.3433 23.9194 79.4839 22.8842L68.9565 17.0232ZM78.5703 33.8774 49.9711 49.7996 49.9711 74.1389 75.8269 57.4303C77.5373 56.325 78.5703 54.4275 78.5703 52.391L78.5703 33.8774ZM45.9711 49.7671 17.5078 33.9209 17.5078 52.4008C17.5078 54.4333 18.5367 56.3276 20.2417 57.434L45.9711 74.1305 45.9711 49.7671ZM65.0651 20.5181C65.6699 20.1813 66.4059 20.1813 67.0108 20.5181L77.5382 26.379C78.9077 27.1415 78.9077 29.1115 77.5382 29.8739L48.0003 46.3187 18.5525 29.9244C17.1759 29.158 17.1787 27.162 18.573 26.4 22.1974 24.4193 26.0312 22.3064 28.4679 20.9193 29.4093 20.3833 30.667 20.369 31.5267 20.8476L45.0818 28.3938C46.8964 29.404 49.1043 29.404 50.9189 28.3938L65.0651 20.5181Z" class="MsftOfcThm_Text1_Fill_v2" stroke="none" stroke-width="1" stroke-linecap="butt" stroke-linejoin="miter" stroke-miterlimit="4" fill="#000000" fill-rule="evenodd" fill-opacity="1" clip-rule="evenodd"/></svg>