<svg width="96" height="96" viewBox="0 0 96 96" xmlns="http://www.w3.org/2000/svg" xmlns:xlink="http://www.w3.org/1999/xlink" fill="none" overflow="hidden"><style>
.MsftOfcThm_Text1_Fill_v2 {
 fill:#000000; 
}
</style>
<path d="M76 22.3999C79.3137 22.3999 82 25.0862 82 28.3999L82 67.5999C82 70.9136 79.3137 73.5999 76 73.5999L20 73.5999C16.6863 73.5999 14 70.9136 14 67.5999L14 28.3999C14 25.0862 16.6863 22.3999 20 22.3999L76 22.3999ZM86 28.3999C86 22.8771 81.5229 18.3999 76 18.3999L20 18.3999C14.4771 18.3999 10 22.8771 10 28.3999L10 67.5999C10 73.1227 14.4771 77.5999 20 77.5999L76 77.5999C81.5228 77.5999 86 73.1228 86 67.5999L86 28.3999ZM29.4023 31.8001C29.4023 31.1374 29.9396 30.6001 30.6023 30.6001L34.8023 30.6001C35.4651 30.6001 36.0023 31.1374 36.0023 31.8001L36.0023 34.8001C36.0023 35.4628 35.4651 36.0001 34.8023 36.0001L30.6023 36.0001C29.9396 36.0001 29.4023 35.4628 29.4023 34.8001L29.4023 31.8001ZM20.4012 30.6001C19.7384 30.6001 19.2012 31.1374 19.2012 31.8001L19.2012 34.8001C19.2012 35.4628 19.7384 36.0001 20.4012 36.0001L24.6012 36.0001C25.2639 36.0001 25.8012 35.4628 25.8012 34.8001L25.8012 31.8001C25.8012 31.1374 25.2639 30.6001 24.6012 30.6001L20.4012 30.6001ZM29.4023 61.2C29.4023 60.5373 29.9396 60 30.6023 60L34.8023 60C35.4651 60 36.0023 60.5373 36.0023 61.2L36.0023 64.2C36.0023 64.8627 35.4651 65.4 34.8023 65.4L30.6023 65.4C29.9396 65.4 29.4023 64.8627 29.4023 64.2L29.4023 61.2ZM20.4012 60C19.7384 60 19.2012 60.5373 19.2012 61.2L19.2012 64.2C19.2012 64.8627 19.7384 65.4 20.4012 65.4L24.6012 65.4C25.2639 65.4 25.8012 64.8627 25.8012 64.2L25.8012 61.2C25.8012 60.5373 25.2639 60 24.6012 60L20.4012 60ZM39.6016 31.8001C39.6016 31.1374 40.1388 30.6001 40.8016 30.6001L45.0016 30.6001C45.6643 30.6001 46.2016 31.1374 46.2016 31.8001L46.2016 34.8001C46.2016 35.4628 45.6643 36.0001 45.0016 36.0001L40.8016 36.0001C40.1388 36.0001 39.6016 35.4628 39.6016 34.8001L39.6016 31.8001ZM40.8016 60C40.1388 60 39.6016 60.5373 39.6016 61.2L39.6016 64.2C39.6016 64.8627 40.1388 65.4 40.8016 65.4L45.0016 65.4C45.6643 65.4 46.2016 64.8627 46.2016 64.2L46.2016 61.2C46.2016 60.5373 45.6643 60 45.0016 60L40.8016 60ZM49.8008 31.8001C49.8008 31.1374 50.338 30.6001 51.0008 30.6001L55.2008 30.6001C55.8635 30.6001 56.4008 31.1374 56.4008 31.8001L56.4008 34.8001C56.4008 35.4628 55.8635 36.0001 55.2008 36.0001L51.0008 36.0001C50.338 36.0001 49.8008 35.4628 49.8008 34.8001L49.8008 31.8001ZM51.0008 60C50.338 60 49.8008 60.5373 49.8008 61.2L49.8008 64.2C49.8008 64.8627 50.338 65.4 51.0008 65.4L55.2008 65.4C55.8635 65.4 56.4008 64.8627 56.4008 64.2L56.4008 61.2C56.4008 60.5373 55.8635 60 55.2008 60L51.0008 60ZM60 31.8001C60 31.1374 60.5373 30.6001 61.2 30.6001L65.4 30.6001C66.0627 30.6001 66.6 31.1374 66.6 31.8001L66.6 34.8001C66.6 35.4628 66.0627 36.0001 65.4 36.0001L61.2 36.0001C60.5373 36.0001 60 35.4628 60 34.8001L60 31.8001ZM61.2 60C60.5373 60 60 60.5373 60 61.2L60 64.2C60 64.8627 60.5373 65.4 61.2 65.4L65.4 65.4C66.0627 65.4 66.6 64.8627 66.6 64.2L66.6 61.2C66.6 60.5373 66.0627 60 65.4 60L61.2 60ZM70.2012 31.8001C70.2012 31.1374 70.7384 30.6001 71.4012 30.6001L75.6012 30.6001C76.2639 30.6001 76.8012 31.1374 76.8012 31.8001L76.8012 34.8001C76.8012 35.4628 76.2639 36.0001 75.6012 36.0001L71.4012 36.0001C70.7384 36.0001 70.2012 35.4628 70.2012 34.8001L70.2012 31.8001ZM71.4012 60C70.7384 60 70.2012 60.5373 70.2012 61.2L70.2012 64.2C70.2012 64.8627 70.7384 65.4 71.4012 65.4L75.6012 65.4C76.2639 65.4 76.8012 64.8627 76.8012 64.2L76.8012 61.2C76.8012 60.5373 76.2639 60 75.6012 60L71.4012 60Z" class="MsftOfcThm_Text1_Fill_v2" stroke="none" stroke-width="1" stroke-linecap="butt" stroke-linejoin="miter" stroke-miterlimit="4" fill="#000000" fill-rule="evenodd" fill-opacity="1" clip-rule="evenodd"/></svg>