<svg width="96" height="96" viewBox="0 0 96 96" xmlns="http://www.w3.org/2000/svg" xmlns:xlink="http://www.w3.org/1999/xlink" fill="none" overflow="hidden"><style>
.MsftOfcThm_Text1_Fill_v2 {
 fill:#000000; 
}
</style>
<path d="M75.6719 21.8743C75.6719 24.6358 73.4333 26.8743 70.6719 26.8743 68.6062 26.8743 66.8331 25.6217 66.0708 23.8345 65.9395 23.861 65.8059 23.8744 65.6719 23.8743L54.2515 23.8743C51.4901 23.8743 49.2515 26.1129 49.2515 28.8743L49.2515 67.1243C49.2515 69.8858 51.4901 72.1243 54.2515 72.1243L65.6719 72.1243C65.8085 72.1243 65.9419 72.138 66.0708 72.1641 66.8331 70.377 68.6063 69.1243 70.6719 69.1243 73.4334 69.1243 75.6719 71.3629 75.6719 74.1243 75.6719 76.8858 73.4334 79.1243 70.6719 79.1243 68.6063 79.1243 66.8331 77.8717 66.0708 76.0845 65.9395 76.111 65.8059 76.1244 65.6719 76.1243L54.2515 76.1243C49.281 76.1243 45.2515 72.0949 45.2515 67.1243L45.2515 49.9993 29.7857 49.9993C29.6491 49.9993 29.5157 49.9856 29.3868 49.9595 28.6245 51.7467 26.8514 52.9993 24.7857 52.9993 22.0243 52.9993 19.7857 50.7608 19.7857 47.9993 19.7857 45.2379 22.0243 42.9993 24.7857 42.9993 26.8514 42.9993 28.6245 44.252 29.3868 46.0391 29.5157 46.013 29.6491 45.9993 29.7857 45.9993L45.2515 45.9993 45.2515 28.8743C45.2515 23.9038 49.281 19.8743 54.2515 19.8743L65.6719 19.8743C65.8085 19.8743 65.9419 19.888 66.0708 19.9141 66.8331 18.127 68.6062 16.8743 70.6719 16.8743 73.4333 16.8743 75.6719 19.1129 75.6719 21.8743Z" class="MsftOfcThm_Text1_Fill_v2" stroke="none" stroke-width="1" stroke-linecap="butt" stroke-linejoin="miter" stroke-miterlimit="4" fill="#000000" fill-rule="evenodd" fill-opacity="1" clip-rule="evenodd"/></svg>