<svg width="96" height="96" viewBox="0 0 96 96" xmlns="http://www.w3.org/2000/svg" xmlns:xlink="http://www.w3.org/1999/xlink" fill="none" overflow="hidden"><style>
.MsftOfcThm_Text1_Fill_v2 {
 fill:#000000; 
}
</style>
<path d="M20.25 40.4741 75.75 40.4741 75.75 43.7866 20.25 43.7866 20.25 40.4741ZM74.4847 36.4741 75.75 36.4741C77.9591 36.4741 79.75 38.265 79.75 40.4741L79.75 43.7866C79.75 45.9958 77.9591 47.7866 75.75 47.7866L75.4551 47.7866 72.9688 70.8329C72.421 75.9111 68.1342 79.7603 63.0265 79.7603L33.0056 79.7603C27.9028 79.7603 23.6185 75.9183 23.0647 70.8456L20.5472 47.7866 20.25 47.7866C18.0409 47.7866 16.25 45.9958 16.25 43.7866L16.25 40.4741C16.25 38.265 18.0409 36.4741 20.25 36.4741L21.5153 36.4741 41.1639 16.8255C41.945 16.0445 43.2113 16.0445 43.9923 16.8255 44.7734 17.6066 44.7734 18.8729 43.9923 19.654L27.1722 36.4741 68.8278 36.4741 52.0077 19.654C51.2266 18.8729 51.2266 17.6066 52.0077 16.8255 52.7887 16.0445 54.055 16.0445 54.8361 16.8255L74.4847 36.4741ZM24.5736 47.8109C25.6098 47.8094 26.9723 47.8075 28.5851 47.8055 32.4071 47.8006 37.6349 47.7948 43.2579 47.7909 53.3152 47.784 64.6303 47.7833 71.4298 47.8054L68.9919 70.4039C68.6632 73.4508 66.0912 75.7603 63.0265 75.7603L33.0056 75.7603C29.9439 75.7603 27.3734 73.4551 27.0411 70.4115L24.5736 47.8109Z" class="MsftOfcThm_Text1_Fill_v2" stroke="none" stroke-width="1" stroke-linecap="butt" stroke-linejoin="miter" stroke-miterlimit="4" fill="#000000" fill-rule="evenodd" fill-opacity="1" clip-rule="evenodd"/></svg>