<svg width="96" height="96" viewBox="0 0 96 96" xmlns="http://www.w3.org/2000/svg" xmlns:xlink="http://www.w3.org/1999/xlink" fill="none" overflow="hidden"><style>
.MsftOfcThm_Text1_Fill_v2 {
 fill:#000000; 
}
</style>
<path d="M36.7956 19.4878C38.9649 15.5394 43.1658 12.8406 48 12.8406 52.8342 12.8406 57.0351 15.5394 59.2044 19.4878 59.4728 19.9709 59.9966 20.1942 60.5374 20.0476 62.234 19.5877 63.9137 19.4863 65.7052 19.7491 71.2357 20.5477 75.688 24.978 76.4964 30.5137L76.497 30.5183C76.7503 32.2814 76.6394 33.9922 76.2316 35.5926 76.0992 36.1125 76.334 36.6476 76.7589 36.8879L76.7592 36.8881C80.6319 39.0792 83.25 43.2334 83.25 48.0045 83.25 52.7805 80.6014 56.9601 76.7122 59.1491L76.7085 59.1512C76.2338 59.417 76.0078 59.9401 76.1597 60.4935 76.6815 62.3482 76.791 64.3706 76.3756 66.4491 75.3829 71.4505 71.3978 75.4476 66.3917 76.4406 64.3063 76.8555 62.2648 76.747 60.3966 76.2142 59.8656 76.0668 59.3469 76.28 59.0727 76.7542L59.0724 76.7548C56.864 80.5711 52.7427 83.1598 48 83.1598 43.2573 83.1598 39.136 80.5711 36.9276 76.7548L36.9273 76.7542C36.6531 76.28 36.1344 76.0668 35.6034 76.2142 33.7352 76.747 31.6937 76.8555 29.6083 76.4406 24.6022 75.4476 20.6171 71.4505 19.6244 66.4491 19.209 64.3706 19.3185 62.3482 19.8403 60.4935 19.9922 59.9401 19.7662 59.417 19.2915 59.1512L19.2878 59.1491C15.3986 56.9601 12.75 52.7805 12.75 48.0045 12.75 43.2334 15.3682 39.0792 19.2408 36.8881L19.2411 36.8879C19.666 36.6476 19.9008 36.1125 19.7684 35.5926 19.3606 33.9922 19.2497 32.2814 19.503 30.5183L19.5036 30.5137C20.312 24.978 24.7643 20.5477 30.2948 19.7491 32.0863 19.4863 33.766 19.5877 35.4626 20.0476 36.0034 20.1942 36.5272 19.9709 36.7956 19.4878ZM40.2999 21.4165C41.7989 18.686 44.6911 16.8406 48 16.8406 51.3089 16.8406 54.2011 18.686 55.7001 21.4165L55.7033 21.4224C56.8644 23.5207 59.2671 24.5363 61.5839 23.9083 62.7449 23.5936 63.871 23.5226 65.1264 23.707L65.1317 23.7078C68.9146 24.2532 71.9852 27.3115 72.538 31.0892 72.7147 32.3214 72.6363 33.5028 72.3554 34.6051 71.7991 36.7885 72.7178 39.1977 74.7895 40.3695 77.4601 41.8805 79.25 44.7344 79.25 48.0045 79.25 51.2699 77.4389 54.1501 74.7503 55.6632 72.6457 56.8441 71.6678 59.2624 72.3059 61.5648L72.3082 61.5732C72.6632 62.8332 72.7426 64.2176 72.4529 65.6665L72.4523 65.6696C71.7742 69.0877 69.0269 71.8399 65.6134 72.5171L65.6121 72.5173C64.153 72.8077 62.7532 72.7274 61.4896 72.3664L61.4803 72.3638C59.1887 71.721 56.7992 72.6958 55.6103 74.7513 54.0821 77.3921 51.2469 79.1598 48 79.1598 44.7531 79.1598 41.9179 77.3921 40.3897 74.7513 39.2008 72.6958 36.8113 71.721 34.5197 72.3638L34.5104 72.3664C33.2468 72.7274 31.847 72.8077 30.3879 72.5173L30.3866 72.5171C26.9731 71.8399 24.2258 69.0877 23.5477 65.6696L23.5471 65.6665C23.2574 64.2176 23.3368 62.8332 23.6918 61.5732L23.6941 61.5648C24.3322 59.2624 23.3543 56.8441 21.2497 55.6632 18.5611 54.1501 16.75 51.2699 16.75 48.0045 16.75 44.7344 18.5399 41.8805 21.2105 40.3695 23.2822 39.1977 24.2009 36.7885 23.6446 34.6051 23.3637 33.5028 23.2853 32.3214 23.462 31.0892 24.0148 27.3115 27.0854 24.2532 30.8683 23.7078L30.8736 23.707C32.129 23.5226 33.2552 23.5936 34.4161 23.9083 36.7329 24.5363 39.1356 23.5207 40.2967 21.4224L40.2999 21.4165ZM63.7848 40.6389C64.6011 39.8948 64.6597 38.6298 63.9157 37.8135 63.1716 36.9971 61.9067 36.9385 61.0903 37.6825L57.9133 40.5782 54.8007 43.4151 54.7475 43.4635 54.6942 43.5121 54.6409 43.5607 54.5874 43.6095 54.3726 43.8053 53.9387 44.2007 53.8294 44.3003 53.7198 44.4002 53.6099 44.5003 53.5549 44.5505 53.4998 44.6007 53.4447 44.651 53.3894 44.7013 53.3342 44.7517 53.2788 44.8021 53.0569 45.0044 52.8342 45.2074 52.7226 45.3091 52.6108 45.411 52.4989 45.513 52.4429 45.564 52.3868 45.6151 52.2746 45.7174 52.1624 45.8197 51.7124 46.2298 51.6561 46.2811 51.5998 46.3324 51.5435 46.3837 51.4872 46.4351 51.2619 46.6404 49.471 48.2727 48.5943 49.0717 48.5402 49.121 48.4861 49.1703 48.3783 49.2686 48.2708 49.3666 48.1637 49.4642 48.057 49.5614 48.0038 49.6099 47.9507 49.6583 47.8978 49.7066 47.8449 49.7548 47.7921 49.8029 47.7394 49.8509 47.6869 49.8988 47.6344 49.9466 47.5821 49.9943 47.5299 50.0418 47.4259 50.1367 47.3223 50.2311 47.2707 50.2781 47.2192 50.325 47.1167 50.4185 47.0147 50.5115 46.9132 50.6039 46.7119 50.7874 46.6122 50.8783 46.513 50.9687 46.4636 51.0137 46.4144 51.0585 46.3654 51.1032 46.3165 51.1478 46.2678 51.1922 46.2192 51.2365 46.1708 51.2806 46.1225 51.3246 45.7427 51.6707 45.3744 52.0065 45.3292 52.0477 45.2842 52.0887 45.2394 52.1295 45.1948 52.1702 45.0184 52.3309 44.9314 52.4102 44.8883 52.4495 44.8453 52.4887 44.6756 52.6433 43.0564 54.1191 34.9265 46.5373C34.1187 45.784 32.8531 45.8282 32.0998 46.636 31.3464 47.4438 31.3906 48.7093 32.1984 49.4627L41.6769 58.302C42.4387 59.0124 43.6182 59.0192 44.3881 58.3175L43.0409 56.8393C44.3881 58.3175 44.3882 58.3174 44.3884 58.3173L44.389 58.3167 44.3916 58.3143 44.3935 58.3126 44.3959 58.3104 44.4019 58.3049 44.419 58.2893 44.4244 58.2845 44.4301 58.2792 44.4428 58.2677 44.4571 58.2546C44.5289 58.1892 44.4008 58.306 44.4731 58.2401L44.5098 58.2066 44.5306 58.1877 44.5415 58.1777 44.5529 58.1673 44.6022 58.1224 44.8593 57.888 45.2074 57.5708 45.6394 57.1771 45.7597 57.0674 45.8216 57.011 45.853 56.9824 45.8847 56.9535 45.9489 56.8949 45.9815 56.8653 46.0143 56.8353 46.0808 56.7747 46.1484 56.7131 46.1827 56.6819 46.2171 56.6505 46.2869 56.5869 46.4297 56.4567 46.7276 56.1852 46.8826 56.044 46.9219 56.0081 46.9615 55.972 47.0013 55.9357 47.0414 55.8992 47.0817 55.8625 47.1222 55.8256 47.1629 55.7884 47.2039 55.7511 47.2866 55.6758 47.3701 55.5997 47.4545 55.5227 47.497 55.484 47.5398 55.445 47.5827 55.4058 47.6259 55.3665 47.7129 55.2872 47.7567 55.2473 47.8007 55.2072 47.8893 55.1265 48.0688 54.9628 48.4372 54.6271 48.817 54.2809 49.011 54.1041 49.2075 53.925 49.257 53.8799 49.3066 53.8346 49.4064 53.7437 49.6077 53.5603 49.6583 53.5141 49.7091 53.4678 49.7601 53.4213 49.8112 53.3748 49.9137 53.2813 49.9652 53.2344 50.0168 53.1874 50.4339 52.8072 50.6452 52.6146 50.7515 52.5177 50.8582 52.4205 50.9117 52.3717 50.9653 52.3229 51.019 52.2739 51.0728 52.2249 51.1266 52.1758 51.1806 52.1266 51.2347 52.0774 51.2888 52.028 51.3973 51.9291 51.4517 51.8795 51.5062 51.8299 51.7248 51.6306 51.8346 51.5306 51.8896 51.4805 51.9446 51.4303 51.9998 51.38 52.0549 51.3298 52.1102 51.2794 52.1655 51.229 53.9564 49.5967 54.1817 49.3914 54.2943 49.2887 54.3506 49.2374 54.4069 49.1861 54.5195 49.0835 54.5758 49.0322 54.632 48.9809 54.6882 48.9297 54.7445 48.8784 54.8007 48.8272 54.8568 48.776 54.913 48.7248 54.9691 48.6737 55.0813 48.5714 55.3053 48.3673 55.5287 48.1637 55.7514 47.9607 55.8624 47.8595 55.9733 47.7585 56.0286 47.708 56.0839 47.6576 56.1391 47.6073 56.1943 47.557 56.6331 47.1571 57.4951 46.3714 57.7067 46.1785 57.7594 46.1306 57.8119 46.0827 57.9166 45.9873 58.1245 45.7977 58.3305 45.61 58.3817 45.5634 58.4327 45.5169 58.5344 45.4242 58.585 45.3781 58.6355 45.332 58.6859 45.2861 58.7361 45.2404 59.1324 44.8792 59.2299 44.7903 59.2784 44.7461 59.3268 44.702 59.375 44.6581 59.423 44.6143 59.4708 44.5707 59.5185 44.5272 59.566 44.4839 59.6134 44.4408 59.7076 44.3549 59.801 44.2698 59.8475 44.2274 59.8937 44.1853 60.2571 43.8541 60.346 43.7731 60.3901 43.7328 60.434 43.6928 60.4778 43.6529 60.5213 43.6133 60.5646 43.5738 60.6077 43.5345 63.7848 40.6389Z" class="MsftOfcThm_Text1_Fill_v2" stroke="none" stroke-width="1" stroke-linecap="butt" stroke-linejoin="miter" stroke-miterlimit="4" fill="#000000" fill-rule="evenodd" fill-opacity="1" clip-rule="evenodd"/></svg>