<svg width="96" height="96" viewBox="0 0 96 96" xmlns="http://www.w3.org/2000/svg" xmlns:xlink="http://www.w3.org/1999/xlink" fill="none" overflow="hidden"><style>
.MsftOfcThm_Text1_Fill_v2 {
 fill:#000000; 
}
</style>
<path d="M37.6419 16C33.3988 16 30 19.4747 30 23.7101 30 27.4471 32.5733 31.0426 36.462 31.5616L36.462 41.8438C32.7115 42.3012 30 45.3866 30 49.2899 30 53.5253 33.3988 57 37.6419 57L46 57 46 80C46 81.1046 46.8954 82 48 82 49.1046 82 50 81.1046 50 80L50 57 58.3581 57C62.6012 57 66 53.5253 66 49.2899 66 45.5529 63.4266 41.9573 59.538 41.4383L59.538 31.1562C63.2885 30.6989 66 27.6134 66 23.7101 66 19.4747 62.6012 16 58.3581 16L37.6419 16ZM34 23.7101C34 21.6383 35.6531 20 37.6419 20L58.3581 20C60.3468 20 62 21.6384 62 23.7101 62 25.784 60.5521 27.2148 58.5654 27.2148L57.538 27.2148C56.4334 27.2148 55.538 28.1102 55.538 29.2148L55.538 43.3743C55.538 44.4789 56.4334 45.3743 57.538 45.3743L58.5654 45.3743C60.3709 45.3743 62 47.0231 62 49.2899 62 51.3617 60.3468 53 58.3581 53L37.6419 53C35.6531 53 34 51.3616 34 49.2899 34 47.216 35.4479 45.7852 37.4347 45.7852L38.462 45.7852C39.5665 45.7852 40.462 44.8898 40.462 43.7852L40.462 29.6257C40.462 28.5211 39.5665 27.6257 38.462 27.6257L37.4347 27.6257C35.6291 27.6257 34 25.9769 34 23.7101Z" class="MsftOfcThm_Text1_Fill_v2" stroke="none" stroke-width="1" stroke-linecap="butt" stroke-linejoin="miter" stroke-miterlimit="4" fill="#000000" fill-rule="evenodd" fill-opacity="1" clip-rule="evenodd"/></svg>