<svg width="160" height="160" viewBox="0 0 160 160" xmlns="http://www.w3.org/2000/svg" xmlns:xlink="http://www.w3.org/1999/xlink" fill="none" overflow="hidden"><style>
.MsftOfcThm_Text1_Fill_v2 {
 fill:#000000; 
}
</style>
<path d="M83.985 29.894C89.245 24.679 98.185 28.404 98.185 35.812L98.185 124.274C98.185 131.66 89.286 135.395 84.015 130.221L64.556 111.122C63.9329 110.51 63.0944 110.167 62.221 110.167L48.237 110.167C42.714 110.167 38.237 105.69 38.237 100.167L38.237 60.13C38.237 54.608 42.714 50.13 48.237 50.13L62.202 50.13C63.081 50.13 63.924 49.783 64.549 49.164L83.985 29.894ZM91.519 35.812C91.519 34.331 89.73 33.585 88.679 34.628L69.243 53.898 69.175 53.965 69.175 106.314 69.226 106.364 88.684 125.463C89.739 126.498 91.519 125.751 91.519 124.274L91.519 35.812ZM62.509 103.505 62.509 56.793C62.406 56.796 62.304 56.797 62.202 56.797L48.237 56.797C46.3962 56.797 44.904 58.2892 44.904 60.13 44.904 60.1303 44.904 60.1307 44.904 60.131L44.904 100.167C44.904 102.008 46.3961 103.5 48.237 103.501L62.221 103.501C62.317 103.501 62.413 103.502 62.508 103.505ZM105.809 57.995C106.917 56.5246 109.006 56.23 110.477 57.337 117.326 62.491 121.766 70.7 121.766 79.945 121.766 89.265 117.253 97.532 110.308 102.678 108.854 103.807 106.759 103.544 105.63 102.089 104.501 100.635 104.764 98.5407 106.218 97.4114 106.258 97.3807 106.298 97.3509 106.339 97.322 111.66 93.379 115.099 87.064 115.099 79.945 115.099 72.883 111.716 66.613 106.468 62.664 104.997 61.5573 104.702 59.4678 105.808 57.9968 105.809 57.9965 105.809 57.9963 105.809 57.996Z" class="MsftOfcThm_Text1_Fill_v2" stroke="none" stroke-width="1" stroke-linecap="butt" stroke-linejoin="miter" stroke-miterlimit="4" fill="#000000" fill-rule="evenodd" fill-opacity="1" clip-rule="evenodd"/></svg>