<svg width="96" height="96" viewBox="0 0 96 96" xmlns="http://www.w3.org/2000/svg" xmlns:xlink="http://www.w3.org/1999/xlink" fill="none" overflow="hidden"><style>
.MsftOfcThm_Text1_Fill_v2 {
 fill:#000000; 
}
</style>
<path d="M48.0089 17.2188C46.5683 17.2188 45.1629 17.3659 43.8054 17.6457 42.7236 17.8687 41.6658 17.1726 41.4428 16.0907 41.2197 15.0089 41.9159 13.9511 42.9978 13.7281 44.6191 13.3938 46.2951 13.2188 48.0089 13.2188 49.7227 13.2188 51.3987 13.3938 53.0201 13.7281 54.1019 13.9511 54.7981 15.0089 54.575 16.0907 54.352 17.1726 53.2942 17.8688 52.2124 17.6457 50.8549 17.3659 49.4495 17.2188 48.0089 17.2188ZM36.5821 18.1922C37.2138 19.0982 36.9915 20.3449 36.0854 20.9766 33.7728 22.5892 31.7809 24.6595 30.2351 27.0633 29.6377 27.9924 28.4002 28.2612 27.4712 27.6638 26.5421 27.0664 26.2733 25.8289 26.8707 24.8998 28.6961 22.0611 31.0523 19.6098 33.7976 17.6955 34.7036 17.0638 35.9503 17.2861 36.5821 18.1922ZM59.4357 18.1922C60.0675 17.2861 61.3142 17.0638 62.2202 17.6955 64.9655 19.6098 67.3217 22.0611 69.1471 24.8998 69.7445 25.8289 69.4757 27.0664 68.5466 27.6638 67.6176 28.2612 66.3801 27.9924 65.7827 27.0633 64.2369 24.6595 62.245 22.5892 59.9324 20.9766 59.0263 20.3449 58.804 19.0982 59.4357 18.1922ZM25.5129 32.5817C26.598 32.7879 27.3105 33.8348 27.1043 34.9199 26.8439 36.2899 26.7071 37.707 26.7071 39.1589 26.7071 40.0445 26.7581 40.9173 26.8571 41.7742 26.9839 42.8715 26.1972 43.8638 25.0999 43.9906 24.0026 44.1173 23.0104 43.3306 22.8836 42.2333 22.767 41.2242 22.7071 40.1982 22.7071 39.1589 22.7071 37.4553 22.8677 35.7882 23.1746 34.1731 23.3808 33.088 24.4277 32.3755 25.5129 32.5817ZM70.5049 32.5817C71.5901 32.3755 72.6369 33.088 72.8432 34.1731 73.1501 35.7882 73.3107 37.4553 73.3107 39.1589 73.3107 40.2045 73.2503 41.2364 73.1327 42.2511 73.0055 43.3483 72.0129 44.1346 70.9157 44.0074 69.8184 43.8802 69.0321 42.8877 69.1593 41.7904 69.2592 40.9286 69.3107 40.0505 69.3107 39.1589 69.3107 37.707 69.1739 36.2899 68.9135 34.92 68.7073 33.8348 69.4198 32.7879 70.5049 32.5817ZM25.4934 45.6613C26.5309 45.2824 27.6792 45.8164 28.0581 46.8539 28.3569 47.6724 28.7042 48.4724 29.098 49.2496 29.4878 50.0188 29.3406 50.9513 28.7329 51.5631 28.0004 52.3005 27.205 53.1321 26.3786 54.0483 25.6388 54.8685 24.3741 54.9337 23.5539 54.1938 22.7337 53.454 22.6686 52.1894 23.4084 51.3692 23.9243 50.7973 24.4281 50.2572 24.9129 49.751 24.6928 49.2492 24.4887 48.7407 24.3008 48.226 23.9219 47.1885 24.4558 46.0402 25.4934 45.6613ZM70.5127 45.7111C71.5496 46.0917 72.0817 47.2408 71.7011 48.2777 71.5309 48.7413 71.3481 49.1986 71.1531 49.6492 71.6948 50.1082 72.2239 50.5828 72.7399 51.0725 73.5411 51.8329 73.5742 53.0988 72.8138 53.9 72.0535 54.7012 70.7876 54.7343 69.9864 53.9739 69.1758 53.2046 68.3296 52.4775 67.4511 51.7958 66.6928 51.2073 66.4595 50.1632 66.8951 49.3079 67.293 48.5267 67.6439 47.7224 67.946 46.8994 68.3266 45.8625 69.4757 45.3305 70.5127 45.7111ZM74.838 56.238C75.7384 55.598 76.987 55.8091 77.6269 56.7094 79.0557 58.7197 80.3051 60.88 81.3502 63.1638 81.8098 64.1682 81.3681 65.3551 80.3637 65.8147 79.3593 66.2743 78.1725 65.8326 77.7129 64.8282 76.7726 62.7733 75.6494 60.8317 74.3665 59.0268 73.7266 58.1265 73.9377 56.8779 74.838 56.238ZM21.6353 56.5534C22.5335 57.1964 22.7403 58.4457 22.0973 59.3438 20.8239 61.1225 19.6108 63.0476 18.565 65.0851 18.0606 66.0677 16.8551 66.4554 15.8724 65.951 14.8897 65.4466 14.502 64.2411 15.0064 63.2584 16.157 61.017 17.4783 58.9241 18.8449 57.0154 19.4879 56.1172 20.7372 55.9104 21.6353 56.5534ZM81.3828 68.7339C82.4547 68.4673 83.5398 69.12 83.8065 70.1919 84.1062 71.3972 84.3507 72.6156 84.5393 73.8432 84.7071 74.9349 83.9581 75.956 82.8664 76.1238 81.7746 76.2916 80.7536 75.5426 80.5857 74.4509 80.4156 73.3436 80.1951 72.2447 79.9248 71.1576 79.6581 70.0857 80.3109 69.0006 81.3828 68.7339ZM14.7244 68.7747C15.7877 69.0739 16.4071 70.1784 16.108 71.2417 15.8122 72.2928 15.5779 73.3589 15.4151 74.4367 15.2502 75.5289 14.2311 76.2806 13.1389 76.1157 12.0467 75.9508 11.295 74.9317 11.4599 73.8395 11.6492 72.5862 11.92 71.3577 12.2575 70.1583 12.5566 69.0951 13.6611 68.4756 14.7244 68.7747ZM48.0002 29.832C43.2338 29.832 39.1573 33.9874 39.1573 39.384 39.1573 44.7806 43.2338 48.9359 48.0002 48.9359 52.7665 48.9359 56.8431 44.7806 56.8431 39.384 56.8431 33.9874 52.7665 29.832 48.0002 29.832ZM35.1573 39.384C35.1573 32.0207 40.7898 25.832 48.0002 25.832 55.2106 25.832 60.8431 32.0207 60.8431 39.384 60.8431 46.7473 55.2106 52.9359 48.0002 52.9359 40.7898 52.9359 35.1573 46.7473 35.1573 39.384ZM28.481 74.5618C30.1176 65.285 38.3045 58.1523 48.0009 58.1523 57.696 58.1523 65.8832 65.2915 67.5205 74.5605 67.6499 75.3069 67.0816 75.9686 66.3498 75.9686L29.6519 75.9686C28.9131 75.9686 28.3494 75.2942 28.4799 74.5679L28.481 74.5618ZM48.0009 54.1523C36.3204 54.1523 26.5097 62.7208 24.5423 73.8638 23.9734 77.0421 26.4222 79.9686 29.6519 79.9686L66.3498 79.9686C69.5869 79.9686 72.0154 77.0446 71.4605 73.87L71.4599 73.8666C69.4937 62.7309 59.6831 54.1523 48.0009 54.1523Z" class="MsftOfcThm_Text1_Fill_v2" stroke="none" stroke-width="1" stroke-linecap="butt" stroke-linejoin="miter" stroke-miterlimit="4" fill="#000000" fill-rule="evenodd" fill-opacity="1" clip-rule="evenodd"/></svg>