<svg width="96" height="96" viewBox="0 0 96 96" xmlns="http://www.w3.org/2000/svg" xmlns:xlink="http://www.w3.org/1999/xlink" fill="none" overflow="hidden"><style>
.MsftOfcThm_Text1_Fill_v2 {
 fill:#000000; 
}
</style>
<path d="M15 22.6672C15 21.1391 16.1887 20 17.5339 20L33.9409 20C34.6878 20 35.4126 20.349 35.9021 20.9789L42.9128 30 15 30 15 22.6672ZM11 30 11 22.6672C11 19.0401 13.8711 16 17.5339 16L33.9409 16C35.9486 16 37.8292 16.94 39.0605 18.5244L37.7276 19.5602 39.0605 18.5244 47.9787 30 74.0246 30C80.0923 30 85 34.947 85 41.0207L85 68.9793C85 75.053 80.0923 80 74.0246 80L21.9754 80C15.9077 80 11 75.053 11 68.9793L11 34 11 32 11 30ZM15 34 15 68.9793C15 72.8629 18.1358 76 21.9754 76L74.0246 76C77.8642 76 81 72.8629 81 68.9793L81 41.0207C81 37.1371 77.8642 34 74.0246 34L51.0872 34 47 34 15 34Z" class="MsftOfcThm_Text1_Fill_v2" stroke="none" stroke-width="1" stroke-linecap="butt" stroke-linejoin="miter" stroke-miterlimit="4" fill="#000000" fill-rule="evenodd" fill-opacity="1" clip-rule="evenodd"/></svg>