<svg width="96" height="96" viewBox="0 0 96 96" xmlns="http://www.w3.org/2000/svg" xmlns:xlink="http://www.w3.org/1999/xlink" fill="none" overflow="hidden"><style>
.MsftOfcThm_Text1_Fill_v2 {
 fill:#000000; 
}
</style>
<path d="M38 20C34.6846 20 32 22.6846 32 26L32 28 64 28 64 26C64 22.6846 61.3154 20 58 20L38 20ZM28 26 28 28 22 28C16.4772 28 12 32.4772 12 38L12 70C12 75.5228 16.4772 80 22 80L74 80C79.5229 80 84 75.5228 84 70L84 38C84 32.4772 79.5229 28 74 28L68 28 68 26C68 20.4754 63.5246 16 58 16L38 16C32.4754 16 28 20.4754 28 26ZM22 32C18.6863 32 16 34.6863 16 38L16 52 28 52 28 50C28 48.8954 28.8954 48 30 48 31.1046 48 32 48.8954 32 50L32 52 64 52 64 50C64 48.8954 64.8954 48 66 48 67.1046 48 68 48.8954 68 50L68 52 80 52 80 38C80 34.6863 77.3137 32 74 32L22 32ZM64 56 64 58C64 59.1046 64.8954 60 66 60 67.1046 60 68 59.1046 68 58L68 56 80 56 80 70C80 73.3137 77.3137 76 74 76L22 76C18.6863 76 16 73.3137 16 70L16 56 28 56 28 58C28 59.1046 28.8954 60 30 60 31.1046 60 32 59.1046 32 58L32 56 64 56Z" class="MsftOfcThm_Text1_Fill_v2" stroke="none" stroke-width="1" stroke-linecap="butt" stroke-linejoin="miter" stroke-miterlimit="4" fill="#000000" fill-rule="evenodd" fill-opacity="1" clip-rule="evenodd"/></svg>