<svg width="96" height="96" viewBox="0 0 96 96" xmlns="http://www.w3.org/2000/svg" xmlns:xlink="http://www.w3.org/1999/xlink" fill="none" overflow="hidden"><style>
.MsftOfcThm_Text1_Fill_v2 {
 fill:#000000; 
}
</style>
<path d="M74.1653 42.0759C80.6116 35.6532 80.6115 25.2368 74.1652 18.814 67.723 12.3953 57.281 12.3953 50.8387 18.814L24.1655 45.3897C23.383 46.1693 23.3807 47.4357 24.1603 48.2182 24.9399 49.0006 26.2062 49.003 26.9887 48.2233L53.662 21.6476C58.5433 16.7841 66.4606 16.7841 71.342 21.6476L72.7536 20.2308 71.342 21.6476C76.2193 26.5071 76.2193 34.3828 71.342 39.2423L72.7537 40.6591 71.342 39.2423 34.8118 75.6389C31.6521 78.787 26.5263 78.787 23.3667 75.6389 20.2111 72.4949 20.2111 67.4005 23.3667 64.2564L56.1102 31.6327C57.5129 30.2352 59.79 30.2352 61.1927 31.6327 62.5913 33.0262 62.5913 35.2825 61.1927 36.6759L38.3062 59.4787C37.5237 60.2583 37.5214 61.5247 38.301 62.3071 39.0806 63.0896 40.347 63.0919 41.1294 62.3123L64.016 39.5095C66.9836 36.5528 66.9835 31.7558 64.0159 28.7991 61.0524 25.8464 56.2505 25.8464 53.287 28.7991L20.5434 61.4228C15.8189 66.1301 15.8189 73.7653 20.5435 78.4725 25.264 83.1758 32.9145 83.1758 37.635 78.4725L74.1653 42.0759Z" class="MsftOfcThm_Text1_Fill_v2" stroke="none" stroke-width="1" stroke-linecap="butt" stroke-linejoin="miter" stroke-miterlimit="4" fill="#000000" fill-rule="evenodd" fill-opacity="1" clip-rule="evenodd"/></svg>