<svg width="96" height="96" viewBox="0 0 96 96" xmlns="http://www.w3.org/2000/svg" xmlns:xlink="http://www.w3.org/1999/xlink" fill="none" overflow="hidden"><style>
.MsftOfcThm_Text1_Fill_v2 {
 fill:#000000; 
}
</style>
<path d="M47.9053 13.0952C49.0098 13.0952 49.9053 13.9906 49.9053 15.0952L49.9053 18.5726C49.9053 19.6771 49.0098 20.5726 47.9053 20.5726 46.8007 20.5726 45.9053 19.6771 45.9053 18.5726L45.9053 15.0952C45.9053 13.9906 46.8007 13.0952 47.9053 13.0952ZM49.7695 32.4863C48.665 32.4863 47.7695 33.3818 47.7695 34.4863 47.7695 35.5909 48.665 36.4863 49.7695 36.4863 53.2168 36.4863 55.7986 39.088 55.7986 42.0418 55.7986 43.1463 56.6941 44.0418 57.7986 44.0418 58.9032 44.0418 59.7986 43.1463 59.7986 42.0418 59.7986 36.6545 55.1947 32.4863 49.7695 32.4863ZM42.3715 71.4331 42.3715 75.2094C42.3715 75.3809 42.5105 75.5199 42.682 75.5199L53.0794 75.5199C53.2509 75.5199 53.39 75.3809 53.39 75.2094L53.39 71.4331 42.3715 71.4331ZM53.39 67.4331 53.39 63.7917C53.39 60.7657 55.1728 58.2928 57.2057 56.7027 60.854 53.8492 63.2097 49.3628 63.2097 44.306 63.2097 35.6493 56.3157 28.6882 47.8807 28.6882 39.4458 28.6882 32.5518 35.6493 32.5518 44.306 32.5518 49.3628 34.9075 53.8492 38.5557 56.7027 40.5886 58.2928 42.3715 60.7657 42.3715 63.7917L42.3715 67.4331 53.39 67.4331ZM57.39 69.3767 57.39 63.7917C57.39 62.407 58.2289 60.9807 59.6701 59.8534 64.2579 56.265 67.2097 50.6305 67.2097 44.306 67.2097 33.5027 58.5869 24.6882 47.8807 24.6882 37.1746 24.6882 28.5518 33.5027 28.5518 44.306 28.5518 50.6305 31.5036 56.265 36.0914 59.8534 37.5326 60.9807 38.3715 62.407 38.3715 63.7917L38.3715 75.2094C38.3715 77.59 40.3014 79.5199 42.682 79.5199L53.0794 79.5199C55.4601 79.5199 57.39 77.59 57.39 75.2094L57.39 69.4896C57.3905 69.4708 57.3907 69.452 57.3907 69.4331 57.3907 69.4142 57.3905 69.3954 57.39 69.3767ZM17 44.0058C17 42.9012 17.8954 42.0058 19 42.0058L22.4716 42.0058C23.5761 42.0058 24.4716 42.9012 24.4716 44.0058 24.4716 45.1103 23.5761 46.0058 22.4716 46.0058L19 46.0058C17.8954 46.0058 17 45.1103 17 44.0058ZM73.3377 42.0058C72.2331 42.0058 71.3377 42.9012 71.3377 44.0058 71.3377 45.1103 72.2331 46.0058 73.3377 46.0058L76.8092 46.0058C77.9138 46.0058 78.8092 45.1103 78.8092 44.0058 78.8092 42.9012 77.9138 42.0058 76.8092 42.0058L73.3377 42.0058ZM69.7618 24.9776C70.5429 24.1966 70.5429 22.9303 69.7618 22.1492 68.9808 21.3682 67.7144 21.3682 66.9334 22.1492L64.4727 24.6099C63.6916 25.391 63.6916 26.6573 64.4727 27.4383 65.2537 28.2194 66.52 28.2194 67.3011 27.4383L69.7618 24.9776ZM26.0487 22.1493C26.8297 21.3682 28.0961 21.3682 28.8771 22.1493L31.3378 24.61C32.1189 25.391 32.1189 26.6574 31.3378 27.4384 30.5568 28.2195 29.2904 28.2195 28.5094 27.4384L26.0487 24.9777C25.2676 24.1966 25.2676 22.9303 26.0487 22.1493Z" class="MsftOfcThm_Text1_Fill_v2" stroke="none" stroke-width="1" stroke-linecap="butt" stroke-linejoin="miter" stroke-miterlimit="4" fill="#000000" fill-rule="evenodd" fill-opacity="1" clip-rule="evenodd"/></svg>