<svg width="96" height="96" viewBox="0 0 96 96" xmlns="http://www.w3.org/2000/svg" xmlns:xlink="http://www.w3.org/1999/xlink" fill="none" overflow="hidden"><style>
.MsftOfcThm_Text1_Fill_v2 {
 fill:#000000; 
}
</style>
<path d="M43.6943 18.25C43.6943 17.1454 42.7989 16.25 41.6943 16.25 40.5898 16.25 39.6943 17.1454 39.6943 18.25L39.6943 29.0168C39.6943 30.1214 40.5898 31.0168 41.6943 31.0168 42.7989 31.0168 43.6943 30.1214 43.6943 29.0168L43.6943 18.25ZM20.0665 21.5579C18.962 21.5579 18.0665 22.4533 18.0665 23.5579 18.0665 24.6624 18.962 25.5579 20.0665 25.5579L30.8333 25.5579C31.9379 25.5579 32.8333 24.6624 32.8333 23.5579 32.8333 22.4533 31.9379 21.5579 30.8333 21.5579L20.0665 21.5579ZM20.0665 54.1221C18.962 54.1221 18.0665 55.0175 18.0665 56.1221 18.0665 57.2266 18.962 58.1221 20.0665 58.1221L30.8333 58.1221C31.9379 58.1221 32.8333 57.2266 32.8333 56.1221 32.8333 55.0175 31.9379 54.1221 30.8333 54.1221L20.0665 54.1221ZM30.6779 39.7842C30.6779 38.6796 31.5734 37.7842 32.6779 37.7842L43.4447 37.7842C44.5493 37.7842 45.4447 38.6796 45.4447 39.7842 45.4447 40.8887 44.5493 41.7842 43.4447 41.7842L32.6779 41.7842C31.5734 41.7842 30.6779 40.8887 30.6779 39.7842ZM32.6779 70.3862C31.5734 70.3862 30.6779 71.2816 30.6779 72.3862 30.6779 73.4907 31.5734 74.3862 32.6779 74.3862L43.4447 74.3862C44.5493 74.3862 45.4447 73.4907 45.4447 72.3862 45.4447 71.2816 44.5493 70.3862 43.4447 70.3862L32.6779 70.3862ZM50.555 23.5579C50.555 22.4533 51.4505 21.5579 52.555 21.5579L63.3218 21.5579C64.4264 21.5579 65.3218 22.4533 65.3218 23.5579 65.3218 24.6624 64.4264 25.5579 63.3218 25.5579L52.555 25.5579C51.4505 25.5579 50.555 24.6624 50.555 23.5579ZM23.8167 34.4943C23.8167 33.3897 22.9213 32.4943 21.8167 32.4943 20.7122 32.4943 19.8167 33.3897 19.8167 34.4943L19.8167 45.2611C19.8167 46.3656 20.7122 47.2611 21.8167 47.2611 22.9213 47.2611 23.8167 46.3656 23.8167 45.2611L23.8167 34.4943ZM21.8167 64.9828C22.9213 64.9828 23.8167 65.8782 23.8167 66.9828L23.8167 77.7496C23.8167 78.8541 22.9213 79.7496 21.8167 79.7496 20.7122 79.7496 19.8167 78.8541 19.8167 77.7496L19.8167 66.9828C19.8167 65.8782 20.7122 64.9828 21.8167 64.9828ZM56.344 34.4943C56.344 33.3897 55.4486 32.4943 54.344 32.4943 53.2395 32.4943 52.344 33.3897 52.344 34.4943L52.344 45.2611C52.344 46.3656 53.2395 47.2611 54.344 47.2611 55.4486 47.2611 56.344 46.3656 56.344 45.2611L56.344 34.4943ZM54.344 64.9828C55.4486 64.9828 56.344 65.8782 56.344 66.9828L56.344 77.7496C56.344 78.8541 55.4486 79.7496 54.344 79.7496 53.2395 79.7496 52.344 78.8541 52.344 77.7496L52.344 66.9828C52.344 65.8782 53.2395 64.9828 54.344 64.9828ZM41.6943 48.7395C42.7989 48.7395 43.6943 49.6349 43.6943 50.7395L43.6943 61.5063C43.6943 62.6108 42.7989 63.5063 41.6943 63.5063 40.5898 63.5063 39.6943 62.6108 39.6943 61.5063L39.6943 50.7395C39.6943 49.6349 40.5898 48.7395 41.6943 48.7395ZM76.1828 18.25C76.1828 17.1454 75.2874 16.25 74.1828 16.25 73.0783 16.25 72.1828 17.1454 72.1828 18.25L72.1828 29.0168C72.1828 30.1214 73.0783 31.0168 74.1828 31.0168 75.2874 31.0168 76.1828 30.1214 76.1828 29.0168L76.1828 18.25ZM74.1828 48.7395C75.2874 48.7395 76.1828 49.6349 76.1828 50.7395L76.1828 61.5063C76.1828 62.6108 75.2874 63.5063 74.1828 63.5063 73.0783 63.5063 72.1828 62.6108 72.1828 61.5063L72.1828 50.7395C72.1828 49.6349 73.0783 48.7395 74.1828 48.7395ZM52.555 54.0104C51.4505 54.0104 50.555 54.9059 50.555 56.0104 50.555 57.115 51.4505 58.0104 52.555 58.0104L63.3218 58.0104C64.4264 58.0104 65.3218 57.115 65.3218 56.0104 65.3218 54.9059 64.4264 54.0104 63.3218 54.0104L52.555 54.0104ZM63.1664 39.7842C63.1664 38.6796 64.0619 37.7842 65.1664 37.7842L75.9333 37.7842C77.0378 37.7842 77.9333 38.6796 77.9333 39.7842 77.9333 40.8887 77.0378 41.7842 75.9333 41.7842L65.1664 41.7842C64.0619 41.7842 63.1664 40.8887 63.1664 39.7842ZM65.1664 70.3862C64.0619 70.3862 63.1664 71.2816 63.1664 72.3862 63.1664 73.4907 64.0619 74.3862 65.1664 74.3862L75.9333 74.3862C77.0378 74.3862 77.9333 73.4907 77.9333 72.3862 77.9333 71.2816 77.0378 70.3862 75.9333 70.3862L65.1664 70.3862Z" class="MsftOfcThm_Text1_Fill_v2" stroke="none" stroke-width="1" stroke-linecap="butt" stroke-linejoin="miter" stroke-miterlimit="4" fill="#000000" fill-rule="evenodd" fill-opacity="1" clip-rule="evenodd"/></svg>