<svg width="96" height="96" viewBox="0 0 96 96" xmlns="http://www.w3.org/2000/svg" xmlns:xlink="http://www.w3.org/1999/xlink" fill="none" overflow="hidden"><style>
.MsftOfcThm_Text1_Fill_v2 {
 fill:#000000; 
}
</style>
<path d="M41.9999 10.1547C45.7127 8.01111 50.2871 8.01111 53.9999 10.1547L77.3419 23.6312C81.0547 25.7748 83.3419 29.7363 83.3419 34.0235L83.3419 60.9765C83.3419 65.2637 81.0547 69.2252 77.3419 71.3688L53.9999 84.8453C50.2871 86.9889 45.7127 86.9889 41.9999 84.8453L18.658 71.3688C14.9451 69.2252 12.658 65.2637 12.658 60.9765L12.658 34.0235C12.658 29.7363 14.9451 25.7748 18.658 23.6312L41.9999 10.1547ZM51.9999 13.6188C49.5247 12.1897 46.4751 12.1897 43.9999 13.6188L20.658 27.0953C18.1827 28.5244 16.658 31.1654 16.658 34.0235L16.658 60.9765C16.658 63.8346 18.1828 66.4756 20.658 67.9047L43.9999 81.3812C46.4751 82.8103 49.5247 82.8103 51.9999 81.3812L75.3419 67.9047C77.8171 66.4756 79.3419 63.8346 79.3419 60.9765L79.3419 34.0235C79.3419 31.1654 77.8171 28.5244 75.3419 27.0953L51.9999 13.6188ZM47.9999 28.7998C49.1045 28.7998 49.9999 29.6952 49.9999 30.7998L49.9999 52.9998C49.9999 54.1044 49.1045 54.9998 47.9999 54.9998 46.8954 54.9998 45.9999 54.1044 45.9999 52.9998L45.9999 30.7998C45.9999 29.6952 46.8954 28.7998 47.9999 28.7998ZM50.9999 63.2798C50.9999 64.9366 49.6568 66.2798 47.9999 66.2798 46.3431 66.2798 44.9999 64.9366 44.9999 63.2798 44.9999 61.6229 46.3431 60.2798 47.9999 60.2798 49.6568 60.2798 50.9999 61.6229 50.9999 63.2798Z" class="MsftOfcThm_Text1_Fill_v2" stroke="none" stroke-width="1" stroke-linecap="butt" stroke-linejoin="miter" stroke-miterlimit="4" fill="#000000" fill-rule="evenodd" fill-opacity="1" clip-rule="evenodd"/></svg>