<svg width="96" height="96" viewBox="0 0 96 96" xmlns="http://www.w3.org/2000/svg" xmlns:xlink="http://www.w3.org/1999/xlink" fill="none" overflow="hidden"><style>
.MsftOfcThm_Text1_Fill_v2 {
 fill:#000000; 
}
</style>
<path d="M22 24C18.6846 24 16 26.6846 16 30L16 34.04 80 34.04 80 30C80 26.6846 77.3154 24 74 24L22 24ZM16 66 16 38.04 26.0195 38.04 26.0195 72 22 72C18.6846 72 16 69.3154 16 66ZM59.11 72 30.0195 72 30.0195 38.04 80 38.04 80 50.96C80 52.0646 80.8954 52.96 82 52.96 83.1046 52.96 84 52.0646 84 50.96L84 30C84 24.4754 79.5246 20 74 20L22 20C16.4754 20 12 24.4754 12 30L12 66C12 71.5246 16.4754 76 22 76L59.11 76C60.2146 76 61.11 75.1046 61.11 74 61.11 72.8954 60.2146 72 59.11 72ZM63.6104 69.39C63.6104 61.72 69.8304 55.5 77.5004 55.5 85.1703 55.5 91.3904 61.72 91.3904 69.39 91.3904 77.06 85.1703 83.28 77.5004 83.28 69.8304 83.28 63.6104 77.06 63.6104 69.39ZM79.5004 71.36 84.2304 71.36C85.3304 71.36 86.2304 70.46 86.2304 69.36 86.2304 68.26 85.3304 67.36 84.2304 67.36L79.5004 67.36 79.5004 62.63C79.5004 61.53 78.6003 60.63 77.5004 60.63 76.4004 60.63 75.5004 61.53 75.5004 62.63L75.5004 67.36 70.7703 67.36C69.6703 67.36 68.7703 68.26 68.7703 69.36 68.7703 70.46 69.6703 71.36 70.7703 71.36L75.5004 71.36 75.5004 76.09C75.5004 77.19 76.4004 78.09 77.5004 78.09 78.6003 78.09 79.5004 77.19 79.5004 76.09L79.5004 71.36Z" class="MsftOfcThm_Text1_Fill_v2" stroke="none" stroke-width="1" stroke-linecap="butt" stroke-linejoin="miter" stroke-miterlimit="4" fill="#000000" fill-rule="evenodd" fill-opacity="1" clip-rule="evenodd"/></svg>