<svg width="96" height="96" viewBox="0 0 96 96" xmlns="http://www.w3.org/2000/svg" xmlns:xlink="http://www.w3.org/1999/xlink" fill="none" overflow="hidden"><style>
.MsftOfcThm_Text1_Fill_v2 {
 fill:#000000; 
}
</style>
<path d="M17.2104 54.9416 29.3819 49.0936C30.3775 48.6153 31.5724 49.0346 32.0508 50.0302 32.5291 51.0258 32.1098 52.2207 31.1142 52.699L14.843 60.5168C13.9928 60.9252 12.9729 60.6842 12.3954 59.9385L1.24575 45.5379C0.56953 44.6645 0.72936 43.4083 1.60275 42.7321 2.47613 42.0559 3.73233 42.2157 4.40855 43.0891L13.2192 54.4686C13.7121 35.6774 29.0997 20.5957 48.0099 20.5957 67.231 20.5957 82.8127 36.1775 82.8127 55.3985 82.8127 56.5031 81.9173 57.3985 80.8127 57.3985 79.7082 57.3985 78.8127 56.5031 78.8127 55.3985 78.8127 38.3866 65.0218 24.5957 48.0099 24.5957 31.1505 24.5957 17.4547 38.1403 17.2104 54.9416ZM11.4844 73.4043C11.4844 72.2997 12.3798 71.4043 13.4844 71.4043L82.5156 71.4043C83.6202 71.4043 84.5156 72.2997 84.5156 73.4043 84.5156 74.5089 83.6202 75.4043 82.5156 75.4043L13.4844 75.4043C12.3798 75.4043 11.4844 74.5089 11.4844 73.4043Z" class="MsftOfcThm_Text1_Fill_v2" stroke="none" stroke-width="1" stroke-linecap="butt" stroke-linejoin="miter" stroke-miterlimit="4" fill="#000000" fill-rule="evenodd" fill-opacity="1" clip-rule="evenodd"/></svg>