<svg width="100" height="96" viewBox="0 0 100 96" xmlns="http://www.w3.org/2000/svg" xmlns:xlink="http://www.w3.org/1999/xlink" fill="none" overflow="hidden"><style>
.MsftOfcThm_Text1_Fill_v2 {
 fill:#000000; 
}
</style>
<path d="M45.8075 18.4585C49.1031 10.8496 60.5059 13.6171 59.9469 21.8902L59.077 34.7654C58.945 36.7186 60.4938 38.3755 62.4514 38.3755L77.6132 38.3755C82.7318 38.3755 86.297 43.458 84.5544 48.2709L76.2516 71.2024C74.0364 77.3206 68.2264 81.3961 61.7195 81.3961L22.3821 81.3961C18.3051 81.3961 15 78.091 15 74.014L15 48.7851C15 44.7081 18.3051 41.403 22.3821 41.403L32.7653 41.403C34.65 41.403 36.3546 40.2837 37.1036 38.5543L45.8075 18.4585ZM55.956 21.6205C56.2121 17.8302 50.9879 16.5623 49.478 20.0483L40.7741 40.1441C39.4396 43.2253 36.4619 45.2575 33.1281 45.3955L33.1281 77.3961 61.7195 77.3961C66.5423 77.3961 70.8486 74.3754 72.4905 69.8406L80.7933 46.9091C81.5917 44.7041 79.9583 42.3755 77.6132 42.3755L62.4514 42.3755C58.1785 42.3755 54.798 38.7589 55.0861 34.4957L55.956 21.6205ZM29.1281 77.3961 29.1281 45.403 22.3821 45.403C20.5142 45.403 19 46.9172 19 48.7851L19 74.014C19 75.8819 20.5142 77.3961 22.3821 77.3961L29.1281 77.3961Z" class="MsftOfcThm_Text1_Fill_v2" stroke="none" stroke-width="1" stroke-linecap="butt" stroke-linejoin="miter" stroke-miterlimit="4" fill="#000000" fill-rule="evenodd" fill-opacity="1" clip-rule="evenodd"/></svg>