<svg width="96" height="96" viewBox="0 0 96 96" xmlns="http://www.w3.org/2000/svg" xmlns:xlink="http://www.w3.org/1999/xlink" fill="none" overflow="hidden"><style>
.MsftOfcThm_Text1_Fill_v2 {
 fill:#000000; 
}
</style>
<path d="M16.25 26.25C16.25 20.7272 20.7272 16.25 26.25 16.25L69.75 16.25C75.2728 16.25 79.75 20.7272 79.75 26.25L79.75 69.75C79.75 75.2728 75.2728 79.75 69.75 79.75L26.25 79.75C20.7272 79.75 16.25 75.2728 16.25 69.75L16.25 26.25ZM26.25 20.25C22.9363 20.25 20.25 22.9363 20.25 26.25L20.25 69.75C20.25 73.0637 22.9363 75.75 26.25 75.75L69.75 75.75C73.0637 75.75 75.75 73.0637 75.75 69.75L75.75 26.25C75.75 22.9363 73.0637 20.25 69.75 20.25L26.25 20.25ZM50.6017 55.5962C51.4158 56.3428 51.4706 57.6079 50.7241 58.422L42.7215 67.1491C42.1319 67.792 41.1937 67.9786 40.403 67.6104L33.7286 64.5019 26.7163 72.1491C25.9697 72.9632 24.7046 73.018 23.8905 72.2714 23.0764 71.5249 23.0216 70.2598 23.7681 69.4457L31.7707 60.7186C32.3603 60.0757 33.2984 59.889 34.0892 60.2573L40.7636 63.3658 47.7759 55.7186C48.5225 54.9045 49.7876 54.8497 50.6017 55.5962ZM48.9197 33.9994C49.9999 30.7434 52.6496 28.2032 55.9722 27.2757L55.9722 33.9994 48.9197 33.9994ZM58.7675 47.6412C53.3623 47.6412 48.9227 43.507 48.4382 38.2283L57.9862 38.2283C59.0985 38.2283 60.0002 37.2816 60.0002 36.1138L60.0002 26.9672C65.1481 27.5767 69.1408 31.956 69.1408 37.2679 69.1408 42.9969 64.4965 47.6412 58.7675 47.6412ZM24.5 33.2188C24.5 32.1142 25.3954 31.2188 26.5 31.2188L38.5 31.2188C39.6046 31.2188 40.5 32.1142 40.5 33.2188 40.5 34.3233 39.6046 35.2188 38.5 35.2188L26.5 35.2188C25.3954 35.2188 24.5 34.3233 24.5 33.2188ZM26.5 39.2812C25.3954 39.2812 24.5 40.1767 24.5 41.2812 24.5 42.3858 25.3954 43.2812 26.5 43.2812L38.5 43.2812C39.6046 43.2812 40.5 42.3858 40.5 41.2812 40.5 40.1767 39.6046 39.2812 38.5 39.2812L26.5 39.2812ZM55.5 59.9026C55.5 58.798 56.3954 57.9026 57.5 57.9026L69.5 57.9026C70.6046 57.9026 71.5 58.798 71.5 59.9026 71.5 61.0072 70.6046 61.9026 69.5 61.9026L57.5 61.9026C56.3954 61.9026 55.5 61.0072 55.5 59.9026ZM57.5 65.9651C56.3954 65.9651 55.5 66.8605 55.5 67.9651 55.5 69.0697 56.3954 69.9651 57.5 69.9651L69.5 69.9651C70.6046 69.9651 71.5 69.0697 71.5 67.9651 71.5 66.8605 70.6046 65.9651 69.5 65.9651L57.5 65.9651Z" class="MsftOfcThm_Text1_Fill_v2" stroke="none" stroke-width="1" stroke-linecap="butt" stroke-linejoin="miter" stroke-miterlimit="4" fill="#000000" fill-rule="evenodd" fill-opacity="1" clip-rule="evenodd"/></svg>