<svg width="96" height="96" viewBox="0 0 96 96" xmlns="http://www.w3.org/2000/svg" xmlns:xlink="http://www.w3.org/1999/xlink" fill="none" overflow="hidden"><style>
.MsftOfcThm_Text1_Fill_v2 {
 fill:#000000; 
}
</style>
<path d="M47.5 17C36.7304 17 28 25.7304 28 36.5 28 47.2696 36.7304 56 47.5 56 58.2696 56 67 47.2696 67 36.5 67 25.7304 58.2696 17 47.5 17ZM24 36.5C24 23.5213 34.5213 13 47.5 13 60.4787 13 71 23.5213 71 36.5 71 42.5037 68.7487 47.9815 65.0442 52.1353L72.3657 70.2567C73.5625 73.2189 70.975 76.3195 67.8465 75.6722L63.3963 74.7514 60.8347 78.5051C59.0339 81.144 55.0188 80.711 53.822 77.7489L48.4271 64.3961 43.0891 77.608C41.8923 80.5702 37.8772 81.0032 36.0764 78.3643L33.5148 74.6106 29.0647 75.5314C25.9361 76.1787 23.3487 73.078 24.5455 70.1159L31.2632 53.4888C26.7877 49.2101 24 43.1806 24 36.5ZM34.5241 56.0958 28.2542 71.6143 32.7044 70.6935C34.2857 70.3664 35.9086 71.0221 36.8188 72.3559L39.3804 76.1096 45.9105 59.9471C41.7189 59.6671 37.8283 58.2882 34.5241 56.0958ZM50.8683 59.7604C54.9925 59.1685 58.771 57.5056 61.9127 55.0627L68.6569 71.7552 64.2068 70.8344C62.6255 70.5072 61.0025 71.1629 60.0923 72.4967L57.5307 76.2504 50.8683 59.7604Z" class="MsftOfcThm_Text1_Fill_v2" stroke="none" stroke-width="1" stroke-linecap="butt" stroke-linejoin="miter" stroke-miterlimit="4" fill="#000000" fill-rule="evenodd" fill-opacity="1" clip-rule="evenodd"/></svg>