<svg width="96" height="96" viewBox="0 0 96 96" xmlns="http://www.w3.org/2000/svg" xmlns:xlink="http://www.w3.org/1999/xlink" fill="none" overflow="hidden"><style>
.MsftOfcThm_Text1_Fill_v2 {
 fill:#000000; 
}
</style>
<path d="M50.8088 19.1508C45.308 15.8732 38.5954 20.0131 38.5881 26.3164L38.5377 69.6607C38.5304 75.9636 45.233 80.1201 50.7416 76.856L87.2397 55.2287C92.6329 52.0329 92.6418 44.0766 87.2566 40.8678L50.8088 19.1508ZM42.5881 26.321C42.592 22.9157 46.0982 21.0003 48.7613 22.587L49.665 21.0705 48.7613 22.5871 85.2092 44.3041C87.9878 45.9597 87.9825 50.139 85.2006 51.7875L48.7025 73.4148C46.0359 74.9948 42.5338 73.071 42.5377 69.6653L42.5881 26.321ZM8 27.3423C8 24.068 10.1801 22.0109 12.1921 22.0109L17.6722 22.0109C19.6842 22.0109 21.8643 24.068 21.8643 27.3423L21.8643 68.6545C21.8643 71.9288 19.6842 73.9858 17.6722 73.9858L12.1921 73.9858C10.1801 73.9858 8 71.9288 8 68.6545L8 27.3423ZM12.1921 18.0109C7.36449 18.0109 4 22.5186 4 27.3423L4 68.6545C4 73.4782 7.36449 77.9858 12.1921 77.9858L17.6722 77.9858C22.4998 77.9858 25.8643 73.4782 25.8643 68.6545L25.8643 27.3423C25.8643 22.5186 22.4998 18.0109 17.6722 18.0109L12.1921 18.0109Z" class="MsftOfcThm_Text1_Fill_v2" stroke="none" stroke-width="1" stroke-linecap="butt" stroke-linejoin="miter" stroke-miterlimit="4" fill="#000000" fill-rule="evenodd" fill-opacity="1" clip-rule="evenodd"/></svg>