<svg width="96" height="96" viewBox="0 0 96 96" xmlns="http://www.w3.org/2000/svg" xmlns:xlink="http://www.w3.org/1999/xlink" fill="none" overflow="hidden"><style>
.MsftOfcThm_Text1_Fill_v2 {
 fill:#000000; 
}
</style>
<path d="M31.3096 16.207C27.9959 16.207 25.3096 18.8933 25.3096 22.207L25.3096 26.842C25.3096 30.1557 27.9959 32.842 31.3096 32.842L46 32.842 46 45.5234 31.5537 45.5234C26.5832 45.5234 22.5537 49.5529 22.5537 54.5234L22.5537 63.1211 22.2314 63.1211C18.9177 63.1211 16.2314 65.8074 16.2314 69.1211L16.2314 73.756C16.2314 77.0697 18.9177 79.756 22.2314 79.756L26.8614 79.756C30.1752 79.756 32.8614 77.0697 32.8614 73.756L32.8614 69.1211C32.8614 65.8074 30.1752 63.1211 26.8614 63.1211L26.5537 63.1211 26.5537 54.5234C26.5537 51.762 28.7923 49.5234 31.5537 49.5234L46 49.5234 46 63.1211 45.6855 63.1211C42.3718 63.1211 39.6855 65.8074 39.6855 69.1211L39.6855 73.756C39.6855 77.0697 42.3718 79.756 45.6855 79.756L50.3155 79.756C53.6293 79.756 56.3155 77.0697 56.3155 73.756L56.3155 69.1211C56.3155 65.8074 53.6293 63.1211 50.3155 63.1211L50 63.1211 50 49.5234 64.4453 49.5234C67.2067 49.5234 69.4453 51.762 69.4453 54.5234L69.4453 63.1211 69.123 63.1211C65.8093 63.1211 63.123 65.8074 63.123 69.1211L63.123 73.756C63.123 77.0697 65.8093 79.756 69.123 79.756L73.753 79.756C77.0668 79.756 79.753 77.0697 79.753 73.756L79.753 69.1211C79.753 65.8074 77.0668 63.1211 73.753 63.1211L73.4453 63.1211 73.4453 54.5234C73.4453 49.5529 69.4159 45.5234 64.4453 45.5234L50 45.5234 50 32.842 64.6902 32.842C68.0039 32.842 70.6902 30.1557 70.6902 26.842L70.6902 22.207C70.6902 18.8933 68.0039 16.207 64.6902 16.207L31.3096 16.207ZM48 67.1211 45.6855 67.1211C44.581 67.1211 43.6855 68.0165 43.6855 69.1211L43.6855 73.756C43.6855 74.8606 44.581 75.756 45.6855 75.756L50.3155 75.756C51.4201 75.756 52.3155 74.8606 52.3155 73.756L52.3155 69.1211C52.3155 68.0165 51.4201 67.1211 50.3155 67.1211L48 67.1211ZM48.0271 28.842 64.6902 28.842C65.7948 28.842 66.6902 27.9465 66.6902 26.842L66.6902 22.207C66.6902 21.1025 65.7948 20.207 64.6902 20.207L31.3096 20.207C30.205 20.207 29.3096 21.1025 29.3096 22.207L29.3096 26.842C29.3096 27.9465 30.205 28.842 31.3096 28.842L47.9729 28.842 48 28.8418 48.0271 28.842ZM22.2314 67.1211C21.1269 67.1211 20.2314 68.0165 20.2314 69.1211L20.2314 73.756C20.2314 74.8606 21.1269 75.756 22.2314 75.756L26.8614 75.756C27.966 75.756 28.8614 74.8606 28.8614 73.756L28.8614 69.1211C28.8614 68.0165 27.966 67.1211 26.8614 67.1211L22.2314 67.1211ZM69.123 67.1211C68.0185 67.1211 67.123 68.0165 67.123 69.1211L67.123 73.756C67.123 74.8606 68.0185 75.756 69.123 75.756L73.753 75.756C74.8576 75.756 75.753 74.8606 75.753 73.756L75.753 69.1211C75.753 68.0165 74.8576 67.1211 73.753 67.1211L69.123 67.1211Z" class="MsftOfcThm_Text1_Fill_v2" stroke="none" stroke-width="1" stroke-linecap="butt" stroke-linejoin="miter" stroke-miterlimit="4" fill="#000000" fill-rule="evenodd" fill-opacity="1" clip-rule="evenodd"/></svg>