<svg width="96" height="96" viewBox="0 0 96 96" xmlns="http://www.w3.org/2000/svg" xmlns:xlink="http://www.w3.org/1999/xlink" fill="none" overflow="hidden"><style>
.MsftOfcThm_Text1_Fill_v2 {
 fill:#000000; 
}
</style>
<path d="M31.9744 15C31.9744 13.8954 31.079 13 29.9744 13 28.8698 13 27.9744 13.8954 27.9744 15L27.9744 27.9033 15 27.9033C13.8954 27.9033 13 28.7988 13 29.9033 13 31.0079 13.8954 31.9033 15 31.9033L27.9744 31.9033 27.9744 58.096C27.9744 63.6189 32.4516 68.096 37.9744 68.096L64.0247 68.096 64.0247 80.9994C64.0247 82.1039 64.9202 82.9994 66.0247 82.9994 67.1293 82.9994 68.0247 82.1039 68.0247 80.9994L68.0247 68.096 80.9992 68.096C82.1037 68.096 82.9992 67.2006 82.9992 66.096 82.9992 64.9914 82.1037 64.096 80.9992 64.096L37.9744 64.096C34.6607 64.096 31.9744 61.4097 31.9744 58.096L31.9744 29.9321C31.9745 29.9225 31.9746 29.9129 31.9746 29.9033 31.9746 29.8938 31.9745 29.8842 31.9744 29.8746L31.9744 15ZM37.4157 27.9033C36.3111 27.9033 35.4157 28.7988 35.4157 29.9033 35.4157 31.0079 36.3111 31.9033 37.4157 31.9033L58.0247 31.9033C61.3385 31.9033 64.0247 34.5896 64.0247 37.9033L64.0247 58.6449C64.0247 59.7494 64.9202 60.6449 66.0247 60.6449 67.1293 60.6449 68.0247 59.7494 68.0247 58.6449L68.0247 37.9033C68.0247 32.3805 63.5476 27.9033 58.0247 27.9033L37.4157 27.9033Z" class="MsftOfcThm_Text1_Fill_v2" stroke="none" stroke-width="1" stroke-linecap="butt" stroke-linejoin="miter" stroke-miterlimit="4" fill="#000000" fill-rule="evenodd" fill-opacity="1" clip-rule="evenodd"/></svg>