<svg width="96" height="96" viewBox="0 0 96 96" xmlns="http://www.w3.org/2000/svg" xmlns:xlink="http://www.w3.org/1999/xlink" fill="none" overflow="hidden"><style>
.MsftOfcThm_Text1_Fill_v2 {
 fill:#000000; 
}
</style>
<path d="M26 31C22.6863 31 20 33.6863 20 37L20 59.4001C20 62.7138 22.6863 65.4001 26 65.4001L52.0001 65.4001C55.3138 65.4001 58.0001 62.7138 58.0001 59.4001L58.0001 53.5448C58.0001 52.7891 58.4261 52.0978 59.1012 51.7582 59.7764 51.4185 60.5853 51.4884 61.1922 51.9389L72.8079 60.5614C74.1276 61.541 76 60.599 76 58.9555L76 37.4448C76 35.8012 74.1276 34.8592 72.8079 35.8388L61.1922 44.4613C60.5853 44.9118 59.7764 44.9817 59.1012 44.6421 58.4261 44.3024 58.0001 43.6112 58.0001 42.8554L58.0001 37C58.0001 33.6863 55.3138 31 52.0001 31L26 31ZM16 37C16 31.4772 20.4771 27 26 27L52.0001 27C57.5229 27 62.0001 31.4772 62.0001 37L62.0001 38.88 70.4238 32.627C74.3829 29.6882 80 32.5141 80 37.4448L80 58.9555C80 63.8861 74.3829 66.712 70.4238 63.7732L62.0001 57.5202 62.0001 59.4001C62.0001 64.9229 57.5229 69.4001 52.0001 69.4001L26 69.4001C20.4771 69.4001 16 64.9229 16 59.4001L16 37Z" class="MsftOfcThm_Text1_Fill_v2" stroke="none" stroke-width="1" stroke-linecap="butt" stroke-linejoin="miter" stroke-miterlimit="4" fill="#000000" fill-rule="evenodd" fill-opacity="1" clip-rule="evenodd"/></svg>