<svg width="96" height="96" viewBox="0 0 96 96" xmlns="http://www.w3.org/2000/svg" xmlns:xlink="http://www.w3.org/1999/xlink" fill="none" overflow="hidden"><style>
.MsftOfcThm_Text1_Fill_v2 {
 fill:#000000; 
}
</style>
<path d="M18.9498 23.073C17.5242 24.118 17.2007 24.9245 17.1893 25.3936L17.1895 25.4199 17.1895 25.4518C17.2036 25.9217 17.5305 26.7257 18.9498 27.7661 20.3606 28.8002 22.5303 29.8153 25.3912 30.7023 31.089 32.4688 39.0827 33.592 47.9996 33.592 56.9165 33.592 64.9102 32.4688 70.608 30.7023 73.469 29.8153 75.6387 28.8002 77.0495 27.7661 78.5017 26.7015 78.8103 25.8844 78.8103 25.4195 78.8103 24.9546 78.5017 24.1376 77.0495 23.073 75.6387 22.0389 73.469 21.0238 70.608 20.1368 64.9102 18.3703 56.9165 17.2471 47.9996 17.2471 39.0827 17.2471 31.089 18.3703 25.3912 20.1368 22.5303 21.0238 20.3606 22.0389 18.9498 23.073ZM24.2067 34.5229C21.4428 33.666 19.035 32.629 17.1895 31.4121L17.1895 36.7564C17.2036 37.2263 17.5305 38.0303 18.9498 39.0706 20.3606 40.1048 22.5303 41.1198 25.3912 42.0069 31.089 43.7734 39.0827 44.8966 47.9996 44.8966 56.9165 44.8966 64.9102 43.7734 70.608 42.0069 73.469 41.1198 75.6387 40.1048 77.0495 39.0706 78.5017 38.0061 78.8103 37.189 78.8103 36.7241L78.8105 36.7241 78.8105 31.4116C76.9649 32.6287 74.5568 33.6658 71.7925 34.5229 65.6152 36.4381 57.2035 37.592 47.9996 37.592 38.7957 37.592 30.384 36.4381 24.2067 34.5229ZM82.8101 25.3771C82.7918 23.0529 81.2713 21.2081 79.4142 19.8469 77.5044 18.447 74.8691 17.2701 71.7925 16.3162 65.6152 14.401 57.2035 13.2471 47.9996 13.2471 38.7957 13.2471 30.384 14.401 24.2067 16.3162 21.1301 17.2701 18.4948 18.447 16.585 19.8469 14.7167 21.2164 13.189 23.0754 13.189 25.4195 13.189 25.4438 13.1891 25.468 13.1895 25.4921L13.1895 36.7241 13.189 36.7241C13.189 36.7484 13.1891 36.7726 13.1895 36.7967L13.1895 48 13.189 48C13.189 48.0243 13.1891 48.0485 13.1895 48.0726L13.1895 59.3335 13.189 59.3335C13.189 59.3578 13.1891 59.382 13.1895 59.4061L13.1895 70.6367 13.189 70.6367C13.189 70.661 13.1891 70.6852 13.1895 70.7094L13.1895 70.8252C13.1895 70.9242 13.1967 71.0215 13.2105 71.1167 13.4022 73.236 14.846 74.9347 16.585 76.2094 18.4948 77.6093 21.1301 78.7862 24.2067 79.74 30.384 81.6552 38.7957 82.8092 47.9996 82.8092 57.2035 82.8092 65.6152 81.6552 71.7925 79.74 74.8691 78.7862 77.5044 77.6093 79.4142 76.2094 81.1495 74.9374 82.591 73.2431 82.7875 71.1301 82.8027 71.0307 82.8105 70.9289 82.8105 70.8252L82.8105 25.4199C82.8105 25.4056 82.8104 25.3913 82.8101 25.3771ZM78.8105 70.6367 78.8105 65.3255C76.9649 66.5427 74.5568 67.5798 71.7925 68.4368 65.6152 70.352 57.2035 71.506 47.9996 71.506 38.7957 71.506 30.384 70.352 24.2067 68.4368 21.4428 67.5799 19.035 66.543 17.1895 65.326L17.1895 70.669C17.2036 71.139 17.5306 71.943 18.9498 72.9832 20.3606 74.0174 22.5303 75.0324 25.3912 75.9195 31.089 77.686 39.0827 78.8092 47.9996 78.8092 56.9165 78.8092 64.9102 77.686 70.608 75.9195 73.469 75.0324 75.6387 74.0174 77.0495 72.9832 78.5017 71.9187 78.8103 71.1016 78.8103 70.6367L78.8105 70.6367ZM78.8105 59.3335 78.8105 53.992C76.9649 55.2092 74.5568 56.2463 71.7925 57.1033 65.6152 59.0185 57.2035 60.1725 47.9996 60.1725 38.7957 60.1725 30.384 59.0185 24.2067 57.1033 21.4428 56.2464 19.035 55.2095 17.1895 53.9925L17.1895 59.3658C17.2036 59.8357 17.5306 60.6397 18.9498 61.68 20.3606 62.7141 22.5303 63.7292 25.3912 64.6162 31.089 66.3828 39.0827 67.506 47.9996 67.506 56.9165 67.506 64.9102 66.3828 70.608 64.6162 73.469 63.7292 75.6387 62.7141 77.0495 61.68 78.5017 60.6155 78.8103 59.7984 78.8103 59.3335L78.8105 59.3335ZM78.8105 48 78.8105 42.7162C76.9649 43.9333 74.5568 44.9704 71.7925 45.8274 65.6152 47.7426 57.2035 48.8966 47.9996 48.8966 38.7957 48.8966 30.384 47.7426 24.2067 45.8274 21.4428 44.9705 19.035 43.9336 17.1895 42.7167L17.1895 48.0323C17.2036 48.5022 17.5305 49.3062 18.9498 50.3465 20.3606 51.3806 22.5303 52.3957 25.3912 53.2827 31.089 55.0493 39.0827 56.1725 47.9996 56.1725 56.9165 56.1725 64.9102 55.0493 70.608 53.2827 73.469 52.3957 75.6387 51.3806 77.0495 50.3465 78.5017 49.282 78.8103 48.4649 78.8103 48L78.8105 48Z" class="MsftOfcThm_Text1_Fill_v2" stroke="none" stroke-width="1" stroke-linecap="butt" stroke-linejoin="miter" stroke-miterlimit="4" fill="#000000" fill-rule="evenodd" fill-opacity="1" clip-rule="evenodd"/></svg>