<svg width="96" height="96" viewBox="0 0 96 96" xmlns="http://www.w3.org/2000/svg" xmlns:xlink="http://www.w3.org/1999/xlink" fill="none" overflow="hidden"><style>
.MsftOfcThm_Text1_Fill_v2 {
 fill:#000000; 
}
</style>
<path d="M27.6519 13.4403C28.5133 14.1317 28.6511 15.3906 27.9597 16.252L19.3329 27.0001 81.2 27.0001C82.3046 27.0001 83.2 27.8955 83.2 29.0001 83.2 30.1046 82.3046 31.0001 81.2 31.0001L19.0429 31.0001 27.9507 41.937C28.6483 42.7935 28.5195 44.0533 27.663 44.7508 26.8066 45.4484 25.5468 45.3195 24.8493 44.4631L13.4493 30.4663C12.8536 29.735 12.8499 28.687 13.4403 27.9514L24.8403 13.7482C25.5317 12.8868 26.7905 12.7489 27.6519 13.4403ZM68.5481 81.7597C67.6867 81.0683 67.5489 79.8095 68.2403 78.9481L76.8671 68.2 15 68.2C13.8955 68.2 13 67.3046 13 66.2 13 65.0954 13.8955 64.2 15 64.2L77.1572 64.2 68.2493 53.263C67.5517 52.4066 67.6805 51.1468 68.537 50.4493 69.3934 49.7517 70.6532 49.8805 71.3507 50.737L82.7508 64.7337C83.3464 65.4651 83.3501 66.5131 82.7598 67.2487L71.3598 81.4519C70.6684 82.3133 69.4095 82.4511 68.5481 81.7597Z" class="MsftOfcThm_Text1_Fill_v2" stroke="none" stroke-width="1" stroke-linecap="butt" stroke-linejoin="miter" stroke-miterlimit="4" fill="#000000" fill-rule="evenodd" fill-opacity="1" clip-rule="evenodd"/></svg>