<svg width="96" height="96" viewBox="0 0 96 96" xmlns="http://www.w3.org/2000/svg" xmlns:xlink="http://www.w3.org/1999/xlink" fill="none" overflow="hidden"><style>
.MsftOfcThm_Background1_Fill_v2 {
 fill:#FFFFFF; 
}
</style>
<path d="M23.4502 25.2739C23.4502 22.5063 25.7016 20.2549 28.4692 20.2549L68.5358 20.2549C71.3034 20.2549 73.5548 22.5063 73.5548 25.2739L73.5548 54.3032C73.5548 68.1259 62.3305 79.3554 48.5025 79.3554 34.6798 79.3554 23.4502 68.1312 23.4502 54.3032L23.4502 25.2739ZM28.4692 16.2549C23.4925 16.2549 19.4502 20.2972 19.4502 25.2739L19.4502 54.3032C19.4502 70.3409 32.4712 83.3554 48.5025 83.3554 64.5402 83.3554 77.5548 70.3344 77.5548 54.3032L77.5548 25.2739C77.5548 20.2972 73.5125 16.2549 68.5358 16.2549L28.4692 16.2549ZM64.0797 40.3864C64.8961 39.6423 64.9547 38.3773 64.2107 37.561 63.4666 36.7446 62.2016 36.686 61.3853 37.43L58.2082 40.3257 55.0956 43.1626 55.0425 43.211 54.9892 43.2596 54.9358 43.3082 54.8824 43.357 54.6675 43.5528 54.2336 43.9482 54.1244 44.0478 54.0148 44.1477 53.9049 44.2478 53.8499 44.298 53.7948 44.3482 53.7396 44.3985 53.6844 44.4488 53.6291 44.4992 53.5738 44.5496 53.3519 44.7519 53.1292 44.9549 53.0176 45.0566 52.9058 45.1585 52.7939 45.2605 52.7379 45.3115 52.6818 45.3626 52.5696 45.4649 52.4573 45.5672 52.0074 45.9773 51.9511 46.0286 51.8948 46.0799 51.8385 46.1312 51.7822 46.1826 51.5569 46.3879 49.766 48.0202 48.8893 48.8192 48.8352 48.8685 48.7811 48.9178 48.6733 49.0161 48.5658 49.1141 48.4587 49.2117 48.352 49.3089 48.2988 49.3574 48.2457 49.4058 48.1927 49.4541 48.1399 49.5023 48.0871 49.5504 48.0344 49.5984 47.9819 49.6463 47.9294 49.6941 47.8771 49.7418 47.8249 49.7893 47.7208 49.8842 47.6173 49.9786 47.5657 50.0256 47.5142 50.0725 47.4117 50.166 47.3097 50.2589 47.2082 50.3514 47.0069 50.5349 46.9071 50.6258 46.808 50.7162 46.7586 50.7612 46.7094 50.806 46.6604 50.8507 46.6115 50.8953 46.5627 50.9397 46.5142 50.984 46.4658 51.0281 46.4175 51.0721 46.0377 51.4182 45.6694 51.754 45.6242 51.7952 45.5792 51.8362 45.5344 51.877 45.4898 51.9176 45.3134 52.0784 45.2264 52.1577 45.1832 52.197 45.1403 52.2362 44.9706 52.3908 43.3514 53.8666 35.2215 46.2848C34.4137 45.5315 33.1481 45.5757 32.3948 46.3835 31.6414 47.1913 31.6856 48.4568 32.4934 49.2102L41.9718 58.0495C42.7337 58.7599 43.9132 58.7667 44.6831 58.065L43.3359 56.5868C44.6831 58.065 44.6832 58.0649 44.6833 58.0648L44.684 58.0642 44.6866 58.0618 44.6885 58.0601 44.6909 58.0579 44.6969 58.0524 44.714 58.0368 44.7193 58.032 44.7251 58.0267 44.7378 58.0152 44.7521 58.0021C44.8239 57.9367 44.6958 58.0535 44.7681 57.9876L44.8048 57.9541 44.8255 57.9352 44.8365 57.9252 44.8479 57.9148 44.8971 57.8699 45.1543 57.6355 45.5023 57.3183 45.9344 56.9246 46.0547 56.8149 46.1166 56.7585 46.148 56.7299 46.1797 56.701 46.2439 56.6424 46.2765 56.6128 46.3093 56.5828 46.3758 56.5222 46.4434 56.4606 46.4776 56.4294 46.5121 56.398 46.5819 56.3344 46.7247 56.2042 47.0226 55.9327 47.1776 55.7915 47.2169 55.7556 47.2565 55.7195 47.2963 55.6832 47.3364 55.6467 47.3767 55.61 47.4172 55.5731 47.4579 55.5359 47.4989 55.4986 47.5815 55.4233 47.6651 55.3472 47.7495 55.2702 47.792 55.2315 47.8347 55.1925 47.8777 55.1533 47.9209 55.114 48.0078 55.0347 48.0516 54.9948 48.0956 54.9547 48.1842 54.874 48.3638 54.7103 48.7322 54.3746 49.112 54.0284 49.3059 53.8516 49.5024 53.6725 49.552 53.6274 49.6016 53.5821 49.7014 53.4912 49.9026 53.3078 49.9533 53.2616 50.0041 53.2153 50.0551 53.1688 50.1061 53.1223 50.2087 53.0288 50.2602 52.9819 50.3118 52.9349 50.7289 52.5547 50.9402 52.3621 51.0465 52.2652 51.1532 52.168 51.2067 52.1192 51.2603 52.0704 51.314 52.0214 51.3678 51.9724 51.4216 51.9233 51.4756 51.8741 51.5296 51.8249 51.5838 51.7755 51.6923 51.6766 51.7467 51.627 51.8012 51.5774 52.0198 51.3781 52.1296 51.2781 52.1846 51.228 52.2396 51.1778 52.2947 51.1275 52.3499 51.0773 52.4052 51.0269 52.4604 50.9765 54.2514 49.3442 54.4767 49.1389 54.5893 49.0362 54.6456 48.9849 54.7019 48.9336 54.8145 48.831 54.8707 48.7797 54.927 48.7284 54.9832 48.6772 55.0394 48.6259 55.0956 48.5747 55.1518 48.5235 55.208 48.4723 55.2641 48.4212 55.3763 48.3189 55.6003 48.1148 55.8237 47.9112 56.0464 47.7082 56.1574 47.607 56.2683 47.506 56.3236 47.4555 56.3789 47.4051 56.4341 47.3548 56.4893 47.3045 56.9281 46.9046 57.7901 46.1189 58.0017 45.926 58.0544 45.8781 58.1069 45.8302 58.2116 45.7348 58.4195 45.5452 58.6255 45.3575 58.6767 45.3109 58.7277 45.2644 58.8294 45.1717 58.88 45.1255 58.9305 45.0795 58.9808 45.0336 59.031 44.9879 59.4273 44.6267 59.5249 44.5378 59.5734 44.4936 59.6217 44.4495 59.6699 44.4056 59.718 44.3618 59.7658 44.3182 59.8135 44.2747 59.861 44.2314 59.9084 44.1883 60.0025 44.1024 60.096 44.0173 60.1424 43.9749 60.1887 43.9328 60.5521 43.6016 60.6409 43.5206 60.6851 43.4803 60.729 43.4403 60.7728 43.4004 60.8163 43.3608 60.8596 43.3213 60.9027 43.282 64.0797 40.3864Z" class="MsftOfcThm_Background1_Fill_v2" stroke="none" stroke-width="1" stroke-linecap="butt" stroke-linejoin="miter" stroke-miterlimit="4" fill="#FFFFFF" fill-rule="evenodd" fill-opacity="1" clip-rule="evenodd"/></svg>