<svg width="96" height="96" viewBox="0 0 96 96" xmlns="http://www.w3.org/2000/svg" xmlns:xlink="http://www.w3.org/1999/xlink" fill="none" overflow="hidden"><style>
.MsftOfcThm_Background1_Fill_v2 {
 fill:#FFFFFF; 
}
</style>
<path d="M16.8514 76.3202C16.0704 77.1012 16.0704 78.3675 16.8514 79.1486 17.6325 79.9296 18.8988 79.9296 19.6798 79.1486L79.1486 19.6798C79.9296 18.8988 79.9296 17.6325 79.1486 16.8514 78.3675 16.0704 77.1012 16.0704 76.3202 16.8514L16.8514 76.3202ZM29.0422 21.0225C24.6041 21.0225 21.0063 24.6202 21.0063 29.0583 21.0063 33.4964 24.6041 37.0942 29.0422 37.0942 33.4803 37.0942 37.0781 33.4964 37.0781 29.0583 37.0781 24.6202 33.4803 21.0225 29.0422 21.0225ZM17.0063 29.0583C17.0063 22.4111 22.395 17.0225 29.0422 17.0225 35.6894 17.0225 41.0781 22.4111 41.0781 29.0583 41.0781 35.7056 35.6894 41.0942 29.0422 41.0942 22.395 41.0942 17.0063 35.7056 17.0063 29.0583ZM66.9416 58.9268C62.5035 58.9268 58.9058 62.5245 58.9058 66.9626 58.9058 71.4007 62.5035 74.9985 66.9416 74.9985 71.3797 74.9985 74.9775 71.4007 74.9775 66.9626 74.9775 62.5245 71.3797 58.9268 66.9416 58.9268ZM54.9058 66.9626C54.9058 60.3154 60.2944 54.9268 66.9416 54.9268 73.5889 54.9268 78.9775 60.3154 78.9775 66.9626 78.9775 73.6099 73.5889 78.9985 66.9416 78.9985 60.2944 78.9985 54.9058 73.6099 54.9058 66.9626Z" class="MsftOfcThm_Background1_Fill_v2" stroke="none" stroke-width="1" stroke-linecap="butt" stroke-linejoin="miter" stroke-miterlimit="4" fill="#FFFFFF" fill-rule="evenodd" fill-opacity="1" clip-rule="evenodd"/></svg>