<svg width="96" height="96" viewBox="0 0 96 96" xmlns="http://www.w3.org/2000/svg" xmlns:xlink="http://www.w3.org/1999/xlink" fill="none" overflow="hidden"><style>
.MsftOfcThm_Background1_Fill_v2 {
 fill:#FFFFFF; 
}
</style>
<path d="M63.9682 20.3169C68.6876 18.9066 73.5259 22.3782 73.5259 27.3351L73.5259 53.4674C73.5259 58.4337 68.6778 61.8955 63.9616 60.4853L63.9612 60.4852 42.9508 54.1985 47.8245 64.741C47.8321 64.7575 47.8395 64.7741 47.8467 64.7907 48.8107 67.0344 48.7453 69.2231 47.9018 71.0814 47.0784 72.8952 45.5802 74.2545 43.8931 75.0612 42.0835 75.9265 39.9198 76.2224 37.8783 75.658 35.783 75.0789 33.9375 73.6222 32.8499 71.2411 32.1616 69.7342 29.9952 65.0085 27.9998 60.6573 27.0023 58.4822 26.0479 56.4014 25.3429 54.8643L24.7171 53.5001 24.3617 53.5001C17.032 53.5001 11 47.7076 11 40.3843 11 33.077 17.0158 27.2 24.3617 27.2L40.8966 27.2 63.967 20.3172 63.9682 20.3169ZM69.5259 27.3351C69.5259 25.1383 67.3466 23.4817 65.1129 24.1496L65.1117 24.1499 43.1992 30.6873 43.1992 50.0976 65.1075 56.653C67.3448 57.3219 69.5259 55.6659 69.5259 53.4674L69.5259 27.3351ZM15 40.3843C15 35.3452 19.1653 31.2 24.3617 31.2L39.1389 31.2 39.1389 49.5001 26 49.5001 24.3617 49.5001C19.1491 49.5001 15 45.4076 15 40.3843ZM29.1178 53.5001C29.8067 55.002 30.7024 56.9547 31.6357 58.9899 33.6303 63.3394 35.7984 68.0688 36.4883 69.5792 37.0873 70.8905 37.9943 71.5401 38.944 71.8026 39.9473 72.08 41.121 71.953 42.1675 71.4525 43.1388 70.9881 43.8821 70.2594 44.2595 69.4279 44.6146 68.6457 44.7105 67.6393 44.1815 66.393L38.2212 53.5001 29.1178 53.5001ZM81.5293 49.8951C80.4762 49.5617 79.3523 50.1452 79.019 51.1983 78.6857 52.2514 79.2692 53.3753 80.3223 53.7086L83.7722 54.8006C84.8253 55.1339 85.9492 54.5504 86.2825 53.4974 86.6159 52.4443 86.0324 51.3204 84.9793 50.9871L81.5293 49.8951ZM86.2825 26.5325C86.6159 27.5856 86.0324 28.7095 84.9793 29.0428L81.5293 30.1348C80.4762 30.4681 79.3523 29.8847 79.019 28.8316 78.6857 27.7785 79.2692 26.6546 80.3223 26.3213L83.7722 25.2293C84.8253 24.896 85.9492 25.4794 86.2825 26.5325ZM80.9258 38.0179C79.8212 38.0179 78.9258 38.9133 78.9258 40.0179 78.9258 41.1225 79.8212 42.0179 80.9258 42.0179L84.5438 42.0179C85.6484 42.0179 86.5438 41.1225 86.5438 40.0179 86.5438 38.9133 85.6484 38.0179 84.5438 38.0179L80.9258 38.0179Z" class="MsftOfcThm_Background1_Fill_v2" stroke="none" stroke-width="1" stroke-linecap="butt" stroke-linejoin="miter" stroke-miterlimit="4" fill="#FFFFFF" fill-rule="evenodd" fill-opacity="1" clip-rule="evenodd"/></svg>