<svg width="96" height="96" viewBox="0 0 96 96" xmlns="http://www.w3.org/2000/svg" xmlns:xlink="http://www.w3.org/1999/xlink" fill="none" overflow="hidden"><style>
.MsftOfcThm_Background1_Fill_v2 {
 fill:#FFFFFF; 
}
</style>
<path d="M49.9997 14.9844C49.9997 13.8798 49.1042 12.9844 47.9997 12.9844 46.8951 12.9844 45.9997 13.8798 45.9997 14.9844L45.9997 81.0156C45.9997 82.1202 46.8951 83.0156 47.9997 83.0156 49.1042 83.0156 49.9997 82.1202 49.9997 81.0156L49.9997 14.9844ZM18.25 41.0156C19.3546 41.0156 20.25 41.9111 20.25 43.0156L20.25 52.9844C20.25 54.0889 19.3546 54.9844 18.25 54.9844 17.1454 54.9844 16.25 54.0889 16.25 52.9844L16.25 43.0156C16.25 41.9111 17.1454 41.0156 18.25 41.0156ZM77.7492 41.0156C78.8537 41.0156 79.7492 41.9111 79.7492 43.0156L79.7492 52.9844C79.7492 54.0889 78.8537 54.9844 77.7492 54.9844 76.6446 54.9844 75.7492 54.0889 75.7492 52.9844L75.7492 43.0156C75.7492 41.9111 76.6446 41.0156 77.7492 41.0156ZM38.0832 29.002C39.1877 29.002 40.0832 29.8974 40.0832 31.002L40.0832 64.998C40.0832 66.1026 39.1877 66.998 38.0832 66.998 36.9786 66.998 36.0832 66.1026 36.0832 64.998L36.0832 31.002C36.0832 29.8974 36.9786 29.002 38.0832 29.002ZM59.9162 31.002C59.9162 29.8974 59.0208 29.002 57.9162 29.002 56.8116 29.002 55.9162 29.8974 55.9162 31.002L55.9162 64.998C55.9162 66.1026 56.8116 66.998 57.9162 66.998 59.0208 66.998 59.9162 66.1026 59.9162 64.998L59.9162 31.002ZM28.1667 21C29.2712 21 30.1667 21.8954 30.1667 23L30.1667 73C30.1667 74.1046 29.2712 75 28.1667 75 27.0621 75 26.1667 74.1046 26.1667 73L26.1667 23C26.1667 21.8954 27.0621 21 28.1667 21ZM69.8327 23C69.8327 21.8954 68.9372 21 67.8327 21 66.7281 21 65.8327 21.8954 65.8327 23L65.8327 73C65.8327 74.1046 66.7281 75 67.8327 75 68.9372 75 69.8327 74.1046 69.8327 73L69.8327 23Z" class="MsftOfcThm_Background1_Fill_v2" stroke="none" stroke-width="1" stroke-linecap="butt" stroke-linejoin="miter" stroke-miterlimit="4" fill="#FFFFFF" fill-rule="evenodd" fill-opacity="1" clip-rule="evenodd"/></svg>