<svg width="96" height="96" viewBox="0 0 96 96" xmlns="http://www.w3.org/2000/svg" xmlns:xlink="http://www.w3.org/1999/xlink" fill="none" overflow="hidden"><style>
.MsftOfcThm_Background1_Fill_v2 {
 fill:#FFFFFF; 
}
</style>
<path d="M75.6192 27.2583 79.8523 26.4123C81.5167 26.0807 81.7586 23.797 80.1965 23.1239L76.2329 21.4162C75.7113 21.1897 75.3337 20.7248 75.2208 20.1647L74.3748 15.9316C74.0432 14.2672 71.7595 14.0254 71.0864 15.5874L69.3787 19.5511C69.1522 20.0727 68.6873 20.4503 68.1272 20.5632L63.8941 21.4092C62.2297 21.7408 61.9879 24.0244 63.5499 24.6975L67.5136 26.4052C68.0352 26.6317 68.4128 27.0967 68.5257 27.6567L69.3717 31.8898C69.7033 33.5542 71.9869 33.7961 72.66 32.234L74.3677 28.2704C74.5942 27.7488 75.0592 27.3712 75.6192 27.2583ZM40.643 30.7363 44.1394 30.0375C45.5141 29.7636 45.7139 27.8774 44.4237 27.3215L41.1499 25.911C40.7191 25.724 40.4072 25.3399 40.3139 24.8773L39.6152 21.381C39.3413 20.0062 37.4551 19.8065 36.8992 21.0967L35.4886 24.3705C35.3016 24.8013 34.9176 25.1132 34.455 25.2064L30.9586 25.9052C29.5839 26.1791 29.3841 28.0653 30.6743 28.6212L33.9481 30.0317C34.379 30.2188 34.6908 30.6028 34.7841 31.0654L35.4828 34.5618C35.7567 35.9365 37.6429 36.1362 38.1988 34.8461L39.6094 31.5723C39.7964 31.1414 40.1804 30.8295 40.643 30.7363ZM78.6694 55.2561 75.1731 55.9549C74.7105 56.0481 74.3264 56.36 74.1394 56.7909L72.7289 60.0647C72.173 61.3548 70.2868 61.1551 70.0129 59.7804L69.3141 56.284C69.2209 55.8214 68.909 55.4374 68.4781 55.2503L65.2043 53.8398C63.9142 53.2839 64.1139 51.3977 65.4886 51.1238L68.985 50.425C69.4476 50.3318 69.8316 50.0199 70.0187 49.5891L71.4292 46.3153C71.9851 45.0251 73.8713 45.2248 74.1452 46.5996L74.844 50.0959C74.9372 50.5585 75.2491 50.9426 75.6799 51.1296L78.9537 52.5401C80.2439 53.096 80.0442 54.9822 78.6694 55.2561ZM52.1471 32.871C55.1824 29.8356 60.1037 29.8356 63.139 32.871 66.1744 35.9063 66.1744 40.8276 63.139 43.8629L26.5028 80.4992C23.4675 83.5345 18.5462 83.5345 15.5109 80.4992 12.4755 77.4638 12.4755 72.5425 15.5109 69.5072L52.1471 32.871ZM60.3106 35.6994C58.8374 34.2262 56.4488 34.2262 54.9755 35.6994L48.9174 41.7575 54.2525 47.0926 60.3106 41.0345C61.7839 39.5613 61.7839 37.1727 60.3106 35.6994ZM51.4241 49.921 46.089 44.5859 18.3393 72.3356C16.866 73.8089 16.866 76.1975 18.3393 77.6707 19.8125 79.144 22.2011 79.144 23.6744 77.6707L51.4241 49.921Z" class="MsftOfcThm_Background1_Fill_v2" stroke="none" stroke-width="1" stroke-linecap="butt" stroke-linejoin="miter" stroke-miterlimit="4" fill="#FFFFFF" fill-rule="evenodd" fill-opacity="1" clip-rule="evenodd"/></svg>