<svg width="96" height="96" viewBox="0 0 96 96" xmlns="http://www.w3.org/2000/svg" xmlns:xlink="http://www.w3.org/1999/xlink" fill="none" overflow="hidden"><style>
.MsftOfcThm_Background1_Fill_v2 {
 fill:#FFFFFF; 
}
</style>
<path d="M48 12C40.268 12 34 18.268 34 26L34 42C34 49.732 40.268 56 48 56 55.732 56 62 49.732 62 42L62 26C62 18.268 55.732 12 48 12ZM38 26C38 20.4772 42.4772 16 48 16 53.5228 16 58 20.4772 58 26L58 42C58 47.5228 53.5228 52 48 52 42.4772 52 38 47.5228 38 42L38 26ZM46 67.9242C32.5751 66.903 22 55.6865 22 42L22 39C22 37.8954 22.8954 37 24 37 25.1046 37 26 37.8954 26 39L26 42C26 54.1503 35.8497 64 48 64 60.1503 64 70 54.1503 70 42L70 39C70 37.8954 70.8954 37 72 37 73.1046 37 74 37.8954 74 39L74 42C74 55.6865 63.4249 66.903 50 67.9242L50 76 62 76C63.1046 76 64 76.8954 64 78 64 79.1046 63.1046 80 62 80L34 80C32.8954 80 32 79.1046 32 78 32 76.8954 32.8954 76 34 76L46 76 46 67.9242Z" class="MsftOfcThm_Background1_Fill_v2" stroke="none" stroke-width="1" stroke-linecap="butt" stroke-linejoin="miter" stroke-miterlimit="4" fill="#FFFFFF" fill-rule="evenodd" fill-opacity="1" clip-rule="evenodd"/></svg>