<svg width="96" height="96" viewBox="0 0 96 96" xmlns="http://www.w3.org/2000/svg" xmlns:xlink="http://www.w3.org/1999/xlink" fill="none" overflow="hidden"><style>
.MsftOfcThm_Background1_Fill_v2 {
 fill:#FFFFFF; 
}
</style>
<path d="M22 23.8421C22 23.5443 22.1938 22.9012 23.3969 22.003 24.5638 21.1317 26.3797 20.2623 28.8033 19.497 33.6269 17.9737 40.4144 17 48 17 55.5855 17 62.373 17.9737 67.1967 19.4969 69.6202 20.2622 71.4361 21.1317 72.6031 22.0029 73.8062 22.9012 74 23.5443 74 23.842 74 24.1398 73.8062 24.7829 72.6031 25.6812 71.4361 26.5524 69.6202 27.4219 67.1967 28.1872 62.373 29.7105 55.5855 30.6842 48 30.6842 40.4144 30.6842 33.6269 29.7105 28.8033 28.1872 26.3797 27.4219 24.5638 26.5525 23.3969 25.6812 22.1938 24.783 22 24.1398 22 23.8421ZM68.4012 32.0015C70.5513 31.3225 72.464 30.5105 74 29.5614L74 71.7367C74 72.0344 73.8062 72.6776 72.6031 73.5759 71.4361 74.4471 69.6202 75.3166 67.1967 76.0819 62.373 77.6053 55.5855 78.579 48 78.579 40.4144 78.579 33.6269 77.6053 28.8033 76.0821 26.3797 75.3167 24.5638 74.4473 23.3969 73.5761 22.1938 72.6778 22 72.0347 22 71.7369L22 29.5615C23.5359 30.5106 25.4486 31.3226 27.5987 32.0016 32.909 33.6785 40.1216 34.6842 48 34.6842 55.8783 34.6842 63.0909 33.6785 68.4012 32.0015ZM78 71.7367 78 23.842C78 21.6981 76.6267 20.0151 74.9961 18.7977 73.3293 17.5532 71.0447 16.5174 68.4012 15.6826 63.0909 14.0057 55.8783 13 48 13 40.1216 13 32.909 14.0057 27.5987 15.6826 24.9553 16.5174 22.6707 17.5533 21.0039 18.7977 19.3732 20.0152 18 21.6982 18 23.8421L18 71.7369C18 73.8809 19.3732 75.5638 21.0039 76.7813 22.6707 78.0257 24.9553 79.0616 27.5987 79.8964 32.909 81.5733 40.1216 82.579 48 82.579 55.8783 82.579 63.0909 81.5733 68.4012 79.8963 71.0447 79.0615 73.3293 78.0255 74.9961 76.7811 76.6268 75.5636 78 73.8806 78 71.7367ZM68 43C68 41.8954 67.1046 41 66 41 64.8954 41 64 41.8954 64 43L64 65.8421C64 66.9466 64.8954 67.8421 66 67.8421 67.1046 67.8421 68 66.9466 68 65.8421L68 43Z" class="MsftOfcThm_Background1_Fill_v2" stroke="none" stroke-width="1" stroke-linecap="butt" stroke-linejoin="miter" stroke-miterlimit="4" fill="#FFFFFF" fill-rule="evenodd" fill-opacity="1" clip-rule="evenodd"/></svg>