<svg width="96" height="96" viewBox="0 0 96 96" xmlns="http://www.w3.org/2000/svg" xmlns:xlink="http://www.w3.org/1999/xlink" fill="none" overflow="hidden"><style>
.MsftOfcThm_Background1_Fill_v2 {
 fill:#FFFFFF; 
}
</style>
<path d="M16.25 26.0517C16.25 21.6334 19.8317 18.0517 24.25 18.0517L62 18.0517C66.4183 18.0517 70 21.6334 70 26.0517L70 34.7519C70 35.8565 69.1046 36.7519 68 36.7519 66.8954 36.7519 66 35.8565 66 34.7519L66 26.0517C66 23.8426 64.2091 22.0517 62 22.0517L24.25 22.0517C22.0409 22.0517 20.25 23.8426 20.25 26.0517L20.25 51.7076 30.1353 36.3853C32.1478 33.266 36.7267 33.3163 38.6701 36.4791L38.6718 36.4819 40.4693 39.418C41.0461 40.3601 40.7499 41.5913 39.8079 42.168 38.8658 42.7448 37.6346 42.4486 37.0579 41.5066L35.262 38.5732 35.2613 38.572C34.8589 37.9189 33.9126 37.9089 33.4965 38.5538L22.5123 55.5794C23.0378 55.8332 23.6273 55.9755 24.25 55.9755L36.5625 55.9755C37.6671 55.9755 38.5625 56.871 38.5625 57.9755 38.5625 59.0801 37.6671 59.9755 36.5625 59.9755L24.25 59.9755C19.8317 59.9755 16.25 56.3938 16.25 51.9755L16.25 26.0517ZM56.145 34.4189C57.8019 34.4189 59.145 33.0757 59.145 31.4189 59.145 29.762 57.8019 28.4189 56.145 28.4189 54.4882 28.4189 53.145 29.762 53.145 31.4189 53.145 33.0757 54.4882 34.4189 56.145 34.4189ZM41.5518 47.7499C41.5518 43.3317 45.1335 39.7499 49.5518 39.7499L71.7501 39.7499C76.1684 39.7499 79.7501 43.3317 79.7501 47.7499L79.7501 69.9483C79.7501 74.3666 76.1684 77.9483 71.7501 77.9483L49.5518 77.9483C45.1335 77.9483 41.5518 74.3666 41.5518 69.9483L41.5518 47.7499ZM49.5518 43.7499C47.3426 43.7499 45.5518 45.5408 45.5518 47.7499L45.5518 69.9483C45.5518 72.1574 47.3426 73.9483 49.5518 73.9483L71.7501 73.9483C73.9592 73.9483 75.7501 72.1574 75.7501 69.9483L75.7501 47.7499C75.7501 45.5408 73.9592 43.7499 71.7501 43.7499L49.5518 43.7499ZM56.8174 51.2795 68.0315 57.7117C69.2874 58.4321 69.2853 60.2293 68.0276 60.9467L56.798 67.3524C55.5403 68.0698 53.9704 67.1693 53.9722 65.7315L53.9877 52.8936C53.9894 51.4558 55.5615 50.5591 56.8174 51.2795Z" class="MsftOfcThm_Background1_Fill_v2" stroke="none" stroke-width="1" stroke-linecap="butt" stroke-linejoin="miter" stroke-miterlimit="4" fill="#FFFFFF" fill-rule="evenodd" fill-opacity="1" clip-rule="evenodd"/></svg>