<svg width="97" height="96" viewBox="0 0 97 96" xmlns="http://www.w3.org/2000/svg" xmlns:xlink="http://www.w3.org/1999/xlink" fill="none" overflow="hidden"><style>
.MsftOfcThm_Background1_Fill_v2 {
 fill:#FFFFFF; 
}
</style>
<path d="M26.4272 18.2187C26.4272 17.1142 25.5318 16.2188 24.4272 16.2188 23.3227 16.2188 22.4272 17.1142 22.4272 18.2188L22.4272 77.7812C22.4272 78.8858 23.3227 79.7812 24.4272 79.7812 25.5318 79.7812 26.4272 78.8858 26.4272 77.7812L26.4272 62 67.5991 62C72.0174 62 75.5991 58.4183 75.5991 54L75.5991 28.042C75.5991 23.6237 72.0174 20.042 67.5991 20.042L26.4272 20.042 26.4272 18.2187ZM26.4272 24.042 26.4272 58 67.5991 58C69.8083 58 71.5991 56.2091 71.5991 54L71.5991 28.042C71.5991 25.8329 69.8083 24.042 67.5991 24.042L26.4272 24.042ZM41.4007 33.1512C42.1818 32.3702 43.4481 32.3702 44.2292 33.1512L49.2708 38.1928 54.3123 33.1512C55.0934 32.3702 56.3597 32.3702 57.1408 33.1512 57.9218 33.9323 57.9218 35.1986 57.1408 35.9796L52.0992 41.0212 57.1408 46.0628C57.9218 46.8439 57.9218 48.1102 57.1408 48.8913 56.3597 49.6723 55.0934 49.6723 54.3123 48.8913L49.2708 43.8497 44.2292 48.8913C43.4481 49.6723 42.1818 49.6723 41.4007 48.8913 40.6197 48.1102 40.6197 46.8439 41.4007 46.0628L46.4423 41.0212 41.4007 35.9796C40.6197 35.1986 40.6197 33.9323 41.4007 33.1512Z" class="MsftOfcThm_Background1_Fill_v2" stroke="none" stroke-width="1" stroke-linecap="butt" stroke-linejoin="miter" stroke-miterlimit="4" fill="#FFFFFF" fill-rule="evenodd" fill-opacity="1" clip-rule="evenodd"/></svg>