<svg width="96" height="96" viewBox="0 0 96 96" xmlns="http://www.w3.org/2000/svg" xmlns:xlink="http://www.w3.org/1999/xlink" fill="none" overflow="hidden"><style>
.MsftOfcThm_Background1_Fill_v2 {
 fill:#FFFFFF; 
}
</style>
<path d="M22.2682 14.3969C17.5421 14.3969 13.7108 18.2282 13.7108 22.9544L13.7108 46.9368C13.7108 51.663 17.5421 55.4943 22.2682 55.4943 25.8827 55.4943 28.9737 53.2534 30.2279 50.0852L32.5175 50.0852C35.5592 50.0852 38.3377 51.8101 39.6871 54.5359L47.1515 69.6141C49.1757 73.7029 53.3434 76.2902 57.9059 76.2902L69.1444 76.2902C69.9481 77.9763 71.6682 79.1414 73.6605 79.1414 76.4219 79.1414 78.6605 76.9029 78.6605 74.1414 78.6605 71.38 76.4219 69.1414 73.6605 69.1414 71.553 69.1414 69.7501 70.4452 69.0144 72.2902L57.9059 72.2902C54.8642 72.2902 52.0857 70.5654 50.7363 67.8395L43.2719 52.7613C41.2477 48.6725 37.08 46.0852 32.5175 46.0852L30.8257 46.0852 30.8257 36.8766C31.0201 36.9395 31.2275 36.9736 31.4428 36.9736L39.0115 36.9736C41.0976 36.9736 43.1011 37.7884 44.5951 39.2444L52.1979 46.6539C54.4388 48.8378 57.4441 50.0601 60.5732 50.0601L69.1038 50.0601C69.889 51.7934 71.634 52.9991 73.6606 52.9991 76.4221 52.9991 78.6606 50.7606 78.6606 47.9991 78.6606 45.2377 76.4221 42.9991 73.6606 42.9991 71.5868 42.9991 69.8079 44.2617 69.0505 46.0601L60.5732 46.0601C58.4872 46.0601 56.4836 45.2453 54.9897 43.7893L47.3869 36.3798C45.146 34.1958 42.1406 32.9736 39.0115 32.9736L31.4428 32.9736C31.2275 32.9736 31.0201 33.0076 30.8257 33.0706L30.8257 23.859 69.0764 23.859C69.8479 25.625 71.6101 26.8592 73.6605 26.8592 76.4219 26.8592 78.6605 24.6206 78.6605 21.8592 78.6605 19.0978 76.4219 16.8592 73.6605 16.8592 71.6102 16.8592 69.8482 18.0932 69.0766 19.859L30.4754 19.859C30.4004 19.859 30.3263 19.8632 30.2534 19.8712 29.016 16.6686 25.9074 14.3969 22.2682 14.3969ZM17.7108 22.9544C17.7108 20.4374 19.7512 18.3969 22.2682 18.3969 24.7852 18.3969 26.8257 20.4374 26.8257 22.9544L26.8257 46.9368C26.8257 49.4538 24.7852 51.4943 22.2682 51.4943 19.7512 51.4943 17.7108 49.4538 17.7108 46.9368L17.7108 22.9544Z" class="MsftOfcThm_Background1_Fill_v2" stroke="none" stroke-width="1" stroke-linecap="butt" stroke-linejoin="miter" stroke-miterlimit="4" fill="#FFFFFF" fill-rule="evenodd" fill-opacity="1" clip-rule="evenodd"/></svg>