<svg width="96" height="96" viewBox="0 0 96 96" xmlns="http://www.w3.org/2000/svg" xmlns:xlink="http://www.w3.org/1999/xlink" fill="none" overflow="hidden"><style>
.MsftOfcThm_Background1_Fill_v2 {
 fill:#FFFFFF; 
}
</style>
<path d="M72.875 19.7263 72.8509 19.7263 72.8365 19.7264 48.0325 19.7264 48.0012 19.7263 47.9699 19.7264 23.1249 19.7264C21.33 19.7264 19.8749 21.1815 19.8749 22.9764L19.8749 32.9265C19.8749 34.7214 21.33 36.1765 23.1249 36.1765 24.9198 36.1765 26.3749 34.7214 26.3749 32.9265L26.3749 28.2264C26.3749 27.1218 27.2703 26.2264 28.3749 26.2264L42.7512 26.2264C43.8558 26.2264 44.7512 27.1218 44.7512 28.2264L44.7512 67.4765C44.7512 68.5811 43.8558 69.4765 42.7512 69.4765L38.0497 69.4765C36.2548 69.4765 34.7997 70.9316 34.7997 72.7265 34.7997 74.5215 36.2548 75.9765 38.0497 75.9765L57.9499 75.9765C59.7448 75.9765 61.1999 74.5215 61.1999 72.7265 61.1999 70.9316 59.7448 69.4765 57.9499 69.4765L53.2512 69.4765C52.1466 69.4765 51.2512 68.5811 51.2512 67.4765L51.2512 28.2264C51.2512 27.1218 52.1466 26.2264 53.2512 26.2264L67.625 26.2264C68.7296 26.2264 69.625 27.1218 69.625 28.2264L69.625 32.9263C69.625 34.7212 71.0801 36.1763 72.875 36.1763 74.6699 36.1763 76.125 34.7212 76.125 32.9263L76.125 23.0163 76.1251 23.0014 76.1252 22.9764C76.1252 22.0784 75.7636 21.2686 75.1733 20.6783 75.1364 20.6414 75.0986 20.6054 75.06 20.5703L75.0599 20.5702C74.4813 20.0443 73.7176 19.7263 72.875 19.7263ZM72.8365 15.7264 72.875 15.7263C74.7508 15.7263 76.4642 16.4413 77.7503 17.6102 77.836 17.6881 77.9198 17.768 78.0017 17.8499 79.3115 19.1597 80.1252 20.9749 80.1252 22.9764L80.125 23.0163 80.125 32.9263C80.125 36.9304 76.8791 40.1763 72.875 40.1763 68.871 40.1763 65.625 36.9304 65.625 32.9263L65.625 30.2264 55.2512 30.2264 55.2512 65.4765 57.9499 65.4765C61.9539 65.4765 65.1999 68.7225 65.1999 72.7265 65.1999 76.7306 61.9539 79.9765 57.9499 79.9765L38.0497 79.9765C34.0457 79.9765 30.7997 76.7306 30.7997 72.7265 30.7997 68.7225 34.0457 65.4765 38.0497 65.4765L40.7512 65.4765 40.7512 30.2264 30.3749 30.2264 30.3749 32.9265C30.3749 36.9305 27.1289 40.1765 23.1249 40.1765 19.1208 40.1765 15.8749 36.9305 15.8749 32.9265L15.8749 22.9764C15.8749 18.9723 19.1208 15.7264 23.1249 15.7264L47.9627 15.7264 47.994 15.7263 48.0084 15.7263 48.0397 15.7264 72.8365 15.7264Z" class="MsftOfcThm_Background1_Fill_v2" stroke="none" stroke-width="1" stroke-linecap="butt" stroke-linejoin="miter" stroke-miterlimit="4" fill="#FFFFFF" fill-rule="evenodd" fill-opacity="1" clip-rule="evenodd"/></svg>