<svg width="96" height="96" viewBox="0 0 96 96" xmlns="http://www.w3.org/2000/svg" xmlns:xlink="http://www.w3.org/1999/xlink" fill="none" overflow="hidden"><style>
.MsftOfcThm_Background1_Fill_v2 {
 fill:#FFFFFF; 
}
</style>
<path d="M19 31C19 27.6863 21.6863 25 25 25L54 25C55.1046 25 56 24.1046 56 23 56 21.8954 55.1046 21 54 21L25 21C19.4772 21 15 25.4771 15 31L15 71C15 76.5228 19.4772 81 25 81L65 81C70.5229 81 75 76.5228 75 71L75 42C75 40.8954 74.1046 40 73 40 71.8954 40 71 40.8954 71 42L71 71C71 74.3137 68.3137 77 65 77L25 77C21.6863 77 19 74.3137 19 71L19 31ZM47.5858 48.4801C46.8047 47.6991 46.8047 46.4327 47.5858 45.6517L74.2375 19 64 19C62.8954 19 62 18.1046 62 17 62 15.8954 62.8954 15 64 15L78 15C79.6569 15 81 16.3431 81 18L81 32C81 33.1046 80.1046 34 79 34 77.8954 34 77 33.1046 77 32L77 21.8943 50.4142 48.4801C49.6332 49.2612 48.3668 49.2612 47.5858 48.4801Z" class="MsftOfcThm_Background1_Fill_v2" stroke="none" stroke-width="1" stroke-linecap="butt" stroke-linejoin="miter" stroke-miterlimit="4" fill="#FFFFFF" fill-rule="evenodd" fill-opacity="1" clip-rule="evenodd"/></svg>