<svg width="96" height="96" viewBox="0 0 96 96" xmlns="http://www.w3.org/2000/svg" xmlns:xlink="http://www.w3.org/1999/xlink" fill="none" overflow="hidden"><style>
.MsftOfcThm_Background1_Fill_v2 {
 fill:#FFFFFF; 
}
</style>
<path d="M17.5485 12.8358C16.7674 12.0547 15.5011 12.0547 14.7201 12.8358 13.939 13.6168 13.939 14.8832 14.7201 15.6642L78.6613 79.6055C79.4424 80.3865 80.7087 80.3865 81.4897 79.6055 82.2708 78.8244 82.2708 77.5581 81.4897 76.777L17.5485 12.8358ZM21.9475 42.25C21.9475 55.9543 32.5502 67.1822 46 68.1782L46 76.25 34 76.25C32.8954 76.25 32 77.1454 32 78.25 32 79.3546 32.8954 80.25 34 80.25L62 80.25C63.1046 80.25 64 79.3546 64 78.25 64 77.1454 63.1046 76.25 62 76.25L50 76.25 50 68.1688C51.9563 68.0171 54.6639 67.5987 57.426 66.4939 58.4515 66.0837 58.9504 64.9197 58.5401 63.8942 58.1299 62.8686 56.966 62.3698 55.9404 62.78 52.6674 64.0892 49.4086 64.25 47.9475 64.25 35.7972 64.25 25.9475 54.4003 25.9475 42.25L25.9475 39.25C25.9475 38.1454 25.0521 37.25 23.9475 37.25 22.8429 37.25 21.9475 38.1454 21.9475 39.25L21.9475 42.25ZM37.9293 16.5046C40.1562 14.0722 43.446 12.2812 48 12.2812 53.3753 12.2812 56.9571 14.7247 59.1297 17.744 61.2327 20.6666 62 24.0903 62 26.2969L61.9999 26.3118C61.9641 31.1126 61.9901 39.356 61.998 41.8465L61.998 41.8595C61.9992 42.2505 62 42.497 62 42.5625 62 44.5712 61.4243 46.5017 60.7331 48.0717 60.288 49.0827 59.1077 49.5414 58.0968 49.0964 57.0858 48.6513 56.6271 47.471 57.0722 46.4601 57.6241 45.2063 58 43.8395 58 42.5625 58 42.5037 57.9993 42.271 57.9981 41.8987 57.9904 39.4754 57.9639 31.1345 58 26.2899 57.9982 24.8234 57.4398 22.244 55.8829 20.0803 54.3929 18.0097 51.9747 16.2812 48 16.2812 44.6152 16.2812 42.3812 17.5655 40.8797 19.2057 39.3266 20.9021 38.4881 23.0655 38.1599 24.7942 37.9538 25.8793 36.9071 26.592 35.8219 26.386 34.7367 26.1799 34.0241 25.1332 34.2301 24.048 34.6594 21.7873 35.754 18.8808 37.9293 16.5046ZM38.1306 43.894C38.0203 42.7949 37.0399 41.9934 35.9408 42.1038 34.8418 42.2141 34.0403 43.1945 34.1506 44.2935 34.3954 46.731 35.6734 49.4556 37.6428 51.6488 39.6348 53.8671 42.475 55.6967 45.9684 56.0817 47.0663 56.2027 48.0545 55.4108 48.1755 54.3129 48.2965 53.2149 47.5045 52.2268 46.4066 52.1058 44.0875 51.8502 42.0996 50.6251 40.6189 48.9762 39.1157 47.3022 38.2765 45.3471 38.1306 43.894ZM74 39.25C74 38.1454 73.1046 37.25 72 37.25 70.8954 37.25 70 38.1454 70 39.25 70 43.6847 69.6494 46.7005 69.0016 49.0182 68.366 51.292 67.4208 52.9789 66.0938 54.7292 65.4264 55.6093 65.599 56.8639 66.4792 57.5312 67.3593 58.1986 68.6139 58.026 69.2812 57.1458 70.8448 55.0836 72.0559 52.9502 72.8539 50.095 73.6397 47.2838 74 43.8622 74 39.25Z" class="MsftOfcThm_Background1_Fill_v2" stroke="none" stroke-width="1" stroke-linecap="butt" stroke-linejoin="miter" stroke-miterlimit="4" fill="#FFFFFF" fill-rule="evenodd" fill-opacity="1" clip-rule="evenodd"/></svg>