<svg width="96" height="96" viewBox="0 0 96 96" xmlns="http://www.w3.org/2000/svg" xmlns:xlink="http://www.w3.org/1999/xlink" fill="none" overflow="hidden"><style>
.MsftOfcThm_Background1_Fill_v2 {
 fill:#FFFFFF; 
}
</style>
<path d="M68.5158 8.83525C68.2804 7.75604 67.2148 7.07193 66.1356 7.30726 65.0564 7.54259 64.3723 8.60823 64.6076 9.68744L66.4735 18.2443C61.0879 14.8638 54.7153 12.9082 47.8897 12.9082 37.3912 12.9082 27.9705 17.533 21.5583 24.8498 20.8303 25.6805 20.9136 26.9441 21.7443 27.6721 22.575 28.4001 23.8386 28.3168 24.5666 27.4861 30.2515 20.9992 38.5916 16.9082 47.8897 16.9082 54.3157 16.9082 60.2812 18.8615 65.2302 22.2077L55.789 24.6114C54.7186 24.8839 54.0717 25.9725 54.3442 27.043 54.6168 28.1134 55.7054 28.7602 56.7758 28.4877L70.086 25.0991C71.1303 24.8332 71.7762 23.7877 71.5466 22.7348L68.5158 8.83525ZM77.6372 38.6822C77.3073 37.628 77.8945 36.506 78.9487 36.1762 80.0029 35.8464 81.1248 36.4336 81.4547 37.4877 82.4892 40.7941 83.0459 44.3092 83.0459 47.9507 83.0459 61.6589 75.1659 73.5225 63.6935 79.266L71.9275 82.1253C72.9709 82.4877 73.5231 83.6273 73.1608 84.6707 72.7984 85.7142 71.6588 86.2663 70.6153 85.904L57.1764 81.2372C56.1584 80.8837 55.6035 79.7872 55.9216 78.7576L59.9756 65.6348C60.3016 64.5794 61.4215 63.9882 62.4768 64.3142 63.5322 64.6403 64.1234 65.7601 63.7974 66.8155L60.909 76.1649C71.6122 71.2772 79.0459 60.4798 79.0459 47.9507 79.0459 44.719 78.5521 41.6064 77.6372 38.6822ZM13.2035 44.2293 6.32759 49.6535C5.46037 50.3376 4.20277 50.1892 3.51866 49.322 2.83454 48.4547 2.98298 47.1971 3.85019 46.513L15.0194 37.702C15.8655 37.0346 17.0882 37.1575 17.7845 37.98L26.659 48.4627C27.3727 49.3057 27.2679 50.5677 26.4249 51.2814 25.5818 51.9951 24.3198 51.8902 23.6061 51.0472L17.3112 43.6115C16.4699 49.526 17.3259 55.7443 20.1395 61.5214 24.2107 69.8808 31.5406 75.5876 39.8618 77.8582 40.9274 78.149 41.5555 79.2486 41.2648 80.3142 40.974 81.3798 39.8744 82.0079 38.8088 81.7171 29.4231 79.156 21.1402 72.7115 16.5433 63.2729 13.5547 57.1365 12.5225 50.5512 13.2035 44.2293Z" class="MsftOfcThm_Background1_Fill_v2" stroke="none" stroke-width="1" stroke-linecap="butt" stroke-linejoin="miter" stroke-miterlimit="4" fill="#FFFFFF" fill-rule="evenodd" fill-opacity="1" clip-rule="evenodd"/></svg>