<svg width="96" height="96" viewBox="0 0 96 96" xmlns="http://www.w3.org/2000/svg" xmlns:xlink="http://www.w3.org/1999/xlink" fill="none" overflow="hidden"><style>
.MsftOfcThm_Background1_Fill_v2 {
 fill:#FFFFFF; 
}
</style>
<path d="M45.3103 13.04C42.1773 13.04 39.5665 15.4526 39.3262 18.5766L39.3261 18.5768 38.7936 25.5086C36.7937 26.3263 34.9288 27.4027 33.2412 28.695L26.9852 25.6516 26.9816 25.6498C24.1719 24.2898 20.7645 25.2998 19.1823 28.023L19.1803 28.0265 16.4669 32.6652 16.4653 32.6679C14.8718 35.377 15.6582 38.8504 18.2179 40.6317L18.2207 40.6336 23.926 44.5893C23.7684 45.709 23.6903 46.8508 23.6903 48.01 23.6903 49.1779 23.7748 50.3149 23.9306 51.4276L18.2223 55.3853 18.221 55.3862 18.2207 55.3864C15.6394 57.1736 14.8779 60.6406 16.4639 63.3499L16.4644 63.3507 19.1839 67.9999 19.1869 68.0049C20.7726 70.6977 24.1593 71.7364 26.9816 70.3702L26.9852 70.3685 33.2412 67.325C34.9288 68.6174 36.7937 69.6938 38.7936 70.5115L39.3261 77.4432 39.3262 77.4434C39.5665 80.5675 42.1773 82.98 45.3103 82.98L50.6903 82.98C53.8232 82.98 56.4341 80.5675 56.6744 77.4434L56.6744 77.4432 57.2069 70.5115C59.2068 69.6938 61.0717 68.6174 62.7593 67.325L69.0153 70.3685 69.0189 70.3702C71.8286 71.7303 75.2361 70.7203 76.8182 67.9971L76.8202 67.9936 79.5336 63.3549 79.5351 63.3524C81.1288 60.6432 80.3424 57.1697 77.7827 55.3884L77.7798 55.3864 72.0745 51.4307C72.2321 50.3111 72.3103 49.1693 72.3103 48.01 72.3103 46.8422 72.2257 45.7052 72.07 44.5925L77.7782 40.6348C80.3608 38.848 81.1229 35.38 79.5366 32.6702L79.5361 32.6693 76.8166 28.0202 76.8136 28.0152C75.2279 25.3224 71.8412 24.2837 69.0189 25.6498L69.0153 25.6516 62.7593 28.695C61.0717 27.4027 59.2068 26.3263 57.2069 25.5086L56.6744 18.5768 56.6744 18.5766C56.4341 15.4526 53.8232 13.04 50.6903 13.04L45.3103 13.04ZM43.3144 18.8834 43.3144 18.8832C43.3942 17.8474 44.2633 17.04 45.3103 17.04L50.6903 17.04C51.7373 17.04 52.6065 17.8475 52.6861 18.8834L53.3161 27.0832C53.3772 27.8775 53.9037 28.5598 54.6565 28.8202 57.0754 29.6568 59.2866 30.9395 61.1893 32.5691 61.7942 33.0872 62.6489 33.1969 63.3652 32.8485L70.7616 29.2502 70.7631 29.2495C71.6998 28.797 72.8313 29.1377 73.3657 30.043L73.3669 30.0449 76.0839 34.6899 76.0844 34.6907C76.6174 35.6008 76.3594 36.7523 75.5023 37.3453L75.5007 37.3464 68.7507 42.0264C68.1005 42.4773 67.7771 43.2691 67.9259 44.0462 68.1741 45.3421 68.3103 46.656 68.3103 48.01 68.3103 49.3745 68.1821 50.6929 67.9291 51.9578 67.7728 52.7395 68.0956 53.5394 68.7507 53.9936L75.4978 58.6716 75.5001 58.6732C76.3578 59.2718 76.6108 60.4355 76.0869 61.3252L76.0839 61.3302 73.3639 65.9802 73.3603 65.9865C72.8418 66.8802 71.7117 67.2289 70.7628 66.7704L70.7616 66.7698 63.3652 63.1716C62.649 62.8231 61.7942 62.9329 61.1893 63.451 59.2866 65.0806 57.0754 66.3633 54.6565 67.1999 53.9037 67.4603 53.3772 68.1426 53.3161 68.9368L52.6861 77.1366C52.6065 78.1726 51.7373 78.98 50.6903 78.98L45.3103 78.98C44.2633 78.98 43.3942 78.1727 43.3144 77.1368L43.3144 77.1366 42.6844 68.9368C42.6234 68.1426 42.0968 67.4603 41.344 67.1999 38.9251 66.3633 36.7139 65.0806 34.8112 63.451 34.2063 62.9329 33.3516 62.8231 32.6353 63.1716L25.2389 66.7698 25.2377 66.7704C24.301 67.2231 23.1694 66.8825 22.6349 65.9773L22.6336 65.9752 19.9166 61.3302 19.9161 61.3293C19.3831 60.4193 19.6411 59.2678 20.4982 58.6748L20.4998 58.6736 27.2498 53.9936C27.9001 53.5428 28.2234 52.751 28.0746 51.9739 27.8264 50.6779 27.6903 49.3641 27.6903 48.01 27.6903 46.6456 27.8184 45.3272 28.0714 44.0623 28.2278 43.2806 27.9049 42.4807 27.2498 42.0264L20.5027 37.3484 20.5017 37.3478C19.643 36.7494 19.3894 35.5851 19.9136 34.6949L19.9166 34.6899 22.6366 30.0399 22.6402 30.0336C23.1587 29.1399 24.2886 28.7912 25.2374 29.2495L25.2389 29.2502 32.6353 32.8485C33.3516 33.1969 34.2063 33.0872 34.8112 32.5691 36.7139 30.9395 38.9251 29.6568 41.344 28.8202 42.0968 28.5598 42.6234 27.8775 42.6844 27.0832L43.3144 18.8834ZM42.7892 48.0201C42.7892 45.1427 45.1218 42.8101 47.9992 42.8101 50.8766 42.8101 53.2092 45.1427 53.2092 48.0201 53.2092 50.8975 50.8766 53.2301 47.9992 53.2301 45.1218 53.2301 42.7892 50.8975 42.7892 48.0201ZM47.9992 38.8101C42.9126 38.8101 38.7892 42.9335 38.7892 48.0201 38.7892 53.1066 42.9126 57.2301 47.9992 57.2301 53.0857 57.2301 57.2092 53.1066 57.2092 48.0201 57.2092 42.9335 53.0857 38.8101 47.9992 38.8101Z" class="MsftOfcThm_Background1_Fill_v2" stroke="none" stroke-width="1" stroke-linecap="butt" stroke-linejoin="miter" stroke-miterlimit="4" fill="#FFFFFF" fill-rule="evenodd" fill-opacity="1" clip-rule="evenodd"/></svg>