<svg width="96" height="96" viewBox="0 0 96 96" xmlns="http://www.w3.org/2000/svg" xmlns:xlink="http://www.w3.org/1999/xlink" fill="none" overflow="hidden"><style>
.MsftOfcThm_Background1_Fill_v2 {
 fill:#FFFFFF; 
}
</style>
<path d="M24.0423 22.9502C21.4685 22.9502 19.7521 25.2084 19.7521 27.5113L19.7521 31.914 19.4619 31.914C14.3584 31.914 10.5912 36.4655 10.5912 41.5973L10.5912 63.3665C10.5912 68.4983 14.3584 73.0498 19.4619 73.0498L54.3379 73.0498C55.4425 73.0498 56.3379 72.1544 56.3379 71.0498 56.3379 69.9452 55.4425 69.0498 54.3379 69.0498L19.4619 69.0498C16.9763 69.0498 14.5912 66.7214 14.5912 63.3665L14.5912 41.5973C14.5912 38.2424 16.9763 35.914 19.4619 35.914L21.7521 35.914C22.8566 35.914 23.7521 35.0186 23.7521 33.914L23.7521 27.5113C23.7521 27.2867 23.8332 27.1235 23.9137 27.0335 23.9892 26.9491 24.0372 26.9501 24.042 26.9502L35.4936 26.9502C35.4984 26.9501 35.5464 26.9491 35.6219 27.0335 35.7023 27.1235 35.7835 27.2867 35.7835 27.5113L35.7835 33.914C35.7835 35.0186 36.6789 35.914 37.7835 35.914L46.9443 35.914C48.0489 35.914 48.9443 35.0186 48.9443 33.914L48.9443 27.5113C48.9443 27.2867 49.0255 27.1235 49.106 27.0335 49.1814 26.9491 49.2294 26.9501 49.2343 26.9502L60.6858 26.9502C60.6906 26.9501 60.7387 26.9491 60.8141 27.0335 60.8946 27.1235 60.9758 27.2867 60.9758 27.5113L60.9758 33.914C60.9758 35.0186 61.8712 35.914 62.9758 35.914L65.266 35.914C67.7515 35.914 70.1366 38.2424 70.1366 41.5973L70.1366 42.0625C70.1366 43.167 71.032 44.0625 72.1365 44.0625 73.2411 44.0625 74.1366 43.1671 74.1366 42.0625L74.1366 41.5973C74.1366 36.4655 70.3695 31.914 65.266 31.914L64.9758 31.914 64.9758 27.5113C64.9758 25.2084 63.2593 22.9502 60.6856 22.9502L49.2345 22.9502C46.6607 22.9502 44.9443 25.2084 44.9443 27.5113L44.9443 31.914 39.7835 31.914 39.7835 27.5113C39.7835 25.2084 38.0671 22.9502 35.4933 22.9502L24.0423 22.9502ZM84.9494 66.1008 81.9296 64.007C82.0549 63.3807 82.1175 62.732 82.1175 62.0654 82.1175 61.3988 82.0504 60.7546 81.9296 60.1238L84.9494 58.0301C85.7189 57.4977 85.947 56.4643 85.4728 55.6545L84.256 53.5742C83.7817 52.7689 82.7707 52.4603 81.9296 52.8674L78.619 54.4779C77.684 53.6771 76.5969 53.0463 75.4069 52.6347L75.125 48.9662C75.0534 48.0357 74.275 47.3154 73.34 47.3154L70.9331 47.3154C69.9981 47.3154 69.2196 48.0357 69.1481 48.9662L68.8662 52.6347C67.6762 53.0463 66.5891 53.6771 65.654 54.4779L62.3435 52.8674C61.5024 52.4603 60.4869 52.7645 60.0171 53.5742L58.8002 55.6545C58.326 56.4598 58.5587 57.4977 59.3237 58.0301L62.3435 60.1238C62.2182 60.7501 62.1556 61.3988 62.1556 62.0654 62.1556 62.732 62.2227 63.3762 62.3435 64.007L59.3237 66.1008C58.5542 66.6331 58.326 67.6666 58.8002 68.4763L60.0171 70.5566C60.4913 71.3619 61.5024 71.6706 62.3435 71.2635L65.654 69.6529C66.5891 70.4537 67.6762 71.0845 68.8662 71.4961L69.1481 75.1646C69.2196 76.0951 69.9981 76.8154 70.9331 76.8154L73.34 76.8154C74.275 76.8154 75.0534 76.0951 75.125 75.1646L75.4069 71.4961C76.5969 71.0845 77.684 70.4537 78.619 69.6529L81.9296 71.2635C82.7707 71.6706 83.7862 71.3664 84.256 70.5566L85.4728 68.4763C85.947 67.6711 85.7144 66.6331 84.9494 66.1008ZM72.136 65.2952C73.9174 65.2952 75.3616 63.8511 75.3616 62.0696 75.3616 60.2882 73.9174 58.8441 72.136 58.8441 70.3546 58.8441 68.9104 60.2882 68.9104 62.0696 68.9104 63.8511 70.3546 65.2952 72.136 65.2952Z" class="MsftOfcThm_Background1_Fill_v2" stroke="none" stroke-width="1" stroke-linecap="butt" stroke-linejoin="miter" stroke-miterlimit="4" fill="#FFFFFF" fill-rule="evenodd" fill-opacity="1" clip-rule="evenodd"/></svg>