<svg width="96" height="96" viewBox="0 0 96 96" xmlns="http://www.w3.org/2000/svg" xmlns:xlink="http://www.w3.org/1999/xlink" fill="none" overflow="hidden"><style>
.MsftOfcThm_Background1_Fill_v2 {
 fill:#FFFFFF; 
}
</style>
<path d="M24 27.3342C24 24.0583 26.1812 22 28.1946 22L33.6768 22C35.6901 22 37.8713 24.0583 37.8713 27.3342L37.8713 68.6626C37.8713 71.9385 35.6901 73.9968 33.6768 73.9968L28.1946 73.9968C26.1812 73.9968 24 71.9385 24 68.6626L24 27.3342ZM28.1946 18C23.3656 18 20 22.509 20 27.3342L20 68.6626C20 73.4879 23.3656 77.9968 28.1946 77.9968L33.6768 77.9968C38.5058 77.9968 41.8713 73.4879 41.8713 68.6626L41.8713 27.3342C41.8713 22.509 38.5058 18 33.6768 18L28.1946 18ZM58.5513 27.3342C58.5513 24.0583 60.7326 22 62.7459 22L68.2281 22C70.2414 22 72.4227 24.0583 72.4227 27.3342L72.4227 68.6626C72.4227 71.9385 70.2414 73.9968 68.2281 73.9968L62.7459 73.9968C60.7326 73.9968 58.5513 71.9385 58.5513 68.6626L58.5513 27.3342ZM62.7459 18C57.9169 18 54.5513 22.509 54.5513 27.3342L54.5513 68.6626C54.5513 73.4879 57.9169 77.9968 62.7459 77.9968L68.2281 77.9968C73.0571 77.9968 76.4227 73.4879 76.4227 68.6626L76.4227 27.3342C76.4227 22.509 73.0571 18 68.2281 18L62.7459 18Z" class="MsftOfcThm_Background1_Fill_v2" stroke="none" stroke-width="1" stroke-linecap="butt" stroke-linejoin="miter" stroke-miterlimit="4" fill="#FFFFFF" fill-rule="evenodd" fill-opacity="1" clip-rule="evenodd"/></svg>