<svg width="160" height="160" viewBox="0 0 160 160" xmlns="http://www.w3.org/2000/svg" xmlns:xlink="http://www.w3.org/1999/xlink" fill="none" overflow="hidden"><style>
.MsftOfcThm_Background1_Fill_v2 {
 fill:#FFFFFF; 
}
</style>
<path d="M85.722 35.812C85.722 28.405 76.782 24.679 71.522 29.894L52.086 49.164C51.4616 49.7828 50.6181 50.13 49.739 50.13L35.774 50.13C30.252 50.13 25.774 54.608 25.774 60.13L25.774 100.167C25.774 105.69 30.252 110.167 35.774 110.167L49.758 110.167C50.632 110.167 51.47 110.51 52.093 111.122L71.552 130.221C76.823 135.395 85.722 131.66 85.722 124.274L85.722 35.812ZM76.216 34.628C77.268 33.585 79.056 34.331 79.056 35.812L79.056 124.274C79.056 125.751 77.276 126.498 76.222 125.463L56.763 106.364 56.712 106.314 56.712 53.964 56.78 53.898 76.216 34.628ZM50.046 56.792 50.046 103.505C49.95 103.502 49.854 103.501 49.758 103.501L35.774 103.501C33.9331 103.5 32.441 102.008 32.441 100.167L32.441 60.13C32.441 58.2892 33.9332 56.797 35.774 56.797L49.74 56.797C49.842 56.797 49.944 56.796 50.046 56.792ZM98.684 57.337C97.213 56.2302 95.1233 56.5255 94.0165 57.9965 92.9097 59.4675 93.205 61.5572 94.676 62.664 99.924 66.613 103.307 72.884 103.307 79.944 103.307 87.064 99.868 93.379 94.547 97.322 93.0433 98.3847 92.6858 100.465 93.7485 101.969 94.8112 103.473 96.8917 103.83 98.3954 102.767 98.4363 102.738 98.4765 102.709 98.516 102.678 105.461 97.532 109.974 89.265 109.974 79.945 109.974 70.7 105.534 62.491 98.684 57.337ZM115.358 42.122C113.887 41.0152 111.797 41.3105 110.69 42.7815 109.584 44.2525 109.879 46.3422 111.35 47.449 121.199 54.861 127.558 66.639 127.558 79.902 127.558 93.275 121.095 105.137 111.108 112.537 109.629 113.633 109.318 115.72 110.415 117.2 111.511 118.679 113.598 118.989 115.077 117.893 126.688 109.29 134.225 95.476 134.225 79.903 134.225 64.455 126.809 50.739 115.358 42.122Z" class="MsftOfcThm_Background1_Fill_v2" stroke="none" stroke-width="1" stroke-linecap="butt" stroke-linejoin="miter" stroke-miterlimit="4" fill="#FFFFFF" fill-rule="evenodd" fill-opacity="1" clip-rule="evenodd"/></svg>