<svg width="96" height="96" viewBox="0 0 96 96" xmlns="http://www.w3.org/2000/svg" xmlns:xlink="http://www.w3.org/1999/xlink" fill="none" overflow="hidden"><style>
.MsftOfcThm_Background1_Fill_v2 {
 fill:#FFFFFF; 
}
</style>
<path d="M48 17C30.8792 17 17 30.8792 17 48 17 65.1208 30.8792 79 48 79 65.1208 79 79 65.1208 79 48 79 30.8792 65.1208 17 48 17ZM13 48C13 28.67 28.67 13 48 13 67.33 13 83 28.67 83 48 83 67.33 67.33 83 48 83 28.67 83 13 67.33 13 48ZM37.4295 37.4286C38.2106 36.6475 39.4769 36.6475 40.258 37.4286L48.368 45.5386 56.478 37.4286C57.2591 36.6475 58.5254 36.6475 59.3064 37.4286 60.0875 38.2096 60.0875 39.4759 59.3064 40.257L51.1964 48.367 59.3064 56.477C60.0875 57.2581 60.0875 58.5244 59.3064 59.3055 58.5254 60.0865 57.2591 60.0865 56.478 59.3055L48.368 51.1954 40.258 59.3055C39.4769 60.0865 38.2106 60.0865 37.4295 59.3055 36.6485 58.5244 36.6485 57.2581 37.4295 56.477L45.5396 48.367 37.4295 40.257C36.6485 39.4759 36.6485 38.2096 37.4295 37.4286Z" class="MsftOfcThm_Background1_Fill_v2" stroke="none" stroke-width="1" stroke-linecap="butt" stroke-linejoin="miter" stroke-miterlimit="4" fill="#FFFFFF" fill-rule="evenodd" fill-opacity="1" clip-rule="evenodd"/></svg>