<svg width="96" height="96" viewBox="0 0 96 96" xmlns="http://www.w3.org/2000/svg" xmlns:xlink="http://www.w3.org/1999/xlink" fill="none" overflow="hidden"><style>
.MsftOfcThm_Background1_Fill_v2 {
 fill:#FFFFFF; 
}
</style>
<path d="M10 25.4229C10 19.5378 14.8024 14.9229 20.6405 14.9229L75.3595 14.9229C81.1976 14.9229 86 19.5378 86 25.4229L86 53.4229C86 59.3079 81.1976 63.9229 75.3595 63.9229L52.7386 63.9229 34.0721 79.886 34.0692 79.8885C30.9162 82.6009 25.9693 80.3814 26.0001 76.1744 26.0273 72.4518 26.0205 67.739 26.0076 63.9229L20.6405 63.9229C14.8024 63.9229 10 59.3079 10 53.4229L10 25.4229ZM20.6405 18.9229C16.9346 18.9229 14 21.8231 14 25.4229L14 53.4229C14 57.0226 16.9346 59.9229 20.6405 59.9229L29.9917 59.9229 30 61.9145C30.0169 65.9662 30.0324 71.7752 29.9999 76.2037 29.9947 76.9205 30.8694 77.3655 31.4613 76.8556L31.4668 76.8508 50.7001 60.4029 51.2614 59.9229 75.3595 59.9229C79.0654 59.9229 82 57.0226 82 53.4229L82 25.4229C82 21.8231 79.0654 18.9229 75.3595 18.9229L20.6405 18.9229ZM28 34C28 32.8954 28.8954 32 30 32L66 32C67.1046 32 68 32.8954 68 34 68 35.1046 67.1046 36 66 36L30 36C28.8954 36 28 35.1046 28 34ZM30 44C28.8954 44 28 44.8954 28 46 28 47.1046 28.8954 48 30 48L66 48C67.1046 48 68 47.1046 68 46 68 44.8954 67.1046 44 66 44L30 44Z" class="MsftOfcThm_Background1_Fill_v2" stroke="none" stroke-width="1" stroke-linecap="butt" stroke-linejoin="miter" stroke-miterlimit="4" fill="#FFFFFF" fill-rule="evenodd" fill-opacity="1" clip-rule="evenodd"/></svg>