<svg width="96" height="96" viewBox="0 0 96 96" xmlns="http://www.w3.org/2000/svg" xmlns:xlink="http://www.w3.org/1999/xlink" fill="none" overflow="hidden"><style>
.MsftOfcThm_Background1_Fill_v2 {
 fill:#FFFFFF; 
}
</style>
<path d="M48.0001 13.2341C49.1047 13.2341 50.0001 14.1296 50.0001 15.2341L50.0001 19.8787C50.0001 20.9833 49.1047 21.8787 48.0001 21.8787 46.8956 21.8787 46.0001 20.9833 46.0001 19.8787L46.0001 15.2341C46.0001 14.1296 46.8956 13.2341 48.0001 13.2341ZM47.9998 33.4518C39.9647 33.4518 33.451 39.9655 33.451 48.0005 33.451 56.0356 39.9647 62.5493 47.9998 62.5493 56.0348 62.5493 62.5485 56.0356 62.5485 48.0005 62.5485 39.9655 56.0348 33.4518 47.9998 33.4518ZM29.451 48.0005C29.451 37.7563 37.7556 29.4518 47.9998 29.4518 58.244 29.4518 66.5485 37.7563 66.5485 48.0005 66.5485 58.2447 58.244 66.5493 47.9998 66.5493 37.7556 66.5493 29.451 58.2447 29.451 48.0005ZM50.0003 76.1209C50.0003 75.0164 49.1048 74.1209 48.0003 74.1209 46.8957 74.1209 46.0003 75.0164 46.0003 76.1209L46.0003 80.7655C46.0003 81.8701 46.8957 82.7655 48.0003 82.7655 49.1048 82.7655 50.0003 81.8701 50.0003 80.7655L50.0003 76.1209ZM82.7659 47.9999C82.7659 49.1044 81.8704 49.9999 80.7659 49.9999L76.1213 49.9999C75.0167 49.9999 74.1213 49.1044 74.1213 47.9999 74.1213 46.8953 75.0167 45.9999 76.1213 45.9999L80.7659 45.9999C81.8704 45.9999 82.7659 46.8953 82.7659 47.9999ZM19.8792 49.9999C20.9838 49.9999 21.8792 49.1044 21.8792 47.9999 21.8792 46.8953 20.9838 45.9999 19.8792 45.9999L15.2346 45.9999C14.1301 45.9999 13.2346 46.8953 13.2346 47.9999 13.2346 49.1044 14.1301 49.9999 15.2346 49.9999L19.8792 49.9999ZM72.583 23.4161C73.3641 24.1972 73.3641 25.4635 72.583 26.2446L69.2988 29.5288C68.5177 30.3098 67.2514 30.3098 66.4704 29.5288 65.6893 28.7477 65.6893 27.4814 66.4704 26.7003L69.7546 23.4161C70.5356 22.6351 71.802 22.6351 72.583 23.4161ZM29.5293 69.2978C30.3103 68.5167 30.3103 67.2504 29.5293 66.4694 28.7482 65.6883 27.4819 65.6883 26.7009 66.4694L23.4166 69.7536C22.6356 70.5346 22.6356 71.801 23.4166 72.582 24.1977 73.3631 25.464 73.3631 26.2451 72.582L29.5293 69.2978ZM23.4164 23.4162C22.6354 24.1972 22.6354 25.4636 23.4164 26.2446L26.7007 29.5288C27.4817 30.3099 28.748 30.3099 29.5291 29.5288 30.3101 28.7478 30.3101 27.4814 29.5291 26.7004L26.2449 23.4162C25.4638 22.6351 24.1975 22.6351 23.4164 23.4162ZM66.4703 69.2978C65.6892 68.5167 65.6892 67.2504 66.4703 66.4694 67.2513 65.6883 68.5176 65.6883 69.2987 66.4694L72.5829 69.7536C73.3639 70.5346 73.3639 71.801 72.5829 72.582 71.8018 73.3631 70.5355 73.3631 69.7545 72.582L66.4703 69.2978Z" class="MsftOfcThm_Background1_Fill_v2" stroke="none" stroke-width="1" stroke-linecap="butt" stroke-linejoin="miter" stroke-miterlimit="4" fill="#FFFFFF" fill-rule="evenodd" fill-opacity="1" clip-rule="evenodd"/></svg>