<svg width="96" height="96" viewBox="0 0 96 96" xmlns="http://www.w3.org/2000/svg" xmlns:xlink="http://www.w3.org/1999/xlink" fill="none" overflow="hidden"><style>
.MsftOfcThm_Background1_Fill_v2 {
 fill:#FFFFFF; 
}
</style>
<path d="M46.2665 22.2745C47.0356 20.9375 48.9646 20.9376 49.7337 22.2745L57.711 36.1417 48.4836 33.8434C47.4118 33.5765 46.3265 34.2289 46.0595 35.3007 45.7926 36.3726 46.445 37.4579 47.5169 37.7248L61.0148 41.0868C61.5739 41.3272 62.2355 41.3104 62.8036 40.9836 63.3326 40.6793 63.67 40.1699 63.7731 39.6134L67.5061 26.5679C67.8099 25.506 67.1954 24.3988 66.1334 24.0949 65.0715 23.791 63.9643 24.4055 63.6604 25.4675L61.1772 34.1454 53.2009 20.2799C50.8936 16.2691 45.1065 16.2691 42.7992 20.2799L32.4602 38.2527C31.9094 39.2101 32.2391 40.4328 33.1965 40.9836 34.154 41.5344 35.3767 41.2047 35.9274 40.2473L46.2665 22.2745ZM78.7884 72.7546C79.561 74.088 78.5989 75.7573 77.0579 75.7573L61.0153 75.7573 67.6547 68.8788C68.4218 68.084 68.3994 66.8179 67.6046 66.0508 66.8099 65.2837 65.5437 65.3061 64.7766 66.1008L55.0369 76.1914C54.5764 76.5579 54.2812 77.1231 54.2812 77.7573 54.2812 78.476 54.6603 79.1062 55.2294 79.4587L64.4442 88.9904C65.2119 89.7846 66.4781 89.806 67.2722 89.0383 68.0664 88.2705 68.0878 87.0044 67.32 86.2102L61.0817 79.7573 77.0579 79.7573C81.6809 79.7573 84.5671 74.7492 82.2494 70.7492L71.8477 52.798C71.2939 51.8423 70.0702 51.5165 69.1145 52.0703 68.1588 52.6241 67.833 53.8478 68.3867 54.8035L78.7884 72.7546ZM17.207 72.7737C16.4365 74.1083 17.4012 75.7762 18.9422 75.7737L39.6892 75.7412C40.7937 75.7395 41.6906 76.6335 41.6923 77.7381 41.694 78.8426 40.8 79.7395 39.6954 79.7412L18.9485 79.7737C14.3255 79.781 11.4314 74.7774 13.7429 70.7737L21.7309 56.9381 13.0234 59.1142C11.9518 59.382 10.866 58.7304 10.5982 57.6588 10.3304 56.5872 10.982 55.5014 12.0536 55.2336L24.9151 52.0193C25.5051 51.7024 26.2407 51.6891 26.8633 52.0485 27.4128 52.3658 27.7548 52.9045 27.8417 53.4869L31.7104 66.9663C32.0151 68.028 31.4014 69.1357 30.3397 69.4404 29.278 69.7451 28.1703 69.1314 27.8656 68.0697L25.2282 58.8806 17.207 72.7737Z" class="MsftOfcThm_Background1_Fill_v2" stroke="none" stroke-width="1" stroke-linecap="butt" stroke-linejoin="miter" stroke-miterlimit="4" fill="#FFFFFF" fill-rule="evenodd" fill-opacity="1" clip-rule="evenodd"/></svg>