<svg width="96" height="96" viewBox="0 0 96 96" xmlns="http://www.w3.org/2000/svg" xmlns:xlink="http://www.w3.org/1999/xlink" fill="none" overflow="hidden"><style>
.MsftOfcThm_Background1_Fill_v2 {
 fill:#FFFFFF; 
}
</style>
<path d="M79.4209 18.667C79.4209 21.4284 77.1823 23.667 74.4209 23.667 71.6595 23.667 69.4209 21.4284 69.4209 18.667 69.4209 15.9056 71.6595 13.667 74.4209 13.667 77.1823 13.667 79.4209 15.9056 79.4209 18.667ZM71.6351 47.7235C70.5351 47.6233 69.7246 46.6503 69.8248 45.5503 70.4506 38.683 67.133 31.7619 60.7738 28.0968 57.0006 25.9222 52.7792 25.2497 48.7916 25.8915 47.7011 26.067 46.6747 25.3253 46.4992 24.2347 46.3237 23.1442 47.0654 22.1178 48.156 21.9423 53.0176 21.1598 58.1733 21.9813 62.7711 24.6312 70.5323 29.1042 74.5705 37.5494 73.8083 45.9133 73.7081 47.0133 72.7351 47.8238 71.6351 47.7235ZM35.2335 30.0588C36.2366 29.5963 36.6749 28.4083 36.2125 27.4052 35.7501 26.4021 34.562 25.9638 33.5589 26.4262 25.9318 29.9423 20.6313 37.6581 20.6313 46.6159 20.6313 51.9227 22.4941 56.7999 25.5997 60.6213 26.2963 61.4785 27.5559 61.6086 28.4131 60.912 29.2703 60.2154 29.4005 58.9557 28.7039 58.0986 26.1566 54.9641 24.6313 50.9709 24.6313 46.6159 24.6313 39.2761 28.9712 32.9457 35.2335 30.0588ZM10.667 44.0664C13.4284 44.0664 15.667 41.8278 15.667 39.0664 15.667 36.305 13.4284 34.0664 10.667 34.0664 7.90557 34.0664 5.66699 36.305 5.66699 39.0664 5.66699 41.8278 7.90557 44.0664 10.667 44.0664ZM39.0752 67.6372C38.1773 66.9939 36.9279 67.2003 36.2845 68.0982 35.6412 68.9961 35.8476 70.2455 36.7455 70.8888 43.5726 75.7802 52.8999 76.573 60.6865 72.1444 65.2994 69.5208 68.6178 65.4904 70.4042 60.9016 70.8049 59.8723 70.2953 58.713 69.266 58.3123 68.2367 57.9116 67.0774 58.4212 66.6767 59.4505 65.2114 63.2143 62.4944 66.5144 58.7089 68.6674 52.3288 72.2961 44.6806 71.6534 39.0752 67.6372ZM60.2913 90.3328C63.0527 90.3328 65.2913 88.0942 65.2913 85.3328 65.2913 82.5714 63.0527 80.3328 60.2913 80.3328 57.5299 80.3328 55.2913 82.5714 55.2913 85.3328 55.2913 88.0942 57.5299 90.3328 60.2913 90.3328Z" class="MsftOfcThm_Background1_Fill_v2" stroke="none" stroke-width="1" stroke-linecap="butt" stroke-linejoin="miter" stroke-miterlimit="4" fill="#FFFFFF" fill-rule="evenodd" fill-opacity="1" clip-rule="evenodd"/></svg>