<svg width="96" height="96" viewBox="0 0 96 96" xmlns="http://www.w3.org/2000/svg" xmlns:xlink="http://www.w3.org/1999/xlink" fill="none" overflow="hidden"><style>
.MsftOfcThm_Background1_Fill_v2 {
 fill:#FFFFFF; 
}
</style>
<path d="M16.6667 48.0667C17.7712 48.0667 18.6667 48.9621 18.6667 50.0667L18.6667 67.6667C18.6667 70.6122 21.0545 73 24 73L71.6667 73C74.6122 73 77 70.6122 77 67.6667L77 50.0667C77 48.9621 77.8954 48.0667 79 48.0667 80.1046 48.0667 81 48.9621 81 50.0667L81 67.6667C81 72.8213 76.8213 77 71.6667 77L24 77C18.8453 77 14.6667 72.8213 14.6667 67.6667L14.6667 50.0667C14.6667 48.9621 15.5621 48.0667 16.6667 48.0667ZM47.2439 62.4123C46.1393 62.4123 45.2439 61.5169 45.2439 60.4123L45.2439 24.2517 38.1982 30.8302C37.3909 31.584 36.1253 31.5406 35.3715 30.7332 34.6176 29.9259 34.661 28.6603 35.4684 27.9065L45.6984 18.3548C46.4862 17.6192 47.7153 17.6403 48.4775 18.4024L58.0292 27.9541C58.8102 28.7352 58.8102 30.0015 58.0292 30.7825 57.2481 31.5636 55.9818 31.5636 55.2008 30.7825L49.2439 24.8257 49.2439 60.4123C49.2439 61.5169 48.3484 62.4123 47.2439 62.4123Z" class="MsftOfcThm_Background1_Fill_v2" stroke="none" stroke-width="1" stroke-linecap="butt" stroke-linejoin="miter" stroke-miterlimit="4" fill="#FFFFFF" fill-rule="evenodd" fill-opacity="1" clip-rule="evenodd"/></svg>