<svg width="96" height="96" viewBox="0 0 96 96" xmlns="http://www.w3.org/2000/svg" xmlns:xlink="http://www.w3.org/1999/xlink" fill="none" overflow="hidden"><style>
.MsftOfcThm_Background1_Fill_v2 {
 fill:#FFFFFF; 
}
</style>
<path d="M19 48.0004C19 31.9839 31.9839 19 48.0004 19 64.0169 19 77.0008 31.9839 77.0008 48.0004 77.0008 64.0169 64.0169 77.0008 48.0004 77.0008 31.9839 77.0008 19 64.0169 19 48.0004ZM48.0004 15C29.7748 15 15 29.7748 15 48.0004 15 66.226 29.7748 81.0008 48.0004 81.0008 66.226 81.0008 81.0008 66.226 81.0008 48.0004 81.0008 29.7748 66.226 15 48.0004 15ZM48.9176 34.1201C48.0342 33.94 47.118 34.032 46.2827 34.3865 45.4468 34.7412 44.7245 35.3453 44.2128 36.1299 43.7007 36.9151 43.4246 37.8432 43.4246 38.7965 43.4246 39.9011 42.5292 40.7965 41.4246 40.7965 40.32 40.7965 39.4246 39.9011 39.4246 38.7965 39.4246 37.0734 39.9231 35.3851 40.8623 33.9449 41.8019 32.5042 43.1425 31.3738 44.72 30.7043 46.2982 30.0346 48.0377 29.8585 49.7164 30.2006 51.3947 30.5427 52.9296 31.3857 54.1296 32.6151 55.3291 33.8441 56.1407 35.4041 56.4691 37.0953 56.7974 38.7863 56.6293 40.5396 55.9841 42.1354 55.3388 43.7316 54.2428 45.1037 52.8274 46.0727 52.0748 46.5879 51.3405 47.2876 50.8104 48.0538 50.2742 48.8287 50.0286 49.549 50.0286 50.1447L50.0286 54.3189C50.0286 55.4234 49.1332 56.3189 48.0286 56.3189 46.924 56.3189 46.0286 55.4234 46.0286 54.3189L46.0286 50.1447C46.0286 48.4867 46.6876 46.9824 47.521 45.7778 48.3605 44.5645 49.4607 43.53 50.5678 42.772 51.3244 42.2541 51.9214 41.5127 52.2757 40.6362 52.6302 39.7593 52.7237 38.7917 52.5424 37.8577 52.3611 36.9239 51.9148 36.0726 51.2671 35.4091 50.6199 34.746 49.8014 34.3002 48.9176 34.1201ZM50.8188 62.6552C50.8188 64.2117 49.557 65.4735 48.0006 65.4735 46.4441 65.4735 45.1824 64.2117 45.1824 62.6552 45.1824 61.0988 46.4441 59.837 48.0006 59.837 49.557 59.837 50.8188 61.0988 50.8188 62.6552Z" class="MsftOfcThm_Background1_Fill_v2" stroke="none" stroke-width="1" stroke-linecap="butt" stroke-linejoin="miter" stroke-miterlimit="4" fill="#FFFFFF" fill-rule="evenodd" fill-opacity="1" clip-rule="evenodd"/></svg>