<svg width="96" height="96" viewBox="0 0 96 96" xmlns="http://www.w3.org/2000/svg" xmlns:xlink="http://www.w3.org/1999/xlink" fill="none" overflow="hidden"><style>
.MsftOfcThm_Background1_Fill_v2 {
 fill:#FFFFFF; 
}
</style>
<path d="M25.3181 30.9227C24.48 27.7946 26.3363 24.5793 29.4644 23.7412L59.5398 15.6825C62.7406 14.8248 66.0306 16.7243 66.8882 19.9251L69.7383 30.5616C70.0242 31.6286 69.391 32.7252 68.3241 33.0111 67.2571 33.297 66.1605 32.6638 65.8746 31.5969L63.0245 20.9604C62.7386 19.8935 61.642 19.2603 60.575 19.5462L30.4997 27.6049C29.5055 27.8713 28.9155 28.8932 29.1819 29.8874L29.3625 30.5616C29.6484 31.6286 29.0152 32.7252 27.9483 33.0111 26.8814 33.297 25.7847 32.6638 25.4988 31.5969L25.3181 30.9227ZM20.25 35.7951C18.0409 35.7951 16.25 37.5859 16.25 39.7951L16.25 75.7951C16.25 78.0042 18.0409 79.7951 20.25 79.7951L70.25 79.7951C75.7728 79.7951 80.25 75.3179 80.25 69.7951L80.25 67.2951C82.4591 67.2951 84.25 65.5042 84.25 63.2951L84.25 52.2951C84.25 50.0859 82.4591 48.2951 80.25 48.2951L80.25 45.7951C80.25 40.2722 75.7728 35.7951 70.25 35.7951L20.25 35.7951ZM76.25 48.2951 76.25 45.7951C76.25 42.4814 73.5637 39.7951 70.25 39.7951L20.25 39.7951 20.25 75.7951 70.25 75.7951C73.5637 75.7951 76.25 73.1088 76.25 69.7951L76.25 67.2951 64.25 67.2951C62.0409 67.2951 60.25 65.5042 60.25 63.2951L60.25 52.2951C60.25 50.0859 62.0409 48.2951 64.25 48.2951L76.25 48.2951ZM64.25 52.2951 80.25 52.2951 80.25 63.2951 64.25 63.2951 64.25 52.2951ZM69.75 60.048C71.1307 60.048 72.25 58.9287 72.25 57.548 72.25 56.1673 71.1307 55.048 69.75 55.048 68.3693 55.048 67.25 56.1673 67.25 57.548 67.25 58.9287 68.3693 60.048 69.75 60.048Z" class="MsftOfcThm_Background1_Fill_v2" stroke="none" stroke-width="1" stroke-linecap="butt" stroke-linejoin="miter" stroke-miterlimit="4" fill="#FFFFFF" fill-rule="evenodd" fill-opacity="1" clip-rule="evenodd"/></svg>