<svg width="96" height="96" viewBox="0 0 96 96" xmlns="http://www.w3.org/2000/svg" xmlns:xlink="http://www.w3.org/1999/xlink" fill="none" overflow="hidden"><style>
.MsftOfcThm_Background1_Fill_v2 {
 fill:#FFFFFF; 
}
</style>
<path d="M48.0253 12.4C42.8756 12.3939 39.0089 16.578 39.0029 21.589L39.0024 21.9891 36.0138 21.9857C35.9316 21.9856 35.8505 21.9905 35.7709 22L28.4455 22C23.2083 22 19 26.2862 19 31.5273L19 70.4727C19 75.7138 23.2083 80 28.4455 80L67.6545 80C72.8917 80 77.1 75.7138 77.1 70.4727L77.1 31.5273C77.1 26.2862 72.8917 22 67.6546 22L56.9995 22 57 21.611C57.006 16.6101 53.1848 12.4062 48.0253 12.4ZM62.0089 26 62 33.0026C61.9986 34.1071 61.1021 35.0013 59.9976 35L35.9976 34.9713C35.4671 34.9707 34.9587 34.7593 34.584 34.3838 34.2094 34.0082 33.9993 33.4992 34 32.9688L34.0089 26 28.4455 26C25.4586 26 23 28.454 23 31.5273L23 70.4727C23 73.546 25.4586 76 28.4455 76L67.6545 76C70.6414 76 73.1 73.546 73.1 70.4727L73.1 31.5273C73.1 28.454 70.6414 26 67.6546 26L62.0089 26ZM38.0089 26 38.0026 30.9737 58.0026 30.9976 58.0089 26.0121 54.9948 26.0086C54.4644 26.008 53.9559 25.7967 53.5813 25.4212 53.2066 25.0457 52.9965 24.5367 52.9971 24.0062L53 21.6062C53.0035 18.6543 50.814 16.4034 48.0205 16.4 45.2174 16.3967 43.0064 18.6519 43.0029 21.5938L43 23.9938C42.9987 25.0983 42.1022 25.9927 40.9977 25.9914L39.7341 25.99 39.7341 26 38.0089 26Z" class="MsftOfcThm_Background1_Fill_v2" stroke="none" stroke-width="1" stroke-linecap="butt" stroke-linejoin="miter" stroke-miterlimit="4" fill="#FFFFFF" fill-rule="evenodd" fill-opacity="1" clip-rule="evenodd"/></svg>