<svg width="96" height="96" viewBox="0 0 96 96" xmlns="http://www.w3.org/2000/svg" xmlns:xlink="http://www.w3.org/1999/xlink" fill="none" overflow="hidden"><style>
.MsftOfcThm_Background1_Fill_v2 {
 fill:#FFFFFF; 
}
</style>
<path d="M27.2855 40.3828C27.299 41.4872 28.2054 42.3716 29.3099 42.358L43.535 42.183C44.6126 42.1698 45.4859 41.3051 45.5099 40.2277L45.8161 26.4964C45.8408 25.3921 44.9655 24.477 43.8612 24.4524 42.7569 24.4277 41.8417 25.303 41.8171 26.4073L41.6129 35.564C38.0774 31.7127 32.9976 29.2946 27.3527 29.2946 16.6645 29.2946 8 37.9591 8 48.6473 8 59.3355 16.6645 68 27.3527 68 31.7865 68 35.8771 66.5066 39.1411 63.9964 39.1886 63.9599 39.234 63.9216 39.2773 63.8818 39.301 63.8648 39.3245 63.8471 39.3477 63.8289 41.7533 61.9403 43.9975 59.194 45.7552 56.6747 47.5206 54.1445 48.9017 51.6883 49.5467 50.2648 50.0526 49.1483 51.3054 46.4945 52.9632 43.7068 54.3915 41.305 56.025 38.9697 57.6476 37.3956 57.6946 37.36 57.7404 37.3219 57.7848 37.2815 60.5126 34.8028 64.1309 33.2946 68.1061 33.2946 76.5852 33.2946 83.4588 40.1682 83.4588 48.6473 83.4588 57.1264 76.5852 64 68.1061 64 62.3021 64 57.2473 60.7802 54.6357 56.0198 54.1044 55.0514 52.8887 54.697 51.9202 55.2283 50.9518 55.7596 50.5975 56.9754 51.1288 57.9438 54.4145 63.9328 60.7839 68 68.1061 68 78.7943 68 87.4588 59.3355 87.4588 48.6473 87.4588 37.9591 78.7943 29.2946 68.1061 29.2946 63.6737 29.2946 59.5861 30.7868 56.3235 33.2938 56.2336 33.3443 56.1465 33.4025 56.063 33.4683 53.5423 35.4562 51.2545 38.7543 49.5252 41.6623 47.7628 44.6258 46.4415 47.4262 45.9033 48.6139 45.382 49.7644 44.135 52.0064 42.4748 54.3859 40.807 56.7763 38.8282 59.1513 36.8776 60.6828 36.8362 60.7153 36.796 60.7494 36.7572 60.785 36.7388 60.7983 36.7206 60.8118 36.7026 60.8256 34.1132 62.817 30.8739 64 27.3527 64 18.8736 64 12 57.1264 12 48.6473 12 40.1682 18.8736 33.2946 27.3527 33.2946 31.8161 33.2946 35.8352 35.198 38.6425 38.2429L29.2607 38.3583C28.1562 38.3719 27.2719 39.2783 27.2855 40.3828Z" class="MsftOfcThm_Background1_Fill_v2" stroke="none" stroke-width="1" stroke-linecap="butt" stroke-linejoin="miter" stroke-miterlimit="4" fill="#FFFFFF" fill-rule="evenodd" fill-opacity="1" clip-rule="evenodd"/></svg>