<svg width="96" height="96" viewBox="0 0 96 96" xmlns="http://www.w3.org/2000/svg" xmlns:xlink="http://www.w3.org/1999/xlink" fill="none" overflow="hidden"><style>
.MsftOfcThm_Background1_Fill_v2 {
 fill:#FFFFFF; 
}
</style>
<path d="M48.0302 16.8271C62.0978 16.8271 73.9725 26.2177 77.7202 39.0671 78.0295 40.1275 79.1398 40.7364 80.2002 40.4271 81.2606 40.1179 81.8695 39.0075 81.5602 37.9471 77.328 23.4366 63.9226 12.8271 48.0302 12.8271 33.965 12.8271 21.8414 21.1472 16.3112 33.1218L12.3529 25.3403C11.8521 24.3558 10.6481 23.9636 9.66354 24.4644 8.67902 24.9652 8.28689 26.1693 8.78769 27.1538L15.2377 39.8338C15.7263 40.7944 16.888 41.1951 17.8649 40.74L30.3149 34.94C31.3161 34.4735 31.7497 33.2837 31.2832 32.2825 30.8168 31.2812 29.627 30.8477 28.6257 31.3141L19.6266 35.5065C24.3675 24.5193 35.306 16.8271 48.0302 16.8271ZM80.7629 55.77C80.2741 54.809 79.1115 54.4085 78.1345 54.8644L65.6845 60.6744C64.6836 61.1415 64.2508 62.3316 64.7179 63.3325 65.185 64.3335 66.3751 64.7662 67.376 64.2991L76.4516 60.0639C71.6931 71.0106 60.7758 78.6673 48.0809 78.6673 34.0133 78.6673 22.1386 69.2767 18.3909 56.4273 18.0816 55.3669 16.9712 54.758 15.9109 55.0673 14.8505 55.3766 14.2416 56.4869 14.5509 57.5473 18.7831 72.0579 32.1885 82.6673 48.0809 82.6673 62.0792 82.6673 74.1543 74.4262 79.7205 62.5432L83.6477 70.2635C84.1484 71.2481 85.3525 71.6402 86.3371 71.1394 87.3216 70.6386 87.7137 69.4345 87.2129 68.45L80.7629 55.77ZM42 48C42 44.6863 44.6863 42 48 42 51.3137 42 54 44.6863 54 48 54 51.3137 51.3137 54 48 54 44.6863 54 42 51.3137 42 48ZM48 38C42.4772 38 38 42.4772 38 48 38 53.5228 42.4772 58 48 58 53.5229 58 58 53.5228 58 48 58 42.4772 53.5229 38 48 38Z" class="MsftOfcThm_Background1_Fill_v2" stroke="none" stroke-width="1" stroke-linecap="butt" stroke-linejoin="miter" stroke-miterlimit="4" fill="#FFFFFF" fill-rule="evenodd" fill-opacity="1" clip-rule="evenodd"/></svg>