<svg width="96" height="96" viewBox="0 0 96 96" xmlns="http://www.w3.org/2000/svg" xmlns:xlink="http://www.w3.org/1999/xlink" fill="none" overflow="hidden"><style>
.MsftOfcThm_Background1_Fill_v2 {
 fill:#FFFFFF; 
}
</style>
<path d="M46 15 46 22.0758C33.2352 23.0468 23.0468 33.2352 22.0758 46L15 46C13.8954 46 13 46.8954 13 48 13 49.1046 13.8954 50 15 50L22.0758 50C23.0468 62.7648 33.2352 72.9532 46 73.9242L46 81C46 82.1046 46.8954 83 48 83 49.1046 83 50 82.1046 50 81L50 73.9242C62.7648 72.9532 72.9532 62.7648 73.9242 50L81 50C82.1046 50 83 49.1046 83 48 83 46.8954 82.1046 46 81 46L73.9242 46C72.9532 33.2352 62.7648 23.0468 50 22.0758L50 15C50 13.8954 49.1046 13 48 13 46.8954 13 46 13.8954 46 15ZM26 48C26 35.8497 35.8497 26 48 26 60.1503 26 70 35.8497 70 48 70 60.1503 60.1503 70 48 70 35.8497 70 26 60.1503 26 48ZM48 51C49.6569 51 51 49.6569 51 48 51 46.3431 49.6569 45 48 45 46.3431 45 45 46.3431 45 48 45 49.6569 46.3431 51 48 51Z" class="MsftOfcThm_Background1_Fill_v2" stroke="none" stroke-width="1" stroke-linecap="butt" stroke-linejoin="miter" stroke-miterlimit="4" fill="#FFFFFF" fill-rule="evenodd" fill-opacity="1" clip-rule="evenodd"/></svg>