<svg width="96" height="96" viewBox="0 0 96 96" xmlns="http://www.w3.org/2000/svg" xmlns:xlink="http://www.w3.org/1999/xlink" fill="none" overflow="hidden"><style>
.MsftOfcThm_Background1_Fill_v2 {
 fill:#FFFFFF; 
}
</style>
<path d="M79.8301 33.4008C79.8301 35.3586 78.2429 36.9458 76.2851 36.9458L74.1693 36.9458C68.127 36.9458 63.1069 32.5691 62.1063 26.813 55.2763 27.704 50.0022 33.545 50.0022 40.6179L50.0022 55.3778C50.0022 64.6534 42.9577 72.2837 33.9269 73.2104 33.0094 79.0652 27.9431 83.544 21.8307 83.544L19.7149 83.544C17.7571 83.544 16.1699 81.9568 16.1699 79.9989L16.1699 62.6002C16.1699 60.6423 17.7571 59.0552 19.7149 59.0552L21.8307 59.0552C27.8728 59.0552 32.8927 63.4315 33.8936 69.1872 40.7261 68.2963 46.0022 62.4532 46.0022 55.3778L46.0022 40.6179C46.0022 31.3447 53.0448 23.7164 62.0732 22.7898 62.9911 16.9354 68.0572 12.457 74.1693 12.457L76.2851 12.457C78.2429 12.457 79.8301 14.0442 79.8301 16.0021L79.8301 33.4008ZM75.8301 16.457 74.1693 16.457C69.616 16.457 65.9249 20.1482 65.9249 24.7014 65.9249 29.2547 69.616 32.9458 74.1693 32.9458L75.8301 32.9458 75.8301 16.457ZM20.1699 63.0552 20.1699 79.544 21.8307 79.544C26.384 79.544 30.0751 75.8528 30.0751 71.2996 30.0751 66.7463 26.384 63.0552 21.8307 63.0552L20.1699 63.0552Z" class="MsftOfcThm_Background1_Fill_v2" stroke="none" stroke-width="1" stroke-linecap="butt" stroke-linejoin="miter" stroke-miterlimit="4" fill="#FFFFFF" fill-rule="evenodd" fill-opacity="1" clip-rule="evenodd"/></svg>