<svg width="96" height="96" viewBox="0 0 96 96" xmlns="http://www.w3.org/2000/svg" xmlns:xlink="http://www.w3.org/1999/xlink" fill="none" overflow="hidden"><style>
.MsftOfcThm_Background1_Fill_v2 {
 fill:#FFFFFF; 
}
</style>
<path d="M20.0386 28.9343C20.7154 23.2669 25.522 19 31.2297 19 37.4542 19 42.5002 24.046 42.5002 30.2705L42.5002 32.6281C44.0524 31.5241 45.9505 30.875 48.0002 30.875 50.0499 30.875 51.948 31.5241 53.5002 32.6281L53.5002 30.2705C53.5002 24.046 58.5462 19 64.7707 19 70.4784 19 75.285 23.2669 75.9618 28.9343L79.8501 61.4993C79.8916 61.7728 79.9246 62.049 79.949 62.3276L79.9861 62.6379C80.0028 62.7781 80.0046 62.9166 79.9928 63.0519 79.9977 63.2006 80.0002 63.35 80.0002 63.5 80.0002 70.8178 74.068 76.75 66.7502 76.75 59.4364 76.75 53.5066 70.8242 53.5002 63.5118L53.5002 63.5 53.5002 55.3543C53.489 52.3262 51.0309 49.875 48.0002 49.875 44.9694 49.875 42.5111 52.3265 42.5002 55.3548L42.5002 63.5 42.5002 63.5132C42.4931 70.8249 36.5636 76.75 29.2502 76.75 21.9324 76.75 16.0002 70.8178 16.0002 63.5 16.0002 63.35 16.0027 63.2007 16.0076 63.0519 15.9958 62.9166 15.9976 62.7781 16.0143 62.6379L16.0514 62.3275C16.0758 62.0489 16.1088 61.7728 16.1502 61.4994L20.0386 28.9343ZM42.5002 47.6281C44.0524 46.5241 45.9505 45.875 48.0002 45.875 50.0499 45.875 51.948 46.5241 53.5002 47.6281L53.5002 40.3543C53.489 37.3263 51.0309 34.875 48.0002 34.875 44.9694 34.875 42.5111 37.3265 42.5002 40.3548L42.5002 47.6281ZM38.5002 30.2705 38.5002 40.3485 38.5002 40.375 38.5002 42.5625 38.5002 42.5747 38.5002 54.0132C36.1125 51.6846 32.8489 50.25 29.2502 50.25 26.2204 50.25 23.4282 51.2669 21.1961 52.978L24.0104 29.4085C24.447 25.7525 27.5477 23 31.2297 23 35.2451 23 38.5002 26.2551 38.5002 30.2705ZM57.5002 42.5625 57.5002 42.575 57.5002 54.0132C59.8879 51.6846 63.1515 50.25 66.7502 50.25 69.7799 50.25 72.5722 51.2669 74.8042 52.978L71.99 29.4085C71.5534 25.7525 68.4527 23 64.7707 23 60.7553 23 57.5002 26.2551 57.5002 30.2705L57.5002 40.3478 57.5002 40.375 57.5002 42.5625ZM20.112 62.0573 20.032 62.728C20.0109 62.9826 20.0002 63.24 20.0002 63.5 20.0002 68.6086 24.1416 72.75 29.2502 72.75 34.3588 72.75 38.5002 68.6086 38.5002 63.5 38.5002 58.3914 34.3588 54.25 29.2502 54.25 24.6323 54.25 20.8048 57.6339 20.112 62.0573ZM75.8884 62.0573C75.1956 57.6339 71.3681 54.25 66.7502 54.25 61.6416 54.25 57.5002 58.3914 57.5002 63.5 57.5002 68.6086 61.6416 72.75 66.7502 72.75 71.8588 72.75 76.0002 68.6086 76.0002 63.5 76.0002 63.24 75.9895 62.9826 75.9684 62.728L75.8884 62.0573Z" class="MsftOfcThm_Background1_Fill_v2" stroke="none" stroke-width="1" stroke-linecap="butt" stroke-linejoin="miter" stroke-miterlimit="4" fill="#FFFFFF" fill-rule="evenodd" fill-opacity="1" clip-rule="evenodd"/></svg>