<svg width="96" height="96" viewBox="0 0 96 96" xmlns="http://www.w3.org/2000/svg" xmlns:xlink="http://www.w3.org/1999/xlink" fill="none" overflow="hidden"><style>
.MsftOfcThm_Background1_Fill_v2 {
 fill:#FFFFFF; 
}
</style>
<path d="M11 15C11 13.8954 11.8954 13 13 13L21.9549 13C25.6189 13 28.7591 15.6191 29.4167 19.2236L30.1916 23.4716 77.382 23.4716C82.1741 23.4716 85.7653 27.8605 84.8168 32.5578L81.9974 46.52C81.2829 50.0589 78.1729 52.6036 74.5626 52.6036L35.5063 52.6036 37.1691 61.7186C37.4799 63.4222 38.9641 64.6601 40.6958 64.6601L78.6223 64.6601C79.7269 64.6601 80.6223 65.5555 80.6223 66.6601 80.6223 67.7647 79.7269 68.6601 78.6223 68.6601L40.6958 68.6601C37.0318 68.6601 33.8917 66.041 33.2341 62.4365L25.4816 19.9415C25.1708 18.2379 23.6867 17 21.9549 17L13 17C11.8954 17 11 16.1046 11 15ZM34.7896 48.6036 74.5626 48.6036C76.269 48.6036 77.7388 47.4009 78.0766 45.7283L80.8959 31.7661C81.3442 29.546 79.6469 27.4716 77.382 27.4716L30.9451 27.4716 34.7896 48.6036ZM49 78.9429C49 82.2566 46.3137 84.9429 43 84.9429 39.6863 84.9429 37 82.2566 37 78.9429 37 75.6292 39.6863 72.9429 43 72.9429 46.3137 72.9429 49 75.6292 49 78.9429ZM73 84.9429C76.3137 84.9429 79 82.2566 79 78.9429 79 75.6292 76.3137 72.9429 73 72.9429 69.6863 72.9429 67 75.6292 67 78.9429 67 82.2566 69.6863 84.9429 73 84.9429Z" class="MsftOfcThm_Background1_Fill_v2" stroke="none" stroke-width="1" stroke-linecap="butt" stroke-linejoin="miter" stroke-miterlimit="4" fill="#FFFFFF" fill-rule="evenodd" fill-opacity="1" clip-rule="evenodd"/></svg>