<svg width="96" height="96" viewBox="0 0 96 96" xmlns="http://www.w3.org/2000/svg" xmlns:xlink="http://www.w3.org/1999/xlink" fill="none" overflow="hidden"><style>
.MsftOfcThm_Background1_Fill_v2 {
 fill:#FFFFFF; 
}
</style>
<path d="M65.7751 17.9786C64.6825 17.8166 63.9281 16.7995 64.0901 15.7069 64.2522 14.6143 65.2692 13.8599 66.3619 14.0219 73.9827 15.1519 79.6815 22.0644 79.6815 30.232 79.6815 38.4276 73.9429 45.3604 66.2826 46.4537 65.1891 46.6097 64.1761 45.8498 64.0201 44.7563 63.864 43.6628 64.6239 42.6498 65.7174 42.4938 71.2474 41.7045 75.6815 36.6023 75.6815 30.232 75.6815 23.8842 71.278 18.7946 65.7751 17.9786ZM30.3966 18.1267C31.4893 17.9647 32.2437 16.9476 32.0816 15.855 31.9196 14.7624 30.9025 14.008 29.8099 14.17 22.1891 15.3 16.4903 22.2125 16.4903 30.3801 16.4903 38.5757 22.2289 45.5085 29.8892 46.6018 30.9827 46.7578 31.9957 45.9979 32.1517 44.9044 32.3078 43.8109 31.5478 42.7979 30.4544 42.6419 24.9244 41.8526 20.4903 36.7504 20.4903 30.3801 20.4903 24.0323 24.8937 18.9427 30.3966 18.1267ZM26.2734 52.3334C26.586 53.3928 25.9805 54.505 24.9211 54.8176 15.9993 57.4497 9.03579 64.8698 7.06455 74.0328 6.69213 75.7639 7.98195 77.3484 9.69 77.3484L12.9181 77.3484C14.0226 77.3484 14.9181 78.2438 14.9181 79.3484 14.9181 80.4529 14.0226 81.3484 12.9181 81.3484L9.69 81.3484C5.36863 81.3484 2.25955 77.3492 3.15402 73.1916 5.43622 62.5831 13.4762 54.0237 23.7893 50.981 24.8487 50.6685 25.9609 51.2739 26.2734 52.3334ZM71.2506 54.6695C70.1912 54.3569 69.5858 53.2447 69.8983 52.1853 70.2109 51.1259 71.3231 50.5204 72.3825 50.833 82.6956 53.8756 90.7356 62.435 93.0178 73.0435 93.9122 77.2011 90.8031 81.2003 86.4818 81.2003L83.2537 81.2003C82.1491 81.2003 81.2537 80.3049 81.2537 79.2003 81.2537 78.0957 82.1491 77.2003 83.2537 77.2003L86.4818 77.2003C88.1898 77.2003 89.4796 75.6158 89.1072 73.8848 87.136 64.7217 80.1724 57.3016 71.2506 54.6695ZM48.3093 18.0102C42.0808 18.0102 36.8194 23.4274 36.8194 30.3799 36.8194 37.3324 42.0808 42.7496 48.3093 42.7496 54.5379 42.7496 59.7993 37.3324 59.7993 30.3799 59.7993 23.4274 54.5379 18.0102 48.3093 18.0102ZM32.8194 30.3799C32.8194 21.4601 39.6373 14.0102 48.3093 14.0102 56.9813 14.0102 63.7993 21.4601 63.7993 30.3799 63.7993 39.2997 56.9813 46.7496 48.3093 46.7496 39.6373 46.7496 32.8194 39.2997 32.8194 30.3799ZM23.3077 74.0328C25.7836 62.5239 36.1215 53.7877 48.3089 53.7877 60.4963 53.7877 70.8341 62.5239 73.31 74.0328 73.6825 75.7638 72.3926 77.3483 70.6846 77.3483L48.3089 77.3483 25.9332 77.3483C24.2251 77.3483 22.9353 75.7638 23.3077 74.0328ZM48.3089 49.7877C34.185 49.7877 22.2586 59.8906 19.3972 73.1915 18.5027 77.3491 21.6118 81.3483 25.9332 81.3483L48.3089 81.3483 70.6846 81.3483C75.006 81.3483 78.115 77.3491 77.2206 73.1915 74.3592 59.8906 62.4327 49.7877 48.3089 49.7877Z" class="MsftOfcThm_Background1_Fill_v2" stroke="none" stroke-width="1" stroke-linecap="butt" stroke-linejoin="miter" stroke-miterlimit="4" fill="#FFFFFF" fill-rule="evenodd" fill-opacity="1" clip-rule="evenodd"/></svg>