<svg width="96" height="96" viewBox="0 0 96 96" xmlns="http://www.w3.org/2000/svg" xmlns:xlink="http://www.w3.org/1999/xlink" fill="none" overflow="hidden"><style>
.MsftOfcThm_Background1_Fill_v2 {
 fill:#FFFFFF; 
}
</style>
<path d="M19.9304 22.2458C19.9304 18.9321 22.6167 16.2458 25.9304 16.2458L59.311 16.2458C62.6247 16.2458 65.311 18.9321 65.311 22.2458L65.311 26.8808C65.311 30.1945 62.6247 32.8808 59.311 32.8808L25.9304 32.8808C22.6167 32.8808 19.9304 30.1945 19.9304 26.8808L19.9304 22.2458ZM25.9304 20.2458C24.8258 20.2458 23.9304 21.1413 23.9304 22.2458L23.9304 26.8808C23.9304 27.9854 24.8259 28.8808 25.9304 28.8808L59.311 28.8808C60.4156 28.8808 61.311 27.9854 61.311 26.8808L61.311 22.2458C61.311 21.1413 60.4156 20.2458 59.311 20.2458L25.9304 20.2458ZM34.3511 45.6816C34.3511 42.3679 37.0374 39.6816 40.3511 39.6816L73.7317 39.6816C77.0454 39.6816 79.7317 42.3679 79.7317 45.6816L79.7317 50.3166C79.7317 53.6303 77.0454 56.3166 73.7317 56.3166L40.3511 56.3166C37.0374 56.3166 34.3511 53.6303 34.3511 50.3166L34.3511 45.6816ZM40.3511 43.6816C39.2465 43.6816 38.3511 44.5771 38.3511 45.6816L38.3511 50.3166C38.3511 51.4212 39.2465 52.3166 40.3511 52.3166L73.7317 52.3166C74.8363 52.3166 75.7317 51.4212 75.7317 50.3166L75.7317 45.6816C75.7317 44.5771 74.8363 43.6816 73.7317 43.6816L40.3511 43.6816ZM22.2673 63.1192C18.9536 63.1192 16.2673 65.8055 16.2673 69.1192L16.2673 73.7541C16.2673 77.0678 18.9536 79.7541 22.2673 79.7541L48.4615 79.7541C51.7752 79.7541 54.4615 77.0678 54.4615 73.7541L54.4615 69.1192C54.4615 65.8055 51.7752 63.1192 48.4615 63.1192L22.2673 63.1192ZM20.2673 69.1192C20.2673 68.0146 21.1628 67.1192 22.2673 67.1192L48.4615 67.1192C49.5661 67.1192 50.4615 68.0146 50.4615 69.1192L50.4615 73.7541C50.4615 74.8587 49.5661 75.7541 48.4615 75.7541L22.2673 75.7541C21.1628 75.7541 20.2673 74.8587 20.2673 73.7541L20.2673 69.1192Z" class="MsftOfcThm_Background1_Fill_v2" stroke="none" stroke-width="1" stroke-linecap="butt" stroke-linejoin="miter" stroke-miterlimit="4" fill="#FFFFFF" fill-rule="evenodd" fill-opacity="1" clip-rule="evenodd"/></svg>