<svg width="96" height="96" viewBox="0 0 96 96" xmlns="http://www.w3.org/2000/svg" xmlns:xlink="http://www.w3.org/1999/xlink" fill="none" overflow="hidden"><style>
.MsftOfcThm_Background1_Fill_v2 {
 fill:#FFFFFF; 
}
</style>
<path d="M48 16.7402C30.8792 16.7402 17 30.6194 17 47.7402 17 55.8649 20.1256 63.2596 25.2399 68.7874 29.8063 60.94 38.3196 55.6094 48.0012 55.6094 57.682 55.6094 66.1938 60.9442 70.7602 68.7873 75.8745 63.2595 79 55.8649 79 47.7402 79 30.6194 65.1208 16.7402 48 16.7402ZM48 78.7402C40.4899 78.7402 33.6036 76.0697 28.2388 71.6264 31.9916 64.4987 39.4816 59.6094 48.0012 59.6094 56.5182 59.6094 64.0074 64.5013 67.7615 71.6261 62.3967 76.0696 55.5102 78.7402 48 78.7402ZM13 47.7402C13 28.4103 28.67 12.7402 48 12.7402 67.33 12.7402 83 28.4103 83 47.7402 83 67.0702 67.33 82.7402 48 82.7402 28.67 82.7402 13 67.0702 13 47.7402ZM37.9128 38.8781C37.9128 32.7491 42.5467 28 48.0005 28 53.4543 28 58.0881 32.7491 58.0881 38.8781 58.0881 45.0071 53.4543 49.7562 48.0005 49.7562 42.5467 49.7562 37.9128 45.0071 37.9128 38.8781ZM48.0005 24C40.1026 24 33.9128 30.7824 33.9128 38.8781 33.9128 46.9738 40.1026 53.7562 48.0005 53.7562 55.8983 53.7562 62.0881 46.9738 62.0881 38.8781 62.0881 30.7824 55.8983 24 48.0005 24Z" class="MsftOfcThm_Background1_Fill_v2" stroke="none" stroke-width="1" stroke-linecap="butt" stroke-linejoin="miter" stroke-miterlimit="4" fill="#FFFFFF" fill-rule="evenodd" fill-opacity="1" clip-rule="evenodd"/></svg>