<svg width="96" height="96" viewBox="0 0 96 96" xmlns="http://www.w3.org/2000/svg" xmlns:xlink="http://www.w3.org/1999/xlink" fill="none" overflow="hidden"><style>
.MsftOfcThm_Background1_Fill_v2 {
 fill:#FFFFFF; 
}
</style>
<path d="M18.3603 16C13.7829 16 10 19.6445 10 24.2281L10 46.3303C10 50.9139 13.7829 54.5584 18.3603 54.5584L22.0595 54.5584C22.0587 57.2119 22.0401 60.3611 22.0213 62.8909 21.9947 66.4749 26.208 68.234 28.8244 66.0129L42.3176 54.5584 58.6397 54.5584C63.2171 54.5584 67 50.9139 67 46.3303L67 24.2281C67 19.6445 63.2171 16 58.6397 16L18.3603 16ZM14 24.2281C14 21.9324 15.9124 20 18.3603 20L58.6397 20C61.0876 20 63 21.9324 63 24.2281L63 46.3303C63 48.626 61.0876 50.5584 58.6397 50.5584L41.5832 50.5584C41.109 50.5584 40.6503 50.7268 40.2888 51.0337L26.2357 62.9635C26.214 62.982 26.1991 62.9894 26.1918 62.9926 26.1838 62.996 26.176 62.9981 26.1667 62.9992 26.1459 63.0016 26.1125 62.9988 26.0759 62.9823 26.0416 62.9669 26.0263 62.9494 26.0228 62.9448 26.0222 62.9417 26.0211 62.9341 26.0212 62.9206 26.045 59.7178 26.0686 55.5015 26.0561 52.5499 26.0514 51.4487 25.1574 50.5584 24.0561 50.5584L18.3603 50.5584C15.9124 50.5584 14 48.626 14 46.3303L14 24.2281ZM72 37C70.8954 37 70 37.8954 70 39 70 40.1046 70.8954 41 72 41L78.3597 41C80.3954 41 82 42.6214 82 44.5656L82 64.3164C82 66.2606 80.3954 67.882 78.3597 67.882L73.3087 67.882C72.2074 67.882 71.3134 68.7723 71.3087 69.8736 71.298 72.4261 71.3173 76.0361 71.3377 78.8599L59.066 68.3622C58.7037 68.0523 58.2426 67.882 57.7659 67.882L42.6403 67.882C40.8783 67.882 39.4302 66.661 39.0813 65.0712 38.8445 63.9924 37.7779 63.3097 36.699 63.5465 35.6202 63.7833 34.9375 64.8499 35.1743 65.9288 35.9251 69.3494 38.9954 71.882 42.6403 71.882L57.0272 71.882 68.928 82.0625C71.4103 84.1859 75.3644 82.4809 75.3396 79.1138 75.3234 76.9204 75.3075 74.2065 75.3058 71.882L78.3597 71.882C82.5541 71.882 86 68.5198 86 64.3164L86 44.5656C86 40.3621 82.5541 37 78.3597 37L72 37Z" class="MsftOfcThm_Background1_Fill_v2" stroke="none" stroke-width="1" stroke-linecap="butt" stroke-linejoin="miter" stroke-miterlimit="4" fill="#FFFFFF" fill-rule="evenodd" fill-opacity="1" clip-rule="evenodd"/></svg>