<svg width="96" height="96" viewBox="0 0 96 96" xmlns="http://www.w3.org/2000/svg" xmlns:xlink="http://www.w3.org/1999/xlink" fill="none" overflow="hidden"><style>
.MsftOfcThm_Background1_Fill_v2 {
 fill:#FFFFFF; 
}
</style>
<path d="M16.8207 23.2036C17.841 22.4357 19.0528 22 20.3077 22L75.6923 22C77.0861 22 78.4267 22.5375 79.5108 23.4705L49.6292 40.991C48.4504 41.6822 47.0013 41.6687 45.8346 40.9549L16.8207 23.2036ZM14.4638 26.4508C14.1664 27.2772 14 28.1907 14 29.1667L14 65.8333C14 69.9811 17.0047 73 20.3077 73L75.6923 73C78.9953 73 82 69.9811 82 65.8333L82 29.1667C82 28.343 81.8815 27.5638 81.6657 26.8439L51.6524 44.4416C49.2005 45.8792 46.1715 45.8503 43.747 44.3669L14.4638 26.4508ZM20.3077 18C14.4343 18 10 23.1892 10 29.1667L10 65.8333C10 71.8108 14.4343 77 20.3077 77L75.6923 77C81.5657 77 86 71.8108 86 65.8333L86 29.1667C86 23.1892 81.5657 18 75.6923 18L20.3077 18Z" class="MsftOfcThm_Background1_Fill_v2" stroke="none" stroke-width="1" stroke-linecap="butt" stroke-linejoin="miter" stroke-miterlimit="4" fill="#FFFFFF" fill-rule="evenodd" fill-opacity="1" clip-rule="evenodd"/></svg>