<svg width="96" height="96" viewBox="0 0 96 96" xmlns="http://www.w3.org/2000/svg" xmlns:xlink="http://www.w3.org/1999/xlink" fill="none" overflow="hidden"><style>
.MsftOfcThm_Background1_Fill_v2 {
 fill:#FFFFFF; 
}
</style>
<path d="M17.048 46C17.8661 31.2167 29.0422 19.1957 43.4401 17.0732 36.4965 26.0016 32.5125 35.8448 32.0462 46L17.048 46ZM48.3332 17.3945C40.7628 26.3088 36.5527 36.0793 36.0508 46L60.6156 46C60.1137 36.0789 55.9035 26.3086 48.3332 17.3945ZM60.6167 50 36.0499 50C36.5257 59.4976 40.4226 69.2265 48.3333 78.5918 56.2444 69.2261 60.1409 59.4968 60.6167 50ZM53.7608 78.206C60.6465 69.084 64.1891 59.5157 64.6214 50L78.9189 50C77.9007 64.1328 67.4083 75.6412 53.7608 78.206ZM64.6203 46C64.1562 35.8914 60.2062 26.0913 53.3208 17.1951 67.3499 19.6218 78.1484 31.4782 78.952 46L64.6203 46ZM17.0811 50 32.0451 50C32.4795 59.5619 36.0546 69.1776 43.0075 78.3403 28.9871 76.0704 18.1183 64.3969 17.0811 50ZM48 12.7402C28.67 12.7402 13 28.4103 13 47.7402 13 67.0702 28.67 82.7402 48 82.7402 67.33 82.7402 83 67.0702 83 47.7402 83 28.4103 67.33 12.7402 48 12.7402Z" class="MsftOfcThm_Background1_Fill_v2" stroke="none" stroke-width="1" stroke-linecap="butt" stroke-linejoin="miter" stroke-miterlimit="4" fill="#FFFFFF" fill-rule="evenodd" fill-opacity="1" clip-rule="evenodd"/></svg>