<svg width="96" height="96" viewBox="0 0 96 96" xmlns="http://www.w3.org/2000/svg" xmlns:xlink="http://www.w3.org/1999/xlink" fill="none" overflow="hidden"><style>
.MsftOfcThm_Background1_Fill_v2 {
 fill:#FFFFFF; 
}
</style>
<path d="M49.9999 15.2344C49.9999 14.1298 49.1045 13.2344 47.9999 13.2344 46.8953 13.2344 45.9999 14.1298 45.9999 15.2344L45.9999 19.879C45.9999 20.9835 46.8953 21.879 47.9999 21.879 49.1045 21.879 49.9999 20.9835 49.9999 19.879L49.9999 15.2344ZM33.4508 48.0008C33.4508 39.9657 39.9645 33.452 47.9995 33.452L48 33.452 48 62.5495 47.9995 62.5495C39.9645 62.5495 33.4508 56.0358 33.4508 48.0008ZM47.9995 29.452C37.7554 29.452 29.4508 37.7566 29.4508 48.0008 29.4508 58.2449 37.7554 66.5495 47.9995 66.5495 58.2437 66.5495 66.5483 58.2449 66.5483 48.0008 66.5483 37.7566 58.2437 29.452 47.9995 29.452ZM48 74.1212C49.1046 74.1212 50 75.0166 50 76.1212L50 80.7658C50 81.8703 49.1046 82.7658 48 82.7658 46.8954 82.7658 46 81.8703 46 80.7658L46 76.1212C46 75.0166 46.8954 74.1212 48 74.1212ZM80.7656 50.0001C81.8702 50.0001 82.7656 49.1047 82.7656 48.0001 82.7656 46.8955 81.8702 46.0001 80.7656 46.0001L76.1211 46.0001C75.0165 46.0001 74.1211 46.8955 74.1211 48.0001 74.1211 49.1047 75.0165 50.0001 76.1211 50.0001L80.7656 50.0001ZM21.879 48.0001C21.879 49.1047 20.9835 50.0001 19.879 50.0001L15.2344 50.0001C14.1298 50.0001 13.2344 49.1047 13.2344 48.0001 13.2344 46.8955 14.1298 46.0001 15.2344 46.0001L19.879 46.0001C20.9835 46.0001 21.879 46.8955 21.879 48.0001ZM72.5828 26.2448C73.3638 25.4638 73.3638 24.1974 72.5828 23.4164 71.8017 22.6353 70.5354 22.6353 69.7543 23.4164L66.4701 26.7006C65.6891 27.4816 65.6891 28.748 66.4701 29.529 67.2512 30.3101 68.5175 30.3101 69.2985 29.529L72.5828 26.2448ZM29.529 66.4696C30.3101 67.2507 30.3101 68.517 29.529 69.298L26.2448 72.5823C25.4638 73.3633 24.1974 73.3633 23.4164 72.5823 22.6353 71.8012 22.6353 70.5349 23.4164 69.7538L26.7006 66.4696C27.4817 65.6886 28.748 65.6886 29.529 66.4696ZM23.4162 26.2449C22.6352 25.4638 22.6352 24.1975 23.4162 23.4164 24.1973 22.6354 25.4636 22.6354 26.2446 23.4164L29.5288 26.7006C30.3099 27.4817 30.3099 28.748 29.5288 29.5291 28.7478 30.3101 27.4815 30.3101 26.7004 29.5291L23.4162 26.2449ZM66.47 66.4696C65.689 67.2507 65.689 68.517 66.47 69.298L69.7542 72.5822C70.5353 73.3633 71.8016 73.3633 72.5826 72.5822 73.3637 71.8012 73.3637 70.5349 72.5826 69.7538L69.2984 66.4696C68.5174 65.6886 67.2511 65.6886 66.47 66.4696Z" class="MsftOfcThm_Background1_Fill_v2" stroke="none" stroke-width="1" stroke-linecap="butt" stroke-linejoin="miter" stroke-miterlimit="4" fill="#FFFFFF" fill-rule="evenodd" fill-opacity="1" clip-rule="evenodd"/></svg>