<svg width="100" height="96" viewBox="0 0 100 96" xmlns="http://www.w3.org/2000/svg" xmlns:xlink="http://www.w3.org/1999/xlink" fill="none" overflow="hidden"><style>
.MsftOfcThm_Background1_Fill_v2 {
 fill:#FFFFFF; 
}
</style>
<path d="M40.4765 16.2869C43.3825 15.2034 46.459 14.6484 49.5604 14.6484L64.7314 14.6484C64.7849 14.6484 64.8379 14.6505 64.8903 14.6547L68.8076 14.6547C70.5169 14.6547 72.3735 15.1212 73.8531 16.2563 75.3982 17.4416 76.4014 19.2654 76.4014 21.6097 76.4014 22.3332 76.2393 23.6383 75.5681 24.9202 77.644 25.7671 79.238 27.6041 79.7106 29.9098 80.1143 31.8793 79.6369 33.7909 78.5774 35.2784 80.3665 36.4414 81.5855 38.4157 81.7024 40.6968 81.7889 42.3849 81.2607 43.9561 80.3181 45.1999 81.9752 46.3795 83.0908 48.2773 83.2024 50.4546 83.4039 54.3868 80.2699 57.6855 76.3325 57.6855L60.0736 57.6855 61.2193 61.3668C62.3054 64.8565 63.0023 68.4557 63.2973 72.0986L63.4633 74.1492C63.7774 78.0293 60.7133 81.3516 56.8205 81.3516 54.2519 81.3516 51.9119 79.8754 50.8057 77.5572L45.28 65.9771C44.8163 65.0053 44.2818 64.0689 43.681 63.1753L42.5855 61.5461C39.7058 57.2637 34.8836 54.6953 29.723 54.6953L23.7314 54.6953C19.8655 54.6953 16.7314 51.5613 16.7314 47.6953L16.7314 27.1484C16.7314 23.2824 19.8655 20.1484 23.7314 20.1484L26.1524 20.1484C28.7768 20.1484 31.3799 19.6789 33.8389 18.762L40.4765 16.2869ZM49.5604 18.6484 58.1175 18.6484C58.1699 18.6526 58.2229 18.6547 58.2764 18.6547L68.8076 18.6547C69.8484 18.6547 70.7886 18.9469 71.4184 19.43 71.9827 19.8628 72.4014 20.5166 72.4014 21.6097 72.4014 21.9282 72.3201 22.5314 72.0162 23.081 71.7469 23.5678 71.2821 24.0651 70.3354 24.3175 70.2404 24.3428 70.1489 24.3745 70.0612 24.4121L69.8506 24.4121C68.746 24.4121 67.8506 25.3075 67.8506 26.4121 67.8506 27.5167 68.746 28.4121 69.8506 28.4121L72.9716 28.4121C74.3389 28.4121 75.5176 29.3738 75.7921 30.713 76.158 32.4982 74.7941 34.1699 72.9718 34.1699L71.8506 34.1699C70.746 34.1699 69.8506 35.0653 69.8506 36.1699 69.8506 37.2745 70.746 38.1699 71.8506 38.1699L72.9718 38.1699C73.163 38.1699 73.3521 38.1622 73.5389 38.1471 73.6377 38.1621 73.7388 38.1699 73.8418 38.1699L74.8317 38.1699C76.3648 38.1699 77.6292 39.3712 77.7076 40.9015 77.7919 42.5472 76.4803 43.9277 74.8325 43.9277L73.3418 43.9277C72.2372 43.9277 71.3418 44.8232 71.3418 45.9277 71.3418 47.0323 72.2372 47.9277 73.3418 47.9277L76.332 47.9277C77.8649 47.9277 79.1292 49.1289 79.2076 50.6593 79.2919 52.305 77.9803 53.6855 76.3325 53.6855L59.9598 53.6855C57.3196 53.6855 55.4359 56.2447 56.2205 58.7656L57.4 62.5555C58.3985 65.7637 59.0392 69.0724 59.3103 72.4214L59.4763 74.472C59.6019 76.0233 58.3769 77.3516 56.8205 77.3516 55.7936 77.3516 54.858 76.7614 54.4157 75.8345L48.8901 64.2545C48.342 63.106 47.7104 61.9993 47.0003 60.9433L45.9048 59.3141C42.4977 54.2473 36.9293 51.0878 30.8779 50.7295L30.8779 23.7154C32.363 23.4409 33.8213 23.0376 35.2364 22.5099L41.874 20.0349C44.3329 19.118 46.9361 18.6484 49.5604 18.6484ZM26.8779 24.1383 26.8779 50.6953 23.7314 50.6953C22.0746 50.6953 20.7314 49.3522 20.7314 47.6953L20.7314 27.1484C20.7314 25.4916 22.0746 24.1484 23.7314 24.1484L26.1524 24.1484C26.3945 24.1484 26.6363 24.1451 26.8779 24.1383Z" class="MsftOfcThm_Background1_Fill_v2" stroke="none" stroke-width="1" stroke-linecap="butt" stroke-linejoin="miter" stroke-miterlimit="4" fill="#FFFFFF" fill-rule="evenodd" fill-opacity="1" clip-rule="evenodd"/></svg>