<svg width="40" height="40" viewBox="0 0 40 40" fill="none" xmlns="http://www.w3.org/2000/svg">
<g clip-path="url(#clip0_595_1095)">
<circle cx="20" cy="20" r="19.25" stroke="black" stroke-width="1.5"/>
<path d="M22.4073 12.1417H18.259M22.4073 12.1417L23.5923 9.17833C23.0007 9.17833 22.4073 9.17833 21.814 9.77167C21.524 9.36167 21.2223 9.17833 20.334 9.16667C19.444 9.17833 19.1173 9.43333 18.8523 9.77167C18.259 9.17833 17.6673 9.17833 17.074 9.17833L18.259 12.1417M22.4073 12.1417C23.5923 13.3267 25.139 13.8968 25.3707 16.3118C25.6423 19.1468 23.139 21.4768 20.334 21.6302C17.5273 21.4768 14.9157 19.1352 15.2957 16.3118C15.6223 13.8968 17.074 13.3267 18.259 12.1417M10.8333 27.805C10.8333 27.805 13.6083 25.06 13.9283 24.7683C14.2467 24.4783 14.5667 23.9833 16.34 23.955C18.1133 23.925 21.0783 23.925 21.2817 23.955C21.4833 23.9833 22.6967 24.3867 22.3483 25.87M15.4622 30.9167C15.4622 30.9167 16.308 29.9562 16.5997 29.6945C16.8913 29.4328 17.3113 28.9462 20.0013 28.9978C21.3963 29.0228 22.6013 28.9112 22.938 28.9112C23.2713 28.9112 24.263 28.4128 24.8247 27.9528C26.1397 26.8762 28.9663 24.3895 28.9663 24.3895C28.9663 24.3895 29.4163 23.8245 28.9663 23.3145C28.5163 22.8062 27.8763 23.0978 27.4113 23.3745C26.9463 23.6495 26.603 23.8212 26.0663 24.1195C23.608 25.4845 22.7897 25.9595 21.788 25.9745C20.7847 25.9895 19.118 25.9462 19.118 25.9462" stroke="black" stroke-width="1.5" stroke-linecap="round" stroke-linejoin="round"/>
</g>
<defs>
<clipPath id="clip0_595_1095">
<rect width="40" height="40" fill="white"/>
</clipPath>
</defs>
</svg>
