<svg width="40" height="40" viewBox="0 0 40 40" fill="none" xmlns="http://www.w3.org/2000/svg">
<g clip-path="url(#clip0_595_1099)">
<circle cx="20" cy="20" r="19.25" stroke="black" stroke-width="1.5"/>
<path d="M23.4879 9.16666H13.5714C12.98 9.16666 12.5 9.63633 12.5 10.215V29.7849C12.5 30.3636 12.98 30.8333 13.5714 30.8333H26.4286C27.0207 30.8333 27.5 30.3636 27.5 29.7849V13.0953C27.5 12.8171 27.3871 12.5509 27.1864 12.3545L24.2457 9.47418C24.045 9.27709 23.7721 9.16666 23.4879 9.16666" stroke="black" stroke-width="1.5" stroke-linecap="round"/>
<path d="M23.3611 18.7366H16.6389C15.9636 18.7366 15.4167 19.3084 15.4167 20.0143V27.0421C15.4167 27.7481 15.9636 28.3199 16.6389 28.3199H23.3611C24.0364 28.3199 24.5833 27.7481 24.5833 27.0421V20.0143C24.5833 19.3084 24.0364 18.7366 23.3611 18.7366" stroke="black" stroke-width="1.5" stroke-linecap="round"/>
</g>
<defs>
<clipPath id="clip0_595_1099">
<rect width="40" height="40" fill="white"/>
</clipPath>
</defs>
</svg>
