<svg width="40" height="40" viewBox="0 0 40 40" fill="none" xmlns="http://www.w3.org/2000/svg">
<g clip-path="url(#clip0_595_1093)">
<circle cx="20" cy="20" r="19.25" stroke="black" stroke-width="1.5"/>
<g clip-path="url(#clip1_595_1093)">
<path d="M12.8167 26.85L13.3492 26.3219L13.347 26.3197L12.8167 26.85ZM20.0167 9.5V8.75H19.706L19.4864 8.96966L20.0167 9.5ZM16.1334 23.5667L15.5989 24.0929L15.603 24.097L16.1334 23.5667ZM20.0167 14.2167L20.0079 14.9667H20.0167V14.2167ZM23.9 15.8L24.4345 15.2737L24.4262 15.2656L23.9 15.8ZM25.4834 19.6833L24.7334 19.6744V19.6833H25.4834ZM16.6304 24.1137C16.9232 23.8208 16.9232 23.3459 16.6304 23.053C16.3375 22.7601 15.8626 22.7601 15.5697 23.053L16.1 23.5833L16.6304 24.1137ZM25.4667 19.6833L24.7167 19.6744V19.6833H25.4667ZM23.8667 23.55L24.397 24.0803L24.4012 24.0761L23.8667 23.55ZM19.9834 25.1667L19.9834 25.9167L19.9922 25.9166L19.9834 25.1667ZM16.1167 23.5667L15.5822 24.0929L15.5864 24.097L16.1167 23.5667ZM14.5167 19.6833L13.7666 19.6833L13.7667 19.6923L14.5167 19.6833ZM20 14.2167L19.9912 14.9667H20V14.2167ZM20.1167 7.08333L20.0749 6.33449L20.072 6.33466L20.1167 7.08333ZM20 9.51666V8.76666C17.2128 8.76666 14.4004 9.82104 12.2841 11.9552L12.8167 12.4833L13.3493 13.0114C15.1663 11.179 17.5872 10.2667 20 10.2667V9.51666ZM12.8167 12.4833L12.2864 11.953C10.1579 14.0814 9.08211 16.8756 9.10004 19.6715L9.85002 19.6667L10.6 19.6619C10.5846 17.2578 11.5088 14.8519 13.347 13.0137L12.8167 12.4833ZM9.85002 19.6667H9.10002C9.10002 22.4731 10.156 25.25 12.2864 27.3803L12.8167 26.85L13.347 26.3197C11.5107 24.4833 10.6 22.0936 10.6 19.6667H9.85002ZM12.8167 26.85L12.2841 27.3781C14.4151 29.527 17.1932 30.5833 20 30.5833V29.8333V29.0833C17.5735 29.0833 15.1849 28.173 13.3492 26.3219L12.8167 26.85ZM20 29.8333V30.5833C22.7923 30.5833 25.5851 29.5089 27.7137 27.3803L27.1834 26.85L26.653 26.3197C24.8149 28.1578 22.4077 29.0833 20 29.0833V29.8333ZM27.1834 26.85L27.7137 27.3803C29.8423 25.2518 30.9167 22.459 30.9167 19.6667H30.1667H29.4167C29.4167 22.0743 28.4911 24.4816 26.653 26.3197L27.1834 26.85ZM30.1667 19.6667H30.9167C30.9167 16.8621 29.8619 14.0666 27.7281 11.9508L27.2 12.4833L26.6719 13.0159C28.5048 14.8334 29.4167 17.2378 29.4167 19.6667H30.1667ZM27.2 12.4833L27.7326 11.9552C25.6016 9.80636 22.8235 8.75 20.0167 8.75V9.5V10.25C22.4432 10.25 24.8318 11.1603 26.6675 13.0114L27.2 12.4833ZM20.0167 9.5L19.4864 8.96966L19.4697 8.98633L20 9.51666L20.5303 10.047L20.547 10.0303L20.0167 9.5ZM23.8834 23.55L23.353 23.0197C22.434 23.9387 21.2253 24.4022 19.9912 24.4167L20 25.1667L20.0088 25.9166C21.6081 25.8978 23.1994 25.2946 24.4137 24.0803L23.8834 23.55ZM20 25.1667V24.4167C18.8058 24.4167 17.5829 23.9556 16.6637 23.0363L16.1334 23.5667L15.603 24.097C16.8171 25.3111 18.4276 25.9167 20 25.9167V25.1667ZM16.1334 23.5667L16.6678 23.0405C15.7473 22.1056 15.2978 20.8957 15.2833 19.6744L14.5334 19.6833L13.7834 19.6923C13.8022 21.271 14.3861 22.8611 15.5989 24.0929L16.1334 23.5667ZM14.5334 19.6833H15.2834C15.2834 18.4558 15.7444 17.2496 16.6637 16.3303L16.1334 15.8L15.603 15.2697C14.3889 16.4838 13.7834 18.0775 13.7834 19.6833H14.5334ZM16.1334 15.8L16.6637 16.3303C17.5831 15.4109 18.7869 14.9522 20.0079 14.9666L20.0167 14.2167L20.0255 13.4667C18.4132 13.4477 16.8169 14.0558 15.603 15.2697L16.1334 15.8ZM20.0167 14.2167V14.9667C21.2467 14.9667 22.438 15.413 23.3738 16.3344L23.9 15.8L24.4262 15.2656C23.1954 14.0537 21.62 13.4667 20.0167 13.4667V14.2167ZM23.9 15.8L23.3656 16.3262C24.2906 17.2656 24.7477 18.4724 24.7334 19.6744L25.4834 19.6833L26.2333 19.6923C26.2523 18.0943 25.6428 16.501 24.4344 15.2738L23.9 15.8ZM25.4834 19.6833H24.7334C24.7334 20.8723 24.259 22.0992 23.3489 23.0239L23.8834 23.55L24.4178 24.0761C25.6077 22.8674 26.2334 21.2611 26.2334 19.6833H25.4834ZM27.2 12.4833L26.6697 11.953L23.353 15.2697L23.8834 15.8L24.4137 16.3303L27.7304 13.0137L27.2 12.4833ZM16.1 23.5833L15.5697 23.053L12.2864 26.3363L12.8167 26.8667L13.347 27.397L16.6304 24.1137L16.1 23.5833ZM16.1334 15.8L16.6637 15.2697L13.347 11.953L12.8167 12.4833L12.2864 13.0137L15.603 16.3303L16.1334 15.8ZM27.2 26.8667L27.7304 26.3363L24.4137 23.0197L23.8834 23.55L23.353 24.0803L26.6697 27.397L27.2 26.8667ZM9.85002 19.6667L9.84735 20.4167L14.5307 20.4333L14.5334 19.6833L14.536 18.9333L9.85269 18.9167L9.85002 19.6667ZM25.4834 19.6833V20.4333H30.1834V19.6833V18.9333H25.4834V19.6833ZM23.8834 15.8L23.3489 16.3262C24.2739 17.2656 24.7311 18.4724 24.7167 19.6744L25.4667 19.6833L26.2166 19.6923C26.2357 18.0943 25.6261 16.501 24.4178 15.2738L23.8834 15.8ZM25.4667 19.6833H24.7167C24.7167 20.8723 24.2424 22.0992 23.3322 23.0239L23.8667 23.55L24.4012 24.0761C25.591 22.8674 26.2167 21.2611 26.2167 19.6833H25.4667ZM23.8667 23.55L23.3364 23.0197C22.4173 23.9387 21.2086 24.4022 19.9745 24.4167L19.9834 25.1667L19.9922 25.9166C21.5914 25.8978 23.1828 25.2946 24.397 24.0803L23.8667 23.55ZM19.9834 25.1667V24.4167C18.7892 24.4167 17.5663 23.9556 16.647 23.0363L16.1167 23.5667L15.5864 24.097C16.8004 25.3111 18.4109 25.9167 19.9834 25.9167V25.1667ZM16.1167 23.5667L16.6511 23.0405C15.7306 22.1056 15.2812 20.8957 15.2666 19.6744L14.5167 19.6833L13.7667 19.6923C13.7855 21.271 14.3694 22.8611 15.5823 24.0929L16.1167 23.5667ZM14.5167 19.6833H15.2667C15.2667 18.4558 15.7278 17.2496 16.647 16.3303L16.1167 15.8L15.5864 15.2697C14.3723 16.4838 13.7667 18.0775 13.7667 19.6833H14.5167ZM16.1167 15.8L16.647 16.3303C17.5665 15.4109 18.7702 14.9522 19.9912 14.9666L20 14.2167L20.0088 13.4667C18.3965 13.4477 16.8002 14.0558 15.5864 15.2697L16.1167 15.8ZM20 14.2167V14.9667C21.2301 14.9667 22.4213 15.413 23.3572 16.3344L23.8834 15.8L24.4096 15.2656C23.1788 14.0537 21.6033 13.4667 20 13.4667V14.2167ZM20.0167 29.85L20.7667 29.8473L20.75 25.164L20 25.1667L19.25 25.1693L19.2667 29.8527L20.0167 29.85ZM20 14.2H20.75V9.51666H20H19.25V14.2H20ZM12.8167 26.8667C12.1807 27.2642 12.1808 27.2643 12.1809 27.2645C12.181 27.2646 12.1811 27.2648 12.1812 27.265C12.1815 27.2654 12.1817 27.2658 12.1821 27.2664C12.1828 27.2675 12.1836 27.2689 12.1847 27.2706C12.1869 27.2741 12.19 27.279 12.1939 27.2851C12.2017 27.2973 12.2128 27.3147 12.2272 27.337C12.256 27.3814 12.2977 27.4452 12.3517 27.5254C12.4596 27.6858 12.6164 27.9126 12.8155 28.1831C13.2127 28.7228 13.7834 29.4438 14.4741 30.1617C15.1621 30.8767 15.9875 31.6081 16.897 32.1512C17.8035 32.6926 18.8442 33.0768 19.9418 33.0155L19.9 32.2667L19.8582 31.5178C19.1642 31.5566 18.4236 31.3158 17.6661 30.8634C16.9115 30.4127 16.1901 29.7817 15.5551 29.1217C14.9229 28.4646 14.3946 27.798 14.0236 27.294C13.8386 27.0426 13.694 26.8335 13.5965 26.6884C13.5477 26.6159 13.5108 26.5595 13.4865 26.5221C13.4744 26.5033 13.4655 26.4893 13.4598 26.4804C13.4569 26.4759 13.4549 26.4727 13.4537 26.4708C13.4531 26.4699 13.4528 26.4693 13.4526 26.469C13.4525 26.4689 13.4525 26.4688 13.4525 26.4688C13.4525 26.4688 13.4525 26.4689 13.4525 26.4689C13.4526 26.469 13.4527 26.4692 12.8167 26.8667ZM19.9 32.2667L19.9418 33.0155C21.0049 32.9562 22.0299 32.5312 22.9406 31.9803C23.8562 31.4264 24.701 30.7179 25.4138 30.0321C26.1286 29.3443 26.7249 28.6654 27.142 28.1593C27.351 27.9058 27.5162 27.6943 27.6299 27.545C27.6868 27.4704 27.7309 27.4112 27.7612 27.37C27.7764 27.3494 27.7881 27.3333 27.7963 27.322C27.8004 27.3163 27.8037 27.3119 27.806 27.3087C27.8071 27.3071 27.8081 27.3058 27.8088 27.3048C27.8091 27.3043 27.8094 27.3039 27.8096 27.3035C27.8098 27.3034 27.8099 27.3032 27.81 27.3031C27.8101 27.3029 27.8102 27.3028 27.2 26.8667C26.5899 26.4306 26.5899 26.4304 26.59 26.4303C26.59 26.4303 26.5901 26.4303 26.5901 26.4303C26.5901 26.4302 26.59 26.4303 26.5899 26.4304C26.5897 26.4307 26.5893 26.4313 26.5887 26.4322C26.5874 26.434 26.5852 26.437 26.5822 26.4412C26.5761 26.4496 26.5665 26.4627 26.5536 26.4802C26.5277 26.5153 26.4885 26.5681 26.4367 26.636C26.3332 26.7719 26.18 26.9682 25.9846 27.2052C25.5929 27.6804 25.036 28.314 24.3738 28.9512C23.7094 29.5904 22.9532 30.2195 22.1642 30.6968C21.3702 31.1771 20.5868 31.4772 19.8582 31.5178L19.9 32.2667ZM27.2 12.4833C26.8025 13.1193 26.8024 13.1193 26.8023 13.1192C26.8023 13.1192 26.8022 13.1191 26.8022 13.1191C26.8022 13.1191 26.8022 13.1191 26.8024 13.1192C26.8026 13.1194 26.8032 13.1198 26.8042 13.1204C26.8061 13.1216 26.8093 13.1236 26.8137 13.1264C26.8227 13.1321 26.8367 13.1411 26.8554 13.1532C26.8929 13.1774 26.9493 13.2144 27.0218 13.2631C27.1668 13.3607 27.376 13.5052 27.6273 13.6902C28.1314 14.0612 28.7979 14.5895 29.455 15.2217C30.115 15.8567 30.7461 16.5781 31.1967 17.3327C31.6491 18.0902 31.8899 18.8308 31.8512 19.5249L32.6 19.5667L33.3489 19.6085C33.4101 18.5109 33.0259 17.4702 32.4846 16.5636C31.9414 15.6542 31.21 14.8287 30.495 14.1408C29.7771 13.4501 29.0562 12.8794 28.5165 12.4822C28.2459 12.283 28.0192 12.1262 27.8588 12.0183C27.7785 11.9644 27.7148 11.9226 27.6703 11.8938C27.6481 11.8795 27.6307 11.8683 27.6184 11.8605C27.6123 11.8566 27.6075 11.8536 27.604 11.8514C27.6022 11.8503 27.6008 11.8494 27.5997 11.8487C27.5992 11.8484 27.5987 11.8481 27.5984 11.8479C27.5982 11.8477 27.598 11.8476 27.5979 11.8476C27.5977 11.8474 27.5975 11.8473 27.2 12.4833ZM32.6 19.5667L31.8512 19.5249C31.8105 20.2534 31.5105 21.0368 31.0302 21.8308C30.5528 22.6199 29.9238 23.3761 29.2846 24.0404C28.6473 24.7027 28.0138 25.2595 27.5386 25.6512C27.3015 25.8466 27.1052 25.9998 26.9693 26.1034C26.9014 26.1551 26.8487 26.1944 26.8136 26.2202C26.7961 26.2332 26.7829 26.2427 26.7746 26.2488C26.7704 26.2518 26.7674 26.254 26.7656 26.2553C26.7647 26.2559 26.7641 26.2564 26.7638 26.2566C26.7637 26.2567 26.7636 26.2567 26.7636 26.2567C26.7636 26.2567 26.7637 26.2566 26.7637 26.2566C26.7638 26.2566 26.7639 26.2565 27.2 26.8667C27.6361 27.4768 27.6363 27.4767 27.6365 27.4766C27.6365 27.4765 27.6367 27.4764 27.6369 27.4763C27.6372 27.476 27.6376 27.4758 27.6381 27.4754C27.6391 27.4747 27.6404 27.4738 27.642 27.4726C27.6452 27.4703 27.6497 27.4671 27.6553 27.463C27.6666 27.4548 27.6827 27.443 27.7033 27.4279C27.7445 27.3975 27.8037 27.3534 27.8784 27.2965C28.0276 27.1828 28.2391 27.0177 28.4927 26.8087C28.9988 26.3915 29.6777 25.7952 30.3655 25.0804C31.0513 24.3677 31.7597 23.5228 32.3136 22.6072C32.8645 21.6965 33.2895 20.6716 33.3489 19.6085L32.6 19.5667ZM12.8167 26.8667C13.2142 26.2307 13.2143 26.2307 13.2144 26.2308C13.2144 26.2308 13.2145 26.2309 13.2145 26.2309C13.2146 26.2309 13.2145 26.2309 13.2144 26.2308C13.2141 26.2306 13.2135 26.2302 13.2125 26.2296C13.2106 26.2284 13.2074 26.2264 13.203 26.2236C13.194 26.2179 13.18 26.2089 13.1613 26.1968C13.1238 26.1726 13.0675 26.1356 12.995 26.0869C12.8499 25.9893 12.6407 25.8448 12.3894 25.6598C11.8853 25.2888 11.2188 24.7605 10.5617 24.1283C9.9017 23.4933 9.27061 22.7719 8.81998 22.0173C8.3676 21.2598 8.12678 20.5192 8.16552 19.8251L7.41669 19.7833L6.66785 19.7415C6.60659 20.8391 6.99078 21.8798 7.53214 22.7864C8.07526 23.6958 8.80668 24.5213 9.52169 25.2092C10.2396 25.8999 10.9605 26.4706 11.5002 26.8678C11.7708 27.067 11.9976 27.2238 12.158 27.3317C12.2382 27.3856 12.3019 27.4274 12.3464 27.4561C12.3686 27.4705 12.386 27.4817 12.3983 27.4895C12.4044 27.4933 12.4092 27.4964 12.4127 27.4986C12.4145 27.4997 12.4159 27.5006 12.417 27.5013C12.4175 27.5016 12.418 27.5019 12.4183 27.5021C12.4185 27.5022 12.4187 27.5024 12.4188 27.5024C12.419 27.5026 12.4192 27.5027 12.8167 26.8667ZM7.41669 19.7833L8.16552 19.8251C8.20619 19.0966 8.50621 18.3132 8.98653 17.5192C9.46388 16.7301 10.0929 15.9739 10.7321 15.3096C11.3694 14.6473 12.003 14.0905 12.4781 13.6988C12.7152 13.5034 12.9115 13.3501 13.0474 13.2466C13.1153 13.1949 13.168 13.1556 13.2031 13.1298C13.2206 13.1168 13.2338 13.1073 13.2422 13.1012C13.2463 13.0982 13.2494 13.096 13.2511 13.0947C13.252 13.094 13.2526 13.0936 13.2529 13.0934C13.253 13.0933 13.2531 13.0933 13.2531 13.0933C13.2531 13.0933 13.253 13.0934 13.253 13.0934C13.2529 13.0934 13.2528 13.0935 12.8167 12.4833C12.3806 11.8732 12.3804 11.8733 12.3803 11.8734C12.3802 11.8735 12.38 11.8736 12.3798 11.8737C12.3795 11.8739 12.3791 11.8742 12.3786 11.8746C12.3776 11.8753 12.3763 11.8762 12.3747 11.8774C12.3715 11.8797 12.367 11.8829 12.3614 11.887C12.3501 11.8952 12.334 11.907 12.3134 11.9221C12.2722 11.9525 12.213 11.9966 12.1383 12.0534C11.9891 12.1672 11.7776 12.3323 11.524 12.5413C11.0179 12.9585 10.339 13.5548 9.65124 14.2696C8.96545 14.9823 8.257 15.8272 7.7031 16.7428C7.15217 17.6535 6.72719 18.6784 6.66785 19.7415L7.41669 19.7833ZM27.2 12.4833C27.836 12.0858 27.8359 12.0857 27.8358 12.0855C27.8357 12.0854 27.8356 12.0852 27.8355 12.085C27.8353 12.0846 27.835 12.0842 27.8346 12.0836C27.834 12.0825 27.8331 12.0811 27.832 12.0794C27.8298 12.0759 27.8267 12.071 27.8228 12.0649C27.815 12.0527 27.8039 12.0353 27.7895 12.013C27.7607 11.9686 27.719 11.9048 27.665 11.8246C27.5572 11.6642 27.4003 11.4374 27.2012 11.1669C26.804 10.6272 26.2333 9.90623 25.5426 9.18834C24.8546 8.47332 24.0292 7.7419 23.1197 7.19879C22.2132 6.65742 21.1725 6.27323 20.0749 6.3345L20.1167 7.08333L20.1585 7.83217C20.8525 7.79343 21.5931 8.03424 22.3506 8.48662C23.1052 8.93726 23.8266 9.56834 24.4616 10.2283C25.0938 10.8854 25.6221 11.552 25.9931 12.056C26.1781 12.3074 26.3227 12.5165 26.4203 12.6616C26.469 12.7341 26.5059 12.7905 26.5302 12.8279C26.5423 12.8467 26.5513 12.8607 26.5569 12.8696C26.5598 12.8741 26.5618 12.8773 26.563 12.8792C26.5636 12.8801 26.564 12.8807 26.5641 12.881C26.5642 12.8811 26.5643 12.8812 26.5642 12.8812C26.5642 12.8812 26.5642 12.8811 26.5642 12.8811C26.5641 12.881 26.564 12.8808 27.2 12.4833ZM20.1167 7.08333L20.072 6.33466C18.9992 6.39864 17.9694 6.8243 17.0554 7.37656C16.1371 7.93143 15.2934 8.63967 14.5834 9.3249C13.8713 10.0121 13.2795 10.6898 12.866 11.195C12.6588 11.4481 12.4954 11.6592 12.3828 11.8082C12.3265 11.8827 12.2829 11.9418 12.2529 11.983C12.2379 12.0035 12.2263 12.0196 12.2182 12.0309C12.2141 12.0366 12.2109 12.0411 12.2086 12.0443C12.2075 12.0459 12.2065 12.0472 12.2058 12.0482C12.2055 12.0487 12.2052 12.0491 12.2049 12.0494C12.2048 12.0496 12.2047 12.0498 12.2046 12.0499C12.2045 12.05 12.2044 12.0502 12.8167 12.4833C13.429 12.9165 13.4289 12.9166 13.4288 12.9167C13.4288 12.9167 13.4288 12.9168 13.4288 12.9168C13.4287 12.9168 13.4288 12.9167 13.4289 12.9166C13.4291 12.9163 13.4295 12.9158 13.4301 12.9149C13.4314 12.9131 13.4335 12.9101 13.4365 12.906C13.4425 12.8976 13.4519 12.8846 13.4646 12.8672C13.4901 12.8323 13.5288 12.7798 13.5798 12.7122C13.682 12.5769 13.8334 12.3813 14.0267 12.1451C14.4143 11.6716 14.9662 11.04 15.625 10.4043C16.2858 9.76658 17.0401 9.13836 17.8311 8.66041C18.6264 8.17986 19.4176 7.87635 20.1613 7.832L20.1167 7.08333Z" fill="black"/>
</g>
</g>
<defs>
<clipPath id="clip0_595_1093">
<rect width="40" height="40" fill="white"/>
</clipPath>
<clipPath id="clip1_595_1093">
<rect width="27.6833" height="27.6833" fill="white" transform="translate(6.16669 5.83333)"/>
</clipPath>
</defs>
</svg>
