<svg width="40" height="40" viewBox="0 0 40 40" fill="none" xmlns="http://www.w3.org/2000/svg">
<g clip-path="url(#clip0_595_1096)">
<circle cx="20" cy="20" r="19.25" stroke="black" stroke-width="1.5"/>
<path d="M25.0137 28.3381V29.1715C25.0137 30.0919 24.2675 30.8381 23.347 30.8381H16.6803C15.7599 30.8381 15.0137 30.0919 15.0137 29.1715V28.3381M19.1667 19.2026H20.8333M19.1667 22.536H20.8333M15.8333 19.2026H17.5M15.8333 22.536H17.5M22.5 19.2026H24.1667M22.5 22.536H24.1667M21.6154 30.8381V28.3381M15.8333 11.6666H24.1667V16.6666H15.8333V11.6666ZM14.1667 25.8333H25.8333C26.7538 25.8333 27.5 25.0871 27.5 24.1666V10.8333C27.5 9.91282 26.7538 9.16663 25.8333 9.16663H14.1667C13.2462 9.16663 12.5 9.91282 12.5 10.8333V24.1666C12.5 25.0871 13.2462 25.8333 14.1667 25.8333Z" stroke="black" stroke-width="1.5" stroke-linecap="round" stroke-linejoin="round"/>
</g>
<defs>
<clipPath id="clip0_595_1096">
<rect width="40" height="40" fill="white"/>
</clipPath>
</defs>
</svg>
