<svg width="40" height="40" viewBox="0 0 40 40" fill="none" xmlns="http://www.w3.org/2000/svg">
<g clip-path="url(#clip0_595_1097)">
<circle cx="20" cy="20" r="19.25" stroke="black" stroke-width="1.5"/>
<path d="M9.26556 16.6667L11.29 20.3873L9.26556 23.8889M28.5198 18.0917C28.5198 18.7483 29.1048 19.2817 29.8282 19.2817C30.5498 19.2817 31.3082 18.6367 31.1365 18.0917L29.7722 13.765C29.7005 13.51 29.4655 13.3333 29.2005 13.3333H19.9855C19.7205 13.3333 19.4872 13.51 19.4138 13.765L18.0498 18.0917C17.8848 18.615 18.6365 19.2817 19.3598 19.2817C20.0815 19.2817 20.6682 18.0917 20.6682 18.0917M28.5198 18.0917C28.6348 18.6867 27.9332 19.2817 27.2115 19.2817C26.4882 19.2817 25.9015 18.7483 25.9015 18.0917M28.5198 18.0917L27.8023 13.3333M25.9015 18.0917C25.9948 18.7583 25.3165 19.2817 24.5932 19.2817C23.8715 19.2817 23.2848 18.7483 23.2848 18.0917M25.9015 18.0917L25.4605 13.3333M23.2848 18.0917C23.1748 18.7433 22.6998 19.2817 21.9765 19.2817C21.2532 19.2817 20.6682 18.7483 20.6682 18.0917M23.2848 18.0917L23.6898 13.3333M20.6682 18.0917L21.433 13.3333M30.2442 19.2812V26.4195C30.2442 26.7478 29.9775 27.0145 29.6492 27.0145H19.5375C19.2092 27.0145 18.9425 26.7478 18.9425 26.4195V19.2812M18.9427 21.2245H22.3427C22.7643 21.2245 23.106 21.5662 23.106 21.9895V27.0145M12.0433 16.6667L14.0678 20.3873L12.0433 23.8889" stroke="black" stroke-width="1.5" stroke-linecap="round" stroke-linejoin="round"/>
</g>
<defs>
<clipPath id="clip0_595_1097">
<rect width="40" height="40" fill="white"/>
</clipPath>
</defs>
</svg>
