<svg width="96" height="96" viewBox="0 0 96 96" xmlns="http://www.w3.org/2000/svg" xmlns:xlink="http://www.w3.org/1999/xlink" fill="none" overflow="hidden"><style>
.MsftOfcThm_Text1_Fill_v2 {
 fill:#000000; 
}
</style>
<path d="M46 17.0635C29.8112 18.0943 17 31.551 17 48 17 49.3562 17.087 50.6912 17.2555 52L46 52 46 17.0635ZM50 17.0635 50 38.1238C51.5085 38.3119 52.9519 38.71 54.2998 39.288L65.3777 22.325C60.9383 19.3144 55.6768 17.425 50 17.0635ZM60.6418 44.1914C59.8051 43.1146 58.8338 42.1475 57.7532 41.3154L68.5472 24.7872C72.0588 27.8979 74.8595 31.7932 76.6746 36.1985 76.4572 36.2274 76.2409 36.2927 76.0342 36.3974L60.6418 44.1914ZM62.686 47.6399C63.278 49.0051 63.6853 50.4689 63.8762 52L78.7445 52C78.913 50.6912 79 49.3562 79 48 79 45.2031 78.6296 42.4927 77.9352 39.9152 77.9045 39.9329 77.8732 39.9498 77.8412 39.966L62.686 47.6399ZM50 42.1659 50 52 59.8341 52C58.991 46.975 55.025 43.009 50 42.1659ZM13.577 54.3613C13.7684 55.403 14.7347 56.1068 15.7716 55.9871 15.8466 55.9956 15.9228 56 16 56L80 56C80.0772 56 80.1534 55.9956 80.2284 55.9871 81.2653 56.1068 82.2316 55.403 82.423 54.3613 82.8021 52.297 83 50.1707 83 48 83 28.67 67.33 13 48 13 28.67 13 13 28.67 13 48 13 50.1707 13.1979 52.297 13.577 54.3613ZM43 73C43 70.2386 45.2386 68 48 68 50.7614 68 53 70.2386 53 73 53 75.7614 50.7614 78 48 78 45.2386 78 43 75.7614 43 73ZM48 64C43.7126 64 40.1253 66.998 39.2203 71.012 39.148 71.0041 39.0745 71 39 71L15 71C13.8954 71 13 71.8954 13 73 13 74.1046 13.8954 75 15 75L39 75C39.0745 75 39.148 74.9959 39.2203 74.988 40.1253 79.002 43.7126 82 48 82 52.2874 82 55.8747 79.002 56.7797 74.988 56.852 74.9959 56.9255 75 57 75L81 75C82.1046 75 83 74.1046 83 73 83 71.8954 82.1046 71 81 71L57 71C56.9255 71 56.852 71.0041 56.7797 71.012 55.8747 66.998 52.2874 64 48 64Z" class="MsftOfcThm_Text1_Fill_v2" stroke="none" stroke-width="1" stroke-linecap="butt" stroke-linejoin="miter" stroke-miterlimit="4" fill="#000000" fill-rule="evenodd" fill-opacity="1" clip-rule="evenodd"/></svg>