<svg width="96" height="96" viewBox="0 0 96 96" xmlns="http://www.w3.org/2000/svg" xmlns:xlink="http://www.w3.org/1999/xlink" fill="none" overflow="hidden"><style>
.MsftOfcThm_Text1_Fill_v2 {
 fill:#000000; 
}
</style>
<path d="M17 48C17 30.8792 30.8792 16.9999 48.0001 16.9999 65.121 16.9999 79.0002 30.8792 79.0002 48 79.0002 65.1209 65.121 79.0001 48.0001 79.0001 30.8792 79.0001 17 65.1209 17 48ZM48.0001 12.9999C28.6701 12.9999 13 28.67 13 48 13 67.3301 28.6701 83.0001 48.0001 83.0001 67.3301 83.0001 83.0002 67.3301 83.0002 48 83.0002 28.67 67.3301 12.9999 48.0001 12.9999ZM64.0797 40.6389C64.8961 39.8948 64.9547 38.6298 64.2107 37.8135 63.4666 36.9971 62.2016 36.9385 61.3853 37.6825L58.2082 40.5782 55.0956 43.4151 55.0425 43.4635 54.9892 43.5121 54.9358 43.5607 54.8824 43.6095 54.6675 43.8053 54.2336 44.2007 54.1244 44.3003 54.0148 44.4002 53.9049 44.5003 53.8499 44.5505 53.7948 44.6007 53.7396 44.651 53.6844 44.7013 53.6291 44.7517 53.5738 44.8021 53.3519 45.0044 53.1292 45.2074 53.0176 45.3091 52.9058 45.411 52.7939 45.513 52.7379 45.564 52.6818 45.6151 52.5696 45.7174 52.4573 45.8197 52.0074 46.2298 51.9511 46.2811 51.8948 46.3324 51.8385 46.3837 51.7822 46.4351 51.5569 46.6404 49.766 48.2727 48.8893 49.0717 48.8352 49.121 48.7811 49.1703 48.6733 49.2686 48.5658 49.3666 48.4587 49.4642 48.352 49.5614 48.2988 49.6099 48.2457 49.6583 48.1927 49.7066 48.1399 49.7548 48.0871 49.8029 48.0344 49.8509 47.9819 49.8988 47.9294 49.9466 47.8771 49.9943 47.8249 50.0418 47.7208 50.1367 47.6173 50.2311 47.5657 50.2781 47.5142 50.325 47.4117 50.4185 47.3097 50.5115 47.2082 50.6039 47.0069 50.7874 46.9071 50.8783 46.808 50.9687 46.7586 51.0137 46.7094 51.0585 46.6604 51.1032 46.6115 51.1478 46.5627 51.1922 46.5142 51.2365 46.4658 51.2806 46.4175 51.3246 46.0377 51.6707 45.6694 52.0065 45.6242 52.0477 45.5792 52.0887 45.5344 52.1295 45.4898 52.1702 45.3134 52.3309 45.2264 52.4102 45.1832 52.4495 45.1403 52.4887 44.9706 52.6433 43.3514 54.1191 35.2215 46.5373C34.4137 45.784 33.1481 45.8282 32.3948 46.636 31.6414 47.4438 31.6856 48.7093 32.4934 49.4627L41.9718 58.302C42.7337 59.0124 43.9132 59.0192 44.6831 58.3175L43.3359 56.8393C44.6831 58.3175 44.6832 58.3174 44.6833 58.3173L44.684 58.3167 44.6866 58.3143 44.6885 58.3126 44.6909 58.3104 44.6969 58.3049 44.714 58.2893 44.7193 58.2845 44.7251 58.2792 44.7378 58.2677 44.7521 58.2546C44.8239 58.1892 44.6958 58.306 44.7681 58.2401L44.8048 58.2066 44.8255 58.1877 44.8365 58.1777 44.8479 58.1673 44.8971 58.1224 45.1543 57.888 45.5023 57.5708 45.9344 57.1771 46.0547 57.0674 46.1166 57.011 46.148 56.9824 46.1797 56.9535 46.2439 56.8949 46.2765 56.8653 46.3093 56.8353 46.3758 56.7747 46.4434 56.7131 46.4776 56.6819 46.5121 56.6505 46.5819 56.5869 46.7247 56.4567 47.0226 56.1852 47.1776 56.044 47.2169 56.0081 47.2565 55.972 47.2963 55.9357 47.3364 55.8992 47.3767 55.8625 47.4172 55.8256 47.4579 55.7884 47.4989 55.7511 47.5815 55.6758 47.6651 55.5997 47.7495 55.5227 47.792 55.484 47.8347 55.445 47.8777 55.4058 47.9209 55.3665 48.0078 55.2872 48.0516 55.2473 48.0956 55.2072 48.1842 55.1265 48.3638 54.9628 48.7322 54.6271 49.112 54.2809 49.3059 54.1041 49.5024 53.925 49.552 53.8799 49.6016 53.8346 49.7014 53.7437 49.9026 53.5603 49.9533 53.5141 50.0041 53.4678 50.0551 53.4213 50.1061 53.3748 50.2087 53.2813 50.2602 53.2344 50.3118 53.1874 50.7289 52.8072 50.9402 52.6146 51.0465 52.5177 51.1532 52.4205 51.2067 52.3717 51.2603 52.3229 51.314 52.2739 51.3678 52.2249 51.4216 52.1758 51.4756 52.1266 51.5296 52.0774 51.5838 52.028 51.6923 51.9291 51.7467 51.8795 51.8012 51.8299 52.0198 51.6306 52.1296 51.5306 52.1846 51.4805 52.2396 51.4303 52.2947 51.38 52.3499 51.3298 52.4052 51.2794 52.4604 51.229 54.2514 49.5967 54.4767 49.3914 54.5893 49.2887 54.6456 49.2374 54.7019 49.1861 54.8145 49.0835 54.8707 49.0322 54.927 48.9809 54.9832 48.9297 55.0394 48.8784 55.0956 48.8272 55.1518 48.776 55.208 48.7248 55.2641 48.6737 55.3763 48.5714 55.6003 48.3673 55.8237 48.1637 56.0464 47.9607 56.1574 47.8595 56.2683 47.7585 56.3236 47.708 56.3789 47.6576 56.4341 47.6073 56.4893 47.557 56.9281 47.1571 57.7901 46.3714 58.0017 46.1785 58.0544 46.1306 58.1069 46.0827 58.2116 45.9873 58.4195 45.7977 58.6255 45.61 58.6767 45.5634 58.7277 45.5169 58.8294 45.4242 58.88 45.3781 58.9305 45.332 58.9808 45.2861 59.031 45.2404 59.4273 44.8792 59.5249 44.7903 59.5734 44.7461 59.6217 44.702 59.6699 44.6581 59.718 44.6143 59.7658 44.5707 59.8135 44.5272 59.861 44.4839 59.9084 44.4408 60.0025 44.3549 60.096 44.2698 60.1424 44.2274 60.1887 44.1853 60.5521 43.8541 60.6409 43.7731 60.6851 43.7328 60.729 43.6928 60.7728 43.6529 60.8163 43.6133 60.8596 43.5738 60.9027 43.5345 64.0797 40.6389Z" class="MsftOfcThm_Text1_Fill_v2" stroke="none" stroke-width="1" stroke-linecap="butt" stroke-linejoin="miter" stroke-miterlimit="4" fill="#000000" fill-rule="evenodd" fill-opacity="1" clip-rule="evenodd"/></svg>