<svg width="97" height="96" viewBox="0 0 97 96" xmlns="http://www.w3.org/2000/svg" xmlns:xlink="http://www.w3.org/1999/xlink" fill="none" overflow="hidden"><style>
.MsftOfcThm_Text1_Fill_v2 {
 fill:#000000; 
}
</style>
<path d="M48.9426 17.3906C43.4865 17.3906 39.0635 21.8137 39.0635 27.2698 39.0635 31.2456 41.4122 34.6771 44.8064 36.2445 44.9011 36.2882 44.9908 36.3384 45.0751 36.3943 45.8216 36.8112 46.2432 37.6796 46.0548 38.5594L43.117 52.2792C42.9196 53.2014 42.1046 53.8604 41.1614 53.8604L29.1763 53.8604C25.3103 53.8604 22.1763 56.9944 22.1763 60.8604L22.1763 63.7509 75.7094 63.7509 75.7094 60.8604C75.7094 56.9944 72.5754 53.8604 68.7094 53.8604L56.6622 53.8604C55.7051 53.8604 54.8821 53.1823 54.6991 52.2428L52.0266 38.523C51.8844 37.7929 52.1589 37.0783 52.6845 36.6248 52.8553 36.4238 53.0691 36.2534 53.3205 36.1288 56.5846 34.5121 58.8218 31.1504 58.8218 27.2698 58.8218 21.8137 54.3987 17.3906 48.9426 17.3906ZM56.2131 39.0941C60.1753 36.6529 62.8218 32.2719 62.8218 27.2698 62.8218 19.6045 56.6078 13.3906 48.9426 13.3906 41.2774 13.3906 35.0635 19.6045 35.0635 27.2698 35.0635 32.3376 37.7796 36.7677 41.8292 39.1894L39.5443 49.8604 29.1763 49.8604C23.1011 49.8604 18.1763 54.7853 18.1763 60.8604L18.1763 65.7509C18.1763 66.8555 19.0717 67.7509 20.1763 67.7509L77.7094 67.7509C78.8139 67.7509 79.7094 66.8555 79.7094 65.7509L79.7094 60.8604C79.7094 54.7853 74.7845 49.8604 68.7094 49.8604L58.3102 49.8604 56.2131 39.0941ZM23.1436 77.75C23.1436 76.6454 24.039 75.75 25.1436 75.75L72.7429 75.75C73.8475 75.75 74.7429 76.6454 74.7429 77.75 74.7429 78.8546 73.8475 79.75 72.7429 79.75L25.1436 79.75C24.039 79.75 23.1436 78.8546 23.1436 77.75Z" class="MsftOfcThm_Text1_Fill_v2" stroke="none" stroke-width="1" stroke-linecap="butt" stroke-linejoin="miter" stroke-miterlimit="4" fill="#000000" fill-rule="evenodd" fill-opacity="1" clip-rule="evenodd"/></svg>