<svg width="96" height="96" viewBox="0 0 96 96" xmlns="http://www.w3.org/2000/svg" xmlns:xlink="http://www.w3.org/1999/xlink" fill="none" overflow="hidden"><style>
.MsftOfcThm_Text1_Fill_v2 {
 fill:#000000; 
}
</style>
<path d="M68.0403 44.8246C67.3489 45.6861 67.4867 46.9449 68.3481 47.6363 69.2095 48.3277 70.4683 48.1898 71.1597 47.3284L82.5597 33.1252C83.1501 32.3896 83.1464 31.3416 82.5507 30.6103L71.1507 16.6135C70.4532 15.7571 69.1934 15.6282 68.337 16.3258 67.4805 17.0233 67.3517 18.2831 68.0493 19.1396L76.8758 29.9767 37.293 29.9767C23.7555 29.9767 12.7812 40.9509 12.7812 54.4884 12.7812 68.0258 23.7555 79.0001 37.293 79.0001L53.2421 79.0001C54.3467 79.0001 55.2421 78.1047 55.2421 77.0001 55.2421 75.8955 54.3467 75.0001 53.2421 75.0001L37.293 75.0001C25.9647 75.0001 16.7812 65.8167 16.7812 54.4884 16.7812 43.1601 25.9647 33.9767 37.293 33.9767L76.7472 33.9767 68.0403 44.8246Z" class="MsftOfcThm_Text1_Fill_v2" stroke="none" stroke-width="1" stroke-linecap="butt" stroke-linejoin="miter" stroke-miterlimit="4" fill="#000000" fill-rule="evenodd" fill-opacity="1" clip-rule="evenodd"/></svg>