<svg width="96" height="96" viewBox="0 0 96 96" xmlns="http://www.w3.org/2000/svg" xmlns:xlink="http://www.w3.org/1999/xlink" fill="none" overflow="hidden"><style>
.MsftOfcThm_Text1_Fill_v2 {
 fill:#000000; 
}
</style>
<path d="M41.2362 16.6033C44.4078 11.5179 51.9106 11.6 54.9422 16.8497L54.9424 16.8499 84.3222 67.7397C87.4034 73.075 83.5477 79.7399 77.3903 79.7399L18.6203 79.7399C12.463 79.7399 8.6073 73.0752 11.6882 67.7399L11.6884 67.7397 41.0682 16.8499C41.1185 16.7629 41.1747 16.6805 41.2362 16.6033ZM51.4782 18.8498C49.938 16.1831 46.0923 16.1832 44.5522 18.85 44.508 18.9267 44.459 18.9997 44.4059 19.0689L15.1524 69.7398 15.1522 69.74C13.6134 72.4047 15.5377 75.7399 18.6203 75.7399L77.3903 75.7399C80.4729 75.7399 82.3972 72.4047 80.8583 69.74L80.8582 69.7398 51.4784 18.85 51.4782 18.8498ZM48.0002 30.76C49.1048 30.76 50.0002 31.6554 50.0002 32.76L50.0002 54.97C50.0002 56.0746 49.1048 56.97 48.0002 56.97 46.8957 56.97 46.0002 56.0746 46.0002 54.97L46.0002 32.76C46.0002 31.6554 46.8957 30.76 48.0002 30.76ZM51.0002 65.24C51.0002 66.8968 49.6571 68.24 48.0002 68.24 46.3434 68.24 45.0002 66.8968 45.0002 65.24 45.0002 63.5831 46.3434 62.24 48.0002 62.24 49.6571 62.24 51.0002 63.5831 51.0002 65.24Z" class="MsftOfcThm_Text1_Fill_v2" stroke="none" stroke-width="1" stroke-linecap="butt" stroke-linejoin="miter" stroke-miterlimit="4" fill="#000000" fill-rule="evenodd" fill-opacity="1" clip-rule="evenodd"/></svg>