<svg width="96" height="96" viewBox="0 0 96 96" xmlns="http://www.w3.org/2000/svg" xmlns:xlink="http://www.w3.org/1999/xlink" fill="none" overflow="hidden"><style>
.MsftOfcThm_Text1_Fill_v2 {
 fill:#000000; 
}
</style>
<path d="M26.4556 20.4923C18.5829 26.9013 14.2475 36.0424 13.705 45.441L22.4084 45.441C23.3793 32.6669 33.5752 22.471 46.3494 21.5L46.3494 12.7509C39.3141 13.1581 32.3396 15.7023 26.4556 20.4923ZM9.65403 46.7098C9.6515 46.8389 9.66141 46.968 9.68363 47.0952 9.66376 47.2094 9.65379 47.3251 9.65384 47.441 9.65384 48.5456 10.5493 49.441 11.6538 49.441L22.4084 49.441C23.3797 62.2148 33.5755 72.4104 46.3494 73.3813L46.3494 84.0605 46.3496 84.0922C46.3494 84.1043 46.3494 84.1163 46.3494 84.1284 46.3519 85.233 47.2494 86.1264 48.3539 86.1239 58.2356 86.1014 68.1169 82.3188 75.6583 74.7774 76.4394 73.9963 76.4394 72.73 75.6583 71.9489 75.6068 71.8975 75.5526 71.8488 75.4959 71.8031L68.0852 64.3924C71.5927 60.3124 73.8569 55.1327 74.2897 49.441L85.0431 49.441C86.1477 49.441 87.0431 48.5456 87.0431 47.441 87.0431 47.3319 87.0344 47.2248 87.0176 47.1205 86.9051 37.3591 83.1233 27.626 75.6736 20.1762 75.1456 19.6483 74.396 19.4772 73.7244 19.6629 73.3928 19.7499 73.0793 19.9233 72.8194 20.1831L65.2993 27.7033C61.2195 24.1964 56.0403 21.9328 50.3494 21.5001L50.3494 10.932C50.3587 10.8535 50.3636 10.7736 50.3636 10.6925 50.3635 9.58796 49.468 8.69259 48.3634 8.69266 39.7683 8.6932 31.1147 11.5416 23.9303 17.3903 14.7318 24.8785 9.8646 35.7174 9.65403 46.7098ZM65.2472 61.5544C68.0412 58.2128 69.8625 54.0299 70.2758 49.441L61.0318 49.441C60.7151 51.5111 59.9037 53.4183 58.7221 55.0382 58.7623 55.0725 58.8015 55.1088 58.8396 55.1468L65.2472 61.5544ZM55.9025 57.8577C55.9369 57.898 55.9731 57.9372 56.0112 57.9752L62.4148 64.3788C59.0811 67.1502 54.9163 68.9561 50.3494 69.3674L50.3494 60.1606C52.4025 59.8392 54.2941 59.031 55.9025 57.8577ZM65.2534 67.2174 71.3669 73.331C65.3475 78.7004 57.9103 81.6105 50.3494 82.0618L50.3494 73.3813C56.019 72.9502 61.1807 70.7019 65.2534 67.2174ZM68.1245 30.5348 74.2105 24.4489C79.5801 30.4599 82.4948 37.8875 82.9553 45.441L74.2897 45.441C73.8587 39.7704 71.6098 34.6079 68.1245 30.5348ZM50.3494 25.5139C54.9375 25.9272 59.1199 27.748 62.4612 30.5413L56.0098 36.9927C55.9718 37.0307 55.9356 37.07 55.9012 37.1102 54.293 35.9375 52.4019 35.1296 50.3494 34.8083L50.3494 25.5139ZM58.8383 39.8211C58.8006 39.8587 58.7615 39.8948 58.7211 39.9294 59.8867 41.5269 60.6922 43.4039 61.0182 45.441L70.2758 45.441C69.8646 40.8731 68.0582 36.7075 65.2859 33.3734L58.8383 39.8211ZM57.1794 47.4196C57.1794 47.4267 57.1793 47.4339 57.1793 47.441 57.1793 47.4588 57.1796 47.4766 57.18 47.4943 57.1747 52.3671 53.2229 56.3157 48.3488 56.3157 43.4715 56.3157 39.5176 52.3618 39.5176 47.4845 39.5176 42.6071 43.4715 38.6533 48.3488 38.6533 53.1992 38.6533 57.1363 42.5636 57.1797 47.4037L57.1794 47.4196ZM46.3494 69.3675C35.786 68.4164 27.3737 60.0043 26.4223 49.441L35.6658 49.441C36.5082 54.9466 40.8498 59.3003 46.3494 60.1608L46.3494 69.3675ZM46.3494 34.8081C40.8787 35.6641 36.554 39.9765 35.6795 45.441L26.4223 45.441C27.3733 34.8774 35.7858 26.4649 46.3494 25.5139L46.3494 34.8081Z" class="MsftOfcThm_Text1_Fill_v2" stroke="none" stroke-width="1" stroke-linecap="butt" stroke-linejoin="miter" stroke-miterlimit="4" fill="#000000" fill-rule="evenodd" fill-opacity="1" clip-rule="evenodd"/></svg>