<svg width="96" height="96" viewBox="0 0 96 96" xmlns="http://www.w3.org/2000/svg" xmlns:xlink="http://www.w3.org/1999/xlink" fill="none" overflow="hidden"><style>
.MsftOfcThm_Text1_Fill_v2 {
 fill:#000000; 
}
</style>
<path d="M40.0421 32.804C39.1517 33.623 37.9633 34.123 36.6582 34.123 35.2149 34.123 33.9145 33.5115 33.0018 32.5335 31.9313 33.4335 30.8439 34.9261 29.8021 36.9852 28.6077 39.346 27.5727 42.2506 26.7131 45.3623 25.0345 51.4389 24.088 58.0716 23.8661 62.4809 25.4242 63.3277 26.4819 64.9788 26.4819 66.877 26.4819 69.6384 24.2434 71.877 21.4819 71.877 18.7205 71.877 16.4819 69.6384 16.4819 66.877 16.4819 64.6764 17.9035 62.8079 19.8784 62.1396 20.1276 57.4414 21.1181 50.5942 22.8575 44.2973 23.7589 41.0341 24.8781 37.8572 26.233 35.1794 27.5665 32.5437 29.233 30.1792 31.3341 28.7932 31.4467 28.7189 31.564 28.6575 31.6843 28.6086 31.9419 26.0889 34.0705 24.123 36.6582 24.123 39.3061 24.123 41.4732 26.1813 41.647 28.7852 41.7263 28.8368 41.8029 28.8947 41.8762 28.9589 44.1628 30.9633 45.8969 34.4321 47.1173 38.0058 48.3633 41.6547 49.184 45.7448 49.4594 49.3029 49.6936 52.3305 50.6865 55.7623 52.0293 58.6631 52.6975 60.1067 53.432 61.3743 54.1658 62.3675 54.6137 62.9737 55.0305 63.4356 55.398 63.7692 56.3139 62.6163 57.7282 61.877 59.3151 61.877 60.8303 61.877 62.1881 62.5509 63.105 63.6154 64.0514 62.6503 65.0575 61.1184 66.0538 59.0703 67.2544 56.6022 68.3403 53.5978 69.255 50.4468 71.0947 44.1095 72.1617 37.4653 72.1617 33.8042 72.1617 33.7202 72.1669 33.6374 72.177 33.5561 70.5809 32.721 69.4917 31.0492 69.4917 29.123 69.4917 26.3616 71.7303 24.123 74.4917 24.123 77.2531 24.123 79.4917 26.3616 79.4917 29.123 79.4917 31.2988 78.1019 33.15 76.1617 33.8374 76.1555 38.0147 74.9906 45.0371 73.0964 51.562 72.1417 54.8507 70.9817 58.0843 69.6508 60.8201 68.3466 63.5009 66.7718 65.9309 64.8871 67.3721 64.6895 67.5232 64.4727 67.6318 64.2478 67.6994 63.8556 70.0695 61.7964 71.877 59.3151 71.877 56.9052 71.877 54.8935 70.172 54.4204 67.9024 54.3081 67.8627 54.1996 67.813 54.0961 67.754 52.9162 67.0821 51.8574 65.9745 50.9486 64.7444 50.0202 63.4878 49.1545 61.9748 48.3993 60.3433 46.8952 57.0939 45.7488 53.1979 45.4713 49.6115 45.2217 46.3864 44.4685 42.627 43.3319 39.2984 42.3816 36.5154 41.2341 34.2452 40.0421 32.804Z" class="MsftOfcThm_Text1_Fill_v2" stroke="none" stroke-width="1" stroke-linecap="butt" stroke-linejoin="miter" stroke-miterlimit="4" fill="#000000" fill-rule="evenodd" fill-opacity="1" clip-rule="evenodd"/></svg>