<svg width="96" height="96" viewBox="0 0 96 96" xmlns="http://www.w3.org/2000/svg" xmlns:xlink="http://www.w3.org/1999/xlink" fill="none" overflow="hidden"><style>
.MsftOfcThm_Text1_Fill_v2 {
 fill:#000000; 
}
</style>
<path d="M32.6414 24.25C32.6414 19.8317 36.2231 16.25 40.6414 16.25L71.7636 16.25C76.1818 16.25 79.7636 19.8317 79.7636 24.25L79.7636 34.8531C79.7636 39.2714 76.1818 42.8531 71.7636 42.8531L40.6414 42.8531C36.2231 42.8531 32.6414 39.2714 32.6414 34.8531L32.6414 31.5244 24.237 31.5244C22.0279 31.5244 20.237 33.3153 20.237 35.5244L20.237 60.4481C20.237 62.6573 22.0279 64.4481 24.237 64.4481L32.6414 64.4481 32.6414 61.1471C32.6414 56.7288 36.2231 53.1471 40.6414 53.1471L71.7636 53.1471C76.1818 53.1471 79.7636 56.7288 79.7636 61.1471L79.7636 71.7502C79.7636 76.1685 76.1818 79.7502 71.7636 79.7502L40.6414 79.7502C36.2231 79.7502 32.6414 76.1684 32.6414 71.7502L32.6414 68.4481 24.237 68.4481C19.8187 68.4481 16.237 64.8664 16.237 60.4481L16.237 35.5244C16.237 31.1062 19.8187 27.5244 24.237 27.5244L32.6414 27.5244 32.6414 24.25ZM40.6414 20.25C38.4322 20.25 36.6414 22.0409 36.6414 24.25L36.6414 34.8531C36.6414 37.0622 38.4322 38.8531 40.6414 38.8531L71.7636 38.8531C73.9727 38.8531 75.7636 37.0622 75.7636 34.8531L75.7636 24.25C75.7636 22.0409 73.9727 20.25 71.7636 20.25L40.6414 20.25ZM36.6414 61.1471C36.6414 58.938 38.4322 57.1471 40.6414 57.1471L71.7636 57.1471C73.9727 57.1471 75.7636 58.938 75.7636 61.1471L75.7636 71.7502C75.7636 73.9593 73.9727 75.7502 71.7636 75.7502L40.6414 75.7502C38.4322 75.7502 36.6414 73.9593 36.6414 71.7502L36.6414 61.1471Z" class="MsftOfcThm_Text1_Fill_v2" stroke="none" stroke-width="1" stroke-linecap="butt" stroke-linejoin="miter" stroke-miterlimit="4" fill="#000000" fill-rule="evenodd" fill-opacity="1" clip-rule="evenodd"/></svg>