<svg width="97" height="96" viewBox="0 0 97 96" xmlns="http://www.w3.org/2000/svg" xmlns:xlink="http://www.w3.org/1999/xlink" fill="none" overflow="hidden"><style>
.MsftOfcThm_Text1_Fill_v2 {
 fill:#000000; 
}
</style>
<path d="M40.3199 25.8414C40.3199 21.0792 44.1804 17.2188 48.9426 17.2188 53.7048 17.2188 57.5653 21.0792 57.5653 25.8414L57.5653 47.5577C57.5653 48.1774 57.8471 48.7313 58.2896 49.0981L58.2842 49.1058C62.4837 52.0539 65.2218 56.9272 65.2218 62.4397 65.2218 71.4304 57.9335 78.7187 48.9429 78.7187 39.9522 78.7187 32.6639 71.4304 32.6639 62.4397 32.6639 56.9272 35.402 52.0539 39.6015 49.1058L39.5959 49.0979C40.0382 48.731 40.3199 48.1773 40.3199 47.5577L40.3199 25.8414ZM36.3199 46.5675 36.3199 25.8414C36.3199 18.8701 41.9713 13.2188 48.9426 13.2188 55.9139 13.2188 61.5653 18.8701 61.5653 25.8414L61.5653 46.5671C66.2278 50.2797 69.2218 56.01 69.2218 62.4397 69.2218 73.6395 60.1426 82.7187 48.9429 82.7187 37.7431 82.7187 28.6639 73.6395 28.6639 62.4397 28.6639 56.0102 31.6577 50.2802 36.3199 46.5675ZM48.9429 34.424C50.0474 34.424 50.9429 35.3195 50.9429 36.424L50.9429 53.9744C54.7382 54.8763 57.5612 58.2882 57.5612 62.3595 57.5612 67.1193 53.7026 70.9779 48.9428 70.9779 44.183 70.9779 40.3245 67.1193 40.3245 62.3595 40.3245 58.2882 43.1475 54.8762 46.9429 53.9743L46.9429 36.424C46.9429 35.3195 47.8383 34.424 48.9429 34.424Z" class="MsftOfcThm_Text1_Fill_v2" stroke="none" stroke-width="1" stroke-linecap="butt" stroke-linejoin="miter" stroke-miterlimit="4" fill="#000000" fill-rule="evenodd" fill-opacity="1" clip-rule="evenodd"/></svg>