<svg width="96" height="96" viewBox="0 0 96 96" xmlns="http://www.w3.org/2000/svg" xmlns:xlink="http://www.w3.org/1999/xlink" fill="none" overflow="hidden"><style>
.MsftOfcThm_Text1_Fill_v2 {
 fill:#000000; 
}
</style>
<path d="M38 21.5294C38 20.7219 38.6788 20 39.6 20L56.4 20C57.3212 20 58 20.7219 58 21.5294L58 25 38 25 38 21.5294ZM34 25 34 21.5294C34 18.4384 36.5447 16 39.6 16L56.4 16C59.4553 16 62 18.4384 62 21.5294L62 25 74 25 76.2345 25 78 25C79.1046 25 80 25.8954 80 27 80 28.1046 79.1046 29 78 29L75.7901 29 71.0085 72.0343C70.5046 76.5692 66.6715 80 62.1087 80L34.8913 80C30.3285 80 26.4954 76.5692 25.9915 72.0343L21.2099 29 18 29C16.8954 29 16 28.1046 16 27 16 25.8954 16.8954 25 18 25L20.7655 25 23 25 34 25ZM25.2345 29 71.7655 29 67.033 71.5926C66.7542 74.1017 64.6333 76 62.1087 76L34.8913 76C32.3667 76 30.2458 74.1017 29.967 71.5926L25.2345 29ZM43 36.3871C43 35.2825 42.1046 34.3871 41 34.3871 39.8954 34.3871 39 35.2825 39 36.3871L39 69.2903C39 70.3949 39.8954 71.2903 41 71.2903 42.1046 71.2903 43 70.3949 43 69.2903L43 36.3871ZM54.5488 34.3871C55.6534 34.3871 56.5488 35.2825 56.5488 36.3871L56.5488 69.2903C56.5488 70.3949 55.6534 71.2903 54.5488 71.2903 53.4443 71.2903 52.5488 70.3949 52.5488 69.2903L52.5488 36.3871C52.5488 35.2825 53.4443 34.3871 54.5488 34.3871Z" class="MsftOfcThm_Text1_Fill_v2" stroke="none" stroke-width="1" stroke-linecap="butt" stroke-linejoin="miter" stroke-miterlimit="4" fill="#000000" fill-rule="evenodd" fill-opacity="1" clip-rule="evenodd"/></svg>