<svg width="96" height="96" viewBox="0 0 96 96" xmlns="http://www.w3.org/2000/svg" xmlns:xlink="http://www.w3.org/1999/xlink" fill="none" overflow="hidden"><style>
.MsftOfcThm_Text1_Fill_v2 {
 fill:#000000; 
}
</style>
<path d="M42 22.5C42 19.4624 44.4624 17 47.5 17 50.5376 17 53 19.4624 53 22.5L53 26 42 26 42 22.5ZM38 30 38 36C38 37.1046 38.8954 38 40 38 41.1046 38 42 37.1046 42 36L42 30 53 30 53 36C53 37.1046 53.8954 38 55 38 56.1046 38 57 37.1046 57 36L57 30 67.19 30 71.1303 69.403C71.4835 72.9351 68.7098 76 65.1601 76L29.8399 76C26.2902 76 23.5165 72.9351 23.8697 69.403L27.81 30 38 30ZM38 26 38 22.5C38 17.2533 42.2533 13 47.5 13 52.7467 13 57 17.2533 57 22.5L57 26 67.19 26C69.245 26 70.9657 27.5572 71.1702 29.602L75.1105 69.005C75.6992 74.8918 71.0763 80 65.1601 80L29.8399 80C23.9237 80 19.3008 74.8918 19.8895 69.005L23.8298 29.602C24.0343 27.5572 25.755 26 27.81 26L38 26Z" class="MsftOfcThm_Text1_Fill_v2" stroke="none" stroke-width="1" stroke-linecap="butt" stroke-linejoin="miter" stroke-miterlimit="4" fill="#000000" fill-rule="evenodd" fill-opacity="1" clip-rule="evenodd"/></svg>