<svg width="96" height="96" viewBox="0 0 96 96" xmlns="http://www.w3.org/2000/svg" xmlns:xlink="http://www.w3.org/1999/xlink" fill="none" overflow="hidden"><style>
.MsftOfcThm_Text1_Fill_v2 {
 fill:#000000; 
}
</style>
<path d="M47.1922 24.4811C47.6819 24.2784 48.232 24.2784 48.7216 24.4811L76.3031 35.8941C77.9501 36.5756 77.9501 38.9086 76.3031 39.5901L48.7216 51.0032C48.232 51.2058 47.6819 51.2058 47.1922 51.0032L39.7646 47.9296C38.7439 47.5073 37.5742 47.9923 37.1518 49.013 36.7295 50.0336 37.2145 51.2034 38.2352 51.6257L45.6628 54.6992C47.1318 55.3071 48.782 55.3071 50.251 54.6992L69.5698 46.7052 69.5698 56.1076C69.5698 57.0691 69.3123 58.6838 68.112 60.4716 66.9155 62.2537 64.7042 64.3234 60.6153 66.0757 57.4841 67.4177 53.6831 67.9973 50.1374 68.1291 46.5981 68.2607 43.4809 67.9407 41.8011 67.5949 40.7192 67.3722 39.6616 68.0686 39.4389 69.1505 39.2162 70.2324 39.9126 71.29 40.9945 71.5127 43.0315 71.9321 46.4735 72.2681 50.2859 72.1264 54.0919 71.9849 58.4352 71.362 62.191 69.7523 66.8647 67.7493 69.7367 65.2276 71.4329 62.7012 73.1253 60.1805 73.5698 57.7697 73.5698 56.1076L73.5698 45.0501 77.8325 43.2862C82.7737 41.2416 82.7737 34.2426 77.8325 32.198L50.251 20.785C48.782 20.1771 47.1318 20.1771 45.6628 20.785L18.0814 32.198C13.1402 34.2426 13.1402 41.2416 18.0814 43.2862L22.7352 45.2119C23.7558 45.6342 24.9256 45.1492 25.3479 44.1286 25.7702 43.1079 25.2852 41.9382 24.2646 41.5158L19.6108 39.5901C17.9637 38.9086 17.9637 36.5756 19.6108 35.8941L47.1922 24.4811ZM48.9284 38.1787C49.8939 37.6422 50.2418 36.4246 49.7054 35.4591 49.169 34.4935 47.9514 34.1456 46.9858 34.682L33.391 42.2347C30.2163 43.9984 28.2474 47.3446 28.2474 50.9763L28.2474 67.5054C26.7935 70.3717 25.2915 74.0668 25.0336 77.1721 25.0113 77.3629 24.9999 77.5567 24.9999 77.7531 24.9999 80.6511 27.496 83.0004 30.5751 83.0004 33.6543 83.0004 36.1504 80.6511 36.1504 77.7531L36.1504 77.753 36.1506 77.753 36.1504 77.7479C36.1501 77.5099 36.1331 77.2756 36.1002 77.0461 35.7603 73.8079 33.9348 69.9556 32.2474 67.0733L32.2474 50.9763C32.2474 48.7973 33.4288 46.7896 35.3336 45.7313L48.9284 38.1787Z" class="MsftOfcThm_Text1_Fill_v2" stroke="none" stroke-width="1" stroke-linecap="butt" stroke-linejoin="miter" stroke-miterlimit="4" fill="#000000" fill-rule="evenodd" fill-opacity="1" clip-rule="evenodd"/></svg>