<svg width="96" height="96" viewBox="0 0 96 96" xmlns="http://www.w3.org/2000/svg" xmlns:xlink="http://www.w3.org/1999/xlink" fill="none" overflow="hidden"><style>
.MsftOfcThm_Text1_Fill_v2 {
 fill:#000000; 
}
</style>
<path d="M47.9999 13.2344C49.1045 13.2344 49.9999 14.1298 49.9999 15.2344L49.9999 19.879C49.9999 20.9835 49.1045 21.879 47.9999 21.879 46.8953 21.879 45.9999 20.9835 45.9999 19.879L45.9999 15.2344C45.9999 14.1298 46.8953 13.2344 47.9999 13.2344ZM64.5483 48.0008C64.5483 57.1404 57.1392 64.5495 47.9995 64.5495 38.8599 64.5495 31.4508 57.1404 31.4508 48.0008 31.4508 38.8611 38.8599 31.452 47.9995 31.452 57.1392 31.452 64.5483 38.8611 64.5483 48.0008ZM50 76.1212C50 75.0166 49.1046 74.1212 48 74.1212 46.8954 74.1212 46 75.0166 46 76.1212L46 80.7658C46 81.8703 46.8954 82.7658 48 82.7658 49.1046 82.7658 50 81.8703 50 80.7658L50 76.1212ZM82.7656 48.0001C82.7656 49.1047 81.8702 50.0001 80.7656 50.0001L76.1211 50.0001C75.0165 50.0001 74.1211 49.1047 74.1211 48.0001 74.1211 46.8955 75.0165 46.0001 76.1211 46.0001L80.7656 46.0001C81.8702 46.0001 82.7656 46.8955 82.7656 48.0001ZM19.879 50.0001C20.9835 50.0001 21.879 49.1047 21.879 48.0001 21.879 46.8955 20.9835 46.0001 19.879 46.0001L15.2344 46.0001C14.1298 46.0001 13.2344 46.8955 13.2344 48.0001 13.2344 49.1047 14.1298 50.0001 15.2344 50.0001L19.879 50.0001ZM72.5828 23.4164C73.3638 24.1974 73.3638 25.4638 72.5828 26.2448L69.2985 29.529C68.5175 30.3101 67.2512 30.3101 66.4701 29.529 65.6891 28.748 65.6891 27.4816 66.4701 26.7006L69.7543 23.4164C70.5354 22.6353 71.8017 22.6353 72.5828 23.4164ZM29.529 69.298C30.3101 68.517 30.3101 67.2507 29.529 66.4696 28.748 65.6886 27.4817 65.6886 26.7006 66.4696L23.4164 69.7538C22.6353 70.5349 22.6353 71.8012 23.4164 72.5823 24.1974 73.3633 25.4638 73.3633 26.2448 72.5823L29.529 69.298ZM23.4162 23.4164C22.6352 24.1975 22.6352 25.4638 23.4162 26.2449L26.7004 29.5291C27.4815 30.3101 28.7478 30.3101 29.5288 29.5291 30.3099 28.748 30.3099 27.4817 29.5288 26.7006L26.2446 23.4164C25.4636 22.6354 24.1973 22.6354 23.4162 23.4164ZM66.47 69.298C65.689 68.517 65.689 67.2507 66.47 66.4696 67.2511 65.6886 68.5174 65.6886 69.2984 66.4696L72.5826 69.7538C73.3637 70.5349 73.3637 71.8012 72.5826 72.5822 71.8016 73.3633 70.5353 73.3633 69.7542 72.5822L66.47 69.298Z" class="MsftOfcThm_Text1_Fill_v2" stroke="none" stroke-width="1" stroke-linecap="butt" stroke-linejoin="miter" stroke-miterlimit="4" fill="#000000" fill-rule="evenodd" fill-opacity="1" clip-rule="evenodd"/></svg>