<svg width="96" height="96" viewBox="0 0 96 96" xmlns="http://www.w3.org/2000/svg" xmlns:xlink="http://www.w3.org/1999/xlink" fill="none" overflow="hidden"><style>
.MsftOfcThm_Text1_Fill_v2 {
 fill:#000000; 
}
</style>
<path d="M47.9995 12.74C35.9621 12.74 26.1905 22.462 26.1905 34.4712 26.1905 34.4867 26.1907 34.5011 26.1909 34.514 26.1907 34.5265 26.1905 34.5391 26.1905 34.5518L26.1905 40.7793C25.9458 48.2872 22.7526 55.1242 19.5573 60.1273 16.4549 64.9848 19.9311 71.34 25.7064 71.34L38.7999 71.34 38.7999 73.54C38.7999 78.621 42.9189 82.74 47.9999 82.74 53.0809 82.74 57.1999 78.621 57.1999 73.54L57.1999 71.34 70.2926 71.34C76.0679 71.34 79.5441 64.9848 76.4417 60.1273 73.2464 55.1242 70.0532 48.2872 69.8084 40.7793L69.8084 34.5518C69.8084 34.5392 69.8083 34.5265 69.8081 34.514 69.8083 34.5011 69.8084 34.4867 69.8084 34.4712 69.8084 22.462 60.0368 12.74 47.9995 12.74ZM53.1999 71.34 42.7999 71.34 42.7999 73.54C42.7999 76.4119 45.128 78.74 47.9999 78.74 50.8718 78.74 53.1999 76.4119 53.1999 73.54L53.1999 71.34ZM30.1905 40.8113 30.1905 34.6424C30.192 34.6097 30.1927 34.5768 30.1926 34.5439 30.1925 34.5149 30.1919 34.4903 30.1914 34.4729L30.1906 34.4492C30.2025 24.674 38.1638 16.74 47.9995 16.74 57.8351 16.74 65.7965 24.674 65.8084 34.4491L65.8076 34.4728C65.8071 34.4902 65.8065 34.5149 65.8064 34.5439 65.8063 34.5769 65.807 34.6097 65.8084 34.6424L65.8084 40.8113C65.8084 40.8323 65.8088 40.8533 65.8094 40.8743 66.0782 49.4041 69.6766 56.9663 73.0706 62.2803 74.4724 64.4751 72.9086 67.34 70.2926 67.34L25.7064 67.34C23.0903 67.34 21.5266 64.4751 22.9284 62.2803 26.3224 56.9663 29.9208 49.4041 30.1896 40.8743 30.1902 40.8533 30.1905 40.8323 30.1905 40.8113Z" class="MsftOfcThm_Text1_Fill_v2" stroke="none" stroke-width="1" stroke-linecap="butt" stroke-linejoin="miter" stroke-miterlimit="4" fill="#000000" fill-rule="evenodd" fill-opacity="1" clip-rule="evenodd"/></svg>