<svg width="96" height="96" viewBox="0 0 96 96" xmlns="http://www.w3.org/2000/svg" xmlns:xlink="http://www.w3.org/1999/xlink" fill="none" overflow="hidden"><style>
.MsftOfcThm_Text1_Fill_v2 {
 fill:#000000; 
}
</style>
<path d="M21.8983 57.8697C22.199 57.0666 22.6683 56.3374 23.2746 55.731L60.4856 18.5201C65.179 13.8266 72.7886 13.8266 77.4821 18.5201 82.1755 23.2135 82.1755 30.8231 77.482 35.5165L40.2711 72.7275C39.6648 73.3338 38.9355 73.8032 38.1324 74.1039L20.4116 80.7389C17.1972 81.9425 14.0594 78.8046 15.263 75.5903L21.8983 57.8697ZM26.9468 57.7157 38.2864 69.0553 68.9848 38.3569 57.6452 27.0173 26.9468 57.7157ZM34.6942 71.12 24.8821 61.3079 19.009 76.9929 34.6942 71.12ZM74.6536 32.6881 71.8133 35.5285 60.4737 24.1889 63.314 21.3485C66.4454 18.2172 71.5223 18.2172 74.6536 21.3485 77.785 24.4799 77.785 29.5568 74.6536 32.6881Z" class="MsftOfcThm_Text1_Fill_v2" stroke="none" stroke-width="1" stroke-linecap="butt" stroke-linejoin="miter" stroke-miterlimit="4" fill="#000000" fill-rule="evenodd" fill-opacity="1" clip-rule="evenodd"/></svg>