<svg width="96" height="96" viewBox="0 0 96 96" xmlns="http://www.w3.org/2000/svg" xmlns:xlink="http://www.w3.org/1999/xlink" fill="none" overflow="hidden"><style>
.MsftOfcThm_Text1_Fill_v2 {
 fill:#000000; 
}
</style>
<path d="M41.2631 16.75C39.1462 13.0833 33.8538 13.0833 31.7369 16.75L13.1173 49C11.0004 52.6667 13.6466 57.25 17.8805 57.25L55.1196 57.25C59.3535 57.25 61.9996 52.6667 59.8827 49L41.2631 16.75ZM35.201 18.75C35.7783 17.75 37.2217 17.75 37.799 18.75L56.4186 51C56.9959 52 56.2742 53.25 55.1196 53.25L17.8805 53.25C16.7258 53.25 16.0041 52 16.5814 51L35.201 18.75ZM55.7976 34.0298C56.3195 33.993 56.8425 33.9745 57.3657 33.9746 69.452 33.9746 79.2499 43.7725 79.2499 55.8588 79.2499 67.9452 69.452 77.7431 57.3657 77.7431 47.132 77.7431 38.5344 70.7168 36.143 61.2224 35.8733 60.1513 34.7863 59.5017 33.7151 59.7715 32.644 60.0412 31.9944 61.1283 32.2642 62.1994 35.0924 73.4285 45.2556 81.7431 57.3657 81.7431 71.6611 81.7431 83.2499 70.1543 83.2499 55.8588 83.2499 41.5634 71.6611 29.9746 57.3657 29.9746 56.7439 29.9746 56.1269 29.9966 55.5154 30.0398 54.4136 30.1177 53.5836 31.0741 53.6615 32.1759 53.7394 33.2777 54.6958 34.1077 55.7976 34.0298Z" class="MsftOfcThm_Text1_Fill_v2" stroke="none" stroke-width="1" stroke-linecap="butt" stroke-linejoin="miter" stroke-miterlimit="4" fill="#000000" fill-rule="evenodd" fill-opacity="1" clip-rule="evenodd"/></svg>