<svg width="96" height="96" viewBox="0 0 96 96" xmlns="http://www.w3.org/2000/svg" xmlns:xlink="http://www.w3.org/1999/xlink" fill="none" overflow="hidden"><style>
.MsftOfcThm_Text1_Fill_v2 {
 fill:#000000; 
}
</style>
<path d="M82.8711 34.2285C82.8711 36.9899 80.6325 39.2285 77.8711 39.2285 77.0202 39.2285 76.2189 39.016 75.5175 38.641L59.6174 51.2198C59.7243 51.6266 59.7812 52.0537 59.7812 52.4941 59.7812 55.2556 57.5427 57.4941 54.7812 57.4941 52.0198 57.4941 49.7812 55.2556 49.7812 52.4941 49.7812 52.3796 49.7851 52.2659 49.7927 52.1532L41.9872 48.0742C41.1313 48.7598 40.0452 49.1699 38.8633 49.1699 38.078 49.1699 37.3349 48.9889 36.6737 48.6662L22.9189 60.3329C23.0555 60.7885 23.1289 61.2714 23.1289 61.7715 23.1289 64.5329 20.8903 66.7715 18.1289 66.7715 15.3675 66.7715 13.1289 64.5329 13.1289 61.7715 13.1289 59.0101 15.3675 56.7715 18.1289 56.7715 18.9196 56.7715 19.6674 56.955 20.3321 57.2818L34.0777 45.623C33.9383 45.1632 33.8633 44.6753 33.8633 44.1699 33.8633 41.4085 36.1019 39.1699 38.8633 39.1699 41.6247 39.1699 43.8633 41.4085 43.8633 44.1699 43.8633 44.2925 43.8589 44.4141 43.8502 44.5345L51.6389 48.6047C52.4976 47.9102 53.5908 47.4941 54.7812 47.4941 55.6327 47.4941 56.4345 47.707 57.1362 48.0823L73.0353 35.5043C72.9282 35.0971 72.8711 34.6695 72.8711 34.2285 72.8711 31.4671 75.1097 29.2285 77.8711 29.2285 80.6325 29.2285 82.8711 31.4671 82.8711 34.2285Z" class="MsftOfcThm_Text1_Fill_v2" stroke="none" stroke-width="1" stroke-linecap="butt" stroke-linejoin="miter" stroke-miterlimit="4" fill="#000000" fill-rule="evenodd" fill-opacity="1" clip-rule="evenodd"/></svg>