<svg width="96" height="96" viewBox="0 0 96 96" xmlns="http://www.w3.org/2000/svg" xmlns:xlink="http://www.w3.org/1999/xlink" fill="none" overflow="hidden"><style>
.MsftOfcThm_Text1_Fill_v2 {
 fill:#000000; 
}
</style>
<path d="M43.2464 12.3756C46.387 10.5324 50.2814 10.5421 53.4128 12.4011L77.3999 26.641C80.4348 28.4426 82.2952 31.7106 82.2952 35.2399L82.2952 62.0818C82.2952 65.7048 80.3356 69.0444 77.1728 70.8115L53.1867 84.2132C50.1705 85.8984 46.4982 85.9073 43.4739 84.2368L19.1648 70.809C15.9783 69.0488 14 65.696 14 62.0556L14 35.2665C14 31.7193 15.8791 28.4376 18.9383 26.6421L43.2464 12.3756ZM51.3709 15.8406C49.4921 14.7253 47.1554 14.7194 45.2711 15.8254L20.963 30.0918C20.4892 30.3699 20.0625 30.7075 19.6903 31.0918L48.1576 46.2835 76.848 31.3319C76.4288 30.8434 75.9279 30.4189 75.358 30.0806L51.3709 15.8406ZM18 35.2665C18 35.0884 18.0079 34.9116 18.0234 34.7362L46.3313 49.8428 46.3313 81.1482C46.0153 81.0379 45.7064 80.9003 45.408 80.7355L21.0989 67.3076C19.187 66.2515 18 64.2399 18 62.0556L18 35.2665ZM50.3313 81.1325C50.6408 81.0217 50.9434 80.8846 51.2356 80.7213L75.2217 67.3196C77.1194 66.2593 78.2952 64.2556 78.2952 62.0818L78.2952 35.2399C78.2952 35.1896 78.2946 35.1394 78.2933 35.0893L50.3313 49.6613 50.3313 81.1325Z" class="MsftOfcThm_Text1_Fill_v2" stroke="none" stroke-width="1" stroke-linecap="butt" stroke-linejoin="miter" stroke-miterlimit="4" fill="#000000" fill-rule="evenodd" fill-opacity="1" clip-rule="evenodd"/></svg>