<svg width="96" height="96" viewBox="0 0 96 96" xmlns="http://www.w3.org/2000/svg" xmlns:xlink="http://www.w3.org/1999/xlink" fill="none" overflow="hidden"><style>
.MsftOfcThm_Text1_Fill_v2 {
 fill:#000000; 
}
</style>
<path d="M16 28.8C16 25.4863 18.6863 22.8 22 22.8L74 22.8C77.3137 22.8 80 25.4863 80 28.8L80 67.2C80 70.5137 77.3137 73.2 74 73.2L22 73.2C18.6863 73.2 16 70.5137 16 67.2L16 28.8ZM22 18.8C16.4772 18.8 12 23.2771 12 28.8L12 67.2C12 72.7228 16.4772 77.2 22 77.2L74 77.2C79.5229 77.2 84 72.7228 84 67.2L84 28.8C84 23.2771 79.5229 18.8 74 18.8L22 18.8ZM37.9846 38.6242C38.7657 37.8432 38.7657 36.5769 37.9846 35.7958 37.2036 35.0148 35.9372 35.0148 35.1562 35.7958L24.7362 46.2158C23.974 46.978 23.9529 48.2071 24.6885 48.9949L35.1085 60.1549C35.8624 60.9623 37.128 61.0057 37.9353 60.2519 38.7427 59.4981 38.7861 58.2325 38.0322 57.4251L28.9312 47.6777 37.9846 38.6242ZM58.0657 35.7482C58.8731 34.9944 60.1387 35.0377 60.8925 35.8451L71.3125 47.0051C72.0481 47.793 72.0271 49.0221 71.2649 49.7842L60.8449 60.2042C60.0638 60.9853 58.7975 60.9853 58.0164 60.2042 57.2354 59.4232 57.2354 58.1569 58.0164 57.3758L67.0699 48.3224 57.9688 38.5749C57.215 37.7676 57.2584 36.502 58.0657 35.7482ZM54.7544 32.6101C55.0748 31.553 54.4776 30.4364 53.4205 30.116 52.3634 29.7956 51.2467 30.3929 50.9264 31.4499L41.2464 63.3899C40.926 64.447 41.5232 65.5637 42.5803 65.8841 43.6374 66.2044 44.7541 65.6072 45.0744 64.5501L54.7544 32.6101Z" class="MsftOfcThm_Text1_Fill_v2" stroke="none" stroke-width="1" stroke-linecap="butt" stroke-linejoin="miter" stroke-miterlimit="4" fill="#000000" fill-rule="evenodd" fill-opacity="1" clip-rule="evenodd"/></svg>