<svg width="96" height="96" viewBox="0 0 96 96" xmlns="http://www.w3.org/2000/svg" xmlns:xlink="http://www.w3.org/1999/xlink" fill="none" overflow="hidden"><style>
.MsftOfcThm_Text1_Fill_v2 {
 fill:#000000; 
}
</style>
<path d="M33.6201 28.0938C33.8091 28.0938 33.9956 28.0833 34.1792 28.0628L39.5171 37.3084C36.8636 39.4163 35.0127 42.4913 34.4974 46.0004L23.8234 46.0004C23.0519 44.2343 21.2897 43 19.2393 43 16.4778 43 14.2393 45.2386 14.2393 48 14.2393 50.7614 16.4778 53 19.2393 53 21.2894 53 23.0514 51.7661 23.823 50.0004L34.4973 50.0004C35.0126 53.5094 36.8632 56.5844 39.5166 58.6924L34.1786 67.9381C33.9931 67.9175 33.8067 67.9072 33.6201 67.9072 30.8587 67.9072 28.6201 70.1458 28.6201 72.9072 28.6201 75.6687 30.8587 77.9072 33.6201 77.9072 36.3815 77.9072 38.6201 75.6687 38.6201 72.9072 38.6201 71.7952 38.2571 70.7679 37.643 69.9375L42.979 60.6953C44.533 61.3104 46.2269 61.6485 47.9997 61.6485 49.7726 61.6485 51.4665 61.3104 53.0205 60.6953L58.3569 69.9383C57.7432 70.7686 57.3804 71.7956 57.3804 72.9073 57.3804 75.6687 59.6189 77.9073 62.3804 77.9073 65.1418 77.9073 67.3804 75.6687 67.3804 72.9073 67.3804 70.1459 65.1418 67.9073 62.3804 67.9073 62.1913 67.9073 62.0046 67.9178 61.8209 67.9382L56.4829 58.6924C59.1364 56.5843 60.9871 53.5092 61.5022 49.9999L72.1769 49.9999C72.9484 51.7659 74.7105 53 76.7609 53 79.5223 53 81.7609 50.7614 81.7609 48 81.7609 45.2386 79.5223 43 76.7609 43 74.7106 43 72.9485 44.234 72.177 45.9999L61.502 45.9999C60.9866 42.491 59.1358 39.4162 56.4824 37.3083L61.8203 28.0627C62.0042 28.0832 62.191 28.0938 62.3804 28.0938 65.1418 28.0938 67.3804 25.8552 67.3804 23.0938 67.3804 20.3323 65.1418 18.0938 62.3804 18.0938 59.6189 18.0938 57.3804 20.3323 57.3804 23.0938 57.3804 24.2052 57.743 25.232 58.3565 26.0622L53.0199 35.3056C51.466 34.6906 49.7724 34.3527 47.9997 34.3527 46.2271 34.3527 44.5334 34.6906 42.9796 35.3056L37.6434 26.063C38.2572 25.2327 38.6201 24.2056 38.6201 23.0938 38.6201 20.3323 36.3815 18.0938 33.6201 18.0938 30.8587 18.0938 28.6201 20.3323 28.6201 23.0938 28.6201 25.8552 30.8587 28.0938 33.6201 28.0938ZM47.9997 38.3527C42.6714 38.3527 38.3519 42.6722 38.3519 48.0006 38.3519 53.329 42.6714 57.6485 47.9997 57.6485 53.3281 57.6485 57.6476 53.329 57.6476 48.0006 57.6476 42.6722 53.3281 38.3527 47.9997 38.3527Z" class="MsftOfcThm_Text1_Fill_v2" stroke="none" stroke-width="1" stroke-linecap="butt" stroke-linejoin="miter" stroke-miterlimit="4" fill="#000000" fill-rule="evenodd" fill-opacity="1" clip-rule="evenodd"/></svg>