<svg width="96" height="96" viewBox="0 0 96 96" xmlns="http://www.w3.org/2000/svg" xmlns:xlink="http://www.w3.org/1999/xlink" fill="none" overflow="hidden"><style>
.MsftOfcThm_Text1_Fill_v2 {
 fill:#000000; 
}
</style>
<path d="M17 48C17 30.8792 30.8792 17 48 17 65.1208 17 79 30.8792 79 48 79 65.1208 65.1208 79 48 79 30.8792 79 17 65.1208 17 48ZM48 13C28.67 13 13 28.67 13 48 13 67.33 28.67 83 48 83 67.33 83 83 67.33 83 48 83 28.67 67.33 13 48 13ZM55.5955 33.9498C53.506 32.8909 51.6015 32.3301 49.8882 32.1253L49.8882 28.9941C49.8882 27.8896 48.9928 26.9941 47.8882 26.9941 46.7837 26.9941 45.8882 27.8896 45.8882 28.9941L45.8882 32.2979C45.0182 32.4892 44.2263 32.7734 43.5142 33.1149 39.458 35.0598 37.0626 41.0755 40.5662 45.9614 42.2662 48.3322 45.122 49.362 47.3134 50.1523 47.4373 50.197 47.559 50.2409 47.6783 50.2842 50.2018 51.2009 52.0068 51.9546 53.0561 53.445 54.2901 55.1976 53.5201 58.0736 50.8726 59.3732 49.6471 59.9749 47.9062 60.1362 46.0539 59.8499 44.2075 59.5646 42.5517 58.8801 41.5644 58.1279 40.6858 57.4585 39.4309 57.6281 38.7615 58.5067 38.0921 59.3853 38.2617 60.6402 39.1403 61.3096 40.778 62.5574 43.1043 63.4416 45.443 63.803 45.5902 63.8258 45.7387 63.8466 45.8882 63.8655L45.8882 67.0059C45.8882 68.1104 46.7837 69.0059 47.8882 69.0059 48.9928 69.0059 49.8882 68.1104 49.8882 67.0059L49.8882 63.8211C50.8406 63.6639 51.7712 63.3881 52.6353 62.9639 56.804 60.9174 59.3836 55.4839 56.3268 51.1422 54.4606 48.4916 51.4267 47.3899 49.1248 46.5539L49.0441 46.5246C46.4391 45.5783 44.744 44.9234 43.8168 43.6304 41.8736 40.9206 43.256 37.6748 45.2437 36.7217 46.8707 35.9416 49.6212 35.4066 53.7874 37.5178 54.7727 38.0171 55.9762 37.6232 56.4755 36.6379 56.9748 35.6526 56.5808 34.4491 55.5955 33.9498Z" class="MsftOfcThm_Text1_Fill_v2" stroke="none" stroke-width="1" stroke-linecap="butt" stroke-linejoin="miter" stroke-miterlimit="4" fill="#000000" fill-rule="evenodd" fill-opacity="1" clip-rule="evenodd"/></svg>