<svg width="96" height="96" viewBox="0 0 96 96" xmlns="http://www.w3.org/2000/svg" xmlns:xlink="http://www.w3.org/1999/xlink" fill="none" overflow="hidden"><style>
.MsftOfcThm_Text1_Fill_v2 {
 fill:#000000; 
}
</style>
<path d="M79.9112 73.7383C79.9112 77.052 77.2249 79.7383 73.9112 79.7383L48.0181 79.7383C39.1052 79.7383 29.7756 77.8797 22.664 70.7398L22.6638 70.7395C9.56391 57.5818 9.56349 36.2601 22.664 23.1071L22.6643 23.1068C35.774 9.95022 57.0246 9.9498 70.1296 23.1071L70.1301 23.1077C77.1664 30.1776 79.9112 39.6844 79.9112 48.5513L79.9112 73.7383ZM73.9112 75.7383C75.0157 75.7383 75.9112 74.8429 75.9112 73.7383L75.9112 48.5513C75.9112 40.4539 73.404 32.0676 67.2949 25.9294 55.7537 14.3426 37.0447 14.3423 25.4981 25.9299 13.9525 37.5217 13.952 56.3199 25.4984 67.9173 31.5322 73.975 39.5925 75.7383 48.0181 75.7383L73.9112 75.7383ZM27 42C27 40.8954 27.8955 40 29 40L65 40C66.1046 40 67 40.8954 67 42 67 43.1046 66.1046 44 65 44L29 44C27.8955 44 27 43.1046 27 42ZM29 52C27.8955 52 27 52.8954 27 54 27 55.1046 27.8955 56 29 56L65 56C66.1046 56 67 55.1046 67 54 67 52.8954 66.1046 52 65 52L29 52Z" class="MsftOfcThm_Text1_Fill_v2" stroke="none" stroke-width="1" stroke-linecap="butt" stroke-linejoin="miter" stroke-miterlimit="4" fill="#000000" fill-rule="evenodd" fill-opacity="1" clip-rule="evenodd"/></svg>