<svg width="96" height="96" viewBox="0 0 96 96" xmlns="http://www.w3.org/2000/svg" xmlns:xlink="http://www.w3.org/1999/xlink" fill="none" overflow="hidden"><style>
.MsftOfcThm_Text1_Fill_v2 {
 fill:#000000; 
}
</style>
<path d="M19.3133 29.44 10.1157 20.2425 17.9719 18.23 19.9843 10.3738 29.1819 19.5714 28.6228 26.4417C28.956 26.5283 29.2713 26.7021 29.5323 26.9631L42.9537 40.3844C43.7347 41.1655 43.7347 42.4318 42.9537 43.2129 42.1726 43.9939 40.9063 43.9939 40.1252 43.2129L26.7039 29.7915C26.4426 29.5302 26.2687 29.2146 26.1822 28.8811L19.3133 29.44ZM48.0002 17.2378C44.2696 17.2378 40.6984 17.901 37.3951 19.1142 36.3582 19.495 35.209 18.9631 34.8282 17.9263 34.4474 16.8894 34.9792 15.7402 36.0161 15.3594 39.7546 13.9864 43.7922 13.2378 48.0002 13.2378 67.1988 13.2378 82.7623 28.8013 82.7623 47.9999 82.7623 67.1985 67.1988 82.762 48.0002 82.762 28.8016 82.762 13.2381 67.1985 13.2381 47.9999 13.2381 43.9026 13.9478 39.9667 15.2527 36.3112 15.6241 35.2709 16.7684 34.7286 17.8087 35.1 18.849 35.4713 19.3912 36.6156 19.0199 37.6559 17.8669 40.8859 17.2381 44.3673 17.2381 47.9999 17.2381 64.9894 31.0108 78.762 48.0002 78.762 64.9897 78.762 78.7623 64.9894 78.7623 47.9999 78.7623 31.0105 64.9897 17.2378 48.0002 17.2378ZM48 32.7446C45.972 32.7446 44.041 33.1393 42.2763 33.8542 41.2525 34.2689 40.0864 33.7751 39.6717 32.7514 39.257 31.7276 39.7507 30.5615 40.7745 30.1468 43.0083 29.2419 45.4485 28.7446 48 28.7446 58.6343 28.7446 67.2551 37.3654 67.2551 47.9998 67.2551 58.6341 58.6343 67.255 48 67.255 37.3656 67.255 28.7448 58.6341 28.7448 47.9998 28.7448 45.6224 29.1766 43.3413 29.9677 41.2337 30.3559 40.1996 31.5089 39.676 32.543 40.0641 33.5771 40.4523 34.1008 41.6053 33.7126 42.6394 33.0876 44.3044 32.7448 46.1098 32.7448 47.9998 32.7448 56.425 39.5748 63.255 48 63.255 56.4252 63.255 63.2551 56.425 63.2551 47.9998 63.2551 39.5746 56.4252 32.7446 48 32.7446ZM42.6559 51.3066C47.1756 50.8859 50.7732 47.2881 51.1937 42.7683 53.0007 43.8568 54.2094 45.8378 54.2094 48.101 54.2094 51.5368 51.4241 54.322 47.9884 54.322 45.7253 54.322 43.7444 53.1135 42.6559 51.3066Z" class="MsftOfcThm_Text1_Fill_v2" stroke="none" stroke-width="1" stroke-linecap="butt" stroke-linejoin="miter" stroke-miterlimit="4" fill="#000000" fill-rule="evenodd" fill-opacity="1" clip-rule="evenodd"/></svg>