<svg width="96" height="96" viewBox="0 0 96 96" xmlns="http://www.w3.org/2000/svg" xmlns:xlink="http://www.w3.org/1999/xlink" fill="none" overflow="hidden"><style>
.MsftOfcThm_Text1_Fill_v2 {
 fill:#000000; 
}
</style>
<path d="M68.9484 14.9604C69.0823 13.864 70.0796 13.0837 71.1761 13.2176 77.7288 14.0178 83.848 17.7822 87.4066 23.9458 90.9943 30.1599 91.1687 37.4084 88.5183 43.5148 88.0785 44.528 86.9006 44.9929 85.8874 44.5531 84.8741 44.1133 84.4093 42.9354 84.849 41.9222 87.0166 36.9282 86.8698 31.0161 83.9425 25.9458 81.0389 20.9166 76.0502 17.8425 70.6912 17.1881 69.5948 17.0542 68.8145 16.0568 68.9484 14.9604ZM6.26796 56.1011C3.50654 51.3182 5.14529 45.2023 9.92821 42.4409L50.0249 19.2911C54.8078 16.5296 60.9237 18.1684 63.6851 22.9513L76.4517 45.0636C79.2131 49.8465 77.5743 55.9624 72.7914 58.7239L32.6948 81.8737C27.9118 84.6351 21.7959 82.9963 19.0345 78.2134L6.26796 56.1011ZM11.9282 45.905C9.05846 47.5618 8.07521 51.2314 9.73206 54.1011L10.9624 56.2321 61.4513 27.0823 60.221 24.9513C58.5642 22.0815 54.8946 21.0983 52.0249 22.7552L11.9282 45.905ZM22.4986 76.2134 12.9624 59.6962 63.4513 30.5464 72.9876 47.0636C74.6444 49.9334 73.6612 53.6029 70.7914 55.2598L30.6948 78.4096C27.825 80.0664 24.1555 79.0832 22.4986 76.2134ZM70.4265 21.5533C69.3301 21.4194 68.3327 22.1997 68.1988 23.2961 68.0649 24.3925 68.8452 25.3899 69.9416 25.5238 72.7297 25.8642 75.3209 27.4623 76.8297 30.0757 78.3509 32.7104 78.4283 35.7821 77.3007 38.3802 76.8609 39.3934 77.3258 40.5713 78.339 41.0111 79.3523 41.4509 80.5302 40.986 80.9699 39.9728 82.5804 36.2623 82.4754 31.8543 80.2938 28.0757 78.13 24.3279 74.4083 22.0395 70.4265 21.5533ZM20.5477 60.5996C19.5911 61.1519 19.2634 62.3751 19.8158 63.3317 20.3681 64.2882 21.5913 64.6159 22.5478 64.0636L41.9031 52.8875C42.8596 52.3351 43.1873 51.1119 42.635 50.1554 42.0827 49.1988 40.8595 48.8711 39.9029 49.4235L20.5477 60.5996ZM24.0071 70.5905C23.4548 69.634 23.7825 68.4108 24.739 67.8585L34.4166 62.2704C35.3732 61.7181 36.5964 62.0457 37.1487 63.0023 37.7011 63.9588 37.3734 65.182 36.4168 65.7344L26.7392 71.3224C25.7827 71.8748 24.5595 71.5471 24.0071 70.5905ZM51.401 42.7868C50.4445 43.3391 50.1168 44.5623 50.6691 45.5189 51.2215 46.4754 52.4447 46.8031 53.4012 46.2508L62.4754 41.0112C63.4319 40.4588 63.7596 39.2356 63.2073 38.2791 62.6549 37.3225 61.4318 36.9949 60.4752 37.5472L51.401 42.7868Z" class="MsftOfcThm_Text1_Fill_v2" stroke="none" stroke-width="1" stroke-linecap="butt" stroke-linejoin="miter" stroke-miterlimit="4" fill="#000000" fill-rule="evenodd" fill-opacity="1" clip-rule="evenodd"/></svg>