<svg width="96" height="96" viewBox="0 0 96 96" xmlns="http://www.w3.org/2000/svg" xmlns:xlink="http://www.w3.org/1999/xlink" fill="none" overflow="hidden"><style>
.MsftOfcThm_Text1_Fill_v2 {
 fill:#000000; 
}
</style>
<path d="M20.2793 20C16.9656 20 14.2793 22.6863 14.2793 26L14.2793 54C14.2793 57.3137 16.9656 60 20.2793 60L76.2793 60C79.593 60 82.2793 57.3137 82.2793 54L82.2793 26C82.2793 22.6863 79.593 20 76.2793 20L20.2793 20ZM10.2793 26C10.2793 20.4772 14.7564 16 20.2793 16L76.2793 16C81.8021 16 86.2793 20.4772 86.2793 26L86.2793 54C86.2793 59.5228 81.8021 64 76.2793 64L53.2793 64 53.2793 76 60.2793 76C61.3839 76 62.2793 76.8954 62.2793 78 62.2793 79.1046 61.3839 80 60.2793 80L36.2793 80C35.1747 80 34.2793 79.1046 34.2793 78 34.2793 76.8954 35.1747 76 36.2793 76L44.2793 76 44.2793 64 20.2793 64C14.7564 64 10.2793 59.5228 10.2793 54L10.2793 26ZM72.389 26.0623C72.9415 27.0187 72.6142 28.242 71.6578 28.7945L56.5529 37.5216C55.9339 37.8793 55.1709 37.8793 54.5519 37.5216L40.4476 29.3726 26.3433 37.5216C25.3869 38.0742 24.1636 37.7468 23.611 36.7904 23.0585 35.834 23.3858 34.6107 24.3422 34.0581L39.4471 25.3311C40.0661 24.9734 40.8291 24.9734 41.4481 25.3311L55.5524 33.48 69.6567 25.3311C70.6131 24.7785 71.8364 25.1059 72.389 26.0623ZM42.4473 37.1165C42.4473 36.0119 41.5518 35.1165 40.4473 35.1165 39.3427 35.1165 38.4473 36.0119 38.4473 37.1165L38.4473 52.9372C38.4473 54.0418 39.3427 54.9372 40.4473 54.9372 41.5518 54.9372 42.4473 54.0418 42.4473 52.9372L42.4473 37.1165ZM70.6562 35.1165C71.7608 35.1165 72.6562 36.0119 72.6562 37.1165L72.6562 52.9372C72.6562 54.0418 71.7608 54.9372 70.6562 54.9372 69.5517 54.9372 68.6562 54.0418 68.6562 52.9372L68.6562 37.1165C68.6562 36.0119 69.5517 35.1165 70.6562 35.1165ZM34.895 42.3218C34.895 41.2173 33.9996 40.3218 32.895 40.3218 31.7904 40.3218 30.895 41.2173 30.895 42.3218L30.895 52.9372C30.895 54.0418 31.7905 54.9372 32.895 54.9372 33.9996 54.9372 34.895 54.0418 34.895 52.9372L34.895 42.3218ZM47.9995 40.3218C49.1041 40.3218 49.9995 41.2173 49.9995 42.3218L49.9995 52.9372C49.9995 54.0418 49.1041 54.9372 47.9995 54.9372 46.8949 54.9372 45.9995 54.0418 45.9995 52.9372L45.9995 42.3218C45.9995 41.2173 46.8949 40.3218 47.9995 40.3218ZM65.104 42.3218C65.104 41.2173 64.2086 40.3218 63.104 40.3218 61.9994 40.3218 61.104 41.2173 61.104 42.3218L61.104 52.9372C61.104 54.0418 61.9994 54.9372 63.104 54.9372 64.2086 54.9372 65.104 54.0418 65.104 52.9372L65.104 42.3218ZM25.3428 43.1416C26.4473 43.1416 27.3428 44.037 27.3428 45.1416L27.3428 52.9372C27.3428 54.0418 26.4473 54.9372 25.3428 54.9372 24.2382 54.9372 23.3428 54.0418 23.3428 52.9372L23.3428 45.1416C23.3428 44.037 24.2382 43.1416 25.3428 43.1416ZM57.5518 45.1416C57.5518 44.037 56.6563 43.1416 55.5518 43.1416 54.4472 43.1416 53.5518 44.037 53.5518 45.1416L53.5518 52.9372C53.5518 54.0418 54.4472 54.9372 55.5518 54.9372 56.6563 54.9372 57.5518 54.0418 57.5518 52.9372L57.5518 45.1416Z" class="MsftOfcThm_Text1_Fill_v2" stroke="none" stroke-width="1" stroke-linecap="butt" stroke-linejoin="miter" stroke-miterlimit="4" fill="#000000" fill-rule="evenodd" fill-opacity="1" clip-rule="evenodd"/></svg>