<svg width="96" height="96" viewBox="0 0 96 96" xmlns="http://www.w3.org/2000/svg" xmlns:xlink="http://www.w3.org/1999/xlink" fill="none" overflow="hidden"><style>
.MsftOfcThm_Text1_Fill_v2 {
 fill:#000000; 
}
</style>
<defs><clipPath id="clip0_111_2864"><rect x="0" y="0" width="96" height="96" fill="#FFFFFF"/></clipPath></defs><g clip-path="url(#clip0_111_2864)"><path d="M75.7869 20.1344C75.6674 19.6806 75.3247 19.3379 74.8709 19.2185 69.937 17.9194 58.3299 18.9083 46.7582 30.4799 38.4121 38.826 34.7759 43.541 33.2038 46.3904 32.4373 47.7798 32.2007 48.6576 32.1203 49.2478 32.0588 49.6984 32.0713 49.9596 32.089 50.3305L32.089 50.3306C32.0995 50.5495 32.1118 50.8065 32.1118 51.1631 32.1118 52.8478 33.0329 54.6885 36.6749 58.3305 40.3169 61.9724 42.1575 62.8936 43.8422 62.8936 44.1989 62.8936 44.456 62.9059 44.6749 62.9163L44.6749 62.9163C45.0458 62.9341 45.307 62.9466 45.7576 62.8851 46.3478 62.8046 47.2256 62.5681 48.615 61.8016 51.4644 60.2295 56.1794 56.5932 64.5254 48.2472 76.0971 36.6755 77.0859 25.0684 75.7869 20.1344ZM75.8894 15.3503C77.7372 15.8368 79.1686 17.2682 79.6551 19.116 81.2892 25.3227 79.9162 37.4416 69.0407 49.3139 69.6153 52.2267 69.2082 55.7157 68.3096 59.1528 67.2912 63.0479 65.5692 67.1483 63.518 70.7828 61.4776 74.3983 59.0408 77.6781 56.5308 79.8419 54.1524 81.8921 50.9906 83.511 47.9649 81.9982 45.2947 80.6632 44.5268 78.1311 44.2659 75.4398 44.1346 74.0857 44.1154 72.5283 44.1122 70.8288 44.1116 70.4767 44.1116 70.117 44.1117 69.7491L44.1117 69.7472 44.1117 69.7452 44.1117 69.7433 44.1117 69.7429 44.1117 69.7427C44.1118 68.8476 44.1119 67.9039 44.102 66.9018 43.9921 66.8971 43.9038 66.8936 43.8422 66.8936 40.378 66.8936 37.4988 64.8112 33.8465 61.1589 30.1942 57.5066 28.1118 54.6274 28.1118 51.1631 28.1118 51.1014 28.1083 51.0128 28.1035 50.9026 27.1009 50.8926 26.1567 50.8928 25.2611 50.8929L25.261 50.8929 25.2571 50.8929C24.8885 50.893 24.5282 50.893 24.1755 50.8923 22.4759 50.8892 20.9186 50.8699 19.5645 50.7387 16.8731 50.4778 14.3411 49.7099 13.006 47.0397 11.4932 44.014 13.1121 40.8522 15.1624 38.4738 17.3261 35.9637 20.606 33.527 24.2215 31.4865 27.856 29.4354 31.9564 27.7134 35.8514 26.695 39.2892 25.7962 42.7788 25.3891 45.692 25.9642 57.5642 15.0892 69.6827 13.7162 75.8894 15.3503ZM50.5473 65.3039C53.6323 63.6018 58.1185 60.1261 65.2823 53.1243 65.2008 54.6167 64.9184 56.3098 64.4397 58.141 63.5187 61.6633 61.9375 65.4447 60.0345 68.8168 58.1207 72.2079 55.9523 75.0595 53.9191 76.8122 51.7542 78.6784 50.4346 78.7609 49.7537 78.4205 48.9913 78.0393 48.47 77.3514 48.2472 75.0538 48.1367 73.9133 48.1154 72.5339 48.1122 70.8213 48.1116 70.4832 48.1116 70.1333 48.1117 69.772L48.1117 69.7647C48.1119 68.7376 48.1121 67.6181 48.0967 66.4146 48.8292 66.165 49.6359 65.8067 50.5473 65.3039ZM41.8819 29.7222C40.3891 29.8036 38.6953 30.0859 36.8633 30.5649 33.341 31.4858 29.5596 33.067 26.1874 34.9701 22.7964 36.8838 19.9448 39.0522 18.1921 41.0855 16.3259 43.2504 16.2433 44.57 16.5838 45.2509 16.965 46.0133 17.6529 46.5346 19.9505 46.7573 21.0909 46.8679 22.4703 46.8892 24.1829 46.8924 24.5233 46.893 24.8756 46.8929 25.2395 46.8929L25.2397 46.8929C26.2672 46.8927 27.3871 46.8925 28.591 46.9079 28.8407 46.1756 29.1988 45.3692 29.7015 44.4581 31.4036 41.373 34.8796 36.8865 41.8819 29.7222ZM63.7939 38.0764C61.8981 39.9722 58.8244 39.9722 56.9287 38.0764 55.0329 36.1806 55.0329 33.1069 56.9287 31.2112 58.8244 29.3154 61.8981 29.3154 63.7939 31.2112 65.6897 33.1069 65.6897 36.1806 63.7939 38.0764ZM27.879 69.955C28.66 69.1739 28.66 67.9076 27.879 67.1265 27.0979 66.3455 25.8316 66.3455 25.0506 67.1265L13.251 78.9261C12.4699 79.7072 12.4699 80.9735 13.251 81.7546 14.032 82.5356 15.2984 82.5356 16.0794 81.7546L27.879 69.955ZM33.8858 73.1336C34.6669 73.9147 34.6669 75.181 33.8858 75.9621L27.0206 82.8273C26.2396 83.6083 24.9732 83.6083 24.1922 82.8273 23.4111 82.0462 23.4111 80.7799 24.1922 79.9988L31.0574 73.1336C31.8385 72.3526 33.1048 72.3526 33.8858 73.1336ZM21.8712 63.948C22.6522 63.1669 22.6522 61.9006 21.8712 61.1195 21.0901 60.3385 19.8238 60.3385 19.0428 61.1195L12.1775 67.9847C11.3965 68.7658 11.3965 70.0321 12.1775 70.8132 12.9586 71.5942 14.2249 71.5942 15.006 70.8132L21.8712 63.948Z" class="MsftOfcThm_Text1_Fill_v2" stroke="none" stroke-width="1" stroke-linecap="butt" stroke-linejoin="miter" stroke-miterlimit="4" fill="#000000" fill-rule="evenodd" fill-opacity="1" clip-rule="evenodd"/></g></svg>