<svg width="96" height="96" viewBox="0 0 96 96" xmlns="http://www.w3.org/2000/svg" xmlns:xlink="http://www.w3.org/1999/xlink" fill="none" overflow="hidden"><style>
.MsftOfcThm_Text1_Fill_v2 {
 fill:#000000; 
}
</style>
<path d="M16.2289 24.2501C16.2289 19.8319 19.8106 16.2501 24.2289 16.2501L34.8507 16.2501C39.2689 16.2501 42.8507 19.8318 42.8507 24.2501L42.8507 34.8719C42.8507 39.2902 39.2689 42.8719 34.8507 42.8719L24.2289 42.8719C19.8106 42.8719 16.2289 39.2902 16.2289 34.8719L16.2289 24.2501ZM24.2289 20.2501C22.0197 20.2501 20.2289 22.041 20.2289 24.2501L20.2289 34.8719C20.2289 37.081 22.0197 38.8719 24.2289 38.8719L34.8507 38.8719C37.0598 38.8719 38.8507 37.081 38.8507 34.8719L38.8507 24.2501C38.8507 22.041 37.0598 20.2501 34.8507 20.2501L24.2289 20.2501ZM54.8754 17.3615C53.7714 17.3241 52.8462 18.1886 52.8088 19.2926 52.7714 20.3965 53.6359 21.3218 54.7399 21.3592 57.5892 21.4557 60.5406 22.2778 62.7751 24.4396 64.8055 26.4039 66.4936 29.7169 66.7519 35.3171L62.6404 31.2056C61.8594 30.4246 60.5931 30.4246 59.812 31.2056 59.031 31.9867 59.031 33.253 59.812 34.0341L66.9567 41.1787C67.7377 41.9598 69.0041 41.9598 69.7851 41.1787L76.9528 34.011C77.7339 33.23 77.7339 31.9636 76.9528 31.1826 76.1718 30.4015 74.9055 30.4015 74.1244 31.1826L70.7179 34.5891C70.3398 28.538 68.4167 24.332 65.5564 21.5648 62.3809 18.4926 58.3431 17.479 54.8754 17.3615ZM28.9513 54.8213C28.1703 54.0403 26.904 54.0403 26.1229 54.8213L18.9552 61.989C18.1741 62.7701 18.1741 64.0364 18.9552 64.8175 19.7362 65.5985 21.0026 65.5985 21.7836 64.8175L25.19 61.4111C25.5681 67.462 27.4912 71.668 30.3514 74.4351 33.5269 77.5072 37.5647 78.5209 41.0325 78.6384 42.1364 78.6758 43.0616 77.8112 43.099 76.7073 43.1365 75.6033 42.2719 74.6781 41.1679 74.6407 38.3186 74.5441 35.3672 73.722 33.1327 71.5603 31.1023 69.596 29.4142 66.283 29.1559 60.6827L33.2676 64.7944C34.0486 65.5755 35.315 65.5755 36.096 64.7944 36.8771 64.0134 36.8771 62.747 36.096 61.966L28.9513 54.8213ZM61.1493 53.1281C56.731 53.1281 53.1493 56.7098 53.1493 61.1281L53.1493 71.7499C53.1493 76.1682 56.731 79.7499 61.1493 79.7499L71.7711 79.7499C76.1894 79.7499 79.7711 76.1682 79.7711 71.7499L79.7711 61.1281C79.7711 56.7098 76.1893 53.1281 71.7711 53.1281L61.1493 53.1281ZM57.1493 61.1281C57.1493 58.919 58.9402 57.1281 61.1493 57.1281L71.7711 57.1281C73.9802 57.1281 75.7711 58.919 75.7711 61.1281L75.7711 71.7499C75.7711 73.959 73.9802 75.7499 71.7711 75.7499L61.1493 75.7499C58.9402 75.7499 57.1493 73.959 57.1493 71.7499L57.1493 61.1281Z" class="MsftOfcThm_Text1_Fill_v2" stroke="none" stroke-width="1" stroke-linecap="butt" stroke-linejoin="miter" stroke-miterlimit="4" fill="#000000" fill-rule="evenodd" fill-opacity="1" clip-rule="evenodd"/></svg>