<svg width="96" height="96" viewBox="0 0 96 96" xmlns="http://www.w3.org/2000/svg" xmlns:xlink="http://www.w3.org/1999/xlink" fill="none" overflow="hidden"><style>
.MsftOfcThm_Text1_Fill_v2 {
 fill:#000000; 
}
</style>
<path d="M16.21 15.0901C16.21 13.9855 15.3145 13.0901 14.21 13.0901 13.1054 13.0901 12.21 13.9855 12.21 15.0901L12.21 82.0001C12.21 83.1047 13.1054 84.0001 14.21 84.0001L81 84.0001C82.1045 84.0001 83 83.1047 83 82.0001 83 80.8955 82.1045 80.0001 81 80.0001L16.21 80.0001 16.21 15.0901ZM25.3203 46.2301C25.3203 45.1255 26.2157 44.2301 27.3203 44.2301L30.8603 44.2301C31.9649 44.2301 32.8603 45.1255 32.8603 46.2301L32.8603 68.7701C32.8603 69.8746 31.9649 70.7701 30.8603 70.7701L27.3203 70.7701C26.2157 70.7701 25.3203 69.8746 25.3203 68.7701L25.3203 46.2301ZM27.3203 40.2301C24.0066 40.2301 21.3203 42.9164 21.3203 46.2301L21.3203 68.7701C21.3203 72.0838 24.0066 74.7701 27.3203 74.7701L30.8603 74.7701C34.174 74.7701 36.8603 72.0838 36.8603 68.7701L36.8603 46.2301C36.8603 42.9164 34.174 40.2301 30.8603 40.2301L27.3203 40.2301ZM68.8506 58.6201C67.746 58.6201 66.8506 59.5155 66.8506 60.6201L66.8506 68.7701C66.8506 69.8746 67.746 70.7701 68.8506 70.7701L72.3906 70.7701C73.4952 70.7701 74.3906 69.8746 74.3906 68.7701L74.3906 60.6201C74.3906 59.5155 73.4952 58.6201 72.3906 58.6201L68.8506 58.6201ZM62.8506 60.6201C62.8506 57.3063 65.5369 54.6201 68.8506 54.6201L72.3906 54.6201C75.7043 54.6201 78.3906 57.3063 78.3906 60.6201L78.3906 68.7701C78.3906 72.0838 75.7043 74.7701 72.3906 74.7701L68.8506 74.7701C65.5369 74.7701 62.8506 72.0838 62.8506 68.7701L62.8506 60.6201ZM46.0803 28.3201C46.0803 27.2155 46.9757 26.3201 48.0803 26.3201L51.6203 26.3201C52.7249 26.3201 53.6203 27.2155 53.6203 28.3201L53.6203 68.7701C53.6203 69.8746 52.7249 70.7701 51.6203 70.7701L48.0803 70.7701C46.9757 70.7701 46.0803 69.8746 46.0803 68.7701L46.0803 28.3201ZM48.0803 22.3201C44.7666 22.3201 42.0803 25.0064 42.0803 28.3201L42.0803 68.7701C42.0803 72.0838 44.7666 74.7701 48.0803 74.7701L51.6203 74.7701C54.934 74.7701 57.6203 72.0838 57.6203 68.7701L57.6203 28.3201C57.6203 25.0064 54.934 22.3201 51.6203 22.3201L48.0803 22.3201Z" class="MsftOfcThm_Text1_Fill_v2" stroke="none" stroke-width="1" stroke-linecap="butt" stroke-linejoin="miter" stroke-miterlimit="4" fill="#000000" fill-rule="evenodd" fill-opacity="1" clip-rule="evenodd"/></svg>