<svg width="96" height="96" viewBox="0 0 96 96" xmlns="http://www.w3.org/2000/svg" xmlns:xlink="http://www.w3.org/1999/xlink" fill="none" overflow="hidden"><style>
.MsftOfcThm_Text1_Fill_v2 {
 fill:#000000; 
}
</style>
<path d="M16 26C16 20.4772 20.4772 16 26 16L70 16C75.5229 16 80 20.4772 80 26L80 70C80 74.8379 76.5645 78.8734 72 79.8L72 82C72 83.1046 71.1046 84 70 84 68.8954 84 68 83.1046 68 82L68 80 28 80 28 82C28 83.1046 27.1046 84 26 84 24.8954 84 24 83.1046 24 82L24 79.8C19.4355 78.8734 16 74.8379 16 70L16 26ZM76 70C76 73.3137 73.3137 76 70 76L26 76C22.6863 76 20 73.3137 20 70L20 26C20 22.6863 22.6863 20 26 20L70 20C73.3137 20 76 22.6863 76 26L76 70ZM26 30C26 26.6863 28.6863 24 32 24L66 24C69.3137 24 72 26.6863 72 30L72 66C72 69.3137 69.3137 72 66 72L32 72C28.6863 72 26 69.3137 26 66L26 64C24.8954 64 24 63.1046 24 62L24 54C24 52.8954 24.8954 52 26 52L26 44C24.8954 44 24 43.1046 24 42L24 34C24 32.8954 24.8954 32 26 32L26 30ZM30 66 30 64C31.1046 64 32 63.1046 32 62L32 54C32 52.8954 31.1046 52 30 52L30 44C31.1046 44 32 43.1046 32 42L32 34C32 32.8954 31.1046 32 30 32L30 30C30 28.8954 30.8954 28 32 28L66 28C67.1046 28 68 28.8954 68 30L68 66C68 67.1046 67.1046 68 66 68L32 68C30.8954 68 30 67.1046 30 66ZM43 48C43 44.6863 45.6863 42 49 42 52.3137 42 55 44.6863 55 48 55 51.3137 52.3137 54 49 54 45.6863 54 43 51.3137 43 48ZM49 38C43.4772 38 39 42.4772 39 48 39 53.5228 43.4772 58 49 58 54.5228 58 59 53.5228 59 48 59 42.4772 54.5228 38 49 38Z" class="MsftOfcThm_Text1_Fill_v2" stroke="none" stroke-width="1" stroke-linecap="butt" stroke-linejoin="miter" stroke-miterlimit="4" fill="#000000" fill-rule="evenodd" fill-opacity="1" clip-rule="evenodd"/></svg>