<svg width="96" height="96" viewBox="0 0 96 96" xmlns="http://www.w3.org/2000/svg" xmlns:xlink="http://www.w3.org/1999/xlink" fill="none" overflow="hidden"><style>
.MsftOfcThm_Text1_Fill_v2 {
 fill:#000000; 
}
</style>
<path d="M14.9264 26.5593C11.7549 18.8571 19.4571 11.155 27.1592 14.3264L79.1096 35.7178C87.3345 39.1045 87.543 50.6777 79.4454 54.3585L64.713 61.055C63.3575 61.6712 62.2712 62.7575 61.655 64.113L54.9585 78.8454C51.2778 86.943 39.7045 86.7345 36.3178 78.5097L14.9264 26.5593ZM25.6362 18.0251C21.2218 16.2074 16.8074 20.6219 18.6251 25.0363L16.7758 25.7978 18.6251 25.0363 40.0165 76.9867C42.0696 81.9728 49.0857 82.0992 51.317 77.1902L58.0136 62.4578C59.0299 60.2219 60.8218 58.4299 63.0578 57.4136L77.7902 50.717C82.6992 48.4856 82.5728 41.4696 77.5866 39.4165L25.6362 18.0251Z" class="MsftOfcThm_Text1_Fill_v2" stroke="none" stroke-width="1" stroke-linecap="butt" stroke-linejoin="miter" stroke-miterlimit="4" fill="#000000" fill-rule="evenodd" fill-opacity="1" clip-rule="evenodd"/></svg>