<svg width="96" height="96" viewBox="0 0 96 96" xmlns="http://www.w3.org/2000/svg" xmlns:xlink="http://www.w3.org/1999/xlink" fill="none" overflow="hidden"><style>
.MsftOfcThm_Text1_Fill_v2 {
 fill:#000000; 
}
</style>
<path d="M13.7477 16.8973C14.0246 16.3048 14.5737 15.8851 15.2181 15.7735 17.3106 15.411 20.2215 15.3265 23.172 15.9105 25.6882 16.4085 28.3594 17.4195 30.5576 19.282 35.7451 16.862 41.6917 15.4932 47.9994 15.4932 64.9767 15.4932 79.6342 25.5246 83.4078 39.4091 83.8906 39.288 84.4373 39.0493 84.9392 38.6297 85.7583 37.9451 86.6689 36.6018 86.7911 33.9093 86.8412 32.8059 87.7763 31.952 88.8798 32.002 89.9832 32.0521 90.8371 32.9873 90.787 34.0907 90.623 37.7032 89.3271 40.1755 87.5044 41.6989 86.4346 42.5931 85.2548 43.0994 84.1668 43.3391 84.2869 44.3687 84.3484 45.4148 84.3484 46.4751 84.3484 57.4607 77.6772 66.9705 67.8556 72.4359L64.9164 80.4395C64.6273 81.2267 63.8777 81.75 63.039 81.75L55.4036 81.75C54.5656 81.75 53.8165 81.2276 53.5269 80.4412L52.3471 77.2379C50.921 77.3827 49.4701 77.4571 47.9994 77.4571 46.5125 77.4571 45.0458 77.381 43.6043 77.2331L42.4229 80.4412C42.1332 81.2276 41.3841 81.75 40.5461 81.75L32.9107 81.75C32.072 81.75 31.3224 81.2267 31.0333 80.4395L28.0814 72.4014C22.0214 69.0148 17.1773 64.0993 14.3565 58.2344L8.19227 54.6466C6.34612 53.5721 5.21045 51.5971 5.21045 49.461L5.21045 43.488C5.21045 41.3528 6.34518 39.3785 8.19012 38.3037L14.3596 34.7094C15.5687 32.1972 17.1496 29.8589 19.0369 27.7416L13.8287 18.7462C13.501 18.1803 13.4708 17.4898 13.7477 16.8973ZM28.7169 23.0435C29.34 23.7119 30.3138 23.8577 31.0891 23.4616L31.0944 23.4719C36.0028 20.9542 41.7884 19.4932 47.9994 19.4932 66.1972 19.4932 80.3484 31.8784 80.3484 46.4751 80.3484 55.8616 74.563 64.2738 65.5351 69.1464 65.0132 69.3453 64.5769 69.7606 64.3692 70.3262L61.6429 77.75 56.7984 77.75 55.5569 74.3791C55.2298 73.4908 54.3386 72.974 53.438 73.0846L53.437 73.0771C51.6702 73.3268 49.8537 73.4571 47.9994 73.4571 46.1452 73.4571 44.3286 73.3268 42.5619 73.0771L42.5599 73.0911C41.6431 72.9556 40.7257 73.475 40.3928 74.3791L39.1513 77.75 34.3068 77.75 31.5805 70.3262C31.4111 69.8648 31.0895 69.5035 30.6934 69.278L30.697 69.2712C24.8597 66.179 20.3405 61.6002 17.841 56.2469 17.6983 55.7835 17.3878 55.3705 16.9357 55.1074L10.2044 51.1895C9.589 50.8314 9.21045 50.173 9.21045 49.461L9.21045 43.488C9.21045 42.7763 9.58869 42.1182 10.2037 41.7599L16.9365 37.8375C17.3833 37.5772 17.6917 37.1703 17.8363 36.7133 19.0453 34.1208 20.7271 31.7103 22.8053 29.5603 23.5339 28.9473 23.7401 27.8817 23.2465 27.0291L18.8798 19.4871C19.9863 19.494 21.1886 19.5955 22.3953 19.8344 24.8309 20.3164 27.111 21.3211 28.7169 23.0435ZM30 36C30 37.6568 28.6569 39 27 39 25.3431 39 24 37.6568 24 36 24 34.3431 25.3431 33 27 33 28.6569 33 30 34.3431 30 36ZM42.2695 24.332C41.165 24.332 40.2695 25.2275 40.2695 26.332 40.2695 27.4366 41.165 28.332 42.2695 28.332L53.6802 28.332C54.7847 28.332 55.6802 27.4366 55.6802 26.332 55.6802 25.2275 54.7847 24.332 53.6802 24.332L42.2695 24.332Z" class="MsftOfcThm_Text1_Fill_v2" stroke="none" stroke-width="1" stroke-linecap="butt" stroke-linejoin="miter" stroke-miterlimit="4" fill="#000000" fill-rule="evenodd" fill-opacity="1" clip-rule="evenodd"/></svg>