<svg width="96" height="96" viewBox="0 0 96 96" xmlns="http://www.w3.org/2000/svg" xmlns:xlink="http://www.w3.org/1999/xlink" fill="none" overflow="hidden"><style>
.MsftOfcThm_Text1_Fill_v2 {
 fill:#000000; 
}
</style>
<path d="M33.5 24C33.5 21.7909 35.2909 20 37.5 20L59.5 20C61.7091 20 63.5 21.7909 63.5 24L63.5 72C63.5 74.2091 61.7091 76 59.5 76L37.5 76C35.2909 76 33.5 74.2091 33.5 72L33.5 24ZM37.5 16C33.0817 16 29.5 19.5817 29.5 24L29.5 72C29.5 76.4183 33.0817 80 37.5 80L59.5 80C63.9183 80 67.5 76.4183 67.5 72L67.5 24C67.5 19.5817 63.9183 16 59.5 16L37.5 16ZM51 70.5C51 71.8807 49.8807 73 48.5 73 47.1193 73 46 71.8807 46 70.5 46 69.1193 47.1193 68 48.5 68 49.8807 68 51 69.1193 51 70.5Z" class="MsftOfcThm_Text1_Fill_v2" stroke="none" stroke-width="1" stroke-linecap="butt" stroke-linejoin="miter" stroke-miterlimit="4" fill="#000000" fill-rule="evenodd" fill-opacity="1" clip-rule="evenodd"/></svg>