<svg width="96" height="96" viewBox="0 0 96 96" xmlns="http://www.w3.org/2000/svg" xmlns:xlink="http://www.w3.org/1999/xlink" fill="none" overflow="hidden"><style>
.MsftOfcThm_Text1_Fill_v2 {
 fill:#000000; 
}
</style>
<path d="M62.4805 18C62.4805 16.8954 63.3759 16 64.4805 16L76.8805 16C77.985 16 78.8805 16.8954 78.8805 18L78.8805 44C78.8805 45.1046 77.985 46 76.8805 46L64.4805 46C63.3759 46 62.4805 45.1046 62.4805 44L62.4805 18ZM64.4805 12C61.1668 12 58.4805 14.6863 58.4805 18L58.4805 44C58.4805 47.3137 61.1668 50 64.4805 50L76.8805 50C80.1942 50 82.8805 47.3137 82.8805 44L82.8805 18C82.8805 14.6863 80.1942 12 76.8805 12L64.4805 12ZM59.8799 63.6C60.9845 63.6 61.8799 64.4954 61.8799 65.6L61.8799 78C61.8799 79.1045 60.9845 80 59.8799 80L33.8799 80C32.7753 80 31.8799 79.1045 31.8799 78L31.8799 65.6C31.8799 64.4954 32.7753 63.6 33.8799 63.6L59.8799 63.6ZM65.8799 65.6C65.8799 62.2863 63.1936 59.6 59.8799 59.6L33.8799 59.6C30.5662 59.6 27.8799 62.2863 27.8799 65.6L27.8799 78C27.8799 81.3137 30.5662 84 33.8799 84L59.8799 84C63.1936 84 65.8799 81.3137 65.8799 78L65.8799 65.6ZM19.6701 45.43C18.2618 45.43 17.1201 46.5717 17.1201 47.98 17.1201 49.3883 18.2618 50.53 19.6701 50.53 21.0784 50.53 22.2201 49.3883 22.2201 47.98 22.2201 46.5717 21.0784 45.43 19.6701 45.43ZM13.1201 47.98C13.1201 45.0565 15.0354 42.5804 17.6797 41.7379L17.6797 27.0221C15.0354 26.1796 13.1201 23.7035 13.1201 20.78 13.1201 17.1625 16.0527 14.23 19.6701 14.23 22.5975 14.23 25.0763 16.1503 25.9155 18.8L40.6249 18.8C41.4642 16.1503 43.943 14.23 46.8703 14.23 50.4878 14.23 53.4203 17.1625 53.4203 20.78 53.4203 23.6964 51.5142 26.1677 48.8799 27.0159L48.8799 37.02C48.8799 38.1246 47.9845 39.02 46.8799 39.02 45.7753 39.02 44.8799 38.1246 44.8799 37.02L44.8799 27.0221C42.8732 26.3827 41.2863 24.8026 40.6377 22.8L25.9027 22.8C25.2562 24.7962 23.6773 26.3727 21.6797 27.0159L21.6797 41.744C23.6907 42.3916 25.2773 43.9849 25.9155 46L35.9502 46C37.0547 46 37.9502 46.8954 37.9502 48 37.9502 49.1046 37.0547 50 35.9502 50L25.9027 50C25.0513 52.629 22.5827 54.53 19.6701 54.53 16.0527 54.53 13.1201 51.5975 13.1201 47.98ZM17.1201 20.78C17.1201 19.3717 18.2618 18.23 19.6701 18.23 21.0784 18.23 22.2201 19.3717 22.2201 20.78 22.2201 22.1883 21.0784 23.33 19.6701 23.33 18.2618 23.33 17.1201 22.1883 17.1201 20.78ZM46.8703 18.23C45.462 18.23 44.3203 19.3717 44.3203 20.78 44.3203 22.1883 45.462 23.33 46.8703 23.33 48.2786 23.33 49.4203 22.1883 49.4203 20.78 49.4203 19.3717 48.2786 18.23 46.8703 18.23ZM44.0102 55.14 38.8502 42.57 38.8602 42.57C38.1802 40.93 39.8302 39.28 41.4702 39.96L54.0302 45.12C55.6502 45.79 55.6902 48.08 54.0802 48.8L50.3602 50.46C49.9102 50.66 49.5502 51.02 49.3502 51.47L47.6902 55.19C46.9702 56.8 44.6802 56.77 44.0102 55.14Z" class="MsftOfcThm_Text1_Fill_v2" stroke="none" stroke-width="1" stroke-linecap="butt" stroke-linejoin="miter" stroke-miterlimit="4" fill="#000000" fill-rule="evenodd" fill-opacity="1" clip-rule="evenodd"/></svg>