<svg width="97" height="96" viewBox="0 0 97 96" xmlns="http://www.w3.org/2000/svg" xmlns:xlink="http://www.w3.org/1999/xlink" fill="none" overflow="hidden"><style>
.MsftOfcThm_Text1_Fill_v2 {
 fill:#000000; 
}
</style>
<path d="M24.4272 16.2188C25.5318 16.2188 26.4272 17.1142 26.4272 18.2187L26.4272 20.042 67.4585 20.042C71.8768 20.042 75.4585 23.6237 75.4585 28.042L75.4585 54C75.4585 58.4183 71.8768 62 67.4585 62L26.4272 62 26.4272 77.7812C26.4272 78.8858 25.5318 79.7812 24.4272 79.7812 23.3227 79.7812 22.4272 78.8858 22.4272 77.7812L22.4272 18.2188C22.4272 17.1142 23.3227 16.2188 24.4272 16.2188ZM26.4272 58 26.4272 24.042 67.4585 24.042C69.6676 24.042 71.4585 25.8329 71.4585 28.042L71.4585 54C71.4585 56.2091 69.6676 58 67.4585 58L26.4272 58ZM61.5157 36.0299C62.3321 35.2859 62.3907 34.0209 61.6466 33.2045 60.9026 32.3882 59.6376 32.3295 58.8212 33.0736L58.7587 33.1306 58.6216 33.2556 58.4149 33.4439 58.3998 33.4577 58.3844 33.4717 58.353 33.5004 58.2871 33.5604 58.2173 33.624 58.1438 33.691 58.1056 33.7258 58.0665 33.7615 57.9856 33.8352 57.9011 33.9122 57.8794 33.932 57.8575 33.9519 57.8354 33.9721 57.8131 33.9924 57.7218 34.0757 57.6984 34.097 57.6748 34.1185 57.651 34.1401 57.6271 34.162 57.5785 34.2063 57.5291 34.2513 57.428 34.3434 57.3238 34.4384 57.2166 34.5361 56.9934 34.7395 56.9359 34.792 56.8776 34.845 56.7592 34.953 56.5144 35.1761 55.4432 36.1524 55.1554 36.4147 54.861 36.6831 54.5604 36.957 54.4081 37.0959 54.2544 37.2359 54.0996 37.3771 54.0607 37.4125 54.0217 37.448 53.9436 37.5192 53.8652 37.5907 53.7865 37.6624 53.7471 37.6983 53.7076 37.7343 53.6681 37.7703 53.6285 37.8064 52.9883 38.3899 52.9075 38.4635 52.8266 38.5373 52.7861 38.5742 52.7455 38.6111 52.705 38.6481 52.6644 38.6851 52.5018 38.8333 52.3388 38.9819 52.2572 39.0562 52.1755 39.1307 52.1347 39.1679 52.0938 39.2051 52.0121 39.2796 51.9303 39.3541 51.8894 39.3914 51.8485 39.4287 51.685 39.5778 51.5214 39.7268 51.4806 39.7641 51.4397 39.8013 51.358 39.8758 51.2764 39.9502 51.1948 40.0245 51.0319 40.173 50.9506 40.2471 50.8693 40.3212 50.7072 40.4689 50.6668 40.5058 50.6264 40.5426 50.586 40.5794 50.5456 40.6162 50.465 40.6897 50.4248 40.7263 50.3846 40.763 50.3043 40.8361 50.2243 40.9091 50.1843 40.9455 50.1444 40.9819 50.1045 41.0183 50.0647 41.0546 49.9852 41.127 49.9455 41.1632 49.9059 41.1992 49.7481 41.3431 49.1273 41.9089 49.0511 41.9783 49.0131 42.013 48.9752 42.0475 48.9374 42.082 48.8997 42.1164 48.862 42.1507 48.8245 42.1849 48.7496 42.2531 48.6752 42.321 48.6381 42.3548 48.6011 42.3885 48.5274 42.4557 48.3813 42.5888 48.3088 42.6549 48.2368 42.7205 47.9533 42.9789 47.6775 43.2303 47.6099 43.2919 47.5762 43.3226 47.5427 43.3531 47.4101 43.474 47.3773 43.5039 47.3446 43.5337 47.2797 43.5929 47.2154 43.6515 47.1834 43.6806 47.1516 43.7096 46.9027 43.9364 46.6641 44.1539 46.635 44.1805 46.6061 44.2068 46.5774 44.233 46.5488 44.259 46.4363 44.3616 46.3811 44.4119 46.3266 44.4615 46.2199 44.5588 46.1937 44.5826 46.1677 44.6063 46.1419 44.6299 46.1163 44.6532 46.1004 44.6677 40.5667 39.5072C39.7589 38.7539 38.4933 38.798 37.74 39.6058 36.9866 40.4136 37.0308 41.6792 37.8386 42.4325L44.7208 48.8506C45.4826 49.5611 46.6622 49.5678 47.4321 48.8661L46.0848 47.388C47.4321 48.8661 47.4321 48.8661 47.4322 48.866L47.4327 48.8656 47.4335 48.8648 47.4346 48.8638 47.4421 48.857 47.4717 48.83 47.5875 48.7245 47.6277 48.6878 47.6723 48.6472 47.7742 48.5543 47.8023 48.5287 47.8167 48.5156 47.8314 48.5022 47.8615 48.4747 47.8769 48.4607 47.8926 48.4464 48.0269 48.324 48.0998 48.2575 48.1764 48.1877 48.3406 48.0381 48.3838 47.9987 48.4058 47.9787 48.4279 47.9585 48.4503 47.9381 48.4729 47.9175 48.5187 47.8757 48.6128 47.79 48.7102 47.7012 49.1307 47.3179 49.1586 47.2925 49.1866 47.267 49.2433 47.2154 49.3586 47.1103 49.4172 47.0568 49.4766 47.0027 49.5065 46.9754 49.5366 46.948 49.5972 46.8927 49.6585 46.8369 49.7204 46.7805 49.7516 46.752 49.783 46.7235 49.8144 46.6948 49.8461 46.6659 49.8779 46.6369 49.9098 46.6078 49.9742 46.5492 50.0066 46.5197 50.0391 46.49 50.0718 46.4602 50.1046 46.4303 50.2372 46.3094 50.372 46.1866 50.5089 46.0618 50.6478 45.9352 50.7886 45.8069 50.8597 45.742 50.8955 45.7095 50.9313 45.6768 51.0033 45.6112 51.0395 45.5782 51.0758 45.5452 51.2219 45.412 51.2587 45.3784 51.2956 45.3448 51.3696 45.2773 51.4068 45.2434 51.4441 45.2094 51.5189 45.1412 51.5941 45.0727 51.6697 45.0038 51.7076 44.9693 51.7456 44.9347 51.8218 44.8652 52.4425 44.2994 52.4819 44.2635 52.5214 44.2276 52.5608 44.1916 52.6004 44.1556 52.6797 44.0833 52.7194 44.0471 52.7591 44.0109 53.0791 43.7193 53.7264 43.1293 54.0525 42.8321 54.0933 42.7949 54.1342 42.7576 54.175 42.7204 54.2159 42.6831 54.3794 42.5341 54.4612 42.4595 54.543 42.385 54.5839 42.3477 54.6248 42.3105 54.7066 42.2359 54.7474 42.1987 54.7883 42.1614 54.8292 42.1242 54.87 42.087 54.9108 42.0498 54.9517 42.0126 55.0332 41.9382 55.074 41.901 55.1148 41.8639 55.1555 41.8268 55.1962 41.7897 55.2369 41.7526 55.2776 41.7155 55.3589 41.6414 55.44 41.5675 55.4806 41.5305 55.5211 41.4936 55.6828 41.3462 55.7231 41.3094 55.7634 41.2727 55.8037 41.236 55.8439 41.1994 55.8841 41.1627 55.9242 41.1262 56.0043 41.0531 56.0444 41.0166 56.0843 40.9802 56.1641 40.9075 56.2436 40.835 56.323 40.7627 56.3626 40.7266 56.4021 40.6906 56.4416 40.6546 56.481 40.6187 56.5596 40.547 56.638 40.4755 56.6771 40.4399 56.7162 40.4043 56.7551 40.3688 56.794 40.3334 56.8716 40.2627 56.9103 40.2274 56.9489 40.1922 57.1025 40.0522 57.1407 40.0174 57.1789 39.9826 57.2169 39.9479 57.2549 39.9133 57.2928 39.8788 57.3306 39.8444 57.3683 39.81 57.4059 39.7757 57.4809 39.7074 57.5182 39.6734 57.5554 39.6394 57.8499 39.371 57.9225 39.3049 57.9586 39.2719 57.9946 39.2391 58.0306 39.2064 58.0664 39.1737 58.1376 39.1088 58.418 38.8532 58.4869 38.7904 58.5212 38.7592 58.5553 38.7281 58.5893 38.6971 58.6231 38.6663 58.6569 38.6355 58.6905 38.6049 59.2089 38.1324 60.1225 37.2997 60.3215 37.1183 60.5076 36.9487 60.5956 36.8686 60.68 36.7916 60.761 36.7178 60.8382 36.6474 60.9118 36.5803 60.9472 36.5481 60.9645 36.5323 60.9816 36.5167 61.015 36.4863 61.0313 36.4714 61.0475 36.4567 61.1094 36.4002 61.2211 36.2984 61.316 36.2119 61.5157 36.0299Z" class="MsftOfcThm_Text1_Fill_v2" stroke="none" stroke-width="1" stroke-linecap="butt" stroke-linejoin="miter" stroke-miterlimit="4" fill="#000000" fill-rule="evenodd" fill-opacity="1" clip-rule="evenodd"/></svg>