<svg width="96" height="96" viewBox="0 0 96 96" xmlns="http://www.w3.org/2000/svg" xmlns:xlink="http://www.w3.org/1999/xlink" fill="none" overflow="hidden"><style>
.MsftOfcThm_Text1_Fill_v2 {
 fill:#000000; 
}
</style>
<path d="M79.8125 24.4837C79.8125 20.3494 74.306 18.9319 72.3097 22.5522L64.0028 37.6167 57.0691 29.1343C55.352 27.0337 52.0862 27.2157 50.6131 29.494L40.9211 44.4837 33.3815 35.7697C31.892 34.0481 29.268 33.9151 27.612 35.4771L18.1306 44.4202C16.9288 45.5538 16.2476 47.1328 16.2476 48.7849L16.2476 73.7783C16.2476 77.092 18.9338 79.7783 22.2476 79.7783L73.8125 79.7783C77.1262 79.7783 79.8125 77.092 79.8125 73.7783L79.8125 24.4837ZM75.8125 54.9704 75.8125 24.4837 67.5056 39.5482C66.1382 42.0279 62.698 42.3407 60.9058 40.1483L53.9721 31.6659 44.2801 46.6556C42.8324 48.8946 39.6407 49.1173 37.8962 47.1009L30.3566 38.3869 20.8752 47.33C20.4746 47.7079 20.2476 48.2342 20.2476 48.7849L20.2476 63.313 30.5825 56.3815C32.0298 55.4109 33.9389 55.4889 35.3022 56.5745L44.2003 63.66 54.9635 50.9671C56.484 49.1739 59.2157 49.0725 60.8649 50.748L68.4482 58.4517 75.8125 54.9704ZM75.8125 59.3948 70.1578 62.068C68.6201 62.7949 66.7908 62.4699 65.5976 61.2577L58.0143 53.5541 47.2511 66.247C45.8534 67.8953 43.3992 68.1353 41.7086 66.7891L32.8105 59.7036 20.6999 67.826C20.5559 67.9225 20.4039 67.9979 20.2476 68.0528L20.2476 73.7783C20.2476 74.8828 21.143 75.7783 22.2476 75.7783L73.8125 75.7783C74.9171 75.7783 75.8125 74.8828 75.8125 73.7783L75.8125 59.3948Z" class="MsftOfcThm_Text1_Fill_v2" stroke="none" stroke-width="1" stroke-linecap="butt" stroke-linejoin="miter" stroke-miterlimit="4" fill="#000000" fill-rule="evenodd" fill-opacity="1" clip-rule="evenodd"/></svg>