<svg width="96" height="96" viewBox="0 0 96 96" xmlns="http://www.w3.org/2000/svg" xmlns:xlink="http://www.w3.org/1999/xlink" fill="none" overflow="hidden"><style>
.MsftOfcThm_Text1_Fill_v2 {
 fill:#000000; 
}
</style>
<path d="M26.1982 16.1904C23.3841 16.1904 20.8215 17.8172 19.6331 20.3687L19.6327 20.3697 14.5433 31.3118 14.5431 31.3123 14.5428 31.3129C13.5237 33.5008 13 35.883 13 38.2904 13 42.8084 15.9349 46.6348 20 47.993L20 69.9997C20 75.5226 24.4772 79.9997 30 79.9997L66 79.9997C71.5228 79.9997 76 75.5226 76 69.9997L76 48.0276C80.1196 46.7006 83.1053 42.8473 83.1053 38.2904 83.1053 35.9423 82.6045 33.6205 81.6394 31.481 81.619 31.4242 81.596 31.3681 81.5703 31.3129L76.4805 20.3697 76.48 20.3687C75.2916 17.8172 72.7291 16.1904 69.9149 16.1904L26.1982 16.1904ZM72 48.4873C68.9607 48.241 66.2926 46.6738 64.5789 44.3597 62.7087 46.8853 59.7016 48.5213 56.3158 48.5213 52.93 48.5213 49.9229 46.8853 48.0526 44.3597 46.6015 46.3193 44.4659 47.7434 42 48.2832L42 64 72 64 72 48.4873ZM38 48.3662C35.3566 47.9026 33.0594 46.43 31.5263 44.3597 29.7929 46.7005 27.0829 48.2771 24 48.4953L24 69.9997C24 73.3134 26.6863 75.9997 30 75.9997L38.056 75.9997C38.0194 75.8485 38 75.6905 38 75.528L38 48.3662ZM39.7895 44.5213C36.3231 44.5213 33.5263 41.7242 33.5263 38.2904L33.5263 37.8835C33.5263 36.779 32.6309 35.8835 31.5263 35.8835 30.4217 35.8835 29.5263 36.779 29.5263 37.8835L29.5263 38.2904C29.5263 41.7242 26.7296 44.5213 23.2632 44.5213 19.7968 44.5213 17 41.7242 17 38.2904 17 36.4627 17.3977 34.6569 18.1692 33.0009L18.1697 32.9998 23.2591 22.0575 23.2594 22.057 23.2595 22.0566C23.7889 20.9209 24.9335 20.1904 26.1982 20.1904L69.9149 20.1904C71.18 20.1904 72.3248 20.9213 72.854 22.0575L77.8708 32.8437C77.89 32.896 77.9114 32.9478 77.9351 32.9989 78.7056 34.6576 79.1053 36.4643 79.1053 38.2904 79.1053 41.7242 76.3085 44.5213 72.8421 44.5213 69.3757 44.5213 66.5789 41.7242 66.5789 38.2904L66.5789 37.8835C66.5789 36.779 65.6835 35.8835 64.5789 35.8835 63.4744 35.8835 62.5789 36.779 62.5789 37.8835L62.5789 38.2904C62.5789 41.7242 59.7822 44.5213 56.3158 44.5213 52.8494 44.5213 50.0526 41.7242 50.0526 38.2904L50.0526 37.8835C50.0526 36.779 49.1572 35.8835 48.0526 35.8835 46.9481 35.8835 46.0526 36.779 46.0526 37.8835L46.0526 38.2904C46.0526 41.7242 43.2559 44.5213 39.7895 44.5213ZM42 68 72 68 72 69.9997C72 73.3134 69.3137 75.9997 66 75.9997L41.944 75.9997C41.9806 75.8485 42 75.6905 42 75.528L42 68Z" class="MsftOfcThm_Text1_Fill_v2" stroke="none" stroke-width="1" stroke-linecap="butt" stroke-linejoin="miter" stroke-miterlimit="4" fill="#000000" fill-rule="evenodd" fill-opacity="1" clip-rule="evenodd"/></svg>