<svg width="96" height="96" viewBox="0 0 96 96" xmlns="http://www.w3.org/2000/svg" xmlns:xlink="http://www.w3.org/1999/xlink" fill="none" overflow="hidden"><style>
.MsftOfcThm_Text1_Fill_v2 {
 fill:#000000; 
}
</style>
<path d="M44.1263 18.4644C41.8474 20.2001 40.2587 22.9277 39.3471 25.4334L36.0147 36.291 53.1979 36.291C53.9254 36.291 54.5955 36.686 54.9478 37.3224L61.723 49.5622C66.3036 44.9853 70.9582 40.3361 74.4437 36.8554 75.2253 36.0749 76.4916 36.0757 77.2722 36.8573 78.0527 37.6389 78.0518 38.9052 77.2702 39.6858 73.5787 43.3722 68.5756 48.3694 63.7384 53.203L71.2702 66.8094C71.8051 67.7758 71.4554 68.9929 70.489 69.5278 69.5226 70.0628 68.3055 69.713 67.7706 68.7466L60.7948 56.1447 58.8246 58.1139C55.764 61.1733 53.0115 63.9261 51.0181 65.9221 50.0213 66.9202 49.215 67.7284 48.6552 68.2908 48.375 68.5723 48.1578 68.7909 48.0097 68.9406 47.9353 69.0159 47.8806 69.0714 47.8448 69.108L47.8244 69.1291C47.138 69.8802 45.9802 70.0012 45.1495 69.3781 44.2658 68.7153 44.0867 67.4617 44.7495 66.5781 44.8005 66.5101 44.8467 66.4582 44.8531 66.4509L44.8532 66.4509 44.8538 66.4502C44.8614 66.4416 44.8683 66.4339 44.8742 66.4274 44.8798 66.4213 44.8844 66.4163 44.8877 66.4128L44.91 66.3889 44.9233 66.375C44.9345 66.3633 44.9469 66.3504 44.9599 66.3371 44.968 66.3287 44.9761 66.3204 44.9842 66.3121 45.0285 66.2668 45.0899 66.2046 45.1658 66.1278 45.3185 65.9734 45.5393 65.7511 45.8202 65.4689 46.3825 64.904 47.1907 64.094 48.1878 63.0955 50.1824 61.0983 52.9359 58.3446 55.9967 55.2849L58.7794 52.5037 52.0191 40.291 34.787 40.291 22.055 81.7743C21.7309 82.8303 20.6122 83.4236 19.5562 83.0995 18.5003 82.7754 17.907 81.6566 18.2311 80.6007L30.6029 40.291 22.4806 40.291C21.376 40.291 20.4806 39.3956 20.4806 38.291 20.4806 37.1864 21.376 36.291 22.4806 36.291L31.8306 36.291 35.5378 24.2121C35.5473 24.1811 35.5576 24.1504 35.5686 24.1199 36.6282 21.1846 38.5817 17.6593 41.7027 15.2822 44.9329 12.822 49.2633 11.7182 54.6116 13.5069 55.6591 13.8573 56.2243 14.9905 55.874 16.038 55.5236 17.0856 54.3904 17.6507 53.3429 17.3004 49.2586 15.9344 46.3095 16.8016 44.1263 18.4644ZM47.813 69.1408 47.8172 69.1365C47.7908 69.1653 47.7828 69.1724 47.813 69.1408Z" class="MsftOfcThm_Text1_Fill_v2" stroke="none" stroke-width="1" stroke-linecap="butt" stroke-linejoin="miter" stroke-miterlimit="4" fill="#000000" fill-rule="evenodd" fill-opacity="1" clip-rule="evenodd"/></svg>