<svg width="96" height="96" viewBox="0 0 96 96" xmlns="http://www.w3.org/2000/svg" xmlns:xlink="http://www.w3.org/1999/xlink" fill="none" overflow="hidden"><style>
.MsftOfcThm_Text1_Fill_v2 {
 fill:#000000; 
}
</style>
<path d="M80.2418 24.855C80.2418 19.584 75.1518 15.8029 70.1051 17.335L70.1044 17.3352 70.1039 17.3354 45.0872 24.9171 27.2899 24.9171C19.4019 24.9171 13 31.319 13 39.207 13 47.095 19.4019 53.4969 27.2899 53.4969L28.3334 53.4969 29.0347 55.1025C29.7772 56.802 30.7829 59.1027 31.8352 61.5072 33.9368 66.3095 36.2326 71.544 36.9832 73.2135 38.1337 75.7722 40.0862 77.3416 42.3144 77.9672 44.4884 78.5777 46.7959 78.2577 48.7255 77.3204 50.5249 76.4463 52.1096 74.9797 52.9771 73.0384 53.8631 71.0557 53.9354 68.7177 52.9158 66.3069L52.9075 66.2877 47.678 54.2753 70.0976 61.09 70.098 61.0902C75.1416 62.6221 80.2418 58.8514 80.2418 53.5705L80.2418 24.855ZM43.4376 28.9171 43.4376 49.4969 27.2899 49.4969C21.611 49.4969 17 44.8859 17 39.207 17 33.5281 21.611 28.9171 27.2899 28.9171L43.4376 28.9171ZM47.4377 50.0216 71.2605 57.2628 71.2609 57.2629C73.7387 58.0153 76.2418 56.1624 76.2418 53.5705L76.2418 24.855C76.2418 22.2652 73.7408 20.4111 71.2664 21.1627L71.2652 21.1631 47.4377 28.3845 47.4377 50.0216ZM32.7014 53.504C33.4437 55.2028 34.4484 57.5015 35.4996 59.9035 37.6061 64.7169 39.8913 69.927 40.6314 71.5731 41.3053 73.0719 42.3302 73.817 43.3957 74.1162 44.5154 74.4306 45.8178 74.2859 46.9777 73.7224 48.0538 73.1997 48.8937 72.372 49.3251 71.4065 49.7372 70.4843 49.8387 69.3061 49.2355 67.8741L42.9796 53.504 32.7014 53.504Z" class="MsftOfcThm_Text1_Fill_v2" stroke="none" stroke-width="1" stroke-linecap="butt" stroke-linejoin="miter" stroke-miterlimit="4" fill="#000000" fill-rule="evenodd" fill-opacity="1" clip-rule="evenodd"/></svg>