<svg width="96" height="96" viewBox="0 0 96 96" xmlns="http://www.w3.org/2000/svg" xmlns:xlink="http://www.w3.org/1999/xlink" fill="none" overflow="hidden"><style>
.MsftOfcThm_Text1_Fill_v2 {
 fill:#000000; 
}
</style>
<path d="M16.6667 48.0667C17.7712 48.0667 18.6667 48.9621 18.6667 50.0667L18.6667 67.6667C18.6667 70.6122 21.0545 73 24 73L71.6667 73C74.6122 73 77 70.6122 77 67.6667L77 50.0667C77 48.9621 77.8954 48.0667 79 48.0667 80.1046 48.0667 81 48.9621 81 50.0667L81 67.6667C81 72.8213 76.8213 77 71.6667 77L24 77C18.8453 77 14.6667 72.8213 14.6667 67.6667L14.6667 50.0667C14.6667 48.9621 15.5621 48.0667 16.6667 48.0667ZM46.2044 17.8169C47.309 17.8169 48.2044 18.7123 48.2044 19.8169L48.2044 55.9771 55.2501 49.3986C56.0574 48.6448 57.323 48.6882 58.0768 49.4955 58.8307 50.3029 58.7873 51.5685 57.9799 52.3223L47.7499 61.874C46.962 62.6096 45.733 62.5885 44.9708 61.8263L35.4191 52.2747C34.6381 51.4936 34.6381 50.2273 35.4191 49.4462 36.2002 48.6652 37.4665 48.6652 38.2475 49.4462L44.2044 55.4031 44.2044 19.8169C44.2044 18.7123 45.0999 17.8169 46.2044 17.8169Z" class="MsftOfcThm_Text1_Fill_v2" stroke="none" stroke-width="1" stroke-linecap="butt" stroke-linejoin="miter" stroke-miterlimit="4" fill="#000000" fill-rule="evenodd" fill-opacity="1" clip-rule="evenodd"/></svg>