<svg width="160" height="160" viewBox="0 0 160 160" xmlns="http://www.w3.org/2000/svg" xmlns:xlink="http://www.w3.org/1999/xlink" fill="none" overflow="hidden"><style>
.MsftOfcThm_Text1_Fill_v2 {
 fill:#000000; 
}
</style>
<path d="M89.55 30C89.5516 31.2204 89.3292 32.4308 88.894 33.571L128.35 60.934C129.635 60.3585 131.027 60.062 132.435 60.064 137.958 60.064 142.435 64.541 142.435 70.064 142.435 74.796 139.148 78.76 134.734 79.799L119.434 124.745C120.841 126.512 121.605 128.704 121.601 130.962 121.601 136.485 117.124 140.962 111.601 140.962 107.315 140.962 103.659 138.265 102.236 134.476L55.263 134.476C53.7973 138.378 50.066 140.962 45.898 140.962 40.375 140.962 35.898 136.485 35.898 130.962 35.895 127.973 37.2319 125.14 39.541 123.242L24.784 79.887C20.161 79.007 16.667 74.943 16.667 70.064 16.667 64.541 21.144 60.064 26.667 60.064 28.212 60.064 29.677 60.415 30.983 61.041L70.29 33.781C69.7999 32.5807 69.5486 31.2964 69.55 30 69.55 24.477 74.028 20 79.55 20 85.073 20 89.55 24.477 89.55 30ZM84.543 38.666C84.0741 38.9372 83.5838 39.1696 83.077 39.361L83.077 78.331C84.9215 79.0285 86.5194 80.2543 87.671 81.855L122.435 70.076 122.435 70.064C122.435 68.481 122.802 66.984 123.457 65.654L84.543 38.667ZM87.965 93.1C88.8987 91.651 89.4398 89.9842 89.535 88.263L124.664 76.36C125.562 77.4671 126.686 78.3704 127.96 79.01L113.611 121.165C112.436 120.927 111.228 120.899 110.044 121.083L87.964 93.099ZM76.712 97.285C77.612 97.55 78.565 97.693 79.551 97.693 80.6203 97.6943 81.6828 97.5238 82.698 97.188L104.116 124.332C103.218 125.343 102.535 126.527 102.109 127.81L55.391 127.81C55.1357 127.041 54.7875 126.306 54.354 125.622L76.712 97.285ZM69.56 88.13C69.6387 90.0054 70.2464 91.8204 71.313 93.365L49.12 121.492C48.0824 121.14 46.9938 120.961 45.898 120.962L45.808 120.962 31.468 78.838C32.6476 78.1907 33.6851 77.313 34.519 76.257L69.56 88.129ZM76.41 78.196C74.4481 78.847 72.7356 80.0887 71.507 81.751L36.666 69.945C36.6511 68.5314 36.3355 67.1371 35.74 65.855L74.771 38.786C75.291 39.07 75.84 39.308 76.411 39.497L76.411 78.195Z" class="MsftOfcThm_Text1_Fill_v2" stroke="none" stroke-width="1" stroke-linecap="butt" stroke-linejoin="miter" stroke-miterlimit="4" fill="#000000" fill-rule="evenodd" fill-opacity="1" clip-rule="evenodd"/></svg>