<svg width="96" height="96" viewBox="0 0 96 96" xmlns="http://www.w3.org/2000/svg" xmlns:xlink="http://www.w3.org/1999/xlink" fill="none" overflow="hidden"><style>
.MsftOfcThm_Text1_Fill_v2 {
 fill:#000000; 
}
</style>
<path d="M26 24C20.4772 24 16 28.4772 16 34L16 62C16 67.5228 20.4772 72 26 72L70 72C75.5228 72 80 67.5228 80 62L80 34C80 28.4772 75.5228 24 70 24L26 24ZM20 34C20 30.6863 22.6863 28 26 28L70 28C73.3137 28 76 30.6863 76 34L76 62C76 65.3137 73.3137 68 70 68L26 68C22.6863 68 20 65.3137 20 62L20 34ZM26.6351 35.5382C27.4424 34.7843 28.708 34.8277 29.4618 35.6351L39.8818 46.7951C40.6175 47.5829 40.5964 48.812 39.8342 49.5742L29.4142 59.9942C28.6332 60.7753 27.3668 60.7753 26.5858 59.9942 25.8047 59.2132 25.8047 57.9468 26.5858 57.1658L35.6392 48.1123 26.5382 38.3649C25.7843 37.5576 25.8277 36.292 26.6351 35.5382ZM42 60C42 58.8954 42.8954 58 44 58L68 58C69.1046 58 70 58.8954 70 60 70 61.1046 69.1046 62 68 62L44 62C42.8954 62 42 61.1046 42 60Z" class="MsftOfcThm_Text1_Fill_v2" stroke="none" stroke-width="1" stroke-linecap="butt" stroke-linejoin="miter" stroke-miterlimit="4" fill="#000000" fill-rule="evenodd" fill-opacity="1" clip-rule="evenodd"/></svg>