<svg width="96" height="96" viewBox="0 0 96 96" xmlns="http://www.w3.org/2000/svg" xmlns:xlink="http://www.w3.org/1999/xlink" fill="none" overflow="hidden"><style>
.MsftOfcThm_Text1_Fill_v2 {
 fill:#000000; 
}
</style>
<path d="M17 48C17 30.8792 30.8792 17 48 17 65.1208 17 79 30.8792 79 48 79 65.1208 65.1208 79 48 79 30.8792 79 17 65.1208 17 48ZM48 13C28.67 13 13 28.67 13 48 13 67.33 28.67 83 48 83 67.33 83 83 67.33 83 48 83 28.67 67.33 13 48 13ZM53.0004 30.1465C53.0004 32.9079 50.7618 35.1465 48.0004 35.1465 45.2389 35.1465 43.0004 32.9079 43.0004 30.1465 43.0004 27.3851 45.2389 25.1465 48.0004 25.1465 50.7618 25.1465 53.0004 27.3851 53.0004 30.1465ZM33.4354 35.8902C32.3735 35.5863 31.2663 36.2009 30.9624 37.2628 30.6586 38.3248 31.2732 39.432 32.3351 39.7359 35.2109 40.5587 38.147 41.1536 41.1163 41.5152 42.1444 41.6403 42.9355 42.5008 42.9355 43.5365L42.9355 51.441C42.9355 51.6258 42.9099 51.8097 42.8594 51.9875 42.0588 54.8069 41.145 58.0364 40.3438 60.8745 39.768 62.9141 39.2501 64.7524 38.874 66.0919 38.6859 66.7614 38.533 67.3073 38.4259 67.6917L38.4015 67.7792C38.3232 68.0599 38.2413 68.3535 38.2199 68.4605 38.0033 69.5436 38.7057 70.5972 39.7888 70.8139 40.8719 71.0305 41.9256 70.328 42.1422 69.2449 42.1316 69.2979 42.1402 69.2669 42.1905 69.0849L42.1906 69.0846 42.1906 69.0845 42.1912 69.0823C42.2125 69.0051 42.2413 68.9011 42.2791 68.7654 42.3851 68.3849 42.5372 67.8421 42.725 67.1734 43.1005 65.8363 43.6178 63.9999 44.1933 61.9612 44.8829 59.5186 45.5738 57.0763 46.2662 54.6345 46.4861 53.8591 47.1941 53.3242 48 53.3242 48.8059 53.3242 49.5139 53.8591 49.7338 54.6345 50.4262 57.0763 51.1171 59.5186 51.8067 61.9612 52.3822 63.9999 52.8995 65.8363 53.275 67.1734 53.4628 67.8421 53.6149 68.3849 53.7209 68.7654 53.7587 68.9011 53.7875 69.0051 53.8088 69.0823L53.8094 69.0845 53.8094 69.0846 53.8095 69.0849C53.8598 69.2669 53.8684 69.2979 53.8578 69.2449 54.0744 70.328 55.1281 71.0305 56.2112 70.8139 57.2943 70.5972 57.9967 69.5436 57.7801 68.4605 57.7587 68.3535 57.6768 68.06 57.5985 67.7793L57.5985 67.7792 57.5741 67.6917C57.467 67.3073 57.3141 66.7614 57.126 66.0919 56.7499 64.7524 56.232 62.9141 55.6562 60.8745 54.855 58.0364 53.9412 54.8069 53.1406 51.9875 53.0901 51.8097 53.0645 51.6258 53.0645 51.441L53.0645 43.536C53.0645 42.5004 53.8556 41.6399 54.8836 41.5147 57.7191 41.1692 60.5246 40.6109 63.2763 39.8443L63.6521 39.7397C64.7162 39.4433 65.3385 38.3404 65.0421 37.2763 64.7457 36.2123 63.6428 35.59 62.5788 35.8864L62.203 35.991C52.7883 38.6135 42.8315 38.5786 33.4354 35.8902Z" class="MsftOfcThm_Text1_Fill_v2" stroke="none" stroke-width="1" stroke-linecap="butt" stroke-linejoin="miter" stroke-miterlimit="4" fill="#000000" fill-rule="evenodd" fill-opacity="1" clip-rule="evenodd"/></svg>