<svg width="96" height="96" viewBox="0 0 96 96" xmlns="http://www.w3.org/2000/svg" xmlns:xlink="http://www.w3.org/1999/xlink" fill="none" overflow="hidden"><style>
.MsftOfcThm_Text1_Fill_v2 {
 fill:#000000; 
}
</style>
<path d="M33.6771 16.2471C32.0917 16.2471 30.5707 16.8746 29.4464 17.9925L13.8918 33.4598C11.7576 35.5819 11.5259 38.9569 13.3501 41.3508L43.1654 80.4794C45.5638 83.627 50.299 83.6315 52.7033 80.4883L82.6323 41.363C84.4674 38.964 84.2331 35.5749 82.0854 33.4511L66.4402 17.9807C65.3169 16.87 63.801 16.2471 62.2214 16.2471L33.6771 16.2471ZM32.2669 20.8289C32.6416 20.4562 33.1486 20.2471 33.6771 20.2471L41.034 20.2471 33.4243 36.1315C33.4007 36.1808 33.3791 36.2311 33.3596 36.2822L16.7262 36.2822 32.2669 20.8289ZM37.7875 36.2822 45.4694 20.2471 50.5311 20.2471 58.213 36.2822 37.7875 36.2822ZM57.7715 40.2822 38.229 40.2822 48.0002 75.0554 57.7715 40.2822ZM52.3479 74.3694 61.9264 40.2822 78.4229 40.2822 52.3479 74.3694ZM62.6409 36.2822C62.6214 36.2311 62.5998 36.1808 62.5762 36.1315L54.9664 20.2471 62.2214 20.2471C62.748 20.2471 63.2533 20.4547 63.6277 20.8249L79.2596 36.2822 62.6409 36.2822ZM17.5647 40.2822 34.0741 40.2822 43.7192 74.6065 17.5647 40.2822Z" class="MsftOfcThm_Text1_Fill_v2" stroke="none" stroke-width="1" stroke-linecap="butt" stroke-linejoin="miter" stroke-miterlimit="4" fill="#000000" fill-rule="evenodd" fill-opacity="1" clip-rule="evenodd"/></svg>