<svg width="96" height="96" viewBox="0 0 96 96" xmlns="http://www.w3.org/2000/svg" xmlns:xlink="http://www.w3.org/1999/xlink" fill="none" overflow="hidden"><style>
.MsftOfcThm_Text1_Fill_v2 {
 fill:#000000; 
}
</style>
<path d="M49.7933 17.7767C49.0597 16.2902 46.94 16.2902 46.2064 17.7767L44.4129 16.8916 46.2064 17.7767 38.7262 32.9332C37.8522 34.7041 36.1628 35.9315 34.2086 36.2155L17.4824 38.6459C15.8419 38.8843 15.1869 40.9002 16.374 42.0573L15.0011 43.4657 16.374 42.0573 28.4771 53.855C29.8913 55.2334 30.5366 57.2194 30.2027 59.1658L27.3456 75.8244C27.0653 77.4582 28.7802 78.7041 30.2475 77.9327L45.2078 70.0676 45.9088 71.4009 45.2078 70.0676C46.9558 69.1487 49.044 69.1487 50.7919 70.0676L65.7523 77.9327C67.2195 78.7041 68.9344 77.4582 68.6542 75.8244L65.797 59.1658C65.4632 57.2194 66.1084 55.2334 67.5226 53.855L79.6257 42.0573C80.8128 40.9002 80.1578 38.8843 78.5173 38.6459L61.7911 36.2155 62.0787 34.2363 61.7911 36.2155C59.8369 35.9315 58.1475 34.7041 57.2735 32.9332L59.067 32.0481 57.2735 32.9332 49.7933 17.7767ZM42.6194 16.0065C44.8203 11.547 51.1794 11.547 53.3803 16.0065L60.8605 31.163C61.1518 31.7532 61.7149 32.1624 62.3663 32.257L79.0925 34.6875C84.0138 35.4026 85.9789 41.4505 82.4178 44.9217L70.3146 56.7193C69.8432 57.1788 69.6281 57.8408 69.7394 58.4896L72.5966 75.1482C73.4373 80.0496 68.2927 83.7874 63.8909 81.4733L48.9305 73.6082C48.3479 73.3018 47.6518 73.3018 47.0692 73.6082L32.1088 81.4733C27.7071 83.7874 22.5625 80.0497 23.4031 75.1482L26.2603 58.4896C26.3716 57.8408 26.1565 57.1788 25.6851 56.7193L13.5819 44.9217 14.9779 43.4895 13.5819 44.9217C10.0208 41.4505 11.9859 35.4026 16.9072 34.6875L33.6334 32.257 33.921 34.2363 33.6334 32.257C34.2848 32.1624 34.8479 31.7533 35.1392 31.163L42.6194 16.0065Z" class="MsftOfcThm_Text1_Fill_v2" stroke="none" stroke-width="1" stroke-linecap="butt" stroke-linejoin="miter" stroke-miterlimit="4" fill="#000000" fill-rule="evenodd" fill-opacity="1" clip-rule="evenodd"/></svg>